<?xml version="1.0" encoding="UTF-8" standalone="no"?>
<!-- Created with Inkscape (http://www.inkscape.org/) -->

<svg
   width="1050"
   height="450"
   viewBox="0 0 277.8125 119.0625"
   version="1.1"
   id="svg5"
   inkscape:version="1.1.2 (0a00cf5339, 2022-02-04)"
   sodipodi:docname="raft-2.svg"
   xmlns:inkscape="http://www.inkscape.org/namespaces/inkscape"
   xmlns:sodipodi="http://sodipodi.sourceforge.net/DTD/sodipodi-0.dtd"
   xmlns="http://www.w3.org/2000/svg"
   xmlns:svg="http://www.w3.org/2000/svg">
  <sodipodi:namedview
     id="namedview7"
     pagecolor="#ffffff"
     bordercolor="#666666"
     borderopacity="1.0"
     inkscape:pageshadow="2"
     inkscape:pageopacity="0.0"
     inkscape:pagecheckerboard="true"
     inkscape:document-units="px"
     showgrid="false"
     units="px"
     inkscape:zoom="0.85221133"
     inkscape:cx="465.84689"
     inkscape:cy="60.43102"
     inkscape:window-width="1846"
     inkscape:window-height="1016"
     inkscape:window-x="74"
     inkscape:window-y="27"
     inkscape:window-maximized="1"
     inkscape:current-layer="layer1"
     borderlayer="true"
     showborder="true"
     inkscape:showpageshadow="false"
     showguides="true"
     inkscape:guide-bbox="true"
     inkscape:snap-object-midpoints="false"
     inkscape:snap-center="true" />
  <defs
     id="defs2">
    <clipPath
       clipPathUnits="userSpaceOnUse"
       id="clipPath1734">
      <path
         d="M 0,0.028 H 595.275 V 841.889 H 0 Z"
         clip-rule="evenodd"
         id="path1732" />
    </clipPath>
    <clipPath
       clipPathUnits="userSpaceOnUse"
       id="clipPath5199">
      <path
         d="M 0,0.028 H 595.275 V 841.889 H 0 Z"
         clip-rule="evenodd"
         id="path5197" />
    </clipPath>
    <clipPath
       clipPathUnits="userSpaceOnUse"
       id="clipPath6407">
      <path
         d="M 0,0.028 H 595.275 V 841.889 H 0 Z"
         clip-rule="evenodd"
         id="path6405" />
    </clipPath>
    <clipPath
       clipPathUnits="userSpaceOnUse"
       id="clipPath23707">
      <path
         d="M 0,0.028 H 595.275 V 841.889 H 0 Z"
         clip-rule="evenodd"
         id="path23705" />
    </clipPath>
    <clipPath
       clipPathUnits="userSpaceOnUse"
       id="clipPath24678">
      <path
         d="M 0,0 H 488 V 300 H 0 Z"
         id="path24676" />
    </clipPath>
    <clipPath
       clipPathUnits="userSpaceOnUse"
       id="clipPath24678-7">
      <path
         d="M 0,0 H 488 V 300 H 0 Z"
         id="path24676-5" />
    </clipPath>
    <clipPath
       clipPathUnits="userSpaceOnUse"
       id="clipPath1053">
      <path
         d="M 0,0 H 536.77258 V 231.88982 H 0 Z"
         id="path1051" />
    </clipPath>
    <clipPath
       clipPathUnits="userSpaceOnUse"
       id="clipPath1175">
      <path
         d="M 0,0 H 428.31323 V 171.69997 H 0 Z"
         id="path1173" />
    </clipPath>
  </defs>
  <g
     inkscape:label="Layer 1"
     inkscape:groupmode="layer"
     id="layer1">
    <g
       id="g1045"
       transform="matrix(0.27943022,0,0,-0.27943022,63.909274,89.8467)">
      <g
         id="g1047">
        <g
           id="g1049" />
        <g
           id="g1147">
          <g
             clip-path="url(#clipPath1053)"
             id="g1145">
            <g
               id="g1143">
              <g
                 transform="matrix(1,0,0,-1,0,231.88982)"
                 id="g1057">
                <path
                   d="m 252.469,95.738 h 63.578 c 14.875,0 26.851,7.692 26.851,17.25 0,9.559 -11.976,17.25 -26.851,17.25 h -63.578 c -14.875,0 -26.852,-7.691 -26.852,-17.25 0,-9.558 11.977,-17.25 26.852,-17.25 z"
                   style="fill:#cef2ce;fill-opacity:1;fill-rule:nonzero;stroke:#000000;stroke-width:2.4;stroke-linecap:round;stroke-linejoin:miter;stroke-miterlimit:4;stroke-dasharray:none;stroke-opacity:1"
                   id="path1055" />
              </g>
              <path
                 d="m 254.316,121.667 c -0.046,1.141 -0.25,1.86 -0.609,2.516 -0.781,1.344 -2.156,2.062 -3.953,2.062 -2.25,0 -4.109,-0.906 -5.609,-2.718 -1.516,-1.813 -2.454,-4.469 -2.454,-6.875 0,-1.344 0.375,-2.547 1.094,-3.454 0.875,-1.109 2.094,-1.625 3.797,-1.625 2.031,0 3.797,0.75 5.047,2.11 0.75,0.828 1.375,1.875 2.016,3.437 h -1.875 c -0.485,-1.093 -0.797,-1.672 -1.141,-2.14 -0.797,-1.141 -2.266,-1.86 -3.781,-1.86 -2,0 -3.313,1.563 -3.313,3.891 0,1.734 0.578,3.656 1.547,5.125 1.172,1.719 2.578,2.547 4.344,2.547 1.937,0 2.906,-0.938 3.047,-3.016 z m 9.688,-8.672 c -0.172,-0.047 -0.25,-0.047 -0.313,-0.047 -0.5,0 -0.734,0.172 -0.734,0.563 0,0.078 0,0.125 0.016,0.187 l 1.234,5.782 c 0.109,0.515 0.109,0.515 0.109,0.718 0,1.297 -1.328,2.157 -3.343,2.157 -2.672,0 -4.297,-1.125 -4.657,-3.25 h 1.61 c 0.172,0.531 0.297,0.797 0.578,1.062 0.422,0.422 1.219,0.719 2.047,0.719 1.156,0 2.031,-0.516 2.031,-1.234 0,-0.079 -0.016,-0.204 -0.031,-0.36 l -0.063,-0.344 c -0.172,-0.796 -0.531,-1 -1.937,-1.14 -2.563,-0.235 -3.375,-0.422 -4.313,-1.016 -1,-0.64 -1.578,-1.656 -1.578,-2.765 0,-1.532 1.031,-2.454 2.766,-2.454 0.672,0 1.469,0.125 2.172,0.375 0.609,0.219 0.906,0.407 1.687,1.094 v -0.203 c 0,-0.797 0.531,-1.266 1.453,-1.266 0.219,0 0.282,0 0.75,0.11 0.047,0.015 0.157,0.047 0.266,0.062 z m -2.313,2.172 c -0.25,-1.203 -1.937,-2.219 -3.64,-2.219 -1.094,0 -1.703,0.469 -1.703,1.266 0,0.641 0.359,1.266 0.937,1.625 0.469,0.281 1.047,0.438 1.985,0.563 1.796,0.25 1.953,0.281 2.796,0.562 z m 5.875,6.906 -2.125,-10.062 h 1.61 l 1.172,5.547 c 0.468,2.109 1.812,3.422 3.531,3.422 0.969,0 1.672,-0.672 1.672,-1.563 0,-0.109 -0.031,-0.39 -0.11,-0.703 l -1.421,-6.703 h 1.609 l 1.547,7.219 c 0.047,0.25 0.062,0.484 0.062,0.734 0,1.453 -1.015,2.391 -2.609,2.391 -1.453,0 -2.719,-0.516 -3.719,-1.532 l 0.25,1.25 z m 19.704,3.938 h -1.61 l -1.156,-5.391 c -0.609,1.235 -1.391,1.735 -2.75,1.735 -3.188,0 -5.563,-3.032 -5.563,-7.078 0,-2.25 1.282,-3.704 3.282,-3.704 0.828,0 1.703,0.266 2.468,0.719 0.579,0.36 0.829,0.641 1.094,1.172 l -0.297,-1.453 h 1.547 z m -5.672,-5.125 c 1.422,0 2.265,-0.969 2.265,-2.594 0,-1.14 -0.297,-2.312 -0.875,-3.312 -0.75,-1.282 -1.687,-1.938 -2.859,-1.938 -1.422,0 -2.25,0.969 -2.25,2.625 0,1.063 0.328,2.297 0.844,3.281 0.734,1.313 1.656,1.938 2.875,1.938 z m 8.89,1.187 h -1.609 l -2.141,-10.062 h 1.61 z m 0.844,3.938 h -1.609 l -0.422,-1.984 h 1.609 z m 10.902,0 h -1.609 l -1.156,-5.391 c -0.61,1.235 -1.391,1.735 -2.75,1.735 -3.188,0 -5.563,-3.032 -5.563,-7.078 0,-2.25 1.282,-3.704 3.282,-3.704 0.828,0 1.703,0.266 2.468,0.719 0.578,0.36 0.828,0.641 1.094,1.172 l -0.297,-1.453 h 1.547 z m -5.672,-5.125 c 1.422,0 2.266,-0.969 2.266,-2.594 0,-1.14 -0.297,-2.312 -0.875,-3.312 -0.75,-1.282 -1.687,-1.938 -2.859,-1.938 -1.422,0 -2.25,0.969 -2.25,2.625 0,1.063 0.328,2.297 0.844,3.281 0.734,1.313 1.656,1.938 2.874,1.938 z m 14.469,-7.891 c -0.172,-0.047 -0.25,-0.047 -0.312,-0.047 -0.5,0 -0.735,0.172 -0.735,0.563 0,0.078 0,0.125 0.016,0.187 l 1.234,5.782 c 0.11,0.515 0.11,0.515 0.11,0.718 0,1.297 -1.328,2.157 -3.344,2.157 -2.672,0 -4.297,-1.125 -4.656,-3.25 h 1.609 c 0.172,0.531 0.297,0.797 0.578,1.062 0.422,0.422 1.219,0.719 2.047,0.719 1.156,0 2.031,-0.516 2.031,-1.234 0,-0.079 -0.015,-0.204 -0.031,-0.36 l -0.062,-0.344 c -0.172,-0.796 -0.532,-1 -1.938,-1.14 -2.562,-0.235 -3.375,-0.422 -4.312,-1.016 -1,-0.64 -1.578,-1.656 -1.578,-2.765 0,-1.532 1.031,-2.454 2.765,-2.454 0.672,0 1.469,0.125 2.172,0.375 0.609,0.219 0.906,0.407 1.687,1.094 v -0.203 c 0,-0.797 0.532,-1.266 1.454,-1.266 0.218,0 0.281,0 0.75,0.11 0.046,0.015 0.156,0.047 0.265,0.062 z m -2.312,2.172 c -0.25,-1.203 -1.938,-2.219 -3.641,-2.219 -1.094,0 -1.703,0.469 -1.703,1.266 0,0.641 0.359,1.266 0.937,1.625 0.469,0.281 1.047,0.438 1.985,0.563 1.797,0.25 1.953,0.281 2.797,0.562 z m 9.437,6.906 h -1.718 l 0.609,2.766 h -1.625 l -0.594,-2.766 h -1.359 l -0.266,-1.281 h 1.359 l -1.515,-7.109 c -0.047,-0.188 -0.063,-0.406 -0.063,-0.594 0,-0.937 0.657,-1.516 1.719,-1.516 0.375,0 0.969,0.047 1.235,0.125 l 0.312,1.407 c -0.594,-0.141 -0.688,-0.157 -0.922,-0.157 -0.422,0 -0.687,0.219 -0.687,0.516 0,0.063 0.015,0.156 0.031,0.281 l 1.5,7.047 h 1.719 z m 9.106,-5.562 0.062,0.312 c 0.172,0.922 0.266,1.735 0.266,2.25 0,1.844 -1.594,3.282 -3.672,3.282 -1.672,0 -3.281,-0.782 -4.25,-2.063 -0.891,-1.219 -1.609,-3.406 -1.609,-4.953 0,-1.047 0.453,-2.094 1.187,-2.812 0.672,-0.657 1.531,-0.954 2.625,-0.954 2.297,0 4.281,1.422 4.875,3.485 h -1.609 c -0.703,-1.313 -1.719,-2.016 -3,-2.016 -1.516,0 -2.391,0.953 -2.391,2.578 0,0.407 0.031,0.594 0.109,0.891 z m -7.063,1.375 c 0.5,1.766 1.922,3 3.469,3 1.359,0 2.234,-0.922 2.234,-2.359 0,-0.204 -0.031,-0.329 -0.062,-0.641 z"
                 style="fill:#000000;fill-opacity:1;fill-rule:nonzero;stroke:none"
                 id="path1059" />
              <g
                 transform="matrix(1,0,0,-1,0,231.88982)"
                 id="g1063">
                <path
                   d="m 431.578,131.598 c 1.106,65.859 -226.336,38.949 -257.199,4.136"
                   style="fill:none;stroke:#000000;stroke-width:2.4;stroke-linecap:round;stroke-linejoin:miter;stroke-miterlimit:4;stroke-dasharray:none;stroke-opacity:1"
                   id="path1061" />
              </g>
              <g
                 transform="matrix(-0.886541,1,1,0.886541,0,231.88982)"
                 id="g1067">
                <path
                   d="m -158.419,30.262 -6.211,3.592 -0.001,-7.185 z"
                   style="fill:#000000;fill-opacity:1;fill-rule:evenodd;stroke:#000000;stroke-width:0.897937;stroke-linecap:butt;stroke-linejoin:miter;stroke-miterlimit:4;stroke-dasharray:none;stroke-opacity:1"
                   id="path1065" />
              </g>
              <g
                 transform="matrix(1,0,0,-1,0,231.88982)"
                 id="g1071">
                <path
                   d="m 92.469,95.738 h 63.578 c 14.875,0 26.851,7.692 26.851,17.25 0,9.559 -11.976,17.25 -26.851,17.25 H 92.469 c -14.875,0 -26.852,-7.691 -26.852,-17.25 0,-9.558 11.977,-17.25 26.852,-17.25 z"
                   style="fill:#cef2ce;fill-opacity:1;fill-rule:nonzero;stroke:#000000;stroke-width:2.4;stroke-linecap:round;stroke-linejoin:miter;stroke-miterlimit:4;stroke-dasharray:none;stroke-opacity:1"
                   id="path1069" />
              </g>
              <path
                 d="m 91.906,118.386 h 6.672 l 0.328,1.578 h -6.672 l 0.969,4.469 h 7.578 l 0.328,1.578 h -9.39 l -2.969,-14 h 1.797 z m 14.223,3.969 c -1.781,0 -3.359,-0.797 -4.344,-2.219 -0.859,-1.234 -1.5,-3.344 -1.5,-4.969 0,-2.14 1.485,-3.594 3.641,-3.594 1.844,0 3.297,0.75 4.375,2.219 0.875,1.219 1.515,3.313 1.515,4.985 0,1.015 -0.39,1.984 -1.062,2.64 -0.641,0.641 -1.516,0.938 -2.625,0.938 z m -0.25,-1.469 c 1.422,0 2.25,-0.922 2.25,-2.484 0,-1.125 -0.328,-2.375 -0.844,-3.344 -0.734,-1.313 -1.765,-2.016 -3.094,-2.016 -1.359,0 -2.218,0.969 -2.218,2.5 0,1.094 0.328,2.36 0.859,3.328 0.703,1.297 1.781,2.016 3.047,2.016 z m 9.453,5.125 h -1.609 l -2.969,-14 h 1.609 z m 4.277,0 H 118 l -2.969,-14 h 1.61 z m 5.758,-3.656 c -1.781,0 -3.359,-0.797 -4.344,-2.219 -0.859,-1.234 -1.5,-3.344 -1.5,-4.969 0,-2.14 1.485,-3.594 3.641,-3.594 1.844,0 3.297,0.75 4.375,2.219 0.875,1.219 1.516,3.313 1.516,4.985 0,1.015 -0.391,1.984 -1.063,2.64 -0.64,0.641 -1.515,0.938 -2.625,0.938 z m -0.25,-1.469 c 1.422,0 2.25,-0.922 2.25,-2.484 0,-1.125 -0.328,-2.375 -0.844,-3.344 -0.734,-1.313 -1.765,-2.016 -3.093,-2.016 -1.36,0 -2.219,0.969 -2.219,2.5 0,1.094 0.328,2.36 0.859,3.328 0.703,1.297 1.782,2.016 3.047,2.016 z m 14.235,-8.875 5.078,10.062 h -1.75 l -3.766,-7.828 -0.203,7.828 h -2.031 l -3.625,-7.828 -0.36,7.828 h -1.75 l 0.766,-10.062 h 1.844 l 3.75,8.031 0.234,-8.031 z m 14.015,4.5 0.063,0.312 c 0.172,0.922 0.265,1.735 0.265,2.25 0,1.844 -1.593,3.282 -3.672,3.282 -1.671,0 -3.281,-0.782 -4.25,-2.063 -0.89,-1.219 -1.609,-3.406 -1.609,-4.953 0,-1.047 0.453,-2.094 1.188,-2.812 0.671,-0.657 1.531,-0.954 2.625,-0.954 2.296,0 4.281,1.422 4.875,3.485 h -1.61 c -0.703,-1.313 -1.719,-2.016 -3,-2.016 -1.515,0 -2.39,0.953 -2.39,2.578 0,0.407 0.031,0.594 0.109,0.891 z m -7.062,1.375 c 0.5,1.766 1.922,3 3.468,3 1.36,0 2.235,-0.922 2.235,-2.359 0,-0.204 -0.031,-0.329 -0.063,-0.641 z m 10.39,4.187 -2.125,-10.062 h 1.61 l 1.109,5.219 c 0.5,2.343 1.875,3.515 3.984,3.437 l 0.344,1.641 c -0.25,0.031 -0.406,0.047 -0.609,0.047 -1.125,0 -1.985,-0.5 -3.172,-1.86 l 0.328,1.578 z"
                 style="fill:#000000;fill-opacity:1;fill-rule:nonzero;stroke:none"
                 id="path1073" />
              <g
                 transform="matrix(1,0,0,-1,0,231.88982)"
                 id="g1077">
                <path
                   d="m 412.469,95.738 h 63.578 c 14.875,0 26.851,7.692 26.851,17.25 0,9.559 -11.976,17.25 -26.851,17.25 h -63.578 c -14.875,0 -26.852,-7.691 -26.852,-17.25 0,-9.558 11.977,-17.25 26.852,-17.25 z"
                   style="fill:#cef2ce;fill-opacity:1;fill-rule:nonzero;stroke:#000000;stroke-width:2.4;stroke-linecap:round;stroke-linejoin:miter;stroke-miterlimit:4;stroke-dasharray:none;stroke-opacity:1"
                   id="path1075" />
              </g>
              <path
                 d="m 419.723,126.011 h -1.797 l -2.985,-14 h 8.719 l 0.328,1.578 h -6.906 z m 15.187,-9.5 0.063,0.312 c 0.172,0.922 0.265,1.735 0.265,2.25 0,1.844 -1.593,3.282 -3.672,3.282 -1.671,0 -3.281,-0.782 -4.25,-2.063 -0.89,-1.219 -1.609,-3.406 -1.609,-4.953 0,-1.047 0.453,-2.094 1.188,-2.812 0.671,-0.657 1.531,-0.954 2.625,-0.954 2.296,0 4.281,1.422 4.875,3.485 h -1.61 c -0.703,-1.313 -1.719,-2.016 -3,-2.016 -1.515,0 -2.39,0.953 -2.39,2.578 0,0.407 0.031,0.594 0.109,0.891 z m -7.062,1.375 c 0.5,1.766 1.922,3 3.468,3 1.36,0 2.235,-0.922 2.235,-2.359 0,-0.204 -0.031,-0.329 -0.063,-0.641 z m 17.531,-4.891 c -0.172,-0.047 -0.25,-0.047 -0.313,-0.047 -0.5,0 -0.734,0.172 -0.734,0.563 0,0.078 0,0.125 0.016,0.187 l 1.234,5.782 c 0.109,0.515 0.109,0.515 0.109,0.718 0,1.297 -1.328,2.157 -3.343,2.157 -2.672,0 -4.297,-1.125 -4.657,-3.25 h 1.61 c 0.172,0.531 0.297,0.797 0.578,1.062 0.422,0.422 1.219,0.719 2.047,0.719 1.156,0 2.031,-0.516 2.031,-1.234 0,-0.079 -0.016,-0.204 -0.031,-0.36 l -0.063,-0.344 c -0.172,-0.796 -0.531,-1 -1.937,-1.14 -2.563,-0.235 -3.375,-0.422 -4.313,-1.016 -1,-0.64 -1.578,-1.656 -1.578,-2.765 0,-1.532 1.031,-2.454 2.766,-2.454 0.672,0 1.469,0.125 2.172,0.375 0.609,0.219 0.906,0.407 1.687,1.094 v -0.203 c 0,-0.797 0.531,-1.266 1.453,-1.266 0.219,0 0.282,0 0.75,0.11 0.047,0.015 0.157,0.047 0.266,0.062 z m -2.313,2.172 c -0.25,-1.203 -1.937,-2.219 -3.64,-2.219 -1.094,0 -1.703,0.469 -1.703,1.266 0,0.641 0.359,1.266 0.937,1.625 0.469,0.281 1.047,0.438 1.985,0.563 1.796,0.25 1.953,0.281 2.796,0.562 z m 14.891,10.844 h -1.609 l -1.157,-5.391 c -0.609,1.235 -1.39,1.735 -2.75,1.735 -3.187,0 -5.562,-3.032 -5.562,-7.078 0,-2.25 1.281,-3.704 3.281,-3.704 0.828,0 1.703,0.266 2.469,0.719 0.578,0.36 0.828,0.641 1.094,1.172 l -0.297,-1.453 h 1.547 z m -5.672,-5.125 c 1.422,0 2.266,-0.969 2.266,-2.594 0,-1.14 -0.297,-2.312 -0.875,-3.312 -0.75,-1.282 -1.688,-1.938 -2.86,-1.938 -1.421,0 -2.25,0.969 -2.25,2.625 0,1.063 0.329,2.297 0.844,3.281 0.735,1.313 1.656,1.938 2.875,1.938 z m 14.688,-4.375 0.062,0.312 c 0.172,0.922 0.266,1.735 0.266,2.25 0,1.844 -1.594,3.282 -3.672,3.282 -1.672,0 -3.281,-0.782 -4.25,-2.063 -0.891,-1.219 -1.609,-3.406 -1.609,-4.953 0,-1.047 0.453,-2.094 1.187,-2.812 0.672,-0.657 1.531,-0.954 2.625,-0.954 2.297,0 4.281,1.422 4.875,3.485 h -1.609 c -0.703,-1.313 -1.719,-2.016 -3,-2.016 -1.516,0 -2.391,0.953 -2.391,2.578 0,0.407 0.031,0.594 0.109,0.891 z m -7.063,1.375 c 0.5,1.766 1.922,3 3.469,3 1.359,0 2.234,-0.922 2.234,-2.359 0,-0.204 -0.031,-0.329 -0.062,-0.641 z m 10.391,4.187 -2.125,-10.062 h 1.609 l 1.11,5.219 c 0.5,2.343 1.875,3.515 3.984,3.437 l 0.344,1.641 c -0.25,0.031 -0.407,0.047 -0.61,0.047 -1.125,0 -1.984,-0.5 -3.172,-1.86 l 0.329,1.578 z"
                 style="fill:#000000;fill-opacity:1;fill-rule:nonzero;stroke:none"
                 id="path1079" />
              <path
                 d="m 364.945,207.077 v -10.062 h 1.61 v 5.219 c 0,1.437 0.359,2.39 1.14,2.937 0.5,0.375 0.969,0.484 2.094,0.5 v 1.641 c -0.281,0.031 -0.406,0.047 -0.625,0.047 -1.031,0 -1.828,-0.61 -2.75,-2.11 v 1.828 z m 14.93,-5.562 c 0,1.531 -0.109,2.453 -0.391,3.203 -0.656,1.656 -2.187,2.641 -4.078,2.641 -2.797,0 -4.609,-2.141 -4.609,-5.454 0,-3.296 1.75,-5.328 4.578,-5.328 2.297,0 3.891,1.297 4.297,3.485 h -1.61 c -0.453,-1.313 -1.343,-2.016 -2.64,-2.016 -1.016,0 -1.875,0.469 -2.422,1.313 -0.375,0.578 -0.516,1.156 -0.531,2.156 z m -7.359,1.297 c 0.125,1.859 1.265,3.078 2.875,3.078 1.578,0 2.781,-1.313 2.781,-2.953 0,-0.047 0,-0.078 -0.016,-0.125 z m 17.25,0.89 c -0.078,0.969 -0.297,1.61 -0.672,2.172 -0.688,0.938 -1.906,1.485 -3.313,1.485 -2.703,0 -4.469,-2.141 -4.469,-5.485 0,-3.25 1.735,-5.297 4.454,-5.297 2.406,0 3.922,1.438 4.109,3.891 h -1.609 c -0.266,-1.609 -1.094,-2.422 -2.454,-2.422 -1.765,0 -2.828,1.453 -2.828,3.828 0,2.516 1.032,4.016 2.782,4.016 1.343,0 2.187,-0.797 2.39,-2.188 z m 10.394,-2.187 c 0,1.531 -0.109,2.453 -0.39,3.203 -0.657,1.656 -2.188,2.641 -4.079,2.641 -2.796,0 -4.609,-2.141 -4.609,-5.454 0,-3.296 1.75,-5.328 4.578,-5.328 2.297,0 3.891,1.297 4.297,3.485 h -1.609 c -0.453,-1.313 -1.344,-2.016 -2.641,-2.016 -1.016,0 -1.875,0.469 -2.422,1.313 -0.375,0.578 -0.515,1.156 -0.531,2.156 z m -7.359,1.297 c 0.125,1.859 1.265,3.078 2.875,3.078 1.578,0 2.781,-1.313 2.781,-2.953 0,-0.047 0,-0.078 -0.016,-0.125 z m 11.078,4.265 h -1.594 v -10.062 h 1.594 z m 0,3.938 h -1.609 v -2.016 h 1.609 z m 6.871,-14 3.859,10.062 h -1.797 l -2.843,-8.156 -2.688,8.156 h -1.812 L 409,197.015 Z m 13.973,4.5 c 0,1.531 -0.11,2.453 -0.391,3.203 -0.656,1.656 -2.187,2.641 -4.078,2.641 -2.797,0 -4.609,-2.141 -4.609,-5.454 0,-3.296 1.75,-5.328 4.578,-5.328 2.297,0 3.89,1.297 4.297,3.485 h -1.61 c -0.453,-1.313 -1.344,-2.016 -2.64,-2.016 -1.016,0 -1.875,0.469 -2.422,1.313 -0.375,0.578 -0.516,1.156 -0.532,2.156 z m -7.36,1.297 c 0.125,1.859 1.266,3.078 2.875,3.078 1.578,0 2.782,-1.313 2.782,-2.953 0,-0.047 0,-0.078 -0.016,-0.125 z m 16.61,1.468 c -0.016,1.969 -1.313,3.079 -3.641,3.079 -2.344,0 -3.859,-1.204 -3.859,-3.063 0,-1.578 0.797,-2.328 3.187,-2.906 l 1.5,-0.36 c 1.11,-0.265 1.547,-0.671 1.547,-1.406 0,-0.937 -0.937,-1.578 -2.344,-1.578 -0.859,0 -1.593,0.25 -2,0.672 -0.25,0.297 -0.359,0.578 -0.453,1.297 h -1.687 c 0.078,-2.328 1.375,-3.438 4.015,-3.438 2.532,0 4.141,1.25 4.141,3.188 0,1.5 -0.844,2.312 -2.844,2.797 l -1.531,0.375 c -1.313,0.297 -1.859,0.718 -1.859,1.437 0,0.922 0.828,1.516 2.125,1.516 1.281,0 1.984,-0.563 2.015,-1.61 z m 11.988,-7.265 3.859,10.062 h -1.797 l -2.843,-8.156 -2.688,8.156 h -1.812 l 3.531,-10.062 z m 9.351,10.344 c -2.812,0 -4.531,-2.016 -4.531,-5.391 0,-3.375 1.688,-5.391 4.563,-5.391 2.812,0 4.547,2.016 4.547,5.313 0,3.484 -1.672,5.469 -4.579,5.469 z m 0.032,-1.469 c 1.797,0 2.875,-1.485 2.875,-3.985 0,-2.359 -1.11,-3.859 -2.875,-3.859 -1.797,0 -2.891,1.484 -2.891,3.922 0,2.422 1.094,3.922 2.891,3.922 z m 10.312,1.187 H 464 v 2.766 h -1.594 v -2.766 h -1.359 v -1.312 h 1.359 v -7.594 c 0,-1.016 0.703,-1.594 1.953,-1.594 0.375,0 0.766,0.032 1.297,0.125 v 1.344 c -0.203,-0.047 -0.453,-0.078 -0.765,-0.078 -0.688,0 -0.891,0.203 -0.891,0.906 v 6.891 h 1.656 z m 10.293,-5.562 c 0,1.531 -0.109,2.453 -0.39,3.203 -0.657,1.656 -2.188,2.641 -4.079,2.641 -2.796,0 -4.609,-2.141 -4.609,-5.454 0,-3.296 1.75,-5.328 4.578,-5.328 2.297,0 3.891,1.297 4.297,3.485 h -1.609 c -0.453,-1.313 -1.344,-2.016 -2.641,-2.016 -1.016,0 -1.875,0.469 -2.422,1.313 -0.375,0.578 -0.515,1.156 -0.531,2.156 z m -7.359,1.297 c 0.125,1.859 1.265,3.078 2.875,3.078 1.578,0 2.781,-1.313 2.781,-2.953 0,-0.047 0,-0.078 -0.016,-0.125 z m 16.609,1.468 c -0.015,1.969 -1.312,3.079 -3.64,3.079 -2.344,0 -3.86,-1.204 -3.86,-3.063 0,-1.578 0.797,-2.328 3.188,-2.906 l 1.5,-0.36 c 1.109,-0.265 1.547,-0.671 1.547,-1.406 0,-0.937 -0.938,-1.578 -2.344,-1.578 -0.86,0 -1.594,0.25 -2,0.672 -0.25,0.297 -0.36,0.578 -0.453,1.297 h -1.688 c 0.078,-2.328 1.375,-3.438 4.016,-3.438 2.531,0 4.14,1.25 4.14,3.188 0,1.5 -0.843,2.312 -2.843,2.797 l -1.532,0.375 c -1.312,0.297 -1.859,0.718 -1.859,1.437 0,0.922 0.828,1.516 2.125,1.516 1.281,0 1.984,-0.563 2.016,-1.61 z m 11.473,2.797 H 495 v 1.578 c 0,0.672 0.391,1.016 1.109,1.016 0.141,0 0.203,0 0.563,-0.016 v 1.313 c -0.36,0.078 -0.578,0.109 -0.906,0.109 -1.469,0 -2.36,-0.843 -2.36,-2.297 v -1.703 h -1.344 v -1.312 h 1.344 v -8.75 H 495 v 8.75 h 1.672 z m 1.699,0 v -10.062 h 1.609 v 5.219 c 0,1.437 0.36,2.39 1.141,2.937 0.5,0.375 0.969,0.484 2.094,0.5 v 1.641 c -0.281,0.031 -0.406,0.047 -0.625,0.047 -1.031,0 -1.828,-0.61 -2.75,-2.11 v 1.828 z m 10.301,0.282 c -2.813,0 -4.531,-2.016 -4.531,-5.391 0,-3.375 1.687,-5.391 4.562,-5.391 2.813,0 4.547,2.016 4.547,5.313 0,3.484 -1.672,5.469 -4.578,5.469 z m 0.031,-1.469 c 1.797,0 2.875,-1.485 2.875,-3.985 0,-2.359 -1.109,-3.859 -2.875,-3.859 -1.797,0 -2.891,1.484 -2.891,3.922 0,2.422 1.094,3.922 2.891,3.922 z m 6.781,1.187 v -10.062 h 1.61 v 6.312 c 0,1.469 1.062,2.641 2.359,2.641 1.203,0 1.875,-0.734 1.875,-2.016 v -6.937 h 1.61 v 6.312 c 0,1.469 1.046,2.641 2.359,2.641 1.172,0 1.859,-0.75 1.859,-2.016 v -6.937 h 1.625 v 7.547 c 0,1.812 -1.047,2.797 -2.922,2.797 -1.343,0 -2.156,-0.391 -3.093,-1.532 -0.594,1.078 -1.407,1.532 -2.704,1.532 -1.343,0 -2.234,-0.5 -3.093,-1.704 v 1.422 z"
                 style="fill:#000000;fill-opacity:1;fill-rule:nonzero;stroke:none"
                 id="path1081" />
              <path
                 d="m 369.762,183.077 v -10.062 h 1.609 v 6.312 c 0,1.469 1.063,2.641 2.359,2.641 1.204,0 1.875,-0.734 1.875,-2.016 v -6.937 h 1.61 v 6.312 c 0,1.469 1.047,2.641 2.359,2.641 1.172,0 1.86,-0.75 1.86,-2.016 v -6.937 h 1.625 v 7.547 c 0,1.812 -1.047,2.797 -2.922,2.797 -1.344,0 -2.157,-0.391 -3.094,-1.532 -0.594,1.078 -1.406,1.532 -2.703,1.532 -1.344,0 -2.235,-0.5 -3.094,-1.704 v 1.422 z m 24.949,-9.125 c -0.188,-0.031 -0.25,-0.031 -0.359,-0.031 -0.547,0 -0.86,0.281 -0.86,0.781 v 5.922 c 0,1.781 -1.297,2.735 -3.781,2.735 -1.453,0 -2.672,-0.422 -3.344,-1.172 -0.453,-0.516 -0.656,-1.094 -0.687,-2.078 h 1.609 c 0.141,1.218 0.859,1.781 2.359,1.781 1.438,0 2.25,-0.547 2.25,-1.5 v -0.422 c 0,-0.672 -0.406,-0.969 -1.671,-1.109 -2.266,-0.297 -2.61,-0.375 -3.219,-0.625 -1.172,-0.469 -1.766,-1.375 -1.766,-2.688 0,-1.828 1.266,-2.969 3.297,-2.969 1.266,0 2.281,0.438 3.422,1.469 0.109,-1.016 0.609,-1.469 1.641,-1.469 0.328,0 0.578,0.032 1.109,0.172 z m -2.813,2.235 c 0,-0.547 -0.156,-0.875 -0.625,-1.313 -0.656,-0.594 -1.453,-0.906 -2.39,-0.906 -1.25,0 -1.969,0.609 -1.969,1.625 0,1.047 0.703,1.594 2.406,1.844 1.703,0.218 2.047,0.297 2.578,0.547 z m 4.563,6.89 v -11.515 c 0,-1 -0.328,-1.328 -1.313,-1.328 -0.046,0 -0.046,0 -0.375,0.015 v -1.359 c 0.188,-0.047 0.282,-0.063 0.532,-0.063 1.812,0 2.75,0.735 2.75,2.094 v 12.156 z m 1.594,3.938 h -1.594 v -2.016 h 1.594 z m 6.554,-3.656 c -2.812,0 -4.531,-2.016 -4.531,-5.391 0,-3.375 1.688,-5.391 4.563,-5.391 2.812,0 4.547,2.016 4.547,5.313 0,3.484 -1.672,5.469 -4.579,5.469 z m 0.032,-1.469 c 1.797,0 2.875,-1.485 2.875,-3.985 0,-2.359 -1.11,-3.859 -2.875,-3.859 -1.797,0 -2.891,1.484 -2.891,3.922 0,2.422 1.094,3.922 2.891,3.922 z m 6.765,1.187 v -10.062 h 1.61 v 5.219 c 0,1.437 0.359,2.39 1.14,2.937 0.5,0.375 0.969,0.484 2.094,0.5 v 1.641 c -0.281,0.031 -0.406,0.047 -0.625,0.047 -1.031,0 -1.828,-0.61 -2.75,-2.11 v 1.828 z m 7.961,0 h -1.594 v -10.062 h 1.594 z m 0,3.938 h -1.609 v -2.016 h 1.609 z m 6.274,-3.938 h -1.657 v 2.766 h -1.593 v -2.766 h -1.36 v -1.312 h 1.36 v -7.594 c 0,-1.016 0.703,-1.594 1.953,-1.594 0.375,0 0.765,0.032 1.297,0.125 v 1.344 c -0.203,-0.047 -0.453,-0.078 -0.766,-0.078 -0.687,0 -0.891,0.203 -0.891,0.906 v 6.891 h 1.657 z m 7.906,0 -2.781,-7.828 -2.578,7.828 h -1.704 l 3.391,-10.093 -0.609,-1.594 c -0.25,-0.719 -0.625,-0.985 -1.297,-0.985 -0.219,0 -0.5,0.032 -0.844,0.11 v -1.438 c 0.328,-0.172 0.656,-0.25 1.078,-0.25 0.516,0 1.078,0.172 1.5,0.485 0.5,0.359 0.781,0.781 1.094,1.593 l 4.469,12.172 z m 12.687,0.282 c -2.812,0 -4.531,-2.016 -4.531,-5.391 0,-3.375 1.688,-5.391 4.563,-5.391 2.812,0 4.546,2.016 4.546,5.313 0,3.484 -1.671,5.469 -4.578,5.469 z m 0.032,-1.469 c 1.796,0 2.875,-1.485 2.875,-3.985 0,-2.359 -1.11,-3.859 -2.875,-3.859 -1.797,0 -2.891,1.484 -2.891,3.922 0,2.422 1.094,3.922 2.891,3.922 z m 10.39,1.187 h -1.672 v 1.578 c 0,0.672 0.391,1.016 1.11,1.016 0.14,0 0.203,0 0.562,-0.016 v 1.313 c -0.359,0.078 -0.578,0.109 -0.906,0.109 -1.469,0 -2.359,-0.843 -2.359,-2.297 v -1.703 h -1.344 v -1.312 h 1.344 v -8.75 h 1.593 v 8.75 h 1.672 z m 14.106,-2.797 c -0.016,1.969 -1.313,3.079 -3.641,3.079 -2.344,0 -3.859,-1.204 -3.859,-3.063 0,-1.578 0.797,-2.328 3.187,-2.906 l 1.5,-0.36 c 1.11,-0.265 1.547,-0.671 1.547,-1.406 0,-0.937 -0.937,-1.578 -2.344,-1.578 -0.859,0 -1.593,0.25 -2,0.672 -0.25,0.297 -0.359,0.578 -0.453,1.297 h -1.687 c 0.078,-2.328 1.375,-3.438 4.015,-3.438 2.532,0 4.141,1.25 4.141,3.188 0,1.5 -0.844,2.312 -2.844,2.797 l -1.531,0.375 c -1.313,0.297 -1.859,0.718 -1.859,1.437 0,0.922 0.828,1.516 2.125,1.516 1.281,0 1.984,-0.563 2.015,-1.61 z m 11.035,-2.765 c 0,1.531 -0.109,2.453 -0.391,3.203 -0.656,1.656 -2.187,2.641 -4.078,2.641 -2.797,0 -4.609,-2.141 -4.609,-5.454 0,-3.296 1.75,-5.328 4.578,-5.328 2.297,0 3.891,1.297 4.297,3.485 h -1.61 c -0.453,-1.313 -1.343,-2.016 -2.64,-2.016 -1.016,0 -1.875,0.469 -2.422,1.313 -0.375,0.578 -0.516,1.156 -0.531,2.156 z m -7.359,1.297 c 0.124,1.859 1.265,3.078 2.874,3.078 1.579,0 2.782,-1.313 2.782,-2.953 0,-0.047 0,-0.078 -0.016,-0.125 z m 9.531,4.265 v -10.062 h 1.609 v 5.219 c 0,1.437 0.36,2.39 1.141,2.937 0.5,0.375 0.969,0.484 2.093,0.5 v 1.641 c -0.281,0.031 -0.406,0.047 -0.624,0.047 -1.032,0 -1.829,-0.61 -2.75,-2.11 v 1.828 z m 10.554,-10.062 3.86,10.062 h -1.797 l -2.844,-8.156 -2.687,8.156 h -1.813 l 3.531,-10.062 z m 13.977,4.5 c 0,1.531 -0.109,2.453 -0.391,3.203 -0.656,1.656 -2.187,2.641 -4.078,2.641 -2.797,0 -4.609,-2.141 -4.609,-5.454 0,-3.296 1.75,-5.328 4.578,-5.328 2.297,0 3.891,1.297 4.297,3.485 h -1.609 c -0.454,-1.313 -1.344,-2.016 -2.641,-2.016 -1.016,0 -1.875,0.469 -2.422,1.313 -0.375,0.578 -0.516,1.156 -0.531,2.156 z m -7.359,1.297 c 0.125,1.859 1.265,3.078 2.875,3.078 1.578,0 2.781,-1.313 2.781,-2.953 0,-0.047 0,-0.078 -0.016,-0.125 z m 9.531,4.265 v -10.062 h 1.609 v 5.219 c 0,1.437 0.36,2.39 1.141,2.937 0.5,0.375 0.969,0.484 2.094,0.5 v 1.641 c -0.282,0.031 -0.407,0.047 -0.625,0.047 -1.032,0 -1.829,-0.61 -2.75,-2.11 v 1.828 z m 13.488,-2.797 c -0.015,1.969 -1.312,3.079 -3.64,3.079 -2.344,0 -3.86,-1.204 -3.86,-3.063 0,-1.578 0.797,-2.328 3.188,-2.906 l 1.5,-0.36 c 1.109,-0.265 1.547,-0.671 1.547,-1.406 0,-0.937 -0.938,-1.578 -2.344,-1.578 -0.86,0 -1.594,0.25 -2,0.672 -0.25,0.297 -0.36,0.578 -0.453,1.297 h -1.688 c 0.078,-2.328 1.375,-3.438 4.016,-3.438 2.531,0 4.14,1.25 4.14,3.188 0,1.5 -0.843,2.312 -2.843,2.797 l -1.532,0.375 c -1.312,0.297 -1.859,0.718 -1.859,1.437 0,0.922 0.828,1.516 2.125,1.516 1.281,0 1.984,-0.563 2.016,-1.61 z"
                 style="fill:#000000;fill-opacity:1;fill-rule:nonzero;stroke:none"
                 id="path1083" />
              <g
                 transform="matrix(1,0,0,-1,0,231.88982)"
                 id="g1087">
                <path
                   d="M 328.078,97.191 C 345.969,72.43 405.625,51.48 430.477,85.805"
                   style="fill:none;stroke:#000000;stroke-width:2.4;stroke-linecap:round;stroke-linejoin:miter;stroke-miterlimit:4;stroke-dasharray:none;stroke-opacity:1"
                   id="path1085" />
              </g>
              <g
                 transform="matrix(0.723968,-1,-1,-0.723968,0,231.88982)"
                 id="g1091">
                <path
                   d="m 265.264,-241.684 -6.725,3.889 -10e-4,-7.774 z"
                   style="fill:#000000;fill-opacity:1;fill-rule:evenodd;stroke:#000000;stroke-width:0.972009;stroke-linecap:butt;stroke-linejoin:miter;stroke-miterlimit:4;stroke-dasharray:none;stroke-opacity:1"
                   id="path1089" />
              </g>
              <path
                 d="m 116.59,196.46 h -1.656 v 2.766 h -1.594 v -2.766 h -1.36 v -1.312 h 1.36 v -7.594 c 0,-1.016 0.703,-1.594 1.953,-1.594 0.375,0 0.766,0.031 1.297,0.125 v 1.344 c -0.203,-0.047 -0.453,-0.078 -0.766,-0.078 -0.687,0 -0.89,0.203 -0.89,0.906 v 6.891 h 1.656 z m 3.324,0 h -1.594 v -10.062 h 1.594 z m 0,3.938 h -1.609 v -2.016 h 1.609 z m 2.742,-3.938 v -10.062 h 1.61 v 6.312 c 0,1.469 1.062,2.641 2.359,2.641 1.203,0 1.875,-0.735 1.875,-2.016 v -6.937 h 1.609 v 6.312 c 0,1.469 1.047,2.641 2.36,2.641 1.172,0 1.859,-0.75 1.859,-2.016 v -6.937 h 1.625 v 7.547 c 0,1.812 -1.047,2.796 -2.922,2.796 -1.343,0 -2.156,-0.39 -3.093,-1.531 -0.594,1.078 -1.407,1.531 -2.704,1.531 -1.343,0 -2.234,-0.5 -3.093,-1.703 v 1.422 z m 24.516,-5.562 c 0,1.531 -0.11,2.453 -0.391,3.203 -0.656,1.656 -2.187,2.64 -4.078,2.64 -2.797,0 -4.609,-2.14 -4.609,-5.453 0,-3.297 1.75,-5.328 4.578,-5.328 2.297,0 3.89,1.297 4.297,3.485 h -1.61 c -0.453,-1.313 -1.343,-2.016 -2.64,-2.016 -1.016,0 -1.875,0.469 -2.422,1.312 -0.375,0.579 -0.516,1.157 -0.531,2.157 z m -7.36,1.297 c 0.126,1.859 1.266,3.078 2.876,3.078 1.578,0 2.781,-1.313 2.781,-2.953 0,-0.047 0,-0.079 -0.016,-0.125 z m 16.61,1.468 c -0.016,1.969 -1.313,3.078 -3.641,3.078 -2.343,0 -3.859,-1.203 -3.859,-3.062 0,-1.578 0.797,-2.328 3.187,-2.906 l 1.5,-0.36 c 1.11,-0.265 1.547,-0.672 1.547,-1.406 0,-0.937 -0.937,-1.578 -2.344,-1.578 -0.859,0 -1.593,0.25 -2,0.672 -0.25,0.297 -0.359,0.578 -0.453,1.297 h -1.687 c 0.078,-2.328 1.375,-3.438 4.016,-3.438 2.531,0 4.14,1.25 4.14,3.188 0,1.5 -0.844,2.312 -2.844,2.797 l -1.531,0.375 c -1.312,0.296 -1.859,0.718 -1.859,1.437 0,0.922 0.828,1.516 2.125,1.516 1.281,0 1.984,-0.563 2.015,-1.61 z m 11.734,3.078 c -2.812,0 -4.531,-2.015 -4.531,-5.39 0,-3.375 1.687,-5.391 4.563,-5.391 2.812,0 4.546,2.016 4.546,5.313 0,3.484 -1.672,5.468 -4.578,5.468 z m 0.032,-1.468 c 1.796,0 2.874,-1.485 2.874,-3.985 0,-2.359 -1.109,-3.859 -2.874,-3.859 -1.797,0 -2.891,1.484 -2.891,3.922 0,2.422 1.094,3.922 2.891,3.922 z m 14.687,-8.875 v 10.062 h -1.594 v -5.703 c 0,-2.062 -1.062,-3.406 -2.734,-3.406 -1.266,0 -2.078,0.781 -2.078,1.984 v 7.125 h -1.594 v -7.765 c 0,-1.657 1.25,-2.735 3.203,-2.735 1.484,0 2.422,0.516 3.36,1.844 v -1.406 z m 6.313,10.062 h -1.657 v 2.766 h -1.593 v -2.766 h -1.36 v -1.312 h 1.36 v -7.594 c 0,-1.016 0.703,-1.594 1.953,-1.594 0.375,0 0.765,0.031 1.297,0.125 v 1.344 c -0.204,-0.047 -0.454,-0.078 -0.766,-0.078 -0.688,0 -0.891,0.203 -0.891,0.906 v 6.891 h 1.657 z m 2.124,-8.062 v -2 h 1.157 v -0.344 c 0,-1.328 -0.25,-1.719 -1.157,-1.75 v -0.734 c 1.344,0 2.016,0.875 2.016,2.515 v 2.313 z"
                 style="fill:#000000;fill-opacity:1;fill-rule:nonzero;stroke:none"
                 id="path1093" />
              <path
                 d="m 102.496,169.663 c -0.016,1.969 -1.312,3.078 -3.641,3.078 -2.343,0 -3.859,-1.203 -3.859,-3.062 0,-1.578 0.797,-2.328 3.188,-2.906 l 1.5,-0.36 c 1.109,-0.265 1.546,-0.672 1.546,-1.406 0,-0.937 -0.937,-1.578 -2.343,-1.578 -0.86,0 -1.594,0.25 -2,0.672 -0.25,0.297 -0.36,0.578 -0.453,1.297 h -1.688 c 0.078,-2.328 1.375,-3.438 4.016,-3.438 2.531,0 4.14,1.25 4.14,3.188 0,1.5 -0.843,2.312 -2.843,2.797 l -1.532,0.375 c -1.312,0.296 -1.859,0.718 -1.859,1.437 0,0.922 0.828,1.516 2.125,1.516 1.281,0 1.984,-0.563 2.016,-1.61 z m 6.066,2.797 h -1.656 v 2.766 h -1.594 v -2.766 h -1.359 v -1.312 h 1.359 v -7.594 c 0,-1.016 0.704,-1.594 1.954,-1.594 0.375,0 0.765,0.031 1.296,0.125 v 1.344 c -0.203,-0.047 -0.453,-0.078 -0.765,-0.078 -0.688,0 -0.891,0.203 -0.891,0.906 v 6.891 h 1.656 z m 10.735,-9.125 c -0.188,-0.031 -0.25,-0.031 -0.359,-0.031 -0.547,0 -0.86,0.281 -0.86,0.781 v 5.922 c 0,1.781 -1.297,2.734 -3.781,2.734 -1.453,0 -2.672,-0.421 -3.344,-1.171 -0.453,-0.516 -0.656,-1.094 -0.687,-2.079 h 1.609 c 0.141,1.219 0.859,1.782 2.359,1.782 1.438,0 2.25,-0.547 2.25,-1.5 v -0.422 c 0,-0.672 -0.406,-0.969 -1.672,-1.11 -2.265,-0.296 -2.609,-0.375 -3.218,-0.625 -1.172,-0.468 -1.766,-1.375 -1.766,-2.687 0,-1.828 1.266,-2.969 3.297,-2.969 1.266,0 2.281,0.438 3.422,1.469 0.109,-1.016 0.609,-1.469 1.641,-1.469 0.328,0 0.578,0.031 1.109,0.172 z m -2.813,2.235 c 0,-0.547 -0.156,-0.875 -0.625,-1.313 -0.656,-0.594 -1.453,-0.906 -2.39,-0.906 -1.25,0 -1.969,0.609 -1.969,1.625 0,1.047 0.703,1.594 2.406,1.844 1.703,0.218 2.047,0.296 2.578,0.546 z m 4.547,6.89 v -10.062 h 1.61 v 5.218 c 0,1.438 0.359,2.391 1.14,2.938 0.5,0.375 0.969,0.484 2.094,0.5 v 1.641 c -0.281,0.031 -0.406,0.046 -0.625,0.046 -1.031,0 -1.828,-0.609 -2.75,-2.109 v 1.828 z m 9.957,0 h -1.656 v 2.766 h -1.594 v -2.766 h -1.359 v -1.312 h 1.359 v -7.594 c 0,-1.016 0.703,-1.594 1.953,-1.594 0.375,0 0.766,0.031 1.297,0.125 v 1.344 c -0.203,-0.047 -0.453,-0.078 -0.765,-0.078 -0.688,0 -0.891,0.203 -0.891,0.906 v 6.891 h 1.656 z m 8.856,-2.797 c -0.016,1.969 -1.313,3.078 -3.641,3.078 -2.344,0 -3.859,-1.203 -3.859,-3.062 0,-1.578 0.797,-2.328 3.187,-2.906 l 1.5,-0.36 c 1.11,-0.265 1.547,-0.672 1.547,-1.406 0,-0.937 -0.937,-1.578 -2.344,-1.578 -0.859,0 -1.593,0.25 -2,0.672 -0.25,0.297 -0.359,0.578 -0.453,1.297 h -1.687 c 0.078,-2.328 1.375,-3.438 4.015,-3.438 2.532,0 4.141,1.25 4.141,3.188 0,1.5 -0.844,2.312 -2.844,2.797 l -1.531,0.375 c -1.313,0.296 -1.859,0.718 -1.859,1.437 0,0.922 0.828,1.516 2.125,1.516 1.281,0 1.984,-0.563 2.015,-1.61 z m 16.363,-2.765 c 0,1.531 -0.109,2.453 -0.391,3.203 -0.656,1.656 -2.187,2.64 -4.078,2.64 -2.797,0 -4.609,-2.14 -4.609,-5.453 0,-3.297 1.75,-5.328 4.578,-5.328 2.297,0 3.891,1.297 4.297,3.485 h -1.609 c -0.454,-1.313 -1.344,-2.016 -2.641,-2.016 -1.016,0 -1.875,0.469 -2.422,1.312 -0.375,0.579 -0.516,1.157 -0.531,2.157 z m -7.359,1.297 c 0.125,1.859 1.265,3.078 2.875,3.078 1.578,0 2.781,-1.313 2.781,-2.953 0,-0.047 0,-0.079 -0.016,-0.125 z m 11.125,8.203 h -1.61 v -14 h 1.61 z m 11.199,-9.5 c 0,1.531 -0.11,2.453 -0.391,3.203 -0.656,1.656 -2.187,2.64 -4.078,2.64 -2.797,0 -4.609,-2.14 -4.609,-5.453 0,-3.297 1.75,-5.328 4.578,-5.328 2.297,0 3.89,1.297 4.297,3.485 h -1.61 c -0.453,-1.313 -1.343,-2.016 -2.64,-2.016 -1.016,0 -1.875,0.469 -2.422,1.312 -0.375,0.579 -0.516,1.157 -0.531,2.157 z m -7.36,1.297 c 0.126,1.859 1.266,3.078 2.876,3.078 1.578,0 2.781,-1.313 2.781,-2.953 0,-0.047 0,-0.079 -0.016,-0.125 z m 17.25,0.89 c -0.078,0.969 -0.296,1.61 -0.671,2.172 -0.688,0.938 -1.907,1.484 -3.313,1.484 -2.703,0 -4.469,-2.14 -4.469,-5.484 0,-3.25 1.735,-5.297 4.453,-5.297 2.407,0 3.922,1.438 4.11,3.891 h -1.61 c -0.265,-1.61 -1.093,-2.422 -2.453,-2.422 -1.765,0 -2.828,1.453 -2.828,3.828 0,2.516 1.031,4.016 2.781,4.016 1.344,0 2.188,-0.797 2.391,-2.188 z m 5.426,3.375 h -1.656 v 2.766 h -1.594 v -2.766 h -1.359 v -1.312 h 1.359 v -7.594 c 0,-1.016 0.703,-1.594 1.953,-1.594 0.375,0 0.766,0.031 1.297,0.125 v 1.344 c -0.203,-0.047 -0.453,-0.078 -0.765,-0.078 -0.688,0 -0.891,0.203 -0.891,0.906 v 6.891 h 1.656 z m 3.324,0 h -1.593 v -10.062 h 1.593 z m 0,3.938 h -1.609 v -2.016 h 1.609 z m 6.622,-3.657 c -2.813,0 -4.532,-2.015 -4.532,-5.39 0,-3.375 1.688,-5.391 4.563,-5.391 2.812,0 4.547,2.016 4.547,5.313 0,3.484 -1.672,5.468 -4.578,5.468 z m 0.031,-1.468 c 1.797,0 2.875,-1.485 2.875,-3.985 0,-2.359 -1.11,-3.859 -2.875,-3.859 -1.797,0 -2.891,1.484 -2.891,3.922 0,2.422 1.094,3.922 2.891,3.922 z m 6.781,1.187 v -10.062 h 1.609 v 5.547 c 0,2.062 1.079,3.406 2.735,3.406 1.265,0 2.078,-0.766 2.078,-1.985 v -6.968 h 1.594 v 7.609 c 0,1.672 -1.25,2.734 -3.188,2.734 -1.5,0 -2.469,-0.562 -3.344,-1.968 v 1.687 z"
                 style="fill:#000000;fill-opacity:1;fill-rule:nonzero;stroke:none"
                 id="path1095" />
              <g
                 transform="matrix(1,0,0,-1,0,231.88982)"
                 id="g1099">
                <path
                   d="m 169.121,96.207 c 7.004,-26.297 45.766,-31.355 64.445,-6.519"
                   style="fill:none;stroke:#000000;stroke-width:2.4;stroke-linecap:round;stroke-linejoin:miter;stroke-miterlimit:4;stroke-dasharray:none;stroke-opacity:1"
                   id="path1097" />
              </g>
              <g
                 transform="matrix(0.752243,-1,-1,-0.752243,0,231.88982)"
                 id="g1103">
                <path
                   d="m 173.907,-106.074 -6.636,3.836 -10e-4,-7.673 z"
                   style="fill:#000000;fill-opacity:1;fill-rule:evenodd;stroke:#000000;stroke-width:0.958967;stroke-linecap:butt;stroke-linejoin:miter;stroke-miterlimit:4;stroke-dasharray:none;stroke-opacity:1"
                   id="path1101" />
              </g>
              <g
                 transform="matrix(1,0,0,-1,0,231.88982)"
                 id="g1107">
                <path
                   d="m 33.375,57.281 c -0.73,30.801 1.359,51.75 24.559,53.672"
                   style="fill:none;stroke:#000000;stroke-width:2.4;stroke-linecap:round;stroke-linejoin:miter;stroke-miterlimit:4;stroke-dasharray:none;stroke-opacity:1"
                   id="path1105" />
              </g>
              <g
                 transform="matrix(1,-0.082805,-0.082805,-1,0,231.88982)"
                 id="g1111">
                <path
                   d="m 72.184,105.433 -8.276,4.783 v -9.567 z"
                   style="fill:#000000;fill-opacity:1;fill-rule:evenodd;stroke:#000000;stroke-width:1.19591;stroke-linecap:butt;stroke-linejoin:miter;stroke-miterlimit:4;stroke-dasharray:none;stroke-opacity:1"
                   id="path1109" />
              </g>
              <path
                 d="m 15.754,190.503 c -0.016,1.969 -1.313,3.078 -3.641,3.078 -2.343,0 -3.859,-1.203 -3.859,-3.062 0,-1.578 0.797,-2.328 3.187,-2.907 l 1.5,-0.359 c 1.11,-0.266 1.547,-0.672 1.547,-1.406 0,-0.938 -0.937,-1.578 -2.343,-1.578 -0.86,0 -1.594,0.25 -2,0.672 -0.25,0.296 -0.36,0.578 -0.454,1.296 H 8.004 c 0.078,-2.328 1.375,-3.437 4.016,-3.437 2.531,0 4.14,1.25 4.14,3.187 0,1.5 -0.844,2.313 -2.844,2.797 l -1.531,0.375 c -1.312,0.297 -1.859,0.719 -1.859,1.438 0,0.922 0.828,1.515 2.125,1.515 1.281,0 1.984,-0.562 2.015,-1.609 z m 6.066,2.797 h -1.656 v 2.766 H 18.57 V 193.3 h -1.359 v -1.313 h 1.359 v -7.593 c 0,-1.016 0.703,-1.594 1.953,-1.594 0.375,0 0.766,0.031 1.297,0.125 v 1.344 c -0.203,-0.047 -0.453,-0.078 -0.765,-0.078 -0.688,0 -0.891,0.203 -0.891,0.906 v 6.89 h 1.656 z m 10.735,-9.125 c -0.188,-0.031 -0.25,-0.031 -0.36,-0.031 -0.547,0 -0.859,0.281 -0.859,0.781 v 5.922 c 0,1.781 -1.297,2.734 -3.781,2.734 -1.453,0 -2.672,-0.422 -3.344,-1.172 -0.453,-0.515 -0.656,-1.093 -0.688,-2.078 h 1.61 c 0.14,1.219 0.859,1.781 2.359,1.781 1.438,0 2.25,-0.546 2.25,-1.5 v -0.421 c 0,-0.672 -0.406,-0.969 -1.672,-1.11 -2.265,-0.297 -2.609,-0.375 -3.218,-0.625 -1.172,-0.469 -1.766,-1.375 -1.766,-2.687 0,-1.828 1.266,-2.969 3.297,-2.969 1.265,0 2.281,0.437 3.422,1.469 0.109,-1.016 0.609,-1.469 1.64,-1.469 0.328,0 0.578,0.031 1.11,0.172 z m -2.813,2.234 c 0,-0.547 -0.156,-0.875 -0.625,-1.312 -0.656,-0.594 -1.453,-0.906 -2.39,-0.906 -1.25,0 -1.969,0.609 -1.969,1.625 0,1.046 0.703,1.593 2.406,1.843 1.703,0.219 2.047,0.297 2.578,0.547 z m 4.547,6.891 v -10.063 h 1.609 v 5.219 c 0,1.438 0.36,2.391 1.141,2.938 0.5,0.375 0.969,0.484 2.094,0.5 v 1.64 c -0.281,0.032 -0.406,0.047 -0.625,0.047 -1.031,0 -1.828,-0.609 -2.75,-2.109 v 1.828 z m 9.957,0 H 42.59 v 2.766 H 40.996 V 193.3 h -1.359 v -1.313 h 1.359 v -7.593 c 0,-1.016 0.703,-1.594 1.953,-1.594 0.375,0 0.766,0.031 1.297,0.125 v 1.344 c -0.203,-0.047 -0.453,-0.078 -0.766,-0.078 -0.687,0 -0.89,0.203 -0.89,0.906 v 6.89 h 1.656 z m 8.856,-2.797 c -0.016,1.969 -1.313,3.078 -3.641,3.078 -2.344,0 -3.859,-1.203 -3.859,-3.062 0,-1.578 0.796,-2.328 3.187,-2.907 l 1.5,-0.359 c 1.109,-0.266 1.547,-0.672 1.547,-1.406 0,-0.938 -0.938,-1.578 -2.344,-1.578 -0.859,0 -1.594,0.25 -2,0.672 -0.25,0.296 -0.359,0.578 -0.453,1.296 h -1.687 c 0.078,-2.328 1.375,-3.437 4.015,-3.437 2.531,0 4.141,1.25 4.141,3.187 0,1.5 -0.844,2.313 -2.844,2.797 l -1.531,0.375 c -1.313,0.297 -1.86,0.719 -1.86,1.438 0,0.922 0.829,1.515 2.125,1.515 1.282,0 1.985,-0.562 2.016,-1.609 z m 15.769,-7.266 V 193.3 h -1.594 v -5.703 c 0,-2.063 -1.062,-3.406 -2.734,-3.406 -1.266,0 -2.078,0.781 -2.078,1.984 v 7.125 h -1.594 v -7.766 c 0,-1.656 1.25,-2.734 3.203,-2.734 1.485,0 2.422,0.516 3.36,1.844 v -1.407 z m 2.469,-4.187 h 1.625 v 5.25 c 0.844,-1.047 1.781,-1.5 3.078,-1.5 2.594,0 4.312,2.094 4.312,5.297 0,3.375 -1.656,5.484 -4.328,5.484 -1.359,0 -2.453,-0.609 -3.203,-1.797 V 193.3 H 71.34 Z m 4.422,13.047 c 1.765,0 2.922,-1.563 2.922,-3.969 0,-2.281 -1.172,-3.828 -2.922,-3.828 -1.688,0 -2.797,1.531 -2.797,3.891 0,2.359 1.109,3.906 2.797,3.906 z"
                 style="fill:#000000;fill-opacity:1;fill-rule:nonzero;stroke:none"
                 id="path1113" />
              <path
                 d="m 274.379,50.187 h -1.594 v -5.203 c -0.672,1.015 -1.734,1.546 -3.094,1.546 -2.609,0 -4.312,-2.093 -4.312,-5.296 0,-3.391 1.672,-5.485 4.375,-5.485 1.391,0 2.344,0.516 3.203,1.766 v -1.328 h 1.422 z m -4.406,-5.141 c 1.718,0 2.812,-1.547 2.812,-3.937 0,-2.329 -1.109,-3.86 -2.797,-3.86 -1.765,0 -2.937,1.547 -2.937,3.891 0,2.344 1.172,3.906 2.922,3.906 z m 8.468,1.203 h -1.593 V 36.187 h 1.593 z m 0,3.938 h -1.609 v -2.016 h 1.609 z m 9.805,-6.735 c -0.016,1.969 -1.312,3.078 -3.641,3.078 -2.343,0 -3.859,-1.203 -3.859,-3.062 0,-1.578 0.797,-2.328 3.188,-2.906 l 1.5,-0.36 c 1.109,-0.265 1.546,-0.672 1.546,-1.406 0,-0.937 -0.937,-1.578 -2.343,-1.578 -0.86,0 -1.594,0.25 -2,0.672 -0.25,0.297 -0.36,0.578 -0.453,1.297 h -1.688 c 0.078,-2.328 1.375,-3.438 4.016,-3.438 2.531,0 4.14,1.25 4.14,3.188 0,1.5 -0.843,2.312 -2.843,2.797 l -1.532,0.375 c -1.312,0.296 -1.859,0.718 -1.859,1.437 0,0.922 0.828,1.516 2.125,1.516 1.281,0 1.984,-0.563 2.016,-1.61 z m 10.242,-0.578 c -0.078,0.969 -0.297,1.61 -0.672,2.172 -0.687,0.938 -1.906,1.484 -3.312,1.484 -2.703,0 -4.469,-2.14 -4.469,-5.484 0,-3.25 1.735,-5.297 4.453,-5.297 2.407,0 3.922,1.438 4.11,3.891 h -1.61 c -0.265,-1.61 -1.093,-2.422 -2.453,-2.422 -1.765,0 -2.828,1.453 -2.828,3.828 0,2.516 1.031,4.016 2.781,4.016 1.344,0 2.188,-0.797 2.391,-2.188 z m 5.77,3.656 c -2.813,0 -4.531,-2.015 -4.531,-5.39 0,-3.375 1.687,-5.391 4.562,-5.391 2.813,0 4.547,2.016 4.547,5.313 0,3.484 -1.672,5.468 -4.578,5.468 z m 0.031,-1.468 c 1.797,0 2.875,-1.485 2.875,-3.985 0,-2.359 -1.109,-3.859 -2.875,-3.859 -1.797,0 -2.891,1.484 -2.891,3.922 0,2.422 1.094,3.922 2.891,3.922 z m 10.906,-8.875 3.86,10.062 h -1.797 l -2.844,-8.156 -2.687,8.156 h -1.813 l 3.531,-10.062 z m 13.977,4.5 c 0,1.531 -0.11,2.453 -0.391,3.203 -0.656,1.656 -2.187,2.64 -4.078,2.64 -2.797,0 -4.609,-2.14 -4.609,-5.453 0,-3.297 1.75,-5.328 4.578,-5.328 2.297,0 3.89,1.297 4.297,3.485 h -1.61 c -0.453,-1.313 -1.343,-2.016 -2.64,-2.016 -1.016,0 -1.875,0.469 -2.422,1.312 -0.375,0.579 -0.516,1.157 -0.531,2.157 z m -7.36,1.297 c 0.126,1.859 1.266,3.078 2.876,3.078 1.578,0 2.781,-1.313 2.781,-2.953 0,-0.047 0,-0.079 -0.016,-0.125 z m 9.532,4.265 V 36.187 h 1.609 v 5.218 c 0,1.438 0.359,2.391 1.141,2.938 0.5,0.375 0.968,0.484 2.094,0.5 v 1.641 c -0.282,0.031 -0.407,0.046 -0.626,0.046 -1.031,0 -1.828,-0.609 -2.75,-2.109 v 1.828 z m 13.492,-2.797 c -0.016,1.969 -1.313,3.078 -3.641,3.078 -2.343,0 -3.859,-1.203 -3.859,-3.062 0,-1.578 0.797,-2.328 3.187,-2.906 l 1.5,-0.36 c 1.11,-0.265 1.547,-0.672 1.547,-1.406 0,-0.937 -0.937,-1.578 -2.343,-1.578 -0.86,0 -1.594,0.25 -2,0.672 -0.25,0.297 -0.36,0.578 -0.454,1.297 h -1.687 c 0.078,-2.328 1.375,-3.438 4.016,-3.438 2.531,0 4.14,1.25 4.14,3.188 0,1.5 -0.844,2.312 -2.844,2.797 l -1.531,0.375 c -1.312,0.296 -1.859,0.718 -1.859,1.437 0,0.922 0.828,1.516 2.125,1.516 1.281,0 1.984,-0.563 2.015,-1.61 z m 14.922,0 c -0.016,1.969 -1.313,3.078 -3.641,3.078 -2.344,0 -3.859,-1.203 -3.859,-3.062 0,-1.578 0.797,-2.328 3.187,-2.906 l 1.5,-0.36 c 1.11,-0.265 1.547,-0.672 1.547,-1.406 0,-0.937 -0.937,-1.578 -2.344,-1.578 -0.859,0 -1.593,0.25 -2,0.672 -0.25,0.297 -0.359,0.578 -0.453,1.297 h -1.687 c 0.078,-2.328 1.375,-3.438 4.015,-3.438 2.532,0 4.141,1.25 4.141,3.188 0,1.5 -0.844,2.312 -2.844,2.797 l -1.531,0.375 c -1.312,0.296 -1.859,0.718 -1.859,1.437 0,0.922 0.828,1.516 2.125,1.516 1.281,0 1.984,-0.563 2.015,-1.61 z m 11.039,-2.765 c 0,1.531 -0.109,2.453 -0.391,3.203 -0.656,1.656 -2.187,2.64 -4.078,2.64 -2.797,0 -4.609,-2.14 -4.609,-5.453 0,-3.297 1.75,-5.328 4.578,-5.328 2.297,0 3.891,1.297 4.297,3.485 h -1.61 c -0.453,-1.313 -1.343,-2.016 -2.64,-2.016 -1.016,0 -1.875,0.469 -2.422,1.312 -0.375,0.579 -0.516,1.157 -0.531,2.157 z m -7.359,1.297 c 0.124,1.859 1.265,3.078 2.874,3.078 1.579,0 2.782,-1.313 2.782,-2.953 0,-0.047 0,-0.079 -0.016,-0.125 z m 9.531,4.265 V 36.187 h 1.609 v 5.218 c 0,1.438 0.36,2.391 1.141,2.938 0.5,0.375 0.969,0.484 2.093,0.5 v 1.641 c -0.281,0.031 -0.406,0.046 -0.624,0.046 -1.032,0 -1.829,-0.609 -2.75,-2.109 v 1.828 z m 10.554,-10.062 3.86,10.062 h -1.797 l -2.844,-8.156 -2.687,8.156 h -1.813 l 3.531,-10.062 z m 13.973,4.5 c 0,1.531 -0.109,2.453 -0.391,3.203 -0.656,1.656 -2.187,2.64 -4.078,2.64 -2.797,0 -4.609,-2.14 -4.609,-5.453 0,-3.297 1.75,-5.328 4.578,-5.328 2.297,0 3.891,1.297 4.297,3.485 h -1.609 c -0.454,-1.313 -1.344,-2.016 -2.641,-2.016 -1.016,0 -1.875,0.469 -2.422,1.312 -0.375,0.579 -0.516,1.157 -0.531,2.157 z m -7.359,1.297 c 0.125,1.859 1.265,3.078 2.875,3.078 1.578,0 2.781,-1.313 2.781,-2.953 0,-0.047 0,-0.079 -0.016,-0.125 z m 9.531,4.265 V 36.187 h 1.609 v 5.218 c 0,1.438 0.36,2.391 1.141,2.938 0.5,0.375 0.969,0.484 2.094,0.5 v 1.641 c -0.282,0.031 -0.407,0.046 -0.625,0.046 -1.032,0 -1.828,-0.609 -2.75,-2.109 v 1.828 z"
                 style="fill:#000000;fill-opacity:1;fill-rule:nonzero;stroke:none"
                 id="path1115" />
              <path
                 d="m 277.113,12.187 2.953,10.062 h -1.796 l -2,-7.828 -1.985,7.828 h -1.953 l -1.922,-7.828 -2.062,7.828 h -1.766 l 2.922,-10.062 h 1.812 l 1.938,7.89 2.031,-7.89 z m 6.11,10.062 h -1.594 V 12.187 h 1.594 z m 0,3.938 h -1.61 v -2.016 h 1.61 z m 6.273,-3.938 h -1.656 v 2.766 h -1.594 v -2.766 h -1.359 v -1.312 h 1.359 v -7.594 c 0,-1.016 0.703,-1.594 1.953,-1.594 0.375,0 0.766,0.031 1.297,0.125 v 1.344 c -0.203,-0.047 -0.453,-0.078 -0.766,-0.078 -0.687,0 -0.89,0.203 -0.89,0.906 v 6.891 h 1.656 z m 1.793,3.938 v -14 h 1.594 v 5.547 c 0,2.062 1.078,3.406 2.734,3.406 0.516,0 1.031,-0.172 1.422,-0.469 0.453,-0.328 0.641,-0.797 0.641,-1.516 v -6.968 h 1.593 v 7.609 c 0,1.688 -1.203,2.734 -3.156,2.734 -1.422,0 -2.297,-0.437 -3.234,-1.656 v 5.313 z m 16.016,0 v -14 h 1.593 v 5.547 c 0,2.062 1.079,3.406 2.735,3.406 0.515,0 1.031,-0.172 1.422,-0.469 0.453,-0.328 0.64,-0.797 0.64,-1.516 v -6.968 h 1.594 v 7.609 c 0,1.688 -1.203,2.734 -3.156,2.734 -1.422,0 -2.297,-0.437 -3.235,-1.656 v 5.313 z m 12.218,-3.938 H 317.93 V 12.187 h 1.593 z m 0,3.938 h -1.609 v -2.016 h 1.609 z m 9.305,-3.938 v -1.453 c -0.797,1.188 -1.781,1.734 -3.062,1.734 -2.563,0 -4.282,-2.218 -4.282,-5.484 0,-1.656 0.438,-3 1.266,-3.953 0.75,-0.844 1.828,-1.344 2.875,-1.344 1.266,0 2.156,0.531 3.063,1.797 V 13.03 c 0,-1.359 -0.188,-2.187 -0.579,-2.75 -0.421,-0.593 -1.25,-0.937 -2.234,-0.937 -0.734,0 -1.375,0.187 -1.828,0.547 -0.359,0.281 -0.516,0.547 -0.609,1.14 h -1.626 c 0.172,-1.89 1.641,-3.031 4,-3.031 1.5,0 2.797,0.485 3.438,1.281 0.781,0.922 1.062,2.204 1.062,4.563 v 8.406 z m -2.89,-1.187 c 1.718,0 2.75,-1.469 2.75,-3.985 0,-2.39 -1.047,-3.859 -2.735,-3.859 -1.75,0 -2.797,1.484 -2.797,3.922 0,2.422 1.063,3.922 2.782,3.922 z m 7.015,5.125 v -14 h 1.594 v 5.547 c 0,2.062 1.078,3.406 2.734,3.406 0.516,0 1.031,-0.172 1.422,-0.469 0.453,-0.328 0.641,-0.797 0.641,-1.516 v -6.968 h 1.594 v 7.609 c 0,1.688 -1.204,2.734 -3.157,2.734 -1.422,0 -2.297,-0.437 -3.234,-1.656 v 5.313 z m 19.188,-9.5 c 0,1.531 -0.11,2.453 -0.391,3.203 -0.656,1.656 -2.188,2.64 -4.078,2.64 -2.797,0 -4.61,-2.14 -4.61,-5.453 0,-3.297 1.75,-5.328 4.579,-5.328 2.297,0 3.89,1.297 4.297,3.485 h -1.61 c -0.453,-1.313 -1.344,-2.016 -2.64,-2.016 -1.016,0 -1.876,0.469 -2.422,1.312 -0.375,0.579 -0.516,1.157 -0.532,2.157 z m -7.36,1.297 c 0.125,1.859 1.266,3.078 2.875,3.078 1.578,0 2.782,-1.313 2.782,-2.953 0,-0.047 0,-0.079 -0.016,-0.125 z m 9.531,4.265 V 12.187 h 1.61 v 5.218 c 0,1.438 0.359,2.391 1.14,2.938 0.5,0.375 0.969,0.484 2.094,0.5 v 1.641 c -0.281,0.031 -0.406,0.046 -0.625,0.046 -1.031,0 -1.828,-0.609 -2.75,-2.109 v 1.828 z m 15.286,0 h -1.657 v 2.766 h -1.593 v -2.766 h -1.36 v -1.312 h 1.36 v -7.594 c 0,-1.016 0.703,-1.594 1.953,-1.594 0.375,0 0.765,0.031 1.297,0.125 v 1.344 c -0.203,-0.047 -0.453,-0.078 -0.766,-0.078 -0.687,0 -0.891,0.203 -0.891,0.906 v 6.891 h 1.657 z m 10.293,-5.562 c 0,1.531 -0.11,2.453 -0.391,3.203 -0.656,1.656 -2.188,2.64 -4.078,2.64 -2.797,0 -4.61,-2.14 -4.61,-5.453 0,-3.297 1.75,-5.328 4.579,-5.328 2.297,0 3.89,1.297 4.297,3.485 h -1.61 c -0.453,-1.313 -1.344,-2.016 -2.64,-2.016 -1.016,0 -1.876,0.469 -2.422,1.312 -0.375,0.579 -0.516,1.157 -0.532,2.157 z m -7.36,1.297 c 0.125,1.859 1.266,3.078 2.875,3.078 1.578,0 2.782,-1.313 2.782,-2.953 0,-0.047 0,-0.079 -0.016,-0.125 z m 9.531,4.265 V 12.187 h 1.61 v 5.218 c 0,1.438 0.359,2.391 1.14,2.938 0.5,0.375 0.969,0.484 2.094,0.5 v 1.641 c -0.281,0.031 -0.406,0.046 -0.625,0.046 -1.031,0 -1.828,-0.609 -2.75,-2.109 v 1.828 z m 6.43,0 V 12.187 h 1.61 v 6.312 c 0,1.469 1.062,2.641 2.359,2.641 1.203,0 1.875,-0.735 1.875,-2.016 v -6.937 h 1.609 v 6.312 c 0,1.469 1.047,2.641 2.36,2.641 1.172,0 1.859,-0.75 1.859,-2.016 v -6.937 h 1.625 v 7.547 c 0,1.812 -1.047,2.796 -2.922,2.796 -1.344,0 -2.156,-0.39 -3.094,-1.531 -0.593,1.078 -1.406,1.531 -2.703,1.531 -1.343,0 -2.234,-0.5 -3.093,-1.703 v 1.422 z"
                 style="fill:#000000;fill-opacity:1;fill-rule:nonzero;stroke:none"
                 id="path1117" />
              <g
                 transform="matrix(1,0,0,-1,0,231.88982)"
                 id="g1121">
                <path
                   d="M 245.164,131.68 C 142.23,192.172 128.348,148.477 124.336,137.828"
                   style="fill:none;stroke:#000000;stroke-width:2.4;stroke-linecap:round;stroke-linejoin:miter;stroke-miterlimit:4;stroke-dasharray:none;stroke-opacity:1"
                   id="path1119" />
              </g>
              <g
                 transform="matrix(-0.376856,1,1,0.376856,0,231.88982)"
                 id="g1125">
                <path
                   d="m -156.533,63.389 -7.771,4.493 -0.001,-8.985 z"
                   style="fill:#000000;fill-opacity:1;fill-rule:evenodd;stroke:#000000;stroke-width:1.12291;stroke-linecap:butt;stroke-linejoin:miter;stroke-miterlimit:4;stroke-dasharray:none;stroke-opacity:1"
                   id="path1123" />
              </g>
              <path
                 d="M 62.914,58.866 H 61.32 v -5.203 c -0.672,1.016 -1.734,1.547 -3.093,1.547 -2.61,0 -4.313,-2.094 -4.313,-5.297 0,-3.39 1.672,-5.484 4.375,-5.484 1.391,0 2.344,0.516 3.203,1.766 v -1.329 h 1.422 z m -4.406,-5.14 c 1.719,0 2.812,-1.547 2.812,-3.938 0,-2.328 -1.109,-3.859 -2.797,-3.859 -1.765,0 -2.937,1.547 -2.937,3.891 0,2.343 1.172,3.906 2.922,3.906 z m 8.469,1.203 H 65.383 V 44.866 h 1.594 z m 0,3.937 h -1.61 v -2.015 h 1.61 z m 9.804,-6.734 c -0.015,1.969 -1.312,3.078 -3.64,3.078 -2.344,0 -3.86,-1.203 -3.86,-3.062 0,-1.578 0.797,-2.328 3.188,-2.907 l 1.5,-0.359 c 1.109,-0.266 1.547,-0.672 1.547,-1.406 0,-0.938 -0.938,-1.578 -2.344,-1.578 -0.86,0 -1.594,0.25 -2,0.672 -0.25,0.296 -0.36,0.578 -0.453,1.296 h -1.688 c 0.078,-2.328 1.375,-3.437 4.016,-3.437 2.531,0 4.141,1.25 4.141,3.187 0,1.5 -0.844,2.313 -2.844,2.797 l -1.532,0.375 c -1.312,0.297 -1.859,0.719 -1.859,1.438 0,0.922 0.828,1.515 2.125,1.515 1.281,0 1.984,-0.562 2.016,-1.609 z m 10.242,-0.578 c -0.078,0.969 -0.296,1.609 -0.671,2.172 -0.688,0.937 -1.907,1.484 -3.313,1.484 -2.703,0 -4.469,-2.14 -4.469,-5.484 0,-3.25 1.735,-5.297 4.453,-5.297 2.407,0 3.922,1.437 4.11,3.891 h -1.61 c -0.265,-1.61 -1.093,-2.422 -2.453,-2.422 -1.765,0 -2.828,1.453 -2.828,3.828 0,2.515 1.031,4.015 2.781,4.015 1.344,0 2.188,-0.796 2.391,-2.187 z m 5.774,3.656 c -2.813,0 -4.531,-2.015 -4.531,-5.39 0,-3.375 1.687,-5.391 4.562,-5.391 2.813,0 4.547,2.016 4.547,5.312 0,3.485 -1.672,5.469 -4.578,5.469 z m 0.031,-1.469 c 1.797,0 2.875,-1.484 2.875,-3.984 0,-2.359 -1.109,-3.859 -2.875,-3.859 -1.797,0 -2.89,1.484 -2.89,3.922 0,2.421 1.093,3.921 2.89,3.921 z m 10.906,-8.875 3.86,10.063 h -1.797 l -2.844,-8.156 -2.687,8.156 h -1.813 l 3.531,-10.063 z m 13.973,4.5 c 0,1.532 -0.109,2.454 -0.391,3.204 -0.656,1.656 -2.187,2.64 -4.078,2.64 -2.797,0 -4.609,-2.14 -4.609,-5.453 0,-3.297 1.75,-5.328 4.578,-5.328 2.297,0 3.891,1.297 4.297,3.484 h -1.609 c -0.454,-1.312 -1.344,-2.015 -2.641,-2.015 -1.016,0 -1.875,0.468 -2.422,1.312 -0.375,0.578 -0.516,1.156 -0.531,2.156 z m -7.359,1.297 c 0.125,1.86 1.265,3.078 2.875,3.078 1.578,0 2.781,-1.312 2.781,-2.953 0,-0.047 0,-0.078 -0.016,-0.125 z m 9.531,4.266 V 44.866 h 1.609 v 5.219 c 0,1.438 0.36,2.391 1.141,2.938 0.5,0.375 0.969,0.484 2.094,0.5 v 1.64 c -0.282,0.032 -0.407,0.047 -0.625,0.047 -1.032,0 -1.828,-0.609 -2.75,-2.109 v 1.828 z m 13.492,-2.797 c -0.016,1.969 -1.312,3.078 -3.641,3.078 -2.343,0 -3.859,-1.203 -3.859,-3.062 0,-1.578 0.797,-2.328 3.188,-2.907 l 1.5,-0.359 c 1.109,-0.266 1.546,-0.672 1.546,-1.406 0,-0.938 -0.937,-1.578 -2.343,-1.578 -0.86,0 -1.594,0.25 -2,0.672 -0.25,0.296 -0.36,0.578 -0.453,1.296 h -1.688 c 0.078,-2.328 1.375,-3.437 4.016,-3.437 2.531,0 4.14,1.25 4.14,3.187 0,1.5 -0.843,2.313 -2.843,2.797 l -1.532,0.375 c -1.312,0.297 -1.859,0.719 -1.859,1.438 0,0.922 0.828,1.515 2.125,1.515 1.281,0 1.984,-0.562 2.016,-1.609 z m 15.567,-0.578 c -0.079,0.969 -0.297,1.609 -0.672,2.172 -0.688,0.937 -1.907,1.484 -3.313,1.484 -2.703,0 -4.469,-2.14 -4.469,-5.484 0,-3.25 1.735,-5.297 4.454,-5.297 2.406,0 3.921,1.437 4.109,3.891 h -1.609 c -0.266,-1.61 -1.094,-2.422 -2.454,-2.422 -1.765,0 -2.828,1.453 -2.828,3.828 0,2.515 1.032,4.015 2.782,4.015 1.343,0 2.187,-0.796 2.39,-2.187 z m 9.8,-6.688 v 10.063 h -1.593 v -5.703 c 0,-2.063 -1.063,-3.406 -2.735,-3.406 -1.265,0 -2.078,0.781 -2.078,1.984 v 7.125 h -1.594 v -7.766 c 0,-1.656 1.25,-2.734 3.203,-2.734 1.485,0 2.422,0.516 3.36,1.844 v -1.407 z m 2.766,10.063 V 44.866 h 1.609 v 5.219 c 0,1.438 0.36,2.391 1.141,2.938 0.5,0.375 0.969,0.484 2.094,0.5 v 1.64 c -0.282,0.032 -0.407,0.047 -0.625,0.047 -1.032,0 -1.828,-0.609 -2.75,-2.109 v 1.828 z m 6.414,0 V 44.866 h 1.609 v 5.219 c 0,1.438 0.36,2.391 1.141,2.938 0.5,0.375 0.969,0.484 2.094,0.5 v 1.64 c -0.282,0.032 -0.407,0.047 -0.625,0.047 -1.032,0 -1.828,-0.609 -2.75,-2.109 v 1.828 z m 14.926,-5.563 c 0,1.532 -0.11,2.454 -0.391,3.204 -0.656,1.656 -2.187,2.64 -4.078,2.64 -2.797,0 -4.609,-2.14 -4.609,-5.453 0,-3.297 1.75,-5.328 4.578,-5.328 2.297,0 3.89,1.297 4.297,3.484 h -1.61 c -0.453,-1.312 -1.343,-2.015 -2.64,-2.015 -1.016,0 -1.875,0.468 -2.422,1.312 -0.375,0.578 -0.516,1.156 -0.531,2.156 z m -7.36,1.297 c 0.125,1.86 1.266,3.078 2.875,3.078 1.579,0 2.782,-1.312 2.782,-2.953 0,-0.047 0,-0.078 -0.016,-0.125 z m 9.547,4.266 V 44.866 h 1.61 v 5.547 c 0,2.063 1.078,3.407 2.734,3.407 1.266,0 2.078,-0.766 2.078,-1.985 v -6.969 h 1.594 v 7.61 c 0,1.672 -1.25,2.734 -3.188,2.734 -1.5,0 -2.468,-0.562 -3.343,-1.969 v 1.688 z m 14.219,0 h -1.656 v 2.766 H 196 v -2.766 h -1.359 V 53.616 H 196 v -7.593 c 0,-1.016 0.703,-1.594 1.953,-1.594 0.375,0 0.766,0.031 1.297,0.125 v 1.344 c -0.203,-0.047 -0.453,-0.078 -0.766,-0.078 -0.687,0 -0.89,0.203 -0.89,0.906 v 6.89 h 1.656 z"
                 style="fill:#000000;fill-opacity:1;fill-rule:nonzero;stroke:none"
                 id="path1127" />
              <path
                 d="M 49.379,34.866 H 47.77 v -14 h 1.609 z m 11.199,-9.5 c 0,1.532 -0.109,2.454 -0.39,3.204 -0.657,1.656 -2.188,2.64 -4.079,2.64 -2.797,0 -4.609,-2.14 -4.609,-5.453 0,-3.297 1.75,-5.328 4.578,-5.328 2.297,0 3.891,1.297 4.297,3.484 h -1.609 c -0.454,-1.312 -1.344,-2.015 -2.641,-2.015 -1.016,0 -1.875,0.468 -2.422,1.312 -0.375,0.578 -0.515,1.156 -0.531,2.156 z m -7.359,1.297 c 0.125,1.86 1.265,3.078 2.875,3.078 1.578,0 2.781,-1.312 2.781,-2.953 0,-0.047 0,-0.078 -0.016,-0.125 z m 18.484,-4.859 c -0.187,-0.031 -0.25,-0.031 -0.359,-0.031 -0.547,0 -0.86,0.281 -0.86,0.781 v 5.922 c 0,1.781 -1.296,2.734 -3.781,2.734 -1.453,0 -2.672,-0.422 -3.344,-1.172 -0.453,-0.515 -0.656,-1.093 -0.687,-2.078 h 1.609 c 0.141,1.219 0.86,1.781 2.36,1.781 1.437,0 2.25,-0.546 2.25,-1.5 V 27.82 c 0,-0.672 -0.407,-0.969 -1.672,-1.11 -2.266,-0.297 -2.61,-0.375 -3.219,-0.625 -1.172,-0.469 -1.766,-1.375 -1.766,-2.687 0,-1.828 1.266,-2.969 3.297,-2.969 1.266,0 2.281,0.437 3.422,1.469 0.109,-1.016 0.609,-1.469 1.641,-1.469 0.328,0 0.578,0.031 1.109,0.172 z m -2.812,2.234 c 0,-0.547 -0.157,-0.875 -0.625,-1.312 -0.657,-0.594 -1.454,-0.906 -2.391,-0.906 -1.25,0 -1.969,0.609 -1.969,1.625 0,1.046 0.703,1.593 2.406,1.843 1.704,0.219 2.047,0.297 2.579,0.547 z m 12.718,10.828 h -1.593 v -5.203 c -0.672,1.016 -1.735,1.547 -3.094,1.547 -2.61,0 -4.313,-2.094 -4.313,-5.297 0,-3.39 1.672,-5.484 4.375,-5.484 1.391,0 2.344,0.516 3.204,1.766 v -1.329 h 1.421 z m -4.406,-5.14 c 1.719,0 2.813,-1.547 2.813,-3.938 0,-2.328 -1.11,-3.859 -2.797,-3.859 -1.766,0 -2.938,1.547 -2.938,3.891 0,2.343 1.172,3.906 2.922,3.906 z m 15.438,-4.36 c 0,1.532 -0.11,2.454 -0.391,3.204 -0.656,1.656 -2.188,2.64 -4.078,2.64 -2.797,0 -4.61,-2.14 -4.61,-5.453 0,-3.297 1.75,-5.328 4.579,-5.328 2.297,0 3.89,1.297 4.297,3.484 h -1.61 c -0.453,-1.312 -1.344,-2.015 -2.64,-2.015 -1.016,0 -1.876,0.468 -2.422,1.312 -0.375,0.578 -0.516,1.156 -0.532,2.156 z m -7.36,1.297 c 0.125,1.86 1.266,3.078 2.875,3.078 1.578,0 2.782,-1.312 2.782,-2.953 0,-0.047 0,-0.078 -0.016,-0.125 z m 9.531,4.266 V 20.866 h 1.61 v 5.219 c 0,1.438 0.359,2.391 1.14,2.938 0.5,0.375 0.969,0.484 2.094,0.5 v 1.64 c -0.281,0.032 -0.406,0.047 -0.625,0.047 -1.031,0 -1.828,-0.609 -2.75,-2.109 v 1.828 z m 15.626,0.281 c -2.813,0 -4.532,-2.015 -4.532,-5.39 0,-3.375 1.688,-5.391 4.563,-5.391 2.812,0 4.547,2.016 4.547,5.312 0,3.485 -1.672,5.469 -4.578,5.469 z m 0.031,-1.469 c 1.797,0 2.875,-1.484 2.875,-3.984 0,-2.359 -1.11,-3.859 -2.875,-3.859 -1.797,0 -2.891,1.484 -2.891,3.922 0,2.421 1.094,3.921 2.891,3.921 z m 6.765,1.188 V 20.866 h 1.61 v 5.219 c 0,1.438 0.359,2.391 1.14,2.938 0.5,0.375 0.969,0.484 2.094,0.5 v 1.64 c -0.281,0.032 -0.406,0.047 -0.625,0.047 -1.031,0 -1.828,-0.609 -2.75,-2.109 v 1.828 z m 11.754,0 V 20.866 h 1.61 v 5.547 c 0,2.063 1.078,3.407 2.734,3.407 1.266,0 2.078,-0.766 2.078,-1.985 v -6.969 h 1.594 v 7.61 c 0,1.672 -1.25,2.734 -3.188,2.734 -1.5,0 -2.468,-0.562 -3.343,-1.969 v 1.688 z m 19.188,-5.563 c 0,1.532 -0.11,2.454 -0.391,3.204 -0.656,1.656 -2.187,2.64 -4.078,2.64 -2.797,0 -4.609,-2.14 -4.609,-5.453 0,-3.297 1.75,-5.328 4.578,-5.328 2.297,0 3.89,1.297 4.297,3.484 h -1.61 c -0.453,-1.312 -1.343,-2.015 -2.64,-2.015 -1.016,0 -1.875,0.468 -2.422,1.312 -0.375,0.578 -0.516,1.156 -0.531,2.156 z m -7.36,1.297 c 0.125,1.86 1.266,3.078 2.875,3.078 1.579,0 2.782,-1.312 2.782,-2.953 0,-0.047 0,-0.078 -0.016,-0.125 z m 18.844,-5.797 2.953,10.063 h -1.797 l -2,-7.828 -1.984,7.828 h -1.953 l -1.922,-7.828 -2.062,7.828 h -1.766 l 2.922,-10.063 h 1.812 l 1.938,7.891 2.031,-7.891 z m 13.434,10.063 h -1.656 v 2.766 h -1.594 v -2.766 h -1.36 v -1.313 h 1.36 v -7.593 c 0,-1.016 0.703,-1.594 1.953,-1.594 0.375,0 0.765,0.031 1.297,0.125 v 1.344 c -0.203,-0.047 -0.453,-0.078 -0.766,-0.078 -0.687,0 -0.89,0.203 -0.89,0.906 v 6.89 h 1.656 z m 10.297,-5.563 c 0,1.532 -0.11,2.454 -0.391,3.204 -0.656,1.656 -2.188,2.64 -4.078,2.64 -2.797,0 -4.61,-2.14 -4.61,-5.453 0,-3.297 1.75,-5.328 4.579,-5.328 2.297,0 3.89,1.297 4.297,3.484 h -1.61 c -0.453,-1.312 -1.344,-2.015 -2.64,-2.015 -1.016,0 -1.876,0.468 -2.422,1.312 -0.375,0.578 -0.516,1.156 -0.532,2.156 z m -7.36,1.297 c 0.125,1.86 1.266,3.078 2.875,3.078 1.578,0 2.782,-1.312 2.782,-2.953 0,-0.047 0,-0.078 -0.016,-0.125 z m 9.531,4.266 V 20.866 h 1.61 v 5.219 c 0,1.438 0.359,2.391 1.14,2.938 0.5,0.375 0.969,0.484 2.094,0.5 v 1.64 c -0.281,0.032 -0.406,0.047 -0.625,0.047 -1.031,0 -1.828,-0.609 -2.75,-2.109 v 1.828 z m 6.426,0 V 20.866 h 1.61 v 6.313 c 0,1.469 1.062,2.641 2.359,2.641 1.203,0 1.875,-0.735 1.875,-2.016 v -6.938 h 1.609 v 6.313 c 0,1.469 1.047,2.641 2.36,2.641 1.172,0 1.859,-0.75 1.859,-2.016 v -6.938 h 1.625 v 7.547 c 0,1.813 -1.047,2.797 -2.922,2.797 -1.343,0 -2.156,-0.39 -3.093,-1.531 -0.594,1.078 -1.407,1.531 -2.704,1.531 -1.343,0 -2.234,-0.5 -3.093,-1.703 v 1.422 z"
                 style="fill:#000000;fill-opacity:1;fill-rule:nonzero;stroke:none"
                 id="path1129" />
              <g
                 transform="matrix(1,0,0,-1,0,231.88982)"
                 id="g1133">
                <path
                   d="M 267.371,94.785 C 232.406,41.398 319.184,34.559 296.113,86.84"
                   style="fill:none;stroke:#000000;stroke-width:2.4;stroke-linecap:round;stroke-linejoin:miter;stroke-miterlimit:4;stroke-dasharray:none;stroke-opacity:1"
                   id="path1131" />
              </g>
              <g
                 transform="matrix(-0.441276,-1,-1,0.441276,0,231.88982)"
                 id="g1137">
                <path
                   d="m -31.617,-279.923 -7.597,4.391 -0.002,-8.784 z"
                   style="fill:#000000;fill-opacity:1;fill-rule:evenodd;stroke:#000000;stroke-width:1.09786;stroke-linecap:butt;stroke-linejoin:miter;stroke-miterlimit:4;stroke-dasharray:none;stroke-opacity:1"
                   id="path1135" />
              </g>
              <path
                 d="m 246.758,219.956 h -1.656 v 2.766 h -1.594 v -2.766 h -1.36 v -1.312 h 1.36 v -7.594 c 0,-1.016 0.703,-1.594 1.953,-1.594 0.375,0 0.766,0.031 1.297,0.125 v 1.344 c -0.203,-0.047 -0.453,-0.078 -0.766,-0.078 -0.687,0 -0.89,0.203 -0.89,0.906 v 6.891 h 1.656 z m 3.324,0 h -1.594 v -10.062 h 1.594 z m 0,3.938 h -1.609 v -2.016 h 1.609 z m 2.742,-3.938 v -10.062 h 1.61 v 6.312 c 0,1.469 1.062,2.641 2.359,2.641 1.203,0 1.875,-0.735 1.875,-2.016 v -6.937 h 1.609 v 6.312 c 0,1.469 1.047,2.641 2.36,2.641 1.172,0 1.859,-0.75 1.859,-2.016 v -6.937 h 1.625 v 7.547 c 0,1.812 -1.047,2.796 -2.922,2.796 -1.344,0 -2.156,-0.39 -3.094,-1.531 -0.593,1.078 -1.406,1.531 -2.703,1.531 -1.343,0 -2.234,-0.5 -3.093,-1.703 v 1.422 z m 24.512,-5.562 c 0,1.531 -0.109,2.453 -0.391,3.203 -0.656,1.656 -2.187,2.64 -4.078,2.64 -2.797,0 -4.609,-2.14 -4.609,-5.453 0,-3.297 1.75,-5.328 4.578,-5.328 2.297,0 3.891,1.297 4.297,3.485 h -1.61 c -0.453,-1.313 -1.343,-2.016 -2.64,-2.016 -1.016,0 -1.875,0.469 -2.422,1.312 -0.375,0.579 -0.516,1.157 -0.531,2.157 z m -7.359,1.297 c 0.125,1.859 1.265,3.078 2.875,3.078 1.578,0 2.781,-1.313 2.781,-2.953 0,-0.047 0,-0.079 -0.016,-0.125 z m 16.609,1.468 c -0.016,1.969 -1.313,3.078 -3.641,3.078 -2.343,0 -3.859,-1.203 -3.859,-3.062 0,-1.578 0.797,-2.328 3.187,-2.906 l 1.5,-0.36 c 1.11,-0.265 1.547,-0.672 1.547,-1.406 0,-0.937 -0.937,-1.578 -2.343,-1.578 -0.86,0 -1.594,0.25 -2,0.672 -0.25,0.297 -0.36,0.578 -0.454,1.297 h -1.687 c 0.078,-2.328 1.375,-3.438 4.016,-3.438 2.531,0 4.14,1.25 4.14,3.188 0,1.5 -0.844,2.312 -2.844,2.797 l -1.531,0.375 c -1.312,0.296 -1.859,0.718 -1.859,1.437 0,0.922 0.828,1.516 2.125,1.516 1.281,0 1.984,-0.563 2.015,-1.61 z m 11.738,3.078 c -2.812,0 -4.531,-2.015 -4.531,-5.39 0,-3.375 1.687,-5.391 4.562,-5.391 2.813,0 4.547,2.016 4.547,5.313 0,3.484 -1.672,5.468 -4.578,5.468 z m 0.031,-1.468 c 1.797,0 2.875,-1.485 2.875,-3.985 0,-2.359 -1.109,-3.859 -2.875,-3.859 -1.796,0 -2.89,1.484 -2.89,3.922 0,2.422 1.094,3.922 2.89,3.922 z m 14.688,-8.875 v 10.062 h -1.594 v -5.703 c 0,-2.062 -1.062,-3.406 -2.734,-3.406 -1.266,0 -2.078,0.781 -2.078,1.984 v 7.125 h -1.594 v -7.765 c 0,-1.657 1.25,-2.735 3.203,-2.735 1.484,0 2.422,0.516 3.359,1.844 v -1.406 z m 6.312,10.062 h -1.656 v 2.766 h -1.594 v -2.766 h -1.359 v -1.312 h 1.359 v -7.594 c 0,-1.016 0.704,-1.594 1.954,-1.594 0.375,0 0.765,0.031 1.296,0.125 v 1.344 c -0.203,-0.047 -0.453,-0.078 -0.765,-0.078 -0.688,0 -0.891,0.203 -0.891,0.906 v 6.891 h 1.656 z m 2.122,-8.062 v -2 h 1.156 v -0.344 c 0,-1.328 -0.25,-1.719 -1.156,-1.75 v -0.734 c 1.343,0 2.015,0.875 2.015,2.515 v 2.313 z"
                 style="fill:#000000;fill-opacity:1;fill-rule:nonzero;stroke:none"
                 id="path1139" />
              <path
                 d="m 231.449,195.956 v -10.062 h 1.61 v 5.547 c 0,2.062 1.078,3.406 2.734,3.406 1.266,0 2.078,-0.766 2.078,-1.985 v -6.968 h 1.594 v 7.609 c 0,1.672 -1.25,2.734 -3.188,2.734 -1.5,0 -2.468,-0.562 -3.343,-1.968 v 1.687 z m 19.188,-5.562 c 0,1.531 -0.11,2.453 -0.391,3.203 -0.656,1.656 -2.187,2.64 -4.078,2.64 -2.797,0 -4.609,-2.14 -4.609,-5.453 0,-3.297 1.75,-5.328 4.578,-5.328 2.297,0 3.89,1.297 4.297,3.485 h -1.61 c -0.453,-1.313 -1.344,-2.016 -2.64,-2.016 -1.016,0 -1.875,0.469 -2.422,1.312 -0.375,0.579 -0.516,1.157 -0.532,2.157 z m -7.36,1.297 c 0.125,1.859 1.266,3.078 2.875,3.078 1.578,0 2.782,-1.313 2.782,-2.953 0,-0.047 0,-0.079 -0.016,-0.125 z m 18.844,-5.797 2.953,10.062 h -1.797 l -2,-7.828 -1.984,7.828 h -1.953 l -1.922,-7.828 -2.063,7.828 h -1.765 l 2.922,-10.062 h 1.812 l 1.938,7.89 2.031,-7.89 z m 18.402,4.5 c 0,1.531 -0.109,2.453 -0.39,3.203 -0.656,1.656 -2.188,2.64 -4.078,2.64 -2.797,0 -4.61,-2.14 -4.61,-5.453 0,-3.297 1.75,-5.328 4.578,-5.328 2.297,0 3.891,1.297 4.297,3.485 h -1.609 c -0.453,-1.313 -1.344,-2.016 -2.641,-2.016 -1.015,0 -1.875,0.469 -2.422,1.312 -0.375,0.579 -0.515,1.157 -0.531,2.157 z m -7.359,1.297 c 0.125,1.859 1.266,3.078 2.875,3.078 1.578,0 2.781,-1.313 2.781,-2.953 0,-0.047 0,-0.079 -0.015,-0.125 z m 11.125,8.203 h -1.609 v -14 h 1.609 z m 11.199,-9.5 c 0,1.531 -0.109,2.453 -0.39,3.203 -0.657,1.656 -2.188,2.64 -4.078,2.64 -2.797,0 -4.61,-2.14 -4.61,-5.453 0,-3.297 1.75,-5.328 4.578,-5.328 2.297,0 3.891,1.297 4.297,3.485 h -1.609 c -0.453,-1.313 -1.344,-2.016 -2.641,-2.016 -1.015,0 -1.875,0.469 -2.422,1.312 -0.375,0.579 -0.515,1.157 -0.531,2.157 z m -7.359,1.297 c 0.125,1.859 1.266,3.078 2.875,3.078 1.578,0 2.781,-1.313 2.781,-2.953 0,-0.047 0,-0.079 -0.015,-0.125 z m 17.25,0.89 c -0.078,0.969 -0.297,1.61 -0.672,2.172 -0.687,0.938 -1.906,1.484 -3.312,1.484 -2.704,0 -4.469,-2.14 -4.469,-5.484 0,-3.25 1.734,-5.297 4.453,-5.297 2.406,0 3.922,1.438 4.109,3.891 h -1.609 c -0.266,-1.61 -1.094,-2.422 -2.453,-2.422 -1.766,0 -2.828,1.453 -2.828,3.828 0,2.516 1.031,4.016 2.781,4.016 1.344,0 2.187,-0.797 2.391,-2.188 z m 5.426,3.375 h -1.657 v 2.766 h -1.593 v -2.766 h -1.36 v -1.312 h 1.36 v -7.594 c 0,-1.016 0.703,-1.594 1.953,-1.594 0.375,0 0.765,0.031 1.297,0.125 v 1.344 c -0.203,-0.047 -0.453,-0.078 -0.766,-0.078 -0.687,0 -0.891,0.203 -0.891,0.906 v 6.891 h 1.657 z m 3.328,0 h -1.594 v -10.062 h 1.594 z m 0,3.938 h -1.61 v -2.016 h 1.61 z m 6.617,-3.657 c -2.812,0 -4.531,-2.015 -4.531,-5.39 0,-3.375 1.687,-5.391 4.562,-5.391 2.813,0 4.547,2.016 4.547,5.313 0,3.484 -1.672,5.468 -4.578,5.468 z m 0.031,-1.468 c 1.797,0 2.875,-1.485 2.875,-3.985 0,-2.359 -1.109,-3.859 -2.875,-3.859 -1.797,0 -2.89,1.484 -2.89,3.922 0,2.422 1.093,3.922 2.89,3.922 z m 6.781,1.187 v -10.062 h 1.61 v 5.547 c 0,2.062 1.078,3.406 2.734,3.406 1.266,0 2.078,-0.766 2.078,-1.985 v -6.968 h 1.594 v 7.609 c 0,1.672 -1.25,2.734 -3.187,2.734 -1.5,0 -2.469,-0.562 -3.344,-1.968 v 1.687 z"
                 style="fill:#000000;fill-opacity:1;fill-rule:nonzero;stroke:none"
                 id="path1141" />
            </g>
          </g>
        </g>
      </g>
    </g>
  </g>
</svg>
