<?xml version="1.0" encoding="UTF-8" standalone="no"?>
<!-- Created with Inkscape (http://www.inkscape.org/) -->

<svg
   width="1050"
   height="450"
   viewBox="0 0 277.81251 119.0625"
   version="1.1"
   id="svg5"
   inkscape:version="1.1.2 (0a00cf5339, 2022-02-04)"
   sodipodi:docname="raft-cc-4.svg"
   inkscape:export-filename="/home/atolstoy/picodata-git/picodata/docs/clustering.png"
   inkscape:export-xdpi="120"
   inkscape:export-ydpi="120"
   xmlns:inkscape="http://www.inkscape.org/namespaces/inkscape"
   xmlns:sodipodi="http://sodipodi.sourceforge.net/DTD/sodipodi-0.dtd"
   xmlns="http://www.w3.org/2000/svg"
   xmlns:svg="http://www.w3.org/2000/svg">
  <sodipodi:namedview
     id="namedview7"
     pagecolor="#ffffff"
     bordercolor="#666666"
     borderopacity="1.0"
     inkscape:pageshadow="2"
     inkscape:pageopacity="0.0"
     inkscape:pagecheckerboard="true"
     inkscape:document-units="px"
     showgrid="false"
     inkscape:zoom="0.90070072"
     inkscape:cx="510.71348"
     inkscape:cy="288.10902"
     inkscape:window-width="1846"
     inkscape:window-height="1016"
     inkscape:window-x="74"
     inkscape:window-y="27"
     inkscape:window-maximized="1"
     inkscape:current-layer="g48903"
     fit-margin-top="0"
     fit-margin-left="0"
     fit-margin-right="0"
     fit-margin-bottom="0"
     inkscape:snap-midpoints="true"
     showguides="false"
     inkscape:guide-bbox="true"
     inkscape:snap-text-baseline="true"
     inkscape:snap-center="true"
     inkscape:snap-object-midpoints="false"
     height="450px"
     units="px"
     width="1050px">
    <sodipodi:guide
       position="0,39.687501"
       orientation="0,1"
       id="guide2183"
       inkscape:label=""
       inkscape:locked="false"
       inkscape:color="rgb(0,0,255)" />
    <sodipodi:guide
       position="39.687501,119.0625"
       orientation="-1,0"
       id="guide1556"
       inkscape:label=""
       inkscape:locked="false"
       inkscape:color="rgb(0,0,255)" />
    <sodipodi:guide
       position="0,79.375001"
       orientation="0,1"
       id="guide1558"
       inkscape:label=""
       inkscape:locked="false"
       inkscape:color="rgb(0,0,255)" />
    <sodipodi:guide
       position="59.531251,39.687502"
       orientation="-1,0"
       id="guide1659"
       inkscape:label=""
       inkscape:locked="false"
       inkscape:color="rgb(0,0,255)" />
  </sodipodi:namedview>
  <defs
     id="defs2">
    <marker
       style="overflow:visible"
       id="Arrow2Mend"
       refX="0"
       refY="0"
       orient="auto"
       inkscape:stockid="Arrow2Mend"
       inkscape:isstock="true">
      <path
         transform="scale(-0.6)"
         d="M 8.7185878,4.0337352 -2.2072895,0.01601326 8.7185884,-4.0017078 c -1.7454984,2.3720609 -1.7354408,5.6174519 -6e-7,8.035443 z"
         style="fill:context-stroke;fill-rule:evenodd;stroke:context-stroke;stroke-width:0.625;stroke-linejoin:round"
         id="path25869" />
    </marker>
    <marker
       style="overflow:visible"
       id="Arrow2Lend"
       refX="0"
       refY="0"
       orient="auto"
       inkscape:stockid="Arrow2Lend"
       inkscape:isstock="true">
      <path
         transform="matrix(-1.1,0,0,-1.1,-1.1,0)"
         d="M 8.7185878,4.0337352 -2.2072895,0.01601326 8.7185884,-4.0017078 c -1.7454984,2.3720609 -1.7354408,5.6174519 -6e-7,8.035443 z"
         style="fill:context-stroke;fill-rule:evenodd;stroke:context-stroke;stroke-width:0.625;stroke-linejoin:round"
         id="path8943" />
    </marker>
    <marker
       style="overflow:visible"
       id="Arrow1Lend"
       refX="0"
       refY="0"
       orient="auto"
       inkscape:stockid="Arrow1Lend"
       inkscape:isstock="true">
      <path
         transform="matrix(-0.8,0,0,-0.8,-10,0)"
         style="fill:context-stroke;fill-rule:evenodd;stroke:context-stroke;stroke-width:1pt"
         d="M 0,0 5,-5 -12.5,0 5,5 Z"
         id="path8925" />
    </marker>
    <marker
       style="overflow:visible"
       id="Arrow1Lstart"
       refX="0"
       refY="0"
       orient="auto"
       inkscape:stockid="Arrow1Lstart"
       inkscape:isstock="true">
      <path
         transform="matrix(0.8,0,0,0.8,10,0)"
         style="fill:context-stroke;fill-rule:evenodd;stroke:context-stroke;stroke-width:1pt"
         d="M 0,0 5,-5 -12.5,0 5,5 Z"
         id="path8922" />
    </marker>
    <marker
       style="overflow:visible"
       id="Arrow2Mend-3"
       refX="0"
       refY="0"
       orient="auto"
       inkscape:stockid="Arrow2Mend"
       inkscape:isstock="true">
      <path
         transform="scale(-0.6)"
         d="M 8.7185878,4.0337352 -2.2072895,0.01601326 8.7185884,-4.0017078 c -1.7454984,2.3720609 -1.7354408,5.6174519 -6e-7,8.035443 z"
         style="fill:context-stroke;fill-rule:evenodd;stroke:context-stroke;stroke-width:0.625;stroke-linejoin:round"
         id="path25869-6" />
    </marker>
    <marker
       style="overflow:visible"
       id="Arrow2Lend-8"
       refX="0"
       refY="0"
       orient="auto"
       inkscape:stockid="Arrow2Lend"
       inkscape:isstock="true">
      <path
         transform="matrix(-1.1,0,0,-1.1,-1.1,0)"
         d="M 8.7185878,4.0337352 -2.2072895,0.01601326 8.7185884,-4.0017078 c -1.7454984,2.3720609 -1.7354408,5.6174519 -6e-7,8.035443 z"
         style="fill:context-stroke;fill-rule:evenodd;stroke:context-stroke;stroke-width:0.625;stroke-linejoin:round"
         id="path8943-7" />
    </marker>
    <marker
       style="overflow:visible"
       id="marker41450"
       refX="0"
       refY="0"
       orient="auto"
       inkscape:stockid="Arrow2Lend"
       inkscape:isstock="true">
      <path
         transform="matrix(-1.1,0,0,-1.1,-1.1,0)"
         d="M 8.7185878,4.0337352 -2.2072895,0.01601326 8.7185884,-4.0017078 c -1.7454984,2.3720609 -1.7354408,5.6174519 -6e-7,8.035443 z"
         style="fill:context-stroke;fill-rule:evenodd;stroke:context-stroke;stroke-width:0.625;stroke-linejoin:round"
         id="path41448" />
    </marker>
    <marker
       style="overflow:visible"
       id="marker41454"
       refX="0"
       refY="0"
       orient="auto"
       inkscape:stockid="Arrow2Lend"
       inkscape:isstock="true">
      <path
         transform="matrix(-1.1,0,0,-1.1,-1.1,0)"
         d="M 8.7185878,4.0337352 -2.2072895,0.01601326 8.7185884,-4.0017078 c -1.7454984,2.3720609 -1.7354408,5.6174519 -6e-7,8.035443 z"
         style="fill:context-stroke;fill-rule:evenodd;stroke:context-stroke;stroke-width:0.625;stroke-linejoin:round"
         id="path41452" />
    </marker>
    <marker
       style="overflow:visible"
       id="marker41458"
       refX="0"
       refY="0"
       orient="auto"
       inkscape:stockid="Arrow2Lend"
       inkscape:isstock="true">
      <path
         transform="matrix(-1.1,0,0,-1.1,-1.1,0)"
         d="M 8.7185878,4.0337352 -2.2072895,0.01601326 8.7185884,-4.0017078 c -1.7454984,2.3720609 -1.7354408,5.6174519 -6e-7,8.035443 z"
         style="fill:context-stroke;fill-rule:evenodd;stroke:context-stroke;stroke-width:0.625;stroke-linejoin:round"
         id="path41456" />
    </marker>
    <marker
       style="overflow:visible"
       id="Arrow2Mend-2"
       refX="0"
       refY="0"
       orient="auto"
       inkscape:stockid="Arrow2Mend"
       inkscape:isstock="true">
      <path
         transform="scale(-0.6)"
         d="M 8.7185878,4.0337352 -2.2072895,0.01601326 8.7185884,-4.0017078 c -1.7454984,2.3720609 -1.7354408,5.6174519 -6e-7,8.035443 z"
         style="fill:context-stroke;fill-rule:evenodd;stroke:context-stroke;stroke-width:0.625;stroke-linejoin:round"
         id="path25869-0" />
    </marker>
    <marker
       style="overflow:visible"
       id="Arrow2Mend-5"
       refX="0"
       refY="0"
       orient="auto"
       inkscape:stockid="Arrow2Mend"
       inkscape:isstock="true">
      <path
         transform="scale(-0.6)"
         d="M 8.7185878,4.0337352 -2.2072895,0.01601326 8.7185884,-4.0017078 c -1.7454984,2.3720609 -1.7354408,5.6174519 -6e-7,8.035443 z"
         style="fill:context-stroke;fill-rule:evenodd;stroke:context-stroke;stroke-width:0.625;stroke-linejoin:round"
         id="path25869-3" />
    </marker>
    <marker
       style="overflow:visible"
       id="Arrow2Mend-6"
       refX="0"
       refY="0"
       orient="auto"
       inkscape:stockid="Arrow2Mend"
       inkscape:isstock="true">
      <path
         transform="scale(-0.6)"
         d="M 8.7185878,4.0337352 -2.2072895,0.01601326 8.7185884,-4.0017078 c -1.7454984,2.3720609 -1.7354408,5.6174519 -6e-7,8.035443 z"
         style="fill:context-stroke;fill-rule:evenodd;stroke:context-stroke;stroke-width:0.625;stroke-linejoin:round"
         id="path25869-2" />
    </marker>
    <clipPath
       clipPathUnits="userSpaceOnUse"
       id="clipPath48913">
      <path
         d="M 0,0 H 520 V 280 H 0 Z"
         id="path48911" />
    </clipPath>
    <clipPath
       clipPathUnits="userSpaceOnUse"
       id="clipPath48913-2">
      <path
         d="M 0,0 H 520 V 280 H 0 Z"
         id="path48911-3" />
    </clipPath>
  </defs>
  <g
     inkscape:label="Слой 1"
     inkscape:groupmode="layer"
     id="layer1"
     transform="translate(-46.875582,-8.2850274)">
    <g
       id="g48893"
       inkscape:label="OngaroPhD"
       transform="matrix(0.35277778,0,0,-0.35277778,71.144025,272.6702)">
      <g
         id="g48903"
         transform="translate(156.637,532.045)">
        <g
           id="g48905"
           transform="matrix(0.75960137,0,0,0.75960094,-27.01852,-42.040104)">
          <g
             id="g48907">
            <g
               id="g48909" />
            <g
               id="g49021">
              <g
                 clip-path="url(#clipPath48913-2)"
                 id="g49019">
                <g
                   id="g49017">
                  <g
                     transform="matrix(1,0,0,-1,0,280)"
                     id="g48917">
                    <path
                       d="M 48,216 H 500.473"
                       style="fill:none;stroke:#000000;stroke-width:2.4;stroke-linecap:butt;stroke-linejoin:miter;stroke-miterlimit:4;stroke-dasharray:none;stroke-opacity:1"
                       id="path48915" />
                  </g>
                  <path
                     d="m 60.555,58.191 -15.735,5.786 15.735,5.785 c -2.512,-3.414 -2.5,-8.09 0,-11.571 z"
                     style="fill:#000000;fill-opacity:1;fill-rule:evenodd;stroke:none"
                     id="path48919" />
                  <path
                     d="m 487.918,69.809 15.734,-5.786 -15.734,-5.785 c 2.516,3.414 2.5,8.09 0,11.571 z"
                     style="fill:#000000;fill-opacity:1;fill-rule:evenodd;stroke:none"
                     id="path48921" />
                  <path
                     d="m 441.125,52.852 h -1.656 v 2.765 h -1.594 v -2.765 h -1.359 v -1.313 h 1.359 v -7.594 c 0,-1.015 0.703,-1.593 1.953,-1.593 0.375,0 0.766,0.031 1.297,0.125 v 1.343 c -0.203,-0.047 -0.453,-0.078 -0.766,-0.078 -0.687,0 -0.89,0.203 -0.89,0.906 v 6.891 h 1.656 z m 3.324,0 h -1.594 V 42.789 h 1.594 z m 0,3.937 h -1.609 v -2.016 h 1.609 z m 2.742,-3.937 V 42.789 h 1.61 v 6.313 c 0,1.468 1.062,2.64 2.359,2.64 1.203,0 1.875,-0.734 1.875,-2.015 v -6.938 h 1.61 v 6.313 c 0,1.468 1.046,2.64 2.359,2.64 1.172,0 1.859,-0.75 1.859,-2.015 v -6.938 h 1.625 v 7.547 c 0,1.812 -1.047,2.797 -2.922,2.797 -1.343,0 -2.156,-0.391 -3.093,-1.531 -0.594,1.078 -1.407,1.531 -2.703,1.531 -1.344,0 -2.235,-0.5 -3.094,-1.703 v 1.422 z m 24.516,-5.563 c 0,1.531 -0.109,2.453 -0.391,3.203 -0.656,1.656 -2.187,2.641 -4.078,2.641 -2.797,0 -4.609,-2.141 -4.609,-5.453 0,-3.297 1.75,-5.328 4.578,-5.328 2.297,0 3.891,1.296 4.297,3.484 h -1.609 c -0.454,-1.313 -1.344,-2.016 -2.641,-2.016 -1.016,0 -1.875,0.469 -2.422,1.313 -0.375,0.578 -0.516,1.156 -0.531,2.156 z m -7.359,1.297 c 0.125,1.859 1.265,3.078 2.875,3.078 1.578,0 2.781,-1.312 2.781,-2.953 0,-0.047 0,-0.078 -0.016,-0.125 z"
                     style="fill:#000000;fill-opacity:1;fill-rule:nonzero;stroke:none"
                     id="path48923" />
                  <path
                     d="m 22.117,100.66 c -0.562,3.078 -2.328,4.578 -5.406,4.578 -1.875,0 -3.391,-0.593 -4.438,-1.75 -1.265,-1.39 -1.953,-3.375 -1.953,-5.64 0,-2.313 0.703,-4.297 2.032,-5.657 1.078,-1.109 2.468,-1.625 4.281,-1.625 3.422,0 5.344,1.844 5.765,5.547 h -1.843 c -0.157,-0.968 -0.344,-1.609 -0.641,-2.172 -0.562,-1.156 -1.766,-1.796 -3.25,-1.796 -2.797,0 -4.562,2.218 -4.562,5.718 0,3.594 1.687,5.797 4.406,5.797 1.125,0 2.187,-0.344 2.765,-0.89 0.516,-0.469 0.797,-1.063 1.016,-2.11 z"
                     style="fill:#000000;fill-opacity:1;fill-rule:nonzero;stroke:none"
                     id="path48925" />
                  <path
                     d="m 26.664,93.898 c -1.828,0 -2.937,-1.312 -2.937,-3.515 0,-2.188 1.093,-3.5 2.953,-3.5 1.843,0 2.953,1.312 2.953,3.453 0,2.266 -1.078,3.562 -2.969,3.562 z M 26.68,92.93 c 1.172,0 1.875,-0.953 1.875,-2.578 0,-1.547 -0.719,-2.516 -1.875,-2.516 -1.157,0 -1.875,0.969 -1.875,2.547 0,1.578 0.718,2.547 1.875,2.547 z m 5.433,3.328 h -1.047 v -9.094 h 1.047 z m 7.075,0 h -1.047 v -3.375 c -0.438,0.656 -1.141,1.015 -2,1.015 -1.703,0 -2.813,-1.359 -2.813,-3.453 0,-2.203 1.078,-3.562 2.844,-3.562 0.89,0 1.516,0.328 2.078,1.14 v -0.859 h 0.938 z m -2.876,-3.344 c 1.126,0 1.829,-1 1.829,-2.547 0,-1.515 -0.719,-2.515 -1.813,-2.515 -1.156,0 -1.922,1.015 -1.922,2.531 0,1.531 0.766,2.531 1.906,2.531 z"
                     style="fill:#000000;fill-opacity:1;fill-rule:nonzero;stroke:none"
                     id="path48927" />
                  <g
                     transform="matrix(1,0,0,-1,0,280)"
                     id="g48931">
                    <path
                       d="M 48,184 H 216"
                       style="fill:none;stroke:#000000;stroke-width:2.4;stroke-linecap:butt;stroke-linejoin:miter;stroke-miterlimit:4;stroke-dasharray:none;stroke-opacity:1"
                       id="path48929" />
                  </g>
                  <g
                     transform="matrix(1,0,0,-1,0,280)"
                     id="g48935">
                    <path
                       d="M 138.48,152 H 216"
                       style="fill:none;stroke:#000000;stroke-width:2.4;stroke-linecap:butt;stroke-linejoin:miter;stroke-miterlimit:4;stroke-dasharray:7.2, 7.2;stroke-dashoffset:0;stroke-opacity:1"
                       id="path48933" />
                  </g>
                  <path
                     d="m 140.359,128 c 0,-2.195 -1.781,-3.973 -3.972,-3.973 -2.196,0 -3.973,1.778 -3.973,3.973 0,2.195 1.777,3.973 3.973,3.973 2.191,0 3.972,-1.778 3.972,-3.973 z"
                     style="fill:#000000;fill-opacity:1;fill-rule:nonzero;stroke:none"
                     id="path48937" />
                  <path
                     d="m 80.258,133.473 c -0.563,3.078 -2.328,4.578 -5.406,4.578 -1.875,0 -3.391,-0.594 -4.438,-1.75 -1.266,-1.391 -1.953,-3.375 -1.953,-5.641 0,-2.312 0.703,-4.297 2.031,-5.656 1.078,-1.109 2.469,-1.625 4.281,-1.625 3.422,0 5.344,1.844 5.766,5.547 h -1.844 c -0.156,-0.969 -0.343,-1.61 -0.64,-2.172 -0.563,-1.156 -1.766,-1.797 -3.25,-1.797 -2.797,0 -4.563,2.219 -4.563,5.719 0,3.594 1.688,5.797 4.406,5.797 1.125,0 2.188,-0.344 2.766,-0.891 0.516,-0.469 0.797,-1.062 1.016,-2.109 z"
                     style="fill:#000000;fill-opacity:1;fill-rule:nonzero;stroke:none"
                     id="path48939" />
                  <path
                     d="m 84.805,126.707 c -1.828,0 -2.938,-1.312 -2.938,-3.516 0,-2.187 1.094,-3.5 2.953,-3.5 1.844,0 2.953,1.313 2.953,3.454 0,2.265 -1.078,3.562 -2.968,3.562 z m 0.015,-0.969 c 1.172,0 1.875,-0.953 1.875,-2.578 0,-1.547 -0.718,-2.515 -1.875,-2.515 -1.156,0 -1.875,0.968 -1.875,2.546 0,1.579 0.719,2.547 1.875,2.547 z m 5.43,3.328 h -1.047 v -9.093 h 1.047 z m 7.078,0 h -1.047 v -3.375 c -0.437,0.657 -1.14,1.016 -2,1.016 -1.703,0 -2.812,-1.359 -2.812,-3.453 0,-2.203 1.078,-3.563 2.843,-3.563 0.891,0 1.516,0.329 2.079,1.141 v -0.859 h 0.937 z m -2.875,-3.343 c 1.125,0 1.828,-1 1.828,-2.547 0,-1.516 -0.719,-2.516 -1.812,-2.516 -1.157,0 -1.922,1.016 -1.922,2.531 0,1.532 0.765,2.532 1.906,2.532 z m 4.727,-4.453 v -1.297 h 0.734 v -0.219 c 0,-0.875 -0.156,-1.109 -0.734,-1.141 v -0.468 c 0.859,0 1.297,0.562 1.297,1.625 v 1.5 z m 3.242,5.25 v -6.547 h 1.047 v 3.609 c 0,1.328 0.703,2.203 1.781,2.203 0.812,0 1.344,-0.5 1.344,-1.281 v -4.531 h 1.031 v 4.937 c 0,1.094 -0.813,1.797 -2.078,1.797 -0.969,0 -1.594,-0.375 -2.172,-1.297 v 1.11 z m 12.48,-3.625 c 0,1 -0.078,1.593 -0.265,2.078 -0.422,1.078 -1.422,1.734 -2.641,1.734 -1.828,0 -3,-1.406 -3,-3.547 0,-2.156 1.141,-3.469 2.969,-3.469 1.5,0 2.531,0.844 2.797,2.266 h -1.047 c -0.281,-0.859 -0.875,-1.312 -1.703,-1.312 -0.672,0 -1.235,0.296 -1.578,0.843 -0.25,0.375 -0.344,0.75 -0.36,1.407 z m -4.797,0.843 c 0.094,1.219 0.829,2 1.875,2 1.016,0 1.813,-0.843 1.813,-1.922 0,-0.031 0,-0.046 -0.016,-0.078 z m 12.258,-3.765 1.922,6.547 h -1.172 l -1.312,-5.094 -1.281,5.094 h -1.266 l -1.25,-5.094 -1.344,5.094 h -1.14 l 1.89,-6.547 h 1.172 l 1.266,5.125 1.328,-5.125 z"
                     style="fill:#000000;fill-opacity:1;fill-rule:nonzero;stroke:none"
                     id="path48941" />
                  <g
                     transform="matrix(1,0,0,-1,0,280)"
                     id="g48945">
                    <path
                       d="M 216,152 H 336"
                       style="fill:none;stroke:#000000;stroke-width:2.4;stroke-linecap:butt;stroke-linejoin:miter;stroke-miterlimit:4;stroke-dasharray:none;stroke-opacity:1"
                       id="path48943" />
                  </g>
                  <g
                     transform="matrix(1,0,0,-1,0,280)"
                     id="g48949">
                    <path
                       d="m 216,152 v 64"
                       style="fill:none;stroke:#000000;stroke-width:1.6;stroke-linecap:butt;stroke-linejoin:miter;stroke-miterlimit:4;stroke-dasharray:1.6, 3.2;stroke-dashoffset:0;stroke-opacity:1"
                       id="path48947" />
                  </g>
                  <path
                     d="m 237.332,164.66 c -0.562,3.078 -2.328,4.578 -5.406,4.578 -1.875,0 -3.391,-0.593 -4.438,-1.75 -1.265,-1.39 -1.953,-3.375 -1.953,-5.64 0,-2.313 0.703,-4.297 2.031,-5.657 1.079,-1.109 2.469,-1.625 4.282,-1.625 3.422,0 5.343,1.844 5.765,5.547 h -1.843 c -0.157,-0.968 -0.344,-1.609 -0.641,-2.172 -0.563,-1.156 -1.766,-1.796 -3.25,-1.796 -2.797,0 -4.563,2.218 -4.563,5.718 0,3.594 1.688,5.797 4.407,5.797 1.125,0 2.187,-0.344 2.765,-0.89 0.516,-0.469 0.797,-1.063 1.016,-2.11 z"
                     style="fill:#000000;fill-opacity:1;fill-rule:nonzero;stroke:none"
                     id="path48951" />
                  <path
                     d="m 239.363,157.711 v -6.547 h 1.047 v 3.609 c 0,1.329 0.703,2.204 1.781,2.204 0.813,0 1.344,-0.5 1.344,-1.282 v -4.531 h 1.031 v 4.938 c 0,1.093 -0.812,1.796 -2.078,1.796 -0.968,0 -1.593,-0.375 -2.172,-1.296 v 1.109 z m 12.481,-3.625 c 0,1 -0.078,1.594 -0.266,2.078 -0.422,1.078 -1.422,1.734 -2.64,1.734 -1.829,0 -3,-1.406 -3,-3.546 0,-2.157 1.14,-3.469 2.968,-3.469 1.5,0 2.532,0.844 2.797,2.265 h -1.047 c -0.281,-0.859 -0.875,-1.312 -1.703,-1.312 -0.672,0 -1.234,0.297 -1.578,0.844 -0.25,0.375 -0.344,0.75 -0.359,1.406 z m -4.797,0.844 c 0.094,1.218 0.828,2 1.875,2 1.016,0 1.812,-0.844 1.812,-1.922 0,-0.031 0,-0.047 -0.015,-0.078 z m 12.258,-3.766 1.922,6.547 h -1.172 l -1.313,-5.094 -1.281,5.094 h -1.266 l -1.25,-5.094 -1.343,5.094 h -1.141 l 1.891,-6.547 h 1.171 l 1.266,5.125 1.328,-5.125 z"
                     style="fill:#000000;fill-opacity:1;fill-rule:nonzero;stroke:none"
                     id="path48953" />
                  <g
                     transform="matrix(1,0,0,-1,0,280)"
                     id="g48957">
                    <path
                       d="m 273.125,120 h 61.773"
                       style="fill:none;stroke:#000000;stroke-width:2.4;stroke-linecap:butt;stroke-linejoin:miter;stroke-miterlimit:4;stroke-dasharray:7.2, 7.2;stroke-dashoffset:0;stroke-opacity:1"
                       id="path48955" />
                  </g>
                  <path
                     d="m 276.586,160 c 0,-2.195 -1.777,-3.973 -3.973,-3.973 -2.195,0 -3.972,1.778 -3.972,3.973 0,2.195 1.777,3.973 3.972,3.973 2.196,0 3.973,-1.778 3.973,-3.973 z"
                     style="fill:#000000;fill-opacity:1;fill-rule:nonzero;stroke:none"
                     id="path48959" />
                  <g
                     transform="matrix(1,0,0,-1,0,280)"
                     id="g48963">
                    <path
                       d="M 336,120 H 504"
                       style="fill:none;stroke:#000000;stroke-width:2.4;stroke-linecap:butt;stroke-linejoin:miter;stroke-miterlimit:4;stroke-dasharray:none;stroke-opacity:1"
                       id="path48961" />
                  </g>
                  <g
                     transform="matrix(1,0,0,-1,0,280)"
                     id="g48967">
                    <path
                       d="m 336,120 v 96"
                       style="fill:none;stroke:#000000;stroke-width:1.6;stroke-linecap:butt;stroke-linejoin:miter;stroke-miterlimit:4;stroke-dasharray:1.6, 3.2;stroke-dashoffset:0;stroke-opacity:1"
                       id="path48965" />
                  </g>
                  <path
                     d="m 175.844,47 c -0.563,3.078 -2.328,4.578 -5.406,4.578 -1.876,0 -3.391,-0.594 -4.438,-1.75 -1.266,-1.39 -1.953,-3.375 -1.953,-5.64 0,-2.313 0.703,-4.297 2.031,-5.657 1.078,-1.109 2.469,-1.625 4.281,-1.625 3.422,0 5.344,1.844 5.766,5.547 h -1.844 c -0.156,-0.969 -0.343,-1.609 -0.64,-2.172 -0.563,-1.156 -1.766,-1.797 -3.25,-1.797 -2.797,0 -4.563,2.219 -4.563,5.719 0,3.594 1.688,5.797 4.406,5.797 1.125,0 2.188,-0.344 2.766,-0.891 0.516,-0.468 0.797,-1.062 1.016,-2.109 z"
                     style="fill:#000000;fill-opacity:1;fill-rule:nonzero;stroke:none"
                     id="path48969" />
                  <path
                     d="m 180.391,40.238 c -1.829,0 -2.938,-1.312 -2.938,-3.515 0,-2.188 1.094,-3.5 2.953,-3.5 1.844,0 2.953,1.312 2.953,3.453 0,2.265 -1.078,3.562 -2.968,3.562 z m 0.015,-0.968 c 1.172,0 1.875,-0.954 1.875,-2.579 0,-1.546 -0.719,-2.515 -1.875,-2.515 -1.156,0 -1.875,0.969 -1.875,2.547 0,1.578 0.719,2.547 1.875,2.547 z m 5.434,3.328 h -1.047 v -9.094 h 1.047 z m 7.074,0 h -1.047 v -3.375 c -0.437,0.656 -1.14,1.015 -2,1.015 -1.703,0 -2.812,-1.359 -2.812,-3.453 0,-2.203 1.078,-3.562 2.843,-3.562 0.891,0 1.516,0.328 2.079,1.14 v -0.859 h 0.937 z m -2.875,-3.344 c 1.125,0 1.828,-1 1.828,-2.547 0,-1.516 -0.719,-2.516 -1.812,-2.516 -1.157,0 -1.922,1.016 -1.922,2.532 0,1.531 0.765,2.531 1.906,2.531 z m 4.731,-4.453 v -1.297 h 0.734 v -0.219 c 0,-0.875 -0.156,-1.109 -0.734,-1.14 v -0.469 c 0.859,0 1.296,0.562 1.296,1.625 v 1.5 z m 3.242,5.25 v -6.547 h 1.047 v 3.609 c 0,1.328 0.703,2.203 1.781,2.203 0.812,0 1.344,-0.5 1.344,-1.281 v -4.531 h 1.031 v 4.937 c 0,1.094 -0.813,1.797 -2.078,1.797 -0.969,0 -1.594,-0.375 -2.172,-1.297 v 1.11 z m 12.476,-3.625 c 0,1 -0.078,1.594 -0.265,2.078 -0.422,1.078 -1.422,1.734 -2.641,1.734 -1.828,0 -3,-1.406 -3,-3.547 0,-2.156 1.141,-3.468 2.969,-3.468 1.5,0 2.531,0.843 2.797,2.265 h -1.047 c -0.281,-0.859 -0.875,-1.312 -1.703,-1.312 -0.672,0 -1.235,0.297 -1.578,0.844 -0.25,0.375 -0.344,0.75 -0.36,1.406 z m -4.797,0.844 c 0.094,1.218 0.829,2 1.875,2 1.016,0 1.813,-0.844 1.813,-1.922 0,-0.032 0,-0.047 -0.016,-0.078 z m 12.262,-3.766 1.922,6.547 h -1.172 l -1.312,-5.094 -1.282,5.094 h -1.265 l -1.25,-5.094 -1.344,5.094 h -1.141 L 213,33.504 h 1.172 l 1.266,5.125 1.328,-5.125 z"
                     style="fill:#000000;fill-opacity:1;fill-rule:nonzero;stroke:none"
                     id="path48971" />
                  <path
                     d="m 235.219,41.844 c 0,1.531 -0.11,2.453 -0.391,3.203 -0.656,1.656 -2.187,2.641 -4.078,2.641 -2.797,0 -4.609,-2.141 -4.609,-5.454 0,-3.296 1.75,-5.328 4.578,-5.328 2.297,0 3.89,1.297 4.297,3.485 h -1.61 c -0.453,-1.313 -1.344,-2.016 -2.64,-2.016 -1.016,0 -1.875,0.469 -2.422,1.313 -0.375,0.578 -0.516,1.156 -0.532,2.156 z m -7.36,1.297 c 0.125,1.859 1.266,3.078 2.875,3.078 1.578,0 2.782,-1.313 2.782,-2.953 0,-0.047 0,-0.078 -0.016,-0.125 z m 9.547,4.265 V 37.344 h 1.61 v 5.547 c 0,2.062 1.078,3.406 2.734,3.406 1.266,0 2.078,-0.766 2.078,-1.985 v -6.968 h 1.594 v 7.609 c 0,1.672 -1.25,2.735 -3.188,2.735 -1.5,0 -2.468,-0.563 -3.343,-1.969 v 1.687 z m 14.219,0 h -1.656 v 2.766 h -1.594 v -2.766 h -1.359 v -1.312 h 1.359 V 38.5 c 0,-1.016 0.703,-1.594 1.953,-1.594 0.375,0 0.766,0.032 1.297,0.125 v 1.344 c -0.203,-0.047 -0.453,-0.078 -0.766,-0.078 -0.687,0 -0.89,0.203 -0.89,0.906 v 6.891 h 1.656 z m 1.777,0 V 37.344 h 1.61 v 5.218 c 0,1.438 0.359,2.391 1.14,2.938 0.5,0.375 0.969,0.484 2.094,0.5 v 1.641 c -0.281,0.031 -0.406,0.047 -0.625,0.047 -1.031,0 -1.828,-0.61 -2.75,-2.11 v 1.828 z m 12.536,0 -2.782,-7.828 -2.578,7.828 h -1.703 l 3.391,-10.094 -0.61,-1.593 c -0.25,-0.719 -0.625,-0.985 -1.297,-0.985 -0.218,0 -0.5,0.032 -0.843,0.11 v -1.438 c 0.328,-0.172 0.656,-0.25 1.078,-0.25 0.515,0 1.078,0.172 1.5,0.485 0.5,0.359 0.781,0.781 1.094,1.593 l 4.468,12.172 z"
                     style="fill:#000000;fill-opacity:1;fill-rule:nonzero;stroke:none"
                     id="path48973" />
                  <path
                     d="m 180.348,20.031 c -0.078,0.969 -0.297,1.61 -0.672,2.172 -0.688,0.938 -1.906,1.485 -3.313,1.485 -2.703,0 -4.468,-2.141 -4.468,-5.485 0,-3.25 1.734,-5.297 4.453,-5.297 2.406,0 3.922,1.438 4.109,3.891 h -1.609 c -0.266,-1.609 -1.094,-2.422 -2.453,-2.422 -1.766,0 -2.829,1.453 -2.829,3.828 0,2.516 1.032,4.016 2.782,4.016 1.343,0 2.187,-0.797 2.39,-2.188 z m 5.769,3.657 c -2.812,0 -4.531,-2.016 -4.531,-5.391 0,-3.375 1.687,-5.391 4.562,-5.391 2.813,0 4.547,2.016 4.547,5.313 0,3.484 -1.672,5.469 -4.578,5.469 z m 0.031,-1.469 c 1.797,0 2.875,-1.485 2.875,-3.985 0,-2.359 -1.109,-3.859 -2.875,-3.859 -1.796,0 -2.89,1.484 -2.89,3.922 0,2.422 1.094,3.922 2.89,3.922 z m 6.782,1.187 V 13.344 h 1.609 v 6.312 c 0,1.469 1.063,2.641 2.359,2.641 1.204,0 1.875,-0.735 1.875,-2.016 v -6.937 h 1.61 v 6.312 c 0,1.469 1.047,2.641 2.359,2.641 1.172,0 1.86,-0.75 1.86,-2.016 v -6.937 h 1.625 v 7.547 c 0,1.812 -1.047,2.797 -2.922,2.797 -1.344,0 -2.157,-0.391 -3.094,-1.532 -0.594,1.078 -1.406,1.532 -2.703,1.532 -1.344,0 -2.235,-0.5 -3.094,-1.704 v 1.422 z m 16.015,0 V 13.344 h 1.61 v 6.312 c 0,1.469 1.062,2.641 2.359,2.641 1.203,0 1.875,-0.735 1.875,-2.016 v -6.937 h 1.609 v 6.312 c 0,1.469 1.047,2.641 2.36,2.641 1.172,0 1.859,-0.75 1.859,-2.016 v -6.937 h 1.625 v 7.547 c 0,1.812 -1.047,2.797 -2.922,2.797 -1.343,0 -2.156,-0.391 -3.093,-1.532 -0.594,1.078 -1.407,1.532 -2.704,1.532 -1.343,0 -2.234,-0.5 -3.093,-1.704 v 1.422 z m 17.543,0 h -1.593 V 13.344 h 1.593 z m 0,3.938 h -1.609 v -2.016 h 1.609 z m 6.274,-3.938 h -1.657 v 2.766 h -1.593 v -2.766 h -1.36 v -1.312 h 1.36 V 14.5 c 0,-1.016 0.703,-1.594 1.953,-1.594 0.375,0 0.765,0.032 1.297,0.125 v 1.344 c -0.203,-0.047 -0.453,-0.078 -0.766,-0.078 -0.687,0 -0.891,0.203 -0.891,0.906 v 6.891 h 1.657 z m 5.324,0 h -1.656 v 2.766 h -1.594 v -2.766 h -1.359 v -1.312 h 1.359 V 14.5 c 0,-1.016 0.703,-1.594 1.953,-1.594 0.375,0 0.766,0.032 1.297,0.125 v 1.344 c -0.203,-0.047 -0.453,-0.078 -0.766,-0.078 -0.687,0 -0.89,0.203 -0.89,0.906 v 6.891 h 1.656 z m 10.297,-5.562 c 0,1.531 -0.11,2.453 -0.391,3.203 -0.656,1.656 -2.187,2.641 -4.078,2.641 -2.797,0 -4.609,-2.141 -4.609,-5.454 0,-3.296 1.75,-5.328 4.578,-5.328 2.297,0 3.89,1.297 4.297,3.485 h -1.61 c -0.453,-1.313 -1.343,-2.016 -2.64,-2.016 -1.016,0 -1.875,0.469 -2.422,1.313 -0.375,0.578 -0.516,1.156 -0.531,2.156 z m -7.36,1.297 c 0.125,1.859 1.266,3.078 2.875,3.078 1.579,0 2.782,-1.313 2.782,-2.953 0,-0.047 0,-0.078 -0.016,-0.125 z m 17.704,8.203 h -1.594 v -5.203 c -0.672,1.015 -1.735,1.547 -3.094,1.547 -2.609,0 -4.312,-2.094 -4.312,-5.297 0,-3.391 1.671,-5.485 4.375,-5.485 1.39,0 2.343,0.516 3.203,1.766 v -1.328 h 1.422 z m -4.407,-5.141 c 1.719,0 2.813,-1.547 2.813,-3.937 0,-2.328 -1.11,-3.86 -2.797,-3.86 -1.766,0 -2.938,1.547 -2.938,3.891 0,2.344 1.172,3.906 2.922,3.906 z"
                     style="fill:#000000;fill-opacity:1;fill-rule:nonzero;stroke:none"
                     id="path48975" />
                  <path
                     d="m 306.629,47.098 c -0.563,3.078 -2.328,4.578 -5.406,4.578 -1.875,0 -3.391,-0.594 -4.438,-1.75 -1.265,-1.391 -1.953,-3.375 -1.953,-5.641 0,-2.312 0.703,-4.297 2.031,-5.656 1.078,-1.109 2.469,-1.625 4.282,-1.625 3.421,0 5.343,1.844 5.765,5.547 h -1.844 c -0.156,-0.969 -0.343,-1.61 -0.64,-2.172 -0.563,-1.156 -1.766,-1.797 -3.25,-1.797 -2.797,0 -4.563,2.219 -4.563,5.719 0,3.594 1.688,5.797 4.407,5.797 1.125,0 2.187,-0.344 2.765,-0.891 0.516,-0.469 0.797,-1.062 1.016,-2.109 z"
                     style="fill:#000000;fill-opacity:1;fill-rule:nonzero;stroke:none"
                     id="path48977" />
                  <path
                     d="m 308.66,40.148 v -6.546 h 1.047 v 3.609 c 0,1.328 0.703,2.203 1.781,2.203 0.813,0 1.344,-0.5 1.344,-1.281 v -4.531 h 1.031 v 4.937 c 0,1.094 -0.812,1.797 -2.078,1.797 -0.969,0 -1.594,-0.375 -2.172,-1.297 v 1.109 z m 12.481,-3.625 c 0,1 -0.079,1.594 -0.266,2.079 -0.422,1.078 -1.422,1.734 -2.641,1.734 -1.828,0 -3,-1.406 -3,-3.547 0,-2.156 1.141,-3.469 2.969,-3.469 1.5,0 2.531,0.844 2.797,2.266 h -1.047 c -0.281,-0.859 -0.875,-1.313 -1.703,-1.313 -0.672,0 -1.234,0.297 -1.578,0.844 -0.25,0.375 -0.344,0.75 -0.36,1.406 z m -4.797,0.844 c 0.094,1.219 0.828,2 1.875,2 1.015,0 1.812,-0.844 1.812,-1.922 0,-0.031 0,-0.047 -0.015,-0.078 z m 12.258,-3.765 1.921,6.546 h -1.171 l -1.313,-5.093 -1.281,5.093 h -1.266 l -1.25,-5.093 -1.344,5.093 h -1.14 l 1.89,-6.546 h 1.172 l 1.266,5.125 1.328,-5.125 z"
                     style="fill:#000000;fill-opacity:1;fill-rule:nonzero;stroke:none"
                     id="path48979" />
                  <path
                     d="m 345.867,41.941 c 0,1.532 -0.109,2.454 -0.39,3.204 -0.657,1.656 -2.188,2.64 -4.079,2.64 -2.796,0 -4.609,-2.14 -4.609,-5.453 0,-3.297 1.75,-5.328 4.578,-5.328 2.297,0 3.891,1.297 4.297,3.484 h -1.609 c -0.453,-1.312 -1.344,-2.015 -2.641,-2.015 -1.016,0 -1.875,0.468 -2.422,1.312 -0.375,0.578 -0.515,1.156 -0.531,2.156 z m -7.359,1.297 c 0.125,1.86 1.265,3.078 2.875,3.078 1.578,0 2.781,-1.312 2.781,-2.953 0,-0.047 0,-0.078 -0.016,-0.125 z m 9.547,4.266 V 37.441 h 1.609 v 5.547 c 0,2.063 1.078,3.407 2.734,3.407 1.266,0 2.079,-0.766 2.079,-1.985 v -6.969 h 1.593 v 7.61 c 0,1.672 -1.25,2.734 -3.187,2.734 -1.5,0 -2.469,-0.562 -3.344,-1.969 v 1.688 z m 14.218,0 h -1.656 v 2.766 h -1.594 v -2.766 h -1.359 v -1.313 h 1.359 v -7.593 c 0,-1.016 0.704,-1.594 1.954,-1.594 0.375,0 0.765,0.031 1.296,0.125 v 1.344 c -0.203,-0.047 -0.453,-0.078 -0.765,-0.078 -0.688,0 -0.891,0.203 -0.891,0.906 v 6.89 h 1.656 z m 1.778,0 V 37.441 h 1.609 v 5.219 c 0,1.438 0.36,2.391 1.141,2.938 0.5,0.375 0.969,0.484 2.094,0.5 v 1.64 c -0.282,0.032 -0.407,0.047 -0.625,0.047 -1.032,0 -1.829,-0.609 -2.75,-2.109 v 1.828 z m 12.539,0 -2.781,-7.828 -2.579,7.828 h -1.703 l 3.391,-10.094 -0.609,-1.594 c -0.25,-0.718 -0.625,-0.984 -1.297,-0.984 -0.219,0 -0.5,0.031 -0.844,0.109 v -1.437 c 0.328,-0.172 0.656,-0.25 1.078,-0.25 0.516,0 1.078,0.172 1.5,0.484 0.5,0.36 0.781,0.782 1.094,1.594 l 4.469,12.172 z"
                     style="fill:#000000;fill-opacity:1;fill-rule:nonzero;stroke:none"
                     id="path48981" />
                  <path
                     d="m 301.062,20.129 c -0.078,0.969 -0.296,1.609 -0.671,2.172 -0.688,0.937 -1.907,1.484 -3.313,1.484 -2.703,0 -4.469,-2.14 -4.469,-5.484 0,-3.25 1.735,-5.297 4.453,-5.297 2.407,0 3.922,1.437 4.11,3.891 h -1.61 c -0.265,-1.61 -1.093,-2.422 -2.453,-2.422 -1.765,0 -2.828,1.453 -2.828,3.828 0,2.515 1.031,4.015 2.781,4.015 1.344,0 2.188,-0.796 2.391,-2.187 z m 5.774,3.656 c -2.813,0 -4.531,-2.015 -4.531,-5.39 0,-3.375 1.687,-5.391 4.562,-5.391 2.813,0 4.547,2.016 4.547,5.312 0,3.485 -1.672,5.469 -4.578,5.469 z m 0.031,-1.469 c 1.797,0 2.875,-1.484 2.875,-3.984 0,-2.359 -1.109,-3.859 -2.875,-3.859 -1.797,0 -2.89,1.484 -2.89,3.922 0,2.421 1.093,3.921 2.89,3.921 z m 6.781,1.188 V 13.441 h 1.61 v 6.313 c 0,1.469 1.062,2.641 2.359,2.641 1.203,0 1.875,-0.735 1.875,-2.016 v -6.938 h 1.61 v 6.313 c 0,1.469 1.046,2.641 2.359,2.641 1.172,0 1.859,-0.75 1.859,-2.016 v -6.938 h 1.625 v 7.547 c 0,1.813 -1.047,2.797 -2.922,2.797 -1.343,0 -2.156,-0.39 -3.093,-1.531 -0.594,1.078 -1.407,1.531 -2.703,1.531 -1.344,0 -2.235,-0.5 -3.094,-1.703 v 1.422 z m 16.012,0 V 13.441 h 1.61 v 6.313 c 0,1.469 1.062,2.641 2.359,2.641 1.203,0 1.875,-0.735 1.875,-2.016 v -6.938 h 1.609 v 6.313 c 0,1.469 1.047,2.641 2.36,2.641 1.172,0 1.859,-0.75 1.859,-2.016 v -6.938 h 1.625 v 7.547 c 0,1.813 -1.047,2.797 -2.922,2.797 -1.344,0 -2.156,-0.39 -3.094,-1.531 -0.593,1.078 -1.406,1.531 -2.703,1.531 -1.343,0 -2.234,-0.5 -3.093,-1.703 v 1.422 z m 17.543,0 h -1.594 V 13.441 h 1.594 z m 0,3.937 h -1.609 v -2.015 h 1.609 z m 6.277,-3.937 h -1.656 v 2.766 h -1.594 v -2.766 h -1.359 v -1.313 h 1.359 v -7.593 c 0,-1.016 0.704,-1.594 1.954,-1.594 0.375,0 0.765,0.031 1.296,0.125 v 1.344 c -0.203,-0.047 -0.453,-0.078 -0.765,-0.078 -0.688,0 -0.891,0.203 -0.891,0.906 v 6.89 h 1.656 z m 5.325,0 h -1.657 v 2.766 h -1.593 v -2.766 h -1.36 v -1.313 h 1.36 v -7.593 c 0,-1.016 0.703,-1.594 1.953,-1.594 0.375,0 0.765,0.031 1.297,0.125 v 1.344 c -0.203,-0.047 -0.453,-0.078 -0.766,-0.078 -0.687,0 -0.891,0.203 -0.891,0.906 v 6.89 h 1.657 z m 10.293,-5.563 c 0,1.532 -0.11,2.454 -0.391,3.204 -0.656,1.656 -2.187,2.64 -4.078,2.64 -2.797,0 -4.609,-2.14 -4.609,-5.453 0,-3.297 1.75,-5.328 4.578,-5.328 2.297,0 3.89,1.297 4.297,3.484 h -1.61 c -0.453,-1.312 -1.344,-2.015 -2.64,-2.015 -1.016,0 -1.875,0.468 -2.422,1.312 -0.375,0.578 -0.516,1.156 -0.532,2.156 z m -7.36,1.297 c 0.125,1.86 1.266,3.078 2.875,3.078 1.578,0 2.782,-1.312 2.782,-2.953 0,-0.047 0,-0.078 -0.016,-0.125 z m 17.703,8.203 h -1.593 v -5.203 c -0.672,1.016 -1.735,1.547 -3.094,1.547 -2.609,0 -4.313,-2.094 -4.313,-5.297 0,-3.39 1.672,-5.484 4.375,-5.484 1.391,0 2.344,0.516 3.204,1.766 v -1.329 h 1.421 z m -4.406,-5.14 c 1.719,0 2.813,-1.547 2.813,-3.938 0,-2.328 -1.11,-3.859 -2.797,-3.859 -1.766,0 -2.938,1.547 -2.938,3.891 0,2.343 1.172,3.906 2.922,3.906 z"
                     style="fill:#000000;fill-opacity:1;fill-rule:nonzero;stroke:none"
                     id="path48983" />
                  <g
                     transform="matrix(1,0,0,-1,0,280)"
                     id="g48987">
                    <path
                       d="M 48,72 H 216"
                       style="fill:none;stroke:#000000;stroke-width:2.4;stroke-linecap:butt;stroke-linejoin:miter;stroke-miterlimit:4;stroke-dasharray:none;stroke-opacity:1"
                       id="path48985" />
                  </g>
                  <g
                     transform="matrix(1,0,0,-1,0,280)"
                     id="g48991">
                    <path
                       d="M 216,82.848 V 61.152"
                       style="fill:none;stroke:#000000;stroke-width:2.4;stroke-linecap:butt;stroke-linejoin:miter;stroke-miterlimit:4;stroke-dasharray:none;stroke-opacity:1"
                       id="path48989" />
                  </g>
                  <path
                     d="m 79.93,251.117 c -0.563,3.078 -2.328,4.578 -5.407,4.578 -1.875,0 -3.39,-0.593 -4.437,-1.75 -1.266,-1.39 -1.953,-3.375 -1.953,-5.64 0,-2.313 0.703,-4.297 2.031,-5.657 1.078,-1.109 2.469,-1.625 4.281,-1.625 3.422,0 5.344,1.844 5.766,5.547 h -1.844 c -0.156,-0.968 -0.344,-1.609 -0.64,-2.172 -0.563,-1.156 -1.766,-1.796 -3.25,-1.796 -2.797,0 -4.563,2.218 -4.563,5.718 0,3.594 1.688,5.797 4.406,5.797 1.125,0 2.188,-0.344 2.766,-0.89 0.516,-0.469 0.797,-1.063 1.016,-2.11 z"
                     style="fill:#000000;fill-opacity:1;fill-rule:nonzero;stroke:none"
                     id="path48993" />
                  <path
                     d="m 84.477,244.355 c -1.829,0 -2.938,-1.312 -2.938,-3.515 0,-2.188 1.094,-3.5 2.953,-3.5 1.844,0 2.953,1.312 2.953,3.453 0,2.266 -1.078,3.562 -2.968,3.562 z m 0.015,-0.968 c 1.172,0 1.875,-0.953 1.875,-2.578 0,-1.547 -0.719,-2.516 -1.875,-2.516 -1.156,0 -1.875,0.969 -1.875,2.547 0,1.578 0.719,2.547 1.875,2.547 z m 5.43,3.328 h -1.047 v -9.094 h 1.047 z m 7.078,0 h -1.047 v -3.375 c -0.437,0.656 -1.141,1.015 -2,1.015 -1.703,0 -2.812,-1.359 -2.812,-3.453 0,-2.203 1.078,-3.562 2.843,-3.562 0.891,0 1.516,0.328 2.078,1.14 v -0.859 H 97 Z m -2.875,-3.344 c 1.125,0 1.828,-1 1.828,-2.547 0,-1.515 -0.719,-2.515 -1.812,-2.515 -1.157,0 -1.922,1.015 -1.922,2.531 0,1.531 0.765,2.531 1.906,2.531 z"
                     style="fill:#000000;fill-opacity:1;fill-rule:nonzero;stroke:none"
                     id="path48995" />
                  <path
                     d="m 110.266,248.148 c -0.078,0.969 -0.297,1.61 -0.672,2.172 -0.688,0.938 -1.906,1.485 -3.313,1.485 -2.703,0 -4.469,-2.141 -4.469,-5.485 0,-3.25 1.735,-5.297 4.454,-5.297 2.406,0 3.922,1.438 4.109,3.891 h -1.609 c -0.266,-1.609 -1.094,-2.422 -2.454,-2.422 -1.765,0 -2.828,1.453 -2.828,3.828 0,2.516 1.032,4.016 2.782,4.016 1.343,0 2.187,-0.797 2.39,-2.188 z m 10.836,-5.75 c -0.188,-0.031 -0.25,-0.031 -0.36,-0.031 -0.547,0 -0.859,0.281 -0.859,0.781 v 5.922 c 0,1.782 -1.297,2.735 -3.781,2.735 -1.454,0 -2.672,-0.422 -3.344,-1.172 -0.453,-0.516 -0.656,-1.094 -0.688,-2.078 h 1.61 c 0.14,1.218 0.859,1.781 2.359,1.781 1.438,0 2.25,-0.547 2.25,-1.5 v -0.422 c 0,-0.672 -0.406,-0.969 -1.672,-1.109 -2.265,-0.297 -2.609,-0.375 -3.219,-0.625 -1.171,-0.469 -1.765,-1.375 -1.765,-2.688 0,-1.828 1.265,-2.969 3.297,-2.969 1.265,0 2.281,0.438 3.422,1.469 0.109,-1.015 0.609,-1.469 1.64,-1.469 0.328,0 0.578,0.032 1.11,0.172 z m -2.813,2.235 c 0,-0.547 -0.156,-0.875 -0.625,-1.313 -0.656,-0.593 -1.453,-0.906 -2.391,-0.906 -1.25,0 -1.968,0.609 -1.968,1.625 0,1.047 0.703,1.594 2.406,1.844 1.703,0.219 2.047,0.297 2.578,0.547 z m 4.563,6.89 v -10.062 h 1.609 v 5.547 c 0,2.062 1.078,3.406 2.734,3.406 1.266,0 2.078,-0.766 2.078,-1.984 v -6.969 h 1.594 v 7.609 c 0,1.672 -1.25,2.735 -3.187,2.735 -1.5,0 -2.469,-0.563 -3.344,-1.969 v 1.687 z m 16.011,0 v -10.062 h 1.61 v 6.312 c 0,1.469 1.062,2.641 2.359,2.641 1.203,0 1.875,-0.734 1.875,-2.016 v -6.937 h 1.609 v 6.312 c 0,1.469 1.047,2.641 2.36,2.641 1.172,0 1.859,-0.75 1.859,-2.016 v -6.937 h 1.625 v 7.547 c 0,1.812 -1.047,2.797 -2.922,2.797 -1.343,0 -2.156,-0.391 -3.093,-1.532 -0.594,1.079 -1.407,1.532 -2.704,1.532 -1.343,0 -2.234,-0.5 -3.093,-1.703 v 1.421 z m 24.949,-9.125 c -0.187,-0.031 -0.25,-0.031 -0.359,-0.031 -0.547,0 -0.859,0.281 -0.859,0.781 v 5.922 c 0,1.782 -1.297,2.735 -3.782,2.735 -1.453,0 -2.671,-0.422 -3.343,-1.172 -0.453,-0.516 -0.657,-1.094 -0.688,-2.078 h 1.61 c 0.14,1.218 0.859,1.781 2.359,1.781 1.438,0 2.25,-0.547 2.25,-1.5 v -0.422 c 0,-0.672 -0.406,-0.969 -1.672,-1.109 -2.266,-0.297 -2.609,-0.375 -3.219,-0.625 -1.171,-0.469 -1.765,-1.375 -1.765,-2.688 0,-1.828 1.265,-2.969 3.297,-2.969 1.265,0 2.281,0.438 3.421,1.469 0.11,-1.015 0.61,-1.469 1.641,-1.469 0.328,0 0.578,0.032 1.109,0.172 z M 161,244.633 c 0,-0.547 -0.156,-0.875 -0.625,-1.313 -0.656,-0.593 -1.453,-0.906 -2.391,-0.906 -1.25,0 -1.968,0.609 -1.968,1.625 0,1.047 0.703,1.594 2.406,1.844 1.703,0.219 2.047,0.297 2.578,0.547 z m 5.922,10.828 h -1.594 v -14 h 1.594 v 3.922 l 1.562,1.531 3.391,-5.453 h 1.984 l -4.109,6.594 3.5,3.468 h -2.062 l -4.266,-4.265 z m 16.742,-9.5 c 0,1.531 -0.109,2.453 -0.391,3.203 -0.656,1.656 -2.187,2.641 -4.078,2.641 -2.797,0 -4.609,-2.141 -4.609,-5.453 0,-3.297 1.75,-5.329 4.578,-5.329 2.297,0 3.891,1.297 4.297,3.485 h -1.609 c -0.454,-1.313 -1.344,-2.016 -2.641,-2.016 -1.016,0 -1.875,0.469 -2.422,1.313 -0.375,0.578 -0.516,1.156 -0.531,2.156 z m -7.359,1.297 c 0.125,1.859 1.265,3.078 2.875,3.078 1.578,0 2.781,-1.313 2.781,-2.953 0,-0.047 0,-0.078 -0.016,-0.125 z"
                     style="fill:#000000;fill-opacity:1;fill-rule:nonzero;stroke:none"
                     id="path48997" />
                  <path
                     d="m 69.133,231.461 h -1.594 v -5.203 c -0.672,1.015 -1.734,1.547 -3.094,1.547 -2.609,0 -4.312,-2.094 -4.312,-5.297 0,-3.391 1.672,-5.485 4.375,-5.485 1.39,0 2.344,0.516 3.203,1.766 v -1.328 h 1.422 z m -4.406,-5.141 c 1.718,0 2.812,-1.547 2.812,-3.937 0,-2.328 -1.109,-3.86 -2.797,-3.86 -1.765,0 -2.937,1.547 -2.937,3.891 0,2.344 1.172,3.906 2.922,3.906 z m 15.437,-4.359 c 0,1.531 -0.109,2.453 -0.391,3.203 -0.656,1.656 -2.187,2.641 -4.078,2.641 -2.797,0 -4.609,-2.141 -4.609,-5.453 0,-3.297 1.75,-5.329 4.578,-5.329 2.297,0 3.891,1.297 4.297,3.485 h -1.609 c -0.454,-1.313 -1.344,-2.016 -2.641,-2.016 -1.016,0 -1.875,0.469 -2.422,1.313 -0.375,0.578 -0.516,1.156 -0.531,2.156 z m -7.359,1.297 c 0.125,1.859 1.265,3.078 2.875,3.078 1.578,0 2.781,-1.313 2.781,-2.953 0,-0.047 0,-0.078 -0.016,-0.125 z m 17.25,0.89 c -0.078,0.969 -0.297,1.61 -0.672,2.172 -0.688,0.938 -1.906,1.485 -3.313,1.485 -2.703,0 -4.468,-2.141 -4.468,-5.485 0,-3.25 1.734,-5.297 4.453,-5.297 2.406,0 3.922,1.438 4.109,3.891 h -1.609 c -0.266,-1.609 -1.094,-2.422 -2.453,-2.422 -1.766,0 -2.829,1.453 -2.829,3.828 0,2.516 1.032,4.016 2.782,4.016 1.343,0 2.187,-0.797 2.39,-2.188 z m 3.429,3.375 h -1.593 v -10.062 h 1.593 z m 0,3.938 h -1.609 v -2.016 h 1.609 z m 9.805,-6.734 c -0.016,1.968 -1.312,3.078 -3.641,3.078 -2.343,0 -3.859,-1.203 -3.859,-3.063 0,-1.578 0.797,-2.328 3.188,-2.906 l 1.5,-0.359 c 1.109,-0.266 1.546,-0.672 1.546,-1.407 0,-0.937 -0.937,-1.578 -2.343,-1.578 -0.86,0 -1.594,0.25 -2,0.672 -0.25,0.297 -0.36,0.578 -0.453,1.297 h -1.688 c 0.078,-2.328 1.375,-3.438 4.016,-3.438 2.531,0 4.14,1.25 4.14,3.188 0,1.5 -0.843,2.312 -2.843,2.797 l -1.532,0.375 c -1.312,0.297 -1.859,0.719 -1.859,1.437 0,0.922 0.828,1.516 2.125,1.516 1.281,0 1.984,-0.563 2.016,-1.609 z m 4.07,2.796 h -1.593 v -10.062 h 1.593 z m 0,3.938 h -1.609 v -2.016 h 1.609 z m 6.618,-3.656 c -2.813,0 -4.532,-2.016 -4.532,-5.391 0,-3.375 1.688,-5.391 4.563,-5.391 2.812,0 4.547,2.016 4.547,5.313 0,3.484 -1.672,5.469 -4.578,5.469 z m 0.031,-1.469 c 1.797,0 2.875,-1.484 2.875,-3.984 0,-2.36 -1.11,-3.86 -2.875,-3.86 -1.797,0 -2.891,1.485 -2.891,3.922 0,2.422 1.094,3.922 2.891,3.922 z m 6.781,1.187 v -10.062 h 1.609 v 5.547 c 0,2.062 1.079,3.406 2.735,3.406 1.265,0 2.078,-0.766 2.078,-1.984 v -6.969 h 1.594 v 7.609 c 0,1.672 -1.25,2.735 -3.188,2.735 -1.5,0 -2.469,-0.563 -3.344,-1.969 v 1.687 z m 17.75,-2.796 c -0.016,1.968 -1.312,3.078 -3.641,3.078 -2.343,0 -3.859,-1.203 -3.859,-3.063 0,-1.578 0.797,-2.328 3.188,-2.906 l 1.5,-0.359 c 1.109,-0.266 1.546,-0.672 1.546,-1.407 0,-0.937 -0.937,-1.578 -2.343,-1.578 -0.86,0 -1.594,0.25 -2,0.672 -0.25,0.297 -0.36,0.578 -0.453,1.297 h -1.688 c 0.078,-2.328 1.375,-3.438 4.016,-3.438 2.531,0 4.14,1.25 4.14,3.188 0,1.5 -0.843,2.312 -2.843,2.797 l -1.532,0.375 c -1.312,0.297 -1.859,0.719 -1.859,1.437 0,0.922 0.828,1.516 2.125,1.516 1.281,0 1.984,-0.563 2.016,-1.609 z m 16.801,-6.329 c -0.188,-0.031 -0.25,-0.031 -0.36,-0.031 -0.546,0 -0.859,0.281 -0.859,0.781 v 5.922 c 0,1.782 -1.297,2.735 -3.781,2.735 -1.453,0 -2.672,-0.422 -3.344,-1.172 -0.453,-0.516 -0.656,-1.094 -0.687,-2.078 h 1.609 c 0.141,1.218 0.859,1.781 2.359,1.781 1.438,0 2.25,-0.547 2.25,-1.5 v -0.422 c 0,-0.672 -0.406,-0.969 -1.672,-1.109 -2.265,-0.297 -2.609,-0.375 -3.218,-0.625 -1.172,-0.469 -1.766,-1.375 -1.766,-2.688 0,-1.828 1.266,-2.969 3.297,-2.969 1.266,0 2.281,0.438 3.422,1.469 0.109,-1.015 0.609,-1.469 1.64,-1.469 0.329,0 0.579,0.032 1.11,0.172 z m -2.813,2.235 c 0,-0.547 -0.156,-0.875 -0.625,-1.313 -0.656,-0.593 -1.453,-0.906 -2.39,-0.906 -1.25,0 -1.969,0.609 -1.969,1.625 0,1.047 0.703,1.594 2.406,1.844 1.703,0.219 2.047,0.297 2.578,0.547 z m 6.141,10.828 h -1.609 v -14 h 1.609 z m 6.574,-3.656 c -2.812,0 -4.531,-2.016 -4.531,-5.391 0,-3.375 1.687,-5.391 4.562,-5.391 2.813,0 4.547,2.016 4.547,5.313 0,3.484 -1.672,5.469 -4.578,5.469 z m 0.031,-1.469 c 1.797,0 2.875,-1.484 2.875,-3.984 0,-2.36 -1.109,-3.86 -2.875,-3.86 -1.796,0 -2.89,1.485 -2.89,3.922 0,2.422 1.094,3.922 2.89,3.922 z m 6.782,1.187 v -10.062 h 1.609 v 5.547 c 0,2.062 1.078,3.406 2.734,3.406 1.266,0 2.079,-0.766 2.079,-1.984 v -6.969 h 1.593 v 7.609 c 0,1.672 -1.25,2.735 -3.187,2.735 -1.5,0 -2.469,-0.563 -3.344,-1.969 v 1.687 z m 19.187,-5.562 c 0,1.531 -0.109,2.453 -0.39,3.203 -0.657,1.656 -2.188,2.641 -4.079,2.641 -2.796,0 -4.609,-2.141 -4.609,-5.453 0,-3.297 1.75,-5.329 4.578,-5.329 2.297,0 3.891,1.297 4.297,3.485 h -1.609 c -0.453,-1.313 -1.344,-2.016 -2.641,-2.016 -1.016,0 -1.875,0.469 -2.422,1.313 -0.375,0.578 -0.515,1.156 -0.531,2.156 z m -7.359,1.297 c 0.125,1.859 1.265,3.078 2.875,3.078 1.578,0 2.781,-1.313 2.781,-2.953 0,-0.047 0,-0.078 -0.016,-0.125 z"
                     style="fill:#000000;fill-opacity:1;fill-rule:nonzero;stroke:none"
                     id="path48999" />
                  <g
                     transform="matrix(1,0,0,-1,0,280)"
                     id="g49003">
                    <path
                       d="M 272,72 H 504"
                       style="fill:none;stroke:#000000;stroke-width:2.4;stroke-linecap:butt;stroke-linejoin:miter;stroke-miterlimit:4;stroke-dasharray:none;stroke-opacity:1"
                       id="path49001" />
                  </g>
                  <g
                     transform="matrix(1,0,0,-1,0,280)"
                     id="g49007">
                    <path
                       d="M 272,82.848 V 61.152"
                       style="fill:none;stroke:#000000;stroke-width:2.4;stroke-linecap:butt;stroke-linejoin:miter;stroke-miterlimit:4;stroke-dasharray:none;stroke-opacity:1"
                       id="path49005" />
                  </g>
                  <path
                     d="m 312.008,251.117 c -0.563,3.078 -2.328,4.578 -5.406,4.578 -1.875,0 -3.391,-0.593 -4.438,-1.75 -1.266,-1.39 -1.953,-3.375 -1.953,-5.64 0,-2.313 0.703,-4.297 2.031,-5.657 1.078,-1.109 2.469,-1.625 4.281,-1.625 3.422,0 5.344,1.844 5.766,5.547 h -1.844 c -0.156,-0.968 -0.343,-1.609 -0.64,-2.172 -0.563,-1.156 -1.766,-1.796 -3.25,-1.796 -2.797,0 -4.563,2.218 -4.563,5.718 0,3.594 1.688,5.797 4.406,5.797 1.125,0 2.188,-0.344 2.766,-0.89 0.516,-0.469 0.797,-1.063 1.016,-2.11 z"
                     style="fill:#000000;fill-opacity:1;fill-rule:nonzero;stroke:none"
                     id="path49009" />
                  <path
                     d="m 314.039,244.168 v -6.547 h 1.047 v 3.609 c 0,1.329 0.703,2.204 1.781,2.204 0.813,0 1.344,-0.5 1.344,-1.282 v -4.531 h 1.031 v 4.938 c 0,1.093 -0.812,1.796 -2.078,1.796 -0.969,0 -1.594,-0.375 -2.172,-1.296 v 1.109 z m 12.481,-3.625 c 0,1 -0.079,1.594 -0.266,2.078 -0.422,1.078 -1.422,1.734 -2.641,1.734 -1.828,0 -3,-1.406 -3,-3.546 0,-2.157 1.141,-3.469 2.969,-3.469 1.5,0 2.531,0.844 2.797,2.265 h -1.047 c -0.281,-0.859 -0.875,-1.312 -1.703,-1.312 -0.672,0 -1.234,0.297 -1.578,0.844 -0.25,0.375 -0.344,0.75 -0.36,1.406 z m -4.797,0.844 c 0.093,1.218 0.828,2 1.875,2 1.015,0 1.812,-0.844 1.812,-1.922 0,-0.031 0,-0.047 -0.015,-0.078 z m 12.257,-3.766 1.922,6.547 h -1.172 l -1.312,-5.094 -1.281,5.094 h -1.266 l -1.25,-5.094 -1.344,5.094 h -1.14 l 1.89,-6.547 h 1.172 l 1.266,5.125 1.328,-5.125 z"
                     style="fill:#000000;fill-opacity:1;fill-rule:nonzero;stroke:none"
                     id="path49011" />
                  <path
                     d="m 348.586,248.148 c -0.078,0.969 -0.297,1.61 -0.672,2.172 -0.687,0.938 -1.906,1.485 -3.312,1.485 -2.704,0 -4.469,-2.141 -4.469,-5.485 0,-3.25 1.734,-5.297 4.453,-5.297 2.406,0 3.922,1.438 4.109,3.891 h -1.609 c -0.266,-1.609 -1.094,-2.422 -2.453,-2.422 -1.766,0 -2.828,1.453 -2.828,3.828 0,2.516 1.031,4.016 2.781,4.016 1.344,0 2.187,-0.797 2.391,-2.188 z m 10.836,-5.75 c -0.188,-0.031 -0.25,-0.031 -0.36,-0.031 -0.546,0 -0.859,0.281 -0.859,0.781 v 5.922 c 0,1.782 -1.297,2.735 -3.781,2.735 -1.453,0 -2.672,-0.422 -3.344,-1.172 -0.453,-0.516 -0.656,-1.094 -0.687,-2.078 H 352 c 0.141,1.218 0.859,1.781 2.359,1.781 1.438,0 2.25,-0.547 2.25,-1.5 v -0.422 c 0,-0.672 -0.406,-0.969 -1.671,-1.109 -2.266,-0.297 -2.61,-0.375 -3.219,-0.625 -1.172,-0.469 -1.766,-1.375 -1.766,-2.688 0,-1.828 1.266,-2.969 3.297,-2.969 1.266,0 2.281,0.438 3.422,1.469 0.109,-1.015 0.609,-1.469 1.64,-1.469 0.329,0 0.579,0.032 1.11,0.172 z m -2.813,2.235 c 0,-0.547 -0.156,-0.875 -0.625,-1.313 -0.656,-0.593 -1.453,-0.906 -2.39,-0.906 -1.25,0 -1.969,0.609 -1.969,1.625 0,1.047 0.703,1.594 2.406,1.844 1.703,0.219 2.047,0.297 2.578,0.547 z m 4.563,6.89 v -10.062 h 1.609 v 5.547 c 0,2.062 1.078,3.406 2.735,3.406 1.265,0 2.078,-0.766 2.078,-1.984 v -6.969 h 1.594 v 7.609 c 0,1.672 -1.25,2.735 -3.188,2.735 -1.5,0 -2.469,-0.563 -3.344,-1.969 v 1.687 z m 16.012,0 v -10.062 h 1.609 v 6.312 c 0,1.469 1.062,2.641 2.359,2.641 1.203,0 1.875,-0.734 1.875,-2.016 v -6.937 h 1.61 v 6.312 c 0,1.469 1.047,2.641 2.359,2.641 1.172,0 1.859,-0.75 1.859,-2.016 v -6.937 h 1.625 v 7.547 c 0,1.812 -1.046,2.797 -2.921,2.797 -1.344,0 -2.157,-0.391 -3.094,-1.532 -0.594,1.079 -1.406,1.532 -2.703,1.532 -1.344,0 -2.235,-0.5 -3.094,-1.703 v 1.421 z m 24.949,-9.125 c -0.188,-0.031 -0.25,-0.031 -0.36,-0.031 -0.546,0 -0.859,0.281 -0.859,0.781 v 5.922 c 0,1.782 -1.297,2.735 -3.781,2.735 -1.453,0 -2.672,-0.422 -3.344,-1.172 -0.453,-0.516 -0.656,-1.094 -0.687,-2.078 h 1.609 c 0.141,1.218 0.859,1.781 2.359,1.781 1.438,0 2.25,-0.547 2.25,-1.5 v -0.422 c 0,-0.672 -0.406,-0.969 -1.672,-1.109 -2.265,-0.297 -2.609,-0.375 -3.218,-0.625 -1.172,-0.469 -1.766,-1.375 -1.766,-2.688 0,-1.828 1.266,-2.969 3.297,-2.969 1.266,0 2.281,0.438 3.422,1.469 0.109,-1.015 0.609,-1.469 1.64,-1.469 0.329,0 0.579,0.032 1.11,0.172 z m -2.813,2.235 c 0,-0.547 -0.156,-0.875 -0.625,-1.313 -0.656,-0.593 -1.453,-0.906 -2.39,-0.906 -1.25,0 -1.969,0.609 -1.969,1.625 0,1.047 0.703,1.594 2.406,1.844 1.703,0.219 2.047,0.297 2.578,0.547 z m 5.922,10.828 h -1.594 v -14 h 1.594 v 3.922 l 1.563,1.531 3.39,-5.453 h 1.985 l -4.11,6.594 3.5,3.468 h -2.062 l -4.266,-4.265 z m 16.742,-9.5 c 0,1.531 -0.109,2.453 -0.39,3.203 -0.656,1.656 -2.188,2.641 -4.078,2.641 -2.797,0 -4.61,-2.141 -4.61,-5.453 0,-3.297 1.75,-5.329 4.578,-5.329 2.297,0 3.891,1.297 4.297,3.485 h -1.609 c -0.453,-1.313 -1.344,-2.016 -2.641,-2.016 -1.015,0 -1.875,0.469 -2.422,1.313 -0.375,0.578 -0.515,1.156 -0.531,2.156 z m -7.359,1.297 c 0.125,1.859 1.266,3.078 2.875,3.078 1.578,0 2.781,-1.313 2.781,-2.953 0,-0.047 0,-0.078 -0.015,-0.125 z"
                     style="fill:#000000;fill-opacity:1;fill-rule:nonzero;stroke:none"
                     id="path49013" />
                  <path
                     d="m 304.336,231.461 h -1.594 v -5.203 c -0.672,1.015 -1.734,1.547 -3.094,1.547 -2.609,0 -4.312,-2.094 -4.312,-5.297 0,-3.391 1.672,-5.485 4.375,-5.485 1.391,0 2.344,0.516 3.203,1.766 v -1.328 h 1.422 z m -4.406,-5.141 c 1.718,0 2.812,-1.547 2.812,-3.937 0,-2.328 -1.109,-3.86 -2.797,-3.86 -1.765,0 -2.937,1.547 -2.937,3.891 0,2.344 1.172,3.906 2.922,3.906 z m 15.437,-4.359 c 0,1.531 -0.109,2.453 -0.39,3.203 -0.657,1.656 -2.188,2.641 -4.079,2.641 -2.796,0 -4.609,-2.141 -4.609,-5.453 0,-3.297 1.75,-5.329 4.578,-5.329 2.297,0 3.891,1.297 4.297,3.485 h -1.609 c -0.453,-1.313 -1.344,-2.016 -2.641,-2.016 -1.016,0 -1.875,0.469 -2.422,1.313 -0.375,0.578 -0.515,1.156 -0.531,2.156 z m -7.359,1.297 c 0.125,1.859 1.265,3.078 2.875,3.078 1.578,0 2.781,-1.313 2.781,-2.953 0,-0.047 0,-0.078 -0.016,-0.125 z m 17.25,0.89 c -0.078,0.969 -0.297,1.61 -0.672,2.172 -0.688,0.938 -1.906,1.485 -3.313,1.485 -2.703,0 -4.468,-2.141 -4.468,-5.485 0,-3.25 1.734,-5.297 4.453,-5.297 2.406,0 3.922,1.438 4.109,3.891 h -1.609 c -0.266,-1.609 -1.094,-2.422 -2.453,-2.422 -1.766,0 -2.828,1.453 -2.828,3.828 0,2.516 1.031,4.016 2.781,4.016 1.344,0 2.187,-0.797 2.39,-2.188 z m 3.426,3.375 h -1.594 v -10.062 h 1.594 z m 0,3.938 h -1.61 v -2.016 h 1.61 z m 9.808,-6.734 c -0.015,1.968 -1.312,3.078 -3.64,3.078 -2.344,0 -3.86,-1.203 -3.86,-3.063 0,-1.578 0.797,-2.328 3.188,-2.906 l 1.5,-0.359 c 1.109,-0.266 1.547,-0.672 1.547,-1.407 0,-0.937 -0.938,-1.578 -2.344,-1.578 -0.86,0 -1.594,0.25 -2,0.672 -0.25,0.297 -0.36,0.578 -0.453,1.297 h -1.688 c 0.078,-2.328 1.375,-3.438 4.016,-3.438 2.531,0 4.14,1.25 4.14,3.188 0,1.5 -0.843,2.312 -2.843,2.797 l -1.532,0.375 c -1.312,0.297 -1.859,0.719 -1.859,1.437 0,0.922 0.828,1.516 2.125,1.516 1.281,0 1.984,-0.563 2.016,-1.609 z m 4.067,2.796 h -1.594 v -10.062 h 1.594 z m 0,3.938 h -1.61 v -2.016 h 1.61 z m 6.621,-3.656 c -2.813,0 -4.532,-2.016 -4.532,-5.391 0,-3.375 1.688,-5.391 4.563,-5.391 2.812,0 4.547,2.016 4.547,5.313 0,3.484 -1.672,5.469 -4.578,5.469 z m 0.031,-1.469 c 1.797,0 2.875,-1.484 2.875,-3.984 0,-2.36 -1.109,-3.86 -2.875,-3.86 -1.797,0 -2.891,1.485 -2.891,3.922 0,2.422 1.094,3.922 2.891,3.922 z m 6.781,1.187 v -10.062 h 1.61 v 5.547 c 0,2.062 1.078,3.406 2.734,3.406 1.266,0 2.078,-0.766 2.078,-1.984 v -6.969 h 1.594 v 7.609 c 0,1.672 -1.25,2.735 -3.188,2.735 -1.5,0 -2.468,-0.563 -3.343,-1.969 v 1.687 z m 17.75,-2.796 c -0.015,1.968 -1.312,3.078 -3.64,3.078 -2.344,0 -3.86,-1.203 -3.86,-3.063 0,-1.578 0.797,-2.328 3.188,-2.906 l 1.5,-0.359 c 1.109,-0.266 1.547,-0.672 1.547,-1.407 0,-0.937 -0.938,-1.578 -2.344,-1.578 -0.86,0 -1.594,0.25 -2,0.672 -0.25,0.297 -0.36,0.578 -0.453,1.297 h -1.688 c 0.078,-2.328 1.375,-3.438 4.016,-3.438 2.531,0 4.14,1.25 4.14,3.188 0,1.5 -0.843,2.312 -2.843,2.797 l -1.532,0.375 c -1.312,0.297 -1.859,0.719 -1.859,1.437 0,0.922 0.828,1.516 2.125,1.516 1.281,0 1.984,-0.563 2.016,-1.609 z m 16.797,-6.329 c -0.187,-0.031 -0.25,-0.031 -0.359,-0.031 -0.547,0 -0.86,0.281 -0.86,0.781 v 5.922 c 0,1.782 -1.297,2.735 -3.781,2.735 -1.453,0 -2.672,-0.422 -3.344,-1.172 -0.453,-0.516 -0.656,-1.094 -0.687,-2.078 h 1.609 c 0.141,1.218 0.86,1.781 2.36,1.781 1.437,0 2.25,-0.547 2.25,-1.5 v -0.422 c 0,-0.672 -0.407,-0.969 -1.672,-1.109 -2.266,-0.297 -2.61,-0.375 -3.219,-0.625 -1.172,-0.469 -1.766,-1.375 -1.766,-2.688 0,-1.828 1.266,-2.969 3.297,-2.969 1.266,0 2.281,0.438 3.422,1.469 0.109,-1.015 0.609,-1.469 1.641,-1.469 0.328,0 0.578,0.032 1.109,0.172 z m -2.812,2.235 c 0,-0.547 -0.157,-0.875 -0.625,-1.313 -0.657,-0.593 -1.454,-0.906 -2.391,-0.906 -1.25,0 -1.969,0.609 -1.969,1.625 0,1.047 0.703,1.594 2.406,1.844 1.704,0.219 2.047,0.297 2.579,0.547 z m 6.14,10.828 h -1.609 v -14 h 1.609 z m 6.574,-3.656 c -2.812,0 -4.531,-2.016 -4.531,-5.391 0,-3.375 1.688,-5.391 4.563,-5.391 2.812,0 4.547,2.016 4.547,5.313 0,3.484 -1.672,5.469 -4.579,5.469 z m 0.032,-1.469 c 1.797,0 2.875,-1.484 2.875,-3.984 0,-2.36 -1.11,-3.86 -2.875,-3.86 -1.797,0 -2.891,1.485 -2.891,3.922 0,2.422 1.094,3.922 2.891,3.922 z m 6.781,1.187 v -10.062 h 1.609 v 5.547 c 0,2.062 1.078,3.406 2.735,3.406 1.265,0 2.078,-0.766 2.078,-1.984 v -6.969 h 1.594 v 7.609 c 0,1.672 -1.25,2.735 -3.188,2.735 -1.5,0 -2.469,-0.563 -3.344,-1.969 v 1.687 z m 19.187,-5.562 c 0,1.531 -0.109,2.453 -0.39,3.203 -0.656,1.656 -2.188,2.641 -4.078,2.641 -2.797,0 -4.61,-2.141 -4.61,-5.453 0,-3.297 1.75,-5.329 4.578,-5.329 2.297,0 3.891,1.297 4.297,3.485 h -1.609 c -0.453,-1.313 -1.344,-2.016 -2.641,-2.016 -1.015,0 -1.875,0.469 -2.422,1.313 -0.375,0.578 -0.515,1.156 -0.531,2.156 z m -7.359,1.297 c 0.125,1.859 1.266,3.078 2.875,3.078 1.578,0 2.781,-1.313 2.781,-2.953 0,-0.047 0,-0.078 -0.015,-0.125 z"
                     style="fill:#000000;fill-opacity:1;fill-rule:nonzero;stroke:none"
                     id="path49015" />
                </g>
              </g>
            </g>
          </g>
        </g>
      </g>
    </g>
  </g>
</svg>
