<?xml version="1.0" encoding="UTF-8" standalone="no"?>
<!-- Created with Inkscape (http://www.inkscape.org/) -->

<svg
   width="1050"
   height="450"
   viewBox="0 0 277.8125 119.0625"
   version="1.1"
   id="svg5"
   inkscape:version="1.1.2 (0a00cf5339, 2022-02-04)"
   sodipodi:docname="raft-paper.svg"
   xmlns:inkscape="http://www.inkscape.org/namespaces/inkscape"
   xmlns:sodipodi="http://sodipodi.sourceforge.net/DTD/sodipodi-0.dtd"
   xmlns:xlink="http://www.w3.org/1999/xlink"
   xmlns="http://www.w3.org/2000/svg"
   xmlns:svg="http://www.w3.org/2000/svg">
  <sodipodi:namedview
     id="namedview7"
     pagecolor="#ffffff"
     bordercolor="#666666"
     borderopacity="1.0"
     inkscape:pageshadow="2"
     inkscape:pageopacity="0.0"
     inkscape:pagecheckerboard="true"
     inkscape:document-units="px"
     showgrid="false"
     units="px"
     inkscape:zoom="0.86245023"
     inkscape:cx="823.23591"
     inkscape:cy="336.83103"
     inkscape:window-width="1846"
     inkscape:window-height="1016"
     inkscape:window-x="74"
     inkscape:window-y="27"
     inkscape:window-maximized="1"
     inkscape:current-layer="layer1"
     borderlayer="true"
     showborder="true"
     inkscape:showpageshadow="false"
     showguides="true"
     inkscape:guide-bbox="true"
     inkscape:snap-object-midpoints="false"
     inkscape:snap-center="true" />
  <defs
     id="defs2">
    <linearGradient
       inkscape:collect="always"
       id="linearGradient28485">
      <stop
         style="stop-color:#ffffff;stop-opacity:1"
         offset="0"
         id="stop28481" />
      <stop
         style="stop-color:#ffffff;stop-opacity:0"
         offset="1"
         id="stop28483" />
    </linearGradient>
    <clipPath
       clipPathUnits="userSpaceOnUse"
       id="clipPath1734">
      <path
         d="M 0,0.028 H 595.275 V 841.889 H 0 Z"
         clip-rule="evenodd"
         id="path1732" />
    </clipPath>
    <clipPath
       clipPathUnits="userSpaceOnUse"
       id="clipPath5199">
      <path
         d="M 0,0.028 H 595.275 V 841.889 H 0 Z"
         clip-rule="evenodd"
         id="path5197" />
    </clipPath>
    <clipPath
       clipPathUnits="userSpaceOnUse"
       id="clipPath6407">
      <path
         d="M 0,0.028 H 595.275 V 841.889 H 0 Z"
         clip-rule="evenodd"
         id="path6405" />
    </clipPath>
    <clipPath
       clipPathUnits="userSpaceOnUse"
       id="clipPath23707">
      <path
         d="M 0,0.028 H 595.275 V 841.889 H 0 Z"
         clip-rule="evenodd"
         id="path23705" />
    </clipPath>
    <clipPath
       clipPathUnits="userSpaceOnUse"
       id="clipPath24678">
      <path
         d="M 0,0 H 488 V 300 H 0 Z"
         id="path24676" />
    </clipPath>
    <clipPath
       clipPathUnits="userSpaceOnUse"
       id="clipPath24678-7">
      <path
         d="M 0,0 H 488 V 300 H 0 Z"
         id="path24676-5" />
    </clipPath>
    <linearGradient
       inkscape:collect="always"
       xlink:href="#linearGradient28485"
       id="linearGradient28487-0"
       x1="145.97867"
       y1="112.77585"
       x2="145.97867"
       y2="91.844292"
       gradientUnits="userSpaceOnUse"
       gradientTransform="matrix(1.5897377,0,0,1.0058003,-81.87411,-7.6733825e-4)" />
  </defs>
  <g
     inkscape:label="Layer 1"
     inkscape:groupmode="layer"
     id="layer1">
    <g
       id="g5193"
       transform="matrix(0.35277777,0,0,-0.35277777,168.10312,306.57428)">
      <g
         id="g5195"
         clip-path="url(#clipPath5199)" />
    </g>
    <g
       id="g27387"
       transform="matrix(0.03220712,0,0,-0.03220712,39.212565,246.45161)">
      <g
         id="g27389"
         transform="scale(10)">
        <text
           transform="matrix(1,0,0,-1,111.24,704.16)"
           style="font-variant:normal;font-size:17.2154px;font-family:'Nimbus Roman';-inkscape-font-specification:NimbusRomNo9L-Medi;writing-mode:lr-tb;fill:#000000;fill-opacity:1;fill-rule:nonzero;stroke:none"
           id="text27395"><tspan
             x="0 6.7199841 20.639788 30.239761 37.91975 46.559727 53.879562 61.559551 75.239662 83.879654 93.959541 102.59952 116.39935 128.87933 138.47932 148.0793 155.75929 163.43925 170.15924 175.91924 184.55922 194.15919 203.75919 212.39919 221.99918 226.79916 238.31906 250.79904 259.43903 269.039 275.75897 283.43896 293.03897 299.75894 309.35892 320.15872 332.6387 337.43869 346.0787 354.71869 362.39865 367.19864 372.95862 382.55859"
             y="0"
             sodipodi:role="line"
             id="tspan27391">InSearchofanUnderstandableConsensusAlgorithm</tspan><tspan
             x="127.68 133.44 144.95998 153.59995 159.35995 167.03993 176.63992 186.23991 193.91988 207.59978 218.39977 226.07976 233.75975 240.47972 245.27972 253.91969 263.51968"
             y="21.8402"
             sodipodi:role="line"
             id="tspan27393">(ExtendedVersion)</tspan></text>
        <text
           transform="matrix(1,0,0,-1,224.7602,662.5198)"
           style="font-variant:normal;font-size:11.9552px;font-family:'Nimbus Roman';-inkscape-font-specification:NimbusRomNo9L-Regu;writing-mode:lr-tb;fill:#000000;fill-opacity:1;fill-rule:nonzero;stroke:none"
           id="text27401"><tspan
             x="0 8.6400042 12.000025 17.160185 23.160196 32.040291 40.680294 46.680309 52.680321 57.960327 61.920341 70.800507 76.080513 82.080528 91.080544 95.760559 101.76057 107.76059 116.64075 125.28075 131.28078 135.96078 139.3208 144.60078 148.56081 154.56082 160.56082 166.56084"
             y="0"
             sodipodi:role="line"
             id="tspan27397">DiegoOngaroandJohnOusterhout</tspan><tspan
             x="36.239799 42.839821 46.199841 51.479824 57.479836 61.43985 67.439865 71.399849 80.399864 89.039871 95.039886 98.160057 104.04015 109.32016 113.28014 117.96016 121.32018 124.68018"
             y="13.9199"
             sodipodi:role="line"
             id="tspan27399">StanfordUniversity</tspan></text>
        <text
           transform="matrix(1,0,0,-1,72,626.9999)"
           style="font-variant:normal;font-size:11.9552px;font-family:'Nimbus Roman';-inkscape-font-specification:NimbusRomNo9L-Medi;writing-mode:lr-tb;fill:#000000;fill-opacity:1;fill-rule:nonzero;stroke:none"
           id="text27405"><tspan
             x="0 8.6400223 15.240043 19.920053 23.880066 29.16008 35.160091 40.440102"
             y="0"
             sodipodi:role="line"
             id="tspan27403">Abstract</tspan></text>
        <text
           transform="matrix(1,0,0,-1,81.96016,614.7601)"
           style="font-variant:normal;font-size:9.96264px;font-family:'Nimbus Roman';-inkscape-font-specification:NimbusRomNo9L-Regu;writing-mode:lr-tb;fill:#000000;fill-opacity:1;fill-rule:nonzero;stroke:none"
           id="text27435"><tspan
             x="0 6.6000004 11.039996 14.399999 19.199999 21.959993 27.960154 34.440231 38.880234 43.920235 48.96022 52.800224 57.240227 62.280228 66.120216 71.160217 76.920311 81.360313 84.120308 89.160301 94.200294 97.560303 100.3203 103.0803 108.12029 117.72031 121.08031 126.12032 131.52032 139.32034 143.76033 148.80034 153.24033 158.28032 161.04033 166.08032 172.80042 179.40041 182.76042 187.20041 192.2404 195.00041 197.76044 202.20042 206.64041 209.40044 213.84042"
             y="0"
             sodipodi:role="line"
             id="tspan27407">Raftisaconsensusalgorithmformanagingareplicated</tspan><tspan
             x="-9.9601603 -7.2001653 -2.1601598 2.8798394 8.2796898 11.639687 17.519527 22.559526 25.919529 30.959528 35.999516 41.039516 45.479515 49.919518 56.51952 63.959518 67.319519 71.759521 75.599525 80.639519 83.399521 89.159515 93.59951 98.639511 103.6795 106.19935 110.99934 115.43935 118.19934 122.63934 127.67935 133.19936 135.95937 143.99936 147.35938 155.15938 160.19937 162.95938 165.71938 168.4794 171.83939 175.1994 180.5994 185.0394 190.07941 195.11938 198.95941 204.23924 208.67924 213.71925"
             y="12"
             sodipodi:role="line"
             id="tspan27409">log.Itproducesaresultequivalentto(multi-)Paxos,and</tspan><tspan
             x="-9.9601603 -7.2001653 -5.89e-06 2.7599888 10.919919 15.359921 23.639841 28.079842 31.200003 36.71999 41.159992 43.919987 48.359989 53.39999 60.480068 64.920067 73.08007 78.480064 82.920067 87.960068 93.000053 96.840057 103.68005 108.48006 113.52005 120.48004 123.24006 126.00005 134.28006 138.12006 140.88008 144.2401 149.28008 153.72008 156.48009 161.52008 164.8801 173.51993 176.27995 184.5598 189.59978 192.3598 195.47972 198.83974 203.27972 206.63974 211.07974 216.11972"
             y="23.8801"
             sodipodi:role="line"
             id="tspan27411">itisaseffcientasPaxos,butitsstructureisdifferent</tspan><tspan
             x="-9.9601603 -6.600163 -3.2401602 1.7998391 13.439839 18.83984 23.279842 28.319841 33.359829 37.199833 43.799992 46.559986 51.599987 54.359982 62.160141 69.960144 74.400146 79.320297 83.7603 91.560143 98.160141 102.60014 105.96014 112.68007 120.48007 125.52006 128.88008 137.16016 142.20013 147.24016 152.28014 156.72015 160.08014 163.92014 166.68016 171.12015 176.16016 181.20015 185.64015 190.68015 193.44017 201.48009 204.2401 209.28009 213.72008"
             y="35.8801"
             sodipodi:role="line"
             id="tspan27413">fromPaxos;thismakesRaftmoreunderstandablethan</tspan><tspan
             x="-9.9601603 -4.5601592 -0.12015751 4.9198418 9.9598475 18.000006 22.440008 27.480007 36.839848 41.27985 44.039845 47.879848 57.239838 62.279839 65.639839 70.559761 75.599762 78.359756 83.399757 87.839745 95.75975 104.51991 109.55991 113.99992 116.75991 119.51991 123.95989 131.51991 134.87993 139.91991 144.9599 149.99991 155.0399 159.47989 162.23991 164.99992 170.03992 179.03984 182.39986 187.43983 195 199.79999 204.83998 207.60001 210.36002 215.40001"
             y="47.760201"
             sodipodi:role="line"
             id="tspan27415">Paxosandalsoprovidesabetterfoundationforbuild-</tspan><tspan
             x="-9.9601603 -7.2001653 -2.1601598 5.0398402 10.079845 13.439842 17.879837 22.319839 25.079845 27.839842 32.279842 36.719833 41.639832 45.479836 50.519836 54.359829 57.119823 61.559826 69.359833 73.199837 77.879677 81.239685 88.439842 93.479843 96.839844 101.87984 106.31983 111.71992 114.47992 121.8 126.23998 131.28 136.31998 140.75999 145.79999 150.23997 156.71991 161.75989 166.7999 171.83989 176.27991 179.63989 183.47989 186.2399 190.6799 195.71991 200.75989 205.19991 210.2399 212.99991 215.7599"
             y="59.760201"
             sodipodi:role="line"
             id="tspan27417">ingpracticalsystems.Inordertoenhanceunderstandabil-</tspan><tspan
             x="-9.9601603 -7.2001653 -4.4401646 -5.98e-06 4.9199142 11.519915 15.95991 19.319914 24.719913 28.559919 32.99992 38.039906 42.479908 45.839912 50.279915 53.039909 57.479908 63.719921 66.479912 71.519913 78.480072 83.399994 87.71991 95.159752 99.599754 102.35975 106.79975 114.59975 119.03975 124.07976 126.83978 133.19962 138.23961 143.99962 148.43962 153.47963 158.51961 162.35963 166.79962 171.8396 175.67963 180.7196 184.5596 189.47971 193.3197 198.35971 202.7997 210.35977 214.79977"
             y="71.760201"
             sodipodi:role="line"
             id="tspan27419">ity,Raftseparatesthekeyelementsofconsensus,suchas</tspan><tspan
             x="-9.9601603 -7.2001653 -2.7601638 1.6798317 6.7198372 11.159832 16.679684 21.119684 23.879679 28.319681 32.75967 35.519676 38.279671 43.319672 48.359657 53.039818 55.799812 60.839813 68.159729 71.519737 75.95974 80.999733 83.759727 86.519722 90.959724 95.399727 98.159721 100.91972 105.95972 110.9997 115.55972 119.99972 125.03973 132.35971 136.19971 140.63972 143.99971 148.43973 151.19972 155.6398 160.3199 164.75989 169.7999 176.99997 179.75999 184.91991 189.35989 194.3999 197.7599 202.79991 206.1599 210.59984 215.03983"
             y="83.640297"
             sodipodi:role="line"
             id="tspan27421">leaderelection,logreplication,andsafety,anditenforces</tspan><tspan
             x="-9.9601603 -2.1601601 1.6798455 4.4398403 7.7998371 12.839843 17.879841 22.919842 27.359842 33.959774 38.999771 43.319923 48.359924 51.719925 56.159927 63.839848 68.879845 75.479698 79.919701 84.959702 89.999687 94.43969 97.79969 102.23969 107.27969 111.59961 119.75976 122.51976 130.91992 134.27994 138.71992 143.75992 148.79993 153.23991 160.91992 163.67993 168.71992 176.51993 181.55991 186.59993 194.39993 199.43991 203.8799 210.35977 215.39975"
             y="95.640297"
             sodipodi:role="line"
             id="tspan27423">astrongerdegreeofcoherencytoreducethenumberof</tspan><tspan
             x="-9.9601603 -6.1201544 -3.3601596 1.0798357 3.8398366 8.2798319 14.999991 17.759987 22.799986 27.239986 32.880058 40.680061 45.720062 49.560055 55.080055 60.120056 67.319893 71.759895 76.799896 81.839882 85.679886 88.43988 93.479881 97.919884 101.27988 105.71989 110.75987 115.91988 122.51988 126.95988 130.7999 135.83987 138.5999 141.35989 148.08006 151.44008 154.80006 159.84009 170.28008 177.60001 182.63998 186.48001 190.92 197.03984 200.87984 203.63986 208.67984 213.71985"
             y="107.6403"
             sodipodi:role="line"
             id="tspan27425">statesthatmustbeconsidered.Resultsfromauserstudy</tspan><tspan
             x="-9.9601603 -4.9201546 -0.48015931 7.3198409 12.35984 17.399845 21.239851 23.999846 27.359848 31.79985 34.559845 41.999844 44.759838 49.799839 54.239841 60.119762 66.719765 71.15976 74.519768 80.399849 83.159843 90.239693 94.679695 99.11969 102.95969 105.71968 110.15968 116.75961 120.11961 125.15963 131.51965 135.35963 138.11966 143.15965 148.19966 152.63965 157.67964 160.43965 167.39975 170.15976 178.31967 181.0797 185.51968 189.95967 193.31969 201.47983 204.23985 209.27985 213.71983"
             y="119.52"
             sodipodi:role="line"
             id="tspan27427">demonstratethatRaftiseasierforstudentstolearnthan</tspan><tspan
             x="-9.9601603 -4.5601592 -0.12015751 4.9198418 9.9598475 13.799847 18.959766 25.559767 29.999769 33.359772 38.759773 43.199772 45.959766 49.799774 57.599613 60.359608 65.399605 69.839607 72.599602 77.639603 82.679588 87.119591 93.479683 100.55976 105.59976 109.7996 119.63944 127.43945 131.87944 136.31946 141.35944 145.79942 150.83943 153.59943 157.43945 167.75938 171.1194 176.15938 182.15939 186.59938 191.63939 196.07938 201.1194 206.15938 208.91937 213.95938"
             y="131.52"
             sodipodi:role="line"
             id="tspan27429">Paxos.Raftalsoincludesanewmechanismforchanging</tspan><tspan
             x="-9.9601603 -7.2001653 -2.1601598 5.5199199 9.9599209 12.719916 17.759914 21.599909 24.359915 28.799906 35.399994 43.200001 47.640003 55.44001 60.479996 64.919998 68.279999 72.120003 77.160004 79.919998 84.959999 90.479988 97.679985 102.71999 105.47998 109.91998 118.1999 123.23989 127.0799 131.5199 138.71982 143.63974 148.55966 152.99965 156.35966 159.11969 163.55968 168.59966 173.63968 176.39967 181.43968 189.35966 197.15968 201.59967 204.35968 209.39967 212.75969 215.51968"
             y="143.4001"
             sodipodi:role="line"
             id="tspan27431">theclustermembership,whichusesoverlappingmajori-</tspan><tspan
             x="-9.9601603 -7.2001653 -4.4401646 -0.00016897 6.3597612 9.1197557 16.559767 21.599766 26.639765 31.079754 34.439758 38.879757 43.919758 46.679752 51.119755 57.839832 61.67984 66.119843 69.479843 73.91983 76.67984 81.119911"
             y="155.4001"
             sodipodi:role="line"
             id="tspan27433">tiestoguaranteesafety.</tspan></text>
        <text
           transform="matrix(1,0,0,-1,72,440.6401)"
           style="font-variant:normal;font-size:11.9552px;font-family:'Nimbus Roman';-inkscape-font-specification:NimbusRomNo9L-Medi;writing-mode:lr-tb;fill:#000000;fill-opacity:1;fill-rule:nonzero;stroke:none"
           id="text27439"><tspan
             x="0 17.880125 22.560135 29.160156 33.120167 38.160259 44.160271 50.760292 57.360313 62.64032 66.600342 69.96035 75.960365"
             y="0"
             sodipodi:role="line"
             id="tspan27437">1Introduction</tspan></text>
        <text
           transform="matrix(1,0,0,-1,81.96016,428.5198)"
           style="font-variant:normal;font-size:9.96264px;font-family:'Nimbus Roman';-inkscape-font-specification:NimbusRomNo9L-Regu;writing-mode:lr-tb;fill:#000000;fill-opacity:1;fill-rule:nonzero;stroke:none"
           id="text27477"><tspan
             x="0 6.6000004 11.639999 16.680004 20.519999 24.959999 29.999998 33.839993 38.879993 46.319923 50.759922 53.519917 58.559917 63.599903 66.959923 69.719917 72.479912 77.519905 85.319916 92.519913 96.959915 99.71991 102.4799 107.28006 118.08006 126.11991 130.55991 135.59991 138.35991 141.11992 145.55992 149.99992 152.75992 155.51994 160.55994 169.08009 174.12007 180.96016 188.76018 193.20016 197.64018 202.68016 205.44019 210.48016 214.92015"
             y="0"
             sodipodi:role="line"
             id="tspan27441">Consensusalgorithmsallowacollectionofmachines</tspan><tspan
             x="-9.9601603 -7.2001653 2.159765 9.2398453 14.279851 17.639849 26.879688 31.319691 39.599609 48.479691 52.919693 57.95969 62.999676 67.439682 70.799683 75.239685 80.279686 87.119522 92.159523 95.519524 100.55952 105.59951 114.71951 117.47951 122.51951 126.9595 134.03943 138.47943 142.91943 152.27928 156.11928 161.15929 164.51927 169.55928 172.07928 176.99921 185.63905 188.39906 193.43906 202.19922 205.43907 209.87906 212.63907 215.39909"
             y="12"
             sodipodi:role="line"
             id="tspan27443">toworkasacoherentgroupthatcansurvivethefail-</tspan><tspan
             x="-9.9601603 -4.9201546 -1.5601578 2.8798375 9.2398472 14.279853 20.159773 23.999779 29.039778 36.839771 43.91993 48.95993 54.839851 57.599846 60.35984 66.839851 74.639854 79.079857 86.879868 91.919853 96.359856 99.719856 103.55986 108.47971 115.07971 119.51971 123.95972 128.39972 133.4397 137.27972 144.3598 149.39978 155.27972 158.03975 163.07973 165.83975 169.67975 174.83992 177.59993 182.63992 186.95984 194.39969 199.43967 202.19969 206.63968 214.19969"
             y="24"
             sodipodi:role="line"
             id="tspan27445">uresofsomeofitsmembers.Becauseofthis,theyplaya</tspan><tspan
             x="-9.9601603 -5.040235 -0.72031403 6.599606 9.9596033 14.999608 17.759604 24.599604 27.359598 34.799599 39.599594 44.639595 47.39959 50.159584 55.199581 57.959579 62.999577 70.199577 73.559578 77.99958 80.759575 83.519569 87.959572 92.999573 95.759567 102.47964 105.23964 109.67964 112.91949 117.95949 122.39949 125.75948 129.5995 134.03949 138.47951 141.2395 147.95935 151.79935 156.83936 160.19934 162.95937 170.03944 174.47945 177.83946 184.55937 188.39937 193.43938 197.27937 200.0394 204.47939 212.27939 216.11984"
             y="35.8801"
             sodipodi:role="line"
             id="tspan27447">keyroleinbuildingreliablelarge-scalesoftwaresystems.</tspan><tspan
             x="-9.9601603 -4.5601592 -0.12015751 4.9198418 9.9598475 17.159767 20.51977 25.559769 30.359766 36.359768 41.399765 46.319916 53.039848 58.079845 62.519848 69.839844 74.879845 79.919846 87.719841 90.479843 95.519836 99.959839 102.71983 107.15983 115.31991 118.0799 123.11992 130.91992 135.9599 138.71992 142.55992 146.99992 152.03992 155.87991 159.71992 162.47992 167.51993 175.91994 180.95992 187.68008 192.12009 197.1601 202.20007 206.0401 210.48009 215.52007"
             y="47.8801"
             sodipodi:role="line"
             id="tspan27449">Paxos[15,16]hasdominatedthediscussionofconsen-</tspan><tspan
             x="-9.9601603 -6.1201544 -1.0801553 4.6796951 9.1196966 11.879692 16.919691 21.95969 25.319706 28.0797 30.839695 35.879696 43.679699 49.31955 54.239468 59.159389 63.599388 68.639473 71.399467 76.439461 82.799622 85.559616 89.999619 93.839622 98.519547 103.55955 107.99954 112.43954 116.87954 121.91953 126.35953 130.91954 138.71956 143.75954 147.59955 152.27971 155.03973 162.83974 167.87973 170.63974 175.07974 182.87975 187.31973 192.35974 195.11974 199.55975 202.31975 205.07977 210.11975 215.15976"
             y="59.8801"
             sodipodi:role="line"
             id="tspan27451">susalgorithmsoverthelastdecade:mostimplementations</tspan><tspan
             x="-9.9601603 -4.9201546 1.319925 5.7599263 10.799926 15.839931 19.67993 24.119932 29.159931 32.999924 38.039925 44.639854 49.079857 52.439857 59.639858 64.679855 69.119858 72.959854 77.399857 85.319931 90.359932 98.159775 103.55977 107.99977 113.03977 118.07976 124.79961 129.8396 135.95976 138.71979 143.75977 149.27975 154.31976 158.75977 163.79974 168.23976 172.67975 180.35974 185.39973 193.3199 196.07991 198.8399 204.23985 208.67984 213.71985"
             y="71.759804"
             sodipodi:role="line"
             id="tspan27453">ofconsensusarebasedonPaxosorinfuencedbyit,and</tspan><tspan
             x="-9.9601603 -4.5601592 -0.12015751 4.9198418 9.9598475 16.679697 21.719696 26.159698 32.8797 37.919697 42.359699 46.79969 51.839687 59.639694 66.719536 69.47953 74.519531 81.839447 86.879448 90.239449 92.999443 100.79945 105.23946 108.59946 116.2793 121.19922 125.63921 130.67921 133.43921 137.87923 140.63922 147.83907 152.87906 156.71907 161.15906 169.0789 171.83893 179.75899 182.51901 186.959 191.39899 195.839 203.63907 207.47906 210.23909 215.27907"
             y="83.759804"
             sodipodi:role="line"
             id="tspan27455">Paxoshasbecometheprimaryvehicleusedtoteachstu-</tspan><tspan
             x="-9.9601603 -4.9201546 -0.48015931 4.5598459 7.3198409 13.559771 17.999773 23.039772 28.07976 33.119759 38.15976 42.599758 47.639759 52.679745 56.519753 60.959751 65.999756 69.839745 74.879745 78.719749"
             y="95.6399"
             sodipodi:role="line"
             id="tspan27457">dentsaboutconsensus.</tspan><tspan
             x="0 7.2000022 12.240002 15.600004 20.640003 24.000008 26.760002 31.800001 36.839989 41.279991 44.039986 48.479984 51.239979 55.680065 60.240223 65.640221 70.080223 75.120216 80.16021 86.400368 89.160362 95.640213 100.68021 105.72021 108.4802 111.2402 118.08004 123.12003 125.88004 128.99997 134.51996 138.95998 143.99997 146.75998 151.91991 154.67992 162.11992 167.1599 172.19991 177.2399 181.67992 185.0399 188.8799 191.63991 196.07991 201.11992 206.1599 210.83984 213.59987"
             y="107.8801"
             sodipodi:role="line"
             id="tspan27459">Unfortunately,Paxosisquitediffculttounderstand,in</tspan><tspan
             x="-9.9601603 -6.1201544 -1.0801553 1.6798396 4.4398403 11.039841 16.079845 21.599995 26.639994 31.679993 39.479988 43.919991 47.279991 52.319992 57.359989 63 67.440002 70.199997 72.959991 77.399994 85.199997 90.239998 92.999992 98.999992 101.75999 108.96014 116.76015 121.20016 126.12032 132.6004 135.36041 140.40042 148.20042 153.24042 156.60042 163.08051 167.52049 172.5605 177.60049 180.96051 186.00049 190.44049 194.88049 199.92049 204.3605 209.40048 212.16051 216.60049"
             y="119.8801"
             sodipodi:role="line"
             id="tspan27461">spiteofnumerousattemptstomakeitmoreapproachable.</tspan><tspan
             x="-9.9601603 -4.4401584 0.599841 3.9598439 6.7198386 11.759838 16.199839 19.559837 27.359842 32.399841 35.759846 40.199848 46.679688 49.439682 52.199677 60.359768 64.799767 68.159767 72.59977 77.639763 80.399765 83.15976 87.599762 92.039749 94.799759 99.839745 103.19975 111.71992 115.07992 119.51992 124.55991 129.59991 132.35991 135.71992 140.15993 148.08009 152.52008 157.56009 165.36009 170.40009 173.1601 177.4801 186.60002 191.04001 196.08002 200.52 205.56001 210.60001 215.03999"
             y="131.76019"
             sodipodi:role="line"
             id="tspan27463">Furthermore,itsarchitecturerequirescomplexchanges</tspan><tspan
             x="-9.9601603 -7.2001653 2.3999941 6.2399998 11.279999 16.320004 21.360003 26.400003 29.760006 36.960163 42.000164 45.360168 49.800167 54.240158 57.000164 59.760159 64.200165 68.640152 75.840233 79.680237 84.720238 88.560226 91.320221 95.760223 103.56023 107.40024 114.6004 121.80039 130.32033 139.32033 142.68034 147.12033 150.96033 156.00034 158.76033 161.52034 168.60043 173.64043 178.68044 181.44043 190.92036 194.76035 199.80037 203.64035 206.40038 210.84036"
             y="143.76019"
             sodipodi:role="line"
             id="tspan27465">tosupportpracticalsystems.Asaresult,bothsystem</tspan><tspan
             x="-9.9601603 -5.1601572 -0.12015173 2.639843 5.399838 10.439843 14.879839 18.239841 24.479692 28.919693 33.959694 41.279682 45.11969 47.879684 52.919682 57.959671 62.39967 67.439667 70.199661 76.439827 80.279831 83.039825 86.399826 91.439827 96.479828 101.51981 104.27982 110.99997 118.19997 120.95996 123.71996 131.28003 136.68002 141.12003 146.16003 151.20001 155.04004"
             y="155.76019"
             sodipodi:role="line"
             id="tspan27467">buildersandstudentsstrugglewithPaxos.</tspan><tspan
             x="0 7.2000022 10.559999 13.32 17.759996 25.080086 28.92009 31.680086 35.040089 40.080086 45.120087 50.160072 52.920082 55.680077 60.720062 69.599991 76.799988 79.559982 82.319977 91.439827 96.839821 101.27982 106.31982 111.35981 119.15974 124.19973 129.23975 132.59973 136.43974 140.87973 143.63976 148.55975 152.99974 156.83975 163.1996 170.39961 178.91954 182.75952 187.19954 194.03947 199.07945 204.11948 210.83948 213.59949"
             y="167.8801"
             sodipodi:role="line"
             id="tspan27469">AfterstrugglingwithPaxosourselves,wesetoutto</tspan><tspan
             x="-9.9601603 -4.4401584 0.599841 8.4000006 15.71992 20.75992 24.959761 34.91991 39.359913 44.39991 49.439896 53.279903 57.719906 62.759903 66.599899 71.639893 78.23983 82.679825 85.439819 90.47982 95.519806 98.879822 101.63982 104.39981 109.43981 119.87966 122.63966 127.67967 132.11966 137.63983 142.07983 147.11984 152.15982 154.91985 162.71991 167.7599 171.11992 176.03984 181.07982 183.83984 188.87982 195.83984 203.15976 208.19975 212.63976 215.39975"
             y="179.8801"
             sodipodi:role="line"
             id="tspan27471">fndanewconsensusalgorithmthatcouldprovideabet-</tspan><tspan
             x="-9.9601603 -7.2001653 -2.7601638 2.8796768 6.2396736 11.279679 16.319679 21.359678 26.399677 30.839678 33.599674 36.359669 41.399666 48.359745 51.719749 56.75975 62.399601 66.239609 71.279602 75.119598 77.879593 82.319595 92.399605 97.1996 102.2396 104.9996 107.75959 112.79959 115.55959 120.59959 127.79958 132.23958 137.27959 144.47966 148.91965 153.95966 158.99963 163.43965 167.87964 170.63963 173.39966 178.43965 183.47966 188.03983 195.23984 200.27982 205.91991 210.35989 215.39992"
             y="191.8801"
             sodipodi:role="line"
             id="tspan27473">terfoundationforsystembuildingandeducation.Ourap-</tspan><tspan
             x="-9.9601603 -4.9201546 -1.5601578 3.4798415 7.9198432 12.359838 20.27969 27.359764 31.799765 38.879684 43.919685 48.959682 53.999672 57.839676 62.879677 67.319679 73.079666 75.839661 83.99958 86.759575 91.799576 96.239578 102.1195 107.1595 112.19949 118.67966 123.71964 127.07966 129.83968 137.63968 142.07967 145.43967 153.35976 158.39973 163.43976 167.87975 173.75975 180.83984 185.27983"
             y="203.76019"
             sodipodi:role="line"
             id="tspan27475">proachwasunusualinthatourprimarygoalwas</tspan></text>
        <text
           transform="matrix(1,0,0,-1,274.2,224.7596)"
           style="font-style:italic;font-variant:normal;font-size:9.96264px;font-family:'Nimbus Roman';-inkscape-font-specification:NimbusRomNo9L-ReguItal;writing-mode:lr-tb;fill:#000000;fill-opacity:1;fill-rule:nonzero;stroke:none"
           id="text27483"><tspan
             x="0 5.0399871 10.079998 15.119986 19.559999 23.160149"
             y="0"
             sodipodi:role="line"
             id="tspan27479">under-</tspan><tspan
             x="-202.2 -198.36 -195.60001 -190.56 -185.51999 -180.48 -175.43999 -170.39999 -167.64 -164.88 -162.12001 -159.36002"
             y="12"
             sodipodi:role="line"
             id="tspan27481">standability</tspan></text>
        <text
           transform="matrix(1,0,0,-1,119.2801,212.7596)"
           style="font-variant:normal;font-size:9.96264px;font-family:'Nimbus Roman';-inkscape-font-specification:NimbusRomNo9L-Regu;writing-mode:lr-tb;fill:#000000;fill-opacity:1;fill-rule:nonzero;stroke:none"
           id="text27507"><tspan
             x="0 6.2398405 10.679842 15.719841 20.759829 23.519823 31.919903 39.1199 47.28006 52.320057 56.760059 62.280048 67.320045 75.240196 83.280045 87.720039 92.760048 97.800034 101.64005 106.08004 111.12003 114.96004 120.00003 127.31989 131.75987 134.5199 139.55988 144.59988 147.95988 150.71989 153.47989 158.51991 169.68007 173.04008 178.08006"
             y="0"
             sodipodi:role="line"
             id="tspan27485">:couldwedefneaconsensusalgorithmfor</tspan><tspan
             x="-47.280102 -42.240093 -38.880096 -34.440102 -30.000101 -27.240107 -24.480104 -20.04011 -15.600108 -9.8400984 -6.000093 -0.96009362 2.8798997 5.6398945 10.079896 17.879902 24.839993 29.279993 34.319992 42.239983 47.279984 51.719982 55.559978 59.999977 63.359982 66.119972 71.159973 78.599976 81.35997 87.239807 89.999832 98.159737 105.59973 112.67982 117.1198 125.27982 128.03984 133.07982 137.51981 143.27983 146.03986 153.11969 156.95969 159.7197 164.75969 169.7997 172.55969 178.07968"
             y="11.8801"
             sodipodi:role="line"
             id="tspan27487">practicalsystemsanddescribeitinawaythatissignif-</tspan><tspan
             x="-47.280102 -42.840099 -38.400105 -33.360096 -30.600103 -27.840109 -21.000019 -16.560017 -12.120015 -8.2800226 -5.5200276 -1.0800259 4.1999841 6.9599791 13.919899 16.679893 21.119896 25.559896 28.919899 35.759739 38.519733 43.559734 47.999737 54.839806 60.239799 64.679802 69.719803 74.759789 78.599792 84.83979 90.359779 95.399796 98.759789 101.51981 106.55979 110.99978 114.35979 122.15981 127.19979 130.5598 134.99979 139.07967 146.27968 152.63983 159.71992 164.15991 169.19992 171.95992 176.39993"
             y="23.8801"
             sodipodi:role="line"
             id="tspan27489">cantlyeasiertolearnthanPaxos?Furthermore,wewanted</tspan><tspan
             x="-47.280102 -44.520103 -39.480099 -31.440248 -27.000248 -24.240253 -19.200254 -14.160254 -10.80024 -8.0402451 -5.2802496 -0.24025054 11.039829 13.799824 22.559744 25.799593 30.239595 34.679596 37.43959 40.199585 42.959579 45.719574 50.159576 52.919571 60.959732 63.719727 68.759727 76.919884 81.959885 86.159737 91.079659 95.519646 98.279663 103.31965 108.35966 116.15967 120.59966 125.63964 131.63982 136.67981 143.63983 146.39986 151.43983 154.19986 159.23984 161.99986 164.75986 167.51988 172.55986 177.59985"
             y="35.8801"
             sodipodi:role="line"
             id="tspan27491">thealgorithmtofacilitatethedevelopmentofintuitions</tspan><tspan
             x="-47.280102 -44.520103 -39.480099 -35.040104 -30.000025 -25.560024 -22.200026 -15.600026 -11.160025 -7.3200192 -3.4800262 0.95997542 5.9999747 8.7599697 11.519964 15.959966 20.999966 24.359968 29.399967 34.919899 38.759903 43.799904 47.639896 50.399891 54.839893 64.79998 69.599976 74.639977 77.399971 80.159966 85.199966 89.639954 92.999969 96.839966 101.51991 104.87992 109.91992 117.00001 121.43999 127.56017 130.32019 138.12019 143.16017 148.20016 151.56018 154.32018 158.76019 163.80017 168.60004 173.64003 178.68004"
             y="47.760201"
             sodipodi:role="line"
             id="tspan27493">thatareessentialforsystembuilders.Itwasimportantnot</tspan><tspan
             x="-47.280102 -44.520103 -39.480099 -35.640099 -30.71994 -27.359943 -22.319939 -17.03986 -14.279864 -9.2398653 -2.6398652 1.8001363 4.5601311 9.6001301 14.640118 18.000132 20.760128 23.520123 28.560122 38.16013 40.920128 48.120285 55.200359 60.24036 63.600361 68.640358 73.080429 77.880424 82.920425 87.840576 91.200592 96.240578 101.52066 104.28068 109.20076 111.96078 119.16092 124.2009 130.68083 135.72083 140.64098 145.68097 148.44099 153.48097 158.52098 164.1609 171.36092 176.40091"
             y="59.760201"
             sodipodi:role="line"
             id="tspan27495">justforthealgorithmtowork,butforittobeobviouswhy</tspan><tspan
             x="-47.280102 -44.520103 -39.240265 -32.160183 -27.120178 -23.760181 -18.720182 -14.880189"
             y="71.760201"
             sodipodi:role="line"
             id="tspan27497">itworks.</tspan><tspan
             x="-37.319939 -31.199936 -26.159937 -19.200016 -15.840014 -11.400012 -7.5600066 -2.5200195 0.23998734 5.6398277 10.679827 16.559748 19.319742 24.359741 27.119736 33.599586 40.679661 45.719662 49.079662 56.639812 59.399807 65.999969 73.080048 77.52005 82.560051 87.600037 91.440056 95.880043 100.92003 104.76005 109.80003 116.16013 120.60011 123.36013 128.40012 133.44012 136.80013 139.56013 142.32013 147.36015 157.56015 162.00015 166.44016 169.20015 171.96017 176.40016"
             y="83.880096"
             sodipodi:role="line"
             id="tspan27499">Theresultofthisworkisaconsensusalgorithmcalled</tspan><tspan
             x="-47.280102 -40.680099 -36.240105 -32.8801 -30.120106 -24.719948 -21.359951 -13.559791 -8.5197916 -4.0797901 -0.23979692 2.5201979 7.5601974 12.600197 15.360191 20.40019 28.08003 34.680031 39.120033 42.480034 48.119877 55.319874 62.519871 66.959877 71.99987 77.039864 79.799858 82.55986 86.999878 94.799942 98.639938 103.67995 108.11994 112.55995 115.31995 120.83994 128.03979 130.7998 135.23979 139.67978 144.7198 149.75978 152.51981 157.55978 162.59978 167.03979 173.51987 176.27989"
             y="95.880096"
             sodipodi:role="line"
             id="tspan27501">Raft.IndesigningRaftweappliedspecifctechniquesto</tspan><tspan
             x="-47.280102 -44.520103 -36.720104 -31.680099 -28.320103 -23.400019 -18.480095 -12.360174 -7.3201752 -2.2801759 2.7598109 7.1998124 10.559815 14.399821 17.159817 21.599817 26.639816 31.679804 36.119804 41.159805 43.9198 46.679794 49.439789 52.199795 56.639793 60.599953 63.359947 68.399948 72.839951 75.599945 80.639946 85.679955 88.439949 93.479958 100.19995 105.23994 109.67995 114.11994 119.15995 126.95994 131.99994 137.03993 140.87994 143.63994 146.39996 149.15996 154.19997 160.79997 164.15999 170.75998 175.19997 178.55991"
             y="107.7602"
             sodipodi:role="line"
             id="tspan27503">improveunderstandability,includingdecomposition(Raft</tspan><tspan
             x="-47.280102 -43.440094 -39.000099 -33.960094 -29.520098 -26.160101 -21.7201 -18.960106 -14.520103 -7.9199443 -5.1599493 -0.71994793 3.7200537 8.7600403 13.200042 19.319893 23.759893 26.51989 30.95989 35.399879 38.159885 40.91988 45.959881 50.999866 56.159718 58.919712 63.959713 71.759712 75.119713 79.559715 84.599716 87.359711 90.119728 94.559723 98.99971 101.75973 104.51972 109.55973 114.59972 119.75974 124.19973 129.23975 136.91989 140.75989 145.19991 148.55989 152.99991 155.7599 160.79991 166.91991 171.35989 176.3999"
             y="119.7602"
             sodipodi:role="line"
             id="tspan27505">separatesleaderelection,logreplication,andsafety)and</tspan></text>
      </g>
      <g
         id="g27509"
         transform="matrix(914.4,0,0,-4.8,719.88,839.88)">
        <rect
           x="0"
           y="0"
           width="1"
           height="1"
           transform="matrix(1,0,0,-1,0,1)"
           style="fill:#000000;fill-opacity:1;fill-rule:nonzero"
           id="rect27511" />
      </g>
      <g
         id="g27513"
         transform="scale(10)">
        <text
           transform="matrix(1,0,0,-1,72.4801,74.2801)"
           style="font-variant:normal;font-size:7.97011px;font-family:'Nimbus Roman';-inkscape-font-specification:NimbusRomNo9L-Regu;writing-mode:lr-tb;fill:#000000;fill-opacity:1;fill-rule:nonzero;stroke:none"
           id="text27519"><tspan
             x="0 4.9199996 8.8799934 11.039989 17.039841 19.199837 22.679838 26.159843 33.119839 35.759834 39.239822 43.199829 47.159824 49.799809 54.959824 57.119827 63.239826 66.719826 73.559746 76.919899 80.87989 83.039894 86.51989 90.479889 94.43988 97.919884 105.11988 108.95972 112.43972 115.0797 118.19971 120.35971 124.3197 131.27969 135.2397 140.75977 143.39975 147.35976 151.43983 154.07982 159.11989 162.5999 166.55989 170.5199 172.6799 174.83987 176.99988 180.95985 184.91986 188.39987 193.79994 200.03999 203.52002 205.68001 209.16003 211.80002 213.95999 217.44 222.83984 224.99985"
             y="0"
             sodipodi:role="line"
             id="tspan27515">Thistechreportisanextendedversionof[32];additionalmaterialis</tspan><tspan
             x="-0.47999999 3.4799941 7.4399939 9.5999899 13.079991 19.200071 24.96007 27.120071 29.280067 35.400066 40.919983 44.879978 47.519974 50.999973 57.119965 61.07996 64.559959 69.239876 71.399879 77.400032 79.560036 83.520027 89.160187 95.400192 98.88018 101.40002 105.36002 107.52002 111.48003 115.56017 120.00017 123.96016 127.92016 130.08015 132.24017 135.36017 139.32018 142.80017 149.04025 156.12027 159.60028 165.60042 169.56042 173.52042 177.60042 181.56042 185.5204 189.48041 193.44038"
             y="9.4800797"
             sodipodi:role="line"
             id="tspan27517">notedwithagraybarinthemargin.PublishedMay20,2014.</tspan></text>
        <text
           transform="matrix(1,0,0,-1,318.6001,627.00002)"
           style="font-variant:normal;font-size:9.96264px;font-family:'Nimbus Roman';-inkscape-font-specification:NimbusRomNo9L-Regu;writing-mode:lr-tb;fill:#000000;fill-opacity:1;fill-rule:nonzero;stroke:none"
           id="text27541"><tspan
             x="0 3.8399932 6.6000123 11.040002 13.800021 21.240011 25.080004 30.120016 34.560005 39.000019 46.44001 49.800022 54.240013 59.279999 64.320015 68.760002 71.52002 74.280014 79.320023 87.120094 90.48011 93.840103 98.280113 101.04011 105.48013 108.24012 110.75993 115.67987 122.87989 125.63988 133.6799 139.07991 143.51993 148.55994 153.60001 157.43997 162.8401 169.44011 173.88013 177.24011 183.00011 186.36009 190.80011 195.84012 200.88013 205.32019 209.76021 216.48026 219.24025 224.28026"
             y="0"
             sodipodi:role="line"
             id="tspan27521">statespacereduction(relativetoPaxos,Raftreducesthe</tspan><tspan
             x="0 5.0399871 9.3601522 14.400139 17.760155 22.200144 28.560154 33.60014 39.120312 44.160297 49.20031 54.240295 59.280308 63.720295 66.480293 70.920303 74.280296 82.080299 84.840324 89.88031 92.640305 96.480324 106.08047 110.52048 115.56049 122.64069 125.40069 130.4407 137.04073 144.1208 148.56082 153.60083 159.60091 163.44089 167.88089 171.24089 176.16107 180.60109 183.96107 189.84114 194.28114 198.72116 205.92128 210.96129 217.56117 220.32117 225.36118"
             y="12"
             sodipodi:role="line"
             id="tspan27523">degreeofnondeterminismandthewaysserverscanbein-</tspan><tspan
             x="0 4.4399891 9.4800005 14.519988 18.360006 21.120001 24.959993 27.720013 32.160004 37.200012 42.119942 49.319954 52.079971 54.839966 62.159805 66.599792 71.03981 75.479797 82.799637 87.83963 90.599648 95.639656 100.07967 103.43966 106.79965 111.35979 120.83988 125.87989 129.71986 134.15993 139.80005 143.64001 146.40001 151.44002 156.48003 163.68015 170.88016 173.64015 176.40015 183.71999 188.75999 195.95987 199.79984 202.55983 207.59984 212.63986 217.07993 222.11993 224.87993"
             y="24"
             sodipodi:role="line"
             id="tspan27525">consistentwitheachother).Auserstudywith43students</tspan><tspan
             x="0 4.4399891 10.319929 13.079948 20.159792 28.319941 33.359928 38.39994 40.919945 45.839863 50.27985 53.639866 57.479862 60.23988 62.999897 65.759895 70.199905 77.039894 80.87989 85.919899 90.719971 97.919983 104.75995 107.51994 112.55996 116.99997 122.87989 129.4799 133.91992 137.27991 143.15997 145.91997 152.99977 156.83974 159.59973 164.63974 169.67976 172.43976 177.95979 182.39981 186.83981 191.87984 194.63983 197.39983 205.31976 209.75978 214.19978 218.03981 220.79976 225.23981"
             y="35.8801"
             sodipodi:role="line"
             id="tspan27527">attwouniversitiesshowsthatRaftissignifcantlyeasier</tspan><tspan
             x="0 2.7600193 10.560159 15.600145 20.640158 25.680143 30.120157 33.480148 37.320141 40.080162 44.520149 49.560162 57.120312 59.880329 64.920319 69.360306 77.160156 82.56015 87.000137 92.040154 97.080215 100.92018 106.32031 110.76032 114.12032 116.88031 121.32032 127.44022 130.20023 134.64023 139.08025 142.44023 147.48026 150.24025 155.28026 162.96021 168.00021 173.04022 175.80022 183.48018 187.92018 190.68018 195.72018 200.76021 204.12019 206.88019 209.64018 214.68019 222.48019 226.32018"
             y="47.8801"
             sodipodi:role="line"
             id="tspan27529">tounderstandthanPaxos:afterlearningbothalgorithms,</tspan><tspan
             x="0 5.0399871 12.839837 17.879824 23.879684 26.639704 31.679691 36.119682 39.959698 47.27969 51.119682 53.8797 58.919689 63.959698 68.399689 73.439674 76.199692 82.679703 89.879715 94.319725 97.679718 104.87974 109.31975 114.35976 117.11976 124.31964 127.07964 134.99973 139.43974 144.47975 148.31976 155.51978 159.95979 165.95992 170.99992 176.03993 180.48 184.31998 187.07997 189.8399 194.87997 199.91998 206.52011 210.96013 216.00014 221.04019 226.08022"
             y="59.7598"
             sodipodi:role="line"
             id="tspan27531">33ofthesestudentswereabletoanswerquestionsabout</tspan><tspan
             x="0 6.599988 11.039977 14.399993 19.680082 24.72007 29.160084 31.920078 34.680096 39.120087 44.880108 47.640125 52.680111 57.120102 64.440262 69.480247 74.520256 78.960251 82.800262 85.560265 88.320282 93.360291 98.400307 104.64027 109.08028 114.1203 119.16035 124.20037 129.24036 134.64037 139.08038 144.12039 149.16046 153.00043"
             y="71.759804"
             sodipodi:role="line"
             id="tspan27533">RaftbetterthanquestionsaboutPaxos.</tspan><tspan
             x="9.9601603 16.560148 21.000137 24.360153 30.120173 32.880192 39.720181 43.560173 46.320194 54.120201 56.880219 59.640213 64.0802 70.440224 73.200241 81.240234 89.040237 93.480255 98.400436 106.20046 113.28055 117.72056 122.76057 129.60059 132.36058 140.28067 144.60062 149.64062 152.40062 156.2406 159.0006 161.76059 166.8006 174.72054 179.16055 184.20056 189.24062 193.0806 197.5206 202.56062 206.40059 211.44064 218.04053 222.48055 225.24054"
             y="84.720001"
             sodipodi:role="line"
             id="tspan27535">Raftissimilarinmanywaystoexistingconsensusal-</tspan><tspan
             x="0 5.0399871 10.079998 13.439989 16.200008 18.960028 24.000015 31.80002 39.000019 42.360035 50.160042 55.200027 59.040024 65.280121 70.320107 75.360123 78.120117 82.560127 87.600113 90.360138 94.800049 100.56019 107.76019 112.80021 119.04028 123.48029 128.52031 137.04034 143.16037 145.92032 149.76035 154.68019 159.60013 164.64014 167.40013 174.72003 181.32004 184.08003 188.28021 195.48021 199.32019 202.08018 206.52019 214.32019 219.36021 223.80028"
             y="96.600098"
             sodipodi:role="line"
             id="tspan27537">gorithms(mostnotably,OkiandLiskov’sViewstamped</tspan><tspan
             x="0 6.599988 11.039977 16.079988 18.839983 21.600002 26.039991 30.480005 33.240002 36.000019 41.040009 48.480095 51.840111 56.8801 61.680096 66.719948 71.759933 76.680099 80.040108 83.400101 88.319962 93.11998 98.159996 103.31998 106.07998 111.3598 116.39981 120.83983 127.07974 130.91971 135.1196 140.03954 144.47955 147.83954 152.27956 157.43954 162.47955 167.39973 172.31969 176.7597 181.67984 185.03984 189.47986 193.91986 196.67986 201.71988 205.07986 209.51988 213.35985"
             y="108.6001"
             sodipodi:role="line"
             id="tspan27539">Replication[29,22]),butithasseveralnovelfeatures:</tspan></text>
        <text
           transform="matrix(1,0,0,-1,328.56026,505.44012)"
           style="font-variant:normal;font-weight:normal;font-size:9.96264px;font-family:CMSY10;-inkscape-font-specification:CMSY10;writing-mode:lr-tb;fill:#000000;fill-opacity:1;fill-rule:nonzero;stroke:none"
           id="text27545"><tspan
             x="0"
             y="0"
             id="tspan27543">•</tspan></text>
        <text
           transform="matrix(1,0,0,-1,338.52042,505.44012)"
           style="font-variant:normal;font-size:9.96264px;font-family:'Nimbus Roman';-inkscape-font-specification:NimbusRomNo9L-Medi;writing-mode:lr-tb;fill:#000000;fill-opacity:1;fill-rule:nonzero;stroke:none"
           id="text27549"><tspan
             x="0 5.5199895 8.8800049 13.199999 18.239986 23.76 31.560139 34.32016 38.760147 43.800133 49.320148 53.760139 58.200127"
             y="0"
             sodipodi:role="line"
             id="tspan27547">Strongleader:</tspan></text>
        <text
           transform="matrix(1,0,0,-1,402.96062,505.44012)"
           style="font-variant:normal;font-size:9.96264px;font-family:'Nimbus Roman';-inkscape-font-specification:NimbusRomNo9L-Regu;writing-mode:lr-tb;fill:#000000;fill-opacity:1;fill-rule:nonzero;stroke:none"
           id="text27561"><tspan
             x="0 6.6000123 11.040027 14.400017 20.039848 25.079859 28.919828 33.35989 40.19986 47.63987 51.479839 54.239834 57.599823 62.639835 67.679848 72.719856 77.15992 83.159805 86.519791 91.559807 94.919792 105.47971 110.51973 116.7598 119.51979 123.95981 128.39981 133.43983 137.8799 140.99969"
             y="0"
             sodipodi:role="line"
             id="tspan27551">Raftusesastrongerformofleader-</tspan><tspan
             x="-64.440598 -60.600605 -55.560596 -52.800602 -44.640591 -41.880573 -36.840584 -32.400597 -24.240585 -19.200598 -16.440578 -11.400592 -6.9605784 -0.60058838 3.8394008 8.8794127 13.919473 17.759441 22.199455 27.239466 31.079435 36.119495 42.959465 47.399479 50.159473 55.199486 60.239498 63.599487 66.359482 69.119476 74.159492 81.959496 85.799461 91.319473 96.71949 101.75951 108.11949 112.43944 117.47945 121.91946 129.71947 134.75954 137.51947 141.95953"
             y="11.8801"
             sodipodi:role="line"
             id="tspan27553">shipthanotherconsensusalgorithms.Forexample,</tspan><tspan
             x="-64.440598 -61.68058 -56.640594 -49.560513 -45.120525 -40.080513 -37.320518 -33.960503 -31.200485 -26.760494 -20.760494 -15.720508 -10.680496 -7.9205017 -0.96049196 4.5594978 9.3594208 18.719589 22.07958 25.439571 30.479584 40.319584 43.079578 48.119591 54.599689 57.359684 61.799698 66.239708 71.279724 75.719788 81.119667 83.879662 91.079826 96.119843 98.879837 103.91985 108.35986 113.64002 117.47999 121.92001 125.27999 130.20018 134.6402 138.00018 141.84015"
             y="23.8801"
             sodipodi:role="line"
             id="tspan27555">logentriesonlyfowfromtheleadertootherservers.</tspan><tspan
             x="-64.440598 -58.320614 -53.280602 -50.520607 -44.400757 -40.560764 -37.800747 -30.00074 -24.960752 -22.200733 -19.440739 -13.920724 -9.4807348 -3.2405756 -0.48055637 4.5594306 11.279381 19.079388 23.519402 28.559412 32.999474 38.039486 42.4795 50.279507 54.719521 59.759529 64.679527 69.719543 75.239693 77.999687 83.039696 89.87957 93.239555 97.679573 102.71958 105.47958 108.23957 112.67959 117.1196 119.87959 124.31961 131.51949 134.27948 139.31949"
             y="35.760201"
             sodipodi:role="line"
             id="tspan27557">Thissimplifesthemanagementofthereplicatedlog</tspan><tspan
             x="-64.440598 -60.00061 -54.960598 -47.520691 -39.720684 -35.280693 -30.360531 -25.920542 -19.680452 -13.080463 -8.6404743 -5.2804594 -0.12029001 4.3196993 8.7597132 12.59973 15.359676 19.79974 25.679699 28.439693 35.879704 40.919716 45.959728 50.999786 55.4398 58.799793 62.639759 65.399757 69.839767 74.879784 79.919792"
             y="47.760201"
             sodipodi:role="line"
             id="tspan27559">andmakesRafteasiertounderstand.</tspan></text>
        <text
           transform="matrix(1,0,0,-1,328.56025,445.67992)"
           style="font-variant:normal;font-weight:normal;font-size:9.96264px;font-family:CMSY10;-inkscape-font-specification:CMSY10;writing-mode:lr-tb;fill:#000000;fill-opacity:1;fill-rule:nonzero;stroke:none"
           id="text27565"><tspan
             x="0"
             y="0"
             id="tspan27563">•</tspan></text>
        <text
           transform="matrix(1,0,0,-1,338.52041,445.67992)"
           style="font-variant:normal;font-size:9.96264px;font-family:'Nimbus Roman';-inkscape-font-specification:NimbusRomNo9L-Medi;writing-mode:lr-tb;fill:#000000;fill-opacity:1;fill-rule:nonzero;stroke:none"
           id="text27569"><tspan
             x="0 6.599988 11.039977 16.079988 21.599977 26.039968 35.160137 39.600124 42.360146 46.800137 51.240147 54.60014 57.360157 62.400146 67.920135"
             y="0"
             sodipodi:role="line"
             id="tspan27567">Leaderelection:</tspan></text>
        <text
           transform="matrix(1,0,0,-1,414.36061,445.67992)"
           style="font-variant:normal;font-size:9.96264px;font-family:'Nimbus Roman';-inkscape-font-specification:NimbusRomNo9L-Regu;writing-mode:lr-tb;fill:#000000;fill-opacity:1;fill-rule:nonzero;stroke:none"
           id="text27581"><tspan
             x="0 6.6000123 11.040027 14.400017 21.839848 26.879858 30.719828 35.159889 43.679691 47.03968 51.479694 56.519707 61.559719 66.599777 74.399788 77.159729 81.599792 86.03981 95.519661 98.279655 101.03965 108.83965 113.27966 116.63966 125.03954 127.79953"
             y="0"
             sodipodi:role="line"
             id="tspan27571">Raftusesrandomizedtimersto</tspan><tspan
             x="-75.840599 -71.400612 -68.640594 -64.2006 -59.76059 -51.840588 -49.08057 -44.640579 -40.200592 -35.16058 -30.720591 -27.360575 -23.520582 -15.960492 -9.8405066 -4.8004951 -2.0405004 6.8394599 11.279473 16.319485 21.359545 30.239506 35.279518 40.319527 43.079521 53.159473 62.759491 66.599464 74.399467 78.839485 81.59948 89.519623 93.959641 101.75964 106.79966 111.83971 116.87973 124.55955 129.59956"
             y="11.8801"
             sodipodi:role="line"
             id="tspan27573">electleaders.Thisaddsonlyasmallamountof</tspan><tspan
             x="-75.840599 -68.040596 -63.600605 -59.160591 -54.120605 -49.680614 -44.640602 -41.880608 -38.040592 -28.32066 -25.56064 -18.48081 -15.720792 -10.680804 -4.3206453 0.71936625 5.15938 9.5994425 12.959384 15.719379 20.75939 25.199453 29.639467 32.39946 38.1595 42.599514 45.359509 48.719501 53.159515 57.599529 62.639538 69.599419 72.959412 77.399422 82.439438 87.479446 90.239441 93.599434 98.039444 104.87955 108.23955 113.27956 118.55962 122.99963 127.91982"
             y="23.8801"
             sodipodi:role="line"
             id="tspan27575">mechanismtotheheartbeatsalreadyrequiredforany</tspan><tspan
             x="-75.840599 -71.400612 -66.360596 -61.320614 -57.480595 -53.040604 -48.000618 -44.160599 -39.120613 -32.160522 -27.720535 -24.960516 -19.920528 -14.880517 -11.520526 -8.7605076 -6.0005121 -0.96050096 6.8395052 12.359515 19.559525 24.599535 27.359529 30.119524 37.799385 41.159374 45.599388 49.439358 54.47937 57.239365 62.279377 65.039368 70.079384 78.119438 82.559456 87.599464 92.639526 98.159515 100.91951 105.35953 108.11952 115.07966 118.91963 121.67963 129.47963"
             y="35.8801"
             sodipodi:role="line"
             id="tspan27577">consensusalgorithm,whileresolvingconfictssim-</tspan><tspan
             x="-75.840599 -70.800613 -68.040596 -60.600754 -56.160763 -51.120754 -43.680843 -40.320827 -35.880836 -30.840851 -28.080832 -23.040844 -20.280825 -15.840985"
             y="47.760201"
             sodipodi:role="line"
             id="tspan27579">plyandrapidly.</tspan></text>
        <text
           transform="matrix(1,0,0,-1,328.56024,385.91972)"
           style="font-variant:normal;font-weight:normal;font-size:9.96264px;font-family:CMSY10;-inkscape-font-specification:CMSY10;writing-mode:lr-tb;fill:#000000;fill-opacity:1;fill-rule:nonzero;stroke:none"
           id="text27585"><tspan
             x="0"
             y="0"
             id="tspan27583">•</tspan></text>
        <text
           transform="matrix(1,0,0,-1,338.5204,385.91972)"
           style="font-variant:normal;font-size:9.96264px;font-family:'Nimbus Roman';-inkscape-font-specification:NimbusRomNo9L-Medi;writing-mode:lr-tb;fill:#000000;fill-opacity:1;fill-rule:nonzero;stroke:none"
           id="text27589"><tspan
             x="0 9.3600054 13.799994 22.080002 27.599991 32.039982 36.479996 40.319988 45.839977 48.599998 63.360146 67.800133 73.320175 78.360184 83.880226 88.920235 93.360245 97.200218"
             y="0"
             sodipodi:role="line"
             id="tspan27587">Membershipchanges:</tspan></text>
        <text
           transform="matrix(1,0,0,-1,448.0804,385.91972)"
           style="font-variant:normal;font-size:9.96264px;font-family:'Nimbus Roman';-inkscape-font-specification:NimbusRomNo9L-Regu;writing-mode:lr-tb;fill:#000000;fill-opacity:1;fill-rule:nonzero;stroke:none"
           id="text27595"><tspan
             x="0 6.6000123 11.040027 14.400017 17.160011 19.919905 32.999966 40.799973 45.239986 49.68 54.720058 59.160072 64.200081 66.960075 70.800049 87.480125 90.840118 95.880127"
             y="0"
             sodipodi:role="line"
             id="tspan27591">Raft’smechanismfor</tspan><tspan
             x="-109.561 -105.12101 -100.081 -95.641006 -90.600998 -85.561012 -82.801018 -77.761009 -70.200859 -67.440834 -62.400848 -55.200851 -51.360855 -46.920841 -41.400845 -36.360832 -30.240683 -26.400713 -21.960699 -18.600708 -13.680522 -9.2405081 -5.880517 0.59954256 3.3595374 11.159707 13.919702 18.959713 26.159733 30.599747 33.359741 38.399754 42.239723 44.999718 49.439732 55.559731 60.599743 64.439713 68.879776 75.479652 82.799606 87.839615 92.03949"
             y="11.8801"
             sodipodi:role="line"
             id="tspan27593">changingthesetofserversintheclusterusesanew</tspan></text>
        <text
           transform="matrix(1,0,0,-1,338.5194,362.03962)"
           style="font-style:italic;font-variant:normal;font-size:9.96264px;font-family:'Nimbus Roman';-inkscape-font-specification:NimbusRomNo9L-ReguItal;writing-mode:lr-tb;fill:#000000;fill-opacity:1;fill-rule:nonzero;stroke:none"
           id="text27599"><tspan
             x="0 2.7600193 7.8000064 10.560025 15.600013 23.039864 27.479853 32.519863 37.559849 41.399868 45.839859 50.879845 54.719864 59.75985"
             y="0"
             sodipodi:role="line"
             id="tspan27597">jointconsensus</tspan></text>
        <text
           transform="matrix(1,0,0,-1,406.7991,362.03962)"
           style="font-variant:normal;font-size:9.96264px;font-family:'Nimbus Roman';-inkscape-font-specification:NimbusRomNo9L-Regu;writing-mode:lr-tb;fill:#000000;fill-opacity:1;fill-rule:nonzero;stroke:none"
           id="text27639"><tspan
             x="0 4.4400139 9.4800253 14.520085 17.880028 22.920088 27.360102 31.800116 41.280216 48.480225 53.520233 57.960247 61.32024 70.44043 73.200424 78.240433 87.480301 95.280312 99.720322 102.48032 107.52033 110.88032 113.64032 116.40031 119.16026 123.60032 132.12012 137.16013"
             y="0"
             sodipodi:role="line"
             id="tspan27601">approachwherethemajoritiesof</tspan><tspan
             x="-68.279701 -65.519684 -58.439838 -49.079689 -44.039703 -41.279682 -38.159756 -34.79974 -30.359751 -26.999735 -22.559746 -17.51976 -10.67966 -6.2396708 -1.1996592 3.8403521 9.360342 14.400353 19.440413 22.800356 27.240417 30.000364 32.760357 37.800369 42.840382 50.640312 55.560253 60.480198 64.920212 68.280205 71.040199 75.480209 84.600151 89.64016 94.680176 98.040161 100.80016 105.84017 114.96036 117.72035 121.08035 125.52036 130.56036 134.40034 137.16034"
             y="12"
             sodipodi:role="line"
             id="tspan27603">twodifferentconfgurationsoverlapduringtransi-</tspan><tspan
             x="-68.279701 -65.519684 -62.759686 -57.719673 -52.679688 -48.839695 -42.839832 -36.719849 -31.679836 -28.919842 -21.599991 -17.160002 -14.399983 -11.639964 -6.8398204 0.36018789 7.8000083 10.560003 15.600015 23.519964 27.959978 30.719973 35.759983 39.599953 42.359947 46.799961 53.639881 56.399876 64.919968 69.359978 74.399994 79.440048 82.199997 84.959991 90.000008 95.040062 102.72006 107.76008 112.80009 117.24015 120.60009 125.04015 127.8001 130.56009 135.60011"
             y="23.8797"
             sodipodi:role="line"
             id="tspan27605">tions.Thisallowstheclustertocontinueoperating</tspan><tspan
             x="-68.279701 -63.239712 -58.199703 -54.83971 -47.039703 -42.599689 -39.839695 -37.079678 -29.759756 -24.71977 -19.679758 -16.319767 -13.559749 -8.5197611 -1.3199108 3.1201029 8.1601143 13.200174 18.720163 23.760176 28.800236 32.160179 36.600239 39.360188 42.120182 47.160191 54.360313 58.800327 63.840336 68.280403 73.320412 78.36042 82.800438 86.640404"
             y="35.8797"
             sodipodi:role="line"
             id="tspan27607">normallyduringconfgurationchanges.</tspan><tspan
             x="-78.239471 -69.719551 -62.999634 -57.959644 -53.51963 -50.759636 -47.999619 -43.799618 -38.8797 -32.39962 -29.639601 -24.599615 -20.159626 -15.359765 -8.7597761 -4.3197875 -0.95977205 3.9601581 6.7201529 12.840202 16.680172 21.720182 26.760242 31.200256 34.560249 37.320194 42.360252 47.640213 50.400208 57.60038 63.000397 67.440414 72.480423 77.520485 83.520363 87.960373 93.000389 100.08059 105.1206 107.88059 112.9206 117.36062 122.64078 127.08079 132.1208 137.16086"
             y="48.839901"
             sodipodi:role="line"
             id="tspan27609">WebelievethatRaftissuperiortoPaxosandothercon-</tspan><tspan
             x="-88.199631 -84.359634 -79.919624 -74.879639 -71.039619 -65.999634 -59.759781 -55.31979 -52.559772 -47.519787 -42.479774 -39.119781 -36.359764 -33.59977 -28.559757 -20.759752 -16.919758 -12.119898 -7.0799108 -2.0398993 0.7200954 8.0402842 11.400275 16.440287 22.080107 26.520121 31.560133 36.600193 41.040207 45.480221 48.240215 51.00021 56.040222 61.080231 65.520248 70.440399 75.480408 80.520416 83.880409 88.920418 93.96048 97.800453 102.24046 108.36037 112.80038 117.84039 125.16043 129.60045 135.96043"
             y="60.720001"
             sodipodi:role="line"
             id="tspan27611">sensusalgorithms,bothforeducationalpurposesandasa</tspan><tspan
             x="-88.199631 -84.839615 -79.799629 -74.759644 -69.719627 -64.679642 -60.239655 -57.479633 -54.719616 -49.679626 -42.719547 -39.359531 -34.319546 -28.919537 -26.159517 -18.35951 -13.319524 -10.559505 -6.1195149 1.6804911 6.1205049 11.160516 13.920511 18.360525 21.12052 23.880514 28.920527 33.960537 38.400467 41.76046 46.680508 49.440502 55.560551 59.40052 62.160515 69.960526 75.000534 77.760529 82.200539 87.720688 92.160706 97.200714 104.40083 112.20084 117.24085 120.60085 127.08095 132.12096 137.16096"
             y="72.720001"
             sodipodi:role="line"
             id="tspan27613">foundationforimplementation.Itissimplerandmoreun-</tspan><tspan
             x="-88.199631 -83.159645 -78.719627 -75.359642 -71.519623 -68.759628 -64.319611 -59.279625 -54.239639 -49.799625 -44.759636 -41.999619 -34.319538 -31.559519 -26.519533 -22.079544 -13.679693 -8.6397057 -5.8796868 -0.83969969 3.6003141 10.200394 14.640408 17.400402 22.440414 27.480425 30.840416 33.60041 36.360405 41.400417 49.200424 53.04039 59.160542 61.920536 68.160515 70.920509 78.240562 83.280571 87.720589 91.5606 96.000618 99.360611 102.12055 107.16061 111.60062 119.88048 124.3205 129.3605 137.16051"
             y="84.599701"
             sodipodi:role="line"
             id="tspan27615">derstandablethanotheralgorithms;itisdescribedcom-</tspan><tspan
             x="-88.199631 -83.159645 -80.39962 -75.959633 -73.199615 -68.759628 -65.999603 -57.479687 -53.039696 -47.999687 -42.959698 -37.919689 -32.8797 -24.4797 -21.719681 -13.079692 -5.2796855 -0.83969599 3.6003177 9.9601679 12.720163 17.760174 25.680124 30.720137 35.160149 39.600212 44.640224 52.080193 57.120205 63.960274 72.000145 77.040154 80.400146 84.840164 89.280174 92.040169 94.800163 99.240181 103.68019 109.92012 113.76009 118.8001 122.64012 125.40006 129.84013 137.64014"
             y="96.599701"
             sodipodi:role="line"
             id="tspan27617">pletelyenoughtomeettheneedsofapracticalsystem;</tspan><tspan
             x="-88.199631 -85.439613 -78.719528 -73.679543 -69.239532 -61.559372 -57.719379 -53.519524 -48.599606 -44.159618 -40.799603 -36.359612 -29.759752 -24.719765 -19.679754 -15.239765 -10.199754 -6.8397627 -2.9997692 2.0402422 7.0802536 10.440245 14.880258 22.920368 25.680363 33.48037 38.520378 41.280376 45.72039 53.520393 57.960407 63.00042 65.760414 70.200432 72.960426 75.720421 80.760429 85.800438 93.240364 97.680374 102.72038 111.60059 114.36058 122.16071 127.20072 131.0407 135.48076"
             y="108.5997"
             sodipodi:role="line"
             id="tspan27619">ithasseveralopen-sourceimplementationsandisused</tspan><tspan
             x="-88.199631 -83.159645 -75.719551 -71.879562 -67.67971 -62.759789 -58.319801 -54.959785 -50.519794 -45.359776 -40.919785 -35.879776 -28.079769 -23.039782 -18.599792 -13.559781 -10.799786 -6.3597722 -2.519779 2.6402409 5.4002357 8.1602306 14.52027 18.360239 22.800253 26.160244 30.600258 33.360252 40.92028 45.960293 49.320286 54.360294 59.400307 63.84037 67.20031 69.960304 72.720299 77.160316 83.280464 88.320473 92.520355 97.440292 104.28017 109.32018 113.76019 118.20026 125.64041 129.0004 134.04042 137.16032"
             y="120.4798"
             sodipodi:role="line"
             id="tspan27621">byseveralcompanies;itssafetypropertieshavebeenfor-</tspan><tspan
             x="-88.199631 -80.39962 -75.959633 -73.199615 -70.439598 -63.119526 -59.279533 -54.239521 -49.799534 -45.35952 -42.599525 -37.079533 -32.639523 -25.31953 -20.879541 -15.83953 -8.5195398 -3.479553 -0.11953786 4.800405 9.7203484 14.160362 19.200373 24.000454 28.440466 33.480476 40.680599 43.440594 46.200588 52.440708 56.880722 60.000866 65.520905 69.960922 72.720917 77.160927 82.200943 86.520882 93.720901 96.480896 102.84079 107.2808 112.32082 120.12082 125.16088 129.60089 132.96089 137.40089"
             y="132.4798"
             sodipodi:role="line"
             id="tspan27623">mallyspecifedandproven;anditseffciencyiscompara-</tspan><tspan
             x="-88.199631 -83.159645 -80.39962 -73.559784 -70.799767 -63.239853 -58.199867 -55.439846 -50.39986 -45.959846 -40.319927 -35.879936 -33.119919 -28.079931 -23.039919 -19.67993 -16.91991 -14.159915 -9.1199036 -1.3198974 2.5200958"
             y="144.4798"
             sodipodi:role="line"
             id="tspan27625">bletootheralgorithms.</tspan><tspan
             x="-78.239471 -72.119484 -67.079475 -58.799641 -55.439629 -50.999638 -43.199631 -38.759644 -35.999622 -30.959637 -25.919624 -21.479635 -14.639466 -9.5994797 -2.3996189 0.36040029 5.4004116 13.680511 18.720522 23.160536 28.200596 32.64061 39.720421 42.480415 47.520428 50.280422 53.640411 58.680424 63.720436 68.760445 73.200462 77.640526 85.080643 87.840637 92.880646 101.16075 104.52074 108.96075 114.00076 116.76076 119.52075 123.96077 128.40079 131.16078 135.60078"
             y="157.32001"
             sodipodi:role="line"
             id="tspan27627">Theremainderofthepaperintroducesthereplicated</tspan><tspan
             x="-88.199631 -84.359634 -81.599617 -77.15963 -74.399612 -67.919533 -60.119522 -55.679535 -51.239521 -46.199532 -43.439514 -38.399529 -32.159367 -27.119381 -23.759365 -18.719378 -13.679367 -10.919373 -6.4793587 3.1207211 6.4807119 12.000701 16.440763 20.880777 23.640772 26.400719 31.440779 38.280937 43.32095 46.680939 51.12077 56.160782 58.920776 62.760746 67.20076 72.240822 76.080788 79.920761 84.360771 90.240685 93.000679 98.040688 104.40086 108.24084 111.00083 114.36082 118.80083 123.84084 128.88086 131.64085 136.68086"
             y="169.32001"
             sodipodi:role="line"
             id="tspan27629">statemachineproblem(Section2),discussesthestrengths</tspan><tspan
             x="-88.199631 -83.759644 -78.719627 -70.799637 -63.599632 -59.159641 -54.719627 -49.679642 -44.639652 -40.199638 -36.359646 -32.51963 -28.079639 -21.359789 -16.319803 -10.079713 -4.679719 -0.23972949 4.800282 9.8403425 16.440222 19.800213 25.320204 29.760265 34.200279 36.960274 39.720219 44.760281 52.680122 57.720131 61.080124 66.360184 71.400192 75.84021 79.680222 84.120239 87.480232 90.240173 95.280235 99.720253 106.4403 111.48031 116.52032 122.64032 127.68034 132.12035 137.1604"
             y="181.19971"
             sodipodi:role="line"
             id="tspan27631">andweaknessesofPaxos(Section3),describesourgen-</tspan><tspan
             x="-88.199631 -83.759644 -80.399628 -75.959633 -69.359779 -64.919785 -59.879776 -54.839787 -51.479774 -46.439785 -41.999798 -37.559784 -28.919943 -26.159924 -17.159784 -12.119797 -7.0797853 -2.0397983 2.4002154 5.7602062 9.6001749 12.360169 16.800184 21.840195 26.880207 31.320221 36.360233 39.120228 41.880222 44.640217 47.400211 55.9203 59.280293 64.800278 69.240341 73.680359 76.440353 79.200294 84.240356 93.000435 98.040451 101.40044 107.76058 112.80059 116.16058 120.60059 124.44057 128.88063 133.92064 136.68063"
             y="193.19971"
             sodipodi:role="line"
             id="tspan27633">eralapproachtounderstandability(Section4),presents</tspan><tspan
             x="-88.199631 -85.439613 -80.39962 -71.759781 -65.159798 -60.719807 -57.359791 -50.279701 -45.83971 -40.799702 -35.759712 -31.919695 -27.479706 -22.43972 -18.599701 -13.559714 -5.6398644 -1.199875 1.5601442 6.6001558 11.640167 15.000158 17.760153 20.520147 25.56016 37.440239 40.800228 46.320217 50.760281 55.200294 57.960289 60.720234 65.7603 70.800308 78.840279 83.880287 88.920303 93.960358 97.320305 103.80046 108.00049 112.80051 117.24052 120.00051 125.04053 129.48055 132.24054 136.68054"
             y="205.19971"
             sodipodi:role="line"
             id="tspan27635">theRaftconsensusalgorithm(Sections5–8),evaluates</tspan><tspan
             x="-88.199631 -81.59964 -77.159653 -73.799637 -69.119545 -65.759529 -60.239544 -55.799553 -51.359539 -48.599545 -45.839527 -40.799538 -33.959381 -28.919394 -25.559378 -21.239447 -16.799458 -11.759446 -4.7996058 0.24038094 3.0003757 6.8403444 11.280358 16.320419 20.160387 24.000357 28.440371 34.200359 37.560352 42.000366 44.760361 49.200375 51.960369 56.400383 63.240242 70.320328 75.360336 78.720329 85.560188 88.920181 94.44017 98.880234 103.32025 106.08025 108.84019 113.88025 120.72041 125.76042 130.80043 134.16042"
             y="217.0798"
             sodipodi:role="line"
             id="tspan27637">Raft(Section9),anddiscussesrelatedwork(Section10).</tspan></text>
        <text
           transform="matrix(1,0,0,-1,318.59947,125.51962)"
           style="font-variant:normal;font-size:11.9552px;font-family:'Nimbus Roman';-inkscape-font-specification:NimbusRomNo9L-Medi;writing-mode:lr-tb;fill:#000000;fill-opacity:1;fill-rule:nonzero;stroke:none"
           id="text27643"><tspan
             x="0 17.880125 26.52013 31.800138 38.400158 41.760178 45.120174 50.400181 56.400196 60.360207 65.64019 75.360321 80.040337 84.00032 90.000336 93.960373 102.24036 112.20041 118.20042 123.48041 130.08043 133.44044 140.04047 145.32045"
             y="0"
             sodipodi:role="line"
             id="tspan27641">2Replicatedstatemachines</tspan></text>
        <text
           transform="matrix(1,0,0,-1,328.55963,112.67982)"
           style="font-variant:normal;font-size:9.96264px;font-family:'Nimbus Roman';-inkscape-font-specification:NimbusRomNo9L-Regu;writing-mode:lr-tb;fill:#000000;fill-opacity:1;fill-rule:nonzero;stroke:none"
           id="text27647"><tspan
             x="0 6.599988 11.639976 16.679987 20.519979 24.959969 29.999981 33.839973 38.879986 45.839825 50.279816 53.039833 58.079823 63.119831 66.47982 69.239845 71.99984 77.039848 84.839851 91.559753 94.319748 99.359764 104.39977 107.15977 111.59978 116.03979 118.79979 121.55978 129.71997 134.15997 137.51997 140.27997 144.11993 151.68011 154.44011 162.60004 165.36003 170.40004 177.96022 182.40024 187.44025 192.4803 195.24025 199.5603 204.60031 210.36029 215.40031"
             y="0"
             sodipodi:role="line"
             id="tspan27645">Consensusalgorithmstypicallyariseinthecontextof</tspan></text>
        <text
           transform="matrix(1,0,0,-1,318.59947,100.67982)"
           style="font-style:italic;font-variant:normal;font-size:9.96264px;font-family:'Nimbus Roman';-inkscape-font-specification:NimbusRomNo9L-ReguItal;writing-mode:lr-tb;fill:#000000;fill-opacity:1;fill-rule:nonzero;stroke:none"
           id="text27651"><tspan
             x="0 3.4800816 7.9200711 12.960082 15.720078 18.480097 22.920086 27.960096 30.720093 35.160107 42.240253 46.08025 48.840267 53.880253 56.640274 63.240273 70.440285 75.48027 79.800438 84.840424 87.600441 92.64045 97.080467"
             y="0"
             sodipodi:role="line"
             id="tspan27649">replicatedstatemachines</tspan></text>
        <text
           transform="matrix(1,0,0,-1,421.56047,100.67982)"
           style="font-variant:normal;font-size:9.96264px;font-family:'Nimbus Roman';-inkscape-font-specification:NimbusRomNo9L-Regu;writing-mode:lr-tb;fill:#000000;fill-opacity:1;fill-rule:nonzero;stroke:none"
           id="text27663"><tspan
             x="0 3.3599908 8.4000025 13.319945 16.679935 21.359756 24.719748 31.799599 34.559593 39.599606 42.3596 48.479649 52.919662 57.959675 62.999733 66.359673 71.399734 75.839752 80.279762 85.319778 89.639923 93.479897 96.239891 100.6799 103.4399 110.15984 117.95985 122.39986"
             y="0"
             sodipodi:role="line"
             id="tspan27653">[37].Inthisapproach,statema-</tspan><tspan
             x="-102.961 -98.521011 -93.481003 -90.721008 -85.680992 -81.241005 -75.121155 -70.081169 -62.761005 -56.041088 -51.601097 -46.561085 -43.80109 -41.041073 -36.601082 -32.161068 -29.401073 -26.641056 -21.601068 -14.280909 -9.2408972 -3.6008277 0.23914118 4.6791549 8.0391455 12.959332 17.399347 20.759336 26.759317 31.199331 36.239342 44.039349 49.079411 54.119419 56.879414 63.479343 66.239342 71.27935 75.719368 80.759377 83.519371 86.279366 90.719383 95.159393 100.19933 104.63934 109.67935 114.71941 117.47935 121.91942"
             y="12"
             sodipodi:role="line"
             id="tspan27655">chinesonacollectionofserverscomputeidenticalcopies</tspan><tspan
             x="-102.961 -97.921013 -92.280922 -89.520905 -84.480919 -77.760994 -73.921005 -69.480988 -61.680984 -54.960995 -51.121002 -48.360981 -43.920994 -41.160973 -34.321133 -29.881144 -24.841131 -17.521141 -13.081152 -8.641139 -1.3210989 3.1189148 8.158926 13.198986 15.958933 18.718927 23.758938 28.798998 35.39893 40.438942 45.478951 49.919014 53.278957 57.719017 60.478966 63.23896 68.278969 75.359169 79.559196 84.479134 88.919151 96.119019 98.879013 104.63891 108.47887 113.51888 121.31889"
             y="23.8801"
             sodipodi:role="line"
             id="tspan27657">ofthesamestateandcancontinueoperatingevenifsome</tspan><tspan
             x="-102.961 -97.921013 -90.600845 -87.840828 -82.800835 -74.280914 -70.440926 -66.000908 -62.640919 -57.720757 -53.280769 -49.920753 -42.120754 -37.680763 -34.320747 -25.800827 -20.760841 -15.96099 -8.7609816 -3.7209702 2.6390297 9.2390423 13.679056 18.719067 21.479063 24.239058 28.679071 33.119083 35.879078 40.319092 49.319214 53.15918 55.919174 60.359188 63.119183 71.759056 79.559059 83.999077 88.439087 93.479149 96.239098 101.27915 105.71917 113.51929 117.95931 121.31931"
             y="35.8801"
             sodipodi:role="line"
             id="tspan27659">oftheserversaredown.Replicatedstatemachinesare</tspan><tspan
             x="-114.4809"
             y="65.760201"
             id="tspan27661">1</tspan></text>
      </g>
    </g>
    <rect
       style="opacity:1;fill:none;fill-opacity:1;stroke:#000000;stroke-width:0.277599;stroke-linecap:round;stroke-linejoin:round;stroke-miterlimit:4;stroke-dasharray:none;stroke-dashoffset:1.3;stroke-opacity:1;font-variation-settings:normal;vector-effect:none;-inkscape-stroke:none;stop-color:#000000;stop-opacity:1"
       id="rect27965"
       width="174.75366"
       height="121.70834"
       x="51.661705"
       y="0.1322915" />
    <rect
       style="font-variation-settings:normal;vector-effect:none;fill:url(#linearGradient28487-0);fill-opacity:1;stroke:none;stroke-width:0.351024;stroke-linecap:round;stroke-linejoin:round;stroke-miterlimit:4;stroke-dasharray:none;stroke-dashoffset:1.3;stroke-opacity:1;-inkscape-stroke:none;stop-color:#000000"
       id="rect27965-6"
       width="277.8125"
       height="122.4143"
       x="0.25445381"
       y="0.1322915" />
  </g>
</svg>
