<svg viewBox="0 0 960 540" fill="none" xmlns="http://www.w3.org/2000/svg">
<g clip-path="url(#clip0_201_2)">
<path d="M941.615 499.339C941.615 499.535 941.593 499.734 941.55 499.931L939.014 511.556C938.833 512.388 938.292 513.079 937.528 513.457L927.019 518.656C926.308 519.007 925.478 519.04 924.744 518.742L918.772 516.33C917.948 515.997 917.328 515.284 917.112 514.423L914.155 502.461L915.114 502.461L918.016 514.197C918.158 514.77 918.571 515.245 919.119 515.467L925.091 517.879C925.58 518.075 926.131 518.056 926.604 517.822L937.115 512.623C937.622 512.372 937.982 511.91 938.103 511.359L940.639 499.734C940.783 499.084 940.561 498.404 940.064 497.96L931.827 490.6C930.929 489.798 929.659 489.531 928.513 489.901L915.994 494.04L915.994 493.028L928.225 489.015C929.686 488.542 931.303 488.881 932.448 489.905L940.686 497.264C941.284 497.798 941.615 498.558 941.615 499.341L941.615 499.339Z" fill="#0066FF"/>
<path d="M915.104 497.891L915.104 499.14L916.37 499.14L916.37 500.282L915.104 500.282L915.104 501.53L913.998 501.53L913.998 500.282L912.735 500.282L912.735 499.14L913.998 499.14L913.998 497.891L915.104 497.891Z" fill="#FF0000"/>
<path d="M915.104 493.534L915.104 494.783L916.37 494.783L916.37 495.924L915.104 495.924L915.104 497.173L913.998 497.173L913.998 495.924L912.735 495.924L912.735 494.783L913.998 494.783L913.998 493.534L915.104 493.534Z" fill="#FF0000"/>
<path d="M931.312 502.728L931.312 505.506L927.777 505.506L927.777 508.918L931.312 508.918L931.312 511.702L922.463 511.702L922.463 508.918L925.5 508.918L925.5 505.506L922.463 505.506L922.463 502.728L931.312 502.728Z" fill="#FF0000"/>
<path d="M929.035 498.939L929.035 494.138L931.312 494.138L931.312 501.723L922.463 501.723L922.463 498.939L929.035 498.939Z" fill="#FF0000"/>
<path d="M921.02 479.338C920.763 479.338 920.548 479.42 920.379 479.581C920.209 479.745 920.087 479.969 920.009 480.253C919.952 480.458 919.886 480.783 919.808 481.229C919.73 481.675 919.674 481.979 919.641 482.139C919.569 482.468 919.477 482.77 919.362 483.047C919.247 483.319 919.064 483.539 918.813 483.707C918.563 483.878 918.254 483.962 917.882 483.962C917.317 483.962 916.871 483.728 916.545 483.259C916.222 482.788 916.06 482.188 916.06 481.461C916.06 480.734 916.226 480.113 916.559 479.649C916.894 479.19 917.373 478.96 917.999 478.96L918.189 478.96L918.189 479.593L917.999 479.593C917.543 479.593 917.2 479.762 916.974 480.101C916.748 480.44 916.633 480.892 916.633 481.461C916.633 482.03 916.742 482.466 916.958 482.807C917.177 483.156 917.482 483.329 917.88 483.329C918.143 483.329 918.365 483.247 918.542 483.086C918.719 482.922 918.85 482.7 918.934 482.417C918.996 482.203 919.074 481.851 919.167 481.36C919.261 480.869 919.315 480.59 919.331 480.522C919.399 480.199 919.493 479.899 919.609 479.624C919.724 479.351 919.9 479.129 920.135 478.958C920.375 478.79 920.669 478.707 921.02 478.707C921.626 478.707 922.093 478.962 922.426 479.474C922.759 479.99 922.925 480.641 922.925 481.426C922.925 482.211 922.751 482.862 922.403 483.368C922.058 483.876 921.567 484.132 920.932 484.132L920.554 484.132L920.554 483.502L920.932 483.502C921.407 483.502 921.764 483.308 922.003 482.92C922.239 482.534 922.358 482.036 922.358 481.42C922.358 480.805 922.245 480.308 922.017 479.92C921.791 479.529 921.458 479.334 921.02 479.334L921.02 479.338Z" fill="#0066FF"/>
<path d="M921.555 477.805C921.102 477.805 920.757 477.6 920.517 477.189C920.281 476.782 920.163 476.268 920.163 475.648C920.163 475.323 920.204 475.01 920.283 474.712C920.367 474.417 920.447 474.207 920.521 474.082L920.648 473.882L919.791 473.882C919.409 473.882 919.117 474.026 918.916 474.314C918.717 474.606 918.618 474.967 918.618 475.399C918.618 475.832 918.706 476.188 918.879 476.498C919.05 476.807 919.265 476.963 919.522 476.963L919.522 477.555C919.136 477.54 918.799 477.349 918.507 476.983C918.213 476.613 918.065 476.093 918.065 475.419C918.065 474.811 918.211 474.304 918.503 473.901C918.797 473.494 919.228 473.292 919.793 473.292L921.768 473.292C921.992 473.292 922.15 473.256 922.241 473.186C922.333 473.116 922.379 472.999 922.379 472.834C922.379 472.729 922.368 472.643 922.342 472.579L922.319 472.551L922.835 472.551C922.878 472.639 922.899 472.766 922.899 472.933C922.899 473.227 922.833 473.44 922.699 473.566C922.572 473.697 922.471 473.775 922.397 473.8L922.34 473.81L922.34 473.837C922.377 473.858 922.444 473.952 922.541 474.116C922.613 474.23 922.673 474.349 922.722 474.47C922.859 474.772 922.927 475.152 922.927 475.611C922.927 476.254 922.816 476.78 922.592 477.189C922.368 477.598 922.023 477.805 921.557 477.805L921.555 477.805ZM921.555 477.195C922.103 477.195 922.375 476.642 922.375 475.537C922.375 475.212 922.327 474.908 922.231 474.63C922.136 474.353 922.056 474.17 921.994 474.08C921.931 473.997 921.881 473.93 921.84 473.886L921.183 473.886C921.156 473.907 921.111 473.967 921.049 474.067C920.985 474.178 920.913 474.369 920.835 474.636C920.755 474.914 920.714 475.216 920.714 475.539C920.714 476.192 920.827 476.661 921.055 476.95C921.185 477.113 921.353 477.197 921.557 477.197L921.555 477.195Z" fill="#0066FF"/>
<path d="M916.686 471.918C916.621 471.99 916.534 472.025 916.425 472.025C916.316 472.025 916.228 471.99 916.16 471.918C916.095 471.846 916.062 471.753 916.062 471.634C916.062 471.515 916.095 471.422 916.16 471.35C916.228 471.277 916.318 471.242 916.425 471.242C916.532 471.242 916.619 471.277 916.686 471.35C916.754 471.418 916.789 471.513 916.789 471.634C916.789 471.755 916.754 471.85 916.686 471.918ZM918.156 471.932L918.156 471.34L922.831 471.34L922.831 471.932L918.156 471.932Z" fill="#0066FF"/>
<path d="M922.831 465.617L922.831 466.209L920.33 466.209C919.738 466.209 919.304 466.359 919.031 466.661C918.754 466.965 918.616 467.366 918.616 467.863C918.616 468.397 918.776 468.806 919.095 469.088C919.415 469.37 919.833 469.513 920.354 469.513L922.831 469.513L922.831 470.105L918.156 470.105L918.156 469.513L918.893 469.513L918.893 469.476C918.824 469.444 918.729 469.365 918.604 469.238C918.509 469.139 918.425 469.03 918.353 468.913C918.273 468.778 918.203 468.603 918.149 468.387C918.092 468.169 918.065 467.945 918.065 467.711C918.065 467.105 918.244 466.606 918.6 466.211C918.957 465.817 919.498 465.619 920.221 465.619L922.833 465.619L922.831 465.617Z" fill="#0066FF"/>
<path d="M921.164 464.191L918.71 464.191L918.71 465.001L918.156 465.001L918.156 464.191L917.108 464.191L917.108 463.599L918.156 463.599L918.156 461.807L918.71 461.807L918.71 463.599L921.094 463.599C921.945 463.599 922.372 463.238 922.374 462.518C922.374 462.356 922.356 462.2 922.321 462.048C922.286 461.896 922.245 461.783 922.202 461.707L922.146 461.614L922.705 461.614C922.851 461.844 922.923 462.161 922.923 462.568C922.923 463.055 922.777 463.447 922.485 463.741C922.192 464.039 921.752 464.187 921.162 464.187L921.164 464.191Z" fill="#0066FF"/>
<path d="M931.497 477.413L931.497 479.509L928.829 479.509L928.829 482.084L931.497 482.084L931.497 484.184L924.82 484.184L924.82 482.084L927.111 482.084L927.111 479.509L924.82 479.509L924.82 477.413L931.497 477.413Z" fill="#FF0000"/>
<path d="M925.5 476.556C925.251 476.556 925.06 476.469 924.927 476.291C924.793 476.114 924.727 475.867 924.727 475.545C924.727 475.224 924.795 474.996 924.929 474.819C925.064 474.641 925.254 474.554 925.5 474.554C925.745 474.554 925.946 474.641 926.084 474.819C926.223 474.996 926.291 475.237 926.291 475.545C926.291 475.853 926.223 476.114 926.088 476.291C925.954 476.469 925.757 476.556 925.5 476.556ZM926.729 476.509L926.729 474.601L931.497 474.601L931.497 476.509L926.729 476.509Z" fill="#FF0000"/>
<path d="M928.256 473.71C927.748 473.71 927.35 473.492 927.064 473.058C926.778 472.623 926.635 472.025 926.635 471.266L926.635 468.071L927.814 468.071L927.814 468.942C928.028 468.864 928.2 468.825 928.33 468.825C928.833 468.825 929.216 469.039 929.481 469.468C929.744 469.9 929.877 470.498 929.877 471.266C929.877 471.836 929.964 472.125 930.142 472.127C930.305 472.127 930.389 471.84 930.389 471.266C930.389 470.337 930.506 469.628 930.738 469.137C930.971 468.65 931.375 468.406 931.953 468.406C932.532 468.406 932.917 468.65 933.149 469.137C933.383 469.628 933.498 470.337 933.498 471.266C933.498 472.195 933.383 472.9 933.153 473.395C932.919 473.886 932.52 474.131 931.951 474.131C931.653 474.131 931.398 474.051 931.184 473.893C930.973 473.738 930.835 473.584 930.769 473.432L930.675 473.204L930.638 473.204C930.597 473.292 930.525 473.373 930.42 473.451C930.336 473.516 930.243 473.549 930.142 473.549C930.017 473.549 929.902 473.504 929.797 473.414C929.701 473.325 929.631 473.235 929.587 473.149L929.54 473.015L929.503 473.015C929.481 473.071 929.423 473.151 929.331 473.256C929.257 473.34 929.179 473.41 929.098 473.467C928.864 473.632 928.583 473.714 928.254 473.714L928.256 473.71ZM932.224 470.506C932.177 470.35 932.088 470.272 931.953 470.272C931.819 470.272 931.731 470.35 931.688 470.506C931.645 470.672 931.624 470.923 931.624 471.266C931.624 471.609 931.645 471.866 931.688 472.025C931.731 472.181 931.821 472.259 931.953 472.259C932.086 472.259 932.177 472.181 932.224 472.025C932.267 471.868 932.288 471.614 932.288 471.266C932.288 470.917 932.267 470.672 932.224 470.506ZM928.731 471.266C928.731 470.864 928.576 470.666 928.262 470.666C927.948 470.666 927.796 470.866 927.796 471.266C927.796 471.665 927.952 471.885 928.262 471.885C928.418 471.889 928.535 471.838 928.615 471.733C928.694 471.63 928.733 471.474 928.733 471.266L928.731 471.266Z" fill="#FF0000"/>
<path d="M931.497 462.212L931.497 464.117L929.197 464.117C928.926 464.117 928.71 464.197 928.548 464.359C928.385 464.52 928.305 464.742 928.305 465.025C928.305 465.307 928.385 465.537 928.544 465.693C928.704 465.851 928.922 465.929 929.199 465.929L931.499 465.929L931.499 467.837L924.822 467.837L924.822 465.929L927.588 465.929L927.588 465.835C927.514 465.814 927.401 465.742 927.253 465.621C927.15 465.537 927.056 465.434 926.969 465.313C926.879 465.179 926.801 465.005 926.735 464.791C926.671 464.577 926.637 464.351 926.637 464.115C926.637 463.525 926.803 463.059 927.136 462.718C927.471 462.379 927.974 462.21 928.64 462.21L931.499 462.21L931.497 462.212Z" fill="#FF0000"/>
<path d="M929.779 459.255L929.779 455.632L931.497 455.632L931.497 461.355L924.82 461.355L924.82 459.255L929.779 459.255Z" fill="#FF0000"/>
<path d="M930.964 455.044C930.545 455.562 929.927 455.821 929.115 455.821C928.303 455.821 927.685 455.562 927.267 455.044C926.848 454.528 926.637 453.832 926.637 452.958C926.637 452.083 926.848 451.391 927.267 450.875C927.685 450.357 928.303 450.098 929.115 450.098C929.927 450.098 930.545 450.357 930.964 450.875C931.382 451.391 931.593 452.085 931.593 452.958C931.593 453.83 931.382 454.528 930.964 455.044ZM929.768 452.274C929.606 452.116 929.39 452.036 929.115 452.036C928.841 452.036 928.622 452.116 928.459 452.274C928.297 452.432 928.217 452.66 928.217 452.958C928.217 453.256 928.297 453.489 928.459 453.647C928.622 453.805 928.842 453.885 929.115 453.885C929.388 453.885 929.606 453.805 929.768 453.647C929.931 453.489 930.015 453.259 930.015 452.958C930.015 452.656 929.933 452.432 929.768 452.274Z" fill="#FF0000"/>
<path d="M930.114 449.675C929.612 449.675 929.24 449.481 928.996 449.093C928.757 448.705 928.638 448.199 928.638 447.576C928.638 447.262 928.663 446.983 928.718 446.738C928.766 446.502 928.823 446.346 928.885 446.272L928.959 446.165L928.35 446.165C928.207 446.165 928.1 446.212 928.028 446.304C927.956 446.395 927.921 446.557 927.921 446.785C927.921 447.203 928.063 447.414 928.35 447.414L928.35 449.42C927.789 449.42 927.362 449.194 927.072 448.742C926.782 448.29 926.635 447.638 926.635 446.785C926.635 445.931 926.774 445.293 927.05 444.88C927.327 444.467 927.759 444.26 928.35 444.26L929.542 444.26C929.69 444.26 929.795 444.243 929.853 444.208C929.912 444.173 929.941 444.108 929.941 444.019L929.922 443.878L931.495 443.878C931.558 444.021 931.589 444.274 931.589 444.638C931.589 445.035 931.499 445.345 931.324 445.565C931.182 445.748 931.042 445.875 930.905 445.947L930.831 445.974L930.831 446.072C930.913 446.103 931.001 446.159 931.096 446.243C931.186 446.323 931.264 446.42 931.33 446.531C931.402 446.652 931.462 446.824 931.513 447.046C931.564 447.268 931.589 447.507 931.589 447.764C931.589 448.32 931.464 448.777 931.217 449.138C930.971 449.494 930.603 449.673 930.112 449.673L930.114 449.675ZM929.98 447.766C930.185 447.766 930.288 447.5 930.288 446.966C930.288 446.432 930.185 446.165 929.98 446.165C929.775 446.165 929.678 446.432 929.678 446.966C929.678 447.5 929.779 447.766 929.98 447.766Z" fill="#FF0000"/>
<path d="M930.948 442.926C930.52 443.335 929.908 443.541 929.113 443.541C928.318 443.541 927.707 443.337 927.278 442.926C926.85 442.517 926.635 442.005 926.635 441.393C926.635 441.058 926.682 440.756 926.776 440.489C926.875 440.226 926.971 440.047 927.064 439.953L927.204 439.809L927.204 439.726L924.82 439.726L924.82 437.817L931.497 437.817L931.497 439.726L930.64 439.726L930.64 439.819C930.749 439.87 930.859 439.938 930.971 440.024C931.086 440.119 931.182 440.218 931.256 440.318C931.349 440.438 931.427 440.596 931.494 440.791C931.558 440.986 931.591 441.186 931.591 441.395C931.591 442.006 931.377 442.517 930.948 442.928L930.948 442.926ZM928.521 441.301C928.667 441.459 928.864 441.539 929.113 441.539C929.363 441.539 929.559 441.461 929.705 441.305C929.851 441.149 929.924 440.925 929.924 440.629C929.924 440.333 929.851 440.117 929.707 439.961C929.563 439.805 929.364 439.726 929.113 439.726C928.862 439.726 928.659 439.805 928.517 439.963C928.375 440.121 928.303 440.343 928.303 440.629C928.303 440.916 928.375 441.146 928.521 441.299L928.521 441.301Z" fill="#FF0000"/>
<path d="M929.468 434.628L930.878 434.628L930.878 435.867L929.468 435.867L929.468 437.3L928.266 437.3L928.266 435.867L926.856 435.867L926.856 434.628L928.266 434.628L928.266 433.198L929.468 433.198L929.468 434.628Z" fill="#FF0000"/>
<path d="M929.468 430.339L930.878 430.339L930.878 431.577L929.468 431.577L929.468 433.011L928.266 433.011L928.266 431.577L926.856 431.577L926.856 430.339L928.266 430.339L928.266 428.909L929.468 428.909L929.468 430.339Z" fill="#FF0000"/>
<path d="M938.222 481.011L938.222 484.264L937.514 484.264C937.349 484.264 937.201 484.225 937.072 484.149C936.944 484.071 936.84 483.968 936.761 483.835C936.626 483.611 936.509 483.319 936.41 482.959C936.383 482.856 936.357 482.768 936.336 482.696C936.315 482.624 936.285 482.55 936.25 482.47C936.215 482.39 936.18 482.328 936.145 482.279C936.11 482.232 936.065 482.191 936.015 482.16C935.964 482.129 935.909 482.114 935.849 482.114C935.637 482.114 935.532 482.271 935.532 482.587C935.532 482.902 935.672 483.062 935.95 483.062L936.137 483.062L936.137 484.172L935.95 484.172C935.494 484.172 935.161 484.042 934.951 483.783C934.745 483.526 934.641 483.126 934.641 482.589C934.641 482.051 934.741 481.658 934.939 481.397C935.138 481.136 935.442 481.005 935.851 481.005C936.079 481.005 936.279 481.073 936.455 481.208C936.628 481.34 936.759 481.506 936.852 481.703C936.938 481.886 937.014 482.078 937.078 482.279C937.133 482.449 937.183 482.612 937.234 482.772C937.279 482.908 937.324 482.976 937.366 482.976L937.366 481.011L938.223 481.011L938.222 481.011Z" fill="#FF0000"/>
<path d="M935.128 477.657C935.456 477.349 935.898 477.197 936.455 477.197C937.012 477.197 937.456 477.351 937.779 477.657C938.107 477.965 938.27 478.391 938.27 478.937C938.27 479.482 938.107 479.907 937.779 480.214C937.452 480.522 937.012 480.678 936.455 480.678C935.898 480.678 935.456 480.524 935.128 480.214C934.803 479.907 934.641 479.48 934.641 478.937C934.641 478.393 934.803 477.963 935.128 477.657ZM935.584 478.937C935.584 479.324 935.874 479.517 936.455 479.517C937.035 479.517 937.329 479.324 937.329 478.937C937.329 478.549 937.037 478.358 936.455 478.358C935.872 478.358 935.584 478.551 935.584 478.937Z" fill="#FF0000"/>
<path d="M938.222 473.646L938.222 476.899L937.514 476.899C937.349 476.899 937.201 476.86 937.072 476.784C936.944 476.706 936.84 476.603 936.761 476.471C936.626 476.246 936.509 475.954 936.41 475.594C936.383 475.491 936.357 475.403 936.336 475.331C936.315 475.259 936.285 475.185 936.25 475.105C936.215 475.025 936.18 474.963 936.145 474.914C936.11 474.867 936.065 474.826 936.015 474.795C935.964 474.764 935.909 474.749 935.849 474.749C935.637 474.749 935.532 474.906 935.532 475.222C935.532 475.537 935.672 475.697 935.95 475.697L936.137 475.697L936.137 476.807L935.95 476.807C935.494 476.807 935.161 476.677 934.951 476.418C934.745 476.161 934.641 475.761 934.641 475.224C934.641 474.686 934.741 474.293 934.939 474.032C935.138 473.771 935.442 473.64 935.851 473.64C936.079 473.64 936.279 473.708 936.455 473.843C936.628 473.975 936.759 474.141 936.852 474.338C936.938 474.521 937.014 474.714 937.078 474.914C937.133 475.084 937.183 475.247 937.234 475.407C937.279 475.543 937.324 475.611 937.366 475.611L937.366 473.646L938.223 473.646L938.222 473.646Z" fill="#FF0000"/>
<path d="M935.549 471.909L935.549 473.256L934.69 473.256L934.69 470.337L935.549 470.337L935.886 471.194L935.987 471.607L936.098 471.607L936.007 471.194C936.007 470.87 936.1 470.613 936.287 470.426C936.476 470.239 936.729 470.146 937.045 470.146C937.863 470.146 938.272 470.691 938.272 471.78C938.272 472.871 937.861 473.414 937.045 473.414L936.969 473.414L936.969 472.304L937.045 472.304C937.164 472.304 937.246 472.261 937.292 472.175C937.339 472.09 937.363 471.957 937.363 471.78C937.363 471.603 937.339 471.47 937.292 471.385C937.246 471.299 937.164 471.256 937.045 471.256C936.926 471.256 936.837 471.299 936.786 471.385C936.735 471.47 936.712 471.603 936.712 471.78L936.712 472.955L936.116 472.955L935.668 471.91L935.547 471.498L935.436 471.498L935.547 471.91L935.549 471.909Z" fill="#FF0000"/>
<circle cx="925.675" cy="41.3854" r="19.5433" stroke="#838383" stroke-width="2"/>
</g>
<defs>
<clipPath id="clip0_201_2">
<rect width="960" height="540" fill="white"/>
</clipPath>
</defs>
</svg>
