<svg width="961" height="540" viewBox="0 0 961 540" fill="none" xmlns="http://www.w3.org/2000/svg">
<rect width="960" height="540" transform="translate(0.0532227)" fill="white"/>
<circle cx="925.728" cy="41.3856" r="19.5433" stroke="#838383" stroke-width="2"/>
<path d="M932.703 462.563L932.703 466.514L927.624 466.514L927.624 471.369L932.703 471.369L932.703 475.329L919.989 475.329L919.989 471.369L924.351 471.369L924.351 466.514L919.989 466.514L919.989 462.563L932.703 462.563Z" fill="#FF0000"/>
<path d="M921.284 461.666C920.812 461.666 920.447 461.499 920.195 461.164C919.94 460.83 919.814 460.363 919.814 459.76C919.814 459.157 919.943 458.723 920.201 458.391C920.46 458.059 920.821 457.89 921.286 457.89C921.752 457.89 922.136 458.057 922.399 458.391C922.662 458.725 922.794 459.182 922.794 459.76C922.794 460.337 922.666 460.83 922.408 461.164C922.149 461.499 921.778 461.666 921.286 461.666L921.284 461.666ZM923.625 461.577L923.625 457.976L932.704 457.976L932.704 461.577L923.625 461.577V461.577Z" fill="#FF0000"/>
<path d="M926.533 457.02C925.563 457.02 924.807 456.61 924.264 455.791C923.719 454.972 923.448 453.845 923.448 452.411L923.448 446.388L925.691 446.388L925.691 448.03C926.099 447.884 926.426 447.81 926.676 447.81C927.633 447.81 928.363 448.214 928.865 449.022C929.367 449.836 929.619 450.966 929.619 452.411C929.619 453.487 929.788 454.029 930.126 454.035C930.44 454.035 930.595 453.494 930.595 452.411C930.595 450.661 930.818 449.322 931.26 448.398C931.704 447.479 932.475 447.018 933.573 447.018C934.671 447.018 935.408 447.477 935.853 448.398C936.297 449.322 936.517 450.659 936.517 452.411C936.517 454.162 936.299 455.493 935.861 456.424C935.417 457.348 934.656 457.811 933.573 457.811C933.005 457.811 932.518 457.661 932.11 457.363C931.708 457.071 931.446 456.781 931.322 456.493L931.144 456.064L931.074 456.064C930.997 456.227 930.858 456.383 930.657 456.529C930.497 456.652 930.32 456.713 930.126 456.713C929.888 456.713 929.671 456.629 929.47 456.46C929.286 456.29 929.154 456.123 929.07 455.958L928.981 455.704L928.91 455.704C928.869 455.81 928.758 455.962 928.581 456.161C928.44 456.32 928.291 456.451 928.137 456.557C927.692 456.868 927.158 457.022 926.533 457.022L926.533 457.02ZM934.086 450.981C933.996 450.689 933.825 450.541 933.571 450.541C933.317 450.541 933.148 450.686 933.065 450.981C932.982 451.292 932.941 451.767 932.941 452.413C932.941 453.058 932.982 453.544 933.065 453.843C933.148 454.135 933.317 454.283 933.571 454.283C933.825 454.283 933.996 454.137 934.086 453.843C934.169 453.544 934.21 453.066 934.21 452.413C934.21 451.759 934.169 451.292 934.086 450.981ZM927.436 452.413C927.436 451.657 927.137 451.281 926.541 451.281C925.945 451.281 925.655 451.66 925.655 452.413C925.655 453.166 925.949 453.58 926.541 453.58C926.836 453.587 927.06 453.492 927.21 453.295C927.361 453.098 927.436 452.804 927.436 452.413Z" fill="#FF0000"/>
<path d="M932.703 436.061L932.703 439.653L928.324 439.653C927.81 439.653 927.397 439.805 927.088 440.109C926.778 440.414 926.622 440.833 926.622 441.364C926.622 441.895 926.774 442.329 927.079 442.625C927.385 442.921 927.799 443.069 928.324 443.069L932.703 443.069L932.703 446.669L919.989 446.669L919.989 443.069L925.255 443.069L925.255 442.893C925.114 442.853 924.9 442.718 924.616 442.489C924.422 442.331 924.24 442.138 924.076 441.91C923.905 441.658 923.757 441.33 923.631 440.926C923.507 440.522 923.446 440.097 923.446 439.653C923.446 438.54 923.762 437.662 924.394 437.019C925.033 436.38 925.988 436.063 927.259 436.063L932.701 436.063L932.703 436.061Z" fill="#FF0000"/>
<path d="M929.433 431.204L929.433 424.373L932.703 424.373L932.703 435.164L919.989 435.164L919.989 431.204L929.431 431.204L929.433 431.204Z" fill="#FF0000"/>
<path d="M931.685 423.986C930.886 424.963 929.713 425.452 928.165 425.452C926.616 425.452 925.443 424.963 924.644 423.986C923.845 423.015 923.448 421.703 923.448 420.053C923.448 418.403 923.847 417.1 924.644 416.129C925.443 415.152 926.616 414.663 928.165 414.663C929.713 414.663 930.886 415.152 931.685 416.129C932.484 417.1 932.881 418.409 932.881 420.053C932.881 421.697 932.482 423.015 931.685 423.986ZM929.406 418.763C929.098 418.464 928.684 418.314 928.165 418.314C927.645 418.314 927.227 418.464 926.915 418.763C926.607 419.061 926.454 419.49 926.454 420.053C926.454 420.616 926.607 421.054 926.915 421.352C927.229 421.65 927.645 421.8 928.165 421.8C928.684 421.8 929.098 421.65 929.406 421.352C929.72 421.054 929.876 420.62 929.876 420.053C929.876 419.486 929.72 419.061 929.406 418.763Z" fill="#FF0000"/>
<path d="M930.07 414.58C929.113 414.58 928.404 414.214 927.942 413.482C927.487 412.75 927.259 411.796 927.259 410.62C927.259 410.03 927.31 409.503 927.411 409.04C927.505 408.596 927.611 408.302 927.729 408.162L927.87 407.961L926.708 407.961C926.436 407.961 926.231 408.048 926.097 408.219C925.96 408.393 925.894 408.695 925.894 409.127C925.894 409.918 926.165 410.311 926.71 410.311L926.71 414.096C925.64 414.096 924.828 413.671 924.277 412.818C923.724 411.966 923.448 410.737 923.448 409.127C923.448 407.517 923.711 406.315 924.236 405.537C924.762 404.758 925.586 404.369 926.71 404.369L928.978 404.369C929.263 404.369 929.461 404.335 929.572 404.268C929.685 404.2 929.741 404.081 929.741 403.912L929.705 403.648L932.702 403.648C932.819 403.916 932.879 404.395 932.879 405.08C932.879 405.829 932.71 406.411 932.373 406.827C932.101 407.172 931.834 407.413 931.574 407.546L931.433 407.599L931.433 407.783C931.587 407.843 931.755 407.951 931.939 408.109C932.11 408.262 932.257 408.443 932.383 408.653C932.52 408.881 932.635 409.205 932.734 409.624C932.832 410.043 932.879 410.495 932.879 410.98C932.879 412.027 932.642 412.89 932.17 413.569C931.702 414.242 931.003 414.578 930.068 414.578L930.07 414.58ZM929.814 410.98C930.205 410.98 930.399 410.476 930.399 409.469C930.399 408.462 930.205 407.959 929.814 407.959C929.423 407.959 929.237 408.462 929.237 409.469C929.237 410.476 929.429 410.98 929.814 410.98Z" fill="#FF0000"/>
<path d="M931.657 402.577C930.841 403.349 929.677 403.737 928.165 403.737C926.652 403.737 925.488 403.349 924.672 402.577C923.856 401.805 923.448 400.843 923.448 399.688C923.448 399.055 923.538 398.488 923.715 397.985C923.905 397.488 924.087 397.151 924.264 396.976L924.531 396.703L924.531 396.544L919.992 396.544L919.992 392.944L932.706 392.944L932.706 396.544L931.074 396.544L931.074 396.72C931.281 396.813 931.49 396.942 931.704 397.107C931.922 397.289 932.104 397.473 932.245 397.661C932.422 397.89 932.574 398.186 932.697 398.552C932.821 398.918 932.883 399.296 932.883 399.688C932.883 400.841 932.475 401.803 931.659 402.577L931.657 402.577ZM927.039 399.512C927.316 399.81 927.692 399.961 928.165 399.961C928.637 399.961 929.013 399.815 929.29 399.521C929.568 399.229 929.707 398.803 929.707 398.247C929.707 397.691 929.57 397.282 929.295 396.986C929.019 396.69 928.643 396.542 928.165 396.542C927.686 396.542 927.302 396.692 927.03 396.99C926.759 397.289 926.622 397.708 926.622 398.245C926.622 398.782 926.761 399.216 927.039 399.51L927.039 399.512Z" fill="#FF0000"/>
<path d="M924.114 385.123L926.438 385.123L926.438 387.143L924.114 387.143L924.114 389.483L922.136 389.483L922.136 387.143L919.812 387.143L919.812 385.123L922.136 385.123L922.136 382.792L924.114 382.792L924.114 385.123Z" fill="#FF0000"/>
<path d="M924.114 377.507L926.438 377.507L926.438 379.528L924.114 379.528L924.114 381.867L922.136 381.867L922.136 379.528L919.812 379.528L919.812 377.507L922.136 377.507L922.136 375.176L924.114 375.176L924.114 377.507Z" fill="#FF0000"/>
<path d="M941.616 495.492C941.616 495.699 941.595 495.909 941.548 496.118L938.841 508.405C938.647 509.283 938.07 510.014 937.256 510.414L926.039 515.908C925.281 516.28 924.397 516.312 923.61 515.999L917.236 513.45C916.356 513.099 915.696 512.346 915.465 511.434L912.31 498.792L913.334 498.792L916.431 511.197C916.583 511.804 917.023 512.303 917.608 512.538L923.982 515.085C924.503 515.295 925.093 515.271 925.597 515.024L936.814 509.53C937.354 509.266 937.739 508.777 937.869 508.193L940.576 495.907C940.729 495.219 940.492 494.5 939.962 494.03L931.172 486.254C930.213 485.406 928.859 485.122 927.637 485.516L914.276 489.89L914.276 488.82L927.329 484.578C928.889 484.077 930.615 484.437 931.837 485.518L940.627 493.294C941.263 493.859 941.618 494.661 941.618 495.49L941.616 495.492Z" fill="#FF0000"/>
<path d="M913.325 493.963L913.325 495.28L914.677 495.28L914.677 496.486L913.325 496.486L913.325 497.804L912.143 497.804L912.143 496.486L910.795 496.486L910.795 495.28L912.143 495.28L912.143 493.963L913.325 493.963Z" fill="#FF0000"/>
<path d="M913.325 489.36L913.325 490.677L914.677 490.677L914.677 491.883L913.325 491.883L913.325 493.201L912.143 493.201L912.143 491.883L910.795 491.883L910.795 490.677L912.143 490.677L912.143 489.36L913.325 489.36Z" fill="#FF0000"/>
<path d="M929.666 499.069L929.666 502.022L925.868 502.022L925.868 505.653L929.666 505.653L929.666 508.612L920.164 508.612L920.164 505.653L923.424 505.653L923.424 502.022L920.164 502.022L920.164 499.069L929.668 499.069L929.666 499.069Z" fill="#FF0000"/>
<path d="M927.222 495.037L927.222 489.93L929.668 489.93L929.668 497.997L920.164 497.997L920.164 495.037L927.222 495.037V495.037Z" fill="#FF0000"/>
<path d="M935.417 501.604L935.417 503.884L934.92 503.884C934.803 503.884 934.7 503.857 934.61 503.802C934.518 503.748 934.445 503.675 934.389 503.583C934.295 503.426 934.213 503.221 934.143 502.969C934.124 502.897 934.106 502.836 934.091 502.786C934.075 502.735 934.055 502.683 934.031 502.627C934.007 502.571 933.982 502.526 933.956 502.493C933.931 502.459 933.9 502.432 933.864 502.41C933.829 502.388 933.79 502.377 933.748 502.377C933.599 502.377 933.525 502.488 933.525 502.708C933.525 502.93 933.623 503.041 933.819 503.041L933.951 503.041L933.951 503.82L933.819 503.82C933.498 503.82 933.264 503.729 933.116 503.547C932.97 503.366 932.897 503.087 932.897 502.71C932.897 502.336 932.967 502.058 933.107 501.875C933.247 501.692 933.461 501.601 933.748 501.601C933.909 501.601 934.05 501.648 934.173 501.742C934.294 501.835 934.387 501.951 934.452 502.089C934.512 502.218 934.565 502.352 934.611 502.493C934.649 502.611 934.686 502.726 934.72 502.838C934.752 502.933 934.783 502.981 934.814 502.981L934.814 501.604L935.417 501.604Z" fill="#FF0000"/>
<path d="M933.241 499.395C933.47 499.18 933.782 499.072 934.175 499.072C934.569 499.072 934.879 499.18 935.107 499.395C935.337 499.61 935.452 499.909 935.452 500.292C935.452 500.674 935.337 500.973 935.107 501.188C934.877 501.404 934.566 501.512 934.175 501.512C933.783 501.512 933.472 501.404 933.241 501.188C933.012 500.972 932.897 500.673 932.897 500.292C932.897 499.909 933.012 499.61 933.241 499.395ZM933.561 500.292C933.561 500.564 933.766 500.7 934.175 500.7C934.585 500.7 934.79 500.564 934.79 500.292C934.79 500.022 934.585 499.887 934.175 499.887C933.766 499.887 933.561 500.022 933.561 500.292Z" fill="#FF0000"/>
<path d="M935.417 496.724L935.417 499.003L934.92 499.003C934.803 499.003 934.7 498.976 934.61 498.922C934.518 498.868 934.445 498.795 934.389 498.703C934.295 498.545 934.213 498.341 934.143 498.089C934.124 498.016 934.106 497.955 934.091 497.906C934.075 497.855 934.055 497.802 934.031 497.747C934.007 497.691 933.982 497.646 933.956 497.612C933.931 497.579 933.9 497.551 933.864 497.53C933.829 497.508 933.79 497.497 933.748 497.497C933.599 497.497 933.525 497.607 933.525 497.828C933.525 498.05 933.623 498.161 933.819 498.161L933.951 498.161L933.951 498.939L933.819 498.939C933.498 498.939 933.264 498.848 933.116 498.667C932.97 498.486 932.897 498.207 932.897 497.83C932.897 497.456 932.967 497.178 933.107 496.995C933.247 496.812 933.461 496.72 933.748 496.72C933.909 496.72 934.05 496.767 934.173 496.862C934.294 496.955 934.387 497.071 934.452 497.209C934.512 497.337 934.565 497.472 934.611 497.612C934.649 497.731 934.686 497.846 934.72 497.958C934.752 498.053 934.783 498.101 934.814 498.101L934.814 496.724L935.417 496.724Z" fill="#FF0000"/>
<path d="M933.537 495.648L933.537 496.592L932.932 496.592L932.932 494.546L933.537 494.546L933.774 495.146L933.845 495.436L933.923 495.436L933.859 495.146C933.859 494.92 933.925 494.74 934.057 494.608C934.19 494.477 934.368 494.411 934.59 494.411C935.166 494.411 935.453 494.793 935.453 495.557C935.452 496.321 935.165 496.703 934.59 496.703L934.537 496.703L934.537 495.925L934.59 495.925C934.674 495.925 934.732 495.895 934.766 495.835C934.798 495.774 934.814 495.681 934.814 495.557C934.814 495.433 934.798 495.341 934.766 495.281C934.732 495.22 934.674 495.189 934.59 495.189C934.504 495.189 934.443 495.22 934.409 495.281C934.374 495.341 934.357 495.433 934.357 495.557L934.357 496.38L933.937 496.38L933.622 495.648L933.537 495.359L933.459 495.359L933.537 495.648Z" fill="#FF0000"/>
</svg>
