<?xml version="1.0" encoding="UTF-8" standalone="no"?>
<svg
   width="178"
   height="40"
   viewBox="0 0 178 40"
   fill="none"
   version="1.1"
   id="svg30"
   sodipodi:docname="logo-2.svg"
   inkscape:version="1.1.2 (0a00cf5339, 2022-02-04)"
   xmlns:inkscape="http://www.inkscape.org/namespaces/inkscape"
   xmlns:sodipodi="http://sodipodi.sourceforge.net/DTD/sodipodi-0.dtd"
   xmlns="http://www.w3.org/2000/svg"
   xmlns:svg="http://www.w3.org/2000/svg">
  <defs
     id="defs34" />
  <sodipodi:namedview
     id="namedview32"
     pagecolor="#ffffff"
     bordercolor="#666666"
     borderopacity="1.0"
     inkscape:pageshadow="2"
     inkscape:pageopacity="0.0"
     inkscape:pagecheckerboard="0"
     showgrid="false"
     inkscape:zoom="3.8857639"
     inkscape:cx="89.042982"
     inkscape:cy="30.753284"
     inkscape:window-width="1850"
     inkscape:window-height="1016"
     inkscape:window-x="70"
     inkscape:window-y="27"
     inkscape:window-maximized="1"
     inkscape:current-layer="svg30" />
  <g
     id="g891">
    <path
       d="M 38.3219,24.0526 24.0525,38.3219 c -2.2374,2.2375 -5.8677,2.2375 -8.1051,0 L 1.67809,24.0526 c -2.237452,-2.2375 -2.237452,-5.8677 0,-8.1052 L 15.9474,1.67809 c 2.2374,-2.237452 5.8677,-2.237452 8.1051,0 L 38.3219,15.9474 c 2.2375,2.2375 2.2375,5.8677 0,8.1052 z"
       fill="#ed453a"
       id="path2" />
    <path
       d="m 19.8672,11.4997 -1.7149,1.7432 1.6354,1.6624 6.5765,6.6854 0.0176,0.0179 4.7291,-4.8073 -0.0177,-0.018 -1.6088,-1.6354 -4.9677,-5.05 -1.6353,-1.66235 z m 2.9258,0.3414 4.9678,5.05 -1.2906,1.3119 -4.9677,-5.0499 z"
       fill="#ffffff"
       id="path4" />
    <path
       d="m 13.6322,21.4649 1.6088,-1.6354 -1.6353,-1.6623 -1.6087,-1.6354 -1.6354,-1.6624 -5.02957,5.1129 0.0177,0.0179 4.36666,4.439 0.49501,0.5032 9.6084,9.7675 1.7148,-1.7432 -9.6084,-9.7675 z M 11.997,19.8025 10.2998,21.5278 8.69099,19.8924 10.3882,18.1672 Z"
       fill="#ffffff"
       id="path6" />
    <path
       d="m 32.6391,18.3558 -6.2583,6.3619 -11.226,-11.4029 6.2583,-6.36191 -1.6264,-1.66236 -7.982,8.10517 0.0265,0.0269 12.8348,13.0473 1.6353,1.6624 1.7148,-1.7523 6.2583,-6.3618 z"
       fill="#ffffff"
       id="path8" />
    <path
       d="m 19.8794,24.9 -1.6314,1.6583 4.7941,4.8734 1.6313,-1.6583 z"
       fill="#ffffff"
       id="path10" />
    <path
       d="m 16.6509,21.6192 -1.6314,1.6584 1.7376,1.7664 1.6314,-1.6584 z"
       fill="#ffffff"
       id="path12" />
  </g>
  <g
     id="g901">
    <path
       d="m 63.5963,13.5807 c 0.9248,0.4246 1.6408,1.0311 2.138,1.8095 0.4972,0.7885 0.7558,1.7084 0.7558,2.7699 0,1.0614 -0.2487,1.9813 -0.7558,2.7597 -0.4972,0.7784 -1.2132,1.3748 -2.138,1.7994 -0.9248,0.4246 -2.0187,0.6369 -3.2717,0.6369 h -2.4065 v 3.6796 H 54 V 12.9438 h 6.3345 c 1.253,0 2.337,0.2123 3.2618,0.6369 z m -1.6806,6.1058 c 0.4077,-0.3538 0.6165,-0.8592 0.6165,-1.5163 0,-0.6571 -0.2088,-1.1727 -0.6165,-1.5265 -0.4077,-0.3639 -1.0143,-0.5459 -1.8198,-0.5459 h -2.1778 v 4.1245 h 2.1778 c 0.8055,0 1.4121,-0.182 1.8198,-0.5358 z"
       fill="#2b2d2c"
       id="path14" />
    <path
       d="m 70.3828,12.9438 h 3.918 v 14.0919 h -3.918 z"
       fill="#2b2d2c"
       id="path16" />
    <path
       d="m 82.0707,26.3888 c -1.1535,-0.6268 -2.0584,-1.4962 -2.7247,-2.6082 -0.6563,-1.112 -0.9944,-2.3756 -0.9944,-3.7807 0,-1.4052 0.3281,-2.6688 0.9944,-3.7807 0.6563,-1.112 1.5712,-1.9814 2.7247,-2.6082 1.1536,-0.6267 2.4563,-0.9401 3.9081,-0.9401 1.263,0 2.4066,0.2325 3.4308,0.6874 1.0143,0.4549 1.8596,1.112 2.5358,1.9713 l -2.496,2.2947 c -0.8949,-1.1019 -1.9889,-1.6478 -3.2717,-1.6478 -0.7557,0 -1.422,0.1719 -2.0087,0.5055 -0.5867,0.3336 -1.0441,0.8087 -1.3623,1.4152 -0.3282,0.6065 -0.4874,1.3142 -0.4874,2.1027 0,0.7885 0.1592,1.4961 0.4874,2.1026 0.3281,0.6066 0.7756,1.0817 1.3623,1.4153 0.5867,0.3336 1.253,0.5055 2.0087,0.5055 1.2828,0 2.3668,-0.5459 3.2717,-1.6478 l 2.496,2.2947 c -0.6762,0.8593 -1.5215,1.5164 -2.5358,1.9713 -1.0143,0.4549 -2.1579,0.6874 -3.4308,0.6874 -1.4518,0 -2.7545,-0.3134 -3.9081,-0.9401 z"
       fill="#2b2d2c"
       id="path18" />
    <path
       d="m 98.4152,26.3786 c -1.1735,-0.6267 -2.0883,-1.5062 -2.7546,-2.6182 -0.6662,-1.112 -1.0044,-2.3655 -1.0044,-3.7605 0,-1.395 0.3382,-2.6486 1.0044,-3.7605 0.6663,-1.112 1.5811,-1.9915 2.7546,-2.6183 1.1734,-0.6267 2.4858,-0.9502 3.9478,-0.9502 1.462,0 2.784,0.3134 3.948,0.9502 1.173,0.6268 2.088,1.5063 2.755,2.6183 0.666,1.1119 1.004,2.3655 1.004,3.7605 0,1.395 -0.338,2.6485 -1.004,3.7605 -0.667,1.112 -1.582,1.9915 -2.755,2.6182 -1.173,0.6268 -2.486,0.9503 -3.948,0.9503 -1.462,0 -2.7744,-0.3235 -3.9478,-0.9503 z m 5.8568,-2.8608 c 0.567,-0.3336 1.015,-0.8087 1.343,-1.4153 0.328,-0.6065 0.497,-1.3141 0.497,-2.1026 0,-0.7885 -0.169,-1.4962 -0.497,-2.1027 -0.328,-0.6065 -0.776,-1.0816 -1.343,-1.4152 -0.566,-0.3336 -1.203,-0.5055 -1.899,-0.5055 -0.696,0 -1.333,0.1719 -1.899,0.5055 -0.5672,0.3336 -1.0147,0.8087 -1.3428,1.4152 -0.3282,0.6065 -0.4972,1.3142 -0.4972,2.1027 0,0.7885 0.169,1.4961 0.4972,2.1026 0.3281,0.6066 0.7756,1.0817 1.3428,1.4153 0.566,0.3336 1.203,0.5055 1.899,0.5055 0.696,0 1.323,-0.1719 1.899,-0.5055 z"
       fill="#2b2d2c"
       id="path20" />
    <path
       d="m 114.102,12.9438 h 6.553 c 1.521,0 2.864,0.2932 4.037,0.8694 1.174,0.5762 2.089,1.3951 2.735,2.4565 0.646,1.0614 0.974,2.3048 0.974,3.7201 0,1.4254 -0.328,2.6687 -0.974,3.7201 -0.646,1.0614 -1.561,1.8803 -2.735,2.4565 -1.173,0.5762 -2.526,0.8693 -4.037,0.8693 h -6.553 z m 6.404,10.9177 c 1.193,0 2.138,-0.3437 2.864,-1.0311 0.716,-0.6874 1.084,-1.6275 1.084,-2.8406 0,-1.2131 -0.358,-2.1532 -1.084,-2.8406 -0.716,-0.6874 -1.671,-1.0311 -2.864,-1.0311 h -2.476 v 7.7333 h 2.476 z"
       fill="#2b2d2c"
       id="path22" />
    <path
       d="m 141.537,24.3062 h -5.867 l -1.094,2.7395 h -3.998 l 6.116,-14.0918 h 3.858 l 6.136,14.0918 h -4.077 z m -1.144,-2.9417 -1.78,-4.5086 -1.78,4.5086 z"
       fill="#2b2d2c"
       id="path24" />
    <path
       d="m 152.061,16.108 h -4.256 v -3.1642 h 12.42 v 3.1642 h -4.236 v 10.9378 h -3.918 V 16.108 Z"
       fill="#2b2d2c"
       id="path26" />
    <path
       d="m 172.255,24.3062 h -5.867 l -1.094,2.7395 h -3.997 l 6.116,-14.0918 h 3.858 l 6.136,14.0918 h -4.078 z m -1.143,-2.9417 -1.78,-4.5086 -1.78,4.5086 z"
       fill="#2b2d2c"
       id="path28" />
  </g>
</svg>
