<?xml version="1.0" encoding="UTF-8" standalone="no"?>
<!-- Created with Inkscape (http://www.inkscape.org/) -->

<svg
   version="1.1"
   id="svg2"
   width="48"
   height="48"
   viewBox="0 0 48 48"
   sodipodi:docname="logo-1.svg"
   inkscape:version="1.1.2 (0a00cf5339, 2022-02-04)"
   xmlns:inkscape="http://www.inkscape.org/namespaces/inkscape"
   xmlns:sodipodi="http://sodipodi.sourceforge.net/DTD/sodipodi-0.dtd"
   xmlns="http://www.w3.org/2000/svg"
   xmlns:svg="http://www.w3.org/2000/svg">
  <defs
     id="defs6" />
  <sodipodi:namedview
     id="namedview4"
     pagecolor="#ffffff"
     bordercolor="#666666"
     borderopacity="1.0"
     inkscape:pageshadow="2"
     inkscape:pageopacity="0.0"
     inkscape:pagecheckerboard="0"
     showgrid="false"
     showguides="false"
     inkscape:guide-bbox="true"
     inkscape:snap-object-midpoints="true"
     inkscape:zoom="11.47426"
     inkscape:cx="23.31305"
     inkscape:cy="21.918624"
     inkscape:window-width="1850"
     inkscape:window-height="1016"
     inkscape:window-x="70"
     inkscape:window-y="27"
     inkscape:window-maximized="1"
     inkscape:current-layer="layer1">
    <sodipodi:guide
       position="128,128"
       orientation="-1,0"
       id="guide8729"
       inkscape:label=""
       inkscape:locked="false"
       inkscape:color="rgb(0,0,255)" />
    <sodipodi:guide
       position="128,128"
       orientation="0,-1"
       id="guide8731" />
    <sodipodi:guide
       position="128,210"
       orientation="0,1"
       id="guide8983"
       inkscape:label=""
       inkscape:locked="false"
       inkscape:color="rgb(0,0,255)" />
    <sodipodi:guide
       position="128,46"
       orientation="0,1"
       id="guide8985"
       inkscape:label=""
       inkscape:locked="false"
       inkscape:color="rgb(0,0,255)" />
    <sodipodi:guide
       position="46,128"
       orientation="-1,0"
       id="guide8987"
       inkscape:label=""
       inkscape:locked="false"
       inkscape:color="rgb(0,0,255)" />
    <sodipodi:guide
       position="210,128"
       orientation="-1,0"
       id="guide8989"
       inkscape:label=""
       inkscape:locked="false"
       inkscape:color="rgb(0,0,255)" />
    <sodipodi:guide
       position="128,187"
       orientation="0,1"
       id="guide9093"
       inkscape:label=""
       inkscape:locked="false"
       inkscape:color="rgb(0,0,255)" />
    <sodipodi:guide
       position="128,69"
       orientation="0,1"
       id="guide9097"
       inkscape:label=""
       inkscape:locked="false"
       inkscape:color="rgb(0,0,255)" />
    <sodipodi:guide
       position="69,128"
       orientation="-1,0"
       id="guide9099"
       inkscape:label=""
       inkscape:locked="false"
       inkscape:color="rgb(0,0,255)" />
    <sodipodi:guide
       position="187,128"
       orientation="-1,0"
       id="guide9101"
       inkscape:label=""
       inkscape:locked="false"
       inkscape:color="rgb(0,0,255)" />
    <inkscape:grid
       type="xygrid"
       id="grid9103" />
  </sodipodi:namedview>
  <g
     inkscape:groupmode="layer"
     id="layer1"
     inkscape:label="bg">
    <rect
       style="fill:#eb5443;fill-opacity:1;stroke:none;stroke-width:3.99874;stroke-linecap:round;stop-color:#000000"
       id="rect4243"
       width="48"
       height="48"
       x="0"
       y="0" />
    <g
       id="g891"
       transform="translate(3.999999,3.999999)">
      <path
         d="M 38.3219,24.0526 24.0525,38.3219 c -2.2374,2.2375 -5.8677,2.2375 -8.1051,0 L 1.67809,24.0526 c -2.237452,-2.2375 -2.237452,-5.8677 0,-8.1052 L 15.9474,1.67809 c 2.2374,-2.237452 5.8677,-2.237452 8.1051,0 L 38.3219,15.9474 c 2.2375,2.2375 2.2375,5.8677 0,8.1052 z"
         fill="#ed453a"
         id="path2"
         style="fill:#000000;fill-opacity:1" />
      <path
         d="m 19.8672,11.4997 -1.7149,1.7432 1.6354,1.6624 6.5765,6.6854 0.0176,0.0179 4.7291,-4.8073 -0.0177,-0.018 -1.6088,-1.6354 -4.9677,-5.05 -1.6353,-1.66235 z m 2.9258,0.3414 4.9678,5.05 -1.2906,1.3119 -4.9677,-5.0499 z"
         fill="#ffffff"
         id="path4" />
      <path
         d="m 13.6322,21.4649 1.6088,-1.6354 -1.6353,-1.6623 -1.6087,-1.6354 -1.6354,-1.6624 -5.02957,5.1129 0.0177,0.0179 4.36666,4.439 0.49501,0.5032 9.6084,9.7675 1.7148,-1.7432 -9.6084,-9.7675 z M 11.997,19.8025 10.2998,21.5278 8.69099,19.8924 10.3882,18.1672 Z"
         fill="#ffffff"
         id="path6" />
      <path
         d="m 32.6391,18.3558 -6.2583,6.3619 -11.226,-11.4029 6.2583,-6.36191 -1.6264,-1.66236 -7.982,8.10517 0.0265,0.0269 12.8348,13.0473 1.6353,1.6624 1.7148,-1.7523 6.2583,-6.3618 z"
         fill="#ffffff"
         id="path8" />
      <path
         d="m 19.8794,24.9 -1.6314,1.6583 4.7941,4.8734 1.6313,-1.6583 z"
         fill="#ffffff"
         id="path10" />
      <path
         d="m 16.6509,21.6192 -1.6314,1.6584 1.7376,1.7664 1.6314,-1.6584 z"
         fill="#ffffff"
         id="path12" />
    </g>
  </g>
  <g
     inkscape:groupmode="layer"
     id="layer2"
     inkscape:label="rect"
     style="display:inline" />
</svg>
