<?xml version="1.0" encoding="UTF-8" standalone="no"?>
<!-- Created with Inkscape (http://www.inkscape.org/) -->

<svg
   width="1050"
   height="450"
   viewBox="0 0 277.8125 119.0625"
   version="1.1"
   id="svg5"
   inkscape:version="1.1.2 (0a00cf5339, 2022-02-04)"
   sodipodi:docname="pyramid.svg"
   xmlns:inkscape="http://www.inkscape.org/namespaces/inkscape"
   xmlns:sodipodi="http://sodipodi.sourceforge.net/DTD/sodipodi-0.dtd"
   xmlns="http://www.w3.org/2000/svg"
   xmlns:svg="http://www.w3.org/2000/svg">
  <sodipodi:namedview
     id="namedview7"
     pagecolor="#ffffff"
     bordercolor="#666666"
     borderopacity="1.0"
     inkscape:pageshadow="2"
     inkscape:pageopacity="0.0"
     inkscape:pagecheckerboard="true"
     inkscape:document-units="px"
     showgrid="false"
     units="px"
     inkscape:zoom="1.3770836"
     inkscape:cx="452.40536"
     inkscape:cy="204.41751"
     inkscape:window-width="1850"
     inkscape:window-height="1016"
     inkscape:window-x="70"
     inkscape:window-y="27"
     inkscape:window-maximized="1"
     inkscape:current-layer="layer1"
     borderlayer="true"
     showborder="true"
     inkscape:showpageshadow="true"
     showguides="true"
     inkscape:guide-bbox="true"
     inkscape:snap-object-midpoints="false"
     inkscape:snap-center="true"
     inkscape:snap-text-baseline="true"
     inkscape:object-paths="true"
     inkscape:snap-intersection-paths="true">
    <sodipodi:guide
       position="138.90625,119.0625"
       orientation="-1,0"
       id="guide931"
       inkscape:label=""
       inkscape:locked="false"
       inkscape:color="rgb(0,0,255)" />
    <sodipodi:guide
       position="155.78562,151.25819"
       orientation="0,-1"
       id="guide1360" />
    <sodipodi:guide
       position="138.90625,55.5625"
       orientation="0,1"
       id="guide1499"
       inkscape:label=""
       inkscape:locked="false"
       inkscape:color="rgb(0,0,255)" />
    <sodipodi:guide
       position="138.90625,78.052083"
       orientation="0,-1"
       id="guide1501" />
    <sodipodi:guide
       position="138.90625,27.78125"
       orientation="0,-1"
       id="guide1503" />
    <inkscape:grid
       type="xygrid"
       id="grid1696" />
    <sodipodi:guide
       position="138.90625,30.427083"
       orientation="0,-1"
       id="guide1698" />
    <sodipodi:guide
       position="138.90625,52.916667"
       orientation="0,-1"
       id="guide1700" />
    <sodipodi:guide
       position="138.90625,80.697917"
       orientation="0,-1"
       id="guide1702" />
    <sodipodi:guide
       position="137.58333,5.2916667"
       orientation="0,-1"
       id="guide1737" />
  </sodipodi:namedview>
  <defs
     id="defs2">
    <clipPath
       clipPathUnits="userSpaceOnUse"
       id="clipPath1734">
      <path
         d="M 0,0.028 H 595.275 V 841.889 H 0 Z"
         clip-rule="evenodd"
         id="path1732" />
    </clipPath>
    <clipPath
       clipPathUnits="userSpaceOnUse"
       id="clipPath5199">
      <path
         d="M 0,0.028 H 595.275 V 841.889 H 0 Z"
         clip-rule="evenodd"
         id="path5197" />
    </clipPath>
    <clipPath
       clipPathUnits="userSpaceOnUse"
       id="clipPath6407">
      <path
         d="M 0,0.028 H 595.275 V 841.889 H 0 Z"
         clip-rule="evenodd"
         id="path6405" />
    </clipPath>
    <clipPath
       clipPathUnits="userSpaceOnUse"
       id="clipPath1022">
      <path
         d="M 0,0.028 H 595.275 V 841.889 H 0 Z"
         clip-rule="evenodd"
         id="path1020" />
    </clipPath>
  </defs>
  <g
     inkscape:groupmode="layer"
     id="layer1"
     inkscape:label="Layer 1">
    <path
       style="fill:#d3fddd;stroke:#000000;stroke-width:0.705556;stroke-linecap:butt;stroke-linejoin:miter;stroke-miterlimit:4;stroke-dasharray:none;stroke-opacity:1;fill-opacity:1"
       d="M 74.951851,113.77083 87.936217,91.281249 H 189.87627 l 12.98437,22.489581 z"
       id="path1852" />
    <path
       style="fill:#d3fddd;stroke:#000000;stroke-width:0.705556;stroke-linecap:butt;stroke-linejoin:miter;stroke-miterlimit:4;stroke-dasharray:none;stroke-opacity:1;fill-opacity:1"
       d="M 89.463789,88.635416 102.44816,66.145832 h 72.91617 L 188.3487,88.635416 H 89.463789"
       id="path1854" />
    <path
       style="fill:#d3fddd;stroke:#000000;stroke-width:0.705556;stroke-linecap:butt;stroke-linejoin:miter;stroke-miterlimit:4;stroke-dasharray:none;stroke-opacity:1;fill-opacity:1"
       d="M 103.97573,63.499999 116.9601,41.010416 h 43.89229 l 12.98437,22.489583 h -69.86103"
       id="path1856" />
    <path
       style="fill:#d3fddd;stroke:#000000;stroke-width:0.705556;stroke-linecap:butt;stroke-linejoin:miter;stroke-miterlimit:4;stroke-dasharray:none;stroke-opacity:1;fill-opacity:1"
       d="M 118.48767,38.364583 138.90625,2.9985827 159.32482,38.364583 Z"
       id="path1858" />
    <g
       aria-label="Инстансы"
       id="text2781"
       style="font-size:11.2889px;line-height:1.25;font-family:Montserrat;-inkscape-font-specification:Montserrat;text-align:center;text-anchor:middle;stroke-width:0.264583">
      <path
         d="m 111.18017,106.44893 v -7.902231 h 0.82409 v 6.547561 l 5.05743,-6.547561 h 0.75636 v 7.902231 h -0.82409 v -6.536274 l -5.05743,6.536274 z"
         id="path62858" />
      <path
         d="m 120.29031,106.44893 v -5.92667 h 0.80151 v 2.61902 h 3.73663 v -2.61902 h 0.80151 v 5.92667 h -0.80151 v -2.61903 h -3.73663 v 2.61903 z"
         id="path62860" />
      <path
         d="m 130.39387,106.50537 q -0.88054,0 -1.58045,-0.38382 -0.68862,-0.39511 -1.08373,-1.07244 -0.39512,-0.68863 -0.39512,-1.56916 0,-0.89183 0.39512,-1.56916 0.39511,-0.67733 1.08373,-1.06116 0.69991,-0.38382 1.58045,-0.38382 0.75635,0 1.36595,0.29351 0.6096,0.29351 0.95956,0.88054 l -0.59831,0.4064 q -0.3048,-0.45156 -0.75636,-0.66605 -0.45155,-0.21449 -0.98213,-0.21449 -0.63218,0 -1.14018,0.29351 -0.508,0.28223 -0.80151,0.80152 -0.29351,0.51929 -0.29351,1.2192 0,0.69991 0.29351,1.2192 0.29351,0.51929 0.80151,0.8128 0.508,0.28222 1.14018,0.28222 0.53058,0 0.98213,-0.21449 0.45156,-0.21449 0.75636,-0.65475 l 0.59831,0.4064 q -0.34996,0.57573 -0.95956,0.88053 -0.6096,0.29351 -1.36595,0.29351 z"
         id="path62862" />
      <path
         d="m 135.28307,106.44893 v -5.44125 l 0.2032,0.21449 h -2.44969 v -0.69991 h 5.2945 v 0.69991 h -2.44969 l 0.2032,-0.21449 v 5.44125 z"
         id="path62864" />
      <path
         d="m 143.17401,106.44893 v -1.30951 l -0.0339,-0.21449 v -2.19005 q 0,-0.75636 -0.42898,-1.16276 -0.41769,-0.4064 -1.25306,-0.4064 -0.57574,0 -1.09503,0.19191 -0.51929,0.19192 -0.88053,0.50801 l -0.36125,-0.59832 q 0.45156,-0.38382 1.08374,-0.58702 0.63218,-0.21449 1.33209,-0.21449 1.15147,0 1.77236,0.57574 0.63217,0.56444 0.63217,1.7272 v 3.68018 z m -2.04329,0.0564 q -0.66605,0 -1.16276,-0.21449 -0.48542,-0.22577 -0.74507,-0.6096 -0.25964,-0.39511 -0.25964,-0.90311 0,-0.46284 0.21449,-0.83538 0.22578,-0.38382 0.72249,-0.6096 0.508,-0.23706 1.35467,-0.23706 h 2.04329 v 0.59831 h -2.02072 q -0.85795,0 -1.19662,0.3048 -0.32738,0.3048 -0.32738,0.75635 0,0.508 0.39511,0.8128 0.39512,0.3048 1.10632,0.3048 0.67733,0 1.16275,-0.3048 0.49671,-0.31608 0.72249,-0.90311 l 0.18062,0.55316 q -0.22577,0.58702 -0.79022,0.93698 -0.55315,0.34995 -1.39982,0.34995 z"
         id="path62866" />
      <path
         d="m 146.07524,106.44893 v -5.92667 h 0.80151 v 2.61902 h 3.73663 v -2.61902 h 0.80151 v 5.92667 h -0.80151 v -2.61903 h -3.73663 v 2.61903 z"
         id="path62868" />
      <path
         d="m 156.17879,106.50537 q -0.88053,0 -1.58044,-0.38382 -0.68862,-0.39511 -1.08374,-1.07244 -0.39511,-0.68863 -0.39511,-1.56916 0,-0.89183 0.39511,-1.56916 0.39512,-0.67733 1.08374,-1.06116 0.69991,-0.38382 1.58044,-0.38382 0.75636,0 1.36596,0.29351 0.6096,0.29351 0.95956,0.88054 l -0.59831,0.4064 q -0.3048,-0.45156 -0.75636,-0.66605 -0.45156,-0.21449 -0.98213,-0.21449 -0.63218,0 -1.14018,0.29351 -0.508,0.28223 -0.80152,0.80152 -0.29351,0.51929 -0.29351,1.2192 0,0.69991 0.29351,1.2192 0.29352,0.51929 0.80152,0.8128 0.508,0.28222 1.14018,0.28222 0.53057,0 0.98213,-0.21449 0.45156,-0.21449 0.75636,-0.65475 l 0.59831,0.4064 q -0.34996,0.57573 -0.95956,0.88053 -0.6096,0.29351 -1.36596,0.29351 z"
         id="path62870" />
      <path
         d="m 165.8308,106.44893 v -5.92667 h 0.80151 v 5.92667 z m -3.28507,-3.83823 q 1.1176,0.0113 1.70463,0.49671 0.58702,0.48543 0.58702,1.39983 0,0.94827 -0.63218,1.45627 -0.63218,0.508 -1.80622,0.49671 l -2.3481,-0.0113 v -5.92667 h 0.80152 v 2.06586 z m -0.2032,3.23992 q 0.83538,0.0113 1.25307,-0.32738 0.42898,-0.34996 0.42898,-1.016 0,-0.66605 -0.41769,-0.97085 -0.41769,-0.31609 -1.26436,-0.32738 l -1.49013,-0.0226 v 2.6416 z"
         id="path62872" />
    </g>
    <g
       aria-label="Репликасеты"
       id="text2781-3"
       style="font-size:8.46667px;line-height:1.25;font-family:Montserrat;-inkscape-font-specification:Montserrat;text-align:center;text-anchor:middle;stroke-width:0.264583">
      <path
         d="m 110.76083,80.320091 v -5.926669 h 2.21827 q 0.75353,0 1.2954,0.245534 0.54186,0.237066 0.82973,0.694267 0.29633,0.448733 0.29633,1.0922 0,0.626534 -0.29633,1.083734 -0.28787,0.448733 -0.82973,0.694267 -0.54187,0.245533 -1.2954,0.245533 h -1.87114 l 0.2794,-0.296333 v 2.167467 z m 0.62653,-2.116667 -0.2794,-0.3048 h 1.8542 q 0.889,0 1.3462,-0.381001 0.46567,-0.389466 0.46567,-1.0922 0,-0.7112 -0.46567,-1.100667 -0.4572,-0.389467 -1.3462,-0.389467 h -1.8542 l 0.2794,-0.296333 z"
         id="path62875" />
      <path
         d="m 118.41581,80.362425 q -0.69427,0 -1.2192,-0.287867 -0.52494,-0.296334 -0.82127,-0.804334 -0.29633,-0.516467 -0.29633,-1.176867 0,-0.6604 0.2794,-1.1684 0.28786,-0.508001 0.77893,-0.795867 0.49953,-0.296334 1.1176,-0.296334 0.62653,0 1.10913,0.287867 0.49107,0.2794 0.77047,0.795867 0.2794,0.508 0.2794,1.176867 0,0.04233 -0.008,0.09313 0,0.04233 0,0.09313 h -3.86926 V 77.83089 h 3.54753 l -0.23707,0.1778 q 0,-0.4826 -0.21166,-0.855133 -0.2032,-0.381 -0.5588,-0.592667 -0.3556,-0.211667 -0.82127,-0.211667 -0.4572,0 -0.82127,0.211667 -0.36406,0.211667 -0.56726,0.592667 -0.2032,0.381 -0.2032,0.872067 v 0.09313 q 0,0.508 0.22013,0.897467 0.2286,0.381 0.62653,0.601134 0.4064,0.211666 0.92287,0.211666 0.4064,0 0.75353,-0.143933 0.3556,-0.143933 0.6096,-0.440267 l 0.33867,0.389467 q -0.29633,0.3556 -0.74507,0.541867 -0.44026,0.186267 -0.97366,0.186267 z"
         id="path62877" />
      <path
         d="m 121.74319,80.320091 v -4.445002 h 3.99627 v 4.445002 h -0.60113 v -4.080935 l 0.1524,0.160867 h -3.09881 l 0.1524,-0.160867 v 4.080935 z"
         id="path62879" />
      <path
         d="m 126.63692,80.311625 0.0423,-0.516467 q 0.0593,0.0085 0.11006,0.0254 0.0593,0.0085 0.1016,0.0085 0.27094,0 0.4318,-0.2032 0.16934,-0.2032 0.254,-0.541867 0.0847,-0.338666 0.11854,-0.762 0.0339,-0.4318 0.0593,-0.8636 l 0.0762,-1.583268 h 3.25967 v 4.445002 h -0.60113 v -4.097868 l 0.1524,0.1778 h -2.42147 l 0.14394,-0.186267 -0.0677,1.286934 q -0.0254,0.575734 -0.0931,1.100667 -0.0593,0.524934 -0.19474,0.922867 -0.127,0.397934 -0.3556,0.626534 -0.2286,0.220133 -0.5842,0.220133 -0.1016,0 -0.21166,-0.01693 -0.1016,-0.01693 -0.22014,-0.04233 z"
         id="path62881" />
      <path
         d="m 132.80066,80.320091 v -4.445002 h 0.60114 v 3.530602 l 2.9718,-3.530602 h 0.5334 v 4.445002 h -0.60114 v -3.539068 l -2.96333,3.539068 z"
         id="path62883" />
      <path
         d="m 141.8854,80.320091 -1.82881,-2.201334 0.49954,-0.296333 2.04047,2.497667 z m -3.25967,0 v -4.445002 h 0.60113 v 4.445002 z m 0.41486,-1.981201 v -0.516466 h 1.43087 v 0.516466 z m 1.56634,-0.1778 -0.5588,-0.08467 1.76953,-2.201335 h 0.65194 z"
         id="path62885" />
      <path
         d="m 146.22032,80.320091 v -0.982133 l -0.0254,-0.160867 v -1.642534 q 0,-0.567267 -0.32173,-0.872067 -0.31327,-0.3048 -0.9398,-0.3048 -0.4318,0 -0.82127,0.143933 -0.38946,0.143933 -0.6604,0.381 l -0.27093,-0.448733 q 0.33867,-0.287867 0.8128,-0.440267 0.47413,-0.160867 0.99907,-0.160867 0.8636,0 1.32926,0.4318 0.47414,0.423334 0.47414,1.295401 v 2.760134 z m -1.53246,0.04233 q -0.49954,0 -0.87207,-0.160867 -0.36407,-0.169334 -0.5588,-0.4572 -0.19474,-0.296334 -0.19474,-0.677334 0,-0.347133 0.16087,-0.626534 0.16934,-0.287866 0.54187,-0.4572 0.381,-0.1778 1.016,-0.1778 h 1.53247 v 0.448734 h -1.51554 q -0.64346,0 -0.89746,0.2286 -0.24554,0.2286 -0.24554,0.567267 0,0.381 0.29634,0.6096 0.29633,0.2286 0.82973,0.2286 0.508,0 0.87207,-0.2286 0.37253,-0.237067 0.54186,-0.677334 l 0.13547,0.414867 q -0.16933,0.440267 -0.59267,0.702734 -0.41486,0.262467 -1.04986,0.262467 z"
         id="path62887" />
      <path
         d="m 150.25891,80.362425 q -0.6604,0 -1.18533,-0.287867 -0.51647,-0.296334 -0.8128,-0.804334 -0.29634,-0.516467 -0.29634,-1.176867 0,-0.668867 0.29634,-1.176867 0.29633,-0.508 0.8128,-0.795867 0.52493,-0.287867 1.18533,-0.287867 0.56727,0 1.02447,0.220134 0.4572,0.220133 0.71966,0.6604 l -0.44873,0.3048 q -0.2286,-0.338667 -0.56727,-0.499534 -0.33866,-0.160866 -0.7366,-0.160866 -0.47413,0 -0.85513,0.220133 -0.381,0.211667 -0.60113,0.601134 -0.22014,0.389466 -0.22014,0.9144 0,0.524934 0.22014,0.9144 0.22013,0.389467 0.60113,0.609601 0.381,0.211666 0.85513,0.211666 0.39794,0 0.7366,-0.160866 0.33867,-0.160867 0.56727,-0.491067 l 0.44873,0.3048 q -0.26246,0.4318 -0.71966,0.6604 -0.4572,0.220134 -1.02447,0.220134 z"
         id="path62889" />
      <path
         d="m 154.9929,80.362425 q -0.69427,0 -1.2192,-0.287867 -0.52493,-0.296334 -0.82127,-0.804334 -0.29633,-0.516467 -0.29633,-1.176867 0,-0.6604 0.2794,-1.1684 0.28787,-0.508001 0.77893,-0.795867 0.49954,-0.296334 1.1176,-0.296334 0.62654,0 1.10914,0.287867 0.49107,0.2794 0.77047,0.795867 0.2794,0.508 0.2794,1.176867 0,0.04233 -0.008,0.09313 0,0.04233 0,0.09313 H 153.1133 V 77.83089 h 3.54754 l -0.23707,0.1778 q 0,-0.4826 -0.21167,-0.855133 -0.2032,-0.381 -0.5588,-0.592667 -0.3556,-0.211667 -0.82127,-0.211667 -0.4572,0 -0.82126,0.211667 -0.36407,0.211667 -0.56727,0.592667 -0.2032,0.381 -0.2032,0.872067 v 0.09313 q 0,0.508 0.22013,0.897467 0.2286,0.381 0.62654,0.601134 0.4064,0.211666 0.92286,0.211666 0.4064,0 0.75354,-0.143933 0.3556,-0.143933 0.6096,-0.440267 l 0.33867,0.389467 q -0.29634,0.3556 -0.74507,0.541867 -0.44027,0.186267 -0.97367,0.186267 z"
         id="path62891" />
      <path
         d="m 158.97446,80.320091 v -4.080935 l 0.1524,0.160867 h -1.83727 v -0.524934 h 3.97087 v 0.524934 h -1.83727 l 0.1524,-0.160867 v 4.080935 z"
         id="path62893" />
      <path
         d="m 166.46746,80.320091 v -4.445002 h 0.60113 v 4.445002 z m -2.4638,-2.878668 q 0.8382,0.0085 1.27846,0.372534 0.44027,0.364067 0.44027,1.049867 0,0.7112 -0.47413,1.0922 -0.47414,0.381001 -1.35467,0.372534 l -1.76107,-0.0085 v -4.445002 h 0.60113 v 1.549401 z m -0.1524,2.429935 q 0.62653,0.0085 0.9398,-0.245534 0.32173,-0.262466 0.32173,-0.762 0,-0.499534 -0.31327,-0.728134 -0.31326,-0.237066 -0.94826,-0.245533 l -1.11761,-0.01693 v 1.9812 z"
         id="path62895" />
    </g>
    <g
       aria-label="Тиры"
       id="text2781-7"
       style="font-size:8.46667px;line-height:1.25;font-family:Montserrat;-inkscape-font-specification:Montserrat;text-align:center;text-anchor:middle;stroke-width:0.264583">
      <path
         d="m 129.51193,54.397274 v -5.554136 l 0.16933,0.169334 h -2.25213 v -0.541867 h 4.78367 v 0.541867 h -2.24367 L 130.13,48.843138 v 5.554136 z"
         id="path62898" />
      <path
         d="m 133.05211,54.397274 v -4.445002 h 0.60113 v 3.530602 l 2.9718,-3.530602 h 0.5334 v 4.445002 h -0.60113 v -3.539068 l -2.96333,3.539068 z"
         id="path62900" />
      <path
         d="m 141.17164,54.439607 q -0.57573,0 -1.0414,-0.262466 -0.46566,-0.270934 -0.74506,-0.770467 -0.27094,-0.508001 -0.27094,-1.236134 0,-0.728134 0.27094,-1.227667 0.27093,-0.508001 0.7366,-0.770467 0.46566,-0.262467 1.04986,-0.262467 0.635,0 1.13454,0.287867 0.508,0.2794 0.79586,0.795867 0.28787,0.508 0.28787,1.176867 0,0.677333 -0.28787,1.185334 -0.28786,0.508 -0.79586,0.795867 -0.49954,0.287866 -1.13454,0.287866 z m -2.29446,1.600201 v -6.087536 h 0.57573 v 1.337734 l -0.0593,0.889 0.0847,0.897467 v 2.963335 z m 2.25213,-2.133601 q 0.47413,0 0.84667,-0.211667 0.37253,-0.220133 0.59266,-0.6096 0.22014,-0.397933 0.22014,-0.9144 0,-0.516467 -0.22014,-0.905934 -0.22013,-0.389467 -0.59266,-0.6096 -0.37254,-0.220134 -0.84667,-0.220134 -0.47413,0 -0.85513,0.220134 -0.37254,0.220133 -0.59267,0.6096 -0.21167,0.389467 -0.21167,0.905934 0,0.516467 0.21167,0.9144 0.22013,0.389467 0.59267,0.6096 0.381,0.211667 0.85513,0.211667 z"
         id="path62902" />
      <path
         d="m 149.02024,54.397274 v -4.445002 h 0.60113 v 4.445002 z m -2.4638,-2.878668 q 0.8382,0.0085 1.27846,0.372534 0.44027,0.364066 0.44027,1.049867 0,0.7112 -0.47413,1.0922 -0.47414,0.381 -1.35467,0.372534 l -1.76107,-0.0085 v -4.445002 h 0.60114 v 1.549401 z m -0.1524,2.429935 q 0.62653,0.0085 0.9398,-0.245534 0.32173,-0.262467 0.32173,-0.762 0,-0.499534 -0.31327,-0.728134 -0.31326,-0.237067 -0.94826,-0.245533 l -1.1176,-0.01693 v 1.981201 z"
         id="path62904" />
    </g>
    <g
       aria-label="Кластер"
       id="text2781-7-3"
       style="font-size:7.05556px;line-height:1.25;font-family:Montserrat;-inkscape-font-specification:Montserrat;text-align:center;text-anchor:middle;stroke-width:0.264583">
      <path
         d="m 128.27238,35.394901 -1.89795,-2.46239 0.42333,-0.254 2.07434,2.71639 z m -3.37962,0 v -4.938892 h 0.508 v 4.938892 z m 0.35278,-2.264835 v -0.458611 h 1.54517 v 0.458611 z m 1.59456,-0.148166 -0.47978,-0.08467 1.8415,-2.441224 h 0.56445 z"
         id="path62907" />
      <path
         d="m 128.94336,35.387846 0.0353,-0.430389 q 0.0494,0.0071 0.0917,0.02117 0.0494,0.0071 0.0847,0.0071 0.22578,0 0.35984,-0.169334 0.14111,-0.169333 0.21166,-0.451556 0.0706,-0.282222 0.0988,-0.635 0.0282,-0.359833 0.0494,-0.719667 l 0.0635,-1.31939 h 2.71639 v 3.704169 h -0.50094 V 31.98001 l 0.127,0.148167 h -2.01789 l 0.11994,-0.155222 -0.0564,1.072445 q -0.0212,0.479778 -0.0776,0.917223 -0.0494,0.437444 -0.16227,0.769056 -0.10584,0.331611 -0.29634,0.522111 -0.1905,0.183445 -0.48683,0.183445 -0.0847,0 -0.17639,-0.01411 -0.0847,-0.01411 -0.18344,-0.03528 z"
         id="path62909" />
      <path
         d="m 136.37992,35.394901 v -0.818445 l -0.0212,-0.134055 v -1.368779 q 0,-0.472723 -0.26811,-0.726723 -0.26106,-0.254 -0.78317,-0.254 -0.35983,0 -0.68439,0.119945 -0.32455,0.119944 -0.55033,0.3175 l -0.22578,-0.373945 q 0.28222,-0.239889 0.67733,-0.366889 0.39512,-0.134056 0.83256,-0.134056 0.71967,0 1.10772,0.359834 0.39511,0.352778 0.39511,1.079501 v 2.300112 z m -1.27706,0.03528 q -0.41628,0 -0.72672,-0.134056 -0.30339,-0.141111 -0.46567,-0.381 -0.16228,-0.246944 -0.16228,-0.564445 0,-0.289278 0.13406,-0.522111 0.14111,-0.239889 0.45155,-0.381 0.3175,-0.148167 0.84667,-0.148167 h 1.27706 v 0.373945 h -1.26295 q -0.53622,0 -0.74789,0.1905 -0.20461,0.1905 -0.20461,0.472722 0,0.3175 0.24695,0.508001 0.24694,0.1905 0.69144,0.1905 0.42333,0 0.72672,-0.1905 0.31045,-0.197556 0.45156,-0.564445 l 0.11289,0.345722 q -0.14111,0.366889 -0.49389,0.585612 -0.34572,0.218722 -0.87489,0.218722 z"
         id="path62911" />
      <path
         d="m 139.74541,35.430179 q -0.55034,0 -0.98778,-0.239889 -0.43039,-0.246945 -0.67734,-0.670278 -0.24694,-0.430389 -0.24694,-0.980723 0,-0.557389 0.24694,-0.980723 0.24695,-0.423333 0.67734,-0.663223 0.43744,-0.239889 0.98778,-0.239889 0.47272,0 0.85372,0.183445 0.381,0.183445 0.59972,0.550334 l -0.37394,0.254 q -0.1905,-0.282223 -0.47273,-0.416278 -0.28222,-0.134056 -0.61383,-0.134056 -0.39511,0 -0.71261,0.183445 -0.3175,0.176389 -0.50095,0.500944 -0.18344,0.324556 -0.18344,0.762001 0,0.437445 0.18344,0.762 0.18345,0.324556 0.50095,0.508001 0.3175,0.176389 0.71261,0.176389 0.33161,0 0.61383,-0.134056 0.28223,-0.134055 0.47273,-0.409222 l 0.37394,0.254 q -0.21872,0.359833 -0.59972,0.550334 -0.381,0.183444 -0.85372,0.183444 z"
         id="path62913" />
      <path
         d="m 142.80116,35.394901 v -3.40078 l 0.127,0.134056 h -1.53106 v -0.437445 h 3.30906 v 0.437445 h -1.53106 l 0.127,-0.134056 v 3.40078 z"
         id="path62915" />
      <path
         d="m 146.85198,35.430179 q -0.57856,0 -1.016,-0.239889 -0.43745,-0.246945 -0.68439,-0.670278 -0.24695,-0.430389 -0.24695,-0.980723 0,-0.550334 0.23284,-0.973667 0.23988,-0.423334 0.64911,-0.663223 0.41628,-0.246945 0.93133,-0.246945 0.52211,0 0.92428,0.239889 0.40922,0.232834 0.64206,0.663223 0.23283,0.423334 0.23283,0.980723 0,0.03528 -0.007,0.07761 0,0.03528 0,0.07761 h -3.22439 v -0.373944 h 2.95628 l -0.19755,0.148166 q 0,-0.402167 -0.17639,-0.712611 -0.16934,-0.3175 -0.46567,-0.493889 -0.29633,-0.176389 -0.68439,-0.176389 -0.381,0 -0.68439,0.176389 -0.30339,0.176389 -0.47272,0.493889 -0.16933,0.3175 -0.16933,0.726722 v 0.07761 q 0,0.423333 0.18344,0.747889 0.1905,0.3175 0.52211,0.500945 0.33867,0.176389 0.76906,0.176389 0.33866,0 0.62794,-0.119945 0.29634,-0.119944 0.508,-0.366889 l 0.28223,0.324556 q -0.24695,0.296333 -0.62089,0.451556 -0.36689,0.155222 -0.81139,0.155222 z"
         id="path62917" />
      <path
         d="m 151.53685,35.430179 q -0.47977,0 -0.86783,-0.218722 -0.38806,-0.225778 -0.62089,-0.642056 -0.22578,-0.423334 -0.22578,-1.030112 0,-0.606778 0.22578,-1.023056 0.22578,-0.423334 0.61383,-0.642056 0.38806,-0.218723 0.87489,-0.218723 0.52917,0 0.94545,0.239889 0.42333,0.232834 0.66322,0.663223 0.23989,0.423334 0.23989,0.980723 0,0.564445 -0.23989,0.987778 -0.23989,0.423334 -0.66322,0.663223 -0.41628,0.239889 -0.94545,0.239889 z m -1.91205,1.333501 v -5.072948 h 0.47977 v 1.114779 l -0.0494,0.740834 0.0705,0.747889 v 2.469446 z m 1.87678,-1.778001 q 0.39511,0 0.70555,-0.176389 0.31045,-0.183445 0.49389,-0.508001 0.18345,-0.331611 0.18345,-0.762 0,-0.430389 -0.18345,-0.754945 -0.18344,-0.324556 -0.49389,-0.508 -0.31044,-0.183445 -0.70555,-0.183445 -0.39512,0 -0.71262,0.183445 -0.31044,0.183444 -0.49388,0.508 -0.17639,0.324556 -0.17639,0.754945 0,0.430389 0.17639,0.762 0.18344,0.324556 0.49388,0.508001 0.3175,0.176389 0.71262,0.176389 z"
         id="path62919" />
    </g>
  </g>
</svg>
