<?xml version="1.0" encoding="UTF-8" standalone="no"?>
<!-- Created with Inkscape (http://www.inkscape.org/) -->

<svg
   width="1050"
   height="450"
   viewBox="0 0 277.81251 119.0625"
   version="1.1"
   id="svg5"
   inkscape:version="1.1.2 (0a00cf5339, 2022-02-04)"
   sodipodi:docname="raft-log-1.svg"
   inkscape:export-filename="/home/atolstoy/picodata-git/picodata/docs/clustering.png"
   inkscape:export-xdpi="120"
   inkscape:export-ydpi="120"
   xmlns:inkscape="http://www.inkscape.org/namespaces/inkscape"
   xmlns:sodipodi="http://sodipodi.sourceforge.net/DTD/sodipodi-0.dtd"
   xmlns="http://www.w3.org/2000/svg"
   xmlns:svg="http://www.w3.org/2000/svg">
  <sodipodi:namedview
     id="namedview7"
     pagecolor="#ffffff"
     bordercolor="#666666"
     borderopacity="1.0"
     inkscape:pageshadow="2"
     inkscape:pageopacity="0.0"
     inkscape:pagecheckerboard="0"
     inkscape:document-units="px"
     showgrid="false"
     inkscape:zoom="0.89476149"
     inkscape:cx="477.22215"
     inkscape:cy="333.60846"
     inkscape:window-width="1846"
     inkscape:window-height="1016"
     inkscape:window-x="74"
     inkscape:window-y="27"
     inkscape:window-maximized="1"
     inkscape:current-layer="layer3"
     fit-margin-top="0"
     fit-margin-left="0"
     fit-margin-right="0"
     fit-margin-bottom="0"
     inkscape:snap-midpoints="true"
     showguides="true"
     inkscape:guide-bbox="true"
     inkscape:snap-text-baseline="true"
     inkscape:snap-center="true"
     inkscape:snap-object-midpoints="false"
     height="450px"
     units="px"
     width="1050px">
    <sodipodi:guide
       position="160.1538,78.24159"
       orientation="0,-1"
       id="guide2183" />
    <sodipodi:guide
       position="213.1778,90.425294"
       orientation="1,0"
       id="guide2185" />
    <sodipodi:guide
       position="253.45749,96.179543"
       orientation="0,-1"
       id="guide3040" />
    <sodipodi:guide
       position="-5.903738,-13.229167"
       orientation="0,1"
       id="guide26566"
       inkscape:label=""
       inkscape:locked="false"
       inkscape:color="rgb(0,0,255)" />
    <sodipodi:guide
       position="9.2245906,-145.52084"
       orientation="0,1"
       id="guide27107"
       inkscape:label=""
       inkscape:locked="false"
       inkscape:color="rgb(0,0,255)" />
  </sodipodi:namedview>
  <defs
     id="defs2">
    <marker
       style="overflow:visible"
       id="Arrow2Mend"
       refX="0"
       refY="0"
       orient="auto"
       inkscape:stockid="Arrow2Mend"
       inkscape:isstock="true">
      <path
         transform="scale(-0.6)"
         d="M 8.7185878,4.0337352 -2.2072895,0.01601326 8.7185884,-4.0017078 c -1.7454984,2.3720609 -1.7354408,5.6174519 -6e-7,8.035443 z"
         style="fill:context-stroke;fill-rule:evenodd;stroke:context-stroke;stroke-width:0.625;stroke-linejoin:round"
         id="path25869" />
    </marker>
    <marker
       style="overflow:visible"
       id="Arrow2Lend"
       refX="0"
       refY="0"
       orient="auto"
       inkscape:stockid="Arrow2Lend"
       inkscape:isstock="true">
      <path
         transform="matrix(-1.1,0,0,-1.1,-1.1,0)"
         d="M 8.7185878,4.0337352 -2.2072895,0.01601326 8.7185884,-4.0017078 c -1.7454984,2.3720609 -1.7354408,5.6174519 -6e-7,8.035443 z"
         style="fill:context-stroke;fill-rule:evenodd;stroke:context-stroke;stroke-width:0.625;stroke-linejoin:round"
         id="path8943" />
    </marker>
    <marker
       style="overflow:visible"
       id="Arrow1Lend"
       refX="0"
       refY="0"
       orient="auto"
       inkscape:stockid="Arrow1Lend"
       inkscape:isstock="true">
      <path
         transform="matrix(-0.8,0,0,-0.8,-10,0)"
         style="fill:context-stroke;fill-rule:evenodd;stroke:context-stroke;stroke-width:1pt"
         d="M 0,0 5,-5 -12.5,0 5,5 Z"
         id="path8925" />
    </marker>
    <marker
       style="overflow:visible"
       id="Arrow1Lstart"
       refX="0"
       refY="0"
       orient="auto"
       inkscape:stockid="Arrow1Lstart"
       inkscape:isstock="true">
      <path
         transform="matrix(0.8,0,0,0.8,10,0)"
         style="fill:context-stroke;fill-rule:evenodd;stroke:context-stroke;stroke-width:1pt"
         d="M 0,0 5,-5 -12.5,0 5,5 Z"
         id="path8922" />
    </marker>
    <marker
       style="overflow:visible"
       id="Arrow2Mend-3"
       refX="0"
       refY="0"
       orient="auto"
       inkscape:stockid="Arrow2Mend"
       inkscape:isstock="true">
      <path
         transform="scale(-0.6)"
         d="M 8.7185878,4.0337352 -2.2072895,0.01601326 8.7185884,-4.0017078 c -1.7454984,2.3720609 -1.7354408,5.6174519 -6e-7,8.035443 z"
         style="fill:context-stroke;fill-rule:evenodd;stroke:context-stroke;stroke-width:0.625;stroke-linejoin:round"
         id="path25869-6" />
    </marker>
    <marker
       style="overflow:visible"
       id="Arrow2Lend-8"
       refX="0"
       refY="0"
       orient="auto"
       inkscape:stockid="Arrow2Lend"
       inkscape:isstock="true">
      <path
         transform="matrix(-1.1,0,0,-1.1,-1.1,0)"
         d="M 8.7185878,4.0337352 -2.2072895,0.01601326 8.7185884,-4.0017078 c -1.7454984,2.3720609 -1.7354408,5.6174519 -6e-7,8.035443 z"
         style="fill:context-stroke;fill-rule:evenodd;stroke:context-stroke;stroke-width:0.625;stroke-linejoin:round"
         id="path8943-7" />
    </marker>
    <marker
       style="overflow:visible"
       id="marker41450"
       refX="0"
       refY="0"
       orient="auto"
       inkscape:stockid="Arrow2Lend"
       inkscape:isstock="true">
      <path
         transform="matrix(-1.1,0,0,-1.1,-1.1,0)"
         d="M 8.7185878,4.0337352 -2.2072895,0.01601326 8.7185884,-4.0017078 c -1.7454984,2.3720609 -1.7354408,5.6174519 -6e-7,8.035443 z"
         style="fill:context-stroke;fill-rule:evenodd;stroke:context-stroke;stroke-width:0.625;stroke-linejoin:round"
         id="path41448" />
    </marker>
    <marker
       style="overflow:visible"
       id="marker41454"
       refX="0"
       refY="0"
       orient="auto"
       inkscape:stockid="Arrow2Lend"
       inkscape:isstock="true">
      <path
         transform="matrix(-1.1,0,0,-1.1,-1.1,0)"
         d="M 8.7185878,4.0337352 -2.2072895,0.01601326 8.7185884,-4.0017078 c -1.7454984,2.3720609 -1.7354408,5.6174519 -6e-7,8.035443 z"
         style="fill:context-stroke;fill-rule:evenodd;stroke:context-stroke;stroke-width:0.625;stroke-linejoin:round"
         id="path41452" />
    </marker>
    <marker
       style="overflow:visible"
       id="marker41458"
       refX="0"
       refY="0"
       orient="auto"
       inkscape:stockid="Arrow2Lend"
       inkscape:isstock="true">
      <path
         transform="matrix(-1.1,0,0,-1.1,-1.1,0)"
         d="M 8.7185878,4.0337352 -2.2072895,0.01601326 8.7185884,-4.0017078 c -1.7454984,2.3720609 -1.7354408,5.6174519 -6e-7,8.035443 z"
         style="fill:context-stroke;fill-rule:evenodd;stroke:context-stroke;stroke-width:0.625;stroke-linejoin:round"
         id="path41456" />
    </marker>
    <marker
       style="overflow:visible"
       id="Arrow2Mend-2"
       refX="0"
       refY="0"
       orient="auto"
       inkscape:stockid="Arrow2Mend"
       inkscape:isstock="true">
      <path
         transform="scale(-0.6)"
         d="M 8.7185878,4.0337352 -2.2072895,0.01601326 8.7185884,-4.0017078 c -1.7454984,2.3720609 -1.7354408,5.6174519 -6e-7,8.035443 z"
         style="fill:context-stroke;fill-rule:evenodd;stroke:context-stroke;stroke-width:0.625;stroke-linejoin:round"
         id="path25869-0" />
    </marker>
  </defs>
  <g
     inkscape:label="Слой 1"
     inkscape:groupmode="layer"
     id="layer1"
     transform="translate(-46.875582,-8.2850274)">
    <rect
       style="fill:#76ff00;fill-opacity:1;stroke:#000000;stroke-width:0.566995;stroke-linecap:round;stroke-linejoin:round;stroke-miterlimit:4;stroke-dasharray:none;stroke-dashoffset:1.3"
       id="rect1383"
       width="12.054214"
       height="12.054214"
       x="47.159077"
       y="58.099411" />
    <rect
       style="fill:#76ff00;fill-opacity:1;stroke:#000000;stroke-width:0.566995;stroke-linecap:round;stroke-linejoin:round;stroke-miterlimit:4;stroke-dasharray:none;stroke-dashoffset:1.3"
       id="rect1383-6"
       width="12.054214"
       height="12.054214"
       x="59.213287"
       y="58.099411" />
    <rect
       style="fill:#76ff00;fill-opacity:1;stroke:#000000;stroke-width:0.566995;stroke-linecap:round;stroke-linejoin:round;stroke-miterlimit:4;stroke-dasharray:none;stroke-dashoffset:1.3"
       id="rect1383-7"
       width="12.054214"
       height="12.054214"
       x="71.267502"
       y="58.099411" />
    <rect
       style="fill:#76ff00;fill-opacity:1;stroke:#000000;stroke-width:0.566995;stroke-linecap:round;stroke-linejoin:round;stroke-miterlimit:4;stroke-dasharray:none;stroke-dashoffset:1.3"
       id="rect1383-5"
       width="12.054214"
       height="12.054214"
       x="83.321716"
       y="58.099411" />
    <rect
       style="fill:#ffdd00;fill-opacity:1;stroke:#000000;stroke-width:0.566995;stroke-linecap:round;stroke-linejoin:round;stroke-miterlimit:4;stroke-dasharray:none;stroke-dashoffset:1.3"
       id="rect1383-5-3"
       width="12.054214"
       height="12.054214"
       x="95.375931"
       y="58.099411" />
    <rect
       style="fill:#ffdd00;fill-opacity:1;stroke:#000000;stroke-width:0.566995;stroke-linecap:round;stroke-linejoin:round;stroke-miterlimit:4;stroke-dasharray:none;stroke-dashoffset:1.3"
       id="rect1383-5-3-5"
       width="12.054214"
       height="12.054214"
       x="107.43015"
       y="58.099411" />
    <rect
       style="fill:#ffdd00;fill-opacity:1;stroke:#000000;stroke-width:0.566995;stroke-linecap:round;stroke-linejoin:round;stroke-miterlimit:4;stroke-dasharray:none;stroke-dashoffset:1.3"
       id="rect1383-5-3-6"
       width="12.054214"
       height="12.054214"
       x="143.59277"
       y="58.099411" />
    <rect
       style="fill:#ffdd00;fill-opacity:1;stroke:#000000;stroke-width:0.566995;stroke-linecap:round;stroke-linejoin:round;stroke-miterlimit:4;stroke-dasharray:none;stroke-dashoffset:1.3"
       id="rect1383-5-3-2-5"
       width="12.054214"
       height="12.054214"
       x="131.53857"
       y="58.099411" />
    <rect
       style="fill:#ffdd00;fill-opacity:1;stroke:#000000;stroke-width:0.566995;stroke-linecap:round;stroke-linejoin:round;stroke-miterlimit:4;stroke-dasharray:none;stroke-dashoffset:1.3"
       id="rect1383-5-3-2"
       width="12.054214"
       height="12.054214"
       x="155.647"
       y="58.099411" />
    <rect
       style="fill:#ffdd00;fill-opacity:1;stroke:#000000;stroke-width:0.566995;stroke-linecap:round;stroke-linejoin:round;stroke-miterlimit:4;stroke-dasharray:none;stroke-dashoffset:1.3"
       id="rect1383-5-3-2-2"
       width="12.054214"
       height="12.054214"
       x="119.48436"
       y="58.099411" />
    <rect
       style="fill:#ffdd00;fill-opacity:1;stroke:#000000;stroke-width:0.566995;stroke-linecap:round;stroke-linejoin:round;stroke-miterlimit:4;stroke-dasharray:none;stroke-dashoffset:1.3"
       id="rect1383-5-3-9"
       width="12.054214"
       height="12.054214"
       x="167.70122"
       y="58.099411" />
    <rect
       style="fill:#ff6b00;fill-opacity:1;stroke:#000000;stroke-width:0.566995;stroke-linecap:round;stroke-linejoin:round;stroke-miterlimit:4;stroke-dasharray:none;stroke-dashoffset:1.3"
       id="rect1383-5-3-1"
       width="12.054214"
       height="12.054214"
       x="179.75542"
       y="58.099411" />
    <rect
       style="fill:#ff6b00;fill-opacity:1;stroke:#000000;stroke-width:0.566995;stroke-linecap:round;stroke-linejoin:round;stroke-miterlimit:4;stroke-dasharray:none;stroke-dashoffset:1.3"
       id="rect1383-5-3-1-2"
       width="12.054214"
       height="12.054214"
       x="191.80962"
       y="58.099411" />
    <rect
       style="fill:#ff6b00;fill-opacity:1;stroke:#000000;stroke-width:0.566995;stroke-linecap:round;stroke-linejoin:round;stroke-miterlimit:4;stroke-dasharray:none;stroke-dashoffset:1.3"
       id="rect1383-5-3-1-7"
       width="12.054214"
       height="12.054214"
       x="203.86383"
       y="58.099411" />
    <rect
       style="fill:#ff6b00;fill-opacity:1;stroke:#000000;stroke-width:0.566995;stroke-linecap:round;stroke-linejoin:round;stroke-miterlimit:4;stroke-dasharray:none;stroke-dashoffset:1.3"
       id="rect1383-5-3-1-0"
       width="12.054214"
       height="12.054214"
       x="215.91805"
       y="58.099411" />
    <rect
       style="fill:#ff6b00;fill-opacity:1;stroke:#000000;stroke-width:0.566995;stroke-linecap:round;stroke-linejoin:round;stroke-miterlimit:4;stroke-dasharray:none;stroke-dashoffset:1.3"
       id="rect1383-5-3-1-0-4"
       width="12.054214"
       height="12.054214"
       x="227.97226"
       y="58.099411" />
    <rect
       style="fill:#bdbdbd;fill-opacity:1;stroke:#000000;stroke-width:0.566995;stroke-linecap:round;stroke-linejoin:round;stroke-miterlimit:4;stroke-dasharray:none;stroke-dashoffset:1.3"
       id="rect1383-5-3-1-9"
       width="12.054214"
       height="12.054214"
       x="312.35172"
       y="58.099415" />
    <rect
       style="fill:#bdbdbd;fill-opacity:1;stroke:#000000;stroke-width:0.566995;stroke-linecap:round;stroke-linejoin:round;stroke-miterlimit:4;stroke-dasharray:none;stroke-dashoffset:1.3"
       id="rect1383-5-3-1-9-2"
       width="12.054214"
       height="12.054214"
       x="240.02649"
       y="58.099415" />
    <rect
       style="fill:#bdbdbd;fill-opacity:1;stroke:#000000;stroke-width:0.566995;stroke-linecap:round;stroke-linejoin:round;stroke-miterlimit:4;stroke-dasharray:none;stroke-dashoffset:1.3"
       id="rect1383-5-3-1-9-9"
       width="12.054214"
       height="12.054214"
       x="252.08069"
       y="58.099415" />
    <rect
       style="fill:#bdbdbd;fill-opacity:1;stroke:#000000;stroke-width:0.566995;stroke-linecap:round;stroke-linejoin:round;stroke-miterlimit:4;stroke-dasharray:none;stroke-dashoffset:1.3"
       id="rect1383-5-3-1-9-1"
       width="12.054214"
       height="12.054214"
       x="264.13492"
       y="58.099415" />
    <rect
       style="fill:#bdbdbd;fill-opacity:1;stroke:#000000;stroke-width:0.566995;stroke-linecap:round;stroke-linejoin:round;stroke-miterlimit:4;stroke-dasharray:none;stroke-dashoffset:1.3"
       id="rect1383-5-3-1-9-27"
       width="12.054214"
       height="12.054214"
       x="276.18912"
       y="58.099415" />
    <rect
       style="fill:#bdbdbd;fill-opacity:1;stroke:#000000;stroke-width:0.566995;stroke-linecap:round;stroke-linejoin:round;stroke-miterlimit:4;stroke-dasharray:none;stroke-dashoffset:1.3"
       id="rect1383-5-3-1-9-0"
       width="12.054214"
       height="12.054214"
       x="288.24335"
       y="58.099415" />
    <path
       style="fill:none;stroke:#000000;stroke-width:0.425246;stroke-linecap:butt;stroke-linejoin:miter;stroke-miterlimit:4;stroke-dasharray:none;stroke-opacity:1"
       d="m 95.375934,70.153626 v 9.379403"
       id="path27279-6"
       sodipodi:nodetypes="cc" />
    <path
       style="fill:none;stroke:#000000;stroke-width:0.425246;stroke-linecap:butt;stroke-linejoin:miter;stroke-miterlimit:4;stroke-dasharray:none;stroke-opacity:1"
       d="m 179.75543,70.153623 v 9.379406"
       id="path27279-6-0"
       sodipodi:nodetypes="cc" />
    <path
       style="fill:none;stroke:#000000;stroke-width:0.425246;stroke-linecap:butt;stroke-linejoin:miter;stroke-miterlimit:4;stroke-dasharray:none;stroke-opacity:1"
       d="m 240.02648,70.153627 v 9.379407"
       id="path27279-6-0-9"
       sodipodi:nodetypes="cc" />
    <g
       aria-label="Applied"
       id="text3268"
       style="font-size:9.07188px;line-height:1.25;text-align:center;text-anchor:middle;stroke-width:0.212623">
      <path
         d="m 53.627258,82.91507 2.903002,-6.350317 h 0.662247 l 2.903002,6.350317 h -0.707607 l -2.667133,-5.960226 h 0.272157 l -2.667133,5.960226 z m 1.143057,-1.696442 0.199581,-0.544313 h 3.692256 l 0.199581,0.544313 z"
         style="font-family:Montserrat;-inkscape-font-specification:Montserrat"
         id="path26304" />
      <path
         d="m 63.470239,82.960429 q -0.616887,0 -1.115841,-0.281228 -0.498953,-0.2903 -0.798325,-0.825541 -0.2903,-0.544313 -0.2903,-1.324495 0,-0.780182 0.2903,-1.315423 0.2903,-0.544312 0.789253,-0.825541 0.498954,-0.281228 1.124913,-0.281228 0.680392,0 1.215632,0.308444 0.544313,0.299372 0.852757,0.852757 0.308444,0.544313 0.308444,1.260991 0,0.72575 -0.308444,1.270063 -0.308444,0.544313 -0.852757,0.852757 -0.53524,0.308444 -1.215632,0.308444 z m -2.458479,1.714585 v -6.522682 h 0.616888 v 1.433357 l -0.0635,0.952548 0.09072,0.961619 v 3.175158 z m 2.41312,-2.286113 q 0.508025,0 0.907188,-0.226797 0.399163,-0.235869 0.635032,-0.653176 0.235869,-0.426378 0.235869,-0.979763 0,-0.553385 -0.235869,-0.970691 -0.235869,-0.417307 -0.635032,-0.653176 -0.399163,-0.235868 -0.907188,-0.235868 -0.508025,0 -0.91626,0.235868 -0.399163,0.235869 -0.635031,0.653176 -0.226797,0.417306 -0.226797,0.970691 0,0.553385 0.226797,0.979763 0.235868,0.417307 0.635031,0.653176 0.408235,0.226797 0.91626,0.226797 z"
         style="font-family:Montserrat;-inkscape-font-specification:Montserrat"
         id="path26306" />
      <path
         d="m 69.62097,82.960429 q -0.616888,0 -1.115841,-0.281228 -0.498954,-0.2903 -0.798326,-0.825541 -0.2903,-0.544313 -0.2903,-1.324495 0,-0.780182 0.2903,-1.315423 0.290301,-0.544312 0.789254,-0.825541 0.498953,-0.281228 1.124913,-0.281228 0.680391,0 1.215632,0.308444 0.544313,0.299372 0.852757,0.852757 0.308444,0.544313 0.308444,1.260991 0,0.72575 -0.308444,1.270063 -0.308444,0.544313 -0.852757,0.852757 -0.535241,0.308444 -1.215632,0.308444 z m -2.458479,1.714585 v -6.522682 h 0.616887 v 1.433357 l -0.0635,0.952548 0.09072,0.961619 v 3.175158 z m 2.41312,-2.286113 q 0.508025,0 0.907188,-0.226797 0.399162,-0.235869 0.635031,-0.653176 0.235869,-0.426378 0.235869,-0.979763 0,-0.553385 -0.235869,-0.970691 -0.235869,-0.417307 -0.635031,-0.653176 -0.399163,-0.235868 -0.907188,-0.235868 -0.508026,0 -0.91626,0.235868 -0.399163,0.235869 -0.635032,0.653176 -0.226797,0.417306 -0.226797,0.970691 0,0.553385 0.226797,0.979763 0.235869,0.417307 0.635032,0.653176 0.408234,0.226797 0.91626,0.226797 z"
         style="font-family:Montserrat;-inkscape-font-specification:Montserrat"
         id="path26308" />
      <path
         d="m 73.313221,82.91507 v -6.731336 h 0.644103 v 6.731336 z"
         style="font-family:Montserrat;-inkscape-font-specification:Montserrat"
         id="path26310" />
      <path
         d="m 75.753547,82.91507 v -4.762738 h 0.644104 v 4.762738 z m 0.326588,-5.815076 q -0.199581,0 -0.33566,-0.136078 -0.136078,-0.136078 -0.136078,-0.326588 0,-0.190509 0.136078,-0.317515 0.136079,-0.136079 0.33566,-0.136079 0.199581,0 0.33566,0.127007 0.136078,0.127006 0.136078,0.317516 0,0.199581 -0.136078,0.335659 -0.127007,0.136078 -0.33566,0.136078 z"
         style="font-family:Montserrat;-inkscape-font-specification:Montserrat"
         id="path26312" />
      <path
         d="m 80.216905,82.960429 q -0.743894,0 -1.30635,-0.308444 -0.562457,-0.317516 -0.879973,-0.861829 -0.317516,-0.553384 -0.317516,-1.260991 0,-0.707607 0.299372,-1.251919 0.308444,-0.544313 0.834613,-0.852757 0.535241,-0.317516 1.197489,-0.317516 0.671319,0 1.188416,0.308444 0.526169,0.299372 0.825541,0.852757 0.299372,0.544313 0.299372,1.260991 0,0.04536 -0.0091,0.09979 0,0.04536 0,0.09979 H 78.20292 v -0.480809 h 3.801118 l -0.254013,0.190509 q 0,-0.517097 -0.226797,-0.91626 -0.217725,-0.408234 -0.598744,-0.635031 -0.381019,-0.226797 -0.879972,-0.226797 -0.489882,0 -0.879973,0.226797 -0.390091,0.226797 -0.607816,0.635031 -0.217725,0.408235 -0.217725,0.934404 v 0.09979 q 0,0.544313 0.235869,0.961619 0.244941,0.408235 0.671319,0.644104 0.43545,0.226797 0.988835,0.226797 0.43545,0 0.807397,-0.154222 0.381019,-0.154222 0.653176,-0.471738 l 0.362875,0.417306 q -0.317516,0.381019 -0.798325,0.580601 -0.471738,0.199581 -1.043267,0.199581 z"
         style="font-family:Montserrat;-inkscape-font-specification:Montserrat"
         id="path26314" />
      <path
         d="m 85.569298,82.960429 q -0.680391,0 -1.224704,-0.308444 -0.535241,-0.308444 -0.843685,-0.852757 -0.308444,-0.553384 -0.308444,-1.270063 0,-0.72575 0.308444,-1.270063 0.308444,-0.544313 0.843685,-0.843685 0.544313,-0.308444 1.224704,-0.308444 0.625959,0 1.115841,0.281228 0.498953,0.281229 0.789254,0.825541 0.299372,0.535241 0.299372,1.315423 0,0.77111 -0.290301,1.315423 -0.2903,0.544313 -0.789253,0.834613 -0.489882,0.281228 -1.124913,0.281228 z m 0.04536,-0.571528 q 0.508025,0 0.907188,-0.226797 0.408235,-0.235869 0.635032,-0.653176 0.235869,-0.426378 0.235869,-0.979763 0,-0.562457 -0.235869,-0.979763 -0.226797,-0.417307 -0.635032,-0.644104 -0.399163,-0.235868 -0.907188,-0.235868 -0.498953,0 -0.898116,0.235868 -0.399163,0.226797 -0.635032,0.644104 -0.235869,0.417306 -0.235869,0.979763 0,0.553385 0.235869,0.979763 0.235869,0.417307 0.635032,0.653176 0.399163,0.226797 0.898116,0.226797 z m 1.796232,0.526169 v -1.433358 l 0.0635,-0.961619 -0.09072,-0.961619 v -3.37474 h 0.644103 v 6.731336 z"
         style="font-family:Montserrat;-inkscape-font-specification:Montserrat"
         id="path26316" />
    </g>
    <g
       aria-label="Committed"
       id="text3268-6"
       style="font-size:9.07188px;line-height:1.25;text-align:center;text-anchor:middle;stroke-width:0.212623">
      <path
         d="m 115.31757,82.969501 q -0.71668,0 -1.32449,-0.235869 -0.60782,-0.244941 -1.05234,-0.680391 -0.44452,-0.43545 -0.69854,-1.025123 -0.24494,-0.589672 -0.24494,-1.288207 0,-0.698534 0.24494,-1.288207 0.25402,-0.589672 0.69854,-1.025122 0.45359,-0.43545 1.06141,-0.671319 0.60781,-0.244941 1.32449,-0.244941 0.68947,0 1.29728,0.235869 0.60782,0.226797 1.02512,0.689463 l -0.42637,0.426378 q -0.3901,-0.399163 -0.86183,-0.571528 -0.47174,-0.181438 -1.01605,-0.181438 -0.57153,0 -1.06141,0.199582 -0.48989,0.190509 -0.85276,0.553384 -0.36288,0.353804 -0.57153,0.834613 -0.19958,0.471738 -0.19958,1.043266 0,0.571529 0.19958,1.052339 0.20865,0.471737 0.57153,0.834613 0.36287,0.353803 0.85276,0.553384 0.48988,0.19051 1.06141,0.19051 0.54431,0 1.01605,-0.181438 0.47173,-0.181437 0.86183,-0.5806 l 0.42637,0.426378 q -0.4173,0.462666 -1.02512,0.698535 -0.60781,0.235869 -1.30635,0.235869 z"
         style="font-family:Montserrat;-inkscape-font-specification:Montserrat"
         id="path26285" />
      <path
         d="m 120.68145,82.960429 q -0.68946,0 -1.24285,-0.308444 -0.54431,-0.317516 -0.86183,-0.861829 -0.31751,-0.553384 -0.31751,-1.260991 0,-0.716678 0.31751,-1.260991 0.31752,-0.544313 0.86183,-0.852757 0.54431,-0.308444 1.24285,-0.308444 0.70761,0 1.25192,0.308444 0.55338,0.308444 0.86183,0.852757 0.31751,0.544313 0.31751,1.260991 0,0.707607 -0.31751,1.260991 -0.30845,0.544313 -0.86183,0.861829 -0.55339,0.308444 -1.25192,0.308444 z m 0,-0.571528 q 0.5171,0 0.91626,-0.226797 0.39916,-0.235869 0.62596,-0.653176 0.23587,-0.426378 0.23587,-0.979763 0,-0.562457 -0.23587,-0.979763 -0.2268,-0.417307 -0.62596,-0.644104 -0.39916,-0.235868 -0.90719,-0.235868 -0.50802,0 -0.90719,0.235868 -0.39916,0.226797 -0.63503,0.644104 -0.23587,0.417306 -0.23587,0.979763 0,0.553385 0.23587,0.979763 0.23587,0.417307 0.63503,0.653176 0.39917,0.226797 0.89812,0.226797 z"
         style="font-family:Montserrat;-inkscape-font-specification:Montserrat"
         id="path26287" />
      <path
         d="m 130.37928,78.106973 q 0.5806,0 1.00698,0.226797 0.43545,0.217725 0.67132,0.671319 0.24494,0.453594 0.24494,1.143057 v 2.766924 h -0.64411 v -2.703421 q 0,-0.752966 -0.36287,-1.133985 -0.3538,-0.390091 -1.00698,-0.390091 -0.48988,0 -0.85276,0.208654 -0.3538,0.199581 -0.55338,0.589672 -0.19051,0.381019 -0.19051,0.925332 v 2.503839 h -0.6441 v -2.703421 q 0,-0.752966 -0.36288,-1.133985 -0.36287,-0.390091 -1.01605,-0.390091 -0.48081,0 -0.84368,0.208654 -0.36288,0.199581 -0.56246,0.589672 -0.19051,0.381019 -0.19051,0.925332 v 2.503839 h -0.6441 v -4.762738 h 0.61688 v 1.288207 l -0.0998,-0.226797 q 0.21773,-0.517097 0.69854,-0.807397 0.48988,-0.299372 1.15213,-0.299372 0.69853,0 1.18841,0.353803 0.48988,0.344732 0.63503,1.043267 l -0.25401,-0.09979 q 0.20866,-0.5806 0.73482,-0.934404 0.53525,-0.362875 1.27914,-0.362875 z"
         style="font-family:Montserrat;-inkscape-font-specification:Montserrat"
         id="path26289" />
      <path
         d="m 140.00454,78.106973 q 0.5806,0 1.00697,0.226797 0.43546,0.217725 0.67132,0.671319 0.24494,0.453594 0.24494,1.143057 v 2.766924 h -0.6441 v -2.703421 q 0,-0.752966 -0.36287,-1.133985 -0.35381,-0.390091 -1.00698,-0.390091 -0.48988,0 -0.85276,0.208654 -0.3538,0.199581 -0.55338,0.589672 -0.19051,0.381019 -0.19051,0.925332 v 2.503839 h -0.64411 v -2.703421 q 0,-0.752966 -0.36287,-1.133985 -0.36288,-0.390091 -1.01605,-0.390091 -0.48081,0 -0.84369,0.208654 -0.36287,0.199581 -0.56245,0.589672 -0.19051,0.381019 -0.19051,0.925332 v 2.503839 h -0.64411 v -4.762738 h 0.61689 v 1.288207 l -0.0998,-0.226797 q 0.21773,-0.517097 0.69853,-0.807397 0.48989,-0.299372 1.15213,-0.299372 0.69854,0 1.18842,0.353803 0.48988,0.344732 0.63503,1.043267 l -0.25401,-0.09979 q 0.20865,-0.5806 0.73482,-0.934404 0.53524,-0.362875 1.27914,-0.362875 z"
         style="font-family:Montserrat;-inkscape-font-specification:Montserrat"
         id="path26291" />
      <path
         d="m 143.67864,82.91507 v -4.762738 h 0.6441 v 4.762738 z m 0.32659,-5.815076 q -0.19959,0 -0.33566,-0.136078 -0.13608,-0.136078 -0.13608,-0.326588 0,-0.190509 0.13608,-0.317515 0.13607,-0.136079 0.33566,-0.136079 0.19958,0 0.33566,0.127007 0.13607,0.127006 0.13607,0.317516 0,0.199581 -0.13607,0.335659 -0.12701,0.136078 -0.33566,0.136078 z"
         style="font-family:Montserrat;-inkscape-font-specification:Montserrat"
         id="path26293" />
      <path
         d="m 147.6249,82.960429 q -0.67132,0 -1.0342,-0.362875 -0.36287,-0.362875 -0.36287,-1.025123 v -4.472437 h 0.6441 v 4.43615 q 0,0.417306 0.20865,0.644103 0.21773,0.226797 0.61689,0.226797 0.42638,0 0.70761,-0.24494 l 0.2268,0.462665 q -0.19051,0.172366 -0.46267,0.254013 -0.26308,0.08165 -0.54431,0.08165 z m -2.24983,-4.272856 v -0.535241 h 2.94836 v 0.535241 z"
         style="font-family:Montserrat;-inkscape-font-specification:Montserrat"
         id="path26295" />
      <path
         d="m 151.18225,82.960429 q -0.67132,0 -1.03419,-0.362875 -0.36288,-0.362875 -0.36288,-1.025123 v -4.472437 h 0.64411 v 4.43615 q 0,0.417306 0.20865,0.644103 0.21772,0.226797 0.61689,0.226797 0.42637,0 0.7076,-0.24494 l 0.2268,0.462665 q -0.19051,0.172366 -0.46267,0.254013 -0.26308,0.08165 -0.54431,0.08165 z m -2.24983,-4.272856 v -0.535241 h 2.94837 v 0.535241 z"
         style="font-family:Montserrat;-inkscape-font-specification:Montserrat"
         id="path26297" />
      <path
         d="m 155.21135,82.960429 q -0.74389,0 -1.30635,-0.308444 -0.56245,-0.317516 -0.87997,-0.861829 -0.31752,-0.553384 -0.31752,-1.260991 0,-0.707607 0.29938,-1.251919 0.30844,-0.544313 0.83461,-0.852757 0.53524,-0.317516 1.19749,-0.317516 0.67132,0 1.18841,0.308444 0.52617,0.299372 0.82554,0.852757 0.29938,0.544313 0.29938,1.260991 0,0.04536 -0.009,0.09979 0,0.04536 0,0.09979 h -4.14585 v -0.480809 h 3.80111 l -0.25401,0.190509 q 0,-0.517097 -0.2268,-0.91626 -0.21772,-0.408234 -0.59874,-0.635031 -0.38102,-0.226797 -0.87997,-0.226797 -0.48988,0 -0.87997,0.226797 -0.3901,0.226797 -0.60782,0.635031 -0.21773,0.408235 -0.21773,0.934404 v 0.09979 q 0,0.544313 0.23587,0.961619 0.24494,0.408235 0.67132,0.644104 0.43545,0.226797 0.98884,0.226797 0.43545,0 0.80739,-0.154222 0.38102,-0.154222 0.65318,-0.471738 l 0.36287,0.417306 q -0.31751,0.381019 -0.79832,0.580601 -0.47174,0.199581 -1.04327,0.199581 z"
         style="font-family:Montserrat;-inkscape-font-specification:Montserrat"
         id="path26299" />
      <path
         d="m 160.56375,82.960429 q -0.68039,0 -1.22471,-0.308444 -0.53524,-0.308444 -0.84368,-0.852757 -0.30845,-0.553384 -0.30845,-1.270063 0,-0.72575 0.30845,-1.270063 0.30844,-0.544313 0.84368,-0.843685 0.54432,-0.308444 1.22471,-0.308444 0.62596,0 1.11584,0.281228 0.49895,0.281229 0.78925,0.825541 0.29937,0.535241 0.29937,1.315423 0,0.77111 -0.2903,1.315423 -0.2903,0.544313 -0.78925,0.834613 -0.48988,0.281228 -1.12491,0.281228 z m 0.0454,-0.571528 q 0.50802,0 0.90718,-0.226797 0.40824,-0.235869 0.63504,-0.653176 0.23587,-0.426378 0.23587,-0.979763 0,-0.562457 -0.23587,-0.979763 -0.2268,-0.417307 -0.63504,-0.644104 -0.39916,-0.235868 -0.90718,-0.235868 -0.49896,0 -0.89812,0.235868 -0.39916,0.226797 -0.63503,0.644104 -0.23587,0.417306 -0.23587,0.979763 0,0.553385 0.23587,0.979763 0.23587,0.417307 0.63503,0.653176 0.39916,0.226797 0.89812,0.226797 z m 1.79623,0.526169 v -1.433358 l 0.0635,-0.961619 -0.0907,-0.961619 v -3.37474 h 0.64411 v 6.731336 z"
         style="font-family:Montserrat;-inkscape-font-specification:Montserrat"
         id="path26301" />
    </g>
    <g
       aria-label="Persisted"
       id="text3268-6-6"
       style="font-size:9.07188px;line-height:1.25;font-family:Montserrat;-inkscape-font-specification:Montserrat;text-align:center;text-anchor:middle;stroke-width:0.212623">
      <path
         d="m 189.92644,82.91507 v -6.350317 h 2.37683 q 0.8074,0 1.388,0.263085 0.5806,0.254013 0.88905,0.743894 0.31751,0.48081 0.31751,1.170273 0,0.671319 -0.31751,1.1612 -0.30845,0.48081 -0.88905,0.743894 -0.5806,0.263085 -1.388,0.263085 h -2.00488 l 0.29937,-0.317516 v 2.322402 z m 0.67132,-2.267971 -0.29937,-0.326587 h 1.98674 q 0.95255,0 1.44243,-0.408235 0.49895,-0.417306 0.49895,-1.170272 0,-0.762038 -0.49895,-1.179345 -0.48988,-0.417306 -1.44243,-0.417306 h -1.98674 l 0.29937,-0.317516 z"
         id="path26266" />
      <path
         d="m 198.21024,82.960429 q -0.74389,0 -1.30635,-0.308444 -0.56245,-0.317516 -0.87997,-0.861829 -0.31751,-0.553384 -0.31751,-1.260991 0,-0.707607 0.29937,-1.251919 0.30844,-0.544313 0.83461,-0.852757 0.53524,-0.317516 1.19749,-0.317516 0.67132,0 1.18841,0.308444 0.52617,0.299372 0.82555,0.852757 0.29937,0.544313 0.29937,1.260991 0,0.04536 -0.009,0.09979 0,0.04536 0,0.09979 h -4.14585 v -0.480809 h 3.80111 l -0.25401,0.190509 q 0,-0.517097 -0.22679,-0.91626 -0.21773,-0.408234 -0.59875,-0.635031 -0.38102,-0.226797 -0.87997,-0.226797 -0.48988,0 -0.87997,0.226797 -0.39009,0.226797 -0.60782,0.635031 -0.21772,0.408235 -0.21772,0.934404 v 0.09979 q 0,0.544313 0.23586,0.961619 0.24494,0.408235 0.67132,0.644104 0.43545,0.226797 0.98884,0.226797 0.43545,0 0.8074,-0.154222 0.38101,-0.154222 0.65317,-0.471738 l 0.36288,0.417306 q -0.31752,0.381019 -0.79833,0.580601 -0.47174,0.199581 -1.04327,0.199581 z"
         id="path26268" />
      <path
         d="m 201.66661,82.91507 v -4.762738 h 0.61689 v 1.297279 L 202.22,79.222814 q 0.19958,-0.544313 0.67132,-0.825541 0.47174,-0.2903 1.17027,-0.2903 v 0.62596 q -0.0363,0 -0.0726,0 -0.0363,-0.0091 -0.0726,-0.0091 -0.75297,0 -1.17934,0.462666 -0.42638,0.453594 -0.42638,1.297279 v 2.431264 z"
         id="path26270" />
      <path
         d="m 206.56389,82.960429 q -0.58967,0 -1.11584,-0.163294 -0.52617,-0.172366 -0.82554,-0.426378 l 0.2903,-0.508026 q 0.2903,0.217726 0.74389,0.381019 0.4536,0.154222 0.95255,0.154222 0.68039,0 0.97976,-0.208653 0.29938,-0.217725 0.29938,-0.571528 0,-0.263085 -0.17237,-0.408235 -0.16329,-0.154222 -0.43545,-0.226797 -0.27216,-0.08165 -0.60782,-0.136078 -0.33566,-0.05443 -0.67132,-0.127006 -0.32658,-0.07258 -0.59874,-0.208654 -0.27216,-0.14515 -0.44452,-0.390091 -0.1633,-0.24494 -0.1633,-0.653175 0,-0.390091 0.21773,-0.698535 0.21772,-0.308444 0.63503,-0.480809 0.42638,-0.181438 1.0342,-0.181438 0.46266,0 0.92533,0.127006 0.46266,0.117935 0.76204,0.317516 l -0.28123,0.517097 q -0.31752,-0.217725 -0.68039,-0.308444 -0.36288,-0.09979 -0.72575,-0.09979 -0.64411,0 -0.95255,0.226797 -0.29937,0.217725 -0.29937,0.562456 0,0.272157 0.16329,0.426379 0.17237,0.154222 0.44452,0.24494 0.28123,0.08165 0.60782,0.136079 0.33566,0.05443 0.66225,0.136078 0.33565,0.07258 0.60781,0.208653 0.28123,0.127006 0.44452,0.371947 0.17237,0.235869 0.17237,0.62596 0,0.417306 -0.23587,0.72575 -0.2268,0.299372 -0.67132,0.471738 -0.43545,0.163294 -1.06141,0.163294 z"
         id="path26272" />
      <path
         d="m 209.71182,82.91507 v -4.762738 h 0.64411 v 4.762738 z m 0.32659,-5.815076 q -0.19958,0 -0.33566,-0.136078 -0.13608,-0.136078 -0.13608,-0.326588 0,-0.190509 0.13608,-0.317515 0.13608,-0.136079 0.33566,-0.136079 0.19958,0 0.33566,0.127007 0.13608,0.127006 0.13608,0.317516 0,0.199581 -0.13608,0.335659 -0.127,0.136078 -0.33566,0.136078 z"
         id="path26274" />
      <path
         d="m 213.43129,82.960429 q -0.58968,0 -1.11584,-0.163294 -0.52617,-0.172366 -0.82555,-0.426378 l 0.2903,-0.508026 q 0.2903,0.217726 0.7439,0.381019 0.45359,0.154222 0.95255,0.154222 0.68039,0 0.97976,-0.208653 0.29937,-0.217725 0.29937,-0.571528 0,-0.263085 -0.17236,-0.408235 -0.1633,-0.154222 -0.43546,-0.226797 -0.27215,-0.08165 -0.60781,-0.136078 -0.33566,-0.05443 -0.67132,-0.127006 -0.32659,-0.07258 -0.59874,-0.208654 -0.27216,-0.14515 -0.44453,-0.390091 -0.16329,-0.24494 -0.16329,-0.653175 0,-0.390091 0.21772,-0.698535 0.21773,-0.308444 0.63504,-0.480809 0.42637,-0.181438 1.03419,-0.181438 0.46267,0 0.92533,0.127006 0.46267,0.117935 0.76204,0.317516 l -0.28123,0.517097 q -0.31751,-0.217725 -0.68039,-0.308444 -0.36287,-0.09979 -0.72575,-0.09979 -0.6441,0 -0.95255,0.226797 -0.29937,0.217725 -0.29937,0.562456 0,0.272157 0.1633,0.426379 0.17236,0.154222 0.44452,0.24494 0.28123,0.08165 0.60781,0.136079 0.33566,0.05443 0.66225,0.136078 0.33566,0.07258 0.60782,0.208653 0.28122,0.127006 0.44452,0.371947 0.17236,0.235869 0.17236,0.62596 0,0.417306 -0.23586,0.72575 -0.2268,0.299372 -0.67132,0.471738 -0.43545,0.163294 -1.06141,0.163294 z"
         id="path26276" />
      <path
         d="m 218.08515,82.960429 q -0.67132,0 -1.03419,-0.362875 -0.36288,-0.362875 -0.36288,-1.025123 v -4.472437 h 0.64411 v 4.43615 q 0,0.417306 0.20865,0.644103 0.21772,0.226797 0.61689,0.226797 0.42638,0 0.7076,-0.24494 l 0.2268,0.462665 q -0.19051,0.172366 -0.46267,0.254013 -0.26308,0.08165 -0.54431,0.08165 z m -2.24982,-4.272856 v -0.535241 h 2.94836 v 0.535241 z"
         id="path26278" />
      <path
         d="m 222.11425,82.960429 q -0.74389,0 -1.30635,-0.308444 -0.56245,-0.317516 -0.87997,-0.861829 -0.31751,-0.553384 -0.31751,-1.260991 0,-0.707607 0.29937,-1.251919 0.30844,-0.544313 0.83461,-0.852757 0.53524,-0.317516 1.19749,-0.317516 0.67132,0 1.18841,0.308444 0.52617,0.299372 0.82555,0.852757 0.29937,0.544313 0.29937,1.260991 0,0.04536 -0.009,0.09979 0,0.04536 0,0.09979 h -4.14585 v -0.480809 h 3.80111 l -0.25401,0.190509 q 0,-0.517097 -0.2268,-0.91626 -0.21772,-0.408234 -0.59874,-0.635031 -0.38102,-0.226797 -0.87997,-0.226797 -0.48988,0 -0.87997,0.226797 -0.39009,0.226797 -0.60782,0.635031 -0.21773,0.408235 -0.21773,0.934404 v 0.09979 q 0,0.544313 0.23587,0.961619 0.24494,0.408235 0.67132,0.644104 0.43545,0.226797 0.98884,0.226797 0.43545,0 0.8074,-0.154222 0.38101,-0.154222 0.65317,-0.471738 l 0.36288,0.417306 q -0.31752,0.381019 -0.79833,0.580601 -0.47174,0.199581 -1.04327,0.199581 z"
         id="path26280" />
      <path
         d="m 227.46664,82.960429 q -0.68039,0 -1.2247,-0.308444 -0.53524,-0.308444 -0.84368,-0.852757 -0.30845,-0.553384 -0.30845,-1.270063 0,-0.72575 0.30845,-1.270063 0.30844,-0.544313 0.84368,-0.843685 0.54431,-0.308444 1.2247,-0.308444 0.62596,0 1.11585,0.281228 0.49895,0.281229 0.78925,0.825541 0.29937,0.535241 0.29937,1.315423 0,0.77111 -0.2903,1.315423 -0.2903,0.544313 -0.78925,0.834613 -0.48988,0.281228 -1.12492,0.281228 z m 0.0454,-0.571528 q 0.50803,0 0.90719,-0.226797 0.40824,-0.235869 0.63503,-0.653176 0.23587,-0.426378 0.23587,-0.979763 0,-0.562457 -0.23587,-0.979763 -0.22679,-0.417307 -0.63503,-0.644104 -0.39916,-0.235868 -0.90719,-0.235868 -0.49895,0 -0.89811,0.235868 -0.39916,0.226797 -0.63503,0.644104 -0.23587,0.417306 -0.23587,0.979763 0,0.553385 0.23587,0.979763 0.23587,0.417307 0.63503,0.653176 0.39916,0.226797 0.89811,0.226797 z m 1.79624,0.526169 v -1.433358 l 0.0635,-0.961619 -0.0907,-0.961619 v -3.37474 h 0.6441 v 6.731336 z"
         id="path26282" />
    </g>
    <g
       aria-label="Unstable"
       id="text3268-6-6-3"
       style="font-size:9.07188px;line-height:1.25;text-align:center;text-anchor:middle;stroke-width:0.212623">
      <path
         d="m 253.32919,82.969501 q -1.21564,0 -1.91417,-0.698535 -0.69854,-0.698535 -0.69854,-2.068389 v -3.637824 h 0.67132 v 3.610609 q 0,1.124913 0.50803,1.660154 0.50802,0.535241 1.43336,0.535241 0.9344,0 1.44242,-0.535241 0.50803,-0.535241 0.50803,-1.660154 v -3.610609 h 0.65318 v 3.637824 q 0,1.369854 -0.69854,2.068389 -0.68946,0.698535 -1.90509,0.698535 z"
         style="font-family:Montserrat;-inkscape-font-specification:Montserrat"
         id="path26249" />
      <path
         d="m 260.25103,78.106973 q 0.5806,0 1.01605,0.226797 0.44452,0.217725 0.68946,0.671319 0.25402,0.453594 0.25402,1.143057 v 2.766924 h -0.64411 v -2.703421 q 0,-0.752966 -0.38102,-1.133985 -0.37194,-0.390091 -1.05234,-0.390091 -0.50802,0 -0.88904,0.208654 -0.37195,0.199581 -0.5806,0.589672 -0.19958,0.381019 -0.19958,0.925332 v 2.503839 h -0.64411 v -4.762738 h 0.61689 v 1.306351 l -0.0998,-0.244941 q 0.2268,-0.517097 0.72575,-0.807397 0.49896,-0.299372 1.18842,-0.299372 z"
         style="font-family:Montserrat;-inkscape-font-specification:Montserrat"
         id="path26251" />
      <path
         d="m 265.23148,82.960429 q -0.58967,0 -1.11584,-0.163294 -0.52617,-0.172366 -0.82554,-0.426378 l 0.2903,-0.508026 q 0.2903,0.217726 0.74389,0.381019 0.4536,0.154222 0.95255,0.154222 0.68039,0 0.97976,-0.208653 0.29937,-0.217725 0.29937,-0.571528 0,-0.263085 -0.17236,-0.408235 -0.1633,-0.154222 -0.43545,-0.226797 -0.27216,-0.08165 -0.60782,-0.136078 -0.33566,-0.05443 -0.67132,-0.127006 -0.32658,-0.07258 -0.59874,-0.208654 -0.27216,-0.14515 -0.44452,-0.390091 -0.1633,-0.24494 -0.1633,-0.653175 0,-0.390091 0.21773,-0.698535 0.21772,-0.308444 0.63503,-0.480809 0.42638,-0.181438 1.03419,-0.181438 0.46267,0 0.92534,0.127006 0.46266,0.117935 0.76203,0.317516 l -0.28122,0.517097 q -0.31752,-0.217725 -0.6804,-0.308444 -0.36287,-0.09979 -0.72575,-0.09979 -0.6441,0 -0.95254,0.226797 -0.29938,0.217725 -0.29938,0.562456 0,0.272157 0.1633,0.426379 0.17236,0.154222 0.44452,0.24494 0.28123,0.08165 0.60782,0.136079 0.33566,0.05443 0.66224,0.136078 0.33566,0.07258 0.60782,0.208653 0.28123,0.127006 0.44452,0.371947 0.17237,0.235869 0.17237,0.62596 0,0.417306 -0.23587,0.72575 -0.2268,0.299372 -0.67132,0.471738 -0.43545,0.163294 -1.06141,0.163294 z"
         style="font-family:Montserrat;-inkscape-font-specification:Montserrat"
         id="path26253" />
      <path
         d="m 269.88535,82.960429 q -0.67132,0 -1.0342,-0.362875 -0.36287,-0.362875 -0.36287,-1.025123 v -4.472437 h 0.6441 v 4.43615 q 0,0.417306 0.20865,0.644103 0.21773,0.226797 0.61689,0.226797 0.42638,0 0.70761,-0.24494 l 0.22679,0.462665 q -0.19051,0.172366 -0.46266,0.254013 -0.26309,0.08165 -0.54431,0.08165 z m -2.24983,-4.272856 v -0.535241 h 2.94836 v 0.535241 z"
         style="font-family:Montserrat;-inkscape-font-specification:Montserrat"
         id="path26255" />
      <path
         d="m 275.04723,82.91507 v -1.052339 l -0.0272,-0.172365 v -1.759945 q 0,-0.607816 -0.34473,-0.934404 -0.33566,-0.326587 -1.00698,-0.326587 -0.46266,0 -0.87997,0.154222 -0.41731,0.154222 -0.70761,0.408234 l -0.2903,-0.480809 q 0.36288,-0.308444 0.8709,-0.471738 0.50803,-0.172366 1.07049,-0.172366 0.92533,0 1.42428,0.462666 0.50803,0.453594 0.50803,1.387998 v 2.957433 z m -1.64201,0.04536 q -0.53524,0 -0.93441,-0.172366 -0.39009,-0.181437 -0.59874,-0.489881 -0.20865,-0.317516 -0.20865,-0.725751 0,-0.371947 0.17236,-0.671319 0.18144,-0.308444 0.5806,-0.489881 0.40824,-0.19051 1.08863,-0.19051 h 1.64201 v 0.48081 h -1.62387 q -0.68946,0 -0.96162,0.244941 -0.26308,0.24494 -0.26308,0.607816 0,0.408234 0.31751,0.653175 0.31752,0.244941 0.88905,0.244941 0.54431,0 0.9344,-0.244941 0.39916,-0.254013 0.5806,-0.725751 l 0.14515,0.444523 q -0.18144,0.471737 -0.63503,0.752966 -0.44452,0.281228 -1.12491,0.281228 z"
         style="font-family:Montserrat;-inkscape-font-specification:Montserrat"
         id="path26257" />
      <path
         d="m 279.87345,82.960429 q -0.62596,0 -1.12491,-0.281228 -0.49895,-0.2903 -0.78925,-0.834613 -0.2903,-0.544313 -0.2903,-1.315423 0,-0.780182 0.2903,-1.315423 0.29937,-0.544312 0.79832,-0.825541 0.49896,-0.281228 1.11584,-0.281228 0.68039,0 1.21564,0.308444 0.54431,0.299372 0.85275,0.843685 0.30845,0.544313 0.30845,1.270063 0,0.716679 -0.30845,1.270063 -0.30844,0.544313 -0.85275,0.852757 -0.53525,0.308444 -1.21564,0.308444 z m -2.45848,-0.04536 v -6.731336 h 0.64411 v 3.37474 l -0.0907,0.961619 0.0635,0.961619 v 1.433358 z m 2.41312,-0.526169 q 0.50803,0 0.90719,-0.226797 0.39916,-0.235869 0.63503,-0.653176 0.23587,-0.426378 0.23587,-0.979763 0,-0.562457 -0.23587,-0.979763 -0.23587,-0.417307 -0.63503,-0.644104 -0.39916,-0.235868 -0.90719,-0.235868 -0.50802,0 -0.91626,0.235868 -0.39916,0.226797 -0.63503,0.644104 -0.22679,0.417306 -0.22679,0.979763 0,0.553385 0.22679,0.979763 0.23587,0.417307 0.63503,0.653176 0.40824,0.226797 0.91626,0.226797 z"
         style="font-family:Montserrat;-inkscape-font-specification:Montserrat"
         id="path26259" />
      <path
         d="m 283.5657,82.91507 v -6.731336 h 0.64411 v 6.731336 z"
         style="font-family:Montserrat;-inkscape-font-specification:Montserrat"
         id="path26261" />
      <path
         d="m 288.02906,82.960429 q -0.74389,0 -1.30635,-0.308444 -0.56246,-0.317516 -0.87997,-0.861829 -0.31752,-0.553384 -0.31752,-1.260991 0,-0.707607 0.29937,-1.251919 0.30845,-0.544313 0.83462,-0.852757 0.53524,-0.317516 1.19748,-0.317516 0.67132,0 1.18842,0.308444 0.52617,0.299372 0.82554,0.852757 0.29937,0.544313 0.29937,1.260991 0,0.04536 -0.009,0.09979 0,0.04536 0,0.09979 h -4.14585 v -0.480809 h 3.80112 l -0.25401,0.190509 q 0,-0.517097 -0.2268,-0.91626 -0.21772,-0.408234 -0.59874,-0.635031 -0.38102,-0.226797 -0.87998,-0.226797 -0.48988,0 -0.87997,0.226797 -0.39009,0.226797 -0.60781,0.635031 -0.21773,0.408235 -0.21773,0.934404 v 0.09979 q 0,0.544313 0.23587,0.961619 0.24494,0.408235 0.67132,0.644104 0.43545,0.226797 0.98883,0.226797 0.43545,0 0.8074,-0.154222 0.38102,-0.154222 0.65318,-0.471738 l 0.36287,0.417306 q -0.31751,0.381019 -0.79832,0.580601 -0.47174,0.199581 -1.04327,0.199581 z"
         style="font-family:Montserrat;-inkscape-font-specification:Montserrat"
         id="path26263" />
    </g>
    <g
       id="path18738"
       transform="translate(0,32.672839)">
      <path
         style="color:#000000;fill:#000000;-inkscape-stroke:none"
         d="m 302.39453,31.169922 v 0.566406 h 9.95703 v -0.566406 z"
         id="path3955" />
      <g
         id="g3945">
        <g
           id="path3947">
          <path
             style="color:#000000;fill:#000000;fill-rule:evenodd;stroke-width:0.212623;stroke-linejoin:round;-inkscape-stroke:none"
             d="m 305.36132,32.825947 -3.71695,-1.366817 3.71695,-1.366817 c -0.59382,0.806968 -0.59039,1.91104 0,2.733634 z"
             id="path3951" />
          <path
             style="color:#000000;fill:#000000;fill-rule:evenodd;stroke-linejoin:round;-inkscape-stroke:none"
             d="m 305.32422,29.992187 -3.7168,1.367188 a 0.10632213,0.10632213 0 0 0 0,0.199219 l 3.7168,1.367187 a 0.10632213,0.10632213 0 0 0 0.12305,-0.162109 c -0.56423,-0.786143 -0.56627,-1.837895 0,-2.607422 a 0.10632213,0.10632213 0 0 0 -0.12305,-0.164063 z m -0.125,0.273438 c -0.43226,0.744469 -0.43051,1.632308 0,2.386719 l -3.2461,-1.19336 z"
             id="path3953" />
        </g>
      </g>
    </g>
  </g>
  <g
     inkscape:groupmode="layer"
     id="layer3"
     inkscape:label="Слой 2">
    <rect
       style="fill:none;stroke:#2a74ff;stroke-width:0.705556;stroke-linecap:round;stop-color:#000000"
       id="rect28158"
       width="277.81259"
       height="119.0625"
       x="0.35277805"
       y="132.64444"
       rx="2.6458344" />
  </g>
</svg>
