<?xml version="1.0" encoding="UTF-8" standalone="no"?>
<!-- Created with Inkscape (http://www.inkscape.org/) -->

<svg
   width="1050"
   height="345"
   viewBox="0 0 277.8125 91.28125"
   version="1.1"
   id="svg5"
   inkscape:version="1.1.2 (0a00cf5339, 2022-02-04)"
   sodipodi:docname="raft-terms.svg"
   xmlns:inkscape="http://www.inkscape.org/namespaces/inkscape"
   xmlns:sodipodi="http://sodipodi.sourceforge.net/DTD/sodipodi-0.dtd"
   xmlns="http://www.w3.org/2000/svg"
   xmlns:svg="http://www.w3.org/2000/svg">
  <sodipodi:namedview
     id="namedview7"
     pagecolor="#ffffff"
     bordercolor="#666666"
     borderopacity="1.0"
     inkscape:pageshadow="2"
     inkscape:pageopacity="0.0"
     inkscape:pagecheckerboard="true"
     inkscape:document-units="px"
     showgrid="false"
     units="px"
     inkscape:zoom="0.83762816"
     inkscape:cx="459.03423"
     inkscape:cy="179.674"
     inkscape:window-width="1846"
     inkscape:window-height="1016"
     inkscape:window-x="74"
     inkscape:window-y="27"
     inkscape:window-maximized="1"
     inkscape:current-layer="layer1"
     borderlayer="true"
     showborder="true"
     inkscape:showpageshadow="true"
     showguides="true"
     inkscape:guide-bbox="true"
     inkscape:snap-object-midpoints="false"
     inkscape:snap-center="true"
     inkscape:snap-text-baseline="true"
     inkscape:object-paths="true" />
  <defs
     id="defs2">
    <clipPath
       clipPathUnits="userSpaceOnUse"
       id="clipPath1734">
      <path
         d="M 0,0.028 H 595.275 V 841.889 H 0 Z"
         clip-rule="evenodd"
         id="path1732" />
    </clipPath>
    <clipPath
       clipPathUnits="userSpaceOnUse"
       id="clipPath5199">
      <path
         d="M 0,0.028 H 595.275 V 841.889 H 0 Z"
         clip-rule="evenodd"
         id="path5197" />
    </clipPath>
    <clipPath
       clipPathUnits="userSpaceOnUse"
       id="clipPath6407">
      <path
         d="M 0,0.028 H 595.275 V 841.889 H 0 Z"
         clip-rule="evenodd"
         id="path6405" />
    </clipPath>
    <clipPath
       clipPathUnits="userSpaceOnUse"
       id="clipPath1022">
      <path
         d="M 0,0.028 H 595.275 V 841.889 H 0 Z"
         clip-rule="evenodd"
         id="path1020" />
    </clipPath>
  </defs>
  <g
     inkscape:label="Layer 1"
     inkscape:groupmode="layer"
     id="layer1">
    <g
       id="g4282"
       transform="matrix(0.26622329,0,0,-0.26622329,67.62184,207.1386)">
      <g
         id="g15429"
         transform="matrix(1.3257112,0,0,1.3257112,13.808449,499.28562)" />
      <path
         d="M 39.453008,688.25781 H 78.317564 V 633.54172 H 39.453008 Z"
         style="fill:#58a0da;fill-opacity:1;fill-rule:nonzero;stroke:#000000;stroke-width:1.32644;stroke-miterlimit:4;stroke-dasharray:none;stroke-opacity:1"
         id="path15435" />
      <path
         d="M 78.230065,688.25781 H 154.96621 V 633.54172 H 78.230065 Z"
         style="fill:#bdffc4;fill-opacity:1;fill-rule:nonzero;stroke:#000000;stroke-width:1.32644;stroke-miterlimit:4;stroke-dasharray:none;stroke-opacity:1"
         id="path15437" />
      <path
         d="M 191.04012,688.25781 H 338.56661 V 633.54172 H 191.04012 Z"
         style="fill:#bdffc4;fill-opacity:1;fill-rule:nonzero;stroke:#000000;stroke-width:1.32644;stroke-miterlimit:4;stroke-dasharray:none;stroke-opacity:1"
         id="path15439" />
      <path
         d="m 163.97177,688.25781 h 27.12006 v -54.71609 h -27.12006 z"
         style="fill:#58a0da;fill-opacity:1;fill-rule:nonzero;stroke:#000000;stroke-width:1.32644;stroke-miterlimit:4;stroke-dasharray:none;stroke-opacity:1"
         id="path15441" />
      <path
         d="m 347.48865,688.25781 h 36.9078 v -54.71609 h -36.9078 z"
         style="fill:#58a0da;fill-opacity:1;fill-rule:nonzero;stroke:#000000;stroke-width:1.32644;stroke-miterlimit:4;stroke-dasharray:none;stroke-opacity:1"
         id="path15443" />
      <path
         d="M 430.42912,688.25781 H 550.84081 V 633.54172 H 430.42912 Z"
         style="fill:#bdffc4;fill-opacity:1;fill-rule:nonzero;stroke:#000000;stroke-width:1.32644;stroke-miterlimit:4;stroke-dasharray:none;stroke-opacity:1"
         id="path15445" />
      <path
         d="m 394.28758,688.25781 h 36.14685 v -54.71609 h -36.14685 z"
         style="fill:#58a0da;fill-opacity:1;fill-rule:nonzero;stroke:#000000;stroke-width:1.32644;stroke-miterlimit:4;stroke-dasharray:none;stroke-opacity:1"
         id="path15447" />
      <path
         style="fill:none;stroke:#000000;stroke-width:1.32512;stroke-linecap:butt;stroke-linejoin:miter;stroke-miterlimit:4;stroke-dasharray:none;stroke-opacity:1"
         d="M 571.02079,611.9777 H 29.457209"
         id="path7839" />
      <path
         style="fill:none;stroke:#000000;stroke-width:1.32512;stroke-linecap:butt;stroke-linejoin:miter;stroke-miterlimit:4;stroke-dasharray:none;stroke-opacity:1"
         d="m 25.846459,574.50941 c 15.639796,0 31.674948,1.72313 31.674948,59.03231"
         id="path12583"
         sodipodi:nodetypes="cc" />
      <g
         aria-label="выборы"
         transform="scale(1,-1)"
         id="text2746-9"
         style="font-size:21.2019px;line-height:1.25;font-family:Montserrat;-inkscape-font-specification:Montserrat;text-align:center;text-anchor:middle;stroke-width:0.993839">
        <path
           d="m -68.6596,-570.18561 v -11.131 h 4.918841 q 1.88697,0 2.968266,0.72087 1.102499,0.72086 1.102499,2.12019 0,1.35692 -1.038893,2.09899 -1.038893,0.72086 -2.735045,0.72086 l 0.296827,-0.44524 q 1.992978,0 2.925862,0.74207 0.932883,0.74206 0.932883,2.14139 0,1.44173 -1.060095,2.2474 -1.038893,0.78447 -3.24389,0.78447 z m 1.462932,-1.1873 h 3.540717 q 1.420527,0 2.141392,-0.44524 0.742066,-0.46645 0.742066,-1.48414 0,-1.01769 -0.657258,-1.48413 -0.657259,-0.46644 -2.077787,-0.46644 h -3.68913 z m 0,-5.00365 h 3.3499 q 1.293316,0 1.971777,-0.48765 0.699662,-0.48764 0.699662,-1.42052 0,-0.93289 -0.699662,-1.39933 -0.678461,-0.46644 -1.971777,-0.46644 h -3.3499 z"
           id="path32568" />
        <path
           d="m -44.913476,-570.18561 v -11.131 h 1.505335 v 11.131 z m -6.169753,-7.20864 q 2.098989,0.0212 3.201487,0.93288 1.102499,0.91168 1.102499,2.62904 0,1.78095 -1.187306,2.73504 -1.187307,0.95409 -3.392304,0.93288 l -4.409996,-0.0212 v -11.131 h 1.505335 v 3.87995 z m -0.381634,6.08494 q 1.568941,0.0212 2.353411,-0.61485 0.805672,-0.65726 0.805672,-1.90817 0,-1.25092 -0.78447,-1.82337 -0.78447,-0.59365 -2.374613,-0.61485 l -2.798651,-0.0424 v 4.96125 z"
           id="path32570" />
        <path
           d="m -34.121712,-570.0584 q -1.356922,0 -2.417017,-0.44524 -1.038893,-0.44524 -1.780959,-1.35692 -0.742067,-0.91168 -1.123701,-2.2474 -0.381634,-1.35692 -0.381634,-3.13788 0,-1.59014 0.296826,-2.77745 0.296827,-1.20851 0.826874,-2.07779 0.530048,-0.86927 1.229711,-1.46293 0.720864,-0.61485 1.547738,-0.97528 0.848076,-0.38164 1.738556,-0.57246 l 5.003649,-1.1661 0.254422,1.39933 -4.706821,1.06009 q -0.44524,0.10601 -1.081297,0.29683 -0.614856,0.19081 -1.272114,0.57245 -0.636057,0.38163 -1.187307,1.06009 -0.551249,0.67846 -0.89048,1.75976 -0.318028,1.0601 -0.318028,2.65024 0,0.33923 0.0212,0.55125 0.0212,0.19081 0.0424,0.42404 0.0424,0.21201 0.06361,0.63605 l -0.657259,-0.55125 q 0.233221,-1.29331 0.954086,-2.2474 0.720864,-0.97529 1.802161,-1.50533 1.102499,-0.55125 2.438219,-0.55125 1.547739,0 2.756247,0.67846 1.208508,0.65726 1.886969,1.84456 0.699663,1.18731 0.699663,2.75625 0,1.54774 -0.720865,2.77745 -0.699662,1.22971 -1.992978,1.92937 -1.293316,0.67846 -3.031871,0.67846 z m 0.169615,-1.25091 q 1.187306,0 2.098988,-0.53005 0.911682,-0.55125 1.420527,-1.48413 0.530048,-0.93288 0.530048,-2.09899 0,-1.1449 -0.530048,-2.03538 -0.508845,-0.89048 -1.420527,-1.39933 -0.911682,-0.53004 -2.12019,-0.53004 -1.187306,0 -2.098988,0.50884 -0.911682,0.48765 -1.441729,1.37813 -0.508846,0.89048 -0.508846,2.05658 0,1.16611 0.508846,2.09899 0.530047,0.93288 1.441729,1.48413 0.932884,0.55125 2.12019,0.55125 z"
           id="path32572" />
        <path
           d="m -20.573729,-570.0796 q -1.611345,0 -2.90466,-0.72086 -1.272114,-0.74207 -2.014181,-2.01418 -0.742067,-1.29332 -0.742067,-2.94707 0,-1.67495 0.742067,-2.94706 0.742067,-1.27212 2.014181,-1.99298 1.272114,-0.72087 2.90466,-0.72087 1.653748,0 2.925862,0.72087 1.293316,0.72086 2.014181,1.99298 0.742066,1.27211 0.742066,2.94706 0,1.65375 -0.742066,2.94707 -0.720865,1.27211 -2.014181,2.01418 -1.293316,0.72086 -2.925862,0.72086 z m 0,-1.33572 q 1.208508,0 2.141392,-0.53005 0.932883,-0.55125 1.462931,-1.52653 0.551249,-0.99649 0.551249,-2.28981 0,-1.31452 -0.551249,-2.2898 -0.530048,-0.97529 -1.462931,-1.50534 -0.932884,-0.55125 -2.12019,-0.55125 -1.187307,0 -2.12019,0.55125 -0.932884,0.53005 -1.484133,1.50534 -0.55125,0.97528 -0.55125,2.2898 0,1.29332 0.55125,2.28981 0.551249,0.97528 1.484133,1.52653 0.932883,0.53005 2.098988,0.53005 z"
           id="path32574" />
        <path
           d="m -5.9232229,-570.0796 q -1.4417292,0 -2.6078337,-0.65726 -1.1661045,-0.67846 -1.8657674,-1.92937 -0.678461,-1.27211 -0.678461,-3.09548 0,-1.82336 0.678461,-3.07427 0.678461,-1.27212 1.8445655,-1.92938 1.1661045,-0.65726 2.6290356,-0.65726 1.5901426,0 2.8410547,0.72087 1.272114,0.69966 1.9929786,1.99298 0.72086466,1.27211 0.72086466,2.94706 0,1.69615 -0.72086466,2.96827 -0.7208646,1.27211 -1.9929786,1.99298 -1.2509121,0.72086 -2.8410547,0.72086 z m -5.7457151,4.00716 v -15.24417 h 1.441729 v 3.3499 l -0.148413,2.2262 0.212019,2.24741 v 7.42066 z m 5.6397056,-5.34288 q 1.1873065,0 2.1201901,-0.53005 0.9328836,-0.55125 1.484133,-1.52653 0.5512494,-0.99649 0.5512494,-2.28981 0,-1.29331 -0.5512494,-2.2686 -0.5512494,-0.97529 -1.484133,-1.52654 -0.9328836,-0.55125 -2.1201901,-0.55125 -1.1873064,0 -2.1413919,0.55125 -0.9328836,0.55125 -1.484133,1.52654 -0.5300477,0.97529 -0.5300477,2.2686 0,1.29332 0.5300477,2.28981 0.5512494,0.97528 1.484133,1.52653 0.9540855,0.53005 2.1413919,0.53005 z"
           id="path32576" />
        <path
           d="m 13.730915,-570.18561 v -11.131 h 1.505334 v 11.131 z m -6.1697535,-7.20864 q 2.0989881,0.0212 3.2014865,0.93288 1.102499,0.91168 1.102499,2.62904 0,1.78095 -1.187306,2.73504 -1.1873066,0.95409 -3.3923042,0.93288 l -4.4099953,-0.0212 v -11.131 h 1.5053349 v 3.87995 z m -0.3816342,6.08494 q 1.5689406,0.0212 2.3534109,-0.61485 0.8056718,-0.65726 0.8056718,-1.90817 0,-1.25092 -0.7844699,-1.82337 -0.7844703,-0.59365 -2.3746128,-0.61485 l -2.7986509,-0.0424 v 4.96125 z"
           id="path32578" />
      </g>
      <g
         aria-label="нормальная работа"
         transform="scale(1,-1)"
         id="text2746-9-2"
         style="font-size:21.2019px;line-height:1.25;font-family:Montserrat;-inkscape-font-specification:Montserrat;text-align:center;text-anchor:middle;stroke-width:0.993839">
        <path
           d="m -141.48102,-512.00818 v -11.131 h 1.50534 v 4.91884 h 7.01783 v -4.91884 h 1.50533 v 11.131 h -1.50533 v -4.91884 h -7.01783 v 4.91884 z"
           id="path32581" />
        <path
           d="m -122.59014,-511.90217 q -1.61134,0 -2.90466,-0.72086 -1.27211,-0.74207 -2.01418,-2.01418 -0.74207,-1.29332 -0.74207,-2.94707 0,-1.67495 0.74207,-2.94706 0.74207,-1.27212 2.01418,-1.99298 1.27211,-0.72087 2.90466,-0.72087 1.65375,0 2.92586,0.72087 1.29332,0.72086 2.01418,1.99298 0.74207,1.27211 0.74207,2.94706 0,1.65375 -0.74207,2.94707 -0.72086,1.27211 -2.01418,2.01418 -1.29331,0.72086 -2.92586,0.72086 z m 0,-1.33572 q 1.20851,0 2.14139,-0.53005 0.93289,-0.55125 1.46293,-1.52653 0.55125,-0.99649 0.55125,-2.28981 0,-1.31452 -0.55125,-2.2898 -0.53004,-0.97529 -1.46293,-1.50534 -0.93288,-0.55125 -2.12019,-0.55125 -1.1873,0 -2.12019,0.55125 -0.93288,0.53005 -1.48413,1.50534 -0.55125,0.97528 -0.55125,2.2898 0,1.29332 0.55125,2.28981 0.55125,0.97528 1.48413,1.52653 0.93289,0.53005 2.09899,0.53005 z"
           id="path32583" />
        <path
           d="m -107.93963,-511.90217 q -1.44173,0 -2.60784,-0.65726 -1.1661,-0.67846 -1.86576,-1.92937 -0.67846,-1.27212 -0.67846,-3.09548 0,-1.82336 0.67846,-3.07427 0.67846,-1.27212 1.84456,-1.92938 1.16611,-0.65726 2.62904,-0.65726 1.59014,0 2.84105,0.72087 1.27212,0.69966 1.99298,1.99298 0.72087,1.27211 0.72087,2.94706 0,1.69615 -0.72087,2.96827 -0.72086,1.27211 -1.99298,1.99298 -1.25091,0.72086 -2.84105,0.72086 z m -5.74572,4.00716 v -15.24417 h 1.44173 v 3.3499 l -0.14841,2.2262 0.21202,2.2474 v 7.42067 z m 5.63971,-5.34288 q 1.1873,0 2.12019,-0.53005 0.93288,-0.55125 1.48413,-1.52653 0.55125,-0.99649 0.55125,-2.28981 0,-1.29331 -0.55125,-2.2686 -0.55125,-0.97529 -1.48413,-1.52654 -0.93289,-0.55125 -2.12019,-0.55125 -1.18731,0 -2.14139,0.55125 -0.93289,0.55125 -1.48414,1.52654 -0.53004,0.97529 -0.53004,2.2686 0,1.29332 0.53004,2.28981 0.55125,0.97528 1.48414,1.52653 0.95408,0.53005 2.14139,0.53005 z"
           id="path32585" />
        <path
           d="m -99.140868,-512.00818 v -11.131 h 1.526537 l 5.046052,8.54437 h -0.636057 l 5.13086,-8.54437 h 1.399326 v 11.131 h -1.378124 v -9.41364 l 0.275625,0.12721 -4.79163,7.92951 h -0.678461 l -4.834033,-8.01432 0.318029,-0.0636 v 9.43484 z"
           id="path32587" />
        <path
           d="m -75.479567,-512.00818 v -2.45942 l -0.06361,-0.40284 v -4.11316 q 0,-1.42053 -0.805672,-2.1838 -0.78447,-0.76327 -2.353411,-0.76327 -1.081297,0 -2.056584,0.36043 -0.975288,0.36044 -1.653749,0.95409 l -0.67846,-1.1237 q 0.848076,-0.72087 2.035382,-1.1025 1.187306,-0.40284 2.501824,-0.40284 2.162594,0 3.328699,1.0813 1.187306,1.0601 1.187306,3.24389 v 6.91182 z m -3.837544,0.10601 q -1.250912,0 -2.183796,-0.40284 -0.911682,-0.42403 -1.399325,-1.1449 -0.487644,-0.74206 -0.487644,-1.69615 0,-0.86928 0.402836,-1.56894 0.424038,-0.72087 1.356922,-1.1449 0.954085,-0.44524 2.544228,-0.44524 h 3.837544 v 1.1237 h -3.79514 q -1.611345,0 -2.247402,0.57245 -0.614855,0.57245 -0.614855,1.42053 0,0.95408 0.742066,1.52653 0.742067,0.57245 2.077787,0.57245 1.272114,0 2.183795,-0.57245 0.932884,-0.59365 1.356922,-1.69615 l 0.339231,1.03889 q -0.424038,1.1025 -1.484134,1.75976 -1.038893,0.65726 -2.629035,0.65726 z"
           id="path32589" />
        <path
           d="m -72.066097,-512.02938 0.106009,-1.29332 q 0.148414,0.0212 0.275625,0.0636 0.148413,0.0212 0.254423,0.0212 0.678461,0 1.081297,-0.50884 0.424038,-0.50885 0.636057,-1.35693 0.212019,-0.84807 0.296826,-1.90817 0.08481,-1.08129 0.148414,-2.16259 l 0.190817,-3.96476 h 8.162731 v 11.131 h -1.505334 v -10.26172 l 0.381634,0.44524 h -6.063744 l 0.360433,-0.46644 -0.169616,3.22269 q -0.0636,1.44173 -0.233221,2.75625 -0.148413,1.31451 -0.487643,2.311 -0.318029,0.99649 -0.89048,1.56894 -0.572451,0.55125 -1.462931,0.55125 -0.254423,0 -0.530048,-0.0424 -0.254423,-0.0424 -0.551249,-0.10601 z"
           id="path32591" />
        <path
           d="m -51.839488,-519.21682 q 2.098988,0.0212 3.180285,0.93288 1.102499,0.91168 1.102499,2.62903 0,1.78096 -1.187307,2.73505 -1.166104,0.95409 -3.392304,0.93288 l -4.494803,-0.0212 v -11.131 h 1.505335 v 3.87995 z m -0.381634,6.08494 q 1.547738,0.0212 2.332209,-0.61485 0.805672,-0.65726 0.805672,-1.90818 0,-1.25091 -0.78447,-1.82336 -0.784471,-0.59365 -2.353411,-0.61485 l -2.904661,-0.0424 v 4.96125 z"
           id="path32593" />
        <path
           d="m -44.694449,-512.00818 v -11.131 h 1.505335 v 4.91884 h 7.017829 v -4.91884 h 1.505335 v 11.131 h -1.505335 v -4.91884 h -7.017829 v 4.91884 z"
           id="path32595" />
        <path
           d="m -23.471366,-512.00818 v -2.45942 l -0.0636,-0.40284 v -4.11316 q 0,-1.42053 -0.805673,-2.1838 -0.78447,-0.76327 -2.35341,-0.76327 -1.081297,0 -2.056585,0.36043 -0.975287,0.36044 -1.653748,0.95409 l -0.678461,-1.1237 q 0.848076,-0.72087 2.035383,-1.1025 1.187306,-0.40284 2.501824,-0.40284 2.162594,0 3.328698,1.0813 1.187307,1.0601 1.187307,3.24389 v 6.91182 z m -3.837544,0.10601 q -1.250912,0 -2.183795,-0.40284 -0.911682,-0.42403 -1.399326,-1.1449 -0.487643,-0.74206 -0.487643,-1.69615 0,-0.86928 0.402836,-1.56894 0.424038,-0.72087 1.356921,-1.1449 0.954086,-0.44524 2.544228,-0.44524 h 3.837544 v 1.1237 h -3.79514 q -1.611344,0 -2.247401,0.57245 -0.614855,0.57245 -0.614855,1.42053 0,0.95408 0.742066,1.52653 0.742067,0.57245 2.077786,0.57245 1.272114,0 2.183796,-0.57245 0.932884,-0.59365 1.356922,-1.69615 l 0.33923,1.03889 q -0.424038,1.1025 -1.484133,1.75976 -1.038893,0.65726 -2.629036,0.65726 z"
           id="path32597" />
        <path
           d="m -10.835069,-512.00818 v -4.00716 l 0.275625,0.31803 h -3.773938 q -2.141392,0 -3.349901,-0.93288 -1.208508,-0.93289 -1.208508,-2.71385 0,-1.90817 1.293316,-2.84105 1.293316,-0.95409 3.45591,-0.95409 h 4.6856196 v 11.131 z m -8.14153,0 3.053074,-4.28278 h 1.568941 l -2.989468,4.28278 z m 8.14153,-4.4524 v -5.80932 l 0.275625,0.44524 h -3.540718 q -1.547738,0 -2.417016,0.59365 -0.848076,0.59366 -0.848076,1.92938 0,2.48062 3.159083,2.48062 h 3.646727 z"
           id="path32599" />
        <path
           d="m 6.1264078,-511.90217 q -1.4417293,0 -2.6078338,-0.65726 -1.1661045,-0.67846 -1.8657672,-1.92937 -0.67846086,-1.27212 -0.67846086,-3.09548 0,-1.82336 0.67846086,-3.07427 0.6784608,-1.27212 1.8445653,-1.92938 1.1661045,-0.65726 2.6290357,-0.65726 1.5901425,0 2.8410546,0.72087 1.2721136,0.69966 1.9929786,1.99298 0.720865,1.27211 0.720865,2.94706 0,1.69615 -0.720865,2.96827 -0.720865,1.27211 -1.9929786,1.99298 -1.2509121,0.72086 -2.8410546,0.72086 z m -5.74571507,4.00716 v -15.24417 H 1.822422 v 3.3499 l -0.1484133,2.2262 0.212019,2.2474 v 7.42067 z m 5.63970557,-5.34288 q 1.1873064,0 2.12019,-0.53005 0.9328836,-0.55125 1.484133,-1.52653 0.5512497,-0.99649 0.5512497,-2.28981 0,-1.29331 -0.5512497,-2.2686 -0.5512494,-0.97529 -1.484133,-1.52654 -0.9328836,-0.55125 -2.12019,-0.55125 -1.1873065,0 -2.141392,0.55125 -0.9328836,0.55125 -1.484133,1.52654 -0.5300475,0.97529 -0.5300475,2.2686 0,1.29332 0.5300475,2.28981 0.5512494,0.97528 1.484133,1.52653 0.9540855,0.53005 2.141392,0.53005 z"
           id="path32601" />
        <path
           d="m 21.76494,-512.00818 v -2.45942 l -0.06361,-0.40284 v -4.11316 q 0,-1.42053 -0.805672,-2.1838 -0.784471,-0.76327 -2.353411,-0.76327 -1.081297,0 -2.056585,0.36043 -0.975287,0.36044 -1.653748,0.95409 l -0.678461,-1.1237 q 0.848076,-0.72087 2.035383,-1.1025 1.187306,-0.40284 2.501824,-0.40284 2.162594,0 3.328698,1.0813 1.187307,1.0601 1.187307,3.24389 v 6.91182 z m -3.837544,0.10601 q -1.250912,0 -2.183796,-0.40284 -0.911682,-0.42403 -1.399326,-1.1449 -0.487643,-0.74206 -0.487643,-1.69615 0,-0.86928 0.402836,-1.56894 0.424038,-0.72087 1.356922,-1.1449 0.954085,-0.44524 2.544228,-0.44524 h 3.837544 v 1.1237 H 18.20302 q -1.611344,0 -2.247401,0.57245 -0.614855,0.57245 -0.614855,1.42053 0,0.95408 0.742066,1.52653 0.742067,0.57245 2.077787,0.57245 1.272114,0 2.183795,-0.57245 0.932884,-0.59365 1.356922,-1.69615 l 0.33923,1.03889 q -0.424038,1.1025 -1.484133,1.75976 -1.038893,0.65726 -2.629035,0.65726 z"
           id="path32603" />
        <path
           d="m 32.217441,-511.88097 q -1.356922,0 -2.417017,-0.44524 -1.038893,-0.44524 -1.78096,-1.35692 -0.742066,-0.91168 -1.1237,-2.2474 -0.381635,-1.35692 -0.381635,-3.13788 0,-1.59014 0.296827,-2.77745 0.296827,-1.20851 0.826874,-2.07779 0.530048,-0.86927 1.22971,-1.46293 0.720865,-0.61485 1.547739,-0.97529 0.848076,-0.38163 1.738556,-0.57245 l 5.003648,-1.1661 0.254423,1.39932 -4.706822,1.0601 q -0.44524,0.10601 -1.081297,0.29683 -0.614855,0.19081 -1.272114,0.57245 -0.636057,0.38163 -1.187306,1.06009 -0.551249,0.67846 -0.89048,1.75976 -0.318028,1.06009 -0.318028,2.65024 0,0.33923 0.0212,0.55125 0.0212,0.19081 0.0424,0.42403 0.0424,0.21202 0.06361,0.63606 l -0.657259,-0.55125 q 0.233221,-1.29331 0.954086,-2.2474 0.720864,-0.97529 1.802161,-1.50533 1.102499,-0.55125 2.438219,-0.55125 1.547738,0 2.756247,0.67846 1.208508,0.65726 1.886969,1.84456 0.699663,1.18731 0.699663,2.75625 0,1.54774 -0.720865,2.77745 -0.699663,1.22971 -1.992979,1.92937 -1.293316,0.67846 -3.03187,0.67846 z m 0.169615,-1.25091 q 1.187306,0 2.098988,-0.53005 0.911682,-0.55125 1.420527,-1.48413 0.530048,-0.93288 0.530048,-2.09899 0,-1.1449 -0.530048,-2.03538 -0.508845,-0.89048 -1.420527,-1.39933 -0.911682,-0.53004 -2.12019,-0.53004 -1.187307,0 -2.098988,0.50884 -0.911682,0.48765 -1.441729,1.37813 -0.508846,0.89048 -0.508846,2.05658 0,1.1661 0.508846,2.09899 0.530047,0.93288 1.441729,1.48413 0.932883,0.55125 2.12019,0.55125 z"
           id="path32605" />
        <path
           d="m 45.765418,-511.90217 q -1.611344,0 -2.90466,-0.72086 -1.272114,-0.74207 -2.014181,-2.01418 -0.742066,-1.29332 -0.742066,-2.94707 0,-1.67495 0.742066,-2.94706 0.742067,-1.27212 2.014181,-1.99298 1.272114,-0.72087 2.90466,-0.72087 1.653748,0 2.925862,0.72087 1.293316,0.72086 2.014181,1.99298 0.742066,1.27211 0.742066,2.94706 0,1.65375 -0.742066,2.94707 -0.720865,1.27211 -2.014181,2.01418 -1.293316,0.72086 -2.925862,0.72086 z m 0,-1.33572 q 1.208508,0 2.141392,-0.53005 0.932884,-0.55125 1.462931,-1.52653 0.551249,-0.99649 0.551249,-2.28981 0,-1.31452 -0.551249,-2.2898 -0.530047,-0.97529 -1.462931,-1.50534 -0.932884,-0.55125 -2.12019,-0.55125 -1.187307,0 -2.12019,0.55125 -0.932884,0.53005 -1.484133,1.50534 -0.55125,0.97528 -0.55125,2.2898 0,1.29332 0.55125,2.28981 0.551249,0.97528 1.484133,1.52653 0.932883,0.53005 2.098988,0.53005 z"
           id="path32607" />
        <path
           d="m 56.366346,-512.00818 v -10.21931 l 0.381634,0.40283 h -4.600812 v -1.31452 h 9.943691 v 1.31452 h -4.600812 l 0.381634,-0.40283 v 10.21931 z"
           id="path32609" />
        <path
           d="m 71.186464,-512.00818 v -2.45942 l -0.06361,-0.40284 v -4.11316 q 0,-1.42053 -0.805672,-2.1838 -0.784471,-0.76327 -2.353411,-0.76327 -1.081297,0 -2.056585,0.36043 -0.975287,0.36044 -1.653748,0.95409 l -0.678461,-1.1237 q 0.848076,-0.72087 2.035383,-1.1025 1.187306,-0.40284 2.501824,-0.40284 2.162594,0 3.328699,1.0813 1.187306,1.0601 1.187306,3.24389 v 6.91182 z m -3.837544,0.10601 q -1.250912,0 -2.183796,-0.40284 -0.911682,-0.42403 -1.399325,-1.1449 -0.487644,-0.74206 -0.487644,-1.69615 0,-0.86928 0.402836,-1.56894 0.424038,-0.72087 1.356922,-1.1449 0.954085,-0.44524 2.544228,-0.44524 h 3.837544 v 1.1237 h -3.795141 q -1.611344,0 -2.247401,0.57245 -0.614855,0.57245 -0.614855,1.42053 0,0.95408 0.742066,1.52653 0.742067,0.57245 2.077787,0.57245 1.272114,0 2.183795,-0.57245 0.932884,-0.59365 1.356922,-1.69615 l 0.33923,1.03889 q -0.424038,1.1025 -1.484133,1.75976 -1.038893,0.65726 -2.629035,0.65726 z"
           id="path32611" />
      </g>
      <path
         style="color:#000000;display:inline;fill:#000000;fill-rule:evenodd;stroke-width:3.75626;-inkscape-stroke:none"
         d="m 565.97861,606.93279 17.66359,5.04491 -17.66359,5.0522 5.04218,-5.0522 z"
         id="path85908-5"
         inkscape:transform-center-x="2.3512305"
         inkscape:transform-center-y="-0.00096895779" />
      <path
         style="color:#000000;display:inline;fill:#000000;fill-rule:evenodd;stroke-width:3.75626;-inkscape-stroke:none"
         d="m 124.40164,615.85584 -4.96619,17.68588 -5.13082,-17.64091 5.0746,5.01963 z"
         id="path85908-5-0"
         inkscape:transform-center-x="0.021912486"
         inkscape:transform-center-y="2.354198" />
      <path
         style="color:#000000;display:inline;fill:#000000;fill-rule:evenodd;stroke-width:3.75626;-inkscape-stroke:none"
         d="m 62.152631,615.76517 -4.631219,17.77654 -5.46314,-17.54084 5.168522,4.92287 z"
         id="path85908-5-9"
         inkscape:transform-center-x="0.11073696"
         inkscape:transform-center-y="2.3662659" />
      <path
         style="fill:none;stroke:#000000;stroke-width:1.32512;stroke-linecap:butt;stroke-linejoin:miter;stroke-miterlimit:4;stroke-dasharray:none;stroke-opacity:1"
         d="m 85.152392,517.58454 c 31.847168,0 34.283048,62.05832 34.283048,115.95718"
         id="path29292"
         sodipodi:nodetypes="cc" />
      <g
         aria-label="term 1"
         transform="scale(1,-1)"
         id="text2746"
         style="font-size:21.2019px;line-height:1.25;font-family:Montserrat;-inkscape-font-specification:Montserrat;text-align:center;text-anchor:middle;stroke-width:0.99384">
        <path
           d="m 67.571604,-702.02198 q -1.56894,0 -2.417016,-0.84808 -0.848076,-0.84807 -0.848076,-2.39581 v -10.45254 h 1.505335 v 10.36773 q 0,0.97529 0.487643,1.50534 0.508846,0.53004 1.44173,0.53004 0.996489,0 1.653748,-0.57245 l 0.530047,1.0813 q -0.445239,0.40283 -1.081297,0.59365 -0.614855,0.19082 -1.272114,0.19082 z m -5.258071,-9.9861 v -1.25091 h 6.890618 v 1.25091 z"
           id="path32614" />
        <path
           d="m 76.98802,-702.02198 q -1.738555,0 -3.053073,-0.72087 -1.314518,-0.74206 -2.056585,-2.01418 -0.742066,-1.29331 -0.742066,-2.94706 0,-1.65375 0.699663,-2.92586 0.720864,-1.27212 1.950574,-1.99298 1.250913,-0.74207 2.798651,-0.74207 1.568941,0 2.777449,0.72087 1.229711,0.69966 1.929373,1.99298 0.699663,1.27211 0.699663,2.94706 0,0.10601 -0.0212,0.23322 0,0.10601 0,0.23322 h -9.689268 v -1.1237 h 8.883596 l -0.593653,0.44524 q 0,-1.20851 -0.530048,-2.14139 -0.508845,-0.95409 -1.399325,-1.48413 -0.89048,-0.53005 -2.056585,-0.53005 -1.144902,0 -2.056584,0.53005 -0.911682,0.53004 -1.420527,1.48413 -0.508846,0.95408 -0.508846,2.18379 v 0.23323 q 0,1.27211 0.551249,2.2474 0.572452,0.95408 1.568941,1.50533 1.017691,0.53005 2.311007,0.53005 1.017691,0 1.886969,-0.36043 0.89048,-0.36044 1.526537,-1.1025 l 0.848076,0.97529 q -0.742066,0.89048 -1.865767,1.35692 -1.102499,0.46644 -2.438219,0.46644 z"
           id="path32616" />
        <path
           d="m 85.065906,-702.12799 v -11.131 h 1.441729 v 3.03187 l -0.148413,-0.53004 q 0.466442,-1.27212 1.56894,-1.92938 1.102499,-0.67846 2.735046,-0.67846 v 1.46293 q -0.08481,0 -0.169616,0 -0.08481,-0.0212 -0.169615,-0.0212 -1.759758,0 -2.756247,1.0813 -0.996489,1.06009 -0.996489,3.03187 v 5.68211 z"
           id="path32618" />
        <path
           d="m 107.31231,-713.365 q 1.35692,0 2.35341,0.53005 1.01769,0.50885 1.56894,1.56894 0.57245,1.0601 0.57245,2.67144 v 6.46658 h -1.50533 v -6.31817 q 0,-1.75975 -0.84808,-2.65023 -0.82687,-0.91169 -2.35341,-0.91169 -1.1449,0 -1.99298,0.48765 -0.82687,0.46644 -1.29331,1.37812 -0.44524,0.89048 -0.44524,2.16259 v 5.85173 h -1.50534 v -6.31817 q 0,-1.75975 -0.84807,-2.65023 -0.84808,-0.91169 -2.374615,-0.91169 -1.123701,0 -1.971777,0.48765 -0.848076,0.46644 -1.314518,1.37812 -0.44524,0.89048 -0.44524,2.16259 v 5.85173 h -1.505335 v -11.131 h 1.441729 v 3.01067 l -0.233221,-0.53005 q 0.508846,-1.2085 1.632547,-1.88697 1.144902,-0.69966 2.692641,-0.69966 1.632549,0 2.777449,0.82688 1.1449,0.80567 1.48413,2.43821 l -0.59365,-0.23322 q 0.48764,-1.35692 1.71735,-2.18379 1.25092,-0.84808 2.98947,-0.84808 z"
           id="path32620" />
        <path
           d="m 123.04408,-702.12799 v -14.20527 l 0.67846,0.72086 h -4.17677 v -1.35692 h 5.02485 v 14.84133 z"
           id="path32622" />
      </g>
      <g
         aria-label="term 2"
         transform="scale(1,-1)"
         id="text2746-3"
         style="font-size:21.2019px;line-height:1.25;font-family:Montserrat;-inkscape-font-specification:Montserrat;text-align:center;text-anchor:middle;stroke-width:0.99384">
        <path
           d="m 225.35092,-702.02198 q -1.56894,0 -2.41702,-0.84808 -0.84808,-0.84807 -0.84808,-2.39581 v -10.45254 h 1.50534 v 10.36773 q 0,0.97529 0.48764,1.50534 0.50885,0.53004 1.44173,0.53004 0.99649,0 1.65375,-0.57245 l 0.53005,1.0813 q -0.44524,0.40283 -1.0813,0.59365 -0.61485,0.19082 -1.27211,0.19082 z m -5.25807,-9.9861 v -1.25091 h 6.89061 v 1.25091 z"
           id="path32625" />
        <path
           d="m 234.76733,-702.02198 q -1.73855,0 -3.05307,-0.72087 -1.31452,-0.74206 -2.05659,-2.01418 -0.74206,-1.29331 -0.74206,-2.94706 0,-1.65375 0.69966,-2.92586 0.72087,-1.27212 1.95058,-1.99298 1.25091,-0.74207 2.79865,-0.74207 1.56894,0 2.77745,0.72087 1.22971,0.69966 1.92937,1.99298 0.69966,1.27211 0.69966,2.94706 0,0.10601 -0.0212,0.23322 0,0.10601 0,0.23322 h -9.68927 v -1.1237 h 8.8836 l -0.59366,0.44524 q 0,-1.20851 -0.53004,-2.14139 -0.50885,-0.95409 -1.39933,-1.48413 -0.89048,-0.53005 -2.05658,-0.53005 -1.14491,0 -2.05659,0.53005 -0.91168,0.53004 -1.42053,1.48413 -0.50884,0.95408 -0.50884,2.18379 v 0.23323 q 0,1.27211 0.55125,2.2474 0.57245,0.95408 1.56894,1.50533 1.01769,0.53005 2.31101,0.53005 1.01769,0 1.88697,-0.36043 0.89048,-0.36044 1.52653,-1.1025 l 0.84808,0.97529 q -0.74207,0.89048 -1.86577,1.35692 -1.1025,0.46644 -2.43822,0.46644 z"
           id="path32627" />
        <path
           d="m 242.84522,-702.12799 v -11.131 h 1.44173 v 3.03187 l -0.14842,-0.53004 q 0.46645,-1.27212 1.56894,-1.92938 1.1025,-0.67846 2.73505,-0.67846 v 1.46293 q -0.0848,0 -0.16962,0 -0.0848,-0.0212 -0.16961,-0.0212 -1.75976,0 -2.75625,1.0813 -0.99649,1.06009 -0.99649,3.03187 v 5.68211 z"
           id="path32629" />
        <path
           d="m 265.09162,-713.365 q 1.35693,0 2.35342,0.53005 1.01769,0.50885 1.56894,1.56894 0.57245,1.0601 0.57245,2.67144 v 6.46658 h -1.50534 v -6.31817 q 0,-1.75975 -0.84807,-2.65023 -0.82688,-0.91169 -2.35341,-0.91169 -1.14491,0 -1.99298,0.48765 -0.82688,0.46644 -1.29332,1.37812 -0.44524,0.89048 -0.44524,2.16259 v 5.85173 h -1.50533 v -6.31817 q 0,-1.75975 -0.84808,-2.65023 -0.84808,-0.91169 -2.37461,-0.91169 -1.1237,0 -1.97178,0.48765 -0.84808,0.46644 -1.31452,1.37812 -0.44524,0.89048 -0.44524,2.16259 v 5.85173 h -1.50533 v -11.131 h 1.44173 v 3.01067 l -0.23322,-0.53005 q 0.50884,-1.2085 1.63254,-1.88697 1.1449,-0.69966 2.69264,-0.69966 1.63255,0 2.77745,0.82688 1.1449,0.80567 1.48414,2.43821 l -0.59366,-0.23322 q 0.48765,-1.35692 1.71736,-2.18379 1.25091,-0.84808 2.98946,-0.84808 z"
           id="path32631" />
        <path
           d="m 277.96114,-702.12799 v -1.0813 l 6.16975,-6.04254 q 0.84808,-0.82687 1.27212,-1.44173 0.42403,-0.63606 0.57245,-1.1873 0.14841,-0.55125 0.14841,-1.0389 0,-1.29331 -0.89048,-2.03538 -0.86928,-0.74207 -2.58663,-0.74207 -1.31452,0 -2.33221,0.40284 -0.99649,0.40284 -1.71735,1.25091 l -1.0813,-0.93288 q 0.86928,-1.01769 2.2262,-1.56894 1.35692,-0.55125 3.03187,-0.55125 1.50534,0 2.60783,0.48764 1.1025,0.46644 1.69616,1.37812 0.61485,0.91169 0.61485,2.1414 0,0.72086 -0.21202,1.42052 -0.19081,0.69967 -0.72086,1.48414 -0.50885,0.76327 -1.50534,1.73855 l -5.6609,5.5549 -0.42404,-0.59365 h 9.20162 v 1.35692 z"
           id="path32633" />
      </g>
      <g
         aria-label="t3"
         transform="scale(1,-1)"
         id="text2746-7"
         style="font-size:21.2019px;line-height:1.25;font-family:Montserrat;-inkscape-font-specification:Montserrat;text-align:center;text-anchor:middle;stroke-width:0.99384">
        <path
           d="m 360.59837,-702.02198 q -1.56894,0 -2.41702,-0.84808 -0.84808,-0.84807 -0.84808,-2.39581 v -10.45254 h 1.50534 v 10.36773 q 0,0.97529 0.48764,1.50534 0.50885,0.53004 1.44173,0.53004 0.99649,0 1.65375,-0.57245 l 0.53005,1.0813 q -0.44524,0.40283 -1.0813,0.59365 -0.61486,0.19082 -1.27211,0.19082 z m -5.25808,-9.9861 v -1.25091 h 6.89062 v 1.25091 z"
           id="path32636" />
        <path
           d="m 369.12149,-702.00078 q -1.61134,0 -3.05307,-0.50884 -1.42053,-0.53005 -2.28981,-1.39933 l 0.74207,-1.20851 q 0.72086,0.74207 1.92937,1.22971 1.22971,0.48765 2.67144,0.48765 1.84457,0 2.81985,-0.80568 0.99649,-0.80567 0.99649,-2.16259 0,-1.35692 -0.97528,-2.16259 -0.95409,-0.80568 -3.03187,-0.80568 h -1.0601 v -1.1237 l 4.57961,-5.74571 0.21202,0.59365 h -8.26874 v -1.35692 h 9.54085 v 1.0813 l -4.57961,5.74571 -0.74206,-0.48764 h 0.57245 q 2.67144,0 3.98596,1.1873 1.33571,1.18731 1.33571,3.05308 0,1.25091 -0.59365,2.2474 -0.59365,0.99649 -1.80216,1.56894 -1.18731,0.57245 -2.98947,0.57245 z"
           id="path32638" />
      </g>
      <g
         aria-label="term 4"
         transform="scale(1,-1)"
         id="text2746-35"
         style="font-size:21.2019px;line-height:1.25;font-family:Montserrat;-inkscape-font-specification:Montserrat;text-align:center;text-anchor:middle;stroke-width:0.99384">
        <path
           d="m 441.80706,-702.02198 q -1.56894,0 -2.41702,-0.84808 -0.84808,-0.84807 -0.84808,-2.39581 v -10.45254 h 1.50534 v 10.36773 q 0,0.97529 0.48764,1.50534 0.50885,0.53004 1.44173,0.53004 0.99649,0 1.65375,-0.57245 l 0.53005,1.0813 q -0.44524,0.40283 -1.0813,0.59365 -0.61486,0.19082 -1.27211,0.19082 z m -5.25808,-9.9861 v -1.25091 h 6.89062 v 1.25091 z"
           id="path32641" />
        <path
           d="m 451.22347,-702.02198 q -1.73855,0 -3.05307,-0.72087 -1.31452,-0.74206 -2.05659,-2.01418 -0.74206,-1.29331 -0.74206,-2.94706 0,-1.65375 0.69966,-2.92586 0.72086,-1.27212 1.95057,-1.99298 1.25092,-0.74207 2.79866,-0.74207 1.56894,0 2.77744,0.72087 1.22971,0.69966 1.92938,1.99298 0.69966,1.27211 0.69966,2.94706 0,0.10601 -0.0212,0.23322 0,0.10601 0,0.23322 h -9.68927 v -1.1237 h 8.8836 l -0.59366,0.44524 q 0,-1.20851 -0.53004,-2.14139 -0.50885,-0.95409 -1.39933,-1.48413 -0.89048,-0.53005 -2.05658,-0.53005 -1.14491,0 -2.05659,0.53005 -0.91168,0.53004 -1.42053,1.48413 -0.50884,0.95408 -0.50884,2.18379 v 0.23323 q 0,1.27211 0.55125,2.2474 0.57245,0.95408 1.56894,1.50533 1.01769,0.53005 2.31101,0.53005 1.01769,0 1.88696,-0.36043 0.89048,-0.36044 1.52654,-1.1025 l 0.84808,0.97529 q -0.74207,0.89048 -1.86577,1.35692 -1.1025,0.46644 -2.43822,0.46644 z"
           id="path32643" />
        <path
           d="m 459.30136,-702.12799 v -11.131 h 1.44173 v 3.03187 l -0.14842,-0.53004 q 0.46644,-1.27212 1.56894,-1.92938 1.1025,-0.67846 2.73505,-0.67846 v 1.46293 q -0.0848,0 -0.16962,0 -0.0848,-0.0212 -0.16961,-0.0212 -1.75976,0 -2.75625,1.0813 -0.99649,1.06009 -0.99649,3.03187 v 5.68211 z"
           id="path32645" />
        <path
           d="m 481.54776,-713.365 q 1.35692,0 2.35341,0.53005 1.0177,0.50885 1.56894,1.56894 0.57246,1.0601 0.57246,2.67144 v 6.46658 h -1.50534 v -6.31817 q 0,-1.75975 -0.84807,-2.65023 -0.82688,-0.91169 -2.35342,-0.91169 -1.1449,0 -1.99297,0.48765 -0.82688,0.46644 -1.29332,1.37812 -0.44524,0.89048 -0.44524,2.16259 v 5.85173 h -1.50534 v -6.31817 q 0,-1.75975 -0.84807,-2.65023 -0.84808,-0.91169 -2.37461,-0.91169 -1.1237,0 -1.97178,0.48765 -0.84808,0.46644 -1.31452,1.37812 -0.44524,0.89048 -0.44524,2.16259 v 5.85173 h -1.50533 v -11.131 h 1.44173 v 3.01067 l -0.23323,-0.53005 q 0.50885,-1.2085 1.63255,-1.88697 1.1449,-0.69966 2.69264,-0.69966 1.63255,0 2.77745,0.82688 1.1449,0.80567 1.48413,2.43821 l -0.59365,-0.23322 q 0.48765,-1.35692 1.71736,-2.18379 1.25091,-0.84808 2.98946,-0.84808 z"
           id="path32647" />
        <path
           d="m 494.43848,-706.02914 v -1.1025 l 7.8659,-9.83768 h 1.69616 l -7.8023,9.83768 -0.82688,-0.25442 h 11.93667 v 1.35692 z m 8.37475,3.90115 v -3.90115 l 0.0424,-1.35692 v -3.43471 h 1.48414 v 8.69278 z"
           id="path32649" />
      </g>
      <g
         aria-label="terms"
         transform="scale(1,-1)"
         id="text34409"
         style="font-size:21.2019px;line-height:1.25;font-family:Montserrat;-inkscape-font-specification:Montserrat;stroke-width:0.99384">
        <path
           d="m 549.79471,-577.85798 q -1.56894,0 -2.41701,-0.84808 -0.84808,-0.84807 -0.84808,-2.39581 v -10.45254 h 1.50533 v 10.36773 q 0,0.97529 0.48765,1.50534 0.50884,0.53004 1.44173,0.53004 0.99649,0 1.65375,-0.57245 l 0.53004,1.0813 q -0.44524,0.40284 -1.08129,0.59365 -0.61486,0.19082 -1.27212,0.19082 z m -5.25807,-9.98609 v -1.25092 h 6.89062 v 1.25092 z"
           id="path36864" />
        <path
           d="m 559.21113,-577.85798 q -1.73856,0 -3.05308,-0.72086 -1.31451,-0.74207 -2.05658,-2.01418 -0.74207,-1.29332 -0.74207,-2.94707 0,-1.65375 0.69967,-2.92586 0.72086,-1.27212 1.95057,-1.99298 1.25091,-0.74207 2.79865,-0.74207 1.56894,0 2.77745,0.72087 1.22971,0.69966 1.92937,1.99298 0.69967,1.27211 0.69967,2.94706 0,0.10601 -0.0212,0.23322 0,0.10601 0,0.23322 h -9.68926 v -1.1237 h 8.88359 l -0.59365,0.44524 q 0,-1.20851 -0.53005,-2.14139 -0.50884,-0.95409 -1.39932,-1.48413 -0.89048,-0.53005 -2.05659,-0.53005 -1.1449,0 -2.05658,0.53005 -0.91168,0.53004 -1.42053,1.48413 -0.50885,0.95409 -0.50885,2.1838 v 0.23322 q 0,1.27211 0.55125,2.2474 0.57246,0.95408 1.56894,1.50533 1.0177,0.53005 2.31101,0.53005 1.01769,0 1.88697,-0.36043 0.89048,-0.36043 1.52654,-1.1025 l 0.84807,0.97529 q -0.74206,0.89048 -1.86576,1.35692 -1.1025,0.46644 -2.43822,0.46644 z"
           id="path36866" />
        <path
           d="m 567.28901,-577.96399 v -11.131 h 1.44173 v 3.03187 l -0.14841,-0.53004 q 0.46644,-1.27212 1.56894,-1.92938 1.1025,-0.67846 2.73505,-0.67846 v 1.46293 q -0.0848,0 -0.16962,0 -0.0848,-0.0212 -0.16962,-0.0212 -1.75975,0 -2.75624,1.0813 -0.99649,1.06009 -0.99649,3.03187 v 5.68211 z"
           id="path36868" />
        <path
           d="m 589.53542,-589.201 q 1.35692,0 2.35341,0.53005 1.01769,0.50885 1.56894,1.56894 0.57245,1.0601 0.57245,2.67144 v 6.46658 h -1.50533 v -6.31817 q 0,-1.75975 -0.84808,-2.65023 -0.82687,-0.91168 -2.35341,-0.91168 -1.1449,0 -1.99298,0.48764 -0.82687,0.46644 -1.29331,1.37812 -0.44524,0.89048 -0.44524,2.1626 v 5.85172 h -1.50534 v -6.31817 q 0,-1.75975 -0.84807,-2.65023 -0.84808,-0.91168 -2.37462,-0.91168 -1.1237,0 -1.97177,0.48764 -0.84808,0.46644 -1.31452,1.37812 -0.44524,0.89048 -0.44524,2.1626 v 5.85172 h -1.50534 v -11.131 h 1.44173 v 3.01067 l -0.23322,-0.53004 q 0.50885,-1.20851 1.63255,-1.88697 1.1449,-0.69967 2.69264,-0.69967 1.63255,0 2.77745,0.82688 1.1449,0.80567 1.48413,2.43822 l -0.59365,-0.23322 q 0.48764,-1.35693 1.71735,-2.1838 1.25091,-0.84808 2.98947,-0.84808 z"
           id="path36870" />
        <path
           d="m 601.11163,-577.85798 q -1.37812,0 -2.60783,-0.38163 -1.22971,-0.40284 -1.92937,-0.99649 l 0.67846,-1.18731 q 0.67846,0.50885 1.73855,0.89048 1.0601,0.36043 2.2262,0.36043 1.59015,0 2.28981,-0.48764 0.69966,-0.50885 0.69966,-1.33572 0,-0.61486 -0.40283,-0.95409 -0.38164,-0.36043 -1.0177,-0.53004 -0.63605,-0.19082 -1.42052,-0.31803 -0.78447,-0.12721 -1.56894,-0.29683 -0.76327,-0.16961 -1.39933,-0.48764 -0.63606,-0.33923 -1.03889,-0.91168 -0.38164,-0.57246 -0.38164,-1.52654 0,-0.91168 0.50885,-1.63255 0.50884,-0.72086 1.48413,-1.1237 0.99649,-0.42404 2.41702,-0.42404 1.0813,0 2.16259,0.29683 1.0813,0.27562 1.78096,0.74207 l -0.65726,1.2085 q -0.74206,-0.50884 -1.59014,-0.72086 -0.84808,-0.23322 -1.69615,-0.23322 -1.50534,0 -2.2262,0.53005 -0.69966,0.50884 -0.69966,1.31451 0,0.63606 0.38163,0.99649 0.40284,0.36044 1.03889,0.57246 0.65726,0.19081 1.42053,0.31802 0.78447,0.12722 1.54774,0.31803 0.78447,0.16962 1.42053,0.48765 0.65726,0.29682 1.03889,0.86927 0.40284,0.55125 0.40284,1.46294 0,0.97528 -0.55125,1.69615 -0.53005,0.69966 -1.56894,1.1025 -1.01769,0.38163 -2.48063,0.38163 z"
           id="path36872" />
      </g>
    </g>
    <g
       id="g5193"
       transform="matrix(0.35277777,0,0,-0.35277777,168.10312,306.57428)">
      <g
         id="g5195"
         clip-path="url(#clipPath5199)" />
    </g>
  </g>
</svg>
