<?xml version="1.0" encoding="UTF-8" standalone="no"?>
<!-- Created with Inkscape (http://www.inkscape.org/) -->

<svg
   width="1050"
   height="450"
   viewBox="0 0 277.8125 119.0625"
   version="1.1"
   id="svg5"
   inkscape:version="1.1.2 (0a00cf5339, 2022-02-04)"
   sodipodi:docname="raft-1.svg"
   xmlns:inkscape="http://www.inkscape.org/namespaces/inkscape"
   xmlns:sodipodi="http://sodipodi.sourceforge.net/DTD/sodipodi-0.dtd"
   xmlns="http://www.w3.org/2000/svg"
   xmlns:svg="http://www.w3.org/2000/svg">
  <sodipodi:namedview
     id="namedview7"
     pagecolor="#ffffff"
     bordercolor="#666666"
     borderopacity="1.0"
     inkscape:pageshadow="2"
     inkscape:pageopacity="0.0"
     inkscape:pagecheckerboard="true"
     inkscape:document-units="px"
     showgrid="false"
     units="px"
     inkscape:zoom="0.85221133"
     inkscape:cx="456.45955"
     inkscape:cy="300.98168"
     inkscape:window-width="1846"
     inkscape:window-height="1016"
     inkscape:window-x="74"
     inkscape:window-y="27"
     inkscape:window-maximized="1"
     inkscape:current-layer="layer1"
     borderlayer="true"
     showborder="true"
     inkscape:showpageshadow="false"
     showguides="true"
     inkscape:guide-bbox="true"
     inkscape:snap-object-midpoints="false"
     inkscape:snap-center="true" />
  <defs
     id="defs2">
    <clipPath
       clipPathUnits="userSpaceOnUse"
       id="clipPath1734">
      <path
         d="M 0,0.028 H 595.275 V 841.889 H 0 Z"
         clip-rule="evenodd"
         id="path1732" />
    </clipPath>
    <clipPath
       clipPathUnits="userSpaceOnUse"
       id="clipPath5199">
      <path
         d="M 0,0.028 H 595.275 V 841.889 H 0 Z"
         clip-rule="evenodd"
         id="path5197" />
    </clipPath>
    <clipPath
       clipPathUnits="userSpaceOnUse"
       id="clipPath6407">
      <path
         d="M 0,0.028 H 595.275 V 841.889 H 0 Z"
         clip-rule="evenodd"
         id="path6405" />
    </clipPath>
    <clipPath
       clipPathUnits="userSpaceOnUse"
       id="clipPath23707">
      <path
         d="M 0,0.028 H 595.275 V 841.889 H 0 Z"
         clip-rule="evenodd"
         id="path23705" />
    </clipPath>
    <clipPath
       clipPathUnits="userSpaceOnUse"
       id="clipPath24678">
      <path
         d="M 0,0 H 488 V 300 H 0 Z"
         id="path24676" />
    </clipPath>
    <clipPath
       clipPathUnits="userSpaceOnUse"
       id="clipPath24678-7">
      <path
         d="M 0,0 H 488 V 300 H 0 Z"
         id="path24676-5" />
    </clipPath>
  </defs>
  <g
     inkscape:label="Layer 1"
     inkscape:groupmode="layer"
     id="layer1">
    <g
       id="g5193"
       transform="matrix(0.35277777,0,0,-0.35277777,168.10312,306.57428)">
      <g
         id="g5195"
         clip-path="url(#clipPath5199)" />
    </g>
    <g
       id="g24670"
       transform="matrix(0.25737511,0,0,-0.25737506,78.283215,93.221855)">
      <g
         id="g24672">
        <g
           id="g24674" />
        <g
           id="g24896">
          <g
             clip-path="url(#clipPath24678-7)"
             id="g24894">
            <g
               id="g24892">
              <g
                 transform="matrix(1,0,0,-1,0,300)"
                 id="g24682">
                <path
                   d="m 167.988,56.703 h 285.657 c 6.648,0 12,5.352 12,12 v 206.242 c 0,6.649 -5.352,12 -12,12 H 167.988 c -6.648,0 -12,-5.351 -12,-12 V 68.703 c 0,-6.648 5.352,-12 12,-12 z"
                   style="fill:#ffffbf;fill-opacity:1;fill-rule:nonzero;stroke:#000000;stroke-width:2.4;stroke-linecap:butt;stroke-linejoin:miter;stroke-miterlimit:4;stroke-dasharray:none;stroke-opacity:1"
                   id="path24680" />
              </g>
              <g
                 transform="matrix(1,0,0,-1,0,300)"
                 id="g24686">
                <path
                   d="m 161.906,52.449 h 285.66 c 6.645,0 12,5.352 12,12 v 206.242 c 0,6.649 -5.355,12 -12,12 h -285.66 c -6.648,0 -12,-5.351 -12,-12 V 64.449 c 0,-6.648 5.352,-12 12,-12 z"
                   style="fill:#ffffbf;fill-opacity:1;fill-rule:nonzero;stroke:#000000;stroke-width:2.4;stroke-linecap:butt;stroke-linejoin:miter;stroke-miterlimit:4;stroke-dasharray:none;stroke-opacity:1"
                   id="path24684" />
              </g>
              <g
                 transform="matrix(1,0,0,-1,0,300)"
                 id="g24690">
                <path
                   d="m 155.824,48.199 h 285.66 c 6.649,0 12,5.352 12,12 v 206.242 c 0,6.649 -5.351,12 -12,12 h -285.66 c -6.648,0 -12,-5.351 -12,-12 V 60.199 c 0,-6.648 5.352,-12 12,-12 z"
                   style="fill:#ffffbf;fill-opacity:1;fill-rule:nonzero;stroke:#000000;stroke-width:2.4;stroke-linecap:butt;stroke-linejoin:miter;stroke-miterlimit:4;stroke-dasharray:none;stroke-opacity:1"
                   id="path24688" />
              </g>
              <g
                 transform="matrix(1,0,0,-1,0,300)"
                 id="g24694">
                <path
                   d="m 149.746,43.945 h 285.656 c 6.649,0 12,5.352 12,12 v 206.243 c 0,6.648 -5.351,12 -12,12 H 149.746 c -6.648,0 -12,-5.352 -12,-12 V 55.945 c 0,-6.648 5.352,-12 12,-12 z"
                   style="fill:#ffffbf;fill-opacity:1;fill-rule:nonzero;stroke:#000000;stroke-width:2.4;stroke-linecap:butt;stroke-linejoin:miter;stroke-miterlimit:4;stroke-dasharray:none;stroke-opacity:1"
                   id="path24692" />
              </g>
              <g
                 transform="matrix(1,0,0,-0.743537,0,300)"
                 id="g24698">
                <path
                   d="m 143.664,53.382 h 285.66 c 6.649,0 12,7.203 12,16.139 v 277.385 c 0,8.936 -5.351,16.139 -12,16.139 h -285.66 c -6.648,0 -12,-7.203 -12,-16.139 V 69.521 c 0,-8.936 5.352,-16.139 12,-16.139 z"
                   style="fill:#ffffbf;fill-opacity:1;fill-rule:nonzero;stroke:#000000;stroke-width:3.71107;stroke-linecap:butt;stroke-linejoin:miter;stroke-miterlimit:4;stroke-dasharray:none;stroke-opacity:1"
                   id="path24696" />
              </g>
              <path
                 d="m 150.406,243.242 c -0.015,1.969 -1.312,3.078 -3.64,3.078 -2.344,0 -3.86,-1.203 -3.86,-3.062 0,-1.578 0.797,-2.328 3.188,-2.906 l 1.5,-0.36 c 1.109,-0.265 1.547,-0.672 1.547,-1.406 0,-0.938 -0.938,-1.578 -2.344,-1.578 -0.859,0 -1.594,0.25 -2,0.672 -0.25,0.297 -0.359,0.578 -0.453,1.297 h -1.688 c 0.078,-2.329 1.375,-3.438 4.016,-3.438 2.531,0 4.14,1.25 4.14,3.188 0,1.5 -0.843,2.312 -2.843,2.796 l -1.531,0.375 c -1.313,0.297 -1.86,0.719 -1.86,1.438 0,0.922 0.828,1.516 2.125,1.516 1.281,0 1.985,-0.563 2.016,-1.61 z m 11.039,-2.765 c 0,1.531 -0.109,2.453 -0.39,3.203 -0.657,1.656 -2.188,2.64 -4.078,2.64 -2.797,0 -4.61,-2.14 -4.61,-5.453 0,-3.297 1.75,-5.328 4.578,-5.328 2.297,0 3.891,1.297 4.297,3.484 h -1.609 c -0.453,-1.312 -1.344,-2.015 -2.641,-2.015 -1.015,0 -1.875,0.469 -2.422,1.312 -0.375,0.578 -0.515,1.157 -0.531,2.157 z m -7.359,1.296 c 0.125,1.86 1.266,3.079 2.875,3.079 1.578,0 2.781,-1.313 2.781,-2.954 0,-0.046 0,-0.078 -0.015,-0.125 z m 9.531,4.266 v -10.062 h 1.61 v 5.218 c 0,1.438 0.359,2.391 1.14,2.938 0.5,0.375 0.969,0.484 2.094,0.5 v 1.64 c -0.281,0.032 -0.406,0.047 -0.625,0.047 -1.031,0 -1.828,-0.609 -2.75,-2.109 v 1.828 z m 10.555,-10.062 3.859,10.062 h -1.797 l -2.843,-8.156 -2.688,8.156 h -1.812 l 3.531,-10.062 z m 13.973,4.5 c 0,1.531 -0.11,2.453 -0.391,3.203 -0.656,1.656 -2.188,2.64 -4.078,2.64 -2.797,0 -4.61,-2.14 -4.61,-5.453 0,-3.297 1.75,-5.328 4.579,-5.328 2.296,0 3.89,1.297 4.296,3.484 h -1.609 c -0.453,-1.312 -1.344,-2.015 -2.641,-2.015 -1.015,0 -1.875,0.469 -2.421,1.312 -0.375,0.578 -0.516,1.157 -0.532,2.157 z m -7.36,1.296 c 0.125,1.86 1.266,3.079 2.875,3.079 1.578,0 2.781,-1.313 2.781,-2.954 0,-0.046 0,-0.078 -0.015,-0.125 z m 9.531,4.266 v -10.062 h 1.61 v 5.218 c 0,1.438 0.359,2.391 1.14,2.938 0.5,0.375 0.969,0.484 2.094,0.5 v 1.64 c -0.281,0.032 -0.406,0.047 -0.625,0.047 -1.031,0 -1.828,-0.609 -2.75,-2.109 v 1.828 z"
                 style="fill:#000000;fill-opacity:1;fill-rule:nonzero;stroke:none"
                 id="path24700" />
              <g
                 transform="matrix(1,0,0,-1,0,300)"
                 id="g24704">
                <path
                   d="m 162.199,187.996 h 182.922 c 6.649,0 12,5.352 12,12 v 39.594 c 0,6.648 -5.351,12 -12,12 H 162.199 c -6.648,0 -12,-5.352 -12,-12 v -39.594 c 0,-6.648 5.352,-12 12,-12 z"
                   style="fill:#abdda4;fill-opacity:1;fill-rule:nonzero;stroke:#000000;stroke-width:3.2;stroke-linecap:butt;stroke-linejoin:miter;stroke-miterlimit:4;stroke-dasharray:none;stroke-opacity:1"
                   id="path24702" />
              </g>
              <path
                 d="m 160.582,104.191 h -1.609 v -14 h 1.609 z m 6.57,-3.656 c -2.812,0 -4.531,-2.015 -4.531,-5.39 0,-3.375 1.688,-5.391 4.563,-5.391 2.812,0 4.546,2.016 4.546,5.312 0,3.485 -1.671,5.469 -4.578,5.469 z m 0.032,-1.469 c 1.796,0 2.875,-1.484 2.875,-3.984 0,-2.359 -1.11,-3.859 -2.875,-3.859 -1.797,0 -2.891,1.484 -2.891,3.922 0,2.421 1.094,3.921 2.891,3.921 z m 13.343,1.188 v -1.453 c -0.797,1.187 -1.781,1.734 -3.062,1.734 -2.563,0 -4.281,-2.219 -4.281,-5.484 0,-1.656 0.437,-3 1.265,-3.953 0.75,-0.844 1.828,-1.344 2.875,-1.344 1.266,0 2.156,0.531 3.063,1.797 v -0.516 c 0,-1.359 -0.188,-2.187 -0.578,-2.75 -0.422,-0.594 -1.25,-0.937 -2.235,-0.937 -0.734,0 -1.375,0.187 -1.828,0.547 -0.359,0.281 -0.516,0.546 -0.609,1.14 h -1.625 c 0.172,-1.89 1.64,-3.031 4,-3.031 1.5,0 2.797,0.484 3.437,1.281 0.781,0.922 1.063,2.203 1.063,4.563 v 8.406 z m -2.89,-1.188 c 1.718,0 2.75,-1.468 2.75,-3.984 0,-2.391 -1.047,-3.859 -2.735,-3.859 -1.75,0 -2.797,1.484 -2.797,3.922 0,2.421 1.063,3.921 2.782,3.921 z"
                 style="fill:#000000;fill-opacity:1;fill-rule:nonzero;stroke:none"
                 id="path24706" />
              <g
                 transform="matrix(0.531413,0,0,-1,0,300)"
                 id="g24710">
                <path
                   d="m 727.717,249.203 c 0,4.047 -14.76,7.324 -32.968,7.324 -18.207,0 -32.967,-3.277 -32.967,-7.324 0,-4.047 14.76,-7.328 32.967,-7.328 18.208,0 32.968,3.281 32.968,7.328 z"
                   style="fill:#b6883c;fill-opacity:1;fill-rule:nonzero;stroke:#705c2c;stroke-width:1.68837;stroke-linecap:butt;stroke-linejoin:miter;stroke-miterlimit:4;stroke-dasharray:none;stroke-opacity:1"
                   id="path24708" />
              </g>
              <g
                 transform="matrix(0.531413,0,0,-1,0,300)"
                 id="g24714">
                <path
                   d="m 727.717,239.918 c 0,4.047 -14.76,7.328 -32.968,7.328 -18.207,0 -32.967,-3.281 -32.967,-7.328 0,-4.047 14.76,-7.324 32.967,-7.324 18.208,0 32.968,3.277 32.968,7.324 z"
                   style="fill:#b6883c;fill-opacity:1;fill-rule:nonzero;stroke:#705c2c;stroke-width:1.68837;stroke-linecap:butt;stroke-linejoin:miter;stroke-miterlimit:4;stroke-dasharray:none;stroke-opacity:1"
                   id="path24712" />
              </g>
              <g
                 transform="matrix(0.531413,0,0,-1,0,300)"
                 id="g24718">
                <path
                   d="m 727.901,230.633 c 0,4.047 -14.76,7.328 -32.968,7.328 -18.215,0 -32.975,-3.281 -32.975,-7.328 0,-4.043 14.76,-7.324 32.975,-7.324 18.208,0 32.968,3.281 32.968,7.324 z"
                   style="fill:#b6883c;fill-opacity:1;fill-rule:nonzero;stroke:#705c2c;stroke-width:1.68783;stroke-linecap:butt;stroke-linejoin:miter;stroke-miterlimit:4;stroke-dasharray:none;stroke-opacity:1"
                   id="path24716" />
              </g>
              <g
                 transform="matrix(1,0,0,-1,0,300)"
                 id="g24722">
                <path
                   d="m 299.441,51.238 h 115.821 c 6.648,0 12,5.352 12,12 v 87.676 c 0,6.648 -5.352,12 -12,12 H 299.441 c -6.644,0 -12,-5.352 -12,-12 V 63.238 c 0,-6.648 5.356,-12 12,-12 z"
                   style="fill:#abdda4;fill-opacity:1;fill-rule:nonzero;stroke:#000000;stroke-width:3.2;stroke-linecap:butt;stroke-linejoin:miter;stroke-miterlimit:4;stroke-dasharray:none;stroke-opacity:1"
                   id="path24720" />
              </g>
              <path
                 d="m 301.711,235.816 c -0.016,1.969 -1.313,3.079 -3.641,3.079 -2.343,0 -3.859,-1.204 -3.859,-3.063 0,-1.578 0.797,-2.328 3.187,-2.906 l 1.5,-0.36 c 1.11,-0.265 1.547,-0.671 1.547,-1.406 0,-0.937 -0.937,-1.578 -2.343,-1.578 -0.86,0 -1.594,0.25 -2,0.672 -0.25,0.297 -0.36,0.578 -0.454,1.297 h -1.687 c 0.078,-2.328 1.375,-3.438 4.016,-3.438 2.531,0 4.14,1.25 4.14,3.188 0,1.5 -0.844,2.312 -2.844,2.797 l -1.531,0.375 c -1.312,0.297 -1.859,0.718 -1.859,1.437 0,0.922 0.828,1.516 2.125,1.516 1.281,0 1.984,-0.563 2.015,-1.61 z m 6.066,2.797 h -1.656 v 2.766 h -1.594 v -2.766 h -1.359 v -1.312 h 1.359 v -7.594 c 0,-1.016 0.703,-1.594 1.953,-1.594 0.375,0 0.766,0.032 1.297,0.125 v 1.344 c -0.203,-0.047 -0.453,-0.078 -0.765,-0.078 -0.688,0 -0.891,0.203 -0.891,0.906 v 6.891 h 1.656 z m 10.735,-9.125 c -0.188,-0.031 -0.25,-0.031 -0.36,-0.031 -0.547,0 -0.859,0.281 -0.859,0.781 v 5.922 c 0,1.781 -1.297,2.735 -3.781,2.735 -1.453,0 -2.672,-0.422 -3.344,-1.172 -0.453,-0.516 -0.656,-1.094 -0.688,-2.078 h 1.61 c 0.14,1.218 0.859,1.781 2.359,1.781 1.438,0 2.25,-0.547 2.25,-1.5 v -0.422 c 0,-0.672 -0.406,-0.969 -1.672,-1.109 -2.265,-0.297 -2.609,-0.375 -3.218,-0.625 -1.172,-0.469 -1.766,-1.375 -1.766,-2.688 0,-1.828 1.266,-2.969 3.297,-2.969 1.265,0 2.281,0.438 3.422,1.469 0.109,-1.016 0.609,-1.469 1.64,-1.469 0.328,0 0.578,0.032 1.11,0.172 z m -2.813,2.235 c 0,-0.547 -0.156,-0.875 -0.625,-1.313 -0.656,-0.594 -1.453,-0.906 -2.39,-0.906 -1.25,0 -1.969,0.609 -1.969,1.625 0,1.047 0.703,1.594 2.406,1.844 1.703,0.218 2.047,0.297 2.578,0.547 z m 8.094,6.89 h -1.656 v 2.766 h -1.594 v -2.766 h -1.359 v -1.312 h 1.359 v -7.594 c 0,-1.016 0.703,-1.594 1.953,-1.594 0.375,0 0.766,0.032 1.297,0.125 v 1.344 c -0.203,-0.047 -0.453,-0.078 -0.766,-0.078 -0.687,0 -0.89,0.203 -0.89,0.906 v 6.891 h 1.656 z m 10.293,-5.562 c 0,1.531 -0.109,2.453 -0.391,3.203 -0.656,1.656 -2.187,2.641 -4.078,2.641 -2.797,0 -4.609,-2.141 -4.609,-5.454 0,-3.296 1.75,-5.328 4.578,-5.328 2.297,0 3.891,1.297 4.297,3.485 h -1.61 c -0.453,-1.313 -1.343,-2.016 -2.64,-2.016 -1.016,0 -1.875,0.469 -2.422,1.313 -0.375,0.578 -0.516,1.156 -0.531,2.156 z m -7.359,1.297 c 0.125,1.859 1.265,3.078 2.875,3.078 1.578,0 2.781,-1.313 2.781,-2.953 0,-0.047 0,-0.078 -0.016,-0.125 z m 14.871,4.265 v -10.062 h 1.609 v 6.312 c 0,1.469 1.063,2.641 2.359,2.641 1.204,0 1.875,-0.734 1.875,-2.016 v -6.937 h 1.61 v 6.312 c 0,1.469 1.047,2.641 2.359,2.641 1.172,0 1.86,-0.75 1.86,-2.016 v -6.937 h 1.625 v 7.547 c 0,1.812 -1.047,2.797 -2.922,2.797 -1.344,0 -2.157,-0.391 -3.094,-1.532 -0.594,1.078 -1.406,1.532 -2.703,1.532 -1.344,0 -2.235,-0.5 -3.094,-1.704 v 1.422 z m 24.949,-9.125 c -0.188,-0.031 -0.25,-0.031 -0.359,-0.031 -0.547,0 -0.86,0.281 -0.86,0.781 v 5.922 c 0,1.781 -1.297,2.735 -3.781,2.735 -1.453,0 -2.672,-0.422 -3.344,-1.172 -0.453,-0.516 -0.656,-1.094 -0.687,-2.078 h 1.609 c 0.141,1.218 0.859,1.781 2.359,1.781 1.438,0 2.25,-0.547 2.25,-1.5 v -0.422 c 0,-0.672 -0.406,-0.969 -1.672,-1.109 -2.265,-0.297 -2.609,-0.375 -3.218,-0.625 -1.172,-0.469 -1.766,-1.375 -1.766,-2.688 0,-1.828 1.266,-2.969 3.297,-2.969 1.266,0 2.281,0.438 3.422,1.469 0.109,-1.016 0.609,-1.469 1.641,-1.469 0.328,0 0.578,0.032 1.109,0.172 z m -2.813,2.235 c 0,-0.547 -0.156,-0.875 -0.625,-1.313 -0.656,-0.594 -1.453,-0.906 -2.39,-0.906 -1.25,0 -1.969,0.609 -1.969,1.625 0,1.047 0.703,1.594 2.406,1.844 1.703,0.218 2.047,0.297 2.578,0.547 z M 376,235.238 c -0.078,0.969 -0.297,1.61 -0.672,2.172 -0.687,0.938 -1.906,1.485 -3.312,1.485 -2.704,0 -4.469,-2.141 -4.469,-5.485 0,-3.25 1.734,-5.297 4.453,-5.297 2.406,0 3.922,1.438 4.109,3.891 H 374.5 c -0.266,-1.609 -1.094,-2.422 -2.453,-2.422 -1.766,0 -2.828,1.453 -2.828,3.828 0,2.516 1.031,4.016 2.781,4.016 1.344,0 2.188,-0.797 2.391,-2.188 z m 1.898,7.313 v -14 h 1.594 v 5.547 c 0,2.062 1.078,3.406 2.735,3.406 0.515,0 1.031,-0.172 1.421,-0.469 0.454,-0.328 0.641,-0.797 0.641,-1.515 v -6.969 h 1.594 v 7.609 c 0,1.688 -1.203,2.735 -3.156,2.735 -1.422,0 -2.297,-0.438 -3.235,-1.657 v 5.313 z m 12.219,-3.938 h -1.594 v -10.062 h 1.594 z m 0,3.938 h -1.609 v -2.016 h 1.609 z m 2.742,-3.938 v -10.062 h 1.61 v 5.547 c 0,2.062 1.078,3.406 2.734,3.406 1.266,0 2.078,-0.766 2.078,-1.984 v -6.969 h 1.594 v 7.609 c 0,1.672 -1.25,2.735 -3.187,2.735 -1.5,0 -2.469,-0.563 -3.344,-1.969 v 1.687 z m 19.188,-5.562 c 0,1.531 -0.109,2.453 -0.391,3.203 -0.656,1.656 -2.187,2.641 -4.078,2.641 -2.797,0 -4.609,-2.141 -4.609,-5.454 0,-3.296 1.75,-5.328 4.578,-5.328 2.297,0 3.891,1.297 4.297,3.485 h -1.61 c -0.453,-1.313 -1.343,-2.016 -2.64,-2.016 -1.016,0 -1.875,0.469 -2.422,1.313 -0.375,0.578 -0.516,1.156 -0.531,2.156 z m -7.359,1.297 c 0.124,1.859 1.265,3.078 2.874,3.078 1.579,0 2.782,-1.313 2.782,-2.953 0,-0.047 0,-0.078 -0.016,-0.125 z"
                 style="fill:#000000;fill-opacity:1;fill-rule:nonzero;stroke:none"
                 id="path24724" />
              <g
                 transform="matrix(1,0,0,-1,0,300)"
                 id="g24728">
                <path
                   d="m 185.629,137.113 c -7.539,14.785 0.441,32.938 5.816,40.504"
                   style="fill:none;stroke:#000000;stroke-width:2.4;stroke-linecap:round;stroke-linejoin:miter;stroke-miterlimit:4;stroke-dasharray:none;stroke-opacity:1"
                   id="path24726" />
              </g>
              <g
                 transform="matrix(0.710657,-1,-1,-0.710657,0,300)"
                 id="g24732">
                <path
                   d="m 212.927,-43.338 -6.768,3.912 0.001,-7.823 z"
                   style="fill:#000000;fill-opacity:1;fill-rule:evenodd;stroke:#000000;stroke-width:0.978156;stroke-linecap:butt;stroke-linejoin:miter;stroke-miterlimit:4;stroke-dasharray:none;stroke-opacity:1"
                   id="path24730" />
              </g>
              <g
                 transform="matrix(1,0,0,-1,0,300)"
                 id="g24736">
                <path
                   d="m 160.055,79.133 h 92.769 c 6.649,0 12,5.351 12,12 v 37.898 c 0,6.649 -5.351,12 -12,12 h -92.769 c -6.649,0 -12,-5.351 -12,-12 V 91.133 c 0,-6.649 5.351,-12 12,-12 z"
                   style="fill:#abdda4;fill-opacity:1;fill-rule:nonzero;stroke:#000000;stroke-width:3.2;stroke-linecap:butt;stroke-linejoin:miter;stroke-miterlimit:4;stroke-dasharray:none;stroke-opacity:1"
                   id="path24734" />
              </g>
              <path
                 d="m 162.961,205.738 c -0.078,0.969 -0.297,1.61 -0.672,2.172 -0.687,0.938 -1.906,1.485 -3.312,1.485 -2.704,0 -4.469,-2.141 -4.469,-5.485 0,-3.25 1.734,-5.297 4.453,-5.297 2.406,0 3.922,1.438 4.109,3.891 h -1.609 c -0.266,-1.609 -1.094,-2.422 -2.453,-2.422 -1.766,0 -2.828,1.453 -2.828,3.828 0,2.516 1.031,4.016 2.781,4.016 1.344,0 2.187,-0.797 2.391,-2.188 z m 5.773,3.657 c -2.812,0 -4.531,-2.016 -4.531,-5.391 0,-3.375 1.688,-5.391 4.563,-5.391 2.812,0 4.546,2.016 4.546,5.313 0,3.484 -1.671,5.469 -4.578,5.469 z m 0.032,-1.469 c 1.796,0 2.875,-1.485 2.875,-3.985 0,-2.359 -1.11,-3.859 -2.875,-3.859 -1.797,0 -2.891,1.484 -2.891,3.922 0,2.422 1.094,3.922 2.891,3.922 z m 6.781,1.187 v -10.062 h 1.609 v 5.547 c 0,2.062 1.078,3.406 2.735,3.406 1.265,0 2.078,-0.766 2.078,-1.984 v -6.969 h 1.593 v 7.609 c 0,1.672 -1.25,2.735 -3.187,2.735 -1.5,0 -2.469,-0.563 -3.344,-1.969 v 1.687 z m 17.75,-2.797 c -0.016,1.969 -1.313,3.079 -3.641,3.079 -2.344,0 -3.859,-1.204 -3.859,-3.063 0,-1.578 0.797,-2.328 3.187,-2.906 l 1.5,-0.36 c 1.11,-0.265 1.547,-0.671 1.547,-1.406 0,-0.937 -0.937,-1.578 -2.343,-1.578 -0.86,0 -1.594,0.25 -2,0.672 -0.25,0.297 -0.36,0.578 -0.454,1.297 h -1.687 c 0.078,-2.328 1.375,-3.438 4.015,-3.438 2.532,0 4.141,1.25 4.141,3.188 0,1.5 -0.844,2.312 -2.844,2.797 l -1.531,0.375 c -1.312,0.297 -1.859,0.718 -1.859,1.437 0,0.922 0.828,1.516 2.125,1.516 1.281,0 1.984,-0.563 2.015,-1.61 z m 11.039,-2.765 c 0,1.531 -0.109,2.453 -0.391,3.203 -0.656,1.656 -2.187,2.641 -4.078,2.641 -2.797,0 -4.609,-2.141 -4.609,-5.454 0,-3.296 1.75,-5.328 4.578,-5.328 2.297,0 3.891,1.297 4.297,3.485 h -1.61 c -0.453,-1.313 -1.343,-2.016 -2.64,-2.016 -1.016,0 -1.875,0.469 -2.422,1.313 -0.375,0.578 -0.516,1.156 -0.531,2.156 z m -7.359,1.297 c 0.125,1.859 1.265,3.078 2.875,3.078 1.578,0 2.781,-1.313 2.781,-2.953 0,-0.047 0,-0.078 -0.016,-0.125 z m 9.546,4.265 v -10.062 h 1.61 v 5.547 c 0,2.062 1.078,3.406 2.734,3.406 1.266,0 2.078,-0.766 2.078,-1.984 v -6.969 h 1.594 v 7.609 c 0,1.672 -1.25,2.735 -3.187,2.735 -1.5,0 -2.469,-0.563 -3.344,-1.969 v 1.687 z m 17.75,-2.797 c -0.015,1.969 -1.312,3.079 -3.64,3.079 -2.344,0 -3.86,-1.204 -3.86,-3.063 0,-1.578 0.797,-2.328 3.188,-2.906 l 1.5,-0.36 c 1.109,-0.265 1.547,-0.671 1.547,-1.406 0,-0.937 -0.938,-1.578 -2.344,-1.578 -0.859,0 -1.594,0.25 -2,0.672 -0.25,0.297 -0.359,0.578 -0.453,1.297 h -1.688 c 0.079,-2.328 1.375,-3.438 4.016,-3.438 2.531,0 4.141,1.25 4.141,3.188 0,1.5 -0.844,2.312 -2.844,2.797 l -1.531,0.375 c -1.313,0.297 -1.86,0.718 -1.86,1.437 0,0.922 0.828,1.516 2.125,1.516 1.282,0 1.985,-0.563 2.016,-1.61 z m 10.442,-7.265 v 10.062 h -1.594 v -5.703 c 0,-2.062 -1.062,-3.406 -2.734,-3.406 -1.266,0 -2.078,0.781 -2.078,1.984 v 7.125 h -1.594 v -7.765 c 0,-1.657 1.25,-2.735 3.203,-2.735 1.484,0 2.422,0.516 3.359,1.844 v -1.406 z m 9.844,7.265 c -0.016,1.969 -1.313,3.079 -3.641,3.079 -2.344,0 -3.859,-1.204 -3.859,-3.063 0,-1.578 0.796,-2.328 3.187,-2.906 l 1.5,-0.36 c 1.109,-0.265 1.547,-0.671 1.547,-1.406 0,-0.937 -0.938,-1.578 -2.344,-1.578 -0.859,0 -1.594,0.25 -2,0.672 -0.25,0.297 -0.359,0.578 -0.453,1.297 h -1.687 c 0.078,-2.328 1.375,-3.438 4.015,-3.438 2.531,0 4.141,1.25 4.141,3.188 0,1.5 -0.844,2.312 -2.844,2.797 l -1.531,0.375 c -1.313,0.297 -1.86,0.718 -1.86,1.437 0,0.922 0.829,1.516 2.125,1.516 1.282,0 1.985,-0.563 2.016,-1.61 z"
                 style="fill:#000000;fill-opacity:1;fill-rule:nonzero;stroke:none"
                 id="path24738" />
              <path
                 d="m 155.258,185.113 v -10.062 h 1.609 v 6.312 c 0,1.469 1.063,2.641 2.36,2.641 1.203,0 1.875,-0.734 1.875,-2.016 v -6.937 h 1.609 v 6.312 c 0,1.469 1.047,2.641 2.359,2.641 1.172,0 1.86,-0.75 1.86,-2.016 v -6.937 h 1.625 v 7.547 c 0,1.812 -1.047,2.797 -2.922,2.797 -1.344,0 -2.156,-0.391 -3.094,-1.532 -0.594,1.078 -1.406,1.532 -2.703,1.532 -1.344,0 -2.234,-0.5 -3.094,-1.704 v 1.422 z m 19.89,0.282 c -2.812,0 -4.531,-2.016 -4.531,-5.391 0,-3.375 1.688,-5.391 4.563,-5.391 2.812,0 4.547,2.016 4.547,5.313 0,3.484 -1.672,5.469 -4.579,5.469 z m 0.032,-1.469 c 1.797,0 2.875,-1.485 2.875,-3.985 0,-2.359 -1.11,-3.859 -2.875,-3.859 -1.797,0 -2.891,1.484 -2.891,3.922 0,2.422 1.094,3.922 2.891,3.922 z m 14.937,5.125 h -1.594 v -5.203 c -0.671,1.015 -1.734,1.547 -3.093,1.547 -2.61,0 -4.313,-2.094 -4.313,-5.297 0,-3.391 1.672,-5.485 4.375,-5.485 1.391,0 2.344,0.516 3.203,1.766 v -1.328 h 1.422 z m -4.406,-5.141 c 1.719,0 2.812,-1.547 2.812,-3.937 0,-2.328 -1.109,-3.86 -2.796,-3.86 -1.766,0 -2.938,1.547 -2.938,3.891 0,2.344 1.172,3.906 2.922,3.906 z m 14.844,-8.859 v 10.062 h -1.594 v -5.703 c 0,-2.062 -1.063,-3.406 -2.734,-3.406 -1.266,0 -2.079,0.781 -2.079,1.984 v 7.125 h -1.593 v -7.765 c 0,-1.657 1.25,-2.735 3.203,-2.735 1.484,0 2.422,0.516 3.359,1.844 v -1.406 z m 4.359,14 h -1.609 v -14 h 1.609 z m 11.195,-9.5 c 0,1.531 -0.109,2.453 -0.39,3.203 -0.657,1.656 -2.188,2.641 -4.078,2.641 -2.797,0 -4.61,-2.141 -4.61,-5.454 0,-3.296 1.75,-5.328 4.578,-5.328 2.297,0 3.891,1.297 4.297,3.485 h -1.609 c -0.453,-1.313 -1.344,-2.016 -2.641,-2.016 -1.015,0 -1.875,0.469 -2.422,1.313 -0.375,0.578 -0.515,1.156 -0.531,2.156 z m -7.359,1.297 c 0.125,1.859 1.266,3.078 2.875,3.078 1.578,0 2.781,-1.313 2.781,-2.953 0,-0.047 0,-0.078 -0.015,-0.125 z"
                 style="fill:#000000;fill-opacity:1;fill-rule:nonzero;stroke:none"
                 id="path24740" />
              <g
                 transform="matrix(1,0,0,-1,0,300)"
                 id="g24744">
                <path
                   d="M 41.199,84.398 C 79.445,32.613 118.488,59.434 143.281,77.035"
                   style="fill:none;stroke:#000000;stroke-width:2.4;stroke-linecap:round;stroke-linejoin:miter;stroke-miterlimit:4;stroke-dasharray:none;stroke-opacity:1"
                   id="path24742" />
              </g>
              <g
                 transform="matrix(1,-0.709903,-0.709903,-1,0,300)"
                 id="g24748">
                <path
                   d="m 136.148,-16.409 -6.771,3.916 10e-4,-7.829 z"
                   style="fill:#000000;fill-opacity:1;fill-rule:evenodd;stroke:#000000;stroke-width:0.978504;stroke-linecap:butt;stroke-linejoin:miter;stroke-miterlimit:4;stroke-dasharray:none;stroke-opacity:1"
                   id="path24746" />
              </g>
              <g
                 transform="matrix(1,0,0,-1,0,300)"
                 id="g24752">
                <path
                   d="m 23.293,89.82 h 63.23 c 3.598,0 6.493,2.075 6.493,4.645 v 40.734 c 0,2.571 -2.895,4.641 -6.493,4.641 h -63.23 c -3.598,0 -6.492,-2.07 -6.492,-4.641 V 94.465 c 0,-2.57 2.894,-4.645 6.492,-4.645 z"
                   style="fill:#ffffbf;fill-opacity:1;fill-rule:nonzero;stroke:#000000;stroke-width:2.72;stroke-linecap:butt;stroke-linejoin:miter;stroke-miterlimit:4;stroke-dasharray:none;stroke-opacity:1"
                   id="path24750" />
              </g>
              <g
                 transform="matrix(1,0,0,-1,0,300)"
                 id="g24756">
                <path
                   d="m 18.492,85.023 h 63.231 c 3.597,0 6.492,2.071 6.492,4.641 v 40.734 c 0,2.571 -2.895,4.641 -6.492,4.641 H 18.492 c -3.597,0 -6.492,-2.07 -6.492,-4.641 V 89.664 c 0,-2.57 2.895,-4.641 6.492,-4.641 z"
                   style="fill:#ffffbf;fill-opacity:1;fill-rule:nonzero;stroke:#000000;stroke-width:2.72;stroke-linecap:butt;stroke-linejoin:miter;stroke-miterlimit:4;stroke-dasharray:none;stroke-opacity:1"
                   id="path24754" />
              </g>
              <g
                 transform="matrix(1,0,0,-1,0,300)"
                 id="g24760">
                <path
                   d="m 12.09,80.223 h 63.234 c 3.598,0 6.492,2.07 6.492,4.64 v 40.735 c 0,2.57 -2.894,4.644 -6.492,4.644 H 12.09 c -3.594,0 -6.488,-2.074 -6.488,-4.644 V 84.863 c 0,-2.57 2.894,-4.64 6.488,-4.64 z"
                   style="fill:#ffffbf;fill-opacity:1;fill-rule:nonzero;stroke:#000000;stroke-width:2.72;stroke-linecap:butt;stroke-linejoin:miter;stroke-miterlimit:4;stroke-dasharray:none;stroke-opacity:1"
                   id="path24758" />
              </g>
              <path
                 d="m 24.27,204.559 c -0.079,0.968 -0.297,1.609 -0.672,2.171 -0.688,0.938 -1.907,1.485 -3.313,1.485 -2.703,0 -4.469,-2.141 -4.469,-5.485 0,-3.25 1.735,-5.296 4.454,-5.296 2.406,0 3.921,1.437 4.109,3.89 H 22.77 c -0.266,-1.609 -1.094,-2.422 -2.454,-2.422 -1.765,0 -2.828,1.453 -2.828,3.828 0,2.516 1.032,4.016 2.782,4.016 1.343,0 2.187,-0.797 2.39,-2.187 z m 3.472,7.312 h -1.609 v -14 h 1.609 z m 4.231,-3.937 h -1.594 v -10.063 h 1.594 z m 0,3.937 h -1.61 v -2.016 h 1.61 z m 11.242,-9.5 c 0,1.531 -0.11,2.453 -0.391,3.203 -0.656,1.656 -2.187,2.641 -4.078,2.641 -2.797,0 -4.609,-2.141 -4.609,-5.453 0,-3.297 1.75,-5.328 4.578,-5.328 2.297,0 3.89,1.296 4.297,3.484 h -1.61 c -0.453,-1.313 -1.343,-2.016 -2.64,-2.016 -1.016,0 -1.875,0.469 -2.422,1.313 -0.375,0.578 -0.516,1.156 -0.531,2.156 z m -7.36,1.297 c 0.125,1.859 1.266,3.078 2.875,3.078 1.579,0 2.782,-1.312 2.782,-2.953 0,-0.047 0,-0.078 -0.016,-0.125 z m 9.547,4.266 v -10.063 h 1.61 v 5.547 c 0,2.062 1.078,3.406 2.734,3.406 1.266,0 2.078,-0.765 2.078,-1.984 v -6.969 h 1.594 v 7.609 c 0,1.672 -1.25,2.735 -3.188,2.735 -1.5,0 -2.468,-0.563 -3.343,-1.969 v 1.688 z m 14.219,0 h -1.656 v 2.765 h -1.594 v -2.765 h -1.359 v -1.313 h 1.359 v -7.594 c 0,-1.015 0.703,-1.593 1.953,-1.593 0.375,0 0.766,0.031 1.297,0.125 v 1.343 c -0.203,-0.047 -0.453,-0.078 -0.766,-0.078 -0.687,0 -0.89,0.203 -0.89,0.906 v 6.891 h 1.656 z"
                 style="fill:#000000;fill-opacity:1;fill-rule:nonzero;stroke:none"
                 id="path24762" />
              <g
                 transform="matrix(1,0,0,-1,0,300)"
                 id="g24766">
                <path
                   d="M 147.094,108.141 C 109.07,124.348 60.562,178.812 88.945,246.352"
                   style="fill:none;stroke:#000000;stroke-width:2.4;stroke-linecap:round;stroke-linejoin:miter;stroke-miterlimit:4;stroke-dasharray:none;stroke-opacity:1"
                   id="path24764" />
              </g>
              <g
                 transform="matrix(1,0,0,-1,0,300)"
                 id="g24770">
                <path
                   d="m 89.707,247.629 c 17.965,23.371 36.285,37.348 53.105,31.559"
                   style="fill:none;stroke:#000000;stroke-width:2.4;stroke-linecap:round;stroke-linejoin:miter;stroke-miterlimit:4;stroke-dasharray:none;stroke-opacity:1"
                   id="path24768" />
              </g>
              <g
                 transform="matrix(1,0.344247,0.344247,-1,0,300)"
                 id="g24774">
                <path
                   d="m 44.373,293.56 -3.926,2.27 v -4.539 z"
                   style="fill:#000000;fill-opacity:1;fill-rule:evenodd;stroke:#000000;stroke-width:0.567325;stroke-linecap:butt;stroke-linejoin:miter;stroke-miterlimit:4;stroke-dasharray:none;stroke-opacity:1"
                   id="path24772" />
              </g>
              <g
                 transform="matrix(1,0,0,-1,0,300)"
                 id="g24778">
                <path
                   d="m 89.707,247.598 c 21.262,37.183 41.316,40.285 60.754,36.879"
                   style="fill:none;stroke:#000000;stroke-width:2.4;stroke-linecap:round;stroke-linejoin:miter;stroke-miterlimit:4;stroke-dasharray:none;stroke-opacity:1"
                   id="path24776" />
              </g>
              <g
                 transform="matrix(1,0.175219,0.175219,-1,0,300)"
                 id="g24782">
                <path
                   d="m 100.348,301.583 -4.089,2.362 v -4.727 z"
                   style="fill:#000000;fill-opacity:1;fill-rule:evenodd;stroke:#000000;stroke-width:0.590996;stroke-linecap:butt;stroke-linejoin:miter;stroke-miterlimit:4;stroke-dasharray:none;stroke-opacity:1"
                   id="path24780" />
              </g>
              <g
                 transform="matrix(1,0,0,-1,0,300)"
                 id="g24786">
                <path
                   d="m 89.719,247.629 c 9.156,36.418 44.722,49.172 65.672,41.402"
                   style="fill:none;stroke:#000000;stroke-width:2.4;stroke-linecap:round;stroke-linejoin:miter;stroke-miterlimit:4;stroke-dasharray:none;stroke-opacity:1"
                   id="path24784" />
              </g>
              <g
                 transform="matrix(1,0.370849,0.370849,-1,0,300)"
                 id="g24790">
                <path
                   d="m 44.974,304.745 -3.894,2.251 0.001,-4.499 z"
                   style="fill:#000000;fill-opacity:1;fill-rule:evenodd;stroke:#000000;stroke-width:0.562562;stroke-linecap:butt;stroke-linejoin:miter;stroke-miterlimit:4;stroke-dasharray:none;stroke-opacity:1"
                   id="path24788" />
              </g>
              <g
                 transform="matrix(1,0,0,-1,0,300)"
                 id="g24794">
                <path
                   d="m 359,210.086 c 21.246,-3.926 22.531,-26.137 18.754,-36.391"
                   style="fill:none;stroke:#000000;stroke-width:2.4;stroke-linecap:round;stroke-linejoin:miter;stroke-miterlimit:4;stroke-dasharray:none;stroke-opacity:1"
                   id="path24792" />
              </g>
              <g
                 transform="matrix(-0.368525,1,1,0.368525,0,300)"
                 id="g24798">
                <path
                   d="m -270.297,276.229 -7.792,4.503 0.002,-9.007 z"
                   style="fill:#000000;fill-opacity:1;fill-rule:evenodd;stroke:#000000;stroke-width:1.12597;stroke-linecap:butt;stroke-linejoin:miter;stroke-miterlimit:4;stroke-dasharray:none;stroke-opacity:1"
                   id="path24796" />
              </g>
              <g
                 transform="matrix(1,0,0,-1,0,300)"
                 id="g24802">
                <path
                   d="m 165.211,216.512 h 180.66 v 24.336 h -180.66 z"
                   style="fill:#d7e3f4;fill-opacity:1;fill-rule:nonzero;stroke:#000000;stroke-width:1.6;stroke-linecap:round;stroke-linejoin:miter;stroke-miterlimit:4;stroke-dasharray:none;stroke-opacity:1"
                   id="path24800" />
              </g>
              <g
                 transform="matrix(1,0,0,-1,0,300)"
                 id="g24806">
                <path
                   d="m 216.887,216.785 v 23.949"
                   style="fill:none;stroke:#000000;stroke-width:1.6;stroke-linecap:butt;stroke-linejoin:miter;stroke-miterlimit:4;stroke-dasharray:none;stroke-opacity:1"
                   id="path24804" />
              </g>
              <g
                 transform="matrix(1,0,0,-1,0,300)"
                 id="g24810">
                <path
                   d="m 268.348,216.785 v 23.949"
                   style="fill:none;stroke:#000000;stroke-width:1.6;stroke-linecap:butt;stroke-linejoin:miter;stroke-miterlimit:4;stroke-dasharray:none;stroke-opacity:1"
                   id="path24808" />
              </g>
              <path
                 d="m 177,71.348 3.375,4.859 h -1.797 l -2.422,-3.656 -2.422,3.656 h -1.828 l 3.36,-4.937 -3.547,-5.125 h 1.828 l 2.547,3.859 2.515,-3.859 h 1.86 z"
                 style="fill:#000000;fill-opacity:1;fill-rule:nonzero;stroke:none"
                 id="path24812" />
              <path
                 d="m 185.555,74.27 h 0.703 c -0.367,-0.731 -0.641,-1.243 -0.828,-1.532 -0.18,-0.293 -0.508,-0.734 -0.985,-1.328 h 14.813 v -0.937 h -14.813 c 0.645,-0.668 1.258,-1.625 1.844,-2.875 h -0.719 c -0.804,0.894 -1.492,1.57 -2.062,2.031 -0.574,0.457 -1.168,0.836 -1.781,1.141 v 0.406 c 0.539,0.226 1.109,0.578 1.703,1.047 0.601,0.476 1.312,1.16 2.125,2.047 z"
                 style="fill:#000000;fill-opacity:1;fill-rule:nonzero;stroke:none"
                 id="path24814" />
              <path
                 d="m 204.441,72.379 h 0.204 l 0.718,0.031 c 1.86,0 2.813,-0.844 2.813,-2.484 0,-1.703 -1.047,-2.719 -2.813,-2.719 -1.843,0 -2.75,0.922 -2.875,2.891 h -1.687 c 0.078,-1.094 0.281,-1.797 0.594,-2.422 0.703,-1.297 2.046,-1.969 3.906,-1.969 2.797,0 4.609,1.672 4.609,4.234 0,1.735 -0.672,2.688 -2.312,3.25 1.281,0.5 1.906,1.454 1.906,2.829 0,2.343 -1.547,3.734 -4.141,3.734 -2.75,0 -4.218,-1.484 -4.265,-4.391 h 1.687 c 0.016,0.828 0.094,1.282 0.313,1.703 0.375,0.75 1.218,1.219 2.281,1.219 1.5,0 2.391,-0.89 2.391,-2.328 0,-0.953 -0.344,-1.531 -1.094,-1.844 -0.453,-0.187 -1.047,-0.265 -2.235,-0.281 z"
                 style="fill:#000000;fill-opacity:1;fill-rule:nonzero;stroke:none"
                 id="path24816" />
              <path
                 d="m 230.023,76.207 -2.781,-7.828 -2.578,7.828 h -1.703 l 3.391,-10.094 -0.61,-1.593 c -0.25,-0.719 -0.625,-0.985 -1.297,-0.985 -0.218,0 -0.5,0.031 -0.843,0.11 v -1.438 c 0.328,-0.172 0.656,-0.25 1.078,-0.25 0.515,0 1.078,0.172 1.5,0.484 0.5,0.36 0.781,0.782 1.093,1.594 l 4.469,12.172 z"
                 style="fill:#000000;fill-opacity:1;fill-rule:nonzero;stroke:none"
                 id="path24818" />
              <path
                 d="m 236.734,74.27 h 0.704 c -0.368,-0.731 -0.641,-1.243 -0.829,-1.532 -0.179,-0.293 -0.507,-0.734 -0.984,-1.328 h 14.813 v -0.937 h -14.813 c 0.645,-0.668 1.258,-1.625 1.844,-2.875 h -0.719 c -0.805,0.894 -1.492,1.57 -2.062,2.031 -0.575,0.457 -1.168,0.836 -1.782,1.141 v 0.406 c 0.539,0.226 1.11,0.578 1.703,1.047 0.602,0.476 1.313,1.16 2.125,2.047 z"
                 style="fill:#000000;fill-opacity:1;fill-rule:nonzero;stroke:none"
                 id="path24820" />
              <path
                 d="m 256.34,75.848 v -9.703 h 1.687 v 13.609 h -1.109 c -0.594,-2.094 -0.969,-2.375 -3.594,-2.703 v -1.203 z"
                 style="fill:#000000;fill-opacity:1;fill-rule:nonzero;stroke:none"
                 id="path24822" />
              <g
                 transform="matrix(1,0,0,-1,0,300)"
                 id="g24826">
                <path
                   d="m 319.547,216.785 v 23.949"
                   style="fill:none;stroke:#000000;stroke-width:1.6;stroke-linecap:butt;stroke-linejoin:miter;stroke-miterlimit:4;stroke-dasharray:none;stroke-opacity:1"
                   id="path24824" />
              </g>
              <path
                 d="m 281.508,76.207 -2.781,-7.828 -2.579,7.828 h -1.703 l 3.391,-10.094 -0.609,-1.593 c -0.25,-0.719 -0.625,-0.985 -1.297,-0.985 -0.219,0 -0.5,0.031 -0.844,0.11 v -1.438 c 0.328,-0.172 0.656,-0.25 1.078,-0.25 0.516,0 1.078,0.172 1.5,0.484 0.5,0.36 0.781,0.782 1.094,1.594 l 4.469,12.172 z"
                 style="fill:#000000;fill-opacity:1;fill-rule:nonzero;stroke:none"
                 id="path24828" />
              <path
                 d="m 288.219,74.27 h 0.703 c -0.367,-0.731 -0.641,-1.243 -0.828,-1.532 -0.18,-0.293 -0.508,-0.734 -0.985,-1.328 h 14.813 v -0.937 h -14.813 c 0.645,-0.668 1.258,-1.625 1.844,-2.875 h -0.719 c -0.804,0.894 -1.492,1.57 -2.062,2.031 -0.574,0.457 -1.168,0.836 -1.781,1.141 v 0.406 c 0.539,0.226 1.109,0.578 1.703,1.047 0.601,0.476 1.312,1.16 2.125,2.047 z"
                 style="fill:#000000;fill-opacity:1;fill-rule:nonzero;stroke:none"
                 id="path24830" />
              <path
                 d="m 303.871,69.254 c 0.328,-2.219 1.781,-3.547 3.859,-3.547 1.5,0 2.86,0.719 3.657,1.938 0.859,1.328 1.25,3 1.25,5.468 0,2.282 -0.36,3.75 -1.157,4.953 -0.75,1.094 -1.937,1.688 -3.437,1.688 -2.594,0 -4.453,-1.922 -4.453,-4.578 0,-2.547 1.719,-4.328 4.187,-4.328 1.282,0 2.219,0.468 3.11,1.515 -0.032,-3.312 -1.094,-5.156 -3.032,-5.156 -1.203,0 -2.031,0.75 -2.296,2.047 z m 4.156,9.031 c 1.563,0 2.766,-1.312 2.766,-3.078 0,-1.672 -1.172,-2.859 -2.828,-2.859 -1.641,0 -2.656,1.125 -2.656,2.953 0,1.734 1.156,2.984 2.718,2.984 z"
                 style="fill:#000000;fill-opacity:1;fill-rule:nonzero;stroke:none"
                 id="path24832" />
              <path
                 d="m 328.777,72.332 h -2 v -2 h 2 z m 5.325,0 h -2 v -2 h 2 z m 5.324,0 h -2 v -2 h 2 z"
                 style="fill:#000000;fill-opacity:1;fill-rule:nonzero;stroke:none"
                 id="path24834" />
              <g
                 transform="matrix(1,0,0,-1,0,300)"
                 id="g24838">
                <path
                   d="m 88.695,246.082 c 9.637,14.863 29.008,30.754 46.614,27.465"
                   style="fill:none;stroke:#000000;stroke-width:2.4;stroke-linecap:round;stroke-linejoin:miter;stroke-miterlimit:4;stroke-dasharray:none;stroke-opacity:1"
                   id="path24836" />
              </g>
              <g
                 transform="matrix(1,0.18672,0.18672,-1,0,300)"
                 id="g24842">
                <path
                   d="m 84.117,288.745 -4.081,2.359 -0.002,-4.719 z"
                   style="fill:#000000;fill-opacity:1;fill-rule:evenodd;stroke:#000000;stroke-width:0.589807;stroke-linecap:butt;stroke-linejoin:miter;stroke-miterlimit:4;stroke-dasharray:none;stroke-opacity:1"
                   id="path24840" />
              </g>
              <g
                 transform="matrix(1,0,0,-1,0,300)"
                 id="g24846">
                <path
                   d="M 365.078,49.496 C 205.977,-17.395 47.496,19.992 38.059,71.828"
                   style="fill:none;stroke:#000000;stroke-width:2.4;stroke-linecap:round;stroke-linejoin:miter;stroke-miterlimit:4;stroke-dasharray:none;stroke-opacity:1"
                   id="path24844" />
              </g>
              <g
                 transform="matrix(-0.182102,-1,-1,0.182102,0,300)"
                 id="g24850">
                <path
                   d="m 68.264,-49.497 -8.168,4.721 v -9.441 z"
                   style="fill:#000000;fill-opacity:1;fill-rule:evenodd;stroke:#000000;stroke-width:1.18059;stroke-linecap:butt;stroke-linejoin:miter;stroke-miterlimit:4;stroke-dasharray:none;stroke-opacity:1"
                   id="path24848" />
              </g>
              <g
                 transform="matrix(1,0,0,-0.923704,0,300)"
                 id="g24854">
                <path
                   d="m 116.547,197.164 c 0,6.842 -5.359,12.391 -11.973,12.391 -6.613,0 -11.976,-5.549 -11.976,-12.391 0,-6.838 5.363,-12.386 11.976,-12.386 6.614,0 11.973,5.548 11.973,12.386 z"
                   style="fill:none;stroke:#000000;stroke-width:2.49715;stroke-linecap:butt;stroke-linejoin:miter;stroke-miterlimit:4;stroke-dasharray:none;stroke-opacity:1"
                   id="path24852" />
              </g>
              <path
                 d="m 102.332,112.555 h 6.547 v -1.578 h -8.797 v 1.578 c 0.707,0.738 1.676,1.726 2.906,2.968 1.227,1.239 2,2.036 2.313,2.391 0.601,0.676 1.023,1.25 1.265,1.719 0.239,0.469 0.36,0.926 0.36,1.375 0,0.738 -0.262,1.336 -0.781,1.797 -0.512,0.468 -1.184,0.703 -2.016,0.703 -0.586,0 -1.203,-0.106 -1.859,-0.313 -0.657,-0.211 -1.356,-0.515 -2.094,-0.922 v 1.891 c 0.75,0.301 1.453,0.531 2.109,0.688 0.656,0.156 1.258,0.234 1.813,0.234 1.425,0 2.566,-0.359 3.422,-1.078 0.851,-0.719 1.281,-1.68 1.281,-2.875 0,-0.574 -0.11,-1.117 -0.328,-1.625 -0.211,-0.512 -0.594,-1.117 -1.157,-1.813 -0.156,-0.179 -0.652,-0.695 -1.484,-1.547 -0.824,-0.855 -1.992,-2.054 -3.5,-3.593 z"
                 style="fill:#000000;fill-opacity:1;fill-rule:nonzero;stroke:none"
                 id="path24856" />
              <g
                 transform="matrix(1,0,0,-0.923704,0,300)"
                 id="g24860">
                <path
                   d="m 114.684,79.347 c 0,6.842 -5.36,12.386 -11.973,12.386 -6.613,0 -11.977,-5.544 -11.977,-12.386 0,-6.843 5.364,-12.387 11.977,-12.387 6.613,0 11.973,5.544 11.973,12.387 z"
                   style="fill:none;stroke:#000000;stroke-width:2.49715;stroke-linecap:butt;stroke-linejoin:miter;stroke-miterlimit:4;stroke-dasharray:none;stroke-opacity:1"
                   id="path24858" />
              </g>
              <path
                 d="m 99.188,221.387 h 3.062 v 10.562 l -3.328,-0.672 v 1.719 l 3.312,0.656 h 1.875 v -12.265 h 3.047 v -1.578 h -7.968 z"
                 style="fill:#000000;fill-opacity:1;fill-rule:nonzero;stroke:none"
                 id="path24862" />
              <g
                 transform="matrix(1,0,0,-0.923704,0,300)"
                 id="g24866">
                <path
                   d="m 409.023,213.01 c 0,6.842 -5.359,12.386 -11.972,12.386 -6.613,0 -11.977,-5.544 -11.977,-12.386 0,-6.843 5.364,-12.387 11.977,-12.387 6.613,0 11.972,5.544 11.972,12.387 z"
                   style="fill:none;stroke:#000000;stroke-width:2.49715;stroke-linecap:butt;stroke-linejoin:miter;stroke-miterlimit:4;stroke-dasharray:none;stroke-opacity:1"
                   id="path24864" />
              </g>
              <path
                 d="m 398.871,103.812 c 0.906,-0.187 1.609,-0.589 2.109,-1.203 0.5,-0.605 0.75,-1.351 0.75,-2.234 0,-1.375 -0.468,-2.437 -1.406,-3.187 -0.937,-0.743 -2.273,-1.11 -4,-1.11 -0.586,0 -1.183,0.059 -1.797,0.172 -0.617,0.113 -1.25,0.285 -1.906,0.516 v 1.812 c 0.52,-0.312 1.086,-0.547 1.703,-0.703 0.614,-0.148 1.258,-0.219 1.938,-0.219 1.176,0 2.07,0.227 2.687,0.688 0.613,0.468 0.922,1.144 0.922,2.031 0,0.813 -0.289,1.445 -0.859,1.906 -0.574,0.469 -1.371,0.703 -2.391,0.703 h -1.609 v 1.532 h 1.687 c 0.914,0 1.617,0.179 2.11,0.546 0.488,0.376 0.734,0.907 0.734,1.594 0,0.719 -0.258,1.266 -0.766,1.641 -0.5,0.383 -1.218,0.578 -2.156,0.578 -0.512,0 -1.062,-0.059 -1.656,-0.172 -0.586,-0.117 -1.231,-0.289 -1.938,-0.515 v 1.671 c 0.719,0.196 1.383,0.344 2,0.438 0.625,0.101 1.211,0.156 1.766,0.156 1.414,0 2.539,-0.328 3.375,-0.984 0.832,-0.649 1.25,-1.516 1.25,-2.61 0,-0.773 -0.227,-1.421 -0.672,-1.953 -0.437,-0.523 -1.062,-0.886 -1.875,-1.094 z"
                 style="fill:#000000;fill-opacity:1;fill-rule:nonzero;stroke:none"
                 id="path24868" />
              <g
                 transform="matrix(1,0,0,-0.923704,0,300)"
                 id="g24872">
                <path
                   d="m 176.949,176.713 c 0,6.842 -5.359,12.386 -11.972,12.386 -6.614,0 -11.977,-5.544 -11.977,-12.386 0,-6.842 5.363,-12.386 11.977,-12.386 6.613,0 11.972,5.544 11.972,12.386 z"
                   style="fill:none;stroke:#000000;stroke-width:2.49715;stroke-linecap:butt;stroke-linejoin:miter;stroke-miterlimit:4;stroke-dasharray:none;stroke-opacity:1"
                   id="path24870" />
              </g>
              <path
                 d="m 162.734,131.449 h 6.547 v -1.578 h -8.797 v 1.578 c 0.707,0.739 1.676,1.727 2.907,2.969 1.226,1.238 2,2.035 2.312,2.391 0.602,0.675 1.024,1.25 1.266,1.718 0.238,0.469 0.359,0.926 0.359,1.375 0,0.739 -0.262,1.336 -0.781,1.797 -0.512,0.469 -1.184,0.703 -2.016,0.703 -0.586,0 -1.203,-0.105 -1.859,-0.312 -0.656,-0.211 -1.356,-0.516 -2.094,-0.922 v 1.891 c 0.75,0.3 1.453,0.531 2.11,0.687 0.656,0.156 1.257,0.234 1.812,0.234 1.426,0 2.566,-0.359 3.422,-1.078 0.851,-0.718 1.281,-1.679 1.281,-2.875 0,-0.574 -0.109,-1.117 -0.328,-1.625 -0.211,-0.511 -0.594,-1.117 -1.156,-1.812 -0.157,-0.18 -0.653,-0.695 -1.485,-1.547 -0.824,-0.855 -1.992,-2.055 -3.5,-3.594 z"
                 style="fill:#000000;fill-opacity:1;fill-rule:nonzero;stroke:none"
                 id="path24874" />
              <g
                 transform="matrix(1,0,0,-0.923704,0,300)"
                 id="g24878">
                <path
                   d="m 60.402,29.797 c 0,6.842 -5.359,12.39 -11.972,12.39 -6.614,0 -11.977,-5.548 -11.977,-12.39 0,-6.838 5.363,-12.387 11.977,-12.387 6.613,0 11.972,5.549 11.972,12.387 z"
                   style="fill:none;stroke:#000000;stroke-width:2.49715;stroke-linecap:butt;stroke-linejoin:miter;stroke-miterlimit:4;stroke-dasharray:none;stroke-opacity:1"
                   id="path24876" />
              </g>
              <path
                 d="M 49.734,277.793 45,270.402 h 4.734 z m -0.5,1.625 h 2.36 v -9.016 h 1.968 v -1.562 h -1.968 v -3.266 h -1.86 v 3.266 h -6.265 v 1.812 z"
                 style="fill:#000000;fill-opacity:1;fill-rule:nonzero;stroke:none"
                 id="path24880" />
              <g
                 transform="matrix(1,0,0,-1,0,300)"
                 id="g24884">
                <path
                   d="m 334.215,80.461 h 52.676 v 73.117 h -52.676 z"
                   style="fill:#d7e3f4;fill-opacity:1;fill-rule:nonzero;stroke:#000000;stroke-width:1.6;stroke-linecap:round;stroke-linejoin:miter;stroke-miterlimit:4;stroke-dasharray:none;stroke-opacity:1"
                   id="path24882" />
              </g>
              <path
                 d="m 350.988,206.637 3.375,4.859 h -1.797 l -2.421,-3.656 -2.422,3.656 h -1.828 l 3.359,-4.937 -3.547,-5.125 h 1.828 l 2.547,3.859 2.516,-3.859 h 1.859 z m 8.098,-3.203 h -2 v -2 h 2 z m 0,8.062 h -2 v -2 h 2 z m 10.793,-3.828 h 0.203 l 0.719,0.031 c 1.859,0 2.812,-0.844 2.812,-2.484 0,-1.703 -1.047,-2.719 -2.812,-2.719 -1.844,0 -2.75,0.922 -2.875,2.891 h -1.688 c 0.078,-1.094 0.282,-1.797 0.594,-2.422 0.703,-1.297 2.047,-1.969 3.906,-1.969 2.797,0 4.61,1.672 4.61,4.234 0,1.735 -0.672,2.688 -2.313,3.25 1.281,0.5 1.906,1.454 1.906,2.829 0,2.343 -1.546,3.734 -4.14,3.734 -2.75,0 -4.219,-1.484 -4.266,-4.391 h 1.688 c 0.015,0.828 0.093,1.282 0.312,1.703 0.375,0.75 1.219,1.219 2.281,1.219 1.5,0 2.391,-0.89 2.391,-2.328 0,-0.953 -0.344,-1.531 -1.094,-1.844 -0.453,-0.187 -1.047,-0.265 -2.234,-0.281 z"
                 style="fill:#000000;fill-opacity:1;fill-rule:nonzero;stroke:none"
                 id="path24886" />
              <path
                 d="m 352.832,187.496 -2.781,-7.828 -2.578,7.828 h -1.703 l 3.39,-10.094 -0.609,-1.593 c -0.25,-0.719 -0.625,-0.985 -1.297,-0.985 -0.219,0 -0.5,0.031 -0.844,0.11 v -1.438 c 0.328,-0.172 0.656,-0.25 1.078,-0.25 0.516,0 1.078,0.172 1.5,0.484 0.5,0.36 0.782,0.782 1.094,1.594 l 4.469,12.172 z m 6.254,-8.062 h -2 v -2 h 2 z m 0,8.062 h -2 v -2 h 2 z m 7.559,-6.953 c 0.328,-2.219 1.781,-3.547 3.859,-3.547 1.5,0 2.859,0.719 3.656,1.938 0.86,1.328 1.25,3 1.25,5.468 0,2.282 -0.359,3.75 -1.156,4.953 -0.75,1.094 -1.938,1.688 -3.438,1.688 -2.593,0 -4.453,-1.922 -4.453,-4.578 0,-2.547 1.719,-4.328 4.188,-4.328 1.281,0 2.219,0.468 3.109,1.515 -0.031,-3.312 -1.094,-5.156 -3.031,-5.156 -1.203,0 -2.031,0.75 -2.297,2.047 z m 4.156,9.031 c 1.562,0 2.765,-1.312 2.765,-3.078 0,-1.672 -1.171,-2.859 -2.828,-2.859 -1.64,0 -2.656,1.125 -2.656,2.953 0,1.734 1.156,2.984 2.719,2.984 z"
                 style="fill:#000000;fill-opacity:1;fill-rule:nonzero;stroke:none"
                 id="path24888" />
              <path
                 d="m 353.879,163.496 h -7.5 v -1.406 h 5.609 l -6.015,-7.219 v -1.437 h 8.187 v 1.406 h -6.25 l 5.969,7.234 z m 5.207,-8.062 h -2 v -2 h 2 z m 0,8.062 h -2 v -2 h 2 z m 11.824,3.547 c -1.265,0 -2.422,-0.547 -3.125,-1.484 -0.89,-1.204 -1.328,-3.016 -1.328,-5.532 0,-4.593 1.531,-7.031 4.453,-7.031 2.875,0 4.453,2.438 4.453,6.906 0,2.657 -0.422,4.422 -1.328,5.657 -0.703,0.953 -1.844,1.484 -3.125,1.484 z m 0,-1.484 c 1.828,0 2.719,-1.844 2.719,-5.5 0,-3.86 -0.875,-5.672 -2.75,-5.672 -1.797,0 -2.703,1.89 -2.703,5.609 0,3.734 0.906,5.563 2.734,5.563 z"
                 style="fill:#000000;fill-opacity:1;fill-rule:nonzero;stroke:none"
                 id="path24890" />
            </g>
          </g>
        </g>
      </g>
    </g>
  </g>
</svg>
