<?xml version="1.0" encoding="UTF-8" standalone="no"?>
<!-- Created with Inkscape (http://www.inkscape.org/) -->

<svg
   width="1050"
   height="345"
   viewBox="0 0 277.8125 91.281248"
   version="1.1"
   id="svg5"
   inkscape:version="1.1.2 (0a00cf5339, 2022-02-04)"
   sodipodi:docname="raft-states.svg"
   xmlns:inkscape="http://www.inkscape.org/namespaces/inkscape"
   xmlns:sodipodi="http://sodipodi.sourceforge.net/DTD/sodipodi-0.dtd"
   xmlns="http://www.w3.org/2000/svg"
   xmlns:svg="http://www.w3.org/2000/svg">
  <sodipodi:namedview
     id="namedview7"
     pagecolor="#ffffff"
     bordercolor="#666666"
     borderopacity="1.0"
     inkscape:pageshadow="2"
     inkscape:pageopacity="0.0"
     inkscape:pagecheckerboard="true"
     inkscape:document-units="px"
     showgrid="false"
     units="px"
     inkscape:zoom="1.601163"
     inkscape:cx="631.10376"
     inkscape:cy="194.54609"
     inkscape:window-width="1846"
     inkscape:window-height="1016"
     inkscape:window-x="74"
     inkscape:window-y="27"
     inkscape:window-maximized="1"
     inkscape:current-layer="layer1"
     borderlayer="true"
     showborder="true"
     inkscape:showpageshadow="false"
     showguides="true"
     inkscape:guide-bbox="true"
     inkscape:snap-object-midpoints="false"
     inkscape:snap-center="true"
     inkscape:snap-smooth-nodes="true"
     inkscape:object-paths="true"
     inkscape:snap-global="false">
    <sodipodi:guide
       position="88.429621,88.747901"
       orientation="0,-1"
       id="guide85420" />
  </sodipodi:namedview>
  <defs
     id="defs2">
    <marker
       style="overflow:visible"
       id="marker30965"
       refX="0"
       refY="0"
       orient="auto"
       inkscape:stockid="Arrow1Lend"
       inkscape:isstock="true">
      <path
         transform="matrix(-0.8,0,0,-0.8,-10,0)"
         style="fill:context-stroke;fill-rule:evenodd;stroke:context-stroke;stroke-width:1pt"
         d="M 0,0 5,-5 -12.5,0 5,5 Z"
         id="path30963" />
    </marker>
    <marker
       style="overflow:visible"
       id="Arrow1Lstart"
       refX="0"
       refY="0"
       orient="auto"
       inkscape:stockid="Arrow1Lstart"
       inkscape:isstock="true">
      <path
         transform="matrix(0.8,0,0,0.8,10,0)"
         style="fill:context-stroke;fill-rule:evenodd;stroke:context-stroke;stroke-width:1pt"
         d="M 0,0 5,-5 -12.5,0 5,5 Z"
         id="path30687" />
    </marker>
    <marker
       style="overflow:visible"
       id="Arrow1Lend"
       refX="0"
       refY="0"
       orient="auto"
       inkscape:stockid="Arrow1Lend"
       inkscape:isstock="true">
      <path
         transform="matrix(-0.8,0,0,-0.8,-10,0)"
         style="fill:context-stroke;fill-rule:evenodd;stroke:context-stroke;stroke-width:1pt"
         d="M 0,0 5,-5 -12.5,0 5,5 Z"
         id="path30690" />
    </marker>
    <clipPath
       clipPathUnits="userSpaceOnUse"
       id="clipPath1734">
      <path
         d="M 0,0.028 H 595.275 V 841.889 H 0 Z"
         clip-rule="evenodd"
         id="path1732" />
    </clipPath>
    <clipPath
       clipPathUnits="userSpaceOnUse"
       id="clipPath5199">
      <path
         d="M 0,0.028 H 595.275 V 841.889 H 0 Z"
         clip-rule="evenodd"
         id="path5197" />
    </clipPath>
    <clipPath
       clipPathUnits="userSpaceOnUse"
       id="clipPath6407">
      <path
         d="M 0,0.028 H 595.275 V 841.889 H 0 Z"
         clip-rule="evenodd"
         id="path6405" />
    </clipPath>
    <clipPath
       clipPathUnits="userSpaceOnUse"
       id="clipPath23707">
      <path
         d="M 0,0.028 H 595.275 V 841.889 H 0 Z"
         clip-rule="evenodd"
         id="path23705" />
    </clipPath>
    <clipPath
       clipPathUnits="userSpaceOnUse"
       id="clipPath24678">
      <path
         d="M 0,0 H 488 V 300 H 0 Z"
         id="path24676" />
    </clipPath>
    <clipPath
       clipPathUnits="userSpaceOnUse"
       id="clipPath24678-7">
      <path
         d="M 0,0 H 488 V 300 H 0 Z"
         id="path24676-5" />
    </clipPath>
    <clipPath
       clipPathUnits="userSpaceOnUse"
       id="clipPath1175">
      <path
         d="M 0,0 H 428.31323 V 171.69997 H 0 Z"
         id="path1173" />
    </clipPath>
  </defs>
  <g
     inkscape:label="Layer 1"
     inkscape:groupmode="layer"
     id="layer1"
     style="display:inline">
    <g
       aria-label="таймаут, новые выборы"
       transform="matrix(0.24262919,0,0,0.24262919,178.82644,-2.419099)"
       id="text43576"
       style="font-size:20.1998px;line-height:1.25;font-family:Montserrat;-inkscape-font-specification:Montserrat;text-align:center;text-anchor:middle;stroke-width:0.946867">
      <path
         d="m -185.58747,37.510681 v -9.736304 l 0.36359,0.383797 h -4.38335 v -1.252388 h 9.4737 v 1.252388 h -4.38336 l 0.3636,-0.383797 v 9.736304 z"
         id="path85660" />
      <path
         d="m -171.46782,37.510681 v -2.343177 l -0.0606,-0.383796 v -3.918761 q 0,-1.353387 -0.76759,-2.08058 -0.7474,-0.727192 -2.24218,-0.727192 -1.03019,0 -1.95938,0.343396 -0.92919,0.343397 -1.57559,0.908991 l -0.64639,-1.070589 q 0.80799,-0.686793 1.93918,-1.05039 1.13119,-0.383796 2.38358,-0.383796 2.06038,0 3.17136,1.03019 1.13119,1.00999 1.13119,3.090569 v 6.585135 z m -3.65617,0.100999 q -1.19178,0 -2.08058,-0.383796 -0.86859,-0.403996 -1.33318,-1.090789 -0.4646,-0.706993 -0.4646,-1.615984 0,-0.828192 0.3838,-1.494786 0.40399,-0.686793 1.29279,-1.090789 0.90899,-0.424196 2.42397,-0.424196 h 3.65617 v 1.07059 h -3.61577 q -1.53518,0 -2.14118,0.545394 -0.58579,0.545395 -0.58579,1.353387 0,0.908991 0.70699,1.454386 0.70699,0.545394 1.97958,0.545394 1.21199,0 2.08058,-0.545394 0.88879,-0.565595 1.29279,-1.615984 l 0.32319,0.98979 q -0.40399,1.05039 -1.41398,1.676583 -0.98979,0.626194 -2.50478,0.626194 z"
         id="path85662" />
      <path
         d="M -166.27651,37.510681 V 26.905786 h 1.43419 v 8.423317 l 7.09013,-8.423317 h 1.27258 v 10.604895 h -1.43418 v -8.443516 l -7.06993,8.443516 z m 4.80755,-12.14008 q -1.33318,0 -2.16137,-0.666593 -0.808,-0.686794 -0.8484,-1.959381 h 1.03019 q 0.0202,0.807992 0.5656,1.272587 0.54539,0.464596 1.41398,0.464596 0.8686,0 1.41399,-0.464596 0.56559,-0.464595 0.58579,-1.272587 h 1.03019 q -0.0202,1.272587 -0.84839,1.959381 -0.82819,0.666593 -2.18158,0.666593 z"
         id="path85664" />
      <path
         d="M -152.37905,37.510681 V 26.905786 h 1.45438 l 4.80755,8.140519 h -0.60599 l 4.88835,-8.140519 h 1.33319 v 10.604895 h -1.31299 V 28.54197 l 0.2626,0.121199 -4.56516,7.554725 h -0.64639 l -4.60555,-7.635525 0.30299,-0.0606 v 8.988911 z"
         id="path85666" />
      <path
         d="m -129.83609,37.510681 v -2.343177 l -0.0606,-0.383796 v -3.918761 q 0,-1.353387 -0.7676,-2.08058 -0.74739,-0.727192 -2.24217,-0.727192 -1.03019,0 -1.95938,0.343396 -0.92919,0.343397 -1.57559,0.908991 l -0.64639,-1.070589 q 0.80799,-0.686793 1.93918,-1.05039 1.13119,-0.383796 2.38358,-0.383796 2.06037,0 3.17136,1.03019 1.13119,1.00999 1.13119,3.090569 v 6.585135 z m -3.65617,0.100999 q -1.19179,0 -2.08058,-0.383796 -0.86859,-0.403996 -1.33318,-1.090789 -0.4646,-0.706993 -0.4646,-1.615984 0,-0.828192 0.3838,-1.494786 0.40399,-0.686793 1.29278,-1.090789 0.909,-0.424196 2.42398,-0.424196 h 3.65616 v 1.07059 h -3.61576 q -1.53518,0 -2.14118,0.545394 -0.58579,0.545395 -0.58579,1.353387 0,0.908991 0.70699,1.454386 0.70699,0.545394 1.97958,0.545394 1.21199,0 2.08058,-0.545394 0.88879,-0.565595 1.29279,-1.615984 l 0.32319,0.98979 q -0.40399,1.05039 -1.41398,1.676583 -0.98979,0.626194 -2.50478,0.626194 z"
         id="path85668" />
      <path
         d="m -124.46298,41.530441 q -0.74739,0 -1.43419,-0.242397 -0.66659,-0.242398 -1.15138,-0.727193 l 0.66659,-1.070589 q 0.404,0.383796 0.86859,0.585794 0.4848,0.222198 1.07059,0.222198 0.70699,0 1.21199,-0.403996 0.52519,-0.383797 0.98979,-1.373587 l 0.68679,-1.555384 0.1616,-0.222198 4.36316,-9.837303 h 1.41398 l -5.31254,11.877483 q -0.4444,1.030189 -0.98979,1.636183 -0.5252,0.605994 -1.15139,0.848392 -0.6262,0.262597 -1.39379,0.262597 z m 2.82797,-3.716763 -4.88835,-10.907892 h 1.49479 l 4.32275,9.736304 z"
         id="path85670" />
      <path
         d="m -111.35334,37.510681 v -9.736304 l 0.3636,0.383797 h -4.38336 v -1.252388 h 9.47371 v 1.252388 h -4.38336 l 0.3636,-0.383797 v 9.736304 z"
         id="path85672" />
      <path
         d="m -105.63884,40.459852 0.88879,-3.736963 0.1616,0.868591 q -0.4646,0 -0.7878,-0.302997 -0.30299,-0.302997 -0.30299,-0.787792 0,-0.484795 0.30299,-0.787792 0.3232,-0.302997 0.7676,-0.302997 0.46459,0 0.74739,0.323197 0.303,0.323197 0.303,0.767592 0,0.161599 -0.0202,0.323197 -0.0202,0.161598 -0.0808,0.363596 -0.0606,0.201998 -0.1616,0.484796 l -0.84839,2.787572 z"
         id="path85674" />
      <path
         d="M -222.23093,62.760432 V 52.155537 h 1.43419 v 4.686353 h 6.68613 v -4.686353 h 1.43419 v 10.604895 h -1.43419 v -4.686354 h -6.68613 v 4.686354 z"
         id="path85676" />
      <path
         d="m -204.23292,62.861431 q -1.53519,0 -2.76737,-0.686793 -1.21199,-0.706993 -1.91899,-1.918981 -0.70699,-1.232188 -0.70699,-2.807773 0,-1.595784 0.70699,-2.807772 0.707,-1.211988 1.91899,-1.898781 1.21198,-0.686793 2.76737,-0.686793 1.57558,0 2.78757,0.686793 1.23219,0.686793 1.91898,1.898781 0.70699,1.211988 0.70699,2.807772 0,1.575585 -0.70699,2.807773 -0.68679,1.211988 -1.91898,1.918981 -1.23219,0.686793 -2.78757,0.686793 z m 0,-1.272588 q 1.15139,0 2.04018,-0.504995 0.88879,-0.525194 1.39378,-1.454385 0.5252,-0.949391 0.5252,-2.181579 0,-1.252387 -0.5252,-2.181578 -0.50499,-0.929191 -1.39378,-1.434186 -0.88879,-0.525195 -2.01998,-0.525195 -1.13119,0 -2.01998,0.525195 -0.88879,0.504995 -1.41399,1.434186 -0.52519,0.929191 -0.52519,2.181578 0,1.232188 0.52519,2.181579 0.5252,0.929191 1.41399,1.454385 0.88879,0.504995 1.99978,0.504995 z"
         id="path85678" />
      <path
         d="M -195.74901,62.760432 V 52.155537 h 4.68635 q 1.79778,0 2.82797,0.686793 1.05039,0.686793 1.05039,2.01998 0,1.292787 -0.98979,1.99978 -0.98979,0.686793 -2.60577,0.686793 l 0.2828,-0.424196 q 1.89878,0 2.78757,0.706993 0.88879,0.706993 0.88879,2.04018 0,1.373587 -1.00999,2.141179 -0.98979,0.747393 -3.09057,0.747393 z m 1.39378,-1.131189 h 3.37337 q 1.35339,0 2.04018,-0.424196 0.70699,-0.444395 0.70699,-1.413986 0,-0.96959 -0.62619,-1.413986 -0.62619,-0.444396 -1.97958,-0.444396 h -3.51477 z m 0,-4.767153 h 3.19157 q 1.23219,0 1.87858,-0.464595 0.6666,-0.464596 0.6666,-1.353387 0,-0.888791 -0.6666,-1.333187 -0.64639,-0.444395 -1.87858,-0.444395 h -3.19157 z"
         id="path85680" />
      <path
         d="M -173.12524,62.760432 V 52.155537 h 1.43418 v 10.604895 z m -5.87814,-6.867932 q 1.99978,0.0202 3.05017,0.888791 1.05039,0.868591 1.05039,2.504775 0,1.696783 -1.13119,2.605774 -1.13119,0.908991 -3.23197,0.888792 l -4.20156,-0.0202 V 52.155537 h 1.43419 V 55.8521 Z m -0.3636,5.797342 q 1.49479,0.0202 2.24218,-0.585794 0.76759,-0.626194 0.76759,-1.817982 0,-1.191788 -0.74739,-1.737183 -0.74739,-0.565594 -2.26238,-0.585794 l -2.66637,-0.0404 v 4.726754 z"
         id="path85682" />
      <path
         d="m -163.06574,62.861431 q -1.65639,0 -2.90877,-0.686793 -1.25239,-0.706993 -1.95938,-1.918981 -0.707,-1.232188 -0.707,-2.807773 0,-1.575584 0.6666,-2.787572 0.68679,-1.211988 1.85838,-1.898781 1.19179,-0.706993 2.66637,-0.706993 1.49479,0 2.64618,0.686793 1.17158,0.666593 1.83818,1.898781 0.66659,1.211988 0.66659,2.807772 0,0.100999 -0.0202,0.222198 0,0.100999 0,0.222198 h -9.23131 v -1.07059 h 8.46372 l -0.5656,0.424196 q 0,-1.151388 -0.50499,-2.04018 -0.4848,-0.908991 -1.33319,-1.413986 -0.84839,-0.504995 -1.95938,-0.504995 -1.09079,0 -1.95938,0.504995 -0.86859,0.504995 -1.35339,1.413986 -0.48479,0.908991 -0.48479,2.08058 v 0.222198 q 0,1.211988 0.52519,2.141178 0.5454,0.908992 1.49479,1.434186 0.96959,0.504995 2.20178,0.504995 0.96959,0 1.79778,-0.343396 0.84839,-0.343397 1.45439,-1.05039 l 0.80799,0.929191 q -0.707,0.848392 -1.77758,1.292787 -1.05039,0.444396 -2.32298,0.444396 z"
         id="path85684" />
      <path
         d="M -149.83492,62.760432 V 52.155537 h 4.68635 q 1.79778,0 2.82797,0.686793 1.05039,0.686793 1.05039,2.01998 0,1.292787 -0.98979,1.99978 -0.98979,0.686793 -2.60577,0.686793 l 0.28279,-0.424196 q 1.89878,0 2.78758,0.706993 0.88879,0.706993 0.88879,2.04018 0,1.373587 -1.00999,2.141179 -0.98979,0.747393 -3.09057,0.747393 z m 1.39378,-1.131189 h 3.37337 q 1.35338,0 2.04018,-0.424196 0.70699,-0.444395 0.70699,-1.413986 0,-0.96959 -0.62619,-1.413986 -0.6262,-0.444396 -1.97958,-0.444396 h -3.51477 z m 0,-4.767153 h 3.19157 q 1.23219,0 1.87858,-0.464595 0.66659,-0.464596 0.66659,-1.353387 0,-0.888791 -0.66659,-1.333187 -0.64639,-0.444395 -1.87858,-0.444395 h -3.19157 z"
         id="path85686" />
      <path
         d="M -127.21116,62.760432 V 52.155537 h 1.43419 V 62.760432 Z M -133.0893,55.8925 q 1.99978,0.0202 3.05017,0.888791 1.05039,0.868591 1.05039,2.504775 0,1.696783 -1.13119,2.605774 -1.13119,0.908991 -3.23196,0.888792 l -4.20156,-0.0202 V 52.155537 h 1.43418 V 55.8521 Z m -0.36359,5.797342 q 1.49478,0.0202 2.24217,-0.585794 0.7676,-0.626194 0.7676,-1.817982 0,-1.191788 -0.7474,-1.737183 -0.74739,-0.565594 -2.26237,-0.585794 l -2.66638,-0.0404 v 4.726754 z"
         id="path85688" />
      <path
         d="m -116.92946,62.881631 q -1.29279,0 -2.30278,-0.424196 -0.98979,-0.424196 -1.69678,-1.292787 -0.70699,-0.868592 -1.07059,-2.141179 -0.36359,-1.292788 -0.36359,-2.989571 0,-1.514985 0.28279,-2.646174 0.2828,-1.151388 0.78779,-1.97958 0.505,-0.828192 1.17159,-1.393786 0.6868,-0.585795 1.47459,-0.929191 0.80799,-0.363597 1.65638,-0.545395 l 4.76715,-1.110989 0.2424,1.333187 -4.48435,1.00999 q -0.4242,0.100999 -1.03019,0.282797 -0.5858,0.181798 -1.21199,0.545395 -0.606,0.363596 -1.13119,1.00999 -0.52519,0.646394 -0.84839,1.676583 -0.303,1.00999 -0.303,2.524975 0,0.323197 0.0202,0.525195 0.0202,0.181798 0.0404,0.403996 0.0404,0.201998 0.0606,0.605994 l -0.62619,-0.525195 q 0.22219,-1.232187 0.90899,-2.141178 0.68679,-0.929191 1.71698,-1.434186 1.05039,-0.525195 2.32298,-0.525195 1.47458,0 2.62597,0.646394 1.15139,0.626193 1.79778,1.757382 0.6666,1.131189 0.6666,2.625974 0,1.474586 -0.6868,2.646174 -0.66659,1.171589 -1.89878,1.838182 -1.23218,0.646394 -2.88857,0.646394 z m 0.1616,-1.191789 q 1.13119,0 1.99978,-0.504995 0.86859,-0.525194 1.35339,-1.413986 0.50499,-0.888791 0.50499,-1.99978 0,-1.090789 -0.50499,-1.939181 -0.4848,-0.848391 -1.35339,-1.333187 -0.86859,-0.504995 -2.01998,-0.504995 -1.13119,0 -1.99978,0.484796 -0.86859,0.464595 -1.37359,1.312987 -0.48479,0.848391 -0.48479,1.95938 0,1.110989 0.48479,1.99978 0.505,0.888792 1.37359,1.413987 0.88879,0.525194 2.01998,0.525194 z"
         id="path85690" />
      <path
         d="m -104.02182,62.861431 q -1.53518,0 -2.76737,-0.686793 -1.21199,-0.706993 -1.91898,-1.918981 -0.70699,-1.232188 -0.70699,-2.807773 0,-1.595784 0.70699,-2.807772 0.70699,-1.211988 1.91898,-1.898781 1.21199,-0.686793 2.76737,-0.686793 1.57559,0 2.78758,0.686793 1.23218,0.686793 1.918977,1.898781 0.706993,1.211988 0.706993,2.807772 0,1.575585 -0.706993,2.807773 -0.686797,1.211988 -1.918977,1.918981 -1.23219,0.686793 -2.78758,0.686793 z m 0,-1.272588 q 1.15139,0 2.04018,-0.504995 0.88879,-0.525194 1.39379,-1.454385 0.52519,-0.949391 0.52519,-2.181579 0,-1.252387 -0.52519,-2.181578 -0.505,-0.929191 -1.39379,-1.434186 -0.88879,-0.525195 -2.01998,-0.525195 -1.13119,0 -2.01998,0.525195 -0.88879,0.504995 -1.41398,1.434186 -0.5252,0.929191 -0.5252,2.181578 0,1.232188 0.5252,2.181579 0.52519,0.929191 1.41398,1.454385 0.88879,0.504995 1.99978,0.504995 z"
         id="path85692" />
      <path
         d="m -90.063759,62.861431 q -1.373586,0 -2.484575,-0.626194 -1.110989,-0.646394 -1.777583,-1.838182 -0.646393,-1.211988 -0.646393,-2.949171 0,-1.737183 0.646393,-2.928971 0.646394,-1.211988 1.757383,-1.838182 1.110989,-0.626193 2.504775,-0.626193 1.514985,0 2.706773,0.686793 1.211988,0.666593 1.898782,1.898781 0.686793,1.211988 0.686793,2.807772 0,1.615984 -0.686793,2.827972 -0.686794,1.211988 -1.898782,1.898782 -1.191788,0.686793 -2.706773,0.686793 z m -5.474146,3.817762 V 52.155537 h 1.373587 v 3.191568 l -0.141399,2.120979 0.201998,2.141179 v 7.06993 z m 5.373147,-5.09035 q 1.131189,0 2.01998,-0.504995 0.888791,-0.525194 1.413986,-1.454385 0.525195,-0.949391 0.525195,-2.181579 0,-1.232188 -0.525195,-2.161378 -0.525195,-0.929191 -1.413986,-1.454386 -0.888791,-0.525195 -2.01998,-0.525195 -1.131189,0 -2.04018,0.525195 -0.888791,0.525195 -1.413986,1.454386 -0.504995,0.92919 -0.504995,2.161378 0,1.232188 0.504995,2.181579 0.525195,0.929191 1.413986,1.454385 0.908991,0.504995 2.04018,0.504995 z"
         id="path85694" />
      <path
         d="M -71.338567,62.760432 V 52.155537 h 1.434186 V 62.760432 Z M -77.216708,55.8925 q 1.99978,0.0202 3.050169,0.888791 1.05039,0.868591 1.05039,2.504775 0,1.696783 -1.131189,2.605774 -1.131189,0.908991 -3.231968,0.888792 l -4.201558,-0.0202 V 52.155537 h 1.434185 V 55.8521 Z m -0.363597,5.797342 q 1.494785,0.0202 2.242178,-0.585794 0.767592,-0.626194 0.767592,-1.817982 0,-1.191788 -0.747392,-1.737183 -0.747393,-0.565594 -2.262378,-0.585794 l -2.666374,-0.0404 v 4.726754 z"
         id="path85696" />
    </g>
    <g
       aria-label="таймаут, новые выборы"
       transform="matrix(0.24262919,0,0,0.24262919,178.82644,-2.419099)"
       id="text43576-0"
       style="font-size:20.1998px;line-height:1.25;font-family:Montserrat;-inkscape-font-specification:Montserrat;text-align:center;text-anchor:middle;display:inline;stroke-width:0.946867">
      <path
         d="m -388.46107,106.38269 v -9.736303 l 0.3636,0.383796 h -4.38336 v -1.252388 h 9.47371 v 1.252388 h -4.38336 l 0.3636,-0.383796 v 9.736303 z"
         id="path85738" />
      <path
         d="m -374.34142,106.38269 v -2.34318 l -0.0606,-0.38379 v -3.918764 q 0,-1.353387 -0.76759,-2.080579 -0.74739,-0.727193 -2.24218,-0.727193 -1.03019,0 -1.95938,0.343396 -0.92919,0.343397 -1.57558,0.908991 l -0.6464,-1.070589 q 0.80799,-0.686793 1.93918,-1.05039 1.13119,-0.383796 2.38358,-0.383796 2.06038,0 3.17137,1.03019 1.13119,1.00999 1.13119,3.090569 v 6.585135 z m -3.65616,0.101 q -1.19179,0 -2.08058,-0.3838 -0.86859,-0.40399 -1.33319,-1.09079 -0.46459,-0.70699 -0.46459,-1.61598 0,-0.82819 0.38379,-1.49479 0.404,-0.68679 1.29279,-1.09078 0.90899,-0.4242 2.42397,-0.4242 h 3.65617 v 1.07059 h -3.61577 q -1.53518,0 -2.14117,0.54539 -0.5858,0.5454 -0.5858,1.35339 0,0.90899 0.70699,1.45439 0.707,0.54539 1.97958,0.54539 1.21199,0 2.08058,-0.54539 0.8888,-0.5656 1.29279,-1.61599 l 0.3232,0.98979 q -0.404,1.05039 -1.41399,1.67659 -0.98979,0.62619 -2.50477,0.62619 z"
         id="path85740" />
      <path
         d="M -369.1501,106.38269 V 95.777795 h 1.43418 v 8.423315 l 7.09013,-8.423315 h 1.27259 v 10.604895 h -1.43419 v -8.443516 l -7.06993,8.443516 z m 4.80755,-12.14008 q -1.33319,0 -2.16138,-0.666593 -0.80799,-0.686793 -0.84839,-1.959381 h 1.03019 q 0.0202,0.807992 0.56559,1.272588 0.5454,0.464595 1.41399,0.464595 0.86859,0 1.41398,-0.464595 0.5656,-0.464596 0.5858,-1.272588 h 1.03019 q -0.0202,1.272588 -0.84839,1.959381 -0.8282,0.666593 -2.18158,0.666593 z"
         id="path85742" />
      <path
         d="M -355.25265,106.38269 V 95.777795 h 1.45439 l 4.80755,8.140515 h -0.606 l 4.88836,-8.140515 h 1.33318 v 10.604895 h -1.31298 v -8.968711 l 0.26259,0.121199 -4.56515,7.554722 h -0.64639 l -4.60556,-7.635521 0.303,-0.0606 v 8.988911 z"
         id="path85744" />
      <path
         d="m -332.70969,106.38269 v -2.34318 l -0.0606,-0.38379 v -3.918764 q 0,-1.353387 -0.76759,-2.080579 -0.74739,-0.727193 -2.24218,-0.727193 -1.03019,0 -1.95938,0.343396 -0.92919,0.343397 -1.57558,0.908991 l -0.6464,-1.070589 q 0.80799,-0.686793 1.93918,-1.05039 1.13119,-0.383796 2.38358,-0.383796 2.06038,0 3.17137,1.03019 1.13119,1.00999 1.13119,3.090569 v 6.585135 z m -3.65616,0.101 q -1.19179,0 -2.08058,-0.3838 -0.86859,-0.40399 -1.33319,-1.09079 -0.4646,-0.70699 -0.4646,-1.61598 0,-0.82819 0.3838,-1.49479 0.404,-0.68679 1.29279,-1.09078 0.90899,-0.4242 2.42397,-0.4242 h 3.65617 v 1.07059 h -3.61577 q -1.53518,0 -2.14118,0.54539 -0.58579,0.5454 -0.58579,1.35339 0,0.90899 0.70699,1.45439 0.707,0.54539 1.97958,0.54539 1.21199,0 2.08058,-0.54539 0.88879,-0.5656 1.29279,-1.61599 l 0.3232,0.98979 q -0.404,1.05039 -1.41399,1.67659 -0.98979,0.62619 -2.50477,0.62619 z"
         id="path85746" />
      <path
         d="m -327.33658,110.40245 q -0.74739,0 -1.43418,-0.2424 -0.66659,-0.24239 -1.15139,-0.72719 l 0.66659,-1.07059 q 0.404,0.3838 0.86859,0.5858 0.4848,0.22219 1.07059,0.22219 0.707,0 1.21199,-0.40399 0.5252,-0.3838 0.98979,-1.37359 l 0.6868,-1.55538 0.16159,-0.2222 4.36316,-9.837305 h 1.41399 l -5.31255,11.877485 q -0.4444,1.03019 -0.98979,1.63618 -0.5252,0.606 -1.15139,0.84839 -0.62619,0.2626 -1.39379,0.2626 z m 2.82798,-3.71676 -4.88836,-10.907895 h 1.49479 l 4.32276,9.736305 z"
         id="path85748" />
      <path
         d="m -314.22693,106.38269 v -9.736303 l 0.36359,0.383796 h -4.38335 v -1.252388 h 9.4737 v 1.252388 h -4.38335 l 0.36359,-0.383796 v 9.736303 z"
         id="path85750" />
      <path
         d="m -308.51244,109.33186 0.88879,-3.73696 0.1616,0.86859 q -0.4646,0 -0.78779,-0.303 -0.303,-0.30299 -0.303,-0.78779 0,-0.48479 0.303,-0.78779 0.32319,-0.303 0.76759,-0.303 0.4646,0 0.74739,0.3232 0.303,0.32319 0.303,0.76759 0,0.1616 -0.0202,0.3232 -0.0202,0.1616 -0.0808,0.36359 -0.0606,0.202 -0.1616,0.4848 l -0.84839,2.78757 z"
         id="path85752" />
      <path
         d="m -425.10452,131.63244 v -10.60489 h 1.43418 v 4.68635 h 6.68614 v -4.68635 h 1.43418 v 10.60489 h -1.43418 v -4.68635 h -6.68614 v 4.68635 z"
         id="path85754" />
      <path
         d="m -407.10652,131.73344 q -1.53518,0 -2.76737,-0.68679 -1.21199,-0.707 -1.91898,-1.91898 -0.70699,-1.23219 -0.70699,-2.80778 0,-1.59578 0.70699,-2.80777 0.70699,-1.21199 1.91898,-1.89878 1.21199,-0.68679 2.76737,-0.68679 1.57559,0 2.78757,0.68679 1.23219,0.68679 1.91899,1.89878 0.70699,1.21199 0.70699,2.80777 0,1.57559 -0.70699,2.80778 -0.6868,1.21198 -1.91899,1.91898 -1.23218,0.68679 -2.78757,0.68679 z m 0,-1.27259 q 1.15139,0 2.04018,-0.50499 0.88879,-0.5252 1.39379,-1.45439 0.52519,-0.94939 0.52519,-2.18158 0,-1.25238 -0.52519,-2.18157 -0.505,-0.9292 -1.39379,-1.43419 -0.88879,-0.5252 -2.01998,-0.5252 -1.13119,0 -2.01998,0.5252 -0.88879,0.50499 -1.41398,1.43419 -0.5252,0.92919 -0.5252,2.18157 0,1.23219 0.5252,2.18158 0.52519,0.92919 1.41398,1.45439 0.88879,0.50499 1.99978,0.50499 z"
         id="path85756" />
      <path
         d="m -398.62261,131.63244 v -10.60489 h 4.68636 q 1.79778,0 2.82797,0.68679 1.05039,0.68679 1.05039,2.01998 0,1.29279 -0.98979,1.99978 -0.98979,0.68679 -2.60578,0.68679 l 0.2828,-0.42419 q 1.89878,0 2.78757,0.70699 0.88879,0.70699 0.88879,2.04018 0,1.37359 -1.00999,2.14118 -0.98979,0.74739 -3.09057,0.74739 z m 1.39379,-1.13119 h 3.37336 q 1.35339,0 2.04018,-0.42419 0.707,-0.4444 0.707,-1.41399 0,-0.96959 -0.6262,-1.41399 -0.62619,-0.44439 -1.97958,-0.44439 h -3.51476 z m 0,-4.76715 h 3.19157 q 1.23218,0 1.87858,-0.4646 0.66659,-0.46459 0.66659,-1.35338 0,-0.88879 -0.66659,-1.33319 -0.6464,-0.4444 -1.87858,-0.4444 h -3.19157 z"
         id="path85758" />
      <path
         d="m -375.99884,131.63244 v -10.60489 h 1.43419 v 10.60489 z m -5.87814,-6.86793 q 1.99978,0.0202 3.05017,0.88879 1.05039,0.86859 1.05039,2.50478 0,1.69678 -1.13119,2.60577 -1.13119,0.90899 -3.23197,0.88879 l -4.20156,-0.0202 v -10.60489 h 1.43419 v 3.69656 z m -0.3636,5.79734 q 1.49479,0.0202 2.24218,-0.58579 0.76759,-0.6262 0.76759,-1.81798 0,-1.19179 -0.74739,-1.73719 -0.74739,-0.56559 -2.26238,-0.58579 l -2.66637,-0.0404 v 4.72675 z"
         id="path85760" />
      <path
         d="m -365.93934,131.73344 q -1.65638,0 -2.90877,-0.68679 -1.25239,-0.707 -1.95938,-1.91898 -0.70699,-1.23219 -0.70699,-2.80778 0,-1.57558 0.66659,-2.78757 0.68679,-1.21199 1.85838,-1.89878 1.19179,-0.70699 2.66638,-0.70699 1.49478,0 2.64617,0.68679 1.17159,0.66659 1.83818,1.89878 0.66659,1.21199 0.66659,2.80777 0,0.101 -0.0202,0.2222 0,0.101 0,0.2222 h -9.23131 v -1.07059 h 8.46371 l -0.56559,0.4242 q 0,-1.15139 -0.505,-2.04018 -0.48479,-0.909 -1.33318,-1.41399 -0.8484,-0.505 -1.95938,-0.505 -1.09079,0 -1.95938,0.505 -0.8686,0.50499 -1.35339,1.41399 -0.4848,0.90899 -0.4848,2.08058 v 0.22219 q 0,1.21199 0.5252,2.14118 0.54539,0.90899 1.49478,1.43419 0.96959,0.50499 2.20178,0.50499 0.96959,0 1.79778,-0.34339 0.8484,-0.3434 1.45439,-1.05039 l 0.80799,0.92919 q -0.70699,0.84839 -1.77758,1.29278 -1.05039,0.4444 -2.32298,0.4444 z"
         id="path85762" />
      <path
         d="m -352.70852,131.63244 v -10.60489 h 4.68635 q 1.79779,0 2.82797,0.68679 1.05039,0.68679 1.05039,2.01998 0,1.29279 -0.98979,1.99978 -0.98979,0.68679 -2.60577,0.68679 l 0.2828,-0.42419 q 1.89878,0 2.78757,0.70699 0.88879,0.70699 0.88879,2.04018 0,1.37359 -1.00999,2.14118 -0.98979,0.74739 -3.09057,0.74739 z m 1.39379,-1.13119 h 3.37336 q 1.35339,0 2.04018,-0.42419 0.70699,-0.4444 0.70699,-1.41399 0,-0.96959 -0.62619,-1.41399 -0.62619,-0.44439 -1.97958,-0.44439 h -3.51476 z m 0,-4.76715 h 3.19156 q 1.23219,0 1.87859,-0.4646 0.66659,-0.46459 0.66659,-1.35338 0,-0.88879 -0.66659,-1.33319 -0.6464,-0.4444 -1.87859,-0.4444 h -3.19156 z"
         id="path85764" />
      <path
         d="m -330.08475,131.63244 v -10.60489 h 1.43418 v 10.60489 z m -5.87814,-6.86793 q 1.99978,0.0202 3.05017,0.88879 1.05039,0.86859 1.05039,2.50478 0,1.69678 -1.13119,2.60577 -1.13119,0.90899 -3.23197,0.88879 l -4.20156,-0.0202 v -10.60489 h 1.43419 v 3.69656 z m -0.3636,5.79734 q 1.49479,0.0202 2.24218,-0.58579 0.76759,-0.6262 0.76759,-1.81798 0,-1.19179 -0.74739,-1.73719 -0.7474,-0.56559 -2.26238,-0.58579 l -2.66637,-0.0404 v 4.72675 z"
         id="path85766" />
      <path
         d="m -319.80305,131.75364 q -1.29279,0 -2.30278,-0.4242 -0.98979,-0.42419 -1.69679,-1.29278 -0.70699,-0.86859 -1.07058,-2.14118 -0.3636,-1.29279 -0.3636,-2.98957 0,-1.51499 0.2828,-2.64618 0.28279,-1.15139 0.78779,-1.97958 0.50499,-0.82819 1.17159,-1.39378 0.68679,-0.5858 1.47458,-0.92919 0.80799,-0.3636 1.65639,-0.5454 l 4.76715,-1.11099 0.2424,1.33319 -4.48436,1.00999 q -0.4242,0.101 -1.03019,0.2828 -0.58579,0.18179 -1.21199,0.54539 -0.60599,0.3636 -1.13119,1.00999 -0.52519,0.64639 -0.84839,1.67658 -0.30299,1.00999 -0.30299,2.52498 0,0.3232 0.0202,0.52519 0.0202,0.1818 0.0404,0.404 0.0404,0.202 0.0606,0.60599 l -0.62619,-0.52519 q 0.2222,-1.23219 0.90899,-2.14118 0.68679,-0.92919 1.71698,-1.43418 1.05039,-0.5252 2.32298,-0.5252 1.47459,0 2.62598,0.64639 1.15138,0.6262 1.79778,1.75739 0.66659,1.13119 0.66659,2.62597 0,1.47459 -0.68679,2.64617 -0.6666,1.17159 -1.89878,1.83819 -1.23219,0.64639 -2.88857,0.64639 z m 0.16159,-1.19179 q 1.13119,0 1.99978,-0.50499 0.8686,-0.5252 1.35339,-1.41399 0.505,-0.88879 0.505,-1.99978 0,-1.09079 -0.505,-1.93918 -0.48479,-0.84839 -1.35339,-1.33319 -0.86859,-0.50499 -2.01998,-0.50499 -1.13118,0 -1.99978,0.48479 -0.86859,0.4646 -1.37358,1.31299 -0.4848,0.84839 -0.4848,1.95938 0,1.11099 0.4848,1.99978 0.50499,0.88879 1.37358,1.41399 0.88879,0.52519 2.01998,0.52519 z"
         id="path85768" />
      <path
         d="m -306.89541,131.73344 q -1.53519,0 -2.76738,-0.68679 -1.21198,-0.707 -1.91898,-1.91898 -0.70699,-1.23219 -0.70699,-2.80778 0,-1.59578 0.70699,-2.80777 0.707,-1.21199 1.91898,-1.89878 1.21199,-0.68679 2.76738,-0.68679 1.57558,0 2.78757,0.68679 1.23219,0.68679 1.91898,1.89878 0.70699,1.21199 0.70699,2.80777 0,1.57559 -0.70699,2.80778 -0.68679,1.21198 -1.91898,1.91898 -1.23219,0.68679 -2.78757,0.68679 z m 0,-1.27259 q 1.15139,0 2.04018,-0.50499 0.88879,-0.5252 1.39378,-1.45439 0.5252,-0.94939 0.5252,-2.18158 0,-1.25238 -0.5252,-2.18157 -0.50499,-0.9292 -1.39378,-1.43419 -0.88879,-0.5252 -2.01998,-0.5252 -1.13119,0 -2.01998,0.5252 -0.88879,0.50499 -1.41399,1.43419 -0.52519,0.92919 -0.52519,2.18157 0,1.23219 0.52519,2.18158 0.5252,0.92919 1.41399,1.45439 0.88879,0.50499 1.99978,0.50499 z"
         id="path85770" />
      <path
         d="m -292.93736,131.73344 q -1.37358,0 -2.48457,-0.62619 -1.11099,-0.6464 -1.77758,-1.83819 -0.6464,-1.21198 -0.6464,-2.94917 0,-1.73718 0.6464,-2.92897 0.64639,-1.21199 1.75738,-1.83818 1.11099,-0.62619 2.50477,-0.62619 1.51499,0 2.70678,0.68679 1.21199,0.66659 1.89878,1.89878 0.68679,1.21199 0.68679,2.80777 0,1.61599 -0.68679,2.82798 -0.68679,1.21198 -1.89878,1.89878 -1.19179,0.68679 -2.70678,0.68679 z m -5.47414,3.81776 v -14.52365 h 1.37359 v 3.19156 l -0.1414,2.12098 0.20199,2.14118 v 7.06993 z m 5.37315,-5.09035 q 1.13118,0 2.01998,-0.50499 0.88879,-0.5252 1.41398,-1.45439 0.5252,-0.94939 0.5252,-2.18158 0,-1.23218 -0.5252,-2.16138 -0.52519,-0.92919 -1.41398,-1.45438 -0.8888,-0.5252 -2.01998,-0.5252 -1.13119,0 -2.04018,0.5252 -0.8888,0.52519 -1.41399,1.45438 -0.50499,0.9292 -0.50499,2.16138 0,1.23219 0.50499,2.18158 0.52519,0.92919 1.41399,1.45439 0.90899,0.50499 2.04018,0.50499 z"
         id="path85772" />
      <path
         d="m -274.21216,131.63244 v -10.60489 h 1.43418 v 10.60489 z m -5.87814,-6.86793 q 1.99978,0.0202 3.05017,0.88879 1.05038,0.86859 1.05038,2.50478 0,1.69678 -1.13118,2.60577 -1.13119,0.90899 -3.23197,0.88879 l -4.20156,-0.0202 v -10.60489 h 1.43419 v 3.69656 z m -0.3636,5.79734 q 1.49478,0.0202 2.24218,-0.58579 0.76759,-0.6262 0.76759,-1.81798 0,-1.19179 -0.74739,-1.73719 -0.7474,-0.56559 -2.26238,-0.58579 l -2.66637,-0.0404 v 4.72675 z"
         id="path85774" />
    </g>
    <g
       aria-label="старт"
       transform="matrix(0.24262919,0,0,0.24262919,178.82644,-2.419099)"
       id="text43576-0-2"
       style="font-size:20.1998px;line-height:1.25;font-family:Montserrat;-inkscape-font-specification:Montserrat;text-align:center;text-anchor:middle;display:inline;stroke-width:0.946867">
      <path
         d="m -535.18919,176.05974 q -1.57559,0 -2.82797,-0.68679 -1.23219,-0.707 -1.93918,-1.91899 -0.707,-1.23218 -0.707,-2.80777 0,-1.59578 0.707,-2.80777 0.70699,-1.21199 1.93918,-1.89878 1.25238,-0.68679 2.82797,-0.68679 1.35339,0 2.44417,0.52519 1.09079,0.5252 1.71699,1.57559 l -1.07059,0.72719 q -0.5454,-0.80799 -1.35339,-1.19179 -0.80799,-0.3838 -1.75738,-0.3838 -1.13119,0 -2.04018,0.5252 -0.90899,0.50499 -1.43419,1.43418 -0.52519,0.9292 -0.52519,2.18158 0,1.25239 0.52519,2.18158 0.5252,0.92919 1.43419,1.45439 0.90899,0.50499 2.04018,0.50499 0.94939,0 1.75738,-0.38379 0.80799,-0.3838 1.35339,-1.17159 l 1.07059,0.72719 q -0.6262,1.03019 -1.71699,1.57558 -1.09078,0.5252 -2.44417,0.5252 z"
         id="path85777" />
      <path
         d="m -526.44069,175.95874 v -9.7363 l 0.3636,0.38379 h -4.38336 v -1.25239 h 9.47371 v 1.25239 h -4.38336 l 0.3636,-0.38379 v 9.7363 z"
         id="path85779" />
      <path
         d="m -512.32103,175.95874 v -2.34318 l -0.0606,-0.38379 v -3.91876 q 0,-1.35339 -0.7676,-2.08058 -0.74739,-0.7272 -2.24217,-0.7272 -1.03019,0 -1.95938,0.3434 -0.9292,0.3434 -1.57559,0.90899 l -0.64639,-1.07059 q 0.80799,-0.68679 1.93918,-1.05039 1.13119,-0.38379 2.38357,-0.38379 2.06038,0 3.17137,1.03019 1.13119,1.00999 1.13119,3.09057 v 6.58513 z m -3.65617,0.101 q -1.19179,0 -2.08058,-0.3838 -0.86859,-0.40399 -1.33318,-1.09079 -0.4646,-0.70699 -0.4646,-1.61598 0,-0.82819 0.3838,-1.49479 0.40399,-0.68679 1.29278,-1.09078 0.90899,-0.4242 2.42398,-0.4242 h 3.65616 v 1.07059 h -3.61576 q -1.53519,0 -2.14118,0.54539 -0.58579,0.5454 -0.58579,1.35339 0,0.90899 0.70699,1.45439 0.70699,0.54539 1.97958,0.54539 1.21199,0 2.08058,-0.54539 0.88879,-0.5656 1.29279,-1.61599 l 0.32319,0.98979 q -0.40399,1.05039 -1.41398,1.67659 -0.98979,0.62619 -2.50478,0.62619 z"
         id="path85781" />
      <path
         d="m -501.65557,176.05974 q -1.37359,0 -2.48458,-0.62619 -1.11099,-0.6464 -1.77758,-1.83819 -0.64639,-1.21198 -0.64639,-2.94917 0,-1.73718 0.64639,-2.92897 0.64639,-1.21199 1.75738,-1.83818 1.11099,-0.62619 2.50478,-0.62619 1.51498,0 2.70677,0.68679 1.21199,0.66659 1.89878,1.89878 0.6868,1.21199 0.6868,2.80777 0,1.61599 -0.6868,2.82797 -0.68679,1.21199 -1.89878,1.89879 -1.19179,0.68679 -2.70677,0.68679 z m -5.47415,3.81776 v -14.52366 h 1.37359 v 3.19157 l -0.1414,2.12098 0.202,2.14118 v 7.06993 z m 5.37315,-5.09035 q 1.13119,0 2.01998,-0.50499 0.88879,-0.5252 1.41398,-1.45439 0.5252,-0.94939 0.5252,-2.18158 0,-1.23219 -0.5252,-2.16138 -0.52519,-0.92919 -1.41398,-1.45438 -0.88879,-0.5252 -2.01998,-0.5252 -1.13119,0 -2.04018,0.5252 -0.88879,0.52519 -1.41399,1.45438 -0.50499,0.92919 -0.50499,2.16138 0,1.23219 0.50499,2.18158 0.5252,0.92919 1.41399,1.45439 0.90899,0.50499 2.04018,0.50499 z"
         id="path85783" />
      <path
         d="m -491.6567,175.95874 v -9.7363 l 0.3636,0.38379 h -4.38336 v -1.25239 h 9.47371 v 1.25239 h -4.38336 l 0.36359,-0.38379 v 9.7363 z"
         id="path85785" />
    </g>
    <g
       aria-label="обнаружен новый терм"
       transform="matrix(0.24262919,0,0,0.24262919,218.27049,-8.2071643)"
       id="text43576-9-6"
       style="font-size:20.1998px;line-height:1.25;font-family:Montserrat;-inkscape-font-specification:Montserrat;text-align:center;text-anchor:middle;display:inline;stroke-width:0.946867">
      <path
         d="m -189.24764,359.5385 q -1.53518,0 -2.76737,-0.68679 -1.21199,-0.707 -1.91898,-1.91899 -0.70699,-1.23218 -0.70699,-2.80777 0,-1.59578 0.70699,-2.80777 0.70699,-1.21199 1.91898,-1.89878 1.21199,-0.68679 2.76737,-0.68679 1.57559,0 2.78758,0.68679 1.23218,0.68679 1.91898,1.89878 0.70699,1.21199 0.70699,2.80777 0,1.57559 -0.70699,2.80777 -0.6868,1.21199 -1.91898,1.91899 -1.23219,0.68679 -2.78758,0.68679 z m 0,-1.27259 q 1.15139,0 2.04018,-0.50499 0.88879,-0.5252 1.39379,-1.45439 0.52519,-0.94939 0.52519,-2.18158 0,-1.25239 -0.52519,-2.18158 -0.505,-0.92919 -1.39379,-1.43418 -0.88879,-0.5252 -2.01998,-0.5252 -1.13119,0 -2.01998,0.5252 -0.88879,0.50499 -1.41398,1.43418 -0.5252,0.92919 -0.5252,2.18158 0,1.23219 0.5252,2.18158 0.52519,0.92919 1.41398,1.45439 0.88879,0.50499 1.99978,0.50499 z"
         id="path85825" />
      <path
         d="m -175.99657,359.5587 q -1.29279,0 -2.30278,-0.4242 -0.98979,-0.42419 -1.69678,-1.29278 -0.707,-0.8686 -1.07059,-2.14118 -0.3636,-1.29279 -0.3636,-2.98957 0,-1.51499 0.2828,-2.64618 0.28279,-1.15139 0.78779,-1.97958 0.50499,-0.82819 1.17159,-1.39378 0.68679,-0.5858 1.47458,-0.92919 0.808,-0.3636 1.65639,-0.5454 l 4.76715,-1.11099 0.2424,1.33319 -4.48436,1.00999 q -0.42419,0.101 -1.03019,0.2828 -0.58579,0.18179 -1.21199,0.54539 -0.60599,0.3636 -1.13119,1.00999 -0.52519,0.64639 -0.84839,1.67658 -0.30299,1.00999 -0.30299,2.52498 0,0.3232 0.0202,0.52519 0.0202,0.1818 0.0404,0.404 0.0404,0.202 0.0606,0.60599 l -0.6262,-0.52519 q 0.2222,-1.23219 0.90899,-2.14118 0.6868,-0.92919 1.71699,-1.43419 1.05039,-0.52519 2.32297,-0.52519 1.47459,0 2.62598,0.64639 1.15139,0.6262 1.79778,1.75739 0.66659,1.13118 0.66659,2.62597 0,1.47458 -0.68679,2.64617 -0.66659,1.17159 -1.89878,1.83819 -1.23219,0.64639 -2.88857,0.64639 z m 0.16159,-1.19179 q 1.13119,0 1.99978,-0.50499 0.8686,-0.5252 1.35339,-1.41399 0.505,-0.88879 0.505,-1.99978 0,-1.09079 -0.505,-1.93918 -0.48479,-0.84839 -1.35339,-1.33319 -0.86859,-0.50499 -2.01998,-0.50499 -1.13118,0 -1.99978,0.48479 -0.86859,0.4646 -1.37358,1.31299 -0.4848,0.84839 -0.4848,1.95938 0,1.11099 0.4848,1.99978 0.50499,0.88879 1.37358,1.41399 0.8888,0.52519 2.01998,0.52519 z"
         id="path85827" />
      <path
         d="m -167.45209,359.4375 v -10.6049 h 1.43419 v 4.68636 h 6.68613 v -4.68636 h 1.43419 v 10.6049 h -1.43419 v -4.68635 h -6.68613 v 4.68635 z"
         id="path85829" />
      <path
         d="m -147.2321,359.4375 v -2.34318 l -0.0606,-0.38379 v -3.91876 q 0,-1.35339 -0.76759,-2.08058 -0.7474,-0.7272 -2.24218,-0.7272 -1.03019,0 -1.95938,0.3434 -0.92919,0.3434 -1.57559,0.90899 l -0.64639,-1.07059 q 0.80799,-0.68679 1.93918,-1.05039 1.13119,-0.38379 2.38358,-0.38379 2.06038,0 3.17137,1.03019 1.13118,1.00999 1.13118,3.09057 v 6.58513 z m -3.65617,0.101 q -1.19178,0 -2.08058,-0.3838 -0.86859,-0.40399 -1.33318,-1.09079 -0.4646,-0.70699 -0.4646,-1.61598 0,-0.82819 0.3838,-1.49479 0.40399,-0.68679 1.29279,-1.09078 0.90899,-0.4242 2.42397,-0.4242 h 3.65617 v 1.07059 h -3.61577 q -1.53518,0 -2.14118,0.54539 -0.58579,0.5454 -0.58579,1.35339 0,0.90899 0.70699,1.45439 0.70699,0.54539 1.97958,0.54539 1.21199,0 2.08058,-0.54539 0.88879,-0.5656 1.29279,-1.61599 l 0.3232,0.98979 q -0.404,1.05039 -1.41399,1.67659 -0.98979,0.62619 -2.50478,0.62619 z"
         id="path85831" />
      <path
         d="m -136.56664,359.5385 q -1.37359,0 -2.48458,-0.62619 -1.11099,-0.6464 -1.77758,-1.83819 -0.6464,-1.21198 -0.6464,-2.94917 0,-1.73718 0.6464,-2.92897 0.64639,-1.21199 1.75738,-1.83818 1.11099,-0.62619 2.50478,-0.62619 1.51498,0 2.70677,0.68679 1.21199,0.66659 1.89878,1.89878 0.68679,1.21199 0.68679,2.80777 0,1.61599 -0.68679,2.82797 -0.68679,1.21199 -1.89878,1.89879 -1.19179,0.68679 -2.70677,0.68679 z m -5.47415,3.81776 V 348.8326 h 1.37359 v 3.19157 l -0.1414,2.12098 0.202,2.14118 v 7.06993 z m 5.37315,-5.09035 q 1.13119,0 2.01998,-0.50499 0.88879,-0.5252 1.41398,-1.45439 0.5252,-0.94939 0.5252,-2.18158 0,-1.23219 -0.5252,-2.16138 -0.52519,-0.92919 -1.41398,-1.45438 -0.88879,-0.5252 -2.01998,-0.5252 -1.13119,0 -2.04018,0.5252 -0.88879,0.52519 -1.41399,1.45438 -0.50499,0.92919 -0.50499,2.16138 0,1.23219 0.50499,2.18158 0.5252,0.92919 1.41399,1.45439 0.90899,0.50499 2.04018,0.50499 z"
         id="path85833" />
      <path
         d="m -128.30497,363.45726 q -0.74739,0 -1.43419,-0.2424 -0.66659,-0.24239 -1.15139,-0.72719 l 0.6666,-1.07059 q 0.40399,0.3838 0.86859,0.58579 0.48479,0.2222 1.07059,0.2222 0.70699,0 1.21199,-0.40399 0.52519,-0.3838 0.98979,-1.37359 l 0.68679,-1.55538 0.1616,-0.2222 4.36315,-9.83731 h 1.41399 l -5.31255,11.87749 q -0.44439,1.03019 -0.98979,1.63618 -0.52519,0.606 -1.15139,0.84839 -0.62619,0.2626 -1.39378,0.2626 z m 2.82797,-3.71676 -4.88835,-10.9079 h 1.49478 l 4.32276,9.73631 z"
         id="path85835" />
      <path
         d="m -105.23684,359.4375 -3.63597,-5.25195 1.19179,-0.70699 4.16116,5.95894 z m -6.01954,-4.72675 v -1.23219 h 3.35316 v 1.23219 z m 3.71676,-0.4242 -1.37359,-0.202 3.53497,-5.25195 h 1.55538 z m -10.2615,5.15095 h -1.71698 l 4.16116,-5.95894 1.17159,0.70699 z m 6.98913,0 h -1.43418 v -10.6049 h 1.43418 z m -0.98979,-4.72675 h -3.33297 v -1.23219 h 3.33297 z m -3.67636,-0.4242 -3.73697,-5.45395 h 1.55539 l 3.51476,5.25195 z"
         id="path85837" />
      <path
         d="m -96.972485,359.5385 q -1.656384,0 -2.908771,-0.68679 -1.252384,-0.707 -1.959384,-1.91899 -0.70699,-1.23218 -0.70699,-2.80777 0,-1.57558 0.66659,-2.78757 0.6868,-1.21199 1.85838,-1.89878 1.191793,-0.70699 2.666379,-0.70699 1.494785,0 2.646174,0.68679 1.171588,0.66659 1.838181,1.89878 0.666594,1.21199 0.666594,2.80777 0,0.101 -0.0202,0.2222 0,0.101 0,0.2222 h -9.231308 v -1.07059 h 8.463716 l -0.565595,0.42419 q 0,-1.15138 -0.504995,-2.04018 -0.484795,-0.90899 -1.333187,-1.41398 -0.848391,-0.505 -1.95938,-0.505 -1.09079,0 -1.959381,0.505 -0.868588,0.50499 -1.353388,1.41398 -0.48479,0.909 -0.48479,2.08058 v 0.2222 q 0,1.21199 0.52519,2.14118 0.5454,0.90899 1.494786,1.43419 0.969591,0.50499 2.201778,0.50499 0.969591,0 1.797783,-0.3434 0.848391,-0.34339 1.454385,-1.05038 l 0.807992,0.92919 q -0.706993,0.84839 -1.777582,1.29278 -1.05039,0.4444 -2.322977,0.4444 z"
         id="path85839" />
      <path
         d="m -89.033996,359.4375 v -10.6049 h 1.434186 v 4.68636 h 6.686134 v -4.68636 h 1.434186 v 10.6049 h -1.434186 v -4.68635 h -6.686134 v 4.68635 z"
         id="path85841" />
      <path
         d="m -197.09531,384.68725 v -10.60489 h 1.43419 v 4.68635 h 6.68613 v -4.68635 h 1.43419 v 10.60489 h -1.43419 v -4.68635 h -6.68613 v 4.68635 z"
         id="path85843" />
      <path
         d="m -179.0973,384.78825 q -1.53519,0 -2.76738,-0.68679 -1.21198,-0.707 -1.91898,-1.91898 -0.70699,-1.23219 -0.70699,-2.80778 0,-1.59578 0.70699,-2.80777 0.707,-1.21199 1.91898,-1.89878 1.21199,-0.68679 2.76738,-0.68679 1.57558,0 2.78757,0.68679 1.23219,0.68679 1.91898,1.89878 0.70699,1.21199 0.70699,2.80777 0,1.57559 -0.70699,2.80778 -0.68679,1.21198 -1.91898,1.91898 -1.23219,0.68679 -2.78757,0.68679 z m 0,-1.27259 q 1.15139,0 2.04018,-0.50499 0.88879,-0.5252 1.39378,-1.45439 0.5252,-0.94939 0.5252,-2.18158 0,-1.25238 -0.5252,-2.18158 -0.50499,-0.92919 -1.39378,-1.43418 -0.88879,-0.5252 -2.01998,-0.5252 -1.13119,0 -2.01998,0.5252 -0.88879,0.50499 -1.41399,1.43418 -0.52519,0.9292 -0.52519,2.18158 0,1.23219 0.52519,2.18158 0.5252,0.92919 1.41399,1.45439 0.88879,0.50499 1.99978,0.50499 z"
         id="path85845" />
      <path
         d="m -170.61339,384.68725 v -10.60489 h 4.68635 q 1.79778,0 2.82797,0.68679 1.05039,0.68679 1.05039,2.01998 0,1.29279 -0.98979,1.99978 -0.98979,0.68679 -2.60577,0.68679 l 0.28279,-0.42419 q 1.89879,0 2.78758,0.70699 0.88879,0.70699 0.88879,2.04018 0,1.37359 -1.00999,2.14118 -0.98979,0.74739 -3.09057,0.74739 z m 1.39378,-1.13119 h 3.37337 q 1.35339,0 2.04018,-0.42419 0.70699,-0.4444 0.70699,-1.41399 0,-0.96959 -0.62619,-1.41399 -0.6262,-0.44439 -1.97958,-0.44439 h -3.51477 z m 0,-4.76715 h 3.19157 q 1.23219,0 1.87858,-0.4646 0.6666,-0.46459 0.6666,-1.35338 0,-0.88879 -0.6666,-1.33319 -0.64639,-0.4444 -1.87858,-0.4444 h -3.19157 z"
         id="path85847" />
      <path
         d="m -147.98962,384.68725 v -10.60489 h 1.43418 v 10.60489 z m -5.87814,-6.86793 q 1.99978,0.0202 3.05017,0.88879 1.05039,0.86859 1.05039,2.50477 0,1.69679 -1.13119,2.60578 -1.13119,0.90899 -3.23197,0.88879 l -4.20156,-0.0202 v -10.60489 h 1.43419 v 3.69656 z m -0.3636,5.79734 q 1.49478,0.0202 2.24218,-0.58579 0.76759,-0.6262 0.76759,-1.81799 0,-1.19178 -0.74739,-1.73718 -0.7474,-0.56559 -2.26238,-0.58579 l -2.66637,-0.0404 v 4.72675 z"
         id="path85849" />
      <path
         d="m -142.47508,384.68725 v -10.60489 h 1.43419 v 8.42331 l 7.09013,-8.42331 h 1.27258 v 10.60489 h -1.43418 v -8.44352 l -7.06993,8.44352 z m 4.80755,-12.14008 q -1.33318,0 -2.16137,-0.66659 -0.808,-0.6868 -0.8484,-1.95938 h 1.03019 q 0.0202,0.80799 0.5656,1.27258 0.54539,0.4646 1.41398,0.4646 0.8686,0 1.41399,-0.4646 0.56559,-0.46459 0.58579,-1.27258 h 1.03019 q -0.0202,1.27258 -0.84839,1.95938 -0.82819,0.66659 -2.18158,0.66659 z"
         id="path85851" />
      <path
         d="m -121.26531,384.68725 v -9.7363 l 0.3636,0.38379 h -4.38336 v -1.25238 h 9.47371 v 1.25238 h -4.38336 l 0.3636,-0.38379 v 9.7363 z"
         id="path85853" />
      <path
         d="m -109.66798,384.78825 q -1.65638,0 -2.90877,-0.68679 -1.25239,-0.707 -1.95938,-1.91898 -0.70699,-1.23219 -0.70699,-2.80778 0,-1.57558 0.66659,-2.78757 0.68679,-1.21199 1.85838,-1.89878 1.19179,-0.70699 2.66638,-0.70699 1.49478,0 2.64617,0.68679 1.17159,0.66659 1.83818,1.89878 0.6666,1.21199 0.6666,2.80777 0,0.101 -0.0202,0.2222 0,0.101 0,0.2222 h -9.23131 v -1.07059 h 8.46371 l -0.56559,0.4242 q 0,-1.15139 -0.505,-2.04018 -0.48479,-0.909 -1.33318,-1.41399 -0.84839,-0.505 -1.95938,-0.505 -1.09079,0 -1.95938,0.505 -0.8686,0.50499 -1.35339,1.41399 -0.4848,0.90899 -0.4848,2.08057 v 0.2222 q 0,1.21199 0.5252,2.14118 0.54539,0.90899 1.49478,1.43419 0.96959,0.50499 2.20178,0.50499 0.96959,0 1.79778,-0.34339 0.8484,-0.3434 1.45439,-1.05039 l 0.80799,0.92919 q -0.70699,0.84839 -1.77758,1.29278 -1.05039,0.4444 -2.32298,0.4444 z"
         id="path85855" />
      <path
         d="m -96.25535,384.78825 q -1.373586,0 -2.484575,-0.62619 -1.110989,-0.6464 -1.777585,-1.83819 -0.64639,-1.21198 -0.64639,-2.94917 0,-1.73718 0.64639,-2.92897 0.646396,-1.21199 1.757385,-1.83818 1.110989,-0.62619 2.504775,-0.62619 1.514985,0 2.706773,0.68679 1.211988,0.66659 1.898782,1.89878 0.686793,1.21199 0.686793,2.80777 0,1.61599 -0.686793,2.82798 -0.686794,1.21198 -1.898782,1.89878 -1.191788,0.68679 -2.706773,0.68679 z m -5.47415,3.81776 v -14.52365 h 1.37359 v 3.19156 l -0.1414,2.12098 0.202,2.14118 v 7.06993 z m 5.373151,-5.09035 q 1.131189,0 2.01998,-0.50499 0.888791,-0.5252 1.413986,-1.45439 0.525195,-0.94939 0.525195,-2.18158 0,-1.23218 -0.525195,-2.16138 -0.525195,-0.92919 -1.413986,-1.45438 -0.888791,-0.5252 -2.01998,-0.5252 -1.131189,0 -2.04018,0.5252 -0.888791,0.52519 -1.413986,1.45438 -0.504995,0.9292 -0.504995,2.16138 0,1.23219 0.504995,2.18158 0.525195,0.92919 1.413986,1.45439 0.908991,0.50499 2.04018,0.50499 z"
         id="path85857" />
      <path
         d="m -87.872455,384.68725 v -10.60489 h 1.454385 l 4.807553,8.14051 h -0.605994 l 4.888351,-8.14051 h 1.333187 v 10.60489 h -1.312987 v -8.96871 l 0.262598,0.1212 -4.565155,7.55472 h -0.646394 l -4.605554,-7.63552 0.302997,-0.0606 v 8.98891 z"
         id="path85859" />
    </g>
    <g
       id="g31704"
       transform="matrix(0.86829976,0,0,0.86829976,24.792348,-91.29076)">
      <g
         id="g28891"
         transform="translate(64.00012,24.014695)">
        <g
           id="g17162"
           transform="translate(40.663902,-62.245316)">
          <path
             id="rect909-3"
             style="fill:#bdffc4;stroke:#000000;stroke-width:0.352778;stroke-linecap:round;stop-color:#000000"
             d="m 81.298111,200.70384 h 26.458329 c 4.39738,0 7.9375,3.54013 7.9375,7.9375 0,4.39738 -3.54012,7.9375 -7.9375,7.9375 H 81.298111 c -4.397375,0 -7.9375,-3.54012 -7.9375,-7.9375 0,-4.39737 3.540125,-7.9375 7.9375,-7.9375 z" />
          <g
             aria-label="Leader"
             id="text3127-7"
             style="font-style:italic;font-size:7.05556px;line-height:1.25;font-family:Montserrat;-inkscape-font-specification:'Montserrat Italic';text-align:center;text-anchor:middle;stroke-width:0.264583">
            <path
               d="m 82.179129,211.24132 0.987778,-4.93889 h 0.515056 l -0.896056,4.48733 h 2.76578 l -0.09172,0.45156 z"
               id="path38476" />
            <path
               d="m 87.867777,211.2766 q -0.529167,0 -0.924279,-0.1905 -0.388056,-0.19756 -0.599722,-0.55034 -0.204612,-0.35278 -0.204612,-0.83961 0,-0.635 0.268112,-1.12889 0.268111,-0.49389 0.733778,-0.77611 0.465667,-0.28928 1.051278,-0.28928 0.49389,0 0.853723,0.1905 0.359834,0.18345 0.557389,0.53622 0.204612,0.35278 0.204612,0.84667 0,0.11289 -0.01411,0.23283 -0.01411,0.11289 -0.03528,0.21873 h -3.252613 l 0.0635,-0.37395 h 2.956279 l -0.204611,0.14111 q 0.07056,-0.4445 -0.0635,-0.74789 -0.134056,-0.30339 -0.416278,-0.45861 -0.275167,-0.16228 -0.663223,-0.16228 -0.451556,0 -0.804334,0.22578 -0.352778,0.21872 -0.550333,0.61384 -0.197556,0.38805 -0.197556,0.91016 0,0.55739 0.3175,0.86078 0.324556,0.29634 0.966612,0.29634 0.373945,0 0.691445,-0.11995 0.3175,-0.127 0.522111,-0.34572 l 0.225778,0.35983 q -0.261055,0.26106 -0.656167,0.40922 -0.388056,0.14112 -0.8255,0.14112 z"
               id="path38478" />
            <path
               d="m 92.016433,211.2766 q -0.472723,0 -0.839612,-0.1905 -0.366889,-0.1905 -0.5715,-0.54328 -0.204611,-0.35278 -0.204611,-0.83961 0,-0.47273 0.155222,-0.87489 0.155222,-0.40217 0.437445,-0.6985 0.282222,-0.30339 0.663222,-0.46567 0.388056,-0.16228 0.839612,-0.16228 0.486834,0 0.8255,0.17639 0.338667,0.16933 0.522112,0.50094 0.183445,0.32456 0.183445,0.79023 0,0.67028 -0.246945,1.19239 -0.246945,0.52211 -0.698501,0.81844 -0.451555,0.29634 -1.065389,0.29634 z m 0.105833,-0.4445 q 0.465667,0 0.825501,-0.21873 0.366889,-0.22578 0.5715,-0.62089 0.211667,-0.39511 0.211667,-0.89605 0,-0.55034 -0.324556,-0.85373 -0.3175,-0.30338 -0.896056,-0.30338 -0.458611,0 -0.8255,0.22577 -0.36689,0.22578 -0.578556,0.62089 -0.204612,0.38806 -0.204612,0.89606 0,0.54328 0.317501,0.84667 0.324555,0.30339 0.903111,0.30339 z m 1.220612,0.40922 0.211667,-1.06539 0.211667,-0.74789 0.07055,-0.77611 0.225778,-1.11478 h 0.500945 l -0.740834,3.70417 z"
               id="path38480" />
            <path
               d="m 96.800099,211.2766 q -0.472722,0 -0.839611,-0.1905 -0.366889,-0.1905 -0.571501,-0.54328 -0.204611,-0.35278 -0.204611,-0.83961 0,-0.47273 0.155223,-0.87489 0.155222,-0.40217 0.437444,-0.6985 0.282223,-0.30339 0.663223,-0.46567 0.388056,-0.16228 0.839612,-0.16228 0.486833,0 0.8255,0.17639 0.338667,0.16933 0.522112,0.50094 0.183444,0.32456 0.183444,0.79023 0,0.50094 -0.141111,0.92428 -0.134056,0.42333 -0.402167,0.73377 -0.268111,0.31045 -0.642056,0.47978 -0.366889,0.16934 -0.825501,0.16934 z m 0.105834,-0.4445 q 0.465667,0 0.8255,-0.21873 0.36689,-0.22578 0.571501,-0.62089 0.211667,-0.39511 0.211667,-0.89605 0,-0.55034 -0.324556,-0.85373 -0.3175,-0.30338 -0.896056,-0.30338 -0.458612,0 -0.825501,0.22577 -0.366889,0.22578 -0.578556,0.62089 -0.204611,0.38806 -0.204611,0.89606 0,0.54328 0.3175,0.84667 0.324556,0.30339 0.903112,0.30339 z m 1.220612,0.40922 0.211667,-1.06539 0.211666,-0.74789 0.07056,-0.77611 0.529167,-2.64584 h 0.500945 l -1.044223,5.23523 z"
               id="path38482" />
            <path
               d="m 101.69666,211.2766 q -0.52917,0 -0.92428,-0.1905 -0.38806,-0.19756 -0.59973,-0.55034 -0.204607,-0.35278 -0.204607,-0.83961 0,-0.635 0.268107,-1.12889 0.26812,-0.49389 0.73378,-0.77611 0.46567,-0.28928 1.05128,-0.28928 0.49389,0 0.85372,0.1905 0.35984,0.18345 0.55739,0.53622 0.20461,0.35278 0.20461,0.84667 0,0.11289 -0.0141,0.23283 -0.0141,0.11289 -0.0353,0.21873 h -3.25262 l 0.0635,-0.37395 h 2.95628 l -0.20461,0.14111 q 0.0706,-0.4445 -0.0635,-0.74789 -0.13406,-0.30339 -0.41628,-0.45861 -0.27516,-0.16228 -0.66322,-0.16228 -0.45156,0 -0.80433,0.22578 -0.35278,0.21872 -0.55034,0.61384 -0.19755,0.38805 -0.19755,0.91016 0,0.55739 0.3175,0.86078 0.32455,0.29634 0.96661,0.29634 0.37394,0 0.69144,-0.11995 0.3175,-0.127 0.52211,-0.34572 l 0.22578,0.35983 q -0.26105,0.26106 -0.65616,0.40922 -0.38806,0.14112 -0.8255,0.14112 z"
               id="path38484" />
            <path
               d="m 104.26487,211.24132 0.73377,-3.70417 h 0.47978 l -0.21166,1.09361 -0.0564,-0.1905 q 0.24695,-0.48683 0.64911,-0.71261 0.40922,-0.22578 1.016,-0.22578 l -0.0917,0.48683 q -0.0353,0 -0.0705,0 -0.0282,-0.007 -0.0706,-0.007 -0.59267,0 -0.98072,0.34572 -0.381,0.33867 -0.52211,1.03011 l -0.37395,1.88384 z"
               id="path38486" />
          </g>
        </g>
      </g>
      <g
         id="g28885"
         transform="translate(9.5537701,1.4075317)">
        <path
           id="rect909-3-2-2"
           style="fill:#bdffc4;stroke:#000000;stroke-width:0.352778;stroke-linecap:round;stop-color:#000000"
           d="m 49.408379,161.06569 h 26.458332 c 4.397375,0 7.9375,3.54012 7.9375,7.9375 0,4.39737 -3.540125,7.9375 -7.9375,7.9375 H 49.408379 c -4.397375,0 -7.9375,-3.54013 -7.9375,-7.9375 0,-4.39738 3.540125,-7.9375 7.9375,-7.9375 z" />
        <g
           aria-label="Follower"
           id="text3127"
           style="font-style:italic;font-size:6.35px;line-height:1.25;font-family:Montserrat;-inkscape-font-specification:'Montserrat Italic';text-align:center;text-anchor:middle;stroke-width:0.264583">
          <path
             d="m 50.130407,169.05082 h 2.3495 l -0.08255,0.4064 h -2.35585 z m -0.41275,2.29235 h -0.46355 l 0.889,-4.445 h 3.048 l -0.08255,0.4064 h -2.58445 z"
             id="path34208" />
          <path
             d="m 54.551689,171.37492 q -0.46355,0 -0.80645,-0.17145 -0.33655,-0.1778 -0.52705,-0.4953 -0.18415,-0.3175 -0.18415,-0.7493 0,-0.5715 0.24765,-1.016 0.24765,-0.45085 0.6858,-0.70485 0.43815,-0.26035 0.99695,-0.26035 0.46355,0 0.8001,0.17145 0.3429,0.17145 0.52705,0.48895 0.1905,0.3175 0.1905,0.7493 0,0.5715 -0.24765,1.02235 -0.24765,0.4445 -0.6858,0.70485 -0.4318,0.26035 -0.99695,0.26035 z m 0.03175,-0.40005 q 0.4191,0 0.74295,-0.19685 0.3302,-0.2032 0.51435,-0.5588 0.1905,-0.3556 0.1905,-0.80645 0,-0.4953 -0.2921,-0.76835 -0.28575,-0.27305 -0.80645,-0.27305 -0.41275,0 -0.74295,0.2032 -0.3302,0.2032 -0.5207,0.5588 -0.18415,0.34925 -0.18415,0.80645 0,0.48895 0.28575,0.762 0.2921,0.27305 0.8128,0.27305 z"
             id="path34210" />
          <path
             d="m 57.047233,171.34317 0.9398,-4.7117 h 0.45085 l -0.9398,4.7117 z"
             id="path34212" />
          <path
             d="m 58.755377,171.34317 0.9398,-4.7117 h 0.45085 l -0.9398,4.7117 z"
             id="path34214" />
          <path
             d="m 61.949421,171.37492 q -0.46355,0 -0.80645,-0.17145 -0.33655,-0.1778 -0.52705,-0.4953 -0.18415,-0.3175 -0.18415,-0.7493 0,-0.5715 0.24765,-1.016 0.24765,-0.45085 0.6858,-0.70485 0.43815,-0.26035 0.99695,-0.26035 0.46355,0 0.8001,0.17145 0.3429,0.17145 0.52705,0.48895 0.1905,0.3175 0.1905,0.7493 0,0.5715 -0.24765,1.02235 -0.24765,0.4445 -0.6858,0.70485 -0.4318,0.26035 -0.99695,0.26035 z m 0.03175,-0.40005 q 0.4191,0 0.74295,-0.19685 0.3302,-0.2032 0.51435,-0.5588 0.1905,-0.3556 0.1905,-0.80645 0,-0.4953 -0.2921,-0.76835 -0.28575,-0.27305 -0.80645,-0.27305 -0.41275,0 -0.74295,0.2032 -0.3302,0.2032 -0.5207,0.5588 -0.18415,0.34925 -0.18415,0.80645 0,0.48895 0.28575,0.762 0.2921,0.27305 0.8128,0.27305 z"
             id="path34216" />
          <path
             d="m 65.067256,171.34317 -0.65405,-3.33375 h 0.41275 l 0.59055,3.09245 h -0.2032 l 1.7653,-3.09245 h 0.381 l 0.6096,3.09245 h -0.2032 l 1.7399,-3.09245 h 0.43815 l -1.88595,3.33375 h -0.43815 l -0.5969,-2.9083 h 0.1397 l -1.6637,2.9083 z"
             id="path34218" />
          <path
             d="m 71.360096,171.37492 q -0.47625,0 -0.83185,-0.17145 -0.34925,-0.1778 -0.53975,-0.4953 -0.18415,-0.3175 -0.18415,-0.75565 0,-0.5715 0.2413,-1.016 0.2413,-0.4445 0.6604,-0.6985 0.4191,-0.26035 0.94615,-0.26035 0.4445,0 0.76835,0.17145 0.32385,0.1651 0.50165,0.4826 0.18415,0.3175 0.18415,0.762 0,0.1016 -0.0127,0.20955 -0.0127,0.1016 -0.03175,0.19685 h -2.92735 l 0.05715,-0.33655 h 2.66065 l -0.18415,0.127 q 0.0635,-0.40005 -0.05715,-0.6731 -0.12065,-0.27305 -0.37465,-0.41275 -0.24765,-0.14605 -0.5969,-0.14605 -0.4064,0 -0.7239,0.2032 -0.3175,0.19685 -0.4953,0.55245 -0.1778,0.34925 -0.1778,0.81915 0,0.50165 0.28575,0.7747 0.2921,0.2667 0.86995,0.2667 0.33655,0 0.6223,-0.10795 0.28575,-0.1143 0.4699,-0.31115 l 0.2032,0.32385 q -0.23495,0.23495 -0.59055,0.3683 -0.34925,0.127 -0.74295,0.127 z"
             id="path34220" />
          <path
             d="m 73.671484,171.34317 0.6604,-3.33375 h 0.4318 l -0.1905,0.98425 -0.0508,-0.17145 q 0.22225,-0.43815 0.5842,-0.64135 0.3683,-0.2032 0.9144,-0.2032 l -0.08255,0.43815 q -0.03175,0 -0.0635,0 -0.0254,-0.006 -0.0635,-0.006 -0.5334,0 -0.88265,0.31115 -0.3429,0.3048 -0.4699,0.9271 l -0.33655,1.69545 z"
             id="path34222" />
        </g>
      </g>
      <g
         id="g28896"
         transform="translate(-73.693951,-21.222009)">
        <path
           id="rect909-3-2"
           style="fill:#bdffc4;stroke:#000000;stroke-width:0.352778;stroke-linecap:round;stop-color:#000000"
           d="m 196.1561,159.88274 h 26.45833 c 4.39737,0 7.9375,3.54012 7.9375,7.9375 0,4.39737 -3.54013,7.9375 -7.9375,7.9375 H 196.1561 c -4.39738,0 -7.9375,-3.54013 -7.9375,-7.9375 0,-4.39738 3.54012,-7.9375 7.9375,-7.9375 z" />
        <g
           aria-label="Candidate"
           id="text3127-3"
           style="font-style:italic;font-size:6.35px;line-height:1.25;font-family:Montserrat;-inkscape-font-specification:'Montserrat Italic';text-align:center;text-anchor:middle;stroke-width:0.264583">
          <path
             d="m 194.82983,170.19514 q -0.6604,0 -1.12395,-0.2286 -0.46355,-0.23495 -0.7112,-0.6477 -0.2413,-0.4191 -0.2413,-0.97155 0,-0.5461 0.18415,-1.0287 0.1905,-0.4826 0.53975,-0.8509 0.3556,-0.37465 0.8509,-0.5842 0.50165,-0.20955 1.1303,-0.20955 0.5334,0 0.94615,0.1651 0.41275,0.1651 0.635,0.4826 l -0.3302,0.2921 q -0.20955,-0.26035 -0.52705,-0.38735 -0.3175,-0.13335 -0.762,-0.13335 -0.50165,0 -0.9144,0.1778 -0.4064,0.17145 -0.69215,0.4826 -0.28575,0.31115 -0.4445,0.71755 -0.1524,0.40005 -0.1524,0.85725 0,0.42545 0.18415,0.75565 0.1905,0.32385 0.5588,0.508 0.3683,0.18415 0.9017,0.18415 0.43815,0 0.79375,-0.13335 0.3556,-0.13335 0.6223,-0.3937 l 0.27305,0.31115 q -0.2921,0.31115 -0.74295,0.47625 -0.45085,0.15875 -0.9779,0.15875 z"
             id="path35639" />
          <path
             d="m 198.48911,170.18879 q -0.42545,0 -0.75565,-0.17145 -0.3302,-0.17145 -0.51435,-0.48895 -0.18415,-0.3175 -0.18415,-0.75565 0,-0.42545 0.1397,-0.7874 0.1397,-0.36195 0.3937,-0.62865 0.254,-0.27305 0.5969,-0.4191 0.34925,-0.14605 0.75565,-0.14605 0.43815,0 0.74295,0.15875 0.3048,0.1524 0.4699,0.45085 0.1651,0.2921 0.1651,0.7112 0,0.60325 -0.22225,1.07315 -0.22225,0.4699 -0.62865,0.7366 -0.4064,0.2667 -0.95885,0.2667 z m 0.0952,-0.40005 q 0.4191,0 0.74295,-0.19685 0.3302,-0.2032 0.51435,-0.5588 0.1905,-0.3556 0.1905,-0.80645 0,-0.4953 -0.2921,-0.76835 -0.28575,-0.27305 -0.80645,-0.27305 -0.41275,0 -0.74295,0.2032 -0.3302,0.2032 -0.5207,0.5588 -0.18415,0.34925 -0.18415,0.80645 0,0.48895 0.28575,0.762 0.2921,0.27305 0.8128,0.27305 z m 1.09855,0.3683 0.1905,-0.95885 0.1905,-0.6731 0.0635,-0.6985 0.2032,-1.0033 h 0.45085 l -0.66675,3.33375 z"
             id="path35641" />
          <path
             d="m 203.66435,166.79154 q 0.45085,0 0.7366,0.1778 0.2921,0.17145 0.40005,0.50165 0.1143,0.3302 0.0191,0.7874 l -0.381,1.89865 h -0.45085 l 0.381,-1.905 q 0.1016,-0.4953 -0.10795,-0.7747 -0.2032,-0.2794 -0.7239,-0.2794 -0.5334,0 -0.889,0.2921 -0.34925,0.2921 -0.4699,0.8763 l -0.3556,1.7907 h -0.4509 l 0.6604,-3.33375 h 0.4318 l -0.1905,0.95885 -0.0952,-0.1651 q 0.2413,-0.4318 0.6223,-0.62865 0.38735,-0.19685 0.8636,-0.19685 z"
             id="path35643" />
          <path
             d="m 207.087,170.18879 q -0.42545,0 -0.75565,-0.17145 -0.3302,-0.17145 -0.51435,-0.48895 -0.18415,-0.3175 -0.18415,-0.75565 0,-0.42545 0.1397,-0.7874 0.1397,-0.36195 0.3937,-0.62865 0.254,-0.27305 0.5969,-0.4191 0.34925,-0.14605 0.75565,-0.14605 0.43815,0 0.74295,0.15875 0.3048,0.1524 0.4699,0.45085 0.1651,0.2921 0.1651,0.7112 0,0.45085 -0.127,0.83185 -0.12065,0.381 -0.36195,0.6604 -0.2413,0.2794 -0.57785,0.4318 -0.3302,0.1524 -0.74295,0.1524 z m 0.0953,-0.40005 q 0.4191,0 0.74295,-0.19685 0.3302,-0.2032 0.51435,-0.5588 0.1905,-0.3556 0.1905,-0.80645 0,-0.4953 -0.2921,-0.76835 -0.28575,-0.27305 -0.80645,-0.27305 -0.41275,0 -0.74295,0.2032 -0.3302,0.2032 -0.5207,0.5588 -0.18415,0.34925 -0.18415,0.80645 0,0.48895 0.28575,0.762 0.2921,0.27305 0.8128,0.27305 z m 1.09855,0.3683 0.1905,-0.95885 0.1905,-0.6731 0.0635,-0.6985 0.47625,-2.38125 h 0.45085 l -0.9398,4.7117 z"
             id="path35645" />
          <path
             d="m 209.96989,170.15704 0.6604,-3.33375 h 0.45085 l -0.6604,3.33375 z m 1.0795,-4.07035 q -0.13335,0 -0.22225,-0.0889 -0.0826,-0.0889 -0.0826,-0.20955 0,-0.1397 0.0953,-0.2413 0.1016,-0.1016 0.254,-0.1016 0.13335,0 0.22225,0.0826 0.0889,0.0825 0.0889,0.20955 0,0.1524 -0.1016,0.254 -0.1016,0.0952 -0.254,0.0952 z"
             id="path35647" />
          <path
             d="m 213.10044,170.18879 q -0.42545,0 -0.75565,-0.17145 -0.3302,-0.17145 -0.51435,-0.48895 -0.18415,-0.3175 -0.18415,-0.75565 0,-0.42545 0.1397,-0.7874 0.1397,-0.36195 0.3937,-0.62865 0.254,-0.27305 0.5969,-0.4191 0.34925,-0.14605 0.75565,-0.14605 0.43815,0 0.74295,0.15875 0.3048,0.1524 0.4699,0.45085 0.1651,0.2921 0.1651,0.7112 0,0.45085 -0.127,0.83185 -0.12065,0.381 -0.36195,0.6604 -0.2413,0.2794 -0.57785,0.4318 -0.3302,0.1524 -0.74295,0.1524 z m 0.0953,-0.40005 q 0.4191,0 0.74295,-0.19685 0.3302,-0.2032 0.51435,-0.5588 0.1905,-0.3556 0.1905,-0.80645 0,-0.4953 -0.2921,-0.76835 -0.28575,-0.27305 -0.80645,-0.27305 -0.41275,0 -0.74295,0.2032 -0.3302,0.2032 -0.5207,0.5588 -0.18415,0.34925 -0.18415,0.80645 0,0.48895 0.28575,0.762 0.2921,0.27305 0.8128,0.27305 z m 1.09855,0.3683 0.1905,-0.95885 0.1905,-0.6731 0.0635,-0.6985 0.47625,-2.38125 h 0.45085 l -0.9398,4.7117 z"
             id="path35649" />
          <path
             d="m 217.40573,170.18879 q -0.42545,0 -0.75565,-0.17145 -0.3302,-0.17145 -0.51435,-0.48895 -0.18415,-0.3175 -0.18415,-0.75565 0,-0.42545 0.1397,-0.7874 0.1397,-0.36195 0.3937,-0.62865 0.254,-0.27305 0.5969,-0.4191 0.34925,-0.14605 0.75565,-0.14605 0.43815,0 0.74295,0.15875 0.3048,0.1524 0.4699,0.45085 0.1651,0.2921 0.1651,0.7112 0,0.60325 -0.22225,1.07315 -0.22225,0.4699 -0.62865,0.7366 -0.4064,0.2667 -0.95885,0.2667 z m 0.0952,-0.40005 q 0.4191,0 0.74295,-0.19685 0.3302,-0.2032 0.51435,-0.5588 0.1905,-0.3556 0.1905,-0.80645 0,-0.4953 -0.2921,-0.76835 -0.28575,-0.27305 -0.80645,-0.27305 -0.41275,0 -0.74295,0.2032 -0.3302,0.2032 -0.5207,0.5588 -0.18415,0.34925 -0.18415,0.80645 0,0.48895 0.28575,0.762 0.2921,0.27305 0.8128,0.27305 z m 1.09855,0.3683 0.1905,-0.95885 0.1905,-0.6731 0.0635,-0.6985 0.2032,-1.0033 h 0.45085 l -0.66675,3.33375 z"
             id="path35651" />
          <path
             d="m 221.34908,170.18879 q -0.28575,0 -0.48895,-0.12065 -0.2032,-0.127 -0.28575,-0.3556 -0.0762,-0.2286 -0.0127,-0.5461 l 0.6096,-3.07975 h 0.45085 l -0.6096,3.0607 q -0.0635,0.31115 0.0445,0.4826 0.1143,0.17145 0.41275,0.17145 0.1397,0 0.27305,-0.0381 0.13335,-0.0445 0.2413,-0.13335 l 0.10795,0.3429 q -0.15875,0.12065 -0.3556,0.17145 -0.19685,0.0445 -0.38735,0.0445 z m -0.9906,-2.99085 0.0699,-0.37465 h 2.06375 l -0.0762,0.37465 z"
             id="path35653" />
          <path
             d="m 224.27091,170.18879 q -0.47625,0 -0.83185,-0.17145 -0.34925,-0.1778 -0.53975,-0.4953 -0.18415,-0.3175 -0.18415,-0.75565 0,-0.5715 0.2413,-1.016 0.2413,-0.4445 0.6604,-0.6985 0.4191,-0.26035 0.94615,-0.26035 0.4445,0 0.76835,0.17145 0.32385,0.1651 0.50165,0.4826 0.18415,0.3175 0.18415,0.762 0,0.1016 -0.0127,0.20955 -0.0127,0.1016 -0.0317,0.19685 h -2.92735 l 0.0572,-0.33655 h 2.66065 l -0.18415,0.127 q 0.0635,-0.40005 -0.0572,-0.6731 -0.12065,-0.27305 -0.37465,-0.41275 -0.24765,-0.14605 -0.5969,-0.14605 -0.4064,0 -0.7239,0.2032 -0.3175,0.19685 -0.4953,0.55245 -0.1778,0.34925 -0.1778,0.81915 0,0.50165 0.28575,0.7747 0.2921,0.2667 0.86995,0.2667 0.33655,0 0.6223,-0.10795 0.28575,-0.1143 0.4699,-0.31115 l 0.2032,0.32385 q -0.23495,0.23495 -0.59055,0.3683 -0.34925,0.127 -0.74295,0.127 z"
             id="path35655" />
        </g>
      </g>
      <path
         style="fill:none;stroke:#000000;stroke-width:0.264583px;stroke-linecap:butt;stroke-linejoin:miter;stroke-opacity:1"
         d="m 156.85798,146.59823 c 28.61101,0 43.097,0.51172 43.097,15.87499"
         id="path29136"
         sodipodi:nodetypes="cc" />
      <path
         style="color:#000000;display:inline;fill:#000000;fill-rule:evenodd;-inkscape-stroke:none"
         d="m 198.19776,157.90932 1.75722,4.5639 0.92014,-4.8037 -1.2199,1.45698 z"
         id="path85908-9"
         inkscape:transform-center-x="0.41854"
         inkscape:transform-center-y="-2.40185" />
      <path
         style="fill:none;stroke:#000000;stroke-width:0.264583px;stroke-linecap:butt;stroke-linejoin:miter;stroke-opacity:1"
         d="m 136.51655,154.53573 c 0,15.95109 -12.29695,15.87499 -43.158569,15.87499"
         id="path29138"
         sodipodi:nodetypes="cc" />
      <path
         style="color:#000000;display:inline;fill:#000000;fill-rule:evenodd;-inkscape-stroke:none"
         d="m 98.035797,168.98417 -4.677816,1.42655 4.725655,1.26111 -1.366071,-1.32091 z"
         id="path85908-5"
         inkscape:transform-center-x="-2.3628275"
         inkscape:transform-center-y="-0.08272" />
      <path
         style="fill:none;stroke:#000000;stroke-width:0.264583px;stroke-linecap:butt;stroke-linejoin:miter;stroke-opacity:1"
         d="m 200.44597,178.34822 c 0,4.00253 -5.36939,7.12258 -13.92186,9.40145 -12.33896,3.28781 -31.30347,4.8247 -50.32795,4.73466 -19.03047,-0.0901 -38.120951,-1.8081 -50.699668,-5.02999 -8.941679,-2.29031 -14.592842,-5.34054 -14.592842,-9.10612"
         id="path29140"
         sodipodi:nodetypes="csssc" />
      <path
         style="color:#000000;display:inline;fill:#000000;fill-rule:evenodd;-inkscape-stroke:none"
         d="m 190.65098,185.12556 -4.12687,2.62411 4.89081,-0.0469 -1.66924,-0.90806 z"
         id="path85908-2"
         inkscape:transform-center-x="-2.445405"
         inkscape:transform-center-y="-1.312055" />
      <path
         style="color:#000000;display:inline;fill:#000000;fill-rule:evenodd;-inkscape-stroke:none"
         d="m 140.88101,191.08106 -4.68485,1.40327 4.71933,1.28459 -1.35949,-1.32769 z"
         id="path85908-28"
         inkscape:transform-center-x="-2.359665"
         inkscape:transform-center-y="-0.05934" />
      <path
         style="color:#000000;display:inline;fill:#000000;fill-rule:evenodd;-inkscape-stroke:none"
         d="m 90.38178,187.2286 -4.885288,0.22574 4.267161,2.3903 -0.997087,-1.61764 z"
         id="path85908-97"
         inkscape:transform-center-x="-2.442644"
         inkscape:transform-center-y="1.08228" />
      <path
         style="fill:none;stroke:#000000;stroke-width:0.264583;stroke-linecap:butt;stroke-linejoin:miter;stroke-miterlimit:4;stroke-dasharray:none;stroke-opacity:1"
         d="m 70.70533,162.47322 c 0,-15.9054 17.653371,-15.87499 43.81932,-15.87499"
         id="path29142"
         sodipodi:nodetypes="cc" />
      <path
         style="fill:none;stroke:#000000;stroke-width:0.264583px;stroke-linecap:butt;stroke-linejoin:miter;stroke-opacity:1"
         d="m 132.3855,138.66073 c -9.86767,-17.0913 18.71872,-17.56703 8.5764,0"
         id="path30320"
         sodipodi:nodetypes="cc" />
      <path
         style="color:#000000;display:inline;fill:#000000;fill-rule:evenodd;-inkscape-stroke:none"
         d="m 141.68284,133.82366 -0.72094,4.83707 3.1686,-3.72588 -1.77961,0.66629 z"
         id="path85908"
         inkscape:transform-center-x="-1.5843"
         inkscape:transform-center-y="-2.418535" />
      <path
         style="color:#000000;display:inline;fill:#000000;fill-rule:evenodd;-inkscape-stroke:none"
         d="m 109.82249,147.94238 4.70216,-1.34415 -4.70277,-1.34394 1.34265,1.34471 z"
         id="path85908-7"
         inkscape:transform-center-x="2.351385"
         inkscape:transform-center-y="0.000105" />
      <path
         style="fill:none;stroke:#000000;stroke-width:0.264583px;stroke-linecap:butt;stroke-linejoin:miter;stroke-opacity:1"
         d="m 33.075935,156.35993 c 0,7.09375 -1.918684,14.05079 17.948714,14.05079"
         id="path31143"
         sodipodi:nodetypes="cc" />
      <path
         style="color:#000000;display:inline;fill:#000000;fill-rule:evenodd;-inkscape-stroke:none"
         d="m 46.275806,171.57926 4.748843,-1.16854 -4.6496,-1.5177 1.291774,1.39365 z"
         id="path85908-3"
         inkscape:transform-center-x="2.3744215"
         inkscape:transform-center-y="-0.17458" />
    </g>
    <g
       aria-label="обнаружен лидер
или новый терм"
       id="text4593"
       style="font-size:4.93889px;line-height:1.25;font-family:Montserrat;-inkscape-font-specification:Montserrat;text-align:center;text-anchor:middle;stroke-width:0.264583">
      <path
         d="m 115.63337,61.388597 q -0.37535,0 -0.67662,-0.167922 -0.29634,-0.172861 -0.4692,-0.469194 -0.17286,-0.301273 -0.17286,-0.686506 0,-0.390172 0.17286,-0.686506 0.17286,-0.296333 0.4692,-0.464255 0.29633,-0.167923 0.67662,-0.167923 0.38524,0 0.68157,0.167923 0.30127,0.167922 0.46919,0.464255 0.17287,0.296334 0.17287,0.686506 0,0.385233 -0.17287,0.686506 -0.16792,0.296333 -0.46919,0.469194 -0.30127,0.167922 -0.68157,0.167922 z m 0,-0.31115 q 0.28152,0 0.49883,-0.123472 0.21731,-0.128411 0.34078,-0.3556 0.12842,-0.232128 0.12842,-0.5334 0,-0.306211 -0.12842,-0.5334 -0.12347,-0.227189 -0.34078,-0.350661 -0.21731,-0.128411 -0.49389,-0.128411 -0.27658,0 -0.49389,0.128411 -0.21731,0.123472 -0.34572,0.350661 -0.12841,0.227189 -0.12841,0.5334 0,0.301272 0.12841,0.5334 0.12841,0.227189 0.34572,0.3556 0.21731,0.123472 0.48895,0.123472 z"
         id="path15660" />
      <path
         d="m 118.87328,61.393536 q -0.31609,0 -0.56303,-0.103716 -0.24201,-0.103717 -0.41487,-0.316089 -0.17286,-0.212373 -0.26176,-0.523523 -0.0889,-0.316089 -0.0889,-0.730955 0,-0.370417 0.0692,-0.646995 0.0691,-0.281517 0.19261,-0.484011 0.12348,-0.202495 0.28646,-0.340784 0.16792,-0.143227 0.36054,-0.227188 0.19755,-0.0889 0.40499,-0.133351 l 1.16558,-0.271638 0.0593,0.325966 -1.09643,0.246945 q -0.10372,0.02469 -0.25189,0.06914 -0.14322,0.04445 -0.29633,0.13335 -0.14817,0.0889 -0.27658,0.246945 -0.12841,0.158044 -0.20743,0.409928 -0.0741,0.246944 -0.0741,0.617361 0,0.07902 0.005,0.128411 0.005,0.04445 0.01,0.09878 0.01,0.04939 0.0148,0.148167 l -0.15311,-0.128412 q 0.0543,-0.301272 0.22225,-0.523522 0.16793,-0.227189 0.41981,-0.350661 0.25682,-0.128411 0.56797,-0.128411 0.36054,0 0.64206,0.158044 0.28151,0.153106 0.43956,0.429684 0.16298,0.276577 0.16298,0.642055 0,0.360539 -0.16792,0.646995 -0.16298,0.286456 -0.46426,0.449439 -0.30127,0.158044 -0.70626,0.158044 z m 0.0395,-0.291394 q 0.27658,0 0.48895,-0.123472 0.21238,-0.128412 0.33091,-0.345723 0.12347,-0.217311 0.12347,-0.48895 0,-0.2667 -0.12347,-0.474133 -0.11853,-0.207434 -0.33091,-0.325967 -0.21237,-0.123472 -0.49388,-0.123472 -0.27658,0 -0.48895,0.118533 -0.21238,0.113595 -0.33585,0.321028 -0.11853,0.207433 -0.11853,0.479072 0,0.271639 0.11853,0.48895 0.12347,0.217312 0.33585,0.345723 0.21731,0.128411 0.49388,0.128411 z"
         id="path15662" />
      <path
         d="m 120.96243,61.363903 v -2.592917 h 0.35066 v 1.145822 h 1.63477 v -1.145822 h 0.35066 v 2.592917 h -0.35066 v -1.145822 h -1.63477 v 1.145822 z"
         id="path15664" />
      <path
         d="m 125.90625,61.363903 v -0.572911 l -0.0148,-0.09384 v -0.958145 q 0,-0.330905 -0.18767,-0.508705 -0.18274,-0.1778 -0.54822,-0.1778 -0.25188,0 -0.47907,0.08396 -0.22719,0.08396 -0.38524,0.22225 l -0.15804,-0.261761 q 0.19756,-0.167923 0.47413,-0.256823 0.27658,-0.09384 0.58279,-0.09384 0.50377,0 0.77541,0.251884 0.27658,0.246944 0.27658,0.75565 V 61.3639 Z m -0.89394,0.02469 q -0.29139,0 -0.5087,-0.09384 -0.21238,-0.09878 -0.32597,-0.2667 -0.11359,-0.172862 -0.11359,-0.395112 0,-0.202494 0.0938,-0.365478 0.0988,-0.167922 0.31609,-0.2667 0.22225,-0.103716 0.59267,-0.103716 h 0.89394 v 0.261761 h -0.88406 q -0.37536,0 -0.52352,0.13335 -0.14323,0.13335 -0.14323,0.330906 0,0.22225 0.17286,0.3556 0.17286,0.13335 0.48401,0.13335 0.29633,0 0.50871,-0.13335 0.21731,-0.138289 0.31608,-0.395112 l 0.079,0.242006 q -0.0988,0.256822 -0.34573,0.409928 -0.242,0.153105 -0.61242,0.153105 z"
         id="path15666" />
      <path
         d="m 128.51398,61.388597 q -0.33585,0 -0.60749,-0.153105 -0.27164,-0.158045 -0.43462,-0.449439 -0.15804,-0.296333 -0.15804,-0.721078 0,-0.424745 0.15804,-0.716139 0.15805,-0.296333 0.42969,-0.449439 0.27163,-0.153106 0.61242,-0.153106 0.37041,0 0.66181,0.167923 0.29633,0.162983 0.46425,0.464255 0.16793,0.296334 0.16793,0.686506 0,0.395111 -0.16793,0.691445 -0.16792,0.296333 -0.46425,0.464255 -0.2914,0.167922 -0.66181,0.167922 z m -1.33844,0.933451 v -3.551062 h 0.33584 v 0.780344 l -0.0346,0.518584 0.0494,0.523522 v 1.728612 z m 1.31374,-1.244601 q 0.27658,0 0.49389,-0.123472 0.21731,-0.128411 0.34572,-0.3556 0.12842,-0.232128 0.12842,-0.5334 0,-0.301272 -0.12842,-0.528461 -0.12841,-0.227189 -0.34572,-0.3556 -0.21731,-0.128411 -0.49389,-0.128411 -0.27657,0 -0.49882,0.128411 -0.21732,0.128411 -0.34573,0.3556 -0.12347,0.227189 -0.12347,0.528461 0,0.301272 0.12347,0.5334 0.12841,0.227189 0.34573,0.3556 0.22225,0.123472 0.49882,0.123472 z"
         id="path15668" />
      <path
         d="m 130.53397,62.346742 q -0.18274,0 -0.35066,-0.05927 -0.16298,-0.05927 -0.28152,-0.1778 l 0.16299,-0.261761 q 0.0988,0.09384 0.21237,0.143228 0.11853,0.05433 0.26176,0.05433 0.17286,0 0.29633,-0.09878 0.12841,-0.09384 0.24201,-0.335844 l 0.16792,-0.380295 0.0395,-0.05433 1.0668,-2.405239 h 0.34572 l -1.29892,2.904067 q -0.10866,0.251884 -0.24201,0.40005 -0.12841,0.148167 -0.28152,0.207434 -0.1531,0.06421 -0.34078,0.06421 z m 0.69145,-0.908756 -1.19522,-2.667 h 0.36548 l 1.05692,2.380545 z"
         id="path15670" />
      <path
         d="m 136.17417,61.363903 -0.889,-1.284111 0.2914,-0.172861 1.01741,1.456972 z m -1.47179,-1.1557 v -0.301272 h 0.81986 v 0.301272 z m 0.90876,-0.103717 -0.33584,-0.04939 0.8643,-1.284111 h 0.3803 z m -2.50896,1.259417 h -0.4198 l 1.01741,-1.456972 0.28646,0.172861 z m 1.70886,0 h -0.35066 v -2.592917 h 0.35066 z m -0.24201,-1.1557 h -0.81491 v -0.301272 h 0.81491 z m -0.89887,-0.103717 -0.9137,-1.3335 h 0.3803 l 0.85936,1.284111 z"
         id="path15672" />
      <path
         d="m 138.19483,61.388597 q -0.40499,0 -0.7112,-0.167922 -0.30622,-0.172861 -0.47908,-0.469194 -0.17286,-0.301273 -0.17286,-0.686506 0,-0.385233 0.16299,-0.681567 0.16792,-0.296333 0.45437,-0.464255 0.2914,-0.172862 0.65194,-0.172862 0.36547,0 0.64699,0.167923 0.28646,0.162983 0.44944,0.464255 0.16298,0.296334 0.16298,0.686506 0,0.02469 -0.005,0.05433 0,0.02469 0,0.05433 h -2.25707 v -0.261762 h 2.0694 l -0.13829,0.103717 q 0,-0.281517 -0.12347,-0.498828 -0.11854,-0.22225 -0.32597,-0.345722 -0.20743,-0.123472 -0.47907,-0.123472 -0.2667,0 -0.47908,0.123472 -0.21237,0.123472 -0.3309,0.345722 -0.11853,0.22225 -0.11853,0.508706 v 0.05433 q 0,0.296333 0.12841,0.523522 0.13335,0.22225 0.36547,0.350661 0.23707,0.123472 0.53834,0.123472 0.23707,0 0.43956,-0.08396 0.20744,-0.08396 0.3556,-0.256822 l 0.19756,0.227189 q -0.17286,0.207433 -0.43462,0.316089 -0.25682,0.108655 -0.56797,0.108655 z"
         id="path15674" />
      <path
         d="m 140.1358,61.363903 v -2.592917 h 0.35066 v 1.145822 h 1.63477 v -1.145822 h 0.35067 v 2.592917 h -0.35067 v -1.145822 h -1.63477 v 1.145822 z"
         id="path15676" />
      <path
         d="m 144.2894,61.358964 0.0247,-0.301272 q 0.0346,0.0049 0.0642,0.01482 0.0346,0.0049 0.0593,0.0049 0.15804,0 0.25188,-0.118533 0.0988,-0.118533 0.14817,-0.316089 0.0494,-0.197555 0.0691,-0.4445 0.0198,-0.251883 0.0346,-0.503767 l 0.0445,-0.923572 h 1.90147 v 2.592917 h -0.35066 V 58.97348 l 0.0889,0.103717 h -1.41252 l 0.084,-0.108656 -0.0395,0.750712 q -0.0148,0.335844 -0.0543,0.642055 -0.0346,0.306212 -0.11359,0.538339 -0.0741,0.232128 -0.20743,0.365478 -0.13335,0.128411 -0.34079,0.128411 -0.0593,0 -0.12347,-0.0099 -0.0593,-0.0099 -0.12841,-0.0247 z"
         id="path15678" />
      <path
         d="m 147.88491,61.363903 v -2.592917 h 0.35066 v 2.059517 l 1.73355,-2.059517 h 0.31115 v 2.592917 h -0.35066 v -2.064456 l -1.72861,2.064456 z"
         id="path15680" />
      <path
         d="m 153.06087,61.195981 v -2.118784 h -1.24954 l -0.0296,0.57785 q -0.01,0.261761 -0.0346,0.513645 -0.0197,0.251883 -0.0741,0.464255 -0.0494,0.207434 -0.14323,0.340784 -0.0938,0.128411 -0.242,0.148166 l -0.35067,-0.0642 q 0.15311,0.0049 0.25189,-0.108656 0.0988,-0.118533 0.1531,-0.321028 0.0543,-0.202494 0.079,-0.459316 0.0247,-0.261761 0.0395,-0.5334 l 0.0346,-0.864306 h 1.91629 v 2.424995 z m -2.23238,0.795161 v -0.93345 h 2.98803 v 0.93345 h -0.33091 v -0.627239 h -2.32622 v 0.627239 z"
         id="path15682" />
      <path
         d="m 155.60933,61.388597 q -0.40499,0 -0.7112,-0.167922 -0.30621,-0.172861 -0.47908,-0.469194 -0.17286,-0.301273 -0.17286,-0.686506 0,-0.385233 0.16299,-0.681567 0.16792,-0.296333 0.45437,-0.464255 0.2914,-0.172862 0.65194,-0.172862 0.36548,0 0.64699,0.167923 0.28646,0.162983 0.44944,0.464255 0.16298,0.296334 0.16298,0.686506 0,0.02469 -0.005,0.05433 0,0.02469 0,0.05433 h -2.25708 v -0.261762 h 2.0694 l -0.13829,0.103717 q 0,-0.281517 -0.12347,-0.498828 -0.11854,-0.22225 -0.32597,-0.345722 -0.20743,-0.123472 -0.47907,-0.123472 -0.2667,0 -0.47907,0.123472 -0.21238,0.123472 -0.33091,0.345722 -0.11853,0.22225 -0.11853,0.508706 v 0.05433 q 0,0.296333 0.12841,0.523522 0.13335,0.22225 0.36548,0.350661 0.23706,0.123472 0.53833,0.123472 0.23707,0 0.43957,-0.08396 0.20743,-0.08396 0.3556,-0.256822 l 0.19755,0.227189 q -0.17286,0.207433 -0.43462,0.316089 -0.25682,0.108655 -0.56797,0.108655 z"
         id="path15684" />
      <path
         d="m 158.88874,61.388597 q -0.33584,0 -0.60748,-0.153105 -0.27164,-0.158045 -0.43462,-0.449439 -0.15805,-0.296333 -0.15805,-0.721078 0,-0.424745 0.15805,-0.716139 0.15804,-0.296333 0.42968,-0.449439 0.27164,-0.153106 0.61242,-0.153106 0.37042,0 0.66181,0.167923 0.29634,0.162983 0.46426,0.464255 0.16792,0.296334 0.16792,0.686506 0,0.395111 -0.16792,0.691445 -0.16792,0.296333 -0.46426,0.464255 -0.29139,0.167922 -0.66181,0.167922 z m -1.33844,0.933451 v -3.551062 h 0.33585 v 0.780344 l -0.0346,0.518584 0.0494,0.523522 v 1.728612 z m 1.31375,-1.244601 q 0.27658,0 0.49389,-0.123472 0.21731,-0.128411 0.34572,-0.3556 0.12841,-0.232128 0.12841,-0.5334 0,-0.301272 -0.12841,-0.528461 -0.12841,-0.227189 -0.34572,-0.3556 -0.21731,-0.128411 -0.49389,-0.128411 -0.27658,0 -0.49883,0.128411 -0.21731,0.128411 -0.34572,0.3556 -0.12347,0.227189 -0.12347,0.528461 0,0.301272 0.12347,0.5334 0.12841,0.227189 0.34572,0.3556 0.22225,0.123472 0.49883,0.123472 z"
         id="path15686" />
      <path
         d="m 116.84338,67.537516 v -2.592918 h 0.35066 v 2.059517 l 1.73355,-2.059517 h 0.31115 v 2.592918 h -0.35066 V 65.47306 l -1.72861,2.064456 z"
         id="path15688" />
      <path
         d="m 119.7672,67.532577 0.0247,-0.301273 q 0.0346,0.0049 0.0642,0.01482 0.0346,0.0049 0.0593,0.0049 0.15804,0 0.25188,-0.118533 0.0988,-0.118534 0.14817,-0.316089 0.0494,-0.197556 0.0691,-0.444501 0.0198,-0.251883 0.0346,-0.503766 l 0.0444,-0.923573 h 1.90147 v 2.592918 h -0.35066 v -2.390423 l 0.0889,0.103716 h -1.41253 l 0.084,-0.108655 -0.0395,0.750711 q -0.0148,0.335845 -0.0543,0.642056 -0.0346,0.306211 -0.1136,0.538339 -0.0741,0.232128 -0.20743,0.365478 -0.13335,0.128411 -0.34078,0.128411 -0.0593,0 -0.12348,-0.0099 -0.0593,-0.0099 -0.12841,-0.02469 z"
         id="path15690" />
      <path
         d="m 123.36271,67.537516 v -2.592918 h 0.35066 v 2.059517 l 1.73356,-2.059517 h 0.31115 v 2.592918 h -0.35067 V 65.47306 l -1.72861,2.064456 z"
         id="path15692" />
      <path
         d="m 128.05465,67.537516 v -2.592918 h 0.35066 v 1.145823 h 1.63478 v -1.145823 h 0.35066 v 2.592918 h -0.35066 v -1.145823 h -1.63478 v 1.145823 z"
         id="path15694" />
      <path
         d="m 132.4552,67.56221 q -0.37536,0 -0.67663,-0.167922 -0.29633,-0.172861 -0.46919,-0.469195 -0.17286,-0.301272 -0.17286,-0.686506 0,-0.390172 0.17286,-0.686505 0.17286,-0.296334 0.46919,-0.464256 0.29634,-0.167922 0.67663,-0.167922 0.38523,0 0.68157,0.167922 0.30127,0.167922 0.46919,0.464256 0.17286,0.296333 0.17286,0.686505 0,0.385234 -0.17286,0.686506 -0.16792,0.296334 -0.46919,0.469195 -0.30127,0.167922 -0.68157,0.167922 z m 0,-0.31115 q 0.28152,0 0.49883,-0.123472 0.21731,-0.128411 0.34078,-0.3556 0.12841,-0.232128 0.12841,-0.533401 0,-0.306211 -0.12841,-0.5334 -0.12347,-0.227189 -0.34078,-0.350661 -0.21731,-0.128411 -0.49389,-0.128411 -0.27658,0 -0.49389,0.128411 -0.21731,0.123472 -0.34572,0.350661 -0.12841,0.227189 -0.12841,0.5334 0,0.301273 0.12841,0.533401 0.12841,0.227189 0.34572,0.3556 0.21731,0.123472 0.48895,0.123472 z"
         id="path15696" />
      <path
         d="m 134.52953,67.537516 v -2.592918 h 1.14583 q 0.43956,0 0.69144,0.167923 0.25682,0.167922 0.25682,0.493889 0,0.316088 -0.242,0.48895 -0.24201,0.167922 -0.63712,0.167922 l 0.0691,-0.103717 q 0.46426,0 0.68157,0.172861 0.21731,0.172862 0.21731,0.498828 0,0.335845 -0.24694,0.523523 -0.24201,0.182739 -0.75565,0.182739 z m 0.34079,-0.276578 h 0.82479 q 0.33091,0 0.49883,-0.103717 0.17286,-0.108656 0.17286,-0.345722 0,-0.237067 -0.1531,-0.345723 -0.15311,-0.108655 -0.48402,-0.108655 h -0.85936 z m 0,-1.165578 h 0.78034 q 0.30127,0 0.45932,-0.113595 0.16298,-0.113594 0.16298,-0.330905 0,-0.217312 -0.16298,-0.325967 -0.15805,-0.108656 -0.45932,-0.108656 h -0.78034 z"
         id="path15698" />
      <path
         d="m 140.06109,67.537516 v -2.592918 h 0.35066 v 2.592918 z m -1.43722,-1.679223 q 0.48895,0.0049 0.74577,0.217311 0.25683,0.212372 0.25683,0.612422 0,0.414867 -0.27658,0.637117 -0.27658,0.22225 -0.79022,0.217311 l -1.02729,-0.0049 v -2.592918 h 0.35066 v 0.903817 z m -0.0889,1.417461 q 0.36548,0.0049 0.54822,-0.143227 0.18768,-0.153106 0.18768,-0.444501 0,-0.291394 -0.18274,-0.424744 -0.18274,-0.138289 -0.55316,-0.143228 l -0.65193,-0.0099 v 1.155701 z"
         id="path15700" />
      <path
         d="m 141.4094,67.537516 v -2.592918 h 0.35067 v 2.059517 l 1.73355,-2.059517 h 0.31115 v 2.592918 h -0.35066 V 65.47306 l -1.72862,2.064456 z m 1.17546,-2.968273 q -0.32597,0 -0.52846,-0.162984 -0.19756,-0.167922 -0.20743,-0.479072 h 0.25188 q 0.005,0.197556 0.13829,0.31115 0.13335,0.113594 0.34572,0.113594 0.21237,0 0.34572,-0.113594 0.13829,-0.113594 0.14323,-0.31115 h 0.25188 q -0.005,0.31115 -0.20743,0.479072 -0.20249,0.162984 -0.5334,0.162984 z"
         id="path15702" />
      <path
         d="m 146.59523,67.537516 v -2.380545 l 0.0889,0.09384 H 145.6124 V 64.9446 h 2.31633 v 0.306211 H 146.857 l 0.0889,-0.09384 v 2.380545 z"
         id="path15704" />
      <path
         d="m 149.4308,67.56221 q -0.40499,0 -0.7112,-0.167922 -0.30621,-0.172861 -0.47907,-0.469195 -0.17286,-0.301272 -0.17286,-0.686506 0,-0.385233 0.16298,-0.681566 0.16793,-0.296334 0.45438,-0.464256 0.2914,-0.172861 0.65193,-0.172861 0.36548,0 0.647,0.167922 0.28646,0.162983 0.44944,0.464256 0.16298,0.296333 0.16298,0.686505 0,0.0247 -0.005,0.05433 0,0.0247 0,0.05433 h -2.25707 v -0.261761 h 2.0694 l -0.13829,0.103717 q 0,-0.281517 -0.12348,-0.498828 -0.11853,-0.22225 -0.32596,-0.345723 -0.20744,-0.123472 -0.47908,-0.123472 -0.2667,0 -0.47907,0.123472 -0.21237,0.123473 -0.3309,0.345723 -0.11854,0.22225 -0.11854,0.508705 v 0.05433 q 0,0.296334 0.12841,0.523522 0.13335,0.222251 0.36548,0.350662 0.23707,0.123472 0.53834,0.123472 0.23707,0 0.43956,-0.08396 0.20744,-0.08396 0.3556,-0.256823 l 0.19756,0.227189 q -0.17286,0.207434 -0.43462,0.316089 -0.25683,0.108656 -0.56798,0.108656 z"
         id="path15706" />
      <path
         d="m 152.71022,67.56221 q -0.33585,0 -0.60749,-0.153106 -0.27164,-0.158044 -0.43462,-0.449439 -0.15804,-0.296333 -0.15804,-0.721078 0,-0.424744 0.15804,-0.716139 0.15804,-0.296333 0.42968,-0.449439 0.27164,-0.153105 0.61243,-0.153105 0.37041,0 0.66181,0.167922 0.29633,0.162983 0.46425,0.464256 0.16793,0.296333 0.16793,0.686505 0,0.395112 -0.16793,0.691445 -0.16792,0.296333 -0.46425,0.464256 -0.2914,0.167922 -0.66181,0.167922 z m -1.33844,0.93345 v -3.551062 h 0.33584 v 0.780345 l -0.0346,0.518583 0.0494,0.523523 v 1.728611 z m 1.31374,-1.2446 q 0.27658,0 0.49389,-0.123472 0.21731,-0.128411 0.34572,-0.3556 0.12841,-0.232128 0.12841,-0.533401 0,-0.301272 -0.12841,-0.528461 -0.12841,-0.227189 -0.34572,-0.3556 -0.21731,-0.128411 -0.49389,-0.128411 -0.27658,0 -0.49883,0.128411 -0.21731,0.128411 -0.34572,0.3556 -0.12347,0.227189 -0.12347,0.528461 0,0.301273 0.12347,0.533401 0.12841,0.227189 0.34572,0.3556 0.22225,0.123472 0.49883,0.123472 z"
         id="path15708" />
      <path
         d="m 154.75985,67.537516 v -2.592918 h 0.3556 l 1.17546,1.990373 h -0.14817 l 1.19521,-1.990373 h 0.32597 v 2.592918 h -0.32103 v -2.192868 l 0.0642,0.02963 -1.11618,1.847145 h -0.15805 l -1.12607,-1.866901 0.0741,-0.01482 v 2.197807 z"
         id="path15710" />
    </g>
    <g
       aria-label="есть кворум
голосов"
       id="text4593-5"
       style="font-size:4.93889px;line-height:1.25;font-family:Montserrat;-inkscape-font-specification:Montserrat;text-align:center;text-anchor:middle;display:inline;stroke-width:0.264583">
      <path
         d="m 181.57592,29.57683 q -0.40499,0 -0.7112,-0.167922 -0.30622,-0.172861 -0.47908,-0.469195 -0.17286,-0.301272 -0.17286,-0.686506 0,-0.385233 0.16299,-0.681566 0.16792,-0.296334 0.45437,-0.464256 0.2914,-0.172861 0.65194,-0.172861 0.36547,0 0.64699,0.167922 0.28646,0.162983 0.44944,0.464256 0.16298,0.296333 0.16298,0.686505 0,0.0247 -0.005,0.05433 0,0.02469 0,0.05433 h -2.25707 v -0.261761 h 2.0694 l -0.13829,0.103717 q 0,-0.281517 -0.12347,-0.498828 -0.11854,-0.22225 -0.32597,-0.345723 -0.20743,-0.123472 -0.47907,-0.123472 -0.2667,0 -0.47908,0.123472 -0.21237,0.123473 -0.3309,0.345723 -0.11853,0.22225 -0.11853,0.508705 v 0.05433 q 0,0.296333 0.12841,0.523522 0.13335,0.22225 0.36547,0.350662 0.23707,0.123472 0.53834,0.123472 0.23707,0 0.43956,-0.08396 0.20744,-0.08396 0.3556,-0.256823 l 0.19756,0.227189 q -0.17286,0.207434 -0.43462,0.316089 -0.25682,0.108656 -0.56797,0.108656 z"
         id="path15625" />
      <path
         d="m 184.60345,29.57683 q -0.38524,0 -0.69145,-0.167922 -0.30127,-0.172861 -0.47413,-0.469195 -0.17286,-0.301272 -0.17286,-0.686506 0,-0.390172 0.17286,-0.686505 0.17286,-0.296334 0.47413,-0.464256 0.30621,-0.167922 0.69145,-0.167922 0.3309,0 0.5976,0.128411 0.2667,0.128411 0.41981,0.385233 l -0.26176,0.1778 q -0.13335,-0.197555 -0.33091,-0.291394 -0.19756,-0.09384 -0.42968,-0.09384 -0.27658,0 -0.49883,0.128411 -0.22225,0.123472 -0.35066,0.350661 -0.12841,0.227189 -0.12841,0.5334 0,0.306212 0.12841,0.533401 0.12841,0.227188 0.35066,0.3556 0.22225,0.123472 0.49883,0.123472 0.23212,0 0.42968,-0.09384 0.19756,-0.09384 0.33091,-0.286456 l 0.26176,0.1778 q -0.15311,0.251884 -0.41981,0.385234 -0.2667,0.128411 -0.5976,0.128411 z"
         id="path15627" />
      <path
         d="M 186.74247,29.552135 V 27.17159 l 0.0889,0.09384 h -1.07174 v -0.306211 h 2.31634 v 0.306211 h -1.07174 l 0.0889,-0.09384 v 2.380545 z"
         id="path15629" />
      <path
         d="m 189.70087,27.872913 q 0.48895,0.0049 0.74083,0.217311 0.25682,0.212372 0.25682,0.612422 0,0.414867 -0.27658,0.637117 -0.27164,0.22225 -0.79022,0.217311 l -1.04704,-0.0049 v -2.592917 h 0.35066 v 0.903817 z m -0.0889,1.417461 q 0.36053,0.0049 0.54327,-0.143228 0.18768,-0.153105 0.18768,-0.4445 0,-0.291394 -0.18274,-0.424744 -0.18274,-0.138289 -0.54821,-0.143228 l -0.67663,-0.0099 v 1.155701 z"
         id="path15631" />
      <path
         d="m 194.56073,29.552135 -1.0668,-1.284111 0.29139,-0.172861 1.19027,1.456972 z m -1.90148,0 v -2.592917 h 0.35067 v 2.592917 z m 0.24201,-1.1557 v -0.301272 h 0.83467 v 0.301272 z m 0.91369,-0.103716 -0.32596,-0.04939 1.03223,-1.284112 h 0.38029 z"
         id="path15633" />
      <path
         d="m 195.52875,29.552135 v -2.592917 h 1.14582 q 0.43956,0 0.69144,0.167922 0.25683,0.167923 0.25683,0.493889 0,0.316089 -0.24201,0.488951 -0.24201,0.167922 -0.63712,0.167922 l 0.0692,-0.103717 q 0.46425,0 0.68156,0.172861 0.21732,0.172861 0.21732,0.498828 0,0.335845 -0.24695,0.523523 -0.242,0.182738 -0.75565,0.182738 z m 0.34078,-0.276577 h 0.82479 q 0.33091,0 0.49883,-0.103717 0.17286,-0.108656 0.17286,-0.345722 0,-0.237067 -0.1531,-0.345723 -0.15311,-0.108655 -0.48401,-0.108655 h -0.85937 z m 0,-1.165578 h 0.78034 q 0.30128,0 0.45932,-0.113595 0.16298,-0.113594 0.16298,-0.330906 0,-0.217311 -0.16298,-0.325966 -0.15804,-0.108656 -0.45932,-0.108656 h -0.78034 z"
         id="path15635" />
      <path
         d="m 199.59839,29.57683 q -0.37536,0 -0.67663,-0.167922 -0.29633,-0.172861 -0.46919,-0.469195 -0.17286,-0.301272 -0.17286,-0.686506 0,-0.390172 0.17286,-0.686505 0.17286,-0.296334 0.46919,-0.464256 0.29634,-0.167922 0.67663,-0.167922 0.38523,0 0.68157,0.167922 0.30127,0.167922 0.46919,0.464256 0.17286,0.296333 0.17286,0.686505 0,0.385234 -0.17286,0.686506 -0.16792,0.296334 -0.46919,0.469195 -0.30128,0.167922 -0.68157,0.167922 z m 0,-0.31115 q 0.28152,0 0.49883,-0.123472 0.21731,-0.128412 0.34078,-0.3556 0.12841,-0.232128 0.12841,-0.533401 0,-0.306211 -0.12841,-0.5334 -0.12347,-0.227189 -0.34078,-0.350661 -0.21731,-0.128411 -0.49389,-0.128411 -0.27658,0 -0.49389,0.128411 -0.21731,0.123472 -0.34572,0.350661 -0.12841,0.227189 -0.12841,0.5334 0,0.301273 0.12841,0.533401 0.12841,0.227188 0.34572,0.3556 0.21731,0.123472 0.48895,0.123472 z"
         id="path15637" />
      <path
         d="m 203.01116,29.57683 q -0.33584,0 -0.60748,-0.153106 -0.27164,-0.158044 -0.43462,-0.449439 -0.15805,-0.296333 -0.15805,-0.721078 0,-0.424744 0.15805,-0.716139 0.15804,-0.296333 0.42968,-0.449439 0.27164,-0.153105 0.61242,-0.153105 0.37042,0 0.66181,0.167922 0.29634,0.162983 0.46426,0.464256 0.16792,0.296333 0.16792,0.686505 0,0.395112 -0.16792,0.691445 -0.16792,0.296333 -0.46426,0.464256 -0.29139,0.167922 -0.66181,0.167922 z m -1.33844,0.93345 v -3.551062 h 0.33585 v 0.780345 l -0.0346,0.518583 0.0494,0.523523 v 1.728611 z m 1.31375,-1.2446 q 0.27658,0 0.49389,-0.123472 0.21731,-0.128412 0.34572,-0.3556 0.12841,-0.232128 0.12841,-0.533401 0,-0.301272 -0.12841,-0.528461 -0.12841,-0.227189 -0.34572,-0.3556 -0.21731,-0.128411 -0.49389,-0.128411 -0.27658,0 -0.49883,0.128411 -0.21731,0.128411 -0.34572,0.3556 -0.12348,0.227189 -0.12348,0.528461 0,0.301273 0.12348,0.533401 0.12841,0.227188 0.34572,0.3556 0.22225,0.123472 0.49883,0.123472 z"
         id="path15639" />
      <path
         d="m 205.03116,30.534975 q -0.18274,0 -0.35066,-0.05927 -0.16299,-0.05927 -0.28152,-0.1778 l 0.16298,-0.261761 q 0.0988,0.09384 0.21237,0.143227 0.11854,0.05433 0.26177,0.05433 0.17286,0 0.29633,-0.09878 0.12841,-0.09384 0.242,-0.335844 l 0.16793,-0.380295 0.0395,-0.05433 1.0668,-2.40524 h 0.34572 l -1.29893,2.904068 q -0.10865,0.251883 -0.242,0.40005 -0.12841,0.148166 -0.28152,0.207433 -0.15311,0.06421 -0.34078,0.06421 z m 0.69144,-0.908756 -1.19521,-2.667001 h 0.36548 l 1.05692,2.380545 z"
         id="path15641" />
      <path
         d="m 207.7426,29.552135 v -2.592917 h 0.3556 l 1.17546,1.990373 h -0.14817 l 1.19521,-1.990373 h 0.32597 v 2.592917 h -0.32103 v -2.192867 l 0.0642,0.02963 -1.11619,1.847145 h -0.15805 l -1.12607,-1.866901 0.0741,-0.01482 v 2.197806 z"
         id="path15643" />
      <path
         d="m 185.80524,35.725748 v -2.592917 h 1.83726 v 0.306211 h -1.5755 l 0.0889,-0.0889 v 2.375606 z"
         id="path15645" />
      <path
         d="m 189.10012,35.750442 q -0.37536,0 -0.67663,-0.167922 -0.29633,-0.172861 -0.46919,-0.469194 -0.17287,-0.301273 -0.17287,-0.686506 0,-0.390172 0.17287,-0.686506 0.17286,-0.296333 0.46919,-0.464255 0.29633,-0.167923 0.67663,-0.167923 0.38523,0 0.68156,0.167923 0.30128,0.167922 0.4692,0.464255 0.17286,0.296334 0.17286,0.686506 0,0.385233 -0.17286,0.686506 -0.16792,0.296333 -0.4692,0.469194 -0.30127,0.167922 -0.68156,0.167922 z m 0,-0.31115 q 0.28151,0 0.49883,-0.123472 0.21731,-0.128411 0.34078,-0.3556 0.12841,-0.232128 0.12841,-0.5334 0,-0.306211 -0.12841,-0.5334 -0.12347,-0.227189 -0.34078,-0.350661 -0.21732,-0.128412 -0.49389,-0.128412 -0.27658,0 -0.49389,0.128412 -0.21731,0.123472 -0.34572,0.350661 -0.12842,0.227189 -0.12842,0.5334 0,0.301272 0.12842,0.5334 0.12841,0.227189 0.34572,0.3556 0.21731,0.123472 0.48895,0.123472 z"
         id="path15647" />
      <path
         d="m 190.68633,35.720809 0.0247,-0.301272 q 0.0346,0.0049 0.0642,0.01482 0.0346,0.0049 0.0593,0.0049 0.15805,0 0.25189,-0.118533 0.0988,-0.118533 0.14816,-0.316089 0.0494,-0.197556 0.0691,-0.4445 0.0198,-0.251883 0.0346,-0.503767 l 0.0445,-0.923572 h 1.90147 v 2.592917 h -0.35066 V 33.33529 l 0.0889,0.103717 h -1.41252 l 0.084,-0.108656 -0.0395,0.750712 q -0.0148,0.335844 -0.0543,0.642055 -0.0346,0.306211 -0.11359,0.538339 -0.0741,0.232128 -0.20744,0.365478 -0.13335,0.128411 -0.34078,0.128411 -0.0593,0 -0.12347,-0.0099 -0.0593,-0.0099 -0.12841,-0.02469 z"
         id="path15649" />
      <path
         d="m 195.34864,35.750442 q -0.37536,0 -0.67663,-0.167922 -0.29633,-0.172861 -0.46919,-0.469194 -0.17286,-0.301273 -0.17286,-0.686506 0,-0.390172 0.17286,-0.686506 0.17286,-0.296333 0.46919,-0.464255 0.29633,-0.167923 0.67663,-0.167923 0.38523,0 0.68157,0.167923 0.30127,0.167922 0.46919,0.464255 0.17286,0.296334 0.17286,0.686506 0,0.385233 -0.17286,0.686506 -0.16792,0.296333 -0.46919,0.469194 -0.30128,0.167922 -0.68157,0.167922 z m 0,-0.31115 q 0.28152,0 0.49883,-0.123472 0.21731,-0.128411 0.34078,-0.3556 0.12841,-0.232128 0.12841,-0.5334 0,-0.306211 -0.12841,-0.5334 -0.12347,-0.227189 -0.34078,-0.350661 -0.21731,-0.128412 -0.49389,-0.128412 -0.27658,0 -0.49389,0.128412 -0.21731,0.123472 -0.34572,0.350661 -0.12841,0.227189 -0.12841,0.5334 0,0.301272 0.12841,0.5334 0.12841,0.227189 0.34572,0.3556 0.21731,0.123472 0.48895,0.123472 z"
         id="path15651" />
      <path
         d="m 198.50953,35.750442 q -0.38524,0 -0.69145,-0.167922 -0.30127,-0.172861 -0.47413,-0.469194 -0.17286,-0.301273 -0.17286,-0.686506 0,-0.390172 0.17286,-0.686506 0.17286,-0.296333 0.47413,-0.464255 0.30621,-0.167923 0.69145,-0.167923 0.3309,0 0.5976,0.128411 0.2667,0.128412 0.41981,0.385234 l -0.26176,0.1778 q -0.13335,-0.197556 -0.33091,-0.291395 -0.19755,-0.09384 -0.42968,-0.09384 -0.27658,0 -0.49883,0.128412 -0.22225,0.123472 -0.35066,0.350661 -0.12841,0.227189 -0.12841,0.5334 0,0.306211 0.12841,0.5334 0.12841,0.227189 0.35066,0.3556 0.22225,0.123472 0.49883,0.123472 0.23213,0 0.42968,-0.09384 0.19756,-0.09384 0.33091,-0.286455 l 0.26176,0.1778 q -0.15311,0.251883 -0.41981,0.385233 -0.2667,0.128411 -0.5976,0.128411 z"
         id="path15653" />
      <path
         d="m 201.22657,35.750442 q -0.37535,0 -0.67663,-0.167922 -0.29633,-0.172861 -0.46919,-0.469194 -0.17286,-0.301273 -0.17286,-0.686506 0,-0.390172 0.17286,-0.686506 0.17286,-0.296333 0.46919,-0.464255 0.29634,-0.167923 0.67663,-0.167923 0.38523,0 0.68157,0.167923 0.30127,0.167922 0.46919,0.464255 0.17286,0.296334 0.17286,0.686506 0,0.385233 -0.17286,0.686506 -0.16792,0.296333 -0.46919,0.469194 -0.30127,0.167922 -0.68157,0.167922 z m 0,-0.31115 q 0.28152,0 0.49883,-0.123472 0.21731,-0.128411 0.34078,-0.3556 0.12841,-0.232128 0.12841,-0.5334 0,-0.306211 -0.12841,-0.5334 -0.12347,-0.227189 -0.34078,-0.350661 -0.21731,-0.128412 -0.49389,-0.128412 -0.27658,0 -0.49389,0.128412 -0.21731,0.123472 -0.34572,0.350661 -0.12841,0.227189 -0.12841,0.5334 0,0.301272 0.12841,0.5334 0.12841,0.227189 0.34572,0.3556 0.21731,0.123472 0.48895,0.123472 z"
         id="path15655" />
      <path
         d="m 203.3009,35.725748 v -2.592917 h 1.14583 q 0.43956,0 0.69144,0.167922 0.25682,0.167922 0.25682,0.493889 0,0.316089 -0.242,0.48895 -0.24201,0.167922 -0.63712,0.167922 l 0.0691,-0.103716 q 0.46426,0 0.68157,0.172861 0.21731,0.172861 0.21731,0.498828 0,0.335844 -0.24694,0.523522 -0.24201,0.182739 -0.75565,0.182739 z m 0.34079,-0.276578 h 0.82479 q 0.33091,0 0.49883,-0.103717 0.17286,-0.108655 0.17286,-0.345722 0,-0.237067 -0.15311,-0.345722 -0.1531,-0.108656 -0.48401,-0.108656 h -0.85936 z m 0,-1.165578 h 0.78034 q 0.30127,0 0.45932,-0.113594 0.16298,-0.113595 0.16298,-0.330906 0,-0.217311 -0.16298,-0.325967 -0.15805,-0.108655 -0.45932,-0.108655 h -0.78034 z"
         id="path15657" />
    </g>
    <text
       xml:space="preserve"
       style="font-style:normal;font-variant:normal;font-weight:normal;font-stretch:normal;font-size:4.93889px;line-height:1.25;font-family:Montserrat;-inkscape-font-specification:Montserrat;display:inline;stroke-width:0.264583"
       x="96.786522"
       y="126.37289"
       id="text4593-3"><tspan
         sodipodi:role="line"
         id="tspan4591-6"
         style="font-style:normal;font-variant:normal;font-weight:normal;font-stretch:normal;font-size:4.93889px;font-family:Montserrat;-inkscape-font-specification:Montserrat;stroke-width:0.264583"
         x="96.786522"
         y="126.37289">обнаружен лидер</tspan><tspan
         sodipodi:role="line"
         style="font-style:normal;font-variant:normal;font-weight:normal;font-stretch:normal;font-size:4.93889px;font-family:Montserrat;-inkscape-font-specification:Montserrat;stroke-width:0.264583"
         x="96.786522"
         y="132.54649"
         id="tspan5453-7">или новый терм</tspan></text>
  </g>
</svg>
