<?xml version="1.0" encoding="UTF-8" standalone="no"?>
<!-- Created with Inkscape (http://www.inkscape.org/) -->

<svg
   width="1050"
   height="450"
   viewBox="0 0 277.8125 119.0625"
   version="1.1"
   id="svg5"
   inkscape:version="1.1.2 (0a00cf5339, 2022-02-04)"
   sodipodi:docname="s2.svg"
   xmlns:inkscape="http://www.inkscape.org/namespaces/inkscape"
   xmlns:sodipodi="http://sodipodi.sourceforge.net/DTD/sodipodi-0.dtd"
   xmlns="http://www.w3.org/2000/svg"
   xmlns:svg="http://www.w3.org/2000/svg">
  <sodipodi:namedview
     id="namedview7"
     pagecolor="#ffffff"
     bordercolor="#666666"
     borderopacity="1.0"
     inkscape:pageshadow="2"
     inkscape:pageopacity="0.0"
     inkscape:pagecheckerboard="true"
     inkscape:document-units="px"
     showgrid="false"
     units="px"
     inkscape:zoom="0.93496441"
     inkscape:cx="456.70188"
     inkscape:cy="328.88952"
     inkscape:window-width="1846"
     inkscape:window-height="1016"
     inkscape:window-x="0"
     inkscape:window-y="0"
     inkscape:window-maximized="1"
     inkscape:current-layer="g4282"
     borderlayer="true"
     showborder="true"
     inkscape:showpageshadow="true"
     showguides="true"
     inkscape:guide-bbox="true"
     inkscape:snap-object-midpoints="false"
     inkscape:snap-center="true" />
  <defs
     id="defs2">
    <clipPath
       clipPathUnits="userSpaceOnUse"
       id="clipPath1734">
      <path
         d="M 0,0.028 H 595.275 V 841.889 H 0 Z"
         clip-rule="evenodd"
         id="path1732" />
    </clipPath>
    <clipPath
       clipPathUnits="userSpaceOnUse"
       id="clipPath5199">
      <path
         d="M 0,0.028 H 595.275 V 841.889 H 0 Z"
         clip-rule="evenodd"
         id="path5197" />
    </clipPath>
    <clipPath
       clipPathUnits="userSpaceOnUse"
       id="clipPath6407">
      <path
         d="M 0,0.028 H 595.275 V 841.889 H 0 Z"
         clip-rule="evenodd"
         id="path6405" />
    </clipPath>
    <clipPath
       clipPathUnits="userSpaceOnUse"
       id="clipPath1022">
      <path
         d="M 0,0.028 H 595.275 V 841.889 H 0 Z"
         clip-rule="evenodd"
         id="path1020" />
    </clipPath>
  </defs>
  <g
     inkscape:label="Layer 1"
     inkscape:groupmode="layer"
     id="layer1">
    <g
       id="g22969">
      <g
         id="g4282"
         transform="matrix(0.26622329,0,0,-0.26622329,0.92686165,218.55941)">
        <g
           id="g22953">
          <path
             id="rect7212"
             style="fill:#ffffff;stroke:#000000;stroke-width:1.32512;stroke-linecap:round;stop-color:#000000"
             transform="scale(1,-1)"
             d="M 0.22540349,-817.25586 H 595.07855 v 509.95929 H 0.22540349 Z" />
          <g
             id="g5862"
             transform="matrix(1.0000485,0,0,1.0000485,-0.50000228,9.3465946)">
            <g
               aria-label="Raft State"
               transform="matrix(1,0,0,-1,228.95,746.089)"
               id="text5866"
               style="font-size:28px;font-family:Montserrat;-inkscape-font-specification:Montserrat-Regular">
              <path
                 d="m 3.192,0 v -19.6 h 7.336 q 2.492,0 4.284,0.812 1.792,0.784 2.744,2.296 0.98,1.484 0.98,3.612 0,2.072 -0.98,3.584 -0.952,1.484 -2.744,2.296 -1.792,0.784 -4.284,0.784 H 4.34 L 5.264,-7.168 V 0 Z m 13.384,0 -5.04,-7.112 h 2.24 L 18.844,0 Z M 5.264,-7 4.34,-7.98 h 6.132 q 2.94,0 4.452,-1.288 1.54,-1.288 1.54,-3.612 0,-2.352 -1.54,-3.64 -1.512,-1.288 -4.452,-1.288 H 4.34 l 0.924,-0.98 z"
                 id="path21849" />
              <path
                 d="M 32.088,0 V -3.248 L 32.004,-3.78 v -5.432 q 0,-1.876 -1.064,-2.884 -1.036,-1.008 -3.108,-1.008 -1.428,0 -2.716,0.476 -1.288,0.476 -2.184,1.26 l -0.896,-1.484 q 1.12,-0.952 2.688,-1.456 1.568,-0.532 3.304,-0.532 2.856,0 4.396,1.428 1.568,1.4 1.568,4.284 V 0 Z M 27.02,0.14 q -1.652,0 -2.884,-0.532 -1.204,-0.56 -1.848,-1.512 -0.644,-0.98 -0.644,-2.24 0,-1.148 0.532,-2.072 0.56,-0.952 1.792,-1.512 1.26,-0.588 3.36,-0.588 h 5.068 v 1.484 h -5.012 q -2.128,0 -2.968,0.756 -0.812,0.756 -0.812,1.876 0,1.26 0.98,2.016 0.98,0.756 2.744,0.756 1.68,0 2.884,-0.756 1.232,-0.784 1.792,-2.24 l 0.448,1.372 q -0.56,1.456 -1.96,2.324 Q 29.12,0.14 27.02,0.14 Z"
                 id="path21851" />
              <path
                 d="m 39.732001,0 v -16.548 q 0,-1.96 1.148,-3.164 1.148,-1.204 3.304,-1.204 0.84,0 1.624,0.224 0.784,0.224 1.316,0.7 l -0.672,1.484 q -0.42,-0.364 -0.98,-0.532 -0.56,-0.196 -1.204,-0.196 -1.26,0 -1.932,0.7 -0.672,0.7 -0.672,2.072 v 2.24 l 0.056,0.924 V 0 Z m -2.632,-13.048 V -14.7 h 9.1 v 1.652 z"
                 id="path21853" />
              <path
                 d="m 53.536001,0.14 q -2.072,0 -3.192,-1.12 -1.12,-1.12 -1.12,-3.164 v -13.804 h 1.988 v 13.692 q 0,1.288 0.644,1.988 0.672,0.7 1.904,0.7 1.316,0 2.184,-0.756 l 0.7,1.428 q -0.588,0.532 -1.428,0.784 -0.812,0.252 -1.68,0.252 z m -6.944,-13.188 V -14.7 h 9.1 v 1.652 z"
                 id="path21855" />
              <path
                 d="m 73.416,0.168 q -2.184,0 -4.2,-0.7 -1.988,-0.728 -3.08,-1.848 l 0.812,-1.596 q 1.036,1.008 2.772,1.708 1.764,0.672 3.696,0.672 1.848,0 2.996,-0.448 1.176,-0.476 1.708,-1.26 0.56,-0.784 0.56,-1.736 0,-1.148 -0.672,-1.848 -0.644,-0.7 -1.708,-1.092 -1.064,-0.42 -2.352,-0.728 -1.288,-0.308 -2.576,-0.644 -1.288,-0.364 -2.38,-0.952 -1.064,-0.588 -1.736,-1.54 -0.644,-0.98 -0.644,-2.548 0,-1.456 0.756,-2.66 0.784,-1.232 2.38,-1.96 1.596,-0.756 4.088,-0.756 1.652,0 3.276,0.476 1.624,0.448 2.8,1.26 l -0.7,1.652 q -1.26,-0.84 -2.688,-1.232 -1.4,-0.392 -2.716,-0.392 -1.764,0 -2.912,0.476 -1.148,0.476 -1.708,1.288 -0.532,0.784 -0.532,1.792 0,1.148 0.644,1.848 0.672,0.7 1.736,1.092 1.092,0.392 2.38,0.7 1.288,0.308 2.548,0.672 1.288,0.364 2.352,0.952 1.092,0.56 1.736,1.512 0.672,0.952 0.672,2.492 0,1.428 -0.784,2.66 -0.784,1.204 -2.408,1.96 -1.596,0.728 -4.116,0.728 z"
                 id="path21857" />
              <path
                 d="m 89.460001,0.14 q -2.072,0 -3.192,-1.12 -1.12,-1.12 -1.12,-3.164 v -13.804 h 1.988 v 13.692 q 0,1.288 0.644,1.988 0.672,0.7 1.904,0.7 1.316,0 2.184,-0.756 l 0.7,1.428 q -0.588,0.532 -1.428,0.784 -0.812,0.252 -1.68,0.252 z m -6.944,-13.188 V -14.7 h 9.1 v 1.652 z"
                 id="path21859" />
              <path
                 d="m 105.392,0 v -3.248 l -0.084,-0.532 v -5.432 q 0,-1.876 -1.064,-2.884 -1.036,-1.008 -3.108,-1.008 -1.428003,0 -2.716003,0.476 -1.288,0.476 -2.184,1.26 l -0.896,-1.484 q 1.12,-0.952 2.688,-1.456 1.568,-0.532 3.304003,-0.532 2.856,0 4.396,1.428 1.568,1.4 1.568,4.284 V 0 Z m -5.068,0.14 q -1.652003,0 -2.884003,-0.532 -1.204,-0.56 -1.848,-1.512 -0.644,-0.98 -0.644,-2.24 0,-1.148 0.532,-2.072 0.56,-0.952 1.792,-1.512 1.26,-0.588 3.360003,-0.588 h 5.068 v 1.484 h -5.012 q -2.128003,0 -2.968003,0.756 -0.812,0.756 -0.812,1.876 0,1.26 0.98,2.016 0.98,0.756 2.744003,0.756 1.68,0 2.884,-0.756 1.232,-0.784 1.792,-2.24 l 0.448,1.372 q -0.56,1.456 -1.96,2.324 -1.372,0.868 -3.472,0.868 z"
                 id="path21861" />
              <path
                 d="m 117.348,0.14 q -2.072,0 -3.192,-1.12 -1.12,-1.12 -1.12,-3.164 v -13.804 h 1.988 v 13.692 q 0,1.288 0.644,1.988 0.672,0.7 1.904,0.7 1.316,0 2.184,-0.756 l 0.7,1.428 q -0.588,0.532 -1.428,0.784 -0.812,0.252 -1.68,0.252 z m -6.944,-13.188 V -14.7 h 9.1 v 1.652 z"
                 id="path21863" />
              <path
                 d="m 129.78,0.14 q -2.296,0 -4.032,-0.952 -1.736,-0.98 -2.716,-2.66 -0.98,-1.708 -0.98,-3.892 0,-2.184 0.924,-3.864 0.952,-1.68 2.576,-2.632 1.652,-0.98 3.696,-0.98 2.072,0 3.668,0.952 1.624,0.924 2.548,2.632 0.924,1.68 0.924,3.892 0,0.14 -0.028,0.308 0,0.14 0,0.308 h -12.796 v -1.484 h 11.732 l -0.784,0.588 q 0,-1.596 -0.7,-2.828 -0.672,-1.26 -1.848,-1.96 -1.176,-0.7 -2.716,-0.7 -1.512,0 -2.716,0.7 -1.204,0.7 -1.876,1.96 -0.672,1.26 -0.672,2.884 v 0.308 q 0,1.68 0.728,2.968 0.756,1.26 2.072,1.988 1.344,0.7 3.052,0.7 1.344,0 2.492,-0.476 1.176,-0.476 2.016,-1.456 l 1.12,1.288 q -0.98,1.176 -2.464,1.792 -1.456,0.616 -3.22,0.616 z"
                 id="path21865" />
            </g>
          </g>
          <g
             id="g5868"
             transform="matrix(1.0000485,0,0,1.0000485,-0.50000228,9.3465946)">
            <g
               aria-label="Terms"
               transform="matrix(1,0,0,-1,56.8,679.789)"
               id="text5872"
               style="font-size:18px;font-family:Montserrat;-inkscape-font-specification:Montserrat-Regular">
              <path
                 d="M 4.5,0 V -11.448 H 0.072 V -12.6 H 10.26 v 1.152 H 5.832 V 0 Z"
                 id="path22439" />
              <path
                 d="m 15.138,0.09 q -1.476,0 -2.592,-0.612 -1.116,-0.63 -1.746,-1.71 -0.63,-1.098 -0.63,-2.502 0,-1.404 0.594,-2.484 0.612,-1.08 1.656,-1.692 1.062,-0.63 2.376,-0.63 1.332,0 2.358,0.612 1.044,0.594 1.638,1.692 0.594,1.08 0.594,2.502 0,0.09 -0.018,0.198 0,0.09 0,0.198 h -8.226 v -0.954 h 7.542 l -0.504,0.378 q 0,-1.026 -0.45,-1.818 -0.432,-0.81 -1.188,-1.26 -0.756,-0.45 -1.746,-0.45 -0.972,0 -1.746,0.45 -0.774,0.45 -1.206,1.26 -0.432,0.81 -0.432,1.854 v 0.198 q 0,1.08 0.468,1.908 0.486,0.81 1.332,1.278 0.864,0.45 1.962,0.45 0.864,0 1.602,-0.306 0.756,-0.306 1.296,-0.936 l 0.72,0.828 q -0.63,0.756 -1.584,1.152 -0.936,0.396 -2.07,0.396 z"
                 id="path22441" />
              <path
                 d="m 21.996001,0 v -9.45 h 1.224 v 2.574 l -0.126,-0.45 q 0.396,-1.08 1.332,-1.638 0.936,-0.576 2.322,-0.576 v 1.242 q -0.072,0 -0.144,0 -0.072,-0.018 -0.144,-0.018 -1.494,0 -2.34,0.918 -0.846,0.9 -0.846,2.574 V 0 Z"
                 id="path22443" />
              <path
                 d="m 40.878,-9.54 q 1.152,0 1.998,0.45 0.864,0.432 1.332,1.332 0.486,0.9 0.486,2.268 V 0 h -1.278 v -5.364 q 0,-1.494 -0.72,-2.25 -0.702,-0.774 -1.998,-0.774 -0.972,0 -1.692,0.414 -0.702,0.396 -1.098,1.17 -0.378,0.756 -0.378,1.836 V 0 h -1.278 v -5.364 q 0,-1.494 -0.72,-2.25 -0.72,-0.774 -2.016,-0.774 -0.954,0 -1.674,0.414 -0.72,0.396 -1.116,1.17 -0.378,0.756 -0.378,1.836 V 0 H 29.07 v -9.45 h 1.224 v 2.556 l -0.198,-0.45 q 0.432,-1.026 1.386,-1.602 0.972,-0.594 2.286,-0.594 1.386,0 2.358,0.702 0.972,0.684 1.26,2.07 l -0.504,-0.198 q 0.414,-1.152 1.458,-1.854 1.062,-0.72 2.538,-0.72 z"
                 id="path22445" />
              <path
                 d="m 50.706002,0.09 q -1.17,0 -2.214,-0.324 -1.044,-0.342 -1.638,-0.846 l 0.576,-1.008 q 0.576,0.432 1.476,0.756 0.9,0.306 1.89,0.306 1.35,0 1.944,-0.414 0.594,-0.432 0.594,-1.134 0,-0.522 -0.342,-0.81 -0.324,-0.306 -0.864,-0.45 -0.54,-0.162 -1.206,-0.27 -0.666,-0.108 -1.332,-0.252 -0.648,-0.144 -1.188,-0.414 -0.54,-0.288 -0.882,-0.774 -0.324,-0.486 -0.324,-1.296 0,-0.774 0.432,-1.386 0.432,-0.612 1.26,-0.954 0.846,-0.36 2.052,-0.36 0.918,0 1.836,0.252 0.918,0.234 1.512,0.63 l -0.558,1.026 q -0.63,-0.432 -1.35,-0.612 -0.72,-0.198 -1.44,-0.198 -1.278,0 -1.89,0.45 -0.594,0.432 -0.594,1.116 0,0.54 0.324,0.846 0.342,0.306 0.882,0.486 0.558,0.162 1.206,0.27 0.666,0.108 1.314,0.27 0.666,0.144 1.206,0.414 0.558,0.252 0.882,0.738 0.342,0.468 0.342,1.242 0,0.828 -0.468,1.44 -0.45,0.594 -1.332,0.936 -0.864,0.324 -2.106,0.324 z"
                 id="path22447" />
            </g>
          </g>
          <g
             id="g5874"
             transform="matrix(1.0000485,0,0,1.0000485,-0.50000228,9.3465946)">
            <path
               d="m 141.45,669.039 h 397.4"
               style="fill:none;stroke:#000000;stroke-width:0.5;stroke-linecap:butt;stroke-linejoin:round;stroke-miterlimit:10;stroke-dasharray:none;stroke-opacity:1"
               id="path5876" />
          </g>
          <g
             id="g5878"
             transform="matrix(1.0000485,0,0,1.0000485,-0.50000228,9.3465946)">
            <path
               d="m 141.45,637.739 h 397.4"
               style="fill:none;stroke:#000000;stroke-width:0.5;stroke-linecap:butt;stroke-linejoin:round;stroke-miterlimit:10;stroke-dasharray:none;stroke-opacity:1"
               id="path5880" />
          </g>
          <g
             id="g5882"
             transform="matrix(1.0000485,0,0,1.0000485,-0.50000228,9.3465946)">
            <path
               d="m 141.45,606.439 h 397.4"
               style="fill:none;stroke:#000000;stroke-width:0.5;stroke-linecap:butt;stroke-linejoin:round;stroke-miterlimit:10;stroke-dasharray:none;stroke-opacity:1"
               id="path5884" />
          </g>
          <g
             id="g5886"
             transform="matrix(1.0000485,0,0,1.0000485,-0.50000228,9.3465946)">
            <path
               d="m 141.7,669.289 v -63.1"
               style="fill:none;stroke:#000000;stroke-width:0.5;stroke-linecap:butt;stroke-linejoin:round;stroke-miterlimit:10;stroke-dasharray:none;stroke-opacity:1"
               id="path5888" />
          </g>
          <g
             id="g5890"
             transform="matrix(1.0000485,0,0,1.0000485,-0.50000228,9.3465946)">
            <path
               d="m 170,669.289 v -63.1"
               style="fill:none;stroke:#000000;stroke-width:0.5;stroke-linecap:butt;stroke-linejoin:round;stroke-miterlimit:10;stroke-dasharray:none;stroke-opacity:1"
               id="path5892" />
          </g>
          <g
             id="g5894"
             transform="matrix(1.0000485,0,0,1.0000485,-0.50000228,9.3465946)">
            <path
               d="m 198.4,669.289 v -63.1"
               style="fill:none;stroke:#000000;stroke-width:0.5;stroke-linecap:butt;stroke-linejoin:round;stroke-miterlimit:10;stroke-dasharray:none;stroke-opacity:1"
               id="path5896" />
          </g>
          <g
             id="g5898"
             transform="matrix(1.0000485,0,0,1.0000485,-0.50000228,9.3465946)">
            <path
               d="m 226.7,669.289 v -63.1"
               style="fill:none;stroke:#000000;stroke-width:0.5;stroke-linecap:butt;stroke-linejoin:round;stroke-miterlimit:10;stroke-dasharray:none;stroke-opacity:1"
               id="path5900" />
          </g>
          <g
             id="g5902"
             transform="matrix(1.0000485,0,0,1.0000485,-0.50000228,9.3465946)">
            <path
               d="m 255.1,669.289 v -63.1"
               style="fill:none;stroke:#000000;stroke-width:0.5;stroke-linecap:butt;stroke-linejoin:round;stroke-miterlimit:10;stroke-dasharray:none;stroke-opacity:1"
               id="path5904" />
          </g>
          <g
             id="g5906"
             transform="matrix(1.0000485,0,0,1.0000485,-0.50000228,9.3465946)">
            <path
               d="m 283.4,669.289 v -63.1"
               style="fill:none;stroke:#000000;stroke-width:0.5;stroke-linecap:butt;stroke-linejoin:round;stroke-miterlimit:10;stroke-dasharray:none;stroke-opacity:1"
               id="path5908" />
          </g>
          <g
             id="g5910"
             transform="matrix(1.0000485,0,0,1.0000485,-0.50000228,9.3465946)">
            <path
               d="m 311.8,669.289 v -63.1"
               style="fill:none;stroke:#000000;stroke-width:0.5;stroke-linecap:butt;stroke-linejoin:round;stroke-miterlimit:10;stroke-dasharray:none;stroke-opacity:1"
               id="path5912" />
          </g>
          <g
             id="g5914"
             transform="matrix(1.0000485,0,0,1.0000485,-0.50000228,9.3465946)">
            <path
               d="m 340.1,669.289 v -63.1"
               style="fill:none;stroke:#000000;stroke-width:0.5;stroke-linecap:butt;stroke-linejoin:round;stroke-miterlimit:10;stroke-dasharray:none;stroke-opacity:1"
               id="path5916" />
          </g>
          <g
             id="g5918"
             transform="matrix(1.0000485,0,0,1.0000485,-0.50000228,9.3465946)">
            <path
               d="m 368.5,669.289 v -63.1"
               style="fill:none;stroke:#000000;stroke-width:0.5;stroke-linecap:butt;stroke-linejoin:round;stroke-miterlimit:10;stroke-dasharray:none;stroke-opacity:1"
               id="path5920" />
          </g>
          <g
             id="g5922"
             transform="matrix(1.0000485,0,0,1.0000485,-0.50000228,9.3465946)">
            <path
               d="m 396.8,669.289 v -63.1"
               style="fill:none;stroke:#000000;stroke-width:0.5;stroke-linecap:butt;stroke-linejoin:round;stroke-miterlimit:10;stroke-dasharray:none;stroke-opacity:1"
               id="path5924" />
          </g>
          <g
             id="g5926"
             transform="matrix(1.0000485,0,0,1.0000485,-0.50000228,9.3465946)">
            <path
               d="m 425.2,669.289 v -63.1"
               style="fill:none;stroke:#000000;stroke-width:0.5;stroke-linecap:butt;stroke-linejoin:round;stroke-miterlimit:10;stroke-dasharray:none;stroke-opacity:1"
               id="path5928" />
          </g>
          <g
             id="g5930"
             transform="matrix(1.0000485,0,0,1.0000485,-0.50000228,9.3465946)">
            <path
               d="m 453.5,669.289 v -63.1"
               style="fill:none;stroke:#000000;stroke-width:0.5;stroke-linecap:butt;stroke-linejoin:round;stroke-miterlimit:10;stroke-dasharray:none;stroke-opacity:1"
               id="path5932" />
          </g>
          <g
             id="g5934"
             transform="matrix(1.0000485,0,0,1.0000485,-0.50000228,9.3465946)">
            <path
               d="m 481.9,669.289 v -63.1"
               style="fill:none;stroke:#000000;stroke-width:0.5;stroke-linecap:butt;stroke-linejoin:round;stroke-miterlimit:10;stroke-dasharray:none;stroke-opacity:1"
               id="path5936" />
          </g>
          <g
             id="g5938"
             transform="matrix(1.0000485,0,0,1.0000485,-0.50000228,9.3465946)">
            <path
               d="m 510.2,669.289 v -63.1"
               style="fill:none;stroke:#000000;stroke-width:0.5;stroke-linecap:butt;stroke-linejoin:round;stroke-miterlimit:10;stroke-dasharray:none;stroke-opacity:1"
               id="path5940" />
          </g>
          <g
             id="g5942"
             transform="matrix(1.0000485,0,0,1.0000485,-0.50000228,9.3465946)">
            <path
               d="m 538.6,669.289 v -63.1"
               style="fill:none;stroke:#000000;stroke-width:0.5;stroke-linecap:butt;stroke-linejoin:round;stroke-miterlimit:10;stroke-dasharray:none;stroke-opacity:1"
               id="path5944" />
          </g>
          <g
             id="g5946"
             transform="matrix(1.0000485,0,0,1.0000485,-0.50000228,9.3465946)">
            <g
               aria-label="term:"
               transform="matrix(1,0,0,-1,92.25,647.639)"
               id="text5950"
               style="font-size:16px;font-family:Montserrat;-inkscape-font-specification:Montserrat-Regular">
              <path
                 d="m 4.24,0.08 q -1.184,0 -1.824,-0.64 -0.64,-0.64 -0.64,-1.808 v -7.888 h 1.136 v 7.824 q 0,0.736 0.368,1.136 0.384,0.4 1.088,0.4 0.752,0 1.248,-0.432 l 0.4,0.816 Q 5.68,-0.208 5.2,-0.064 4.736,0.08 4.24,0.08 Z M 0.272,-7.456 V -8.4 h 5.2 v 0.944 z"
                 id="path22428" />
              <path
                 d="m 11.344,0.08 q -1.312,0 -2.3040001,-0.544 -0.992,-0.56 -1.552,-1.52 -0.56,-0.976 -0.56,-2.224 0,-1.248 0.528,-2.208 0.544,-0.96 1.472,-1.504 0.944,-0.56 2.1120001,-0.56 1.184,0 2.096,0.544 0.928,0.528 1.456,1.504 0.528,0.96 0.528,2.224 0,0.08 -0.016,0.176 0,0.08 0,0.176 H 7.7919999 V -4.704 H 14.496 l -0.448,0.336 q 0,-0.912 -0.4,-1.616 -0.384,-0.72 -1.056,-1.12 -0.672,-0.4 -1.552,-0.4 -0.864,0 -1.5520001,0.4 -0.688,0.4 -1.072,1.12 -0.384,0.72 -0.384,1.648 v 0.176 q 0,0.96 0.416,1.696 0.432,0.72 1.184,1.136 0.7680001,0.4 1.7440001,0.4 0.768,0 1.424,-0.272 0.672,-0.272 1.152,-0.832 l 0.64,0.736 q -0.56,0.672 -1.408,1.024 -0.832,0.352 -1.84,0.352 z"
                 id="path22430" />
              <path
                 d="m 17.44,0 v -8.4 h 1.088 v 2.288 l -0.112,-0.4 q 0.352,-0.96 1.184,-1.456 0.832,-0.512 2.064,-0.512 v 1.104 q -0.064,0 -0.128,0 -0.064,-0.016 -0.128,-0.016 -1.328,0 -2.08,0.816 -0.752,0.8 -0.752,2.288 V 0 Z"
                 id="path22432" />
              <path
                 d="m 34.223999,-8.48 q 1.024,0 1.776,0.4 0.768,0.384 1.184,1.184 0.432,0.8 0.432,2.016 V 0 h -1.136 v -4.768 q 0,-1.328 -0.64,-2 -0.624,-0.688 -1.776,-0.688 -0.864,0 -1.504,0.368 -0.624,0.352 -0.976,1.04 -0.336,0.672 -0.336,1.632 V 0 h -1.136 v -4.768 q 0,-1.328 -0.64,-2 -0.64,-0.688 -1.792,-0.688 -0.848,0 -1.488,0.368 -0.64,0.352 -0.992,1.04 -0.336,0.672 -0.336,1.632 V 0 h -1.136 v -8.4 h 1.088 v 2.272 l -0.176,-0.4 q 0.384,-0.912 1.232,-1.424 0.864,-0.528 2.032,-0.528 1.232,0 2.096,0.624 0.864,0.608 1.12,1.84 l -0.448,-0.176 q 0.368,-1.024 1.296,-1.648 0.944,-0.64 2.256,-0.64 z"
                 id="path22434" />
              <path
                 d="m 40.815999,-6.736 q -0.352,0 -0.608,-0.256 -0.24,-0.256 -0.24,-0.624 0,-0.384 0.24,-0.624 0.256,-0.24 0.608,-0.24 0.352,0 0.592,0.24 0.256,0.24 0.256,0.624 0,0.368 -0.256,0.624 -0.24,0.256 -0.592,0.256 z m 0,6.816 q -0.352,0 -0.608,-0.256 -0.24,-0.256 -0.24,-0.624 0,-0.384 0.24,-0.624 0.256,-0.24 0.608,-0.24 0.352,0 0.592,0.24 0.256,0.24 0.256,0.624 0,0.368 -0.256,0.624 -0.24,0.256 -0.592,0.256 z"
                 id="path22436" />
            </g>
          </g>
          <g
             id="g5952"
             transform="matrix(1.0000485,0,0,1.0000485,-0.50000228,9.3465946)">
            <g
               aria-label="t1"
               transform="matrix(1,0,0,-1,149.95,647.639)"
               id="text5956"
               style="font-size:16px;font-family:Montserrat;-inkscape-font-specification:Montserrat-Regular">
              <path
                 d="m 4.24,0.08 q -1.184,0 -1.824,-0.64 -0.64,-0.64 -0.64,-1.808 v -7.888 h 1.136 v 7.824 q 0,0.736 0.368,1.136 0.384,0.4 1.088,0.4 0.752,0 1.248,-0.432 l 0.4,0.816 Q 5.68,-0.208 5.2,-0.064 4.736,0.08 4.24,0.08 Z M 0.272,-7.456 V -8.4 h 5.2 v 0.944 z"
                 id="path22423" />
              <path
                 d="m 8.9439998,0 v -10.72 l 0.512,0.544 h -3.152 V -11.2 H 10.096 V 0 Z"
                 id="path22425" />
            </g>
          </g>
          <g
             id="g5958"
             transform="matrix(1.0000485,0,0,1.0000485,-0.50000228,9.3465946)">
            <g
               aria-label="t2"
               transform="matrix(1,0,0,-1,176.55,647.639)"
               id="text5962"
               style="font-size:16px;font-family:Montserrat;-inkscape-font-specification:Montserrat-Regular">
              <path
                 d="m 4.24,0.08 q -1.184,0 -1.824,-0.64 -0.64,-0.64 -0.64,-1.808 v -7.888 h 1.136 v 7.824 q 0,0.736 0.368,1.136 0.384,0.4 1.088,0.4 0.752,0 1.248,-0.432 l 0.4,0.816 Q 5.68,-0.208 5.2,-0.064 4.736,0.08 4.24,0.08 Z M 0.272,-7.456 V -8.4 h 5.2 v 0.944 z"
                 id="path22418" />
              <path
                 d="m 6.992,0 v -0.816 l 4.656,-4.56 q 0.64,-0.624 0.96,-1.088 0.32,-0.48 0.432,-0.896 0.112,-0.416 0.112,-0.784 0,-0.976 -0.672,-1.536 -0.656,-0.56 -1.952,-0.56 -0.992,0 -1.76,0.304 -0.752,0.304 -1.296,0.944 L 6.656,-9.696 q 0.656,-0.768 1.68,-1.184 1.024,-0.416 2.288,-0.416 1.136,0 1.968,0.368 0.832,0.352 1.28,1.04 0.464,0.688 0.464,1.616 0,0.544 -0.16,1.072 -0.144,0.528 -0.544,1.12 -0.384,0.576 -1.136,1.312 l -4.272,4.192 -0.32,-0.448 h 6.944 V 0 Z"
                 id="path22420" />
            </g>
          </g>
          <g
             id="g5964"
             transform="matrix(1.0000485,0,0,1.0000485,-0.50000228,9.3465946)">
            <g
               aria-label="t3"
               transform="matrix(1,0,0,-1,204.85,647.639)"
               id="text5968"
               style="font-size:16px;font-family:Montserrat;-inkscape-font-specification:Montserrat-Regular">
              <path
                 d="m 4.24,0.08 q -1.184,0 -1.824,-0.64 -0.64,-0.64 -0.64,-1.808 v -7.888 h 1.136 v 7.824 q 0,0.736 0.368,1.136 0.384,0.4 1.088,0.4 0.752,0 1.248,-0.432 l 0.4,0.816 Q 5.68,-0.208 5.2,-0.064 4.736,0.08 4.24,0.08 Z M 0.272,-7.456 V -8.4 h 5.2 v 0.944 z"
                 id="path22413" />
              <path
                 d="m 10.672,0.096 q -1.2160002,0 -2.3040002,-0.384 -1.072,-0.4 -1.728,-1.056 l 0.56,-0.912 q 0.544,0.56 1.456,0.928 0.928,0.368 2.0160002,0.368 1.392,0 2.128,-0.608 0.752,-0.608 0.752,-1.632 0,-1.024 -0.736,-1.632 -0.72,-0.608 -2.288,-0.608 H 9.7279998 v -0.848 l 3.4560002,-4.336 0.16,0.448 H 7.1039998 V -11.2 H 14.304 v 0.816 l -3.456,4.336 -0.56,-0.368 h 0.432 q 2.016,0 3.008,0.896 1.008,0.896 1.008,2.304 0,0.944 -0.448,1.696 -0.448,0.752 -1.36,1.184 -0.896,0.432 -2.256,0.432 z"
                 id="path22415" />
            </g>
          </g>
          <g
             id="g5970"
             transform="matrix(1.0000485,0,0,1.0000485,-0.50000228,9.3465946)">
            <g
               aria-label="t4"
               transform="matrix(1,0,0,-1,232.7,647.639)"
               id="text5974"
               style="font-size:16px;font-family:Montserrat;-inkscape-font-specification:Montserrat-Regular">
              <path
                 d="m 4.24,0.08 q -1.184,0 -1.824,-0.64 -0.64,-0.64 -0.64,-1.808 v -7.888 h 1.136 v 7.824 q 0,0.736 0.368,1.136 0.384,0.4 1.088,0.4 0.752,0 1.248,-0.432 l 0.4,0.816 Q 5.68,-0.208 5.2,-0.064 4.736,0.08 4.24,0.08 Z M 0.272,-7.456 V -8.4 h 5.2 v 0.944 z"
                 id="path22408" />
              <path
                 d="M 6.6079999,-2.944 V -3.776 L 12.544,-11.2 h 1.28 l -5.8880001,7.424 -0.624,-0.192 H 16.32 v 1.024 z M 12.928,0 V -2.944 L 12.96,-3.968 V -6.56 h 1.12 V 0 Z"
                 id="path22410" />
            </g>
          </g>
          <g
             id="g5976"
             transform="matrix(1.0000485,0,0,1.0000485,-0.50000228,9.3465946)">
            <g
               aria-label="t5"
               transform="matrix(1,0,0,-1,261.6,647.639)"
               id="text5980"
               style="font-size:16px;font-family:Montserrat;-inkscape-font-specification:Montserrat-Regular">
              <path
                 d="m 4.24,0.08 q -1.184,0 -1.824,-0.64 -0.64,-0.64 -0.64,-1.808 v -7.888 h 1.136 v 7.824 q 0,0.736 0.368,1.136 0.384,0.4 1.088,0.4 0.752,0 1.248,-0.432 l 0.4,0.816 Q 5.68,-0.208 5.2,-0.064 4.736,0.08 4.24,0.08 Z M 0.272,-7.456 V -8.4 h 5.2 v 0.944 z"
                 id="path22403" />
              <path
                 d="m 10.736,0.096 q -1.2,0 -2.288,-0.384 -1.088,-0.4 -1.728,-1.056 l 0.56,-0.912 q 0.528,0.56 1.44,0.928 0.928,0.368 2,0.368 1.424,0 2.16,-0.624 0.752,-0.64 0.752,-1.664 0,-0.72 -0.352,-1.232 -0.336,-0.528 -1.152,-0.816 -0.816,-0.288 -2.24,-0.288 H 7.504 L 8.08,-11.2 h 6.128 v 1.024 H 8.544 l 0.592,-0.56 -0.496,4.704 -0.592,-0.576 h 2.096 q 1.696,0 2.72,0.416 1.024,0.416 1.472,1.168 0.464,0.736 0.464,1.728 0,0.944 -0.448,1.728 -0.448,0.768 -1.344,1.216 -0.896,0.448 -2.272,0.448 z"
                 id="path22405" />
            </g>
          </g>
          <g
             id="g5982"
             transform="matrix(1.0000485,0,0,1.0000485,-0.50000228,9.3465946)">
            <g
               aria-label="t6"
               transform="matrix(1,0,0,-1,289.7,647.639)"
               id="text5986"
               style="font-size:16px;font-family:Montserrat;-inkscape-font-specification:Montserrat-Regular">
              <path
                 d="m 4.24,0.08 q -1.184,0 -1.824,-0.64 -0.64,-0.64 -0.64,-1.808 v -7.888 h 1.136 v 7.824 q 0,0.736 0.368,1.136 0.384,0.4 1.088,0.4 0.752,0 1.248,-0.432 l 0.4,0.816 Q 5.68,-0.208 5.2,-0.064 4.736,0.08 4.24,0.08 Z M 0.272,-7.456 V -8.4 h 5.2 v 0.944 z"
                 id="path22398" />
              <path
                 d="m 11.632,0.096 q -1.488,0 -2.5119998,-0.656 -1.024,-0.672 -1.552,-1.92 -0.528,-1.264 -0.528,-3.024 0,-1.904 0.64,-3.184 0.656,-1.296 1.808,-1.952 Q 10.64,-11.296 12.16,-11.296 q 0.752,0 1.44,0.144 0.688,0.144 1.216,0.464 l -0.464,0.928 q -0.432,-0.288 -0.992,-0.4 -0.56,-0.128 -1.184,-0.128 -1.808,0 -2.8959998,1.152 -1.072,1.152 -1.072,3.44 0,0.352 0.032,0.88 0.048,0.512 0.192,1.024 l -0.4,-0.304 q 0.176,-0.832 0.688,-1.408 Q 9.2320002,-6.096 10,-6.4 q 0.768,-0.304 1.68,-0.304 1.12,0 1.968,0.416 0.848,0.416 1.328,1.168 0.48,0.752 0.48,1.776 0,1.04 -0.496,1.824 -0.496,0.768 -1.376,1.2 -0.864,0.416 -1.952,0.416 z M 11.584,-0.88 q 0.8,0 1.408,-0.288 0.624,-0.304 0.976,-0.848 0.352,-0.56 0.352,-1.296 0,-1.104 -0.768,-1.76 -0.752,-0.656 -2.048,-0.656 -0.864,0 -1.504,0.32 -0.6399998,0.32 -1.0079998,0.88 -0.368,0.544 -0.368,1.248 0,0.608 0.336,1.168 0.336,0.544 0.992,0.896 Q 10.624,-0.88 11.584,-0.88 Z"
                 id="path22400" />
            </g>
          </g>
          <g
             id="g5988"
             transform="matrix(1.0000485,0,0,1.0000485,-0.50000228,9.3465946)">
            <g
               aria-label="t7"
               transform="matrix(1,0,0,-1,318.25,647.639)"
               id="text5992"
               style="font-size:16px;font-family:Montserrat;-inkscape-font-specification:Montserrat-Regular">
              <path
                 d="m 4.24,0.08 q -1.184,0 -1.824,-0.64 -0.64,-0.64 -0.64,-1.808 v -7.888 h 1.136 v 7.824 q 0,0.736 0.368,1.136 0.384,0.4 1.088,0.4 0.752,0 1.248,-0.432 l 0.4,0.816 Q 5.68,-0.208 5.2,-0.064 4.736,0.08 4.24,0.08 Z M 0.272,-7.456 V -8.4 h 5.2 v 0.944 z"
                 id="path22393" />
              <path
                 d="M 8.8960002,0 13.728,-10.688 14.08,-10.176 H 7.1520002 l 0.592,-0.56 v 2.656 h -1.136 V -11.2 H 14.832 v 0.816 L 10.144,0 Z"
                 id="path22395" />
            </g>
          </g>
          <g
             id="g5994"
             transform="matrix(1.0000485,0,0,1.0000485,-0.50000228,9.3465946)">
            <g
               aria-label="t8"
               transform="matrix(1,0,0,-1,346.1,647.639)"
               id="text5998"
               style="font-size:16px;font-family:Montserrat;-inkscape-font-specification:Montserrat-Regular">
              <path
                 d="m 4.24,0.08 q -1.184,0 -1.824,-0.64 -0.64,-0.64 -0.64,-1.808 v -7.888 h 1.136 v 7.824 q 0,0.736 0.368,1.136 0.384,0.4 1.088,0.4 0.752,0 1.248,-0.432 l 0.4,0.816 Q 5.68,-0.208 5.2,-0.064 4.736,0.08 4.24,0.08 Z M 0.272,-7.456 V -8.4 h 5.2 v 0.944 z"
                 id="path22388" />
              <path
                 d="m 11.488,0.096 q -1.344,0 -2.3199999,-0.384 -0.96,-0.384 -1.488,-1.104 -0.512,-0.736 -0.512,-1.728 0,-0.96 0.496,-1.632 0.512,-0.688 1.472,-1.056 Q 10.112,-6.176 11.488,-6.176 q 1.36,0 2.336,0.368 0.976,0.368 1.488,1.056 0.528,0.672 0.528,1.632 0,0.992 -0.528,1.728 -0.528,0.72 -1.504,1.104 -0.976,0.384 -2.32,0.384 z m 0,-0.976 q 1.488,0 2.32,-0.608 0.848,-0.608 0.848,-1.648 0,-1.04 -0.848,-1.632 -0.832,-0.608 -2.32,-0.608 -1.488,0 -2.3199999,0.608 -0.832,0.592 -0.832,1.632 0,1.04 0.832,1.648 Q 10,-0.88 11.488,-0.88 Z m 0,-4.64 q -1.248,0 -2.1279999,-0.336 -0.864,-0.336 -1.328,-0.96 -0.464,-0.64 -0.464,-1.52 0,-0.928 0.48,-1.584 0.496,-0.672 1.376,-1.024 0.8799999,-0.352 2.0639999,-0.352 1.184,0 2.064,0.352 0.896,0.352 1.392,1.024 0.496,0.656 0.496,1.584 0,0.88 -0.464,1.52 -0.464,0.624 -1.36,0.96 -0.88,0.336 -2.128,0.336 z m 0,-0.768 q 1.312,0 2.048,-0.544 0.736,-0.544 0.736,-1.456 0,-0.96 -0.768,-1.488 -0.752,-0.544 -2.016,-0.544 -1.264,0 -2.0159999,0.544 -0.752,0.528 -0.752,1.472 0,0.928 0.72,1.472 Q 10.176,-6.288 11.488,-6.288 Z"
                 id="path22390" />
            </g>
          </g>
          <g
             id="g6000"
             transform="matrix(1.0000485,0,0,1.0000485,-0.50000228,9.3465946)">
            <g
               aria-label="t9"
               transform="matrix(1,0,0,-1,374.75,647.639)"
               id="text6004"
               style="font-size:16px;font-family:Montserrat;-inkscape-font-specification:Montserrat-Regular">
              <path
                 d="m 4.24,0.08 q -1.184,0 -1.824,-0.64 -0.64,-0.64 -0.64,-1.808 v -7.888 h 1.136 v 7.824 q 0,0.736 0.368,1.136 0.384,0.4 1.088,0.4 0.752,0 1.248,-0.432 l 0.4,0.816 Q 5.68,-0.208 5.2,-0.064 4.736,0.08 4.24,0.08 Z M 0.272,-7.456 V -8.4 h 5.2 v 0.944 z"
                 id="path22383" />
              <path
                 d="m 10.576,-11.296 q 1.488,0 2.512,0.672 1.024,0.656 1.552,1.904 0.528,1.248 0.528,3.024 0,1.888 -0.656,3.184 -0.64,1.296 -1.792,1.952 -1.152,0.656 -2.672,0.656 -0.752,0 -1.44,-0.144 Q 7.936,-0.192 7.392,-0.512 L 7.856,-1.44 q 0.432,0.288 0.992,0.416 0.576,0.112 1.184,0.112 1.808,0 2.88,-1.152 Q 14,-3.216 14,-5.504 14,-5.872 13.952,-6.384 13.92,-6.896 13.776,-7.408 l 0.4,0.304 q -0.16,0.832 -0.688,1.424 -0.512,0.576 -1.28,0.88 -0.752,0.304 -1.68,0.304 -1.104,0 -1.968,-0.416 -0.848,-0.416 -1.328,-1.168 -0.48,-0.752 -0.48,-1.776 0,-1.056 0.496,-1.824 0.496,-0.768 1.36,-1.184 0.88,-0.432 1.968,-0.432 z m 0.048,0.976 q -0.8,0 -1.424,0.304 -0.608,0.288 -0.96,0.832 -0.352,0.544 -0.352,1.296 0,1.104 0.752,1.76 0.768,0.656 2.064,0.656 0.864,0 1.504,-0.32 0.656,-0.32 1.008,-0.88 0.368,-0.56 0.368,-1.248 0,-0.624 -0.336,-1.168 -0.336,-0.544 -0.992,-0.88 -0.656,-0.352 -1.632,-0.352 z"
                 id="path22385" />
            </g>
          </g>
          <g
             id="g6006"
             transform="matrix(1.0000485,0,0,1.0000485,-0.50000228,9.3465946)">
            <g
               aria-label="t10"
               transform="matrix(1,0,0,-1,399.8,647.639)"
               id="text6010"
               style="font-size:16px;font-family:Montserrat;-inkscape-font-specification:Montserrat-Regular">
              <path
                 d="m 4.24,0.08 q -1.184,0 -1.824,-0.64 -0.64,-0.64 -0.64,-1.808 v -7.888 h 1.136 v 7.824 q 0,0.736 0.368,1.136 0.384,0.4 1.088,0.4 0.752,0 1.248,-0.432 l 0.4,0.816 Q 5.68,-0.208 5.2,-0.064 4.736,0.08 4.24,0.08 Z M 0.272,-7.456 V -8.4 h 5.2 v 0.944 z"
                 id="path22376" />
              <path
                 d="m 8.9439998,0 v -10.72 l 0.512,0.544 h -3.152 V -11.2 H 10.096 V 0 Z"
                 id="path22378" />
              <path
                 d="m 17.232,0.096 q -1.296,0 -2.304,-0.672 -1.008,-0.688 -1.584,-1.952 -0.576,-1.28 -0.576,-3.072 0,-1.792 0.576,-3.056 0.576,-1.28 1.584,-1.952 1.008,-0.688 2.304,-0.688 1.296,0 2.304,0.688 1.008,0.672 1.584,1.952 0.592,1.264 0.592,3.056 0,1.792 -0.592,3.072 -0.576,1.264 -1.584,1.952 -1.008,0.672 -2.304,0.672 z m 0,-1.056 q 0.992,0 1.728,-0.528 0.736,-0.544 1.152,-1.568 0.416,-1.04 0.416,-2.544 0,-1.504 -0.416,-2.528 -0.416,-1.04 -1.152,-1.568 -0.736,-0.544 -1.728,-0.544 -0.96,0 -1.712,0.544 -0.752,0.528 -1.168,1.568 -0.416,1.024 -0.416,2.528 0,1.504 0.416,2.544 0.416,1.024 1.168,1.568 0.752,0.528 1.712,0.528 z"
                 id="path22380" />
            </g>
          </g>
          <g
             id="g6012"
             transform="matrix(1.0000485,0,0,1.0000485,-0.50000228,9.3465946)">
            <g
               aria-label="t11"
               transform="matrix(1,0,0,-1,430.6,647.639)"
               id="text6016"
               style="font-size:16px;font-family:Montserrat;-inkscape-font-specification:Montserrat-Regular">
              <path
                 d="m 4.24,0.08 q -1.184,0 -1.824,-0.64 -0.64,-0.64 -0.64,-1.808 v -7.888 h 1.136 v 7.824 q 0,0.736 0.368,1.136 0.384,0.4 1.088,0.4 0.752,0 1.248,-0.432 l 0.4,0.816 Q 5.68,-0.208 5.2,-0.064 4.736,0.08 4.24,0.08 Z M 0.272,-7.456 V -8.4 h 5.2 v 0.944 z"
                 id="path22369" />
              <path
                 d="m 8.9439998,0 v -10.72 l 0.512,0.544 h -3.152 V -11.2 H 10.096 V 0 Z"
                 id="path22371" />
              <path
                 d="m 14.72,0 v -10.72 l 0.512,0.544 H 12.08 V -11.2 h 3.792 V 0 Z"
                 id="path22373" />
            </g>
          </g>
          <g
             id="g6018"
             transform="matrix(1.0000485,0,0,1.0000485,-0.50000228,9.3465946)">
            <g
               aria-label="t12"
               transform="matrix(1,0,0,-1,457.25,647.639)"
               id="text6022"
               style="font-size:16px;font-family:Montserrat;-inkscape-font-specification:Montserrat-Regular">
              <path
                 d="m 4.24,0.08 q -1.184,0 -1.824,-0.64 -0.64,-0.64 -0.64,-1.808 v -7.888 h 1.136 v 7.824 q 0,0.736 0.368,1.136 0.384,0.4 1.088,0.4 0.752,0 1.248,-0.432 l 0.4,0.816 Q 5.68,-0.208 5.2,-0.064 4.736,0.08 4.24,0.08 Z M 0.272,-7.456 V -8.4 h 5.2 v 0.944 z"
                 id="path22362" />
              <path
                 d="m 8.9439998,0 v -10.72 l 0.512,0.544 h -3.152 V -11.2 H 10.096 V 0 Z"
                 id="path22364" />
              <path
                 d="m 12.56,0 v -0.816 l 4.656,-4.56 q 0.64,-0.624 0.96,-1.088 0.32,-0.48 0.432,-0.896 0.112,-0.416 0.112,-0.784 0,-0.976 -0.672,-1.536 -0.656,-0.56 -1.952,-0.56 -0.992,0 -1.76,0.304 -0.752,0.304 -1.296,0.944 l -0.816,-0.704 q 0.656,-0.768 1.68,-1.184 1.024,-0.416 2.288,-0.416 1.136,0 1.968,0.368 0.832,0.352 1.28,1.04 0.464,0.688 0.464,1.616 0,0.544 -0.16,1.072 -0.144,0.528 -0.544,1.12 -0.384,0.576 -1.136,1.312 l -4.272,4.192 -0.32,-0.448 h 6.944 V 0 Z"
                 id="path22366" />
            </g>
          </g>
          <g
             id="g6024"
             transform="matrix(1.0000485,0,0,1.0000485,-0.50000228,9.3465946)">
            <g
               aria-label="t13"
               transform="matrix(1,0,0,-1,485.65,647.639)"
               id="text6028"
               style="font-size:16px;font-family:Montserrat;-inkscape-font-specification:Montserrat-Regular">
              <path
                 d="m 4.24,0.08 q -1.184,0 -1.824,-0.64 -0.64,-0.64 -0.64,-1.808 v -7.888 h 1.136 v 7.824 q 0,0.736 0.368,1.136 0.384,0.4 1.088,0.4 0.752,0 1.248,-0.432 l 0.4,0.816 Q 5.68,-0.208 5.2,-0.064 4.736,0.08 4.24,0.08 Z M 0.272,-7.456 V -8.4 h 5.2 v 0.944 z"
                 id="path22355" />
              <path
                 d="m 8.9439998,0 v -10.72 l 0.512,0.544 h -3.152 V -11.2 H 10.096 V 0 Z"
                 id="path22357" />
              <path
                 d="m 16.112,0.096 q -1.216,0 -2.304,-0.384 -1.072,-0.4 -1.728,-1.056 l 0.56,-0.912 q 0.544,0.56 1.456,0.928 0.928,0.368 2.016,0.368 1.392,0 2.128,-0.608 0.752,-0.608 0.752,-1.632 0,-1.024 -0.736,-1.632 -0.72,-0.608 -2.288,-0.608 h -0.8 v -0.848 l 3.456,-4.336 0.16,0.448 h -6.24 V -11.2 h 7.2 v 0.816 l -3.456,4.336 -0.56,-0.368 h 0.432 q 2.016,0 3.008,0.896 1.008,0.896 1.008,2.304 0,0.944 -0.448,1.696 -0.448,0.752 -1.36,1.184 -0.896,0.432 -2.256,0.432 z"
                 id="path22359" />
            </g>
          </g>
          <g
             id="g6030"
             transform="matrix(1.0000485,0,0,1.0000485,-0.50000228,9.3465946)">
            <g
               aria-label="t14"
               transform="matrix(1,0,0,-1,513.25,647.639)"
               id="text6034"
               style="font-size:16px;font-family:Montserrat;-inkscape-font-specification:Montserrat-Regular">
              <path
                 d="m 4.24,0.08 q -1.184,0 -1.824,-0.64 -0.64,-0.64 -0.64,-1.808 v -7.888 h 1.136 v 7.824 q 0,0.736 0.368,1.136 0.384,0.4 1.088,0.4 0.752,0 1.248,-0.432 l 0.4,0.816 Q 5.68,-0.208 5.2,-0.064 4.736,0.08 4.24,0.08 Z M 0.272,-7.456 V -8.4 h 5.2 v 0.944 z"
                 id="path22348" />
              <path
                 d="m 8.9439998,0 v -10.72 l 0.512,0.544 h -3.152 V -11.2 H 10.096 V 0 Z"
                 id="path22350" />
              <path
                 d="m 12.576,-2.944 v -0.832 l 5.936,-7.424 h 1.28 l -5.888,7.424 -0.624,-0.192 h 9.008 v 1.024 z M 18.896,0 v -2.944 l 0.032,-1.024 V -6.56 h 1.12 V 0 Z"
                 id="path22352" />
            </g>
          </g>
          <g
             id="g6036"
             transform="matrix(1.0000485,0,0,1.0000485,-0.50000228,9.3465946)">
            <g
               aria-label="vote:"
               transform="matrix(1,0,0,-1,97.05,616.339)"
               id="text6040"
               style="font-size:16px;font-family:Montserrat;-inkscape-font-specification:Montserrat-Regular">
              <path
                 d="M 3.744,0 0.016,-8.4 H 1.2 l 3.424,7.792 H 4.064 L 7.536,-8.4 h 1.12 L 4.912,0 Z"
                 id="path22337" />
              <path
                 d="m 13.44,0.08 q -1.216,0 -2.192,-0.544 -0.96,-0.56 -1.5199998,-1.52 -0.56,-0.976 -0.56,-2.224 0,-1.264 0.56,-2.224 Q 10.288,-7.392 11.248,-7.936 q 0.96,-0.544 2.192,-0.544 1.248,0 2.208,0.544 0.976,0.544 1.52,1.504 0.56,0.96 0.56,2.224 0,1.248 -0.56,2.224 -0.544,0.96 -1.52,1.52 Q 14.672,0.08 13.44,0.08 Z m 0,-1.008 q 0.912,0 1.616,-0.4 0.704,-0.416 1.104,-1.152 0.416,-0.752 0.416,-1.728 0,-0.992 -0.416,-1.728 -0.4,-0.736 -1.104,-1.136 -0.704,-0.416 -1.6,-0.416 -0.896,0 -1.6,0.416 -0.704,0.4 -1.12,1.136 -0.416,0.736 -0.416,1.728 0,0.976 0.416,1.728 0.416,0.736 1.12,1.152 0.704,0.4 1.584,0.4 z"
                 id="path22339" />
              <path
                 d="m 22.704001,0.08 q -1.184,0 -1.824,-0.64 -0.64,-0.64 -0.64,-1.808 v -7.888 h 1.136 v 7.824 q 0,0.736 0.368,1.136 0.384,0.4 1.088,0.4 0.752,0 1.248,-0.432 l 0.4,0.816 q -0.336,0.304 -0.816,0.448 -0.464,0.144 -0.96,0.144 z m -3.968,-7.536 V -8.4 h 5.2 v 0.944 z"
                 id="path22341" />
              <path
                 d="m 29.808,0.08 q -1.312,0 -2.304,-0.544 -0.992,-0.56 -1.552,-1.52 -0.56,-0.976 -0.56,-2.224 0,-1.248 0.528,-2.208 0.544,-0.96 1.472,-1.504 0.944,-0.56 2.112,-0.56 1.184,0 2.096,0.544 0.928,0.528 1.456,1.504 0.528,0.96 0.528,2.224 0,0.08 -0.016,0.176 0,0.08 0,0.176 h -7.312 v -0.848 h 6.704 l -0.448,0.336 q 0,-0.912 -0.4,-1.616 -0.384,-0.72 -1.056,-1.12 -0.672,-0.4 -1.552,-0.4 -0.864,0 -1.552,0.4 -0.688,0.4 -1.072,1.12 -0.384,0.72 -0.384,1.648 v 0.176 q 0,0.96 0.416,1.696 0.432,0.72 1.184,1.136 0.768,0.4 1.744,0.4 0.768,0 1.424,-0.272 0.672,-0.272 1.152,-0.832 l 0.64,0.736 q -0.56,0.672 -1.408,1.024 -0.832,0.352 -1.84,0.352 z"
                 id="path22343" />
              <path
                 d="m 36.016,-6.736 q -0.352,0 -0.608,-0.256 -0.24,-0.256 -0.24,-0.624 0,-0.384 0.24,-0.624 0.256,-0.24 0.608,-0.24 0.352,0 0.592,0.24 0.256,0.24 0.256,0.624 0,0.368 -0.256,0.624 -0.24,0.256 -0.592,0.256 z m 0,6.816 q -0.352,0 -0.608,-0.256 -0.24,-0.256 -0.24,-0.624 0,-0.384 0.24,-0.624 0.256,-0.24 0.608,-0.24 0.352,0 0.592,0.24 0.256,0.24 0.256,0.624 0,0.368 -0.256,0.624 -0.24,0.256 -0.592,0.256 z"
                 id="path22345" />
            </g>
          </g>
          <g
             id="g6042"
             transform="matrix(1.0000485,0,0,1.0000485,-0.50000228,9.3465946)">
            <g
               aria-label="Raft Log"
               transform="matrix(1,0,0,-1,56.8,552.939)"
               id="text6046"
               style="font-size:18px;font-family:Montserrat;-inkscape-font-specification:Montserrat-Regular">
              <path
                 d="m 2.052,0 v -12.6 h 4.716 q 1.602,0 2.754,0.522 1.152,0.504 1.764,1.476 0.63,0.954 0.63,2.322 0,1.332 -0.63,2.304 Q 10.674,-5.022 9.522,-4.5 8.37,-3.996 6.768,-3.996 H 2.79 L 3.384,-4.608 V 0 Z m 8.604,0 -3.24,-4.572 h 1.44 L 12.114,0 Z M 3.384,-4.5 2.79,-5.13 h 3.942 q 1.89,0 2.862,-0.828 0.99,-0.828 0.99,-2.322 0,-1.512 -0.99,-2.34 -0.972,-0.828 -2.862,-0.828 H 2.79 l 0.594,-0.63 z"
                 id="path22322" />
              <path
                 d="M 20.628,0 V -2.088 L 20.574,-2.43 v -3.492 q 0,-1.206 -0.684,-1.854 -0.666,-0.648 -1.998,-0.648 -0.918,0 -1.746,0.306 -0.828,0.306 -1.404,0.81 l -0.576,-0.954 q 0.72,-0.612 1.728,-0.936 1.008,-0.342 2.124,-0.342 1.836,0 2.826,0.918 1.008,0.9 1.008,2.754 V 0 Z M 17.37,0.09 q -1.062,0 -1.854,-0.342 -0.774,-0.36 -1.188,-0.972 -0.414,-0.63 -0.414,-1.44 0,-0.738 0.342,-1.332 0.36,-0.612 1.152,-0.972 0.81,-0.378 2.16,-0.378 h 3.258 v 0.954 h -3.222 q -1.368,0 -1.908,0.486 -0.522,0.486 -0.522,1.206 0,0.81 0.63,1.296 0.63,0.486 1.764,0.486 1.08,0 1.854,-0.486 0.792,-0.504 1.152,-1.44 l 0.288,0.882 q -0.36,0.936 -1.26,1.494 Q 18.72,0.09 17.37,0.09 Z"
                 id="path22324" />
              <path
                 d="m 25.542001,0 v -10.638 q 0,-1.26 0.738,-2.034 0.738,-0.774 2.124,-0.774 0.54,0 1.044,0.144 0.504,0.144 0.846,0.45 l -0.432,0.954 q -0.27,-0.234 -0.63,-0.342 -0.36,-0.126 -0.774,-0.126 -0.81,0 -1.242,0.45 -0.432,0.45 -0.432,1.332 v 1.44 l 0.036,0.594 V 0 Z m -1.692,-8.388 V -9.45 h 5.85 v 1.062 z"
                 id="path22326" />
              <path
                 d="m 34.416,0.09 q -1.332,0 -2.052,-0.72 -0.72,-0.72 -0.72,-2.034 v -8.874 h 1.278 v 8.802 q 0,0.828 0.414,1.278 0.432,0.45 1.224,0.45 0.846,0 1.404,-0.486 l 0.45,0.918 q -0.378,0.342 -0.918,0.504 -0.522,0.162 -1.08,0.162 z M 29.952,-8.388 V -9.45 h 5.85 v 1.062 z"
                 id="path22328" />
              <path
                 d="m 43.721998,0 v -12.6 h 1.332 v 11.448 h 7.056 V 0 Z"
                 id="path22330" />
              <path
                 d="m 57.761998,0.09 q -1.368,0 -2.466,-0.612 -1.08,-0.63 -1.71,-1.71 -0.63,-1.098 -0.63,-2.502 0,-1.422 0.63,-2.502 0.63,-1.08 1.71,-1.692 1.08,-0.612 2.466,-0.612 1.404,0 2.484,0.612 1.098,0.612 1.71,1.692 0.63,1.08 0.63,2.502 0,1.404 -0.63,2.502 -0.612,1.08 -1.71,1.71 -1.098,0.612 -2.484,0.612 z m 0,-1.134 q 1.026,0 1.818,-0.45 0.792,-0.468 1.242,-1.296 0.468,-0.846 0.468,-1.944 0,-1.116 -0.468,-1.944 -0.45,-0.828 -1.242,-1.278 -0.792,-0.468 -1.8,-0.468 -1.008,0 -1.8,0.468 -0.792,0.45 -1.26,1.278 -0.468,0.828 -0.468,1.944 0,1.098 0.468,1.944 0.468,0.828 1.26,1.296 0.792,0.45 1.782,0.45 z"
                 id="path22332" />
              <path
                 d="m 69.228001,3.582 q -1.296,0 -2.484,-0.378 -1.188,-0.378 -1.926,-1.08 l 0.648,-0.972 q 0.666,0.594 1.638,0.936 0.99,0.36 2.088,0.36 1.8,0 2.646,-0.846 0.846,-0.828 0.846,-2.592 v -2.358 l 0.18,-1.62 -0.126,-1.62 V -9.45 h 1.224 v 8.298 q 0,2.448 -1.206,3.582 -1.188,1.152 -3.528,1.152 z m -0.234,-3.942 q -1.35,0 -2.43,-0.576 -1.08,-0.594 -1.71,-1.638 -0.612,-1.044 -0.612,-2.394 0,-1.35 0.612,-2.376 0.63,-1.044 1.71,-1.62 1.08,-0.576 2.43,-0.576 1.26,0 2.268,0.522 1.008,0.522 1.602,1.548 0.594,1.026 0.594,2.502 0,1.476 -0.594,2.502 -0.594,1.026 -1.602,1.566 -1.008,0.54 -2.268,0.54 z m 0.126,-1.134 q 1.044,0 1.854,-0.432 0.81,-0.45 1.278,-1.224 0.468,-0.792 0.468,-1.818 0,-1.026 -0.468,-1.8 -0.468,-0.774 -1.278,-1.206 -0.81,-0.45 -1.854,-0.45 -1.026,0 -1.854,0.45 -0.81,0.432 -1.278,1.206 -0.45,0.774 -0.45,1.8 0,1.026 0.45,1.818 0.468,0.774 1.278,1.224 0.828,0.432 1.854,0.432 z"
                 id="path22334" />
            </g>
          </g>
          <g
             id="g6048"
             transform="matrix(1.0000485,0,0,1.0000485,-0.50000228,9.3465946)">
            <path
               d="m 141.85,518.439 h 397"
               style="fill:none;stroke:#000000;stroke-width:0.5;stroke-linecap:butt;stroke-linejoin:round;stroke-miterlimit:10;stroke-dasharray:none;stroke-opacity:1"
               id="path6050" />
          </g>
          <g
             id="g6052"
             transform="matrix(1.0000485,0,0,1.0000485,-0.50000228,9.3465946)">
            <path
               d="m 141.85,487.139 h 397"
               style="fill:none;stroke:#000000;stroke-width:0.5;stroke-linecap:butt;stroke-linejoin:round;stroke-miterlimit:10;stroke-dasharray:none;stroke-opacity:1"
               id="path6054" />
          </g>
          <g
             id="g6056"
             transform="matrix(1.0000485,0,0,1.0000485,-0.50000228,9.3465946)">
            <path
               d="m 141.85,455.839 h 397"
               style="fill:none;stroke:#000000;stroke-width:0.5;stroke-linecap:butt;stroke-linejoin:round;stroke-miterlimit:10;stroke-dasharray:none;stroke-opacity:1"
               id="path6058" />
          </g>
          <g
             id="g6060"
             transform="matrix(1.0000485,0,0,1.0000485,-0.50000228,9.3465946)">
            <path
               d="m 141.85,424.539 h 397"
               style="fill:none;stroke:#000000;stroke-width:0.5;stroke-linecap:butt;stroke-linejoin:round;stroke-miterlimit:10;stroke-dasharray:none;stroke-opacity:1"
               id="path6062" />
          </g>
          <g
             id="g6064"
             transform="matrix(1.0000485,0,0,1.0000485,-0.50000228,9.3465946)">
            <path
               d="m 141.85,393.239 h 397"
               style="fill:none;stroke:#000000;stroke-width:0.5;stroke-linecap:butt;stroke-linejoin:round;stroke-miterlimit:10;stroke-dasharray:none;stroke-opacity:1"
               id="path6066" />
          </g>
          <g
             id="g6068"
             transform="matrix(1.0000485,0,0,1.0000485,-0.50000228,9.3465946)">
            <path
               d="m 142.1,518.689 v -125.7"
               style="fill:none;stroke:#000000;stroke-width:0.5;stroke-linecap:butt;stroke-linejoin:round;stroke-miterlimit:10;stroke-dasharray:none;stroke-opacity:1"
               id="path6070" />
          </g>
          <g
             id="g6072"
             transform="matrix(1.0000485,0,0,1.0000485,-0.50000228,9.3465946)">
            <path
               d="m 170.6,518.689 v -125.7"
               style="fill:none;stroke:#000000;stroke-width:0.5;stroke-linecap:butt;stroke-linejoin:round;stroke-miterlimit:10;stroke-dasharray:none;stroke-opacity:1"
               id="path6074" />
          </g>
          <g
             id="g6076"
             transform="matrix(1.0000485,0,0,1.0000485,-0.50000228,9.3465946)">
            <path
               d="m 199,518.689 v -125.7"
               style="fill:none;stroke:#000000;stroke-width:0.5;stroke-linecap:butt;stroke-linejoin:round;stroke-miterlimit:10;stroke-dasharray:none;stroke-opacity:1"
               id="path6078" />
          </g>
          <g
             id="g6080"
             transform="matrix(1.0000485,0,0,1.0000485,-0.50000228,9.3465946)">
            <path
               d="m 226.6,518.689 v -125.7"
               style="fill:none;stroke:#000000;stroke-width:0.5;stroke-linecap:butt;stroke-linejoin:round;stroke-miterlimit:10;stroke-dasharray:none;stroke-opacity:1"
               id="path6082" />
          </g>
          <g
             id="g6084"
             transform="matrix(1.0000485,0,0,1.0000485,-0.50000228,9.3465946)">
            <path
               d="m 255,518.689 v -125.7"
               style="fill:none;stroke:#000000;stroke-width:0.5;stroke-linecap:butt;stroke-linejoin:round;stroke-miterlimit:10;stroke-dasharray:none;stroke-opacity:1"
               id="path6086" />
          </g>
          <g
             id="g6088"
             transform="matrix(1.0000485,0,0,1.0000485,-0.50000228,9.3465946)">
            <path
               d="m 283.5,518.689 v -125.7"
               style="fill:none;stroke:#000000;stroke-width:0.5;stroke-linecap:butt;stroke-linejoin:round;stroke-miterlimit:10;stroke-dasharray:none;stroke-opacity:1"
               id="path6090" />
          </g>
          <g
             id="g6092"
             transform="matrix(1.0000485,0,0,1.0000485,-0.50000228,9.3465946)">
            <path
               d="m 311.9,518.689 v -125.7"
               style="fill:none;stroke:#000000;stroke-width:0.5;stroke-linecap:butt;stroke-linejoin:round;stroke-miterlimit:10;stroke-dasharray:none;stroke-opacity:1"
               id="path6094" />
          </g>
          <g
             id="g6096"
             transform="matrix(1.0000485,0,0,1.0000485,-0.50000228,9.3465946)">
            <path
               d="m 340.3,518.689 v -125.7"
               style="fill:none;stroke:#000000;stroke-width:0.5;stroke-linecap:butt;stroke-linejoin:round;stroke-miterlimit:10;stroke-dasharray:none;stroke-opacity:1"
               id="path6098" />
          </g>
          <g
             id="g6100"
             transform="matrix(1.0000485,0,0,1.0000485,-0.50000228,9.3465946)">
            <path
               d="m 368.7,518.689 v -125.7"
               style="fill:none;stroke:#000000;stroke-width:0.5;stroke-linecap:butt;stroke-linejoin:round;stroke-miterlimit:10;stroke-dasharray:none;stroke-opacity:1"
               id="path6102" />
          </g>
          <g
             id="g6104"
             transform="matrix(1.0000485,0,0,1.0000485,-0.50000228,9.3465946)">
            <path
               d="m 397.1,518.689 v -125.7"
               style="fill:none;stroke:#000000;stroke-width:0.5;stroke-linecap:butt;stroke-linejoin:round;stroke-miterlimit:10;stroke-dasharray:none;stroke-opacity:1"
               id="path6106" />
          </g>
          <g
             id="g6108"
             transform="matrix(1.0000485,0,0,1.0000485,-0.50000228,9.3465946)">
            <path
               d="m 425.6,518.689 v -125.7"
               style="fill:none;stroke:#000000;stroke-width:0.5;stroke-linecap:butt;stroke-linejoin:round;stroke-miterlimit:10;stroke-dasharray:none;stroke-opacity:1"
               id="path6110" />
          </g>
          <g
             id="g6112"
             transform="matrix(1.0000485,0,0,1.0000485,-0.50000228,9.3465946)">
            <path
               d="m 454,518.689 v -125.7"
               style="fill:none;stroke:#000000;stroke-width:0.5;stroke-linecap:butt;stroke-linejoin:round;stroke-miterlimit:10;stroke-dasharray:none;stroke-opacity:1"
               id="path6114" />
          </g>
          <g
             id="g6116"
             transform="matrix(1.0000485,0,0,1.0000485,-0.50000228,9.3465946)">
            <path
               d="m 482.4,518.689 v -125.7"
               style="fill:none;stroke:#000000;stroke-width:0.5;stroke-linecap:butt;stroke-linejoin:round;stroke-miterlimit:10;stroke-dasharray:none;stroke-opacity:1"
               id="path6118" />
          </g>
          <g
             id="g6120"
             transform="matrix(1.0000485,0,0,1.0000485,-0.50000228,9.3465946)">
            <path
               d="m 510.8,518.689 v -125.7"
               style="fill:none;stroke:#000000;stroke-width:0.5;stroke-linecap:butt;stroke-linejoin:round;stroke-miterlimit:10;stroke-dasharray:none;stroke-opacity:1"
               id="path6122" />
          </g>
          <g
             id="g6124"
             transform="matrix(1.0000485,0,0,1.0000485,-0.50000228,9.3465946)">
            <path
               d="m 538.6,518.689 v -125.7"
               style="fill:none;stroke:#000000;stroke-width:0.5;stroke-linecap:butt;stroke-linejoin:round;stroke-miterlimit:10;stroke-dasharray:none;stroke-opacity:1"
               id="path6126" />
          </g>
          <g
             id="g6128"
             transform="matrix(1.0000485,0,0,1.0000485,-0.50000228,9.3465946)">
            <g
               aria-label="index"
               transform="matrix(1,0,0,-1,87.85,497.089)"
               id="text6132"
               style="font-size:16px;font-family:Montserrat;-inkscape-font-specification:Montserrat-Regular">
              <path
                 d="M 1.584,0 V -8.4 H 2.72 V 0 Z M 2.16,-10.256 q -0.352,0 -0.592,-0.24 -0.24,-0.24 -0.24,-0.576 0,-0.336 0.24,-0.56 0.24,-0.24 0.592,-0.24 0.352,0 0.592,0.224 0.24,0.224 0.24,0.56 0,0.352 -0.24,0.592 -0.224,0.24 -0.592,0.24 z"
                 id="path22311" />
              <path
                 d="m 10.176,-8.48 q 1.024,0 1.792,0.4 0.784,0.384 1.216,1.184 0.448,0.8 0.448,2.016 V 0 h -1.136 v -4.768 q 0,-1.328 -0.672,-2 -0.656,-0.688 -1.8560001,-0.688 -0.896,0 -1.568,0.368 -0.656,0.352 -1.024,1.04 -0.352,0.672 -0.352,1.632 V 0 h -1.136 v -8.4 h 1.088 v 2.304 l -0.176,-0.432 q 0.4,-0.912 1.28,-1.424 0.88,-0.528 2.0960001,-0.528 z"
                 id="path22313" />
              <path
                 d="m 20.048,0.08 q -1.2,0 -2.16,-0.544 -0.944,-0.544 -1.488,-1.504 -0.544,-0.976 -0.544,-2.24 0,-1.28 0.544,-2.24 0.544,-0.96 1.488,-1.488 0.96,-0.544 2.16,-0.544 1.104,0 1.968,0.496 0.88,0.496 1.392,1.456 0.528,0.944 0.528,2.32 0,1.36 -0.512,2.32 -0.512,0.96 -1.392,1.472 -0.864,0.496 -1.984,0.496 z m 0.08,-1.008 q 0.896,0 1.6,-0.4 0.72,-0.416 1.12,-1.152 0.416,-0.752 0.416,-1.728 0,-0.992 -0.416,-1.728 -0.4,-0.736 -1.12,-1.136 -0.704,-0.416 -1.6,-0.416 -0.88,0 -1.584,0.416 -0.704,0.4 -1.12,1.136 -0.416,0.736 -0.416,1.728 0,0.976 0.416,1.728 0.416,0.736 1.12,1.152 0.704,0.4 1.584,0.4 z M 23.296,0 v -2.528 l 0.112,-1.696 -0.16,-1.696 v -5.952 h 1.136 V 0 Z"
                 id="path22315" />
              <path
                 d="m 31.12,0.08 q -1.312,0 -2.304,-0.544 -0.992,-0.56 -1.552,-1.52 -0.56,-0.976 -0.56,-2.224 0,-1.248 0.528,-2.208 0.544,-0.96 1.472,-1.504 0.944,-0.56 2.112,-0.56 1.184,0 2.096,0.544 0.928,0.528 1.456,1.504 0.528,0.96 0.528,2.224 0,0.08 -0.016,0.176 0,0.08 0,0.176 h -7.312 v -0.848 h 6.704 l -0.448,0.336 q 0,-0.912 -0.4,-1.616 -0.384,-0.72 -1.056,-1.12 -0.672,-0.4 -1.552,-0.4 -0.864,0 -1.552,0.4 -0.688,0.4 -1.072,1.12 -0.384,0.72 -0.384,1.648 v 0.176 q 0,0.96 0.416,1.696 0.432,0.72 1.184,1.136 0.768,0.4 1.744,0.4 0.768,0 1.424,-0.272 0.672,-0.272 1.152,-0.832 l 0.64,0.736 q -0.56,0.672 -1.408,1.024 -0.832,0.352 -1.84,0.352 z"
                 id="path22317" />
              <path
                 d="m 35.695998,0 3.552,-4.608 -0.016,0.56 -3.376,-4.352 h 1.28 l 2.768,3.6 -0.48,-0.016 2.768,-3.584 h 1.248 l -3.408,4.4 0.016,-0.608 3.584,4.608 h -1.296 l -2.928,-3.84 0.448,0.064 -2.88,3.776 z"
                 id="path22319" />
            </g>
          </g>
          <g
             id="g6134"
             transform="matrix(1.0000485,0,0,1.0000485,-0.50000228,9.3465946)">
            <g
               aria-label=":"
               transform="matrix(1,0,0,-1,131.8,497.089)"
               id="text6138"
               style="font-size:16px;font-family:Montserrat;-inkscape-font-specification:Montserrat-Regular">
              <path
                 d="m 1.696,-6.736 q -0.352,0 -0.608,-0.256 -0.24,-0.256 -0.24,-0.624 0,-0.384 0.24,-0.624 0.256,-0.24 0.608,-0.24 0.352,0 0.592,0.24 0.256,0.24 0.256,0.624 0,0.368 -0.256,0.624 -0.24,0.256 -0.592,0.256 z m 0,6.816 q -0.352,0 -0.608,-0.256 -0.24,-0.256 -0.24,-0.624 0,-0.384 0.24,-0.624 0.256,-0.24 0.608,-0.24 0.352,0 0.592,0.24 0.256,0.24 0.256,0.624 0,0.368 -0.256,0.624 Q 2.048,0.08 1.696,0.08 Z"
                 id="path22308" />
            </g>
          </g>
          <g
             id="g6140"
             transform="matrix(1.0000485,0,0,1.0000485,-0.50000228,9.3465946)">
            <g
               aria-label="term:"
               transform="matrix(1,0,0,-1,92.7,465.789)"
               id="text6144"
               style="font-size:16px;font-family:Montserrat;-inkscape-font-specification:Montserrat-Regular">
              <path
                 d="m 4.24,0.08 q -1.184,0 -1.824,-0.64 -0.64,-0.64 -0.64,-1.808 v -7.888 h 1.136 v 7.824 q 0,0.736 0.368,1.136 0.384,0.4 1.088,0.4 0.752,0 1.248,-0.432 l 0.4,0.816 Q 5.68,-0.208 5.2,-0.064 4.736,0.08 4.24,0.08 Z M 0.272,-7.456 V -8.4 h 5.2 v 0.944 z"
                 id="path22297" />
              <path
                 d="m 11.344,0.08 q -1.312,0 -2.3040001,-0.544 -0.992,-0.56 -1.552,-1.52 -0.56,-0.976 -0.56,-2.224 0,-1.248 0.528,-2.208 0.544,-0.96 1.472,-1.504 0.944,-0.56 2.1120001,-0.56 1.184,0 2.096,0.544 0.928,0.528 1.456,1.504 0.528,0.96 0.528,2.224 0,0.08 -0.016,0.176 0,0.08 0,0.176 H 7.7919999 V -4.704 H 14.496 l -0.448,0.336 q 0,-0.912 -0.4,-1.616 -0.384,-0.72 -1.056,-1.12 -0.672,-0.4 -1.552,-0.4 -0.864,0 -1.5520001,0.4 -0.688,0.4 -1.072,1.12 -0.384,0.72 -0.384,1.648 v 0.176 q 0,0.96 0.416,1.696 0.432,0.72 1.184,1.136 0.7680001,0.4 1.7440001,0.4 0.768,0 1.424,-0.272 0.672,-0.272 1.152,-0.832 l 0.64,0.736 q -0.56,0.672 -1.408,1.024 -0.832,0.352 -1.84,0.352 z"
                 id="path22299" />
              <path
                 d="m 17.44,0 v -8.4 h 1.088 v 2.288 l -0.112,-0.4 q 0.352,-0.96 1.184,-1.456 0.832,-0.512 2.064,-0.512 v 1.104 q -0.064,0 -0.128,0 -0.064,-0.016 -0.128,-0.016 -1.328,0 -2.08,0.816 -0.752,0.8 -0.752,2.288 V 0 Z"
                 id="path22301" />
              <path
                 d="m 34.223999,-8.48 q 1.024,0 1.776,0.4 0.768,0.384 1.184,1.184 0.432,0.8 0.432,2.016 V 0 h -1.136 v -4.768 q 0,-1.328 -0.64,-2 -0.624,-0.688 -1.776,-0.688 -0.864,0 -1.504,0.368 -0.624,0.352 -0.976,1.04 -0.336,0.672 -0.336,1.632 V 0 h -1.136 v -4.768 q 0,-1.328 -0.64,-2 -0.64,-0.688 -1.792,-0.688 -0.848,0 -1.488,0.368 -0.64,0.352 -0.992,1.04 -0.336,0.672 -0.336,1.632 V 0 h -1.136 v -8.4 h 1.088 v 2.272 l -0.176,-0.4 q 0.384,-0.912 1.232,-1.424 0.864,-0.528 2.032,-0.528 1.232,0 2.096,0.624 0.864,0.608 1.12,1.84 l -0.448,-0.176 q 0.368,-1.024 1.296,-1.648 0.944,-0.64 2.256,-0.64 z"
                 id="path22303" />
              <path
                 d="m 40.815999,-6.736 q -0.352,0 -0.608,-0.256 -0.24,-0.256 -0.24,-0.624 0,-0.384 0.24,-0.624 0.256,-0.24 0.608,-0.24 0.352,0 0.592,0.24 0.256,0.24 0.256,0.624 0,0.368 -0.256,0.624 -0.24,0.256 -0.592,0.256 z m 0,6.816 q -0.352,0 -0.608,-0.256 -0.24,-0.256 -0.24,-0.624 0,-0.384 0.24,-0.624 0.256,-0.24 0.608,-0.24 0.352,0 0.592,0.24 0.256,0.24 0.256,0.624 0,0.368 -0.256,0.624 -0.24,0.256 -0.592,0.256 z"
                 id="path22305" />
            </g>
          </g>
          <g
             id="g6146"
             transform="matrix(1.0000485,0,0,1.0000485,-0.50000228,9.3465946)">
            <g
               aria-label="value:"
               transform="matrix(1,0,0,-1,89.25,434.489)"
               id="text6150"
               style="font-size:16px;font-family:Montserrat;-inkscape-font-specification:Montserrat-Regular">
              <path
                 d="M 3.744,0 0.016,-8.4 H 1.2 l 3.424,7.792 H 4.064 L 7.536,-8.4 h 1.12 L 4.912,0 Z"
                 id="path22284" />
              <path
                 d="M 15.264,0 V -1.856 L 15.216,-2.16 v -3.104 q 0,-1.072 -0.608,-1.648 -0.592,-0.576 -1.776,-0.576 -0.816,0 -1.552,0.272 -0.736,0.272 -1.248,0.72 L 9.5200004,-7.344 Q 10.16,-7.888 11.056,-8.176 q 0.896,-0.304 1.888,-0.304 1.632,0 2.512,0.816 0.896,0.8 0.896,2.448 V 0 Z m -2.896,0.08 q -0.944,0 -1.648,-0.304 -0.688,-0.32 -1.0559996,-0.864 -0.368,-0.56 -0.368,-1.28 0,-0.656 0.304,-1.184 0.32,-0.544 1.0239996,-0.864 0.72,-0.336 1.92,-0.336 h 2.896 v 0.848 h -2.864 q -1.216,0 -1.696,0.432 -0.464,0.432 -0.464,1.072 0,0.72 0.56,1.152 0.56,0.432 1.568,0.432 0.96,0 1.648,-0.432 0.704,-0.448 1.024,-1.28 l 0.256,0.784 q -0.32,0.832 -1.12,1.328 -0.784,0.496 -1.984,0.496 z"
                 id="path22286" />
              <path
                 d="m 19.440001,0 v -11.872 h 1.136 V 0 Z"
                 id="path22288" />
              <path
                 d="m 27.216,0.08 q -1.072,0 -1.872,-0.4 -0.8,-0.4 -1.248,-1.2 -0.432,-0.8 -0.432,-2 V -8.4 H 24.8 v 4.752 q 0,1.344 0.656,2.032 0.672,0.672 1.872,0.672 0.88,0 1.52,-0.352 0.656,-0.368 0.992,-1.056 Q 30.192,-3.04 30.192,-4 v -4.4 h 1.136 V 0 H 30.24 v -2.304 l 0.176,0.416 q -0.4,0.928 -1.248,1.456 -0.832,0.512 -1.952,0.512 z"
                 id="path22290" />
              <path
                 d="m 38.063999,0.08 q -1.312,0 -2.304,-0.544 -0.992,-0.56 -1.552,-1.52 -0.56,-0.976 -0.56,-2.224 0,-1.248 0.528,-2.208 0.544,-0.96 1.472,-1.504 0.944,-0.56 2.112,-0.56 1.184,0 2.096,0.544 0.928,0.528 1.456,1.504 0.528,0.96 0.528,2.224 0,0.08 -0.016,0.176 0,0.08 0,0.176 h -7.312 v -0.848 h 6.704 l -0.448,0.336 q 0,-0.912 -0.4,-1.616 -0.384,-0.72 -1.056,-1.12 -0.672,-0.4 -1.552,-0.4 -0.864,0 -1.552,0.4 -0.688,0.4 -1.072,1.12 -0.384,0.72 -0.384,1.648 v 0.176 q 0,0.96 0.416,1.696 0.432,0.72 1.184,1.136 0.768,0.4 1.744,0.4 0.768,0 1.424,-0.272 0.672,-0.272 1.152,-0.832 l 0.64,0.736 q -0.56,0.672 -1.408,1.024 -0.832,0.352 -1.84,0.352 z"
                 id="path22292" />
              <path
                 d="m 44.272,-6.736 q -0.352,0 -0.608,-0.256 -0.24,-0.256 -0.24,-0.624 0,-0.384 0.24,-0.624 0.256,-0.24 0.608,-0.24 0.352,0 0.592,0.24 0.256,0.24 0.256,0.624 0,0.368 -0.256,0.624 -0.24,0.256 -0.592,0.256 z m 0,6.816 q -0.352,0 -0.608,-0.256 -0.24,-0.256 -0.24,-0.624 0,-0.384 0.24,-0.624 0.256,-0.24 0.608,-0.24 0.352,0 0.592,0.24 0.256,0.24 0.256,0.624 0,0.368 -0.256,0.624 -0.24,0.256 -0.592,0.256 z"
                 id="path22294" />
            </g>
          </g>
          <g
             id="g6152"
             transform="matrix(1.0000485,0,0,1.0000485,-0.50000228,9.3465946)">
            <g
               aria-label="applied:"
               transform="matrix(1,0,0,-1,71.55,403.189)"
               id="text6156"
               style="font-size:16px;font-family:Montserrat;-inkscape-font-specification:Montserrat-Regular">
              <path
                 d="M 6.848,0 V -1.856 L 6.8,-2.16 V -5.264 Q 6.8,-6.336 6.192,-6.912 5.6,-7.488 4.416,-7.488 q -0.816,0 -1.552,0.272 -0.736,0.272 -1.248,0.72 L 1.104,-7.344 q 0.64,-0.544 1.536,-0.832 0.896,-0.304 1.888,-0.304 1.632,0 2.512,0.816 0.896,0.8 0.896,2.448 V 0 Z M 3.952,0.08 q -0.944,0 -1.648,-0.304 -0.688,-0.32 -1.056,-0.864 -0.368,-0.56 -0.368,-1.28 0,-0.656 0.304,-1.184 0.32,-0.544 1.024,-0.864 0.72,-0.336 1.92,-0.336 h 2.896 v 0.848 H 4.16 q -1.216,0 -1.696,0.432 Q 2,-3.04 2,-2.4 q 0,0.72 0.56,1.152 0.56,0.432 1.568,0.432 0.96,0 1.648,-0.432 0.704,-0.448 1.024,-1.28 l 0.256,0.784 Q 6.736,-0.912 5.936,-0.416 5.152,0.08 3.952,0.08 Z"
                 id="path22267" />
              <path
                 d="m 15.36,0.08 q -1.088,0 -1.968,-0.496 -0.88,-0.512 -1.408,-1.456 -0.512,-0.96 -0.512,-2.336 0,-1.376 0.512,-2.32 0.512,-0.96 1.392,-1.456 0.88,-0.496 1.984,-0.496 1.2,0 2.144,0.544 0.96,0.528 1.504,1.504 0.544,0.96 0.544,2.224 0,1.28 -0.544,2.24 -0.544,0.96 -1.504,1.504 Q 16.56,0.08 15.36,0.08 Z M 11.024,3.104 V -8.4 h 1.088 v 2.528 l -0.112,1.68 0.16,1.696 v 5.6 z m 4.256,-4.032 q 0.896,0 1.6,-0.4 0.704,-0.416 1.12,-1.152 0.416,-0.752 0.416,-1.728 0,-0.976 -0.416,-1.712 -0.416,-0.736 -1.12,-1.152 -0.704,-0.416 -1.6,-0.416 -0.896,0 -1.616,0.416 -0.704,0.416 -1.12,1.152 -0.4,0.736 -0.4,1.712 0,0.976 0.4,1.728 0.416,0.736 1.12,1.152 0.72,0.4 1.616,0.4 z"
                 id="path22269" />
              <path
                 d="m 26.208,0.08 q -1.088,0 -1.968,-0.496 -0.88,-0.512 -1.408,-1.456 -0.512,-0.96 -0.512,-2.336 0,-1.376 0.512,-2.32 0.512,-0.96 1.392,-1.456 0.88,-0.496 1.984,-0.496 1.2,0 2.144,0.544 0.96,0.528 1.504,1.504 0.544,0.96 0.544,2.224 0,1.28 -0.544,2.24 -0.544,0.96 -1.504,1.504 Q 27.408,0.08 26.208,0.08 Z M 21.872,3.104 V -8.4 h 1.088 v 2.528 l -0.112,1.68 0.16,1.696 v 5.6 z m 4.256,-4.032 q 0.896,0 1.6,-0.4 0.704,-0.416 1.12,-1.152 0.416,-0.752 0.416,-1.728 0,-0.976 -0.416,-1.712 -0.416,-0.736 -1.12,-1.152 -0.704,-0.416 -1.6,-0.416 -0.896,0 -1.616,0.416 -0.704,0.416 -1.12,1.152 -0.4,0.736 -0.4,1.712 0,0.976 0.4,1.728 0.416,0.736 1.12,1.152 0.72,0.4 1.616,0.4 z"
                 id="path22271" />
              <path
                 d="m 32.72,0 v -11.872 h 1.136 V 0 Z"
                 id="path22273" />
              <path
                 d="m 37.023999,0 v -8.4 h 1.136 V 0 Z m 0.576,-10.256 q -0.352,0 -0.592,-0.24 -0.24,-0.24 -0.24,-0.576 0,-0.336 0.24,-0.56 0.24,-0.24 0.592,-0.24 0.352,0 0.592,0.224 0.24,0.224 0.24,0.56 0,0.352 -0.24,0.592 -0.224,0.24 -0.592,0.24 z"
                 id="path22275" />
              <path
                 d="m 44.895999,0.08 q -1.312,0 -2.304,-0.544 -0.992,-0.56 -1.552,-1.52 -0.56,-0.976 -0.56,-2.224 0,-1.248 0.528,-2.208 0.544,-0.96 1.472,-1.504 0.944,-0.56 2.112,-0.56 1.184,0 2.096,0.544 0.928,0.528 1.456,1.504 0.528,0.96 0.528,2.224 0,0.08 -0.016,0.176 0,0.08 0,0.176 h -7.312 v -0.848 h 6.704 l -0.448,0.336 q 0,-0.912 -0.4,-1.616 -0.384,-0.72 -1.056,-1.12 -0.672,-0.4 -1.552,-0.4 -0.864,0 -1.552,0.4 -0.688,0.4 -1.072,1.12 -0.384,0.72 -0.384,1.648 v 0.176 q 0,0.96 0.416,1.696 0.432,0.72 1.184,1.136 0.768,0.4 1.744,0.4 0.768,0 1.424,-0.272 0.672,-0.272 1.152,-0.832 l 0.64,0.736 q -0.56,0.672 -1.408,1.024 -0.832,0.352 -1.84,0.352 z"
                 id="path22277" />
              <path
                 d="m 54.336001,0.08 q -1.2,0 -2.16,-0.544 -0.944,-0.544 -1.488,-1.504 -0.544,-0.976 -0.544,-2.24 0,-1.28 0.544,-2.24 0.544,-0.96 1.488,-1.488 0.96,-0.544 2.16,-0.544 1.104,0 1.968,0.496 0.88,0.496 1.392,1.456 0.528,0.944 0.528,2.32 0,1.36 -0.512,2.32 -0.512,0.96 -1.392,1.472 -0.864,0.496 -1.984,0.496 z m 0.08,-1.008 q 0.896,0 1.6,-0.4 0.72,-0.416 1.12,-1.152 0.416,-0.752 0.416,-1.728 0,-0.992 -0.416,-1.728 -0.4,-0.736 -1.12,-1.136 -0.704,-0.416 -1.6,-0.416 -0.88,0 -1.584,0.416 -0.704,0.4 -1.12,1.136 -0.416,0.736 -0.416,1.728 0,0.976 0.416,1.728 0.416,0.736 1.12,1.152 0.704,0.4 1.584,0.4 z m 3.168,0.928 v -2.528 l 0.112,-1.696 -0.16,-1.696 v -5.952 h 1.136 V 0 Z"
                 id="path22279" />
              <path
                 d="m 61.952001,-6.736 q -0.352,0 -0.608,-0.256 -0.24,-0.256 -0.24,-0.624 0,-0.384 0.24,-0.624 0.256,-0.24 0.608,-0.24 0.352,0 0.592,0.24 0.256,0.24 0.256,0.624 0,0.368 -0.256,0.624 -0.24,0.256 -0.592,0.256 z m 0,6.816 q -0.352,0 -0.608,-0.256 -0.24,-0.256 -0.24,-0.624 0,-0.384 0.24,-0.624 0.256,-0.24 0.608,-0.24 0.352,0 0.592,0.24 0.256,0.24 0.256,0.624 0,0.368 -0.256,0.624 -0.24,0.256 -0.592,0.256 z"
                 id="path22281" />
            </g>
          </g>
          <path
             d="M 430.2709,799.92394 H 542.27633 V 716.41989 H 430.2709 Z"
             style="fill:#ffffff;fill-opacity:1;fill-rule:evenodd;stroke:none;stroke-width:1.00005"
             id="path6378" />
          <g
             id="g6380"
             transform="matrix(1.0000485,0,0,1.0000485,-0.50000228,9.3465946)">
            <path
               d="m 434.85,786.039 h 103.9"
               style="fill:none;stroke:#000000;stroke-width:0.5;stroke-linecap:butt;stroke-linejoin:round;stroke-miterlimit:10;stroke-dasharray:none;stroke-opacity:1"
               id="path6382" />
          </g>
          <g
             id="g6384"
             transform="matrix(1.0000485,0,0,1.0000485,-0.50000228,9.3465946)">
            <path
               d="m 434.85,758.939 h 103.9"
               style="fill:none;stroke:#000000;stroke-width:0.5;stroke-linecap:butt;stroke-linejoin:round;stroke-miterlimit:10;stroke-dasharray:none;stroke-opacity:1"
               id="path6386" />
          </g>
          <g
             id="g6388"
             transform="matrix(1.0000485,0,0,1.0000485,-0.50000228,9.3465946)">
            <path
               d="m 434.85,725.339 h 103.9"
               style="fill:none;stroke:#000000;stroke-width:0.5;stroke-linecap:butt;stroke-linejoin:round;stroke-miterlimit:10;stroke-dasharray:none;stroke-opacity:1"
               id="path6390" />
          </g>
          <g
             id="g6392"
             transform="matrix(1.0000485,0,0,1.0000485,-0.50000228,9.3465946)">
            <path
               d="m 435.1,786.289 v -61.2"
               style="fill:none;stroke:#000000;stroke-width:0.5;stroke-linecap:butt;stroke-linejoin:round;stroke-miterlimit:10;stroke-dasharray:none;stroke-opacity:1"
               id="path6394" />
          </g>
          <g
             id="g6396"
             transform="matrix(1.0000485,0,0,1.0000485,-0.50000228,9.3465946)">
            <path
               d="m 538.5,786.289 v -61.2"
               style="fill:none;stroke:#000000;stroke-width:0.5;stroke-linecap:butt;stroke-linejoin:round;stroke-miterlimit:10;stroke-dasharray:none;stroke-opacity:1"
               id="path6398" />
          </g>
          <g
             id="g6400"
             transform="matrix(1.0000485,0,0,1.0000485,-0.50000228,9.3465946)">
            <g
               aria-label="raft_id"
               transform="matrix(1,0,0,-1,461.6,766.289)"
               id="text6404"
               style="font-size:16px;font-family:'Roboto Slab';-inkscape-font-specification:RobotoSlab-Regular">
              <path
                 d="m 1.584,0 v -8.4 h 1.088 v 2.288 L 2.56,-6.512 Q 2.912,-7.472 3.744,-7.968 4.576,-8.48 5.808,-8.48 v 1.104 q -0.064,0 -0.128,0 -0.064,-0.016 -0.128,-0.016 -1.328,0 -2.08,0.816 -0.752,0.8 -0.752,2.288 V 0 Z"
                 style="font-family:Montserrat;-inkscape-font-specification:Montserrat"
                 id="path22252" />
              <path
                 d="M 13.504,0 V -1.856 L 13.456,-2.16 v -3.104 q 0,-1.072 -0.608,-1.648 -0.592,-0.576 -1.776,-0.576 -0.816,0 -1.5519999,0.272 -0.736,0.272 -1.248,0.72 l -0.512,-0.848 q 0.64,-0.544 1.536,-0.832 Q 10.192,-8.48 11.184,-8.48 q 1.632,0 2.512,0.816 0.896,0.8 0.896,2.448 V 0 Z m -2.896,0.08 q -0.9439999,0 -1.6479999,-0.304 -0.688,-0.32 -1.056,-0.864 -0.368,-0.56 -0.368,-1.28 0,-0.656 0.304,-1.184 0.32,-0.544 1.024,-0.864 0.72,-0.336 1.9199999,-0.336 h 2.896 v 0.848 h -2.864 q -1.2159999,0 -1.6959999,0.432 -0.464,0.432 -0.464,1.072 0,0.72 0.56,1.152 0.56,0.432 1.5679999,0.432 0.96,0 1.648,-0.432 0.704,-0.448 1.024,-1.28 l 0.256,0.784 q -0.32,0.832 -1.12,1.328 -0.784,0.496 -1.984,0.496 z"
                 style="font-family:Montserrat;-inkscape-font-specification:Montserrat"
                 id="path22254" />
              <path
                 d="m 17.264,0 v -9.456 q 0,-1.12 0.656,-1.808 0.656,-0.688 1.888,-0.688 0.48,0 0.928,0.128 0.448,0.128 0.752,0.4 l -0.384,0.848 q -0.24,-0.208 -0.56,-0.304 -0.32,-0.112 -0.688,-0.112 -0.72,0 -1.104,0.4 -0.384,0.4 -0.384,1.184 v 1.28 L 18.4,-7.6 V 0 Z M 15.76,-7.456 V -8.4 h 5.2 v 0.944 z"
                 style="font-family:Montserrat;-inkscape-font-specification:Montserrat"
                 id="path22256" />
              <path
                 d="m 25.392,0.08 q -1.184,0 -1.824,-0.64 -0.64,-0.64 -0.64,-1.808 v -7.888 h 1.136 v 7.824 q 0,0.736 0.368,1.136 0.384,0.4 1.088,0.4 0.752,0 1.248,-0.432 l 0.4,0.816 q -0.336,0.304 -0.816,0.448 -0.464,0.144 -0.96,0.144 z M 21.424,-7.456 V -8.4 h 5.2 v 0.944 z"
                 style="font-family:Montserrat;-inkscape-font-specification:Montserrat"
                 id="path22258" />
              <path
                 d="M 26.848,0.768 V 0 h 8 v 0.768 z"
                 style="font-family:Montserrat;-inkscape-font-specification:Montserrat"
                 id="path22260" />
              <path
                 d="m 37.551999,0 v -8.4 h 1.136 V 0 Z m 0.576,-10.256 q -0.352,0 -0.592,-0.24 -0.24,-0.24 -0.24,-0.576 0,-0.336 0.24,-0.56 0.24,-0.24 0.592,-0.24 0.352,0 0.592,0.224 0.24,0.224 0.24,0.56 0,0.352 -0.24,0.592 -0.224,0.24 -0.592,0.24 z"
                 style="font-family:Montserrat;-inkscape-font-specification:Montserrat"
                 id="path22262" />
              <path
                 d="m 45.984,0.08 q -1.2,0 -2.16,-0.544 -0.944,-0.544 -1.488,-1.504 -0.544,-0.976 -0.544,-2.24 0,-1.28 0.544,-2.24 0.544,-0.96 1.488,-1.488 0.96,-0.544 2.16,-0.544 1.104,0 1.968,0.496 0.88,0.496 1.392,1.456 0.528,0.944 0.528,2.32 0,1.36 -0.512,2.32 -0.512,0.96 -1.392,1.472 -0.864,0.496 -1.984,0.496 z m 0.08,-1.008 q 0.896,0 1.6,-0.4 0.72,-0.416 1.12,-1.152 0.416,-0.752 0.416,-1.728 0,-0.992 -0.416,-1.728 -0.4,-0.736 -1.12,-1.136 -0.704,-0.416 -1.6,-0.416 -0.88,0 -1.584,0.416 -0.704,0.4 -1.12,1.136 -0.416,0.736 -0.416,1.728 0,0.976 0.416,1.728 0.416,0.736 1.12,1.152 0.704,0.4 1.584,0.4 z M 49.232,0 v -2.528 l 0.112,-1.696 -0.16,-1.696 v -5.952 H 50.32 V 0 Z"
                 style="font-family:Montserrat;-inkscape-font-specification:Montserrat"
                 id="path22264" />
            </g>
          </g>
        </g>
        <g
           id="g8861"
           transform="matrix(0.88885915,0,0,0.88885915,19.672571,230.1069)">
          <rect
             style="fill:#ffffff;fill-opacity:1;stroke:#000000;stroke-width:0.99384;stroke-linecap:round;stroke-miterlimit:4;stroke-dasharray:none;stop-color:#000000"
             id="rect7643"
             width="390.34372"
             height="358.01752"
             x="753.76849"
             y="-660.88385"
             transform="scale(1,-1)" />
          <g
             id="g1102"
             transform="matrix(1.3251199,0,0,1.3251199,751.9116,-452.86416)">
            <text
               transform="matrix(1,0,0,-1,80.15,806.589)"
               style="font-variant:normal;font-weight:normal;font-size:16px;font-family:Montserrat;-inkscape-font-specification:Montserrat-Regular;writing-mode:lr-tb;fill:#000000;fill-opacity:1;fill-rule:nonzero;stroke:none"
               id="text1106"><tspan
                 x="0 11.568 21.232 32.080002 42.832001 52.495998 60.304001 66.800003 77.087997 87.120003 93.311996 102.976 114.544 126.032"
                 y="0"
                 sodipodi:role="line"
                 id="tspan1104">RequestVoteRPC</tspan></text>
          </g>
          <g
             id="g1108"
             transform="matrix(1.3251199,0,0,1.3251199,751.9116,-452.86416)">
            <path
               d="m 148.55,802.339 h 135.2"
               style="fill:none;stroke:#000000;stroke-width:0.5;stroke-linecap:butt;stroke-linejoin:round;stroke-miterlimit:10;stroke-dasharray:none;stroke-opacity:1"
               id="path1110" />
          </g>
          <g
             id="g1112"
             transform="matrix(1.3251199,0,0,1.3251199,751.9116,-452.86416)">
            <path
               d="m 148.55,774.039 h 135.2"
               style="fill:none;stroke:#000000;stroke-width:0.5;stroke-linecap:butt;stroke-linejoin:round;stroke-miterlimit:10;stroke-dasharray:none;stroke-opacity:1"
               id="path1114" />
          </g>
          <g
             id="g1116"
             transform="matrix(1.3251199,0,0,1.3251199,751.9116,-452.86416)">
            <path
               d="m 148.55,745.839 h 135.2"
               style="fill:none;stroke:#000000;stroke-width:0.5;stroke-linecap:butt;stroke-linejoin:round;stroke-miterlimit:10;stroke-dasharray:none;stroke-opacity:1"
               id="path1118" />
          </g>
          <g
             id="g1120"
             transform="matrix(1.3251199,0,0,1.3251199,751.9116,-452.86416)">
            <path
               d="m 148.55,717.539 h 135.2"
               style="fill:none;stroke:#000000;stroke-width:0.5;stroke-linecap:butt;stroke-linejoin:round;stroke-miterlimit:10;stroke-dasharray:none;stroke-opacity:1"
               id="path1122" />
          </g>
          <g
             id="g1124"
             transform="matrix(1.3251199,0,0,1.3251199,751.9116,-452.86416)">
            <path
               d="m 148.55,689.339 h 135.2"
               style="fill:none;stroke:#000000;stroke-width:0.5;stroke-linecap:butt;stroke-linejoin:round;stroke-miterlimit:10;stroke-dasharray:none;stroke-opacity:1"
               id="path1126" />
          </g>
          <g
             id="g1128"
             transform="matrix(1.3251199,0,0,1.3251199,751.9116,-452.86416)">
            <path
               d="m 148.8,802.589 v -113.5"
               style="fill:none;stroke:#000000;stroke-width:0.5;stroke-linecap:butt;stroke-linejoin:round;stroke-miterlimit:10;stroke-dasharray:none;stroke-opacity:1"
               id="path1130" />
          </g>
          <g
             id="g1132"
             transform="matrix(1.3251199,0,0,1.3251199,751.9116,-452.86416)">
            <path
               d="m 283.5,802.589 v -113.5"
               style="fill:none;stroke:#000000;stroke-width:0.5;stroke-linecap:butt;stroke-linejoin:round;stroke-miterlimit:10;stroke-dasharray:none;stroke-opacity:1"
               id="path1134" />
          </g>
          <g
             id="g1136"
             transform="matrix(1.3251199,0,0,1.3251199,751.9116,-452.86416)">
            <text
               transform="matrix(1,0,0,-1,101.4,783.839)"
               style="font-variant:normal;font-weight:normal;font-size:16px;font-family:Montserrat;-inkscape-font-specification:Montserrat-Regular;writing-mode:lr-tb;fill:#000000;fill-opacity:1;fill-rule:nonzero;stroke:none"
               id="text1140"><tspan
                 x="0 6.1919999 15.856 22.143999 39.119999 42.512001"
                 y="0"
                 sodipodi:role="line"
                 id="tspan1138">term:</tspan></text>
          </g>
          <g
             id="g1142"
             transform="matrix(1.3251199,0,0,1.3251199,751.9116,-452.86416)">
            <text
               transform="matrix(1,0,0,-1,44.25,755.589)"
               style="font-variant:normal;font-weight:normal;font-size:16px;font-family:Montserrat;-inkscape-font-specification:Montserrat-Regular;writing-mode:lr-tb;fill:#000000;fill-opacity:1;fill-rule:nonzero;stroke:none"
               id="text1146"><tspan
                 x="0 9.0080004 18.448 29.264 40.112 44.416 55.264 64.704002 70.896004 80.559998 85.391998 96.239998 99.632004"
                 y="0"
                 sodipodi:role="line"
                 id="tspan1144">candidateId:</tspan></text>
          </g>
          <g
             id="g1148"
             transform="matrix(1.3251199,0,0,1.3251199,751.9116,-452.86416)">
            <text
               transform="matrix(1,0,0,-1,37.85,727.339)"
               style="font-variant:normal;font-weight:normal;font-size:16px;font-family:Montserrat;-inkscape-font-specification:Montserrat-Regular;writing-mode:lr-tb;fill:#000000;fill-opacity:1;fill-rule:nonzero;stroke:none"
               id="text1152"><tspan
                 x="0 4.3039999 13.744 21.552 28.048 37.344002 47.375999 58.335999 63.167999 73.984001 84.832001 94.255997 102.64 106.032"
                 y="0"
                 sodipodi:role="line"
                 id="tspan1150">lastLogIndex:</tspan></text>
          </g>
          <g
             id="g1154"
             transform="matrix(1.3251199,0,0,1.3251199,751.9116,-452.86416)">
            <text
               transform="matrix(1,0,0,-1,42.4,699.089)"
               style="font-variant:normal;font-weight:normal;font-size:16px;font-family:Montserrat;-inkscape-font-specification:Montserrat-Regular;writing-mode:lr-tb;fill:#000000;fill-opacity:1;fill-rule:nonzero;stroke:none"
               id="text1158"><tspan
                 x="0 4.3039999 13.744 21.552 28.048 37.344002 47.375999 56.863998 65.167999 74.832001 81.120003 98.096001 101.488"
                 y="0"
                 sodipodi:role="line"
                 id="tspan1156">lastLogTerm:</tspan></text>
          </g>
          <g
             id="g1160"
             transform="matrix(1.3251199,0,0,1.3251199,751.9116,-452.86416)">
            <text
               transform="matrix(1,0,0,-1,109.85,667.939)"
               style="font-variant:normal;font-weight:normal;font-size:16px;font-family:Montserrat;-inkscape-font-specification:Montserrat-Regular;writing-mode:lr-tb;fill:#000000;fill-opacity:1;fill-rule:nonzero;stroke:none"
               id="text1164"><tspan
                 x="0 11.568 21.232 29.040001 39.888 49.919998 60.736 68.543999"
                 y="0"
                 sodipodi:role="line"
                 id="tspan1162">Response</tspan></text>
          </g>
          <g
             id="g1166"
             transform="matrix(1.3251199,0,0,1.3251199,751.9116,-452.86416)">
            <path
               d="m 13.95,663.639 h 269.8"
               style="fill:none;stroke:#000000;stroke-width:0.5;stroke-linecap:butt;stroke-linejoin:round;stroke-miterlimit:10;stroke-dasharray:none;stroke-opacity:1"
               id="path1168" />
          </g>
          <g
             id="g1170"
             transform="matrix(1.3251199,0,0,1.3251199,751.9116,-452.86416)">
            <path
               d="m 13.95,638.139 h 269.8"
               style="fill:none;stroke:#000000;stroke-width:0.5;stroke-linecap:butt;stroke-linejoin:round;stroke-miterlimit:10;stroke-dasharray:none;stroke-opacity:1"
               id="path1172" />
          </g>
          <g
             id="g1174"
             transform="matrix(1.3251199,0,0,1.3251199,751.9116,-452.86416)">
            <path
               d="m 13.95,612.639 h 269.8"
               style="fill:none;stroke:#000000;stroke-width:0.5;stroke-linecap:butt;stroke-linejoin:round;stroke-miterlimit:10;stroke-dasharray:none;stroke-opacity:1"
               id="path1176" />
          </g>
          <g
             id="g1178"
             transform="matrix(1.3251199,0,0,1.3251199,751.9116,-452.86416)">
            <path
               d="m 14.2,663.889 v -51.5"
               style="fill:none;stroke:#000000;stroke-width:0.5;stroke-linecap:butt;stroke-linejoin:round;stroke-miterlimit:10;stroke-dasharray:none;stroke-opacity:1"
               id="path1180" />
          </g>
          <g
             id="g1182"
             transform="matrix(1.3251199,0,0,1.3251199,751.9116,-452.86416)">
            <path
               d="m 44.1,663.889 v -51.5"
               style="fill:none;stroke:#000000;stroke-width:0.5;stroke-linecap:butt;stroke-linejoin:round;stroke-miterlimit:10;stroke-dasharray:none;stroke-opacity:1"
               id="path1184" />
          </g>
          <g
             id="g1186"
             transform="matrix(1.3251199,0,0,1.3251199,751.9116,-452.86416)">
            <path
               d="m 74,663.889 v -51.5"
               style="fill:none;stroke:#000000;stroke-width:0.5;stroke-linecap:butt;stroke-linejoin:round;stroke-miterlimit:10;stroke-dasharray:none;stroke-opacity:1"
               id="path1188" />
          </g>
          <g
             id="g1190"
             transform="matrix(1.3251199,0,0,1.3251199,751.9116,-452.86416)">
            <path
               d="m 103.9,663.889 v -51.5"
               style="fill:none;stroke:#000000;stroke-width:0.5;stroke-linecap:butt;stroke-linejoin:round;stroke-miterlimit:10;stroke-dasharray:none;stroke-opacity:1"
               id="path1192" />
          </g>
          <g
             id="g1194"
             transform="matrix(1.3251199,0,0,1.3251199,751.9116,-452.86416)">
            <path
               d="m 133.9,663.889 v -51.5"
               style="fill:none;stroke:#000000;stroke-width:0.5;stroke-linecap:butt;stroke-linejoin:round;stroke-miterlimit:10;stroke-dasharray:none;stroke-opacity:1"
               id="path1196" />
          </g>
          <g
             id="g1198"
             transform="matrix(1.3251199,0,0,1.3251199,751.9116,-452.86416)">
            <path
               d="m 163.8,663.889 v -51.5"
               style="fill:none;stroke:#000000;stroke-width:0.5;stroke-linecap:butt;stroke-linejoin:round;stroke-miterlimit:10;stroke-dasharray:none;stroke-opacity:1"
               id="path1200" />
          </g>
          <g
             id="g1202"
             transform="matrix(1.3251199,0,0,1.3251199,751.9116,-452.86416)">
            <path
               d="m 193.7,663.889 v -51.5"
               style="fill:none;stroke:#000000;stroke-width:0.5;stroke-linecap:butt;stroke-linejoin:round;stroke-miterlimit:10;stroke-dasharray:none;stroke-opacity:1"
               id="path1204" />
          </g>
          <g
             id="g1206"
             transform="matrix(1.3251199,0,0,1.3251199,751.9116,-452.86416)">
            <path
               d="m 223.6,663.889 v -51.5"
               style="fill:none;stroke:#000000;stroke-width:0.5;stroke-linecap:butt;stroke-linejoin:round;stroke-miterlimit:10;stroke-dasharray:none;stroke-opacity:1"
               id="path1208" />
          </g>
          <g
             id="g1210"
             transform="matrix(1.3251199,0,0,1.3251199,751.9116,-452.86416)">
            <path
               d="m 253.6,663.889 v -51.5"
               style="fill:none;stroke:#000000;stroke-width:0.5;stroke-linecap:butt;stroke-linejoin:round;stroke-miterlimit:10;stroke-dasharray:none;stroke-opacity:1"
               id="path1212" />
          </g>
          <g
             id="g1214"
             transform="matrix(1.3251199,0,0,1.3251199,751.9116,-452.86416)">
            <path
               d="m 283.5,663.889 v -51.5"
               style="fill:none;stroke:#000000;stroke-width:0.5;stroke-linecap:butt;stroke-linejoin:round;stroke-miterlimit:10;stroke-dasharray:none;stroke-opacity:1"
               id="path1216" />
          </g>
          <g
             id="g1218"
             transform="matrix(1.3251199,0,0,1.3251199,751.9116,-452.86416)">
            <text
               transform="matrix(1,0,0,-1,54.15,645.189)"
               style="font-variant:normal;font-weight:normal;font-size:16px;font-family:Montserrat;-inkscape-font-specification:Montserrat-Regular;writing-mode:lr-tb;fill:#000000;fill-opacity:1;fill-rule:nonzero;stroke:none"
               id="text1222"><tspan
                 x="0 4.1760001"
                 y="0"
                 sodipodi:role="line"
                 id="tspan1220">i1</tspan></text>
          </g>
          <g
             id="g1224"
             transform="matrix(1.3251199,0,0,1.3251199,751.9116,-452.86416)">
            <text
               transform="matrix(1,0,0,-1,82.35,645.189)"
               style="font-variant:normal;font-weight:normal;font-size:16px;font-family:Montserrat;-inkscape-font-specification:Montserrat-Regular;writing-mode:lr-tb;fill:#000000;fill-opacity:1;fill-rule:nonzero;stroke:none"
               id="text1228"><tspan
                 x="0 4.3039999"
                 y="0"
                 sodipodi:role="line"
                 id="tspan1226">i2</tspan></text>
          </g>
          <g
             id="g1230"
             transform="matrix(1.3251199,0,0,1.3251199,751.9116,-452.86416)">
            <text
               transform="matrix(1,0,0,-1,112.3,645.189)"
               style="font-variant:normal;font-weight:normal;font-size:16px;font-family:Montserrat;-inkscape-font-specification:Montserrat-Regular;writing-mode:lr-tb;fill:#000000;fill-opacity:1;fill-rule:nonzero;stroke:none"
               id="text1234"><tspan
                 x="0 4.3039999"
                 y="0"
                 sodipodi:role="line"
                 id="tspan1232">i3</tspan></text>
          </g>
          <g
             id="g1236"
             transform="matrix(1.3251199,0,0,1.3251199,751.9116,-452.86416)">
            <text
               transform="matrix(1,0,0,-1,141.45,645.189)"
               style="font-variant:normal;font-weight:normal;font-size:16px;font-family:Montserrat;-inkscape-font-specification:Montserrat-Regular;writing-mode:lr-tb;fill:#000000;fill-opacity:1;fill-rule:nonzero;stroke:none"
               id="text1240"><tspan
                 x="0 4.3039999"
                 y="0"
                 sodipodi:role="line"
                 id="tspan1238">i4</tspan></text>
          </g>
          <g
             id="g1242"
             transform="matrix(1.3251199,0,0,1.3251199,751.9116,-452.86416)">
            <text
               transform="matrix(1,0,0,-1,172.15,645.189)"
               style="font-variant:normal;font-weight:normal;font-size:16px;font-family:Montserrat;-inkscape-font-specification:Montserrat-Regular;writing-mode:lr-tb;fill:#000000;fill-opacity:1;fill-rule:nonzero;stroke:none"
               id="text1246"><tspan
                 x="0 4.3039999"
                 y="0"
                 sodipodi:role="line"
                 id="tspan1244">i5</tspan></text>
          </g>
          <g
             id="g1248"
             transform="matrix(1.3251199,0,0,1.3251199,751.9116,-452.86416)">
            <text
               transform="matrix(1,0,0,-1,201.75,645.189)"
               style="font-variant:normal;font-weight:normal;font-size:16px;font-family:Montserrat;-inkscape-font-specification:Montserrat-Regular;writing-mode:lr-tb;fill:#000000;fill-opacity:1;fill-rule:nonzero;stroke:none"
               id="text1252"><tspan
                 x="0 4.3039999"
                 y="0"
                 sodipodi:role="line"
                 id="tspan1250">i6</tspan></text>
          </g>
          <g
             id="g1254"
             transform="matrix(1.3251199,0,0,1.3251199,751.9116,-452.86416)">
            <text
               transform="matrix(1,0,0,-1,231.8,645.189)"
               style="font-variant:normal;font-weight:normal;font-size:16px;font-family:Montserrat;-inkscape-font-specification:Montserrat-Regular;writing-mode:lr-tb;fill:#000000;fill-opacity:1;fill-rule:nonzero;stroke:none"
               id="text1258"><tspan
                 x="0 4.3039999"
                 y="0"
                 sodipodi:role="line"
                 id="tspan1256">i7</tspan></text>
          </g>
          <g
             id="g1260"
             transform="matrix(1.3251199,0,0,1.3251199,751.9116,-452.86416)">
            <text
               transform="matrix(1,0,0,-1,261.4,645.189)"
               style="font-variant:normal;font-weight:normal;font-size:16px;font-family:Montserrat;-inkscape-font-specification:Montserrat-Regular;writing-mode:lr-tb;fill:#000000;fill-opacity:1;fill-rule:nonzero;stroke:none"
               id="text1264"><tspan
                 x="0 4.3039999"
                 y="0"
                 sodipodi:role="line"
                 id="tspan1262">i8</tspan></text>
          </g>
          <g
             id="g1266"
             transform="matrix(1.3251199,0,0,1.3251199,751.9116,-452.86416)">
            <text
               transform="matrix(1,0,0,-1,19.4,619.689)"
               style="font-variant:normal;font-weight:normal;font-size:16px;font-family:Montserrat;-inkscape-font-specification:Montserrat-Regular;writing-mode:lr-tb;fill:#000000;fill-opacity:1;fill-rule:nonzero;stroke:none"
               id="text1270"><tspan
                 x="0 10.032"
                 y="0"
                 sodipodi:role="line"
                 id="tspan1268">ok</tspan></text>
          </g>
        </g>
      </g>
    </g>
    <g
       id="g5193"
       transform="matrix(0.35277777,0,0,-0.35277777,168.10312,306.57428)">
      <g
         id="g5195"
         clip-path="url(#clipPath5199)" />
    </g>
  </g>
</svg>
