<svg width="1920" height="1081" viewBox="0 0 1920 1081" fill="none" xmlns="http://www.w3.org/2000/svg">
<g clip-path="url(#clip0_7561_310)">
<rect width="1920" height="1080" transform="translate(0 0.136475)" fill="#0F1257"/>
<path d="M1543.4 -549.658C1482.36 -447.245 1142.84 125.316 1122.06 160.25C1115.01 172.754 1111.08 186.553 1110.28 200.912C1109.47 215.271 1112.17 229.453 1117.82 242.537C1133.31 277 1234.25 508.832 1246.28 536.474C1250.83 548.82 1258.51 559.883 1268.22 568.926C1277.94 577.969 1289.51 584.438 1302.2 588.333L1850.87 785.256C1863.55 790.255 1877.35 791.942 1890.98 790.5C1904.61 789.057 1917.7 784.483 1929.15 777.144L2415.48 472.602C2429.14 464.164 2440.06 452.221 2447.12 437.876C2454.18 423.531 2457.2 407.705 2455.62 391.684L2416.11 -151.155C2413.68 -183.195 2387.69 -258.921 2322.86 -292.757L1722.98 -605.597C1636.83 -650.526 1584.03 -618.24 1543.77 -550.025L1543.4 -549.658Z" fill="url(#paint0_linear_7561_310)"/>
<path d="M1797.94 923.039V931.772H1790.27V923.039H1781.4V915.604H1790.27V906.872H1797.94V915.604H1806.79V923.039H1797.94Z" fill="white"/>
<path d="M1771.96 923.039V931.772H1764.29V923.039H1755.41V915.604H1764.29V906.872H1771.96V915.604H1780.8V923.039H1771.96Z" fill="white"/>
<path d="M1730.64 936.181C1726.86 936.181 1723.69 934.856 1721.16 932.204C1718.62 929.553 1717.35 925.768 1717.35 920.849C1717.35 915.931 1718.62 912.146 1721.16 909.494C1723.69 906.843 1726.86 905.517 1730.64 905.517C1732.72 905.517 1734.58 905.805 1736.23 906.382C1737.86 906.996 1738.97 907.592 1739.55 908.168L1740.44 909.033H1740.96V894.277H1752.77V935.605H1740.96V930.302H1740.38C1740.07 930.975 1739.65 931.657 1739.11 932.348C1738.52 933.059 1737.91 933.645 1737.3 934.106C1736.55 934.683 1735.57 935.173 1734.36 935.576C1733.17 935.98 1731.93 936.181 1730.64 936.181ZM1731.22 917.189C1730.24 918.092 1729.75 919.312 1729.75 920.849C1729.75 922.386 1730.23 923.606 1731.19 924.509C1732.15 925.412 1733.54 925.864 1735.37 925.864C1737.15 925.864 1738.53 925.422 1739.49 924.538C1740.47 923.635 1740.96 922.405 1740.96 920.849C1740.96 919.274 1740.47 918.044 1739.49 917.16C1738.51 916.276 1737.13 915.835 1735.37 915.835C1733.56 915.835 1732.18 916.286 1731.22 917.189Z" fill="white"/>
<path d="M1679.96 927.045C1679.96 923.933 1681.16 921.627 1683.56 920.129C1685.96 918.649 1689.09 917.91 1692.96 917.91C1694.9 917.91 1696.62 918.073 1698.14 918.399C1699.6 918.707 1700.56 919.053 1701.02 919.437L1701.69 919.898V916.123C1701.69 915.239 1701.4 914.576 1700.82 914.134C1700.27 913.692 1699.28 913.471 1697.85 913.471C1695.26 913.471 1693.96 914.355 1693.96 916.123H1681.54C1681.54 912.645 1682.94 910.013 1685.72 908.226C1688.53 906.42 1692.57 905.517 1697.85 905.517C1703.16 905.517 1707.09 906.372 1709.64 908.082C1712.2 909.792 1713.47 912.472 1713.47 916.123V923.501C1713.47 924.423 1713.58 925.066 1713.79 925.432C1714.02 925.797 1714.42 925.979 1714.97 925.979L1715.84 925.864V935.605C1714.95 935.989 1713.39 936.181 1711.14 936.181C1708.68 936.181 1706.77 935.634 1705.41 934.539C1704.27 933.655 1703.48 932.79 1703.04 931.945L1702.87 931.484H1702.26C1702.07 931.983 1701.72 932.531 1701.2 933.126C1700.7 933.684 1700.1 934.164 1699.41 934.567C1698.66 935.009 1697.6 935.384 1696.21 935.691C1694.85 936.018 1693.37 936.181 1691.77 936.181C1688.33 936.181 1685.5 935.413 1683.27 933.876C1681.06 932.358 1679.96 930.081 1679.96 927.045ZM1691.77 926.21C1691.77 927.478 1693.43 928.112 1696.73 928.112C1700.04 928.112 1701.69 927.478 1701.69 926.21C1701.69 924.961 1700.04 924.336 1696.73 924.336C1693.43 924.336 1691.77 924.961 1691.77 926.21Z" fill="white"/>
<path d="M1647.32 932.291C1644.11 929.697 1642.5 925.883 1642.5 920.849C1642.5 915.815 1644.11 912.001 1647.32 909.408C1650.51 906.814 1654.81 905.517 1660.23 905.517C1665.63 905.517 1669.92 906.814 1673.11 909.408C1676.32 912.001 1677.92 915.815 1677.92 920.849C1677.92 925.883 1676.32 929.697 1673.11 932.291C1669.92 934.884 1665.63 936.181 1660.23 936.181C1654.81 936.181 1650.51 934.884 1647.32 932.291ZM1664.46 924.884C1665.44 923.885 1665.93 922.54 1665.93 920.849C1665.93 919.158 1665.44 917.804 1664.46 916.786C1663.48 915.786 1662.07 915.287 1660.23 915.287C1658.36 915.287 1656.94 915.786 1655.96 916.786C1654.98 917.804 1654.49 919.158 1654.49 920.849C1654.49 922.54 1654.98 923.885 1655.96 924.884C1656.94 925.902 1658.36 926.411 1660.23 926.411C1662.07 926.411 1663.48 925.902 1664.46 924.884Z" fill="white"/>
<path d="M1621.88 924.97H1644.3V935.605H1608.88V894.277H1621.88V924.97Z" fill="white"/>
<path d="M1604.17 935.605H1592.38V921.368C1592.38 919.696 1591.88 918.361 1590.88 917.362C1589.88 916.344 1588.51 915.835 1586.76 915.835C1584.97 915.835 1583.59 916.334 1582.61 917.333C1581.65 918.313 1581.17 919.658 1581.17 921.368V935.605H1569.35V894.277H1581.17V911.396H1581.75C1581.88 910.935 1582.32 910.243 1583.07 909.321C1583.59 908.687 1584.22 908.101 1584.97 907.563C1585.8 907.006 1586.88 906.526 1588.2 906.122C1589.53 905.719 1590.92 905.517 1592.38 905.517C1596.03 905.517 1598.91 906.545 1601.03 908.601C1603.12 910.676 1604.17 913.779 1604.17 917.91V935.605Z" fill="white"/>
<path d="M1533.57 915.546C1533.57 912.395 1534.92 909.936 1537.6 908.168C1540.29 906.401 1543.99 905.517 1548.7 905.517H1568.47V912.808H1563.08C1563.56 914.134 1563.8 915.2 1563.8 916.007C1563.8 919.12 1562.48 921.493 1559.83 923.126C1557.15 924.759 1553.45 925.576 1548.7 925.576C1545.17 925.576 1543.39 926.123 1543.37 927.218C1543.37 928.237 1545.15 928.746 1548.7 928.746C1554.45 928.746 1558.84 929.466 1561.87 930.907C1564.89 932.348 1566.4 934.856 1566.4 938.429C1566.4 941.926 1564.89 944.395 1561.87 945.836C1558.84 947.277 1554.45 947.997 1548.7 947.997C1542.98 947.997 1538.58 947.287 1535.53 945.865C1532.49 944.424 1530.98 941.945 1530.98 938.429C1530.98 936.585 1531.47 935 1532.45 933.674C1533.41 932.368 1534.36 931.513 1535.3 931.109L1536.71 930.533V930.302C1536.17 930.052 1535.66 929.601 1535.18 928.948C1534.78 928.429 1534.58 927.852 1534.58 927.218C1534.58 926.45 1534.86 925.739 1535.41 925.086C1535.97 924.49 1536.52 924.058 1537.06 923.789L1537.89 923.501V923.27C1537.55 923.136 1537.05 922.78 1536.39 922.204C1535.88 921.743 1535.44 921.262 1535.1 920.763C1534.08 919.322 1533.57 917.583 1533.57 915.546ZM1553.4 940.101C1554.36 939.813 1554.84 939.255 1554.84 938.429C1554.84 937.603 1554.36 937.056 1553.4 936.787C1552.38 936.518 1550.81 936.383 1548.7 936.383C1546.55 936.383 1544.98 936.518 1544 936.787C1543.04 937.056 1542.56 937.603 1542.56 938.429C1542.56 939.255 1543.04 939.813 1544 940.101C1544.98 940.37 1546.55 940.504 1548.7 940.504C1550.81 940.504 1552.38 940.37 1553.4 940.101ZM1548.7 918.486C1551.18 918.486 1552.42 917.516 1552.42 915.575C1552.42 913.654 1551.18 912.693 1548.7 912.693C1546.15 912.693 1544.87 913.654 1544.87 915.575C1544.85 916.536 1545.16 917.266 1545.79 917.765C1546.44 918.246 1547.41 918.486 1548.7 918.486Z" fill="white"/>
<path d="M1516.81 906.093H1528.62V935.605H1516.81V906.093ZM1516.52 898.485C1516.52 896.948 1517.07 895.766 1518.16 894.94C1519.26 894.114 1520.8 893.701 1522.77 893.701C1524.68 893.701 1526.17 894.123 1527.27 894.969C1528.37 895.795 1528.91 896.967 1528.91 898.485C1528.91 900.041 1528.37 901.252 1527.27 902.116C1526.17 902.962 1524.68 903.384 1522.77 903.384C1520.8 903.384 1519.26 902.971 1518.16 902.145C1517.07 901.3 1516.52 900.08 1516.52 898.485Z" fill="white"/>
<path d="M1511.81 935.605H1498.84V919.091H1482.9V935.605H1469.9V894.277H1482.9V908.457H1498.84V894.277H1511.81V935.605Z" fill="white"/>
<path d="M1606.09 864.942V856.095H1602.37V850.504L1611.99 841.339H1617.9V847.247H1625.91V856.095H1617.9V863.357C1617.9 865.029 1618.32 866.21 1619.14 866.902C1619.97 867.575 1621.25 867.911 1622.97 867.911C1624.38 867.911 1625.4 867.709 1626.03 867.306L1626.52 867.133V876.355C1625.1 877.027 1623.3 877.354 1621.13 877.335C1615.9 877.335 1612.09 876.355 1609.69 874.395C1607.29 872.455 1606.09 869.304 1606.09 864.942Z" fill="white"/>
<path d="M1600.31 876.759H1588.52V862.522C1588.52 860.85 1588.02 859.515 1587.02 858.516C1586.02 857.497 1584.65 856.988 1582.9 856.988C1581.11 856.988 1579.73 857.488 1578.75 858.487C1577.79 859.467 1577.31 860.812 1577.31 862.522V876.759H1565.49V847.247H1577.31V852.55H1577.88C1578.02 852.089 1578.46 851.397 1579.21 850.475C1579.73 849.841 1580.36 849.255 1581.11 848.717C1581.94 848.16 1583.01 847.679 1584.34 847.276C1585.66 846.873 1587.06 846.671 1588.52 846.671C1592.17 846.671 1595.05 847.699 1597.16 849.754C1599.26 851.83 1600.31 854.932 1600.31 859.063V876.759Z" fill="white"/>
<path d="M1548.96 847.247H1560.78V876.759H1548.96V847.247ZM1548.67 839.639C1548.67 838.102 1549.22 836.92 1550.31 836.094C1551.41 835.268 1552.95 834.855 1554.93 834.855C1556.83 834.855 1558.33 835.277 1559.42 836.123C1560.52 836.949 1561.06 838.121 1561.06 839.639C1561.06 841.195 1560.52 842.405 1559.42 843.27C1558.33 844.115 1556.83 844.538 1554.93 844.538C1552.95 844.538 1551.41 844.125 1550.31 843.299C1549.22 842.453 1548.67 841.233 1548.67 839.639Z" fill="white"/>
<path d="M1510.09 868.199C1510.09 865.087 1511.29 862.781 1513.7 861.282C1516.1 859.803 1519.23 859.063 1523.09 859.063C1525.03 859.063 1526.76 859.227 1528.28 859.553C1529.74 859.861 1530.7 860.206 1531.16 860.591L1531.82 861.052V857.276C1531.82 856.393 1531.54 855.73 1530.96 855.288C1530.4 854.846 1529.41 854.625 1527.99 854.625C1525.4 854.625 1524.1 855.509 1524.1 857.276H1511.68C1511.68 853.799 1513.07 851.167 1515.86 849.38C1518.66 847.574 1522.71 846.671 1527.99 846.671C1533.29 846.671 1537.22 847.526 1539.78 849.236C1542.33 850.946 1543.61 853.626 1543.61 857.276V864.654C1543.61 865.577 1543.72 866.22 1543.93 866.585C1544.16 866.95 1544.55 867.133 1545.11 867.133L1545.97 867.018V876.759C1545.09 877.143 1543.52 877.335 1541.28 877.335C1538.82 877.335 1536.91 876.788 1535.54 875.692C1534.41 874.809 1533.62 873.944 1533.18 873.099L1533.01 872.637H1532.4C1532.21 873.137 1531.85 873.685 1531.33 874.28C1530.83 874.837 1530.24 875.318 1529.55 875.721C1528.8 876.163 1527.73 876.538 1526.35 876.845C1524.98 877.172 1523.5 877.335 1521.91 877.335C1518.47 877.335 1515.64 876.567 1513.41 875.029C1511.2 873.512 1510.09 871.235 1510.09 868.199ZM1521.91 867.363C1521.91 868.631 1523.56 869.266 1526.87 869.266C1530.17 869.266 1531.82 868.631 1531.82 867.363C1531.82 866.115 1530.17 865.49 1526.87 865.49C1523.56 865.49 1521.91 866.115 1521.91 867.363Z" fill="white"/>
<path d="M1506.27 847.593V848.602H1492.7V847.593C1492.7 846.728 1492.25 846.037 1491.34 845.518C1490.46 844.98 1489.18 844.711 1487.51 844.711C1484.05 844.711 1482.31 845.633 1482.29 847.478C1482.29 849.438 1484.43 850.427 1488.69 850.446C1495.69 850.446 1500.72 851.618 1503.79 853.962C1506.83 856.325 1508.35 859.678 1508.35 864.02C1508.35 868.209 1506.65 871.465 1503.25 873.79C1499.83 876.153 1494.77 877.335 1488.09 877.335C1481.38 877.335 1476.33 876.211 1472.93 873.963C1469.55 871.696 1467.86 868.382 1467.86 864.02V862.176H1481.43V864.02C1481.43 866.345 1483.66 867.498 1488.12 867.479C1492.55 867.479 1494.77 866.364 1494.77 864.136C1494.77 861.926 1492.71 860.821 1488.58 860.821C1475.38 860.821 1468.76 856.412 1468.72 847.593C1468.72 843.616 1470.31 840.494 1473.5 838.227C1476.69 835.979 1481.36 834.855 1487.51 834.855C1500.02 834.855 1506.27 839.101 1506.27 847.593Z" fill="white"/>
<path d="M1392.32 821.91C1379.68 825.154 1309.18 843.422 1304.87 844.531C1303.36 844.958 1301.99 845.727 1300.82 846.779C1299.65 847.832 1298.77 849.141 1298.2 850.592C1296.74 854.462 1286.71 880.242 1285.51 883.315C1284.91 884.624 1284.65 886.075 1284.71 887.526C1284.77 888.978 1285.17 890.372 1285.85 891.652L1313.26 949.244C1313.86 950.61 1314.8 951.805 1315.97 952.744C1317.14 953.683 1318.51 954.338 1319.96 954.651L1381.2 968.508C1382.91 968.906 1384.67 968.821 1386.33 968.252C1387.98 967.683 1389.44 966.687 1390.55 965.321L1429.34 920.135C1431.62 917.461 1435.44 909.579 1433.02 901.953L1410.57 831.414C1407.35 821.284 1400.76 819.719 1392.38 821.91H1392.32Z" fill="url(#paint1_linear_7561_310)"/>
<mask id="mask0_7561_310" style="mask-type:luminance" maskUnits="userSpaceOnUse" x="1284" y="821" width="150" height="148">
<path d="M1392.32 821.91C1379.68 825.154 1309.18 843.422 1304.87 844.531C1303.36 844.958 1301.99 845.727 1300.82 846.779C1299.65 847.832 1298.77 849.141 1298.2 850.592C1296.74 854.462 1286.71 880.242 1285.51 883.315C1284.91 884.624 1284.65 886.075 1284.71 887.526C1284.77 888.977 1285.17 890.372 1285.85 891.652L1313.26 949.244C1313.86 950.61 1314.8 951.805 1315.97 952.744C1317.14 953.683 1318.51 954.338 1319.96 954.651L1381.2 968.508C1382.91 968.906 1384.68 968.821 1386.33 968.252C1387.98 967.683 1389.44 966.687 1390.55 965.321L1429.34 920.135C1431.62 917.46 1435.44 909.579 1433.02 901.953L1410.57 831.414C1407.35 821.284 1400.76 819.719 1392.38 821.91H1392.32Z" fill="white"/>
</mask>
<g mask="url(#mask0_7561_310)">
<path d="M1366.61 910.377H1344.33V882.065H1316.95V910.377H1294.59V839.525H1316.93V863.826H1344.31V839.525H1366.58V910.377H1366.61Z" fill="white"/>
<path d="M1397.02 892.138H1435.55V910.377H1374.68V839.525H1397.02V892.138Z" fill="white"/>
</g>
<path d="M1410.84 941.124H1405.4V937.907H1395.86V933.699L1403.66 923.782H1410.84V933.699H1413.08V937.907H1410.84V941.124ZM1405.76 927.011L1404.7 929.043L1400.96 933.65V933.771H1405.47V929.043L1406.3 927.011H1405.76Z" fill="white"/>
<path d="M1395.84 941.124H1379.86V937.653C1379.86 936.839 1380.05 936.117 1380.43 935.489C1380.81 934.852 1381.32 934.34 1381.96 933.953C1383.07 933.292 1384.5 932.719 1386.27 932.235C1386.78 932.098 1387.21 931.977 1387.55 931.873C1387.91 931.76 1388.28 931.619 1388.66 931.449C1389.06 931.28 1389.37 931.107 1389.61 930.929C1389.84 930.752 1390.03 930.538 1390.19 930.288C1390.34 930.038 1390.42 929.768 1390.42 929.478C1390.42 928.438 1389.64 927.918 1388.1 927.918C1386.54 927.918 1385.76 928.603 1385.76 929.974V930.893H1380.31V929.974C1380.31 927.733 1380.94 926.096 1382.22 925.064C1383.48 924.048 1385.44 923.54 1388.08 923.54C1390.7 923.54 1392.66 924.028 1393.94 925.004C1395.22 925.979 1395.86 927.471 1395.86 929.478C1395.86 930.599 1395.53 931.586 1394.87 932.441C1394.22 933.288 1393.4 933.937 1392.44 934.388C1391.53 934.807 1390.59 935.178 1389.61 935.501C1388.78 935.767 1387.97 936.021 1387.19 936.263C1386.52 936.48 1386.19 936.698 1386.19 936.916H1395.84V941.124Z" fill="white"/>
<path d="M1376.37 925.935C1377.88 927.539 1378.63 929.712 1378.63 932.453C1378.63 935.202 1377.88 937.371 1376.37 938.959C1374.86 940.564 1372.77 941.366 1370.08 941.366C1367.4 941.366 1365.31 940.564 1363.81 938.959C1362.29 937.355 1361.53 935.186 1361.53 932.453C1361.53 929.72 1362.29 927.547 1363.81 925.935C1365.32 924.338 1367.41 923.54 1370.08 923.54C1372.77 923.54 1374.86 924.338 1376.37 925.935ZM1370.08 928.172C1368.18 928.172 1367.23 929.599 1367.23 932.453C1367.23 935.315 1368.18 936.746 1370.08 936.746C1371.98 936.746 1372.92 935.315 1372.92 932.453C1372.92 929.599 1371.98 928.172 1370.08 928.172Z" fill="white"/>
<path d="M1360.15 941.124H1344.17V937.653C1344.17 936.839 1344.36 936.117 1344.74 935.488C1345.12 934.852 1345.63 934.34 1346.27 933.953C1347.38 933.291 1348.81 932.719 1350.58 932.235C1351.09 932.098 1351.52 931.977 1351.86 931.873C1352.22 931.76 1352.59 931.619 1352.97 931.449C1353.37 931.28 1353.68 931.107 1353.92 930.929C1354.15 930.752 1354.34 930.538 1354.5 930.288C1354.65 930.038 1354.73 929.768 1354.73 929.478C1354.73 928.438 1353.95 927.918 1352.41 927.918C1350.85 927.918 1350.07 928.603 1350.07 929.974V930.893H1344.62V929.974C1344.62 927.733 1345.25 926.096 1346.53 925.064C1347.79 924.048 1349.75 923.54 1352.39 923.54C1355.01 923.54 1356.97 924.028 1358.25 925.003C1359.53 925.979 1360.17 927.471 1360.17 929.478C1360.17 930.599 1359.84 931.586 1359.18 932.441C1358.53 933.287 1357.71 933.936 1356.75 934.388C1355.84 934.807 1354.9 935.178 1353.92 935.501C1353.09 935.767 1352.28 936.021 1351.5 936.262C1350.83 936.48 1350.5 936.698 1350.5 936.915H1360.15V941.124Z" fill="white"/>
</g>
<defs>
<linearGradient id="paint0_linear_7561_310" x1="1808.71" y1="-728.509" x2="1766.48" y2="843.396" gradientUnits="userSpaceOnUse">
<stop stop-color="#261D66"/>
<stop offset="0.285469" stop-color="#391F6E"/>
<stop offset="0.452146" stop-color="#682383"/>
<stop offset="0.957384" stop-color="#E30613"/>
</linearGradient>
<linearGradient id="paint1_linear_7561_310" x1="1426.7" y1="828.483" x2="1302.22" y2="947.251" gradientUnits="userSpaceOnUse">
<stop stop-color="#261D66"/>
<stop offset="0.285469" stop-color="#391F6E"/>
<stop offset="0.452146" stop-color="#682383"/>
<stop offset="0.957384" stop-color="#E30613"/>
</linearGradient>
<clipPath id="clip0_7561_310">
<rect width="1920" height="1080" fill="white" transform="translate(0 0.136475)"/>
</clipPath>
</defs>
</svg>
