<svg width="1920" height="1081" viewBox="0 0 1920 1081" fill="none" xmlns="http://www.w3.org/2000/svg">
<rect width="1920" height="1080" transform="translate(0 0.408447)" fill="white"/>
<circle cx="1851.35" cy="83.1793" r="39.0865" stroke="#838383" stroke-width="4"/>
<path d="M1866.28 798.891L1870.39 798.891L1870.39 802.5L1866.28 802.5L1866.28 806.679L1862.78 806.679L1862.78 802.5L1858.66 802.5L1858.66 798.891L1862.78 798.891L1862.78 794.725L1866.28 794.725L1866.28 798.891Z" fill="black"/>
<path d="M1866.28 811.123L1870.39 811.123L1870.39 814.733L1866.28 814.733L1866.28 818.911L1862.78 818.911L1862.78 814.733L1858.66 814.733L1858.66 811.123L1862.78 811.123L1862.78 806.958L1866.28 806.958L1866.28 811.123Z" fill="black"/>
<path d="M1872.46 830.575C1872.46 832.356 1871.84 833.844 1870.59 835.038C1869.34 836.232 1867.56 836.829 1865.24 836.829C1862.93 836.829 1861.15 836.232 1859.9 835.038C1858.65 833.844 1858.03 832.356 1858.03 830.575C1858.03 829.598 1858.16 828.72 1858.43 827.942C1858.72 827.174 1859 826.653 1859.28 826.382L1859.68 825.961L1859.68 825.717L1852.74 825.717L1852.74 820.154L1872.19 820.154L1872.19 825.717L1869.7 825.717L1869.7 825.989C1870.01 826.133 1870.33 826.332 1870.66 826.586C1870.99 826.866 1871.27 827.151 1871.49 827.44C1871.76 827.793 1871.99 828.254 1872.18 828.824C1872.37 829.385 1872.46 829.969 1872.46 830.575ZM1863.52 830.303C1863.95 830.764 1864.52 830.995 1865.24 830.995C1865.97 830.995 1866.54 830.769 1866.97 830.317C1867.39 829.864 1867.61 829.209 1867.61 828.349C1867.61 827.508 1867.4 826.861 1866.98 826.409C1866.56 825.948 1865.98 825.717 1865.24 825.717C1864.5 825.717 1863.92 825.948 1863.51 826.409C1863.09 826.87 1862.88 827.517 1862.88 828.349C1862.88 829.2 1863.1 829.851 1863.52 830.303Z" fill="black"/>
<path d="M1868.16 854.435C1866.7 854.435 1865.61 853.87 1864.91 852.739C1864.21 851.609 1863.86 850.134 1863.86 848.316C1863.86 847.402 1863.94 846.588 1864.09 845.874C1864.24 845.186 1864.4 844.734 1864.58 844.517L1864.8 844.205L1863.02 844.205C1862.6 844.205 1862.29 844.341 1862.08 844.612C1861.88 844.874 1861.77 845.34 1861.77 846.01C1861.77 847.231 1862.19 847.841 1863.02 847.841L1863.02 853.689C1861.38 853.689 1860.14 853.033 1859.3 851.722C1858.45 850.401 1858.03 848.497 1858.03 846.01C1858.03 843.513 1858.43 841.663 1859.23 840.46C1860.04 839.257 1861.3 838.656 1863.02 838.656L1866.49 838.656C1866.93 838.656 1867.23 838.606 1867.4 838.506C1867.57 838.398 1867.66 838.212 1867.66 837.95L1867.61 837.543L1872.19 837.543C1872.37 837.959 1872.46 838.696 1872.46 839.755C1872.46 840.912 1872.21 841.812 1871.69 842.455C1871.27 842.988 1870.87 843.359 1870.47 843.567L1870.25 843.649L1870.25 843.934C1870.49 844.024 1870.74 844.191 1871.02 844.436C1871.29 844.671 1871.51 844.951 1871.7 845.277C1871.91 845.63 1872.09 846.132 1872.23 846.783C1872.39 847.425 1872.46 848.122 1872.46 848.872C1872.46 850.491 1872.1 851.826 1871.38 852.875C1870.66 853.915 1869.59 854.435 1868.16 854.435ZM1867.77 848.872C1868.37 848.872 1868.66 848.094 1868.66 846.539C1868.66 844.983 1868.37 844.205 1867.77 844.205C1867.18 844.205 1866.89 844.983 1866.89 846.539C1866.89 848.094 1867.18 848.872 1867.77 848.872Z" fill="black"/>
<path d="M1870.63 869.802C1869.41 871.313 1867.61 872.068 1865.24 872.068C1862.88 872.068 1861.08 871.313 1859.86 869.802C1858.64 868.301 1858.03 866.274 1858.03 863.724C1858.03 861.182 1858.64 859.16 1859.86 857.659C1861.08 856.148 1862.88 855.393 1865.24 855.393C1867.61 855.393 1869.41 856.148 1870.63 857.659C1871.85 859.16 1872.46 861.182 1872.46 863.724C1872.46 866.274 1871.85 868.301 1870.63 869.802ZM1867.14 861.729C1866.67 861.268 1866.04 861.037 1865.24 861.037C1864.45 861.037 1863.81 861.268 1863.33 861.729C1862.86 862.191 1862.63 862.855 1862.63 863.724C1862.63 864.601 1862.86 865.27 1863.33 865.732C1863.81 866.193 1864.45 866.424 1865.24 866.424C1866.04 866.424 1866.67 866.193 1867.14 865.732C1867.62 865.27 1867.86 864.601 1867.86 863.724C1867.86 862.855 1867.62 862.191 1867.14 861.729Z" fill="black"/>
<path d="M1867.19 881.777L1867.19 871.221L1872.19 871.221L1872.19 887.896L1852.74 887.896L1852.74 881.777L1867.19 881.777Z" fill="black"/>
<path d="M1872.19 890.116L1872.19 895.665L1865.49 895.665C1864.7 895.665 1864.07 895.901 1863.6 896.371C1863.12 896.841 1862.88 897.488 1862.88 898.311C1862.88 899.152 1863.12 899.804 1863.59 900.265C1864.05 900.717 1864.68 900.943 1865.49 900.943L1872.19 900.943L1872.19 906.506L1852.74 906.506L1852.74 900.943L1860.79 900.943L1860.79 900.672C1860.58 900.609 1860.25 900.401 1859.82 900.048C1859.52 899.804 1859.24 899.505 1858.99 899.152C1858.73 898.763 1858.5 898.257 1858.31 897.633C1858.12 897.009 1858.03 896.353 1858.03 895.665C1858.03 893.947 1858.51 892.59 1859.48 891.595C1860.46 890.609 1861.92 890.116 1863.86 890.116L1872.19 890.116Z" fill="black"/>
<path d="M1862.75 923.352C1861.26 923.352 1860.11 922.719 1859.27 921.452C1858.44 920.186 1858.03 918.445 1858.03 916.229L1858.03 906.921L1861.46 906.921L1861.46 909.458C1862.08 909.232 1862.59 909.119 1862.97 909.119C1864.43 909.119 1865.55 909.743 1866.32 910.992C1867.09 912.249 1867.47 913.995 1867.47 916.229C1867.47 917.893 1867.73 918.73 1868.24 918.739C1868.72 918.739 1868.96 917.902 1868.96 916.229C1868.96 913.524 1869.3 911.457 1869.98 910.028C1870.66 908.608 1871.84 907.898 1873.52 907.898C1875.17 907.898 1876.33 908.608 1877.01 910.028C1877.69 911.457 1878.03 913.524 1878.03 916.229C1878.03 918.924 1877.69 920.991 1877.02 922.429C1876.34 923.859 1875.18 924.573 1873.52 924.573C1872.65 924.573 1871.91 924.342 1871.28 923.881C1870.67 923.429 1870.27 922.981 1870.08 922.538L1869.8 921.873L1869.7 921.873C1869.58 922.126 1869.36 922.366 1869.06 922.592C1868.81 922.782 1868.54 922.877 1868.24 922.877C1867.88 922.877 1867.55 922.746 1867.24 922.484C1866.96 922.221 1866.76 921.964 1866.63 921.71L1866.49 921.317L1866.38 921.317C1866.32 921.48 1866.15 921.715 1865.88 922.022C1865.67 922.267 1865.44 922.47 1865.2 922.633C1864.53 923.112 1863.71 923.352 1862.75 923.352ZM1874.31 914.017C1874.17 913.565 1873.91 913.339 1873.52 913.339C1873.13 913.339 1872.87 913.565 1872.75 914.017C1872.62 914.497 1872.56 915.234 1872.56 916.229C1872.56 917.242 1872.62 917.979 1872.75 918.44C1872.87 918.893 1873.13 919.119 1873.52 919.119C1873.91 919.119 1874.17 918.893 1874.31 918.44C1874.43 917.979 1874.5 917.242 1874.5 916.229C1874.5 915.234 1874.43 914.497 1874.31 914.017ZM1864.13 916.229C1864.13 915.062 1863.68 914.479 1862.76 914.479C1861.86 914.479 1861.41 915.062 1861.41 916.229C1861.41 917.432 1861.86 918.033 1862.76 918.033C1863.21 918.042 1863.56 917.898 1863.79 917.599C1864.02 917.292 1864.13 916.835 1864.13 916.229Z" fill="black"/>
<path d="M1858.3 931.243L1858.3 925.68L1872.19 925.68L1872.19 931.243L1858.3 931.243ZM1854.72 931.379C1853.99 931.379 1853.44 931.121 1853.05 930.605C1852.66 930.09 1852.46 929.366 1852.46 928.435C1852.46 927.539 1852.66 926.834 1853.06 926.318C1853.45 925.802 1854 925.545 1854.72 925.545C1855.45 925.545 1856.02 925.802 1856.43 926.318C1856.82 926.834 1857.02 927.539 1857.02 928.435C1857.02 929.366 1856.83 930.09 1856.44 930.605C1856.04 931.121 1855.47 931.379 1854.72 931.379Z" fill="black"/>
<path d="M1872.19 933.599L1872.19 939.704L1864.42 939.704L1864.42 947.207L1872.19 947.207L1872.19 953.326L1852.74 953.326L1852.74 947.207L1859.41 947.207L1859.41 939.704L1852.74 939.704L1852.74 933.599L1872.19 933.599Z" fill="black"/>
<path d="M1838.92 889.212L1834.76 889.212L1834.76 890.963L1832.13 890.963L1827.81 886.431L1827.81 883.65L1830.59 883.65L1830.59 879.878L1834.76 879.878L1834.76 883.65L1838.18 883.65C1838.97 883.65 1839.52 883.455 1839.85 883.066C1840.16 882.677 1840.32 882.076 1840.32 881.262C1840.32 880.601 1840.23 880.122 1840.04 879.823L1839.96 879.593L1844.3 879.593C1844.61 880.262 1844.77 881.108 1844.76 882.13C1844.76 884.59 1844.3 886.386 1843.38 887.516C1842.46 888.647 1840.98 889.212 1838.92 889.212Z" fill="black"/>
<path d="M1844.49 891.934L1844.49 897.483L1837.79 897.483C1837 897.483 1836.37 897.718 1835.9 898.189C1835.42 898.659 1835.18 899.306 1835.18 900.129C1835.18 900.97 1835.42 901.622 1835.89 902.083C1836.35 902.535 1836.98 902.761 1837.79 902.761L1844.49 902.761L1844.49 908.324L1830.59 908.324L1830.59 902.761L1833.09 902.761L1833.09 902.49C1832.87 902.427 1832.55 902.219 1832.11 901.866C1831.82 901.622 1831.54 901.323 1831.29 900.97C1831.02 900.581 1830.8 900.075 1830.61 899.451C1830.42 898.827 1830.32 898.171 1830.32 897.483C1830.32 895.765 1830.81 894.408 1831.77 893.413C1832.75 892.427 1834.21 891.934 1836.16 891.934L1844.49 891.934Z" fill="black"/>
<path d="M1830.59 916.107L1830.59 910.544L1844.49 910.544L1844.49 916.107L1830.59 916.107ZM1827.01 916.242C1826.29 916.242 1825.73 915.985 1825.34 915.469C1824.95 914.953 1824.76 914.23 1824.76 913.298C1824.76 912.403 1824.96 911.697 1825.36 911.182C1825.75 910.666 1826.3 910.408 1827.01 910.408C1827.74 910.408 1828.31 910.666 1828.72 911.182C1829.12 911.697 1829.32 912.403 1829.32 913.298C1829.32 914.23 1829.12 914.953 1828.74 915.469C1828.34 915.985 1827.76 916.242 1827.01 916.242Z" fill="black"/>
<path d="M1840.46 934.405C1838.99 934.405 1837.91 933.839 1837.2 932.709C1836.51 931.578 1836.16 930.104 1836.16 928.285C1836.16 927.372 1836.23 926.558 1836.39 925.843C1836.53 925.156 1836.7 924.703 1836.88 924.486L1837.09 924.174L1835.32 924.174C1834.9 924.174 1834.59 924.31 1834.38 924.581C1834.17 924.844 1834.07 925.31 1834.07 925.979C1834.07 927.2 1834.48 927.811 1835.32 927.811L1835.32 933.658C1833.68 933.658 1832.44 933.003 1831.6 931.691C1830.75 930.37 1830.32 928.466 1830.32 925.979C1830.32 923.482 1830.73 921.633 1831.53 920.43C1832.34 919.227 1833.6 918.625 1835.32 918.625L1838.79 918.625C1839.22 918.625 1839.53 918.575 1839.7 918.476C1839.87 918.367 1839.96 918.182 1839.96 917.92L1839.9 917.512L1844.49 917.512C1844.67 917.929 1844.76 918.666 1844.76 919.724C1844.76 920.882 1844.5 921.782 1843.99 922.424C1843.57 922.958 1843.16 923.329 1842.76 923.537L1842.55 923.618L1842.55 923.903C1842.78 923.993 1843.04 924.161 1843.32 924.405C1843.58 924.64 1843.81 924.921 1844 925.246C1844.21 925.599 1844.38 926.101 1844.53 926.752C1844.68 927.394 1844.76 928.091 1844.76 928.842C1844.76 930.461 1844.4 931.795 1843.67 932.844C1842.96 933.884 1841.89 934.405 1840.46 934.405ZM1840.06 928.842C1840.66 928.842 1840.96 928.064 1840.96 926.508C1840.96 924.952 1840.66 924.174 1840.06 924.174C1839.48 924.174 1839.18 924.952 1839.18 926.508C1839.18 928.064 1839.48 928.842 1840.06 928.842Z" fill="black"/>
<path d="M1830.76 936.204L1831.23 936.204L1831.23 942.594L1830.76 942.594C1830.35 942.594 1830.02 942.807 1829.78 943.232C1829.53 943.648 1829.4 944.249 1829.4 945.036C1829.4 946.664 1829.83 947.483 1830.7 947.492C1831.63 947.492 1832.09 946.488 1832.1 944.48C1832.1 941.187 1832.65 938.818 1833.76 937.37C1834.87 935.941 1836.45 935.227 1838.49 935.227C1840.46 935.227 1842 936.027 1843.09 937.628C1844.2 939.238 1844.76 941.617 1844.76 944.765C1844.76 947.922 1844.23 950.301 1843.17 951.902C1842.1 953.494 1840.54 954.29 1838.49 954.29L1837.62 954.29L1837.62 947.899L1838.49 947.899C1839.59 947.899 1840.13 946.85 1840.12 944.751C1840.12 942.662 1839.59 941.617 1838.55 941.617C1837.5 941.617 1836.98 942.589 1836.98 944.534C1836.98 950.748 1834.91 953.864 1830.76 953.883C1828.88 953.883 1827.41 953.132 1826.35 951.63C1825.29 950.129 1824.76 947.931 1824.76 945.036C1824.76 939.148 1826.76 936.204 1830.76 936.204Z" fill="black"/>
<path d="M1818.67 989.851C1820.19 995.799 1828.79 1028.99 1829.32 1031.02C1829.52 1031.73 1829.88 1032.38 1830.37 1032.93C1830.87 1033.48 1831.49 1033.89 1832.17 1034.16C1833.99 1034.85 1846.13 1039.57 1847.57 1040.14C1848.19 1040.42 1848.87 1040.54 1849.56 1040.51C1850.24 1040.49 1850.9 1040.3 1851.5 1039.98L1878.61 1027.07C1879.26 1026.79 1879.82 1026.35 1880.26 1025.8C1880.7 1025.25 1881.01 1024.6 1881.16 1023.92L1887.68 995.088C1887.87 994.282 1887.83 993.45 1887.56 992.671C1887.29 991.892 1886.82 991.207 1886.18 990.684L1864.91 972.423C1863.65 971.348 1859.94 969.549 1856.35 970.69L1823.14 981.258C1818.37 982.775 1817.63 985.877 1818.67 989.824L1818.67 989.851Z" fill="url(#paint0_linear_7564_362)"/>
<mask id="mask0_7564_362" style="mask-type:luminance" maskUnits="userSpaceOnUse" x="1818" y="970" width="70" height="71">
<path d="M1818.67 989.851C1820.19 995.799 1828.79 1028.99 1829.32 1031.02C1829.52 1031.73 1829.88 1032.38 1830.37 1032.93C1830.87 1033.48 1831.49 1033.89 1832.17 1034.16C1833.99 1034.85 1846.13 1039.57 1847.57 1040.14C1848.19 1040.42 1848.87 1040.54 1849.56 1040.51C1850.24 1040.49 1850.9 1040.3 1851.5 1039.97L1878.61 1027.07C1879.26 1026.79 1879.82 1026.35 1880.26 1025.8C1880.7 1025.25 1881.01 1024.6 1881.16 1023.92L1887.68 995.088C1887.87 994.282 1887.83 993.45 1887.56 992.671C1887.29 991.892 1886.82 991.207 1886.18 990.683L1864.91 972.422C1863.65 971.348 1859.94 969.549 1856.35 970.69L1823.14 981.258C1818.37 982.775 1817.63 985.877 1818.67 989.824L1818.67 989.851Z" fill="white"/>
</mask>
<g mask="url(#mask0_7564_362)">
<path d="M1860.32 1001.95L1860.32 1012.44L1846.99 1012.44L1846.99 1025.33L1860.32 1025.33L1860.32 1035.86L1826.96 1035.86L1826.96 1025.34L1838.4 1025.34L1838.4 1012.45L1826.96 1012.45L1826.96 1001.97L1860.32 1001.97L1860.32 1001.95Z" fill="white"/>
<path d="M1851.73 987.64L1851.73 969.499L1860.32 969.499L1860.32 998.153L1826.96 998.153L1826.96 987.64L1851.73 987.64Z" fill="white"/>
</g>
<path d="M1874.79 981.132L1874.79 983.694L1873.28 983.694L1873.28 988.186L1871.29 988.186L1866.63 984.514L1866.63 981.132L1871.29 981.132L1871.29 980.079L1873.28 980.079L1873.28 981.132L1874.79 981.132ZM1868.15 983.523L1869.1 984.024L1871.27 985.783L1871.33 985.783L1871.33 983.66L1869.1 983.66L1868.15 983.267L1868.15 983.523Z" fill="white"/>
<path d="M1874.79 988.195L1874.79 995.716L1873.16 995.716C1872.77 995.716 1872.43 995.627 1872.14 995.449C1871.84 995.27 1871.6 995.029 1871.41 994.726C1871.1 994.206 1870.83 993.53 1870.61 992.699C1870.54 992.46 1870.48 992.258 1870.43 992.095C1870.38 991.928 1870.32 991.754 1870.24 991.571C1870.16 991.385 1870.07 991.237 1869.99 991.127C1869.91 991.017 1869.81 990.926 1869.69 990.854C1869.57 990.782 1869.44 990.746 1869.31 990.746C1868.82 990.746 1868.57 991.11 1868.57 991.839C1868.57 992.572 1868.9 992.938 1869.54 992.938L1869.97 992.938L1869.97 995.506L1869.54 995.506C1868.49 995.506 1867.72 995.206 1867.23 994.606C1866.75 994.01 1866.51 993.09 1866.51 991.845C1866.51 990.611 1866.74 989.693 1867.2 989.089C1867.66 988.486 1868.36 988.184 1869.31 988.184C1869.83 988.184 1870.3 988.339 1870.7 988.651C1871.1 988.958 1871.41 989.34 1871.62 989.795C1871.82 990.22 1871.99 990.664 1872.14 991.127C1872.27 991.518 1872.39 991.898 1872.5 992.266C1872.6 992.581 1872.71 992.739 1872.81 992.739L1872.81 988.195L1874.79 988.195Z" fill="white"/>
<path d="M1867.64 997.359C1868.39 996.65 1869.42 996.295 1870.71 996.295C1872 996.295 1873.02 996.65 1873.77 997.359C1874.53 998.069 1874.9 999.056 1874.9 1000.32C1874.9 1001.58 1874.53 1002.56 1873.77 1003.27C1873.02 1003.99 1871.99 1004.35 1870.71 1004.35C1869.42 1004.35 1868.4 1003.99 1867.64 1003.27C1866.89 1002.56 1866.51 1001.58 1866.51 1000.32C1866.51 999.056 1866.89 998.069 1867.64 997.359ZM1868.69 1000.32C1868.69 1001.22 1869.36 1001.66 1870.71 1001.66C1872.06 1001.66 1872.73 1001.22 1872.73 1000.32C1872.73 999.428 1872.06 998.982 1870.71 998.982C1869.36 998.982 1868.69 999.428 1868.69 1000.32Z" fill="white"/>
<path d="M1874.79 1005L1874.79 1012.52L1873.16 1012.52C1872.77 1012.52 1872.43 1012.43 1872.14 1012.25C1871.84 1012.07 1871.6 1011.83 1871.41 1011.53C1871.1 1011.01 1870.83 1010.33 1870.61 1009.5C1870.54 1009.26 1870.48 1009.06 1870.43 1008.9C1870.38 1008.73 1870.32 1008.56 1870.24 1008.37C1870.16 1008.19 1870.07 1008.04 1869.99 1007.93C1869.91 1007.82 1869.81 1007.73 1869.69 1007.66C1869.57 1007.58 1869.44 1007.55 1869.31 1007.55C1868.82 1007.55 1868.57 1007.91 1868.57 1008.64C1868.57 1009.37 1868.9 1009.74 1869.54 1009.74L1869.97 1009.74L1869.97 1012.31L1869.54 1012.31C1868.49 1012.31 1867.72 1012.01 1867.23 1011.41C1866.75 1010.81 1866.51 1009.89 1866.51 1008.65C1866.51 1007.41 1866.74 1006.49 1867.2 1005.89C1867.66 1005.29 1868.36 1004.99 1869.31 1004.99C1869.83 1004.99 1870.3 1005.14 1870.7 1005.45C1871.1 1005.76 1871.41 1006.14 1871.62 1006.6C1871.82 1007.02 1871.99 1007.47 1872.14 1007.93C1872.27 1008.32 1872.39 1008.7 1872.5 1009.07C1872.6 1009.38 1872.71 1009.54 1872.81 1009.54L1872.81 1005L1874.79 1005Z" fill="white"/>
<defs>
<linearGradient id="paint0_linear_7564_362" x1="1821.76" y1="973.663" x2="1877.67" y2="1032.27" gradientUnits="userSpaceOnUse">
<stop stop-color="#261D66"/>
<stop offset="0.285469" stop-color="#391F6E"/>
<stop offset="0.452146" stop-color="#682383"/>
<stop offset="0.957384" stop-color="#E30613"/>
</linearGradient>
</defs>
</svg>
